<?xml version="1.0" encoding="utf-8" standalone="no"?>
<!DOCTYPE svg PUBLIC "-//W3C//DTD SVG 1.1//EN"
  "http://www.w3.org/Graphics/SVG/1.1/DTD/svg11.dtd">
<svg xmlns:xlink="http://www.w3.org/1999/xlink" width="1008pt" height="396pt" viewBox="0 0 1008 396" xmlns="http://www.w3.org/2000/svg" version="1.1">
 <metadata>
  <rdf:RDF xmlns:dc="http://purl.org/dc/elements/1.1/" xmlns:cc="http://creativecommons.org/ns#" xmlns:rdf="http://www.w3.org/1999/02/22-rdf-syntax-ns#">
   <cc:Work>
    <dc:type rdf:resource="http://purl.org/dc/dcmitype/StillImage"/>
    <dc:date>2026-02-03T14:11:22.368132</dc:date>
    <dc:format>image/svg+xml</dc:format>
    <dc:creator>
     <cc:Agent>
      <dc:title>Matplotlib v3.9.0, https://matplotlib.org/</dc:title>
     </cc:Agent>
    </dc:creator>
   </cc:Work>
  </rdf:RDF>
 </metadata>
 <defs>
  <style type="text/css">*{stroke-linejoin: round; stroke-linecap: butt}</style>
 </defs>
 <g id="figure_1">
  <g id="patch_1">
   <path d="M 0 396 
L 1008 396 
L 1008 0 
L 0 0 
z
" style="fill: #ffffff"/>
  </g>
  <g id="axes_1">
   <g id="patch_2">
    <path d="M 106.13 330.28 
L 541.530496 330.28 
L 541.530496 33.36 
L 106.13 33.36 
z
" style="fill: #ffffff"/>
   </g>
   <g id="matplotlib.axis_1">
    <g id="xtick_1">
     <g id="line2d_1">
      <path d="M 125.524717 330.28 
L 125.524717 33.36 
" clip-path="url(#pbfb4d2c8ff)" style="fill: none; stroke: #b0b0b0; stroke-opacity: 0.3; stroke-width: 0.8; stroke-linecap: square"/>
     </g>
     <g id="line2d_2">
      <defs>
       <path id="ma7ad5ae4c4" d="M 0 0 
L 0 3.5 
" style="stroke: #000000; stroke-width: 0.8"/>
      </defs>
      <g>
       <use xlink:href="#ma7ad5ae4c4" x="125.524717" y="330.28" style="stroke: #000000; stroke-width: 0.8"/>
      </g>
     </g>
     <g id="text_1">
      <!-- 0 -->
      <g transform="translate(119.162217 352.476875) scale(0.2 -0.2)">
       <defs>
        <path id="DejaVuSans-30" d="M 2034 4250 
Q 1547 4250 1301 3770 
Q 1056 3291 1056 2328 
Q 1056 1369 1301 889 
Q 1547 409 2034 409 
Q 2525 409 2770 889 
Q 3016 1369 3016 2328 
Q 3016 3291 2770 3770 
Q 2525 4250 2034 4250 
z
M 2034 4750 
Q 2819 4750 3233 4129 
Q 3647 3509 3647 2328 
Q 3647 1150 3233 529 
Q 2819 -91 2034 -91 
Q 1250 -91 836 529 
Q 422 1150 422 2328 
Q 422 3509 836 4129 
Q 1250 4750 2034 4750 
z
" transform="scale(0.015625)"/>
       </defs>
       <use xlink:href="#DejaVuSans-30"/>
      </g>
     </g>
    </g>
    <g id="xtick_2">
     <g id="line2d_3">
      <path d="M 204.767686 330.28 
L 204.767686 33.36 
" clip-path="url(#pbfb4d2c8ff)" style="fill: none; stroke: #b0b0b0; stroke-opacity: 0.3; stroke-width: 0.8; stroke-linecap: square"/>
     </g>
     <g id="line2d_4">
      <g>
       <use xlink:href="#ma7ad5ae4c4" x="204.767686" y="330.28" style="stroke: #000000; stroke-width: 0.8"/>
      </g>
     </g>
     <g id="text_2">
      <!-- 20 -->
      <g transform="translate(192.042686 352.476875) scale(0.2 -0.2)">
       <defs>
        <path id="DejaVuSans-32" d="M 1228 531 
L 3431 531 
L 3431 0 
L 469 0 
L 469 531 
Q 828 903 1448 1529 
Q 2069 2156 2228 2338 
Q 2531 2678 2651 2914 
Q 2772 3150 2772 3378 
Q 2772 3750 2511 3984 
Q 2250 4219 1831 4219 
Q 1534 4219 1204 4116 
Q 875 4013 500 3803 
L 500 4441 
Q 881 4594 1212 4672 
Q 1544 4750 1819 4750 
Q 2544 4750 2975 4387 
Q 3406 4025 3406 3419 
Q 3406 3131 3298 2873 
Q 3191 2616 2906 2266 
Q 2828 2175 2409 1742 
Q 1991 1309 1228 531 
z
" transform="scale(0.015625)"/>
       </defs>
       <use xlink:href="#DejaVuSans-32"/>
       <use xlink:href="#DejaVuSans-30" x="63.623047"/>
      </g>
     </g>
    </g>
    <g id="xtick_3">
     <g id="line2d_5">
      <path d="M 284.010656 330.28 
L 284.010656 33.36 
" clip-path="url(#pbfb4d2c8ff)" style="fill: none; stroke: #b0b0b0; stroke-opacity: 0.3; stroke-width: 0.8; stroke-linecap: square"/>
     </g>
     <g id="line2d_6">
      <g>
       <use xlink:href="#ma7ad5ae4c4" x="284.010656" y="330.28" style="stroke: #000000; stroke-width: 0.8"/>
      </g>
     </g>
     <g id="text_3">
      <!-- 40 -->
      <g transform="translate(271.285656 352.476875) scale(0.2 -0.2)">
       <defs>
        <path id="DejaVuSans-34" d="M 2419 4116 
L 825 1625 
L 2419 1625 
L 2419 4116 
z
M 2253 4666 
L 3047 4666 
L 3047 1625 
L 3713 1625 
L 3713 1100 
L 3047 1100 
L 3047 0 
L 2419 0 
L 2419 1100 
L 313 1100 
L 313 1709 
L 2253 4666 
z
" transform="scale(0.015625)"/>
       </defs>
       <use xlink:href="#DejaVuSans-34"/>
       <use xlink:href="#DejaVuSans-30" x="63.623047"/>
      </g>
     </g>
    </g>
    <g id="xtick_4">
     <g id="line2d_7">
      <path d="M 363.253625 330.28 
L 363.253625 33.36 
" clip-path="url(#pbfb4d2c8ff)" style="fill: none; stroke: #b0b0b0; stroke-opacity: 0.3; stroke-width: 0.8; stroke-linecap: square"/>
     </g>
     <g id="line2d_8">
      <g>
       <use xlink:href="#ma7ad5ae4c4" x="363.253625" y="330.28" style="stroke: #000000; stroke-width: 0.8"/>
      </g>
     </g>
     <g id="text_4">
      <!-- 60 -->
      <g transform="translate(350.528625 352.476875) scale(0.2 -0.2)">
       <defs>
        <path id="DejaVuSans-36" d="M 2113 2584 
Q 1688 2584 1439 2293 
Q 1191 2003 1191 1497 
Q 1191 994 1439 701 
Q 1688 409 2113 409 
Q 2538 409 2786 701 
Q 3034 994 3034 1497 
Q 3034 2003 2786 2293 
Q 2538 2584 2113 2584 
z
M 3366 4563 
L 3366 3988 
Q 3128 4100 2886 4159 
Q 2644 4219 2406 4219 
Q 1781 4219 1451 3797 
Q 1122 3375 1075 2522 
Q 1259 2794 1537 2939 
Q 1816 3084 2150 3084 
Q 2853 3084 3261 2657 
Q 3669 2231 3669 1497 
Q 3669 778 3244 343 
Q 2819 -91 2113 -91 
Q 1303 -91 875 529 
Q 447 1150 447 2328 
Q 447 3434 972 4092 
Q 1497 4750 2381 4750 
Q 2619 4750 2861 4703 
Q 3103 4656 3366 4563 
z
" transform="scale(0.015625)"/>
       </defs>
       <use xlink:href="#DejaVuSans-36"/>
       <use xlink:href="#DejaVuSans-30" x="63.623047"/>
      </g>
     </g>
    </g>
    <g id="xtick_5">
     <g id="line2d_9">
      <path d="M 442.496595 330.28 
L 442.496595 33.36 
" clip-path="url(#pbfb4d2c8ff)" style="fill: none; stroke: #b0b0b0; stroke-opacity: 0.3; stroke-width: 0.8; stroke-linecap: square"/>
     </g>
     <g id="line2d_10">
      <g>
       <use xlink:href="#ma7ad5ae4c4" x="442.496595" y="330.28" style="stroke: #000000; stroke-width: 0.8"/>
      </g>
     </g>
     <g id="text_5">
      <!-- 80 -->
      <g transform="translate(429.771595 352.476875) scale(0.2 -0.2)">
       <defs>
        <path id="DejaVuSans-38" d="M 2034 2216 
Q 1584 2216 1326 1975 
Q 1069 1734 1069 1313 
Q 1069 891 1326 650 
Q 1584 409 2034 409 
Q 2484 409 2743 651 
Q 3003 894 3003 1313 
Q 3003 1734 2745 1975 
Q 2488 2216 2034 2216 
z
M 1403 2484 
Q 997 2584 770 2862 
Q 544 3141 544 3541 
Q 544 4100 942 4425 
Q 1341 4750 2034 4750 
Q 2731 4750 3128 4425 
Q 3525 4100 3525 3541 
Q 3525 3141 3298 2862 
Q 3072 2584 2669 2484 
Q 3125 2378 3379 2068 
Q 3634 1759 3634 1313 
Q 3634 634 3220 271 
Q 2806 -91 2034 -91 
Q 1263 -91 848 271 
Q 434 634 434 1313 
Q 434 1759 690 2068 
Q 947 2378 1403 2484 
z
M 1172 3481 
Q 1172 3119 1398 2916 
Q 1625 2713 2034 2713 
Q 2441 2713 2670 2916 
Q 2900 3119 2900 3481 
Q 2900 3844 2670 4047 
Q 2441 4250 2034 4250 
Q 1625 4250 1398 4047 
Q 1172 3844 1172 3481 
z
" transform="scale(0.015625)"/>
       </defs>
       <use xlink:href="#DejaVuSans-38"/>
       <use xlink:href="#DejaVuSans-30" x="63.623047"/>
      </g>
     </g>
    </g>
    <g id="xtick_6">
     <g id="line2d_11">
      <path d="M 521.739564 330.28 
L 521.739564 33.36 
" clip-path="url(#pbfb4d2c8ff)" style="fill: none; stroke: #b0b0b0; stroke-opacity: 0.3; stroke-width: 0.8; stroke-linecap: square"/>
     </g>
     <g id="line2d_12">
      <g>
       <use xlink:href="#ma7ad5ae4c4" x="521.739564" y="330.28" style="stroke: #000000; stroke-width: 0.8"/>
      </g>
     </g>
     <g id="text_6">
      <!-- 100 -->
      <g transform="translate(502.652064 352.476875) scale(0.2 -0.2)">
       <defs>
        <path id="DejaVuSans-31" d="M 794 531 
L 1825 531 
L 1825 4091 
L 703 3866 
L 703 4441 
L 1819 4666 
L 2450 4666 
L 2450 531 
L 3481 531 
L 3481 0 
L 794 0 
L 794 531 
z
" transform="scale(0.015625)"/>
       </defs>
       <use xlink:href="#DejaVuSans-31"/>
       <use xlink:href="#DejaVuSans-30" x="63.623047"/>
       <use xlink:href="#DejaVuSans-30" x="127.246094"/>
      </g>
     </g>
    </g>
    <g id="text_7">
     <!-- $\lambda$ [ms] -->
     <g transform="translate(287.145248 378.112656) scale(0.23 -0.23)">
      <defs>
       <path id="DejaVuSans-Oblique-3bb" d="M 2350 4316 
L 3125 0 
L 2516 0 
L 2038 2588 
L 328 0 
L -281 0 
L 1903 3356 
L 1794 3975 
Q 1725 4369 1391 4369 
L 1091 4369 
L 1184 4863 
L 1550 4856 
Q 2253 4847 2350 4316 
z
" transform="scale(0.015625)"/>
       <path id="DejaVuSans-20" transform="scale(0.015625)"/>
       <path id="DejaVuSans-5b" d="M 550 4863 
L 1875 4863 
L 1875 4416 
L 1125 4416 
L 1125 -397 
L 1875 -397 
L 1875 -844 
L 550 -844 
L 550 4863 
z
" transform="scale(0.015625)"/>
       <path id="DejaVuSans-6d" d="M 3328 2828 
Q 3544 3216 3844 3400 
Q 4144 3584 4550 3584 
Q 5097 3584 5394 3201 
Q 5691 2819 5691 2113 
L 5691 0 
L 5113 0 
L 5113 2094 
Q 5113 2597 4934 2840 
Q 4756 3084 4391 3084 
Q 3944 3084 3684 2787 
Q 3425 2491 3425 1978 
L 3425 0 
L 2847 0 
L 2847 2094 
Q 2847 2600 2669 2842 
Q 2491 3084 2119 3084 
Q 1678 3084 1418 2786 
Q 1159 2488 1159 1978 
L 1159 0 
L 581 0 
L 581 3500 
L 1159 3500 
L 1159 2956 
Q 1356 3278 1631 3431 
Q 1906 3584 2284 3584 
Q 2666 3584 2933 3390 
Q 3200 3197 3328 2828 
z
" transform="scale(0.015625)"/>
       <path id="DejaVuSans-73" d="M 2834 3397 
L 2834 2853 
Q 2591 2978 2328 3040 
Q 2066 3103 1784 3103 
Q 1356 3103 1142 2972 
Q 928 2841 928 2578 
Q 928 2378 1081 2264 
Q 1234 2150 1697 2047 
L 1894 2003 
Q 2506 1872 2764 1633 
Q 3022 1394 3022 966 
Q 3022 478 2636 193 
Q 2250 -91 1575 -91 
Q 1294 -91 989 -36 
Q 684 19 347 128 
L 347 722 
Q 666 556 975 473 
Q 1284 391 1588 391 
Q 1994 391 2212 530 
Q 2431 669 2431 922 
Q 2431 1156 2273 1281 
Q 2116 1406 1581 1522 
L 1381 1569 
Q 847 1681 609 1914 
Q 372 2147 372 2553 
Q 372 3047 722 3315 
Q 1072 3584 1716 3584 
Q 2034 3584 2315 3537 
Q 2597 3491 2834 3397 
z
" transform="scale(0.015625)"/>
       <path id="DejaVuSans-5d" d="M 1947 4863 
L 1947 -844 
L 622 -844 
L 622 -397 
L 1369 -397 
L 1369 4416 
L 622 4416 
L 622 4863 
L 1947 4863 
z
" transform="scale(0.015625)"/>
      </defs>
      <use xlink:href="#DejaVuSans-Oblique-3bb" transform="translate(0 0.015625)"/>
      <use xlink:href="#DejaVuSans-20" transform="translate(59.179688 0.015625)"/>
      <use xlink:href="#DejaVuSans-5b" transform="translate(90.966797 0.015625)"/>
      <use xlink:href="#DejaVuSans-6d" transform="translate(129.980469 0.015625)"/>
      <use xlink:href="#DejaVuSans-73" transform="translate(227.392578 0.015625)"/>
      <use xlink:href="#DejaVuSans-5d" transform="translate(279.492188 0.015625)"/>
     </g>
    </g>
   </g>
   <g id="matplotlib.axis_2">
    <g id="ytick_1">
     <g id="line2d_13">
      <path d="M 106.13 300.588 
L 541.530496 300.588 
" clip-path="url(#pbfb4d2c8ff)" style="fill: none; stroke: #b0b0b0; stroke-opacity: 0.3; stroke-width: 0.8; stroke-linecap: square"/>
     </g>
     <g id="line2d_14">
      <defs>
       <path id="m3c5a1a6126" d="M 0 0 
L -3.5 0 
" style="stroke: #000000; stroke-width: 0.8"/>
      </defs>
      <g>
       <use xlink:href="#m3c5a1a6126" x="106.13" y="300.588" style="stroke: #000000; stroke-width: 0.8"/>
      </g>
     </g>
     <g id="text_8">
      <!-- −0.25 -->
      <g transform="translate(37.839375 308.186438) scale(0.2 -0.2)">
       <defs>
        <path id="DejaVuSans-2212" d="M 678 2272 
L 4684 2272 
L 4684 1741 
L 678 1741 
L 678 2272 
z
" transform="scale(0.015625)"/>
        <path id="DejaVuSans-2e" d="M 684 794 
L 1344 794 
L 1344 0 
L 684 0 
L 684 794 
z
" transform="scale(0.015625)"/>
        <path id="DejaVuSans-35" d="M 691 4666 
L 3169 4666 
L 3169 4134 
L 1269 4134 
L 1269 2991 
Q 1406 3038 1543 3061 
Q 1681 3084 1819 3084 
Q 2600 3084 3056 2656 
Q 3513 2228 3513 1497 
Q 3513 744 3044 326 
Q 2575 -91 1722 -91 
Q 1428 -91 1123 -41 
Q 819 9 494 109 
L 494 744 
Q 775 591 1075 516 
Q 1375 441 1709 441 
Q 2250 441 2565 725 
Q 2881 1009 2881 1497 
Q 2881 1984 2565 2268 
Q 2250 2553 1709 2553 
Q 1456 2553 1204 2497 
Q 953 2441 691 2322 
L 691 4666 
z
" transform="scale(0.015625)"/>
       </defs>
       <use xlink:href="#DejaVuSans-2212"/>
       <use xlink:href="#DejaVuSans-30" x="83.789062"/>
       <use xlink:href="#DejaVuSans-2e" x="147.412109"/>
       <use xlink:href="#DejaVuSans-32" x="179.199219"/>
       <use xlink:href="#DejaVuSans-35" x="242.822266"/>
      </g>
     </g>
    </g>
    <g id="ytick_2">
     <g id="line2d_15">
      <path d="M 106.13 251.101333 
L 541.530496 251.101333 
" clip-path="url(#pbfb4d2c8ff)" style="fill: none; stroke: #b0b0b0; stroke-opacity: 0.3; stroke-width: 0.8; stroke-linecap: square"/>
     </g>
     <g id="line2d_16">
      <g>
       <use xlink:href="#m3c5a1a6126" x="106.13" y="251.101333" style="stroke: #000000; stroke-width: 0.8"/>
      </g>
     </g>
     <g id="text_9">
      <!-- 0.00 -->
      <g transform="translate(54.59875 258.699771) scale(0.2 -0.2)">
       <use xlink:href="#DejaVuSans-30"/>
       <use xlink:href="#DejaVuSans-2e" x="63.623047"/>
       <use xlink:href="#DejaVuSans-30" x="95.410156"/>
       <use xlink:href="#DejaVuSans-30" x="159.033203"/>
      </g>
     </g>
    </g>
    <g id="ytick_3">
     <g id="line2d_17">
      <path d="M 106.13 201.614667 
L 541.530496 201.614667 
" clip-path="url(#pbfb4d2c8ff)" style="fill: none; stroke: #b0b0b0; stroke-opacity: 0.3; stroke-width: 0.8; stroke-linecap: square"/>
     </g>
     <g id="line2d_18">
      <g>
       <use xlink:href="#m3c5a1a6126" x="106.13" y="201.614667" style="stroke: #000000; stroke-width: 0.8"/>
      </g>
     </g>
     <g id="text_10">
      <!-- 0.25 -->
      <g transform="translate(54.59875 209.213104) scale(0.2 -0.2)">
       <use xlink:href="#DejaVuSans-30"/>
       <use xlink:href="#DejaVuSans-2e" x="63.623047"/>
       <use xlink:href="#DejaVuSans-32" x="95.410156"/>
       <use xlink:href="#DejaVuSans-35" x="159.033203"/>
      </g>
     </g>
    </g>
    <g id="ytick_4">
     <g id="line2d_19">
      <path d="M 106.13 152.128 
L 541.530496 152.128 
" clip-path="url(#pbfb4d2c8ff)" style="fill: none; stroke: #b0b0b0; stroke-opacity: 0.3; stroke-width: 0.8; stroke-linecap: square"/>
     </g>
     <g id="line2d_20">
      <g>
       <use xlink:href="#m3c5a1a6126" x="106.13" y="152.128" style="stroke: #000000; stroke-width: 0.8"/>
      </g>
     </g>
     <g id="text_11">
      <!-- 0.50 -->
      <g transform="translate(54.59875 159.726437) scale(0.2 -0.2)">
       <use xlink:href="#DejaVuSans-30"/>
       <use xlink:href="#DejaVuSans-2e" x="63.623047"/>
       <use xlink:href="#DejaVuSans-35" x="95.410156"/>
       <use xlink:href="#DejaVuSans-30" x="159.033203"/>
      </g>
     </g>
    </g>
    <g id="ytick_5">
     <g id="line2d_21">
      <path d="M 106.13 102.641333 
L 541.530496 102.641333 
" clip-path="url(#pbfb4d2c8ff)" style="fill: none; stroke: #b0b0b0; stroke-opacity: 0.3; stroke-width: 0.8; stroke-linecap: square"/>
     </g>
     <g id="line2d_22">
      <g>
       <use xlink:href="#m3c5a1a6126" x="106.13" y="102.641333" style="stroke: #000000; stroke-width: 0.8"/>
      </g>
     </g>
     <g id="text_12">
      <!-- 0.75 -->
      <g transform="translate(54.59875 110.239771) scale(0.2 -0.2)">
       <defs>
        <path id="DejaVuSans-37" d="M 525 4666 
L 3525 4666 
L 3525 4397 
L 1831 0 
L 1172 0 
L 2766 4134 
L 525 4134 
L 525 4666 
z
" transform="scale(0.015625)"/>
       </defs>
       <use xlink:href="#DejaVuSans-30"/>
       <use xlink:href="#DejaVuSans-2e" x="63.623047"/>
       <use xlink:href="#DejaVuSans-37" x="95.410156"/>
       <use xlink:href="#DejaVuSans-35" x="159.033203"/>
      </g>
     </g>
    </g>
    <g id="ytick_6">
     <g id="line2d_23">
      <path d="M 106.13 53.154667 
L 541.530496 53.154667 
" clip-path="url(#pbfb4d2c8ff)" style="fill: none; stroke: #b0b0b0; stroke-opacity: 0.3; stroke-width: 0.8; stroke-linecap: square"/>
     </g>
     <g id="line2d_24">
      <g>
       <use xlink:href="#m3c5a1a6126" x="106.13" y="53.154667" style="stroke: #000000; stroke-width: 0.8"/>
      </g>
     </g>
     <g id="text_13">
      <!-- 1.00 -->
      <g transform="translate(54.59875 60.753104) scale(0.2 -0.2)">
       <use xlink:href="#DejaVuSans-31"/>
       <use xlink:href="#DejaVuSans-2e" x="63.623047"/>
       <use xlink:href="#DejaVuSans-30" x="95.410156"/>
       <use xlink:href="#DejaVuSans-30" x="159.033203"/>
      </g>
     </g>
    </g>
    <g id="text_14">
     <!-- $E(\lambda)$ -->
     <g transform="translate(29.056094 204.935) rotate(-90) scale(0.23 -0.23)">
      <defs>
       <path id="DejaVuSans-Oblique-45" d="M 1081 4666 
L 4031 4666 
L 3928 4134 
L 1606 4134 
L 1338 2753 
L 3566 2753 
L 3463 2222 
L 1234 2222 
L 909 531 
L 3284 531 
L 3181 0 
L 172 0 
L 1081 4666 
z
" transform="scale(0.015625)"/>
       <path id="DejaVuSans-28" d="M 1984 4856 
Q 1566 4138 1362 3434 
Q 1159 2731 1159 2009 
Q 1159 1288 1364 580 
Q 1569 -128 1984 -844 
L 1484 -844 
Q 1016 -109 783 600 
Q 550 1309 550 2009 
Q 550 2706 781 3412 
Q 1013 4119 1484 4856 
L 1984 4856 
z
" transform="scale(0.015625)"/>
       <path id="DejaVuSans-29" d="M 513 4856 
L 1013 4856 
Q 1481 4119 1714 3412 
Q 1947 2706 1947 2009 
Q 1947 1309 1714 600 
Q 1481 -109 1013 -844 
L 513 -844 
Q 928 -128 1133 580 
Q 1338 1288 1338 2009 
Q 1338 2731 1133 3434 
Q 928 4138 513 4856 
z
" transform="scale(0.015625)"/>
      </defs>
      <use xlink:href="#DejaVuSans-Oblique-45" transform="translate(0 0.015625)"/>
      <use xlink:href="#DejaVuSans-28" transform="translate(63.183594 0.015625)"/>
      <use xlink:href="#DejaVuSans-Oblique-3bb" transform="translate(102.197266 0.015625)"/>
      <use xlink:href="#DejaVuSans-29" transform="translate(161.376953 0.015625)"/>
     </g>
    </g>
   </g>
   <g id="line2d_25">
    <path d="M 125.920932 234.117207 
L 127.24474 175.77828 
L 128.568548 128.68645 
L 129.892356 96.085645 
L 131.216164 75.045479 
L 132.539972 62.454633 
L 133.86378 55.784807 
L 135.187589 53.154667 
L 136.511397 53.227375 
L 137.835205 55.072796 
L 139.159013 58.049081 
L 140.482821 61.714848 
L 143.130437 70.001397 
L 147.101862 82.621546 
L 149.749478 90.402347 
L 152.397094 97.492039 
L 155.044711 103.88879 
L 157.692327 109.644816 
L 160.339943 114.83105 
L 162.987559 119.520399 
L 165.635176 123.780417 
L 168.282792 127.670647 
L 170.930408 131.24219 
L 173.578025 134.538293 
L 177.549449 139.043831 
L 181.520873 143.108772 
L 185.492298 146.809005 
L 189.463722 150.203216 
L 193.435147 153.337235 
L 198.730379 157.172677 
L 204.025612 160.675688 
L 209.320844 163.896817 
L 214.616077 166.87529 
L 221.235117 170.303906 
L 227.854158 173.449504 
L 234.473199 176.349803 
L 241.092239 179.035134 
L 249.035088 182.008487 
L 256.977937 184.743162 
L 266.244594 187.670229 
L 275.511251 190.34927 
L 284.777908 192.811233 
L 295.368373 195.391953 
L 305.958838 197.754708 
L 317.873111 200.185286 
L 331.111193 202.64005 
L 344.349274 204.870327 
L 358.911164 207.099295 
L 374.796861 209.299373 
L 392.006367 211.448599 
L 410.539681 213.530205 
L 430.396803 215.532028 
L 451.577733 217.445849 
L 475.406279 219.367752 
L 500.558634 221.172691 
L 521.739564 222.541203 
L 521.739564 222.541203 
" clip-path="url(#pbfb4d2c8ff)" style="fill: none; stroke: #0173b2; stroke-width: 3; stroke-linecap: square"/>
   </g>
   <g id="line2d_26">
    <path d="M 125.920932 246.096375 
L 128.568548 144.856609 
L 129.892356 110.929884 
L 131.216164 91.616236 
L 132.539972 82.334229 
L 133.86378 79.436463 
L 135.187589 80.517381 
L 136.511397 84.0334 
L 137.835205 88.980701 
L 140.482821 100.741715 
L 143.130437 112.771297 
L 145.778054 123.827286 
L 148.42567 133.508674 
L 151.073286 141.7955 
L 153.720902 148.822413 
L 156.368519 154.771017 
L 159.016135 159.82193 
L 161.663751 164.135981 
L 164.311368 167.849008 
L 166.958984 171.072587 
L 169.6066 173.89699 
L 172.254216 176.394689 
L 174.901833 178.62367 
L 177.549449 180.630314 
L 181.520873 183.302608 
L 185.492298 185.652643 
L 189.463722 187.750191 
L 194.758955 190.240626 
L 200.054187 192.458198 
L 206.673228 194.935158 
L 213.292269 197.156201 
L 221.235117 199.55657 
L 229.177966 201.724895 
L 238.444623 204.016318 
L 249.035088 206.376257 
L 259.625553 208.506321 
L 271.539827 210.671769 
L 284.777908 212.83529 
L 299.339797 214.96612 
L 313.901687 216.87601 
L 329.787385 218.745785 
L 346.99689 220.557629 
L 366.854012 222.415394 
L 388.034943 224.166748 
L 411.863489 225.90119 
L 437.015844 227.507906 
L 464.815814 229.063511 
L 496.58721 230.609971 
L 521.739564 231.689659 
L 521.739564 231.689659 
" clip-path="url(#pbfb4d2c8ff)" style="fill: none; stroke: #de8f05; stroke-width: 3; stroke-linecap: square"/>
   </g>
   <g id="line2d_27">
    <path d="M 125.920932 242.743484 
L 129.892356 164.826019 
L 131.216164 143.246446 
L 132.539972 126.091773 
L 133.86378 113.468493 
L 135.187589 104.937657 
L 136.511397 99.842664 
L 137.835205 97.497586 
L 139.159013 97.277573 
L 140.482821 98.652414 
L 141.806629 101.190772 
L 143.130437 104.551195 
L 144.454246 108.468522 
L 147.101862 117.211963 
L 152.397094 135.235163 
L 155.044711 143.625849 
L 157.692327 151.375941 
L 160.339943 158.452702 
L 162.987559 164.874122 
L 165.635176 170.683301 
L 168.282792 175.933823 
L 170.930408 180.681647 
L 173.578025 184.980805 
L 176.225641 188.881316 
L 178.873257 192.428354 
L 181.520873 195.662105 
L 184.16849 198.617994 
L 186.816106 201.327079 
L 190.78753 204.986392 
L 194.758955 208.22826 
L 198.730379 211.116038 
L 202.701804 213.701616 
L 206.673228 216.027689 
L 210.644652 218.129575 
L 215.939885 220.633434 
L 221.235117 222.847268 
L 226.53035 224.816389 
L 231.825582 226.577298 
L 238.444623 228.530358 
L 245.063664 230.250763 
L 253.006513 232.059654 
L 260.949361 233.63667 
L 270.216018 235.2353 
L 280.806484 236.802438 
L 291.396949 238.144689 
L 303.311222 239.437668 
L 316.549303 240.657287 
L 332.435001 241.882012 
L 349.644507 242.979071 
L 369.501629 244.016765 
L 392.006367 244.968455 
L 418.48253 245.860861 
L 450.253925 246.696015 
L 487.320553 247.440284 
L 521.739564 247.974397 
L 521.739564 247.974397 
" clip-path="url(#pbfb4d2c8ff)" style="fill: none; stroke: #4d9dc9; stroke-width: 3; stroke-linecap: square"/>
   </g>
   <g id="line2d_28">
    <path d="M 125.920932 255.47523 
L 127.24474 297.163708 
L 128.568548 313.748539 
L 129.892356 311.486942 
L 131.216164 300.096986 
L 135.187589 255.648252 
L 136.511397 242.942784 
L 137.835205 231.897131 
L 139.159013 222.391987 
L 140.482821 214.233577 
L 141.806629 207.218629 
L 143.130437 201.162409 
L 144.454246 195.907954 
L 145.778054 191.326454 
L 147.101862 187.313996 
L 148.42567 183.787266 
L 149.749478 180.67937 
L 151.073286 177.936243 
L 152.397094 175.513729 
L 153.720902 173.375314 
L 155.044711 171.490386 
L 156.368519 169.832922 
L 157.692327 168.380508 
L 159.016135 167.113606 
L 160.339943 166.015006 
L 161.663751 165.069408 
L 164.311368 163.583781 
L 166.958984 162.562344 
L 169.6066 161.927288 
L 172.254216 161.613779 
L 174.901833 161.567465 
L 177.549449 161.742628 
L 180.197065 162.100751 
L 184.16849 162.911357 
L 188.139914 163.972769 
L 193.435147 165.661395 
L 200.054187 168.047579 
L 210.644652 172.148499 
L 227.854158 178.794914 
L 238.444623 182.632493 
L 249.035088 186.211162 
L 258.301745 189.122143 
L 268.89221 192.203833 
L 279.482675 195.039195 
L 290.07314 197.647468 
L 301.987414 200.335289 
L 313.901687 202.78861 
L 327.139768 205.270294 
L 340.37785 207.524896 
L 354.939739 209.775077 
L 370.825437 211.99053 
L 388.034943 214.147287 
L 406.568256 216.227346 
L 426.425378 218.21803 
L 447.606309 220.111208 
L 470.111047 221.902479 
L 495.263402 223.678574 
L 521.739564 225.332277 
L 521.739564 225.332277 
" clip-path="url(#pbfb4d2c8ff)" style="fill: none; stroke: #e8b150; stroke-width: 3; stroke-linecap: square"/>
   </g>
   <g id="line2d_29">
    <path d="M 323.632141 330.28 
L 323.632141 33.36 
" clip-path="url(#pbfb4d2c8ff)" style="fill: none; stroke-dasharray: 1.5,2.475; stroke-dashoffset: 0; stroke: #000000; stroke-width: 1.5"/>
   </g>
   <g id="line2d_30">
    <path d="M 106.13 251.101333 
L 541.530496 251.101333 
" clip-path="url(#pbfb4d2c8ff)" style="fill: none; stroke: #000000; stroke-opacity: 0.3; stroke-linecap: square"/>
   </g>
   <g id="patch_3">
    <path d="M 106.13 330.28 
L 106.13 33.36 
" style="fill: none; stroke: #000000; stroke-width: 0.8; stroke-linejoin: miter; stroke-linecap: square"/>
   </g>
   <g id="patch_4">
    <path d="M 106.13 330.28 
L 541.530496 330.28 
" style="fill: none; stroke: #000000; stroke-width: 0.8; stroke-linejoin: miter; stroke-linecap: square"/>
   </g>
   <g id="text_15">
    <!-- b = 1000 s/mm² -->
    <g transform="translate(233.870873 27.36) scale(0.22 -0.22)">
     <defs>
      <path id="DejaVuSans-62" d="M 3116 1747 
Q 3116 2381 2855 2742 
Q 2594 3103 2138 3103 
Q 1681 3103 1420 2742 
Q 1159 2381 1159 1747 
Q 1159 1113 1420 752 
Q 1681 391 2138 391 
Q 2594 391 2855 752 
Q 3116 1113 3116 1747 
z
M 1159 2969 
Q 1341 3281 1617 3432 
Q 1894 3584 2278 3584 
Q 2916 3584 3314 3078 
Q 3713 2572 3713 1747 
Q 3713 922 3314 415 
Q 2916 -91 2278 -91 
Q 1894 -91 1617 61 
Q 1341 213 1159 525 
L 1159 0 
L 581 0 
L 581 4863 
L 1159 4863 
L 1159 2969 
z
" transform="scale(0.015625)"/>
      <path id="DejaVuSans-3d" d="M 678 2906 
L 4684 2906 
L 4684 2381 
L 678 2381 
L 678 2906 
z
M 678 1631 
L 4684 1631 
L 4684 1100 
L 678 1100 
L 678 1631 
z
" transform="scale(0.015625)"/>
      <path id="DejaVuSans-2f" d="M 1625 4666 
L 2156 4666 
L 531 -594 
L 0 -594 
L 1625 4666 
z
" transform="scale(0.015625)"/>
      <path id="DejaVuSans-b2" d="M 838 2444 
L 2163 2444 
L 2163 2088 
L 294 2088 
L 294 2431 
Q 400 2528 597 2703 
Q 1672 3656 1672 3950 
Q 1672 4156 1509 4282 
Q 1347 4409 1081 4409 
Q 919 4409 728 4354 
Q 538 4300 313 4191 
L 313 4575 
Q 553 4663 761 4706 
Q 969 4750 1147 4750 
Q 1600 4750 1872 4544 
Q 2144 4338 2144 4000 
Q 2144 3566 1109 2678 
Q 934 2528 838 2444 
z
" transform="scale(0.015625)"/>
     </defs>
     <use xlink:href="#DejaVuSans-62"/>
     <use xlink:href="#DejaVuSans-20" x="63.476562"/>
     <use xlink:href="#DejaVuSans-3d" x="95.263672"/>
     <use xlink:href="#DejaVuSans-20" x="179.052734"/>
     <use xlink:href="#DejaVuSans-31" x="210.839844"/>
     <use xlink:href="#DejaVuSans-30" x="274.462891"/>
     <use xlink:href="#DejaVuSans-30" x="338.085938"/>
     <use xlink:href="#DejaVuSans-30" x="401.708984"/>
     <use xlink:href="#DejaVuSans-20" x="465.332031"/>
     <use xlink:href="#DejaVuSans-73" x="497.119141"/>
     <use xlink:href="#DejaVuSans-2f" x="549.21875"/>
     <use xlink:href="#DejaVuSans-6d" x="582.910156"/>
     <use xlink:href="#DejaVuSans-6d" x="680.322266"/>
     <use xlink:href="#DejaVuSans-b2" x="777.734375"/>
    </g>
   </g>
   <g id="legend_1">
    <g id="line2d_31">
     <path d="M 388.650496 51.697812 
L 402.650496 51.697812 
L 416.650496 51.697812 
" style="fill: none; stroke: #0173b2; stroke-width: 3; stroke-linecap: square"/>
    </g>
    <g id="text_16">
     <!-- Mono -->
     <g transform="translate(427.850496 56.597812) scale(0.14 -0.14)">
      <defs>
       <path id="DejaVuSans-4d" d="M 628 4666 
L 1569 4666 
L 2759 1491 
L 3956 4666 
L 4897 4666 
L 4897 0 
L 4281 0 
L 4281 4097 
L 3078 897 
L 2444 897 
L 1241 4097 
L 1241 0 
L 628 0 
L 628 4666 
z
" transform="scale(0.015625)"/>
       <path id="DejaVuSans-6f" d="M 1959 3097 
Q 1497 3097 1228 2736 
Q 959 2375 959 1747 
Q 959 1119 1226 758 
Q 1494 397 1959 397 
Q 2419 397 2687 759 
Q 2956 1122 2956 1747 
Q 2956 2369 2687 2733 
Q 2419 3097 1959 3097 
z
M 1959 3584 
Q 2709 3584 3137 3096 
Q 3566 2609 3566 1747 
Q 3566 888 3137 398 
Q 2709 -91 1959 -91 
Q 1206 -91 779 398 
Q 353 888 353 1747 
Q 353 2609 779 3096 
Q 1206 3584 1959 3584 
z
" transform="scale(0.015625)"/>
       <path id="DejaVuSans-6e" d="M 3513 2113 
L 3513 0 
L 2938 0 
L 2938 2094 
Q 2938 2591 2744 2837 
Q 2550 3084 2163 3084 
Q 1697 3084 1428 2787 
Q 1159 2491 1159 1978 
L 1159 0 
L 581 0 
L 581 3500 
L 1159 3500 
L 1159 2956 
Q 1366 3272 1645 3428 
Q 1925 3584 2291 3584 
Q 2894 3584 3203 3211 
Q 3513 2838 3513 2113 
z
" transform="scale(0.015625)"/>
      </defs>
      <use xlink:href="#DejaVuSans-4d"/>
      <use xlink:href="#DejaVuSans-6f" x="86.279297"/>
      <use xlink:href="#DejaVuSans-6e" x="147.460938"/>
      <use xlink:href="#DejaVuSans-6f" x="210.839844"/>
     </g>
    </g>
    <g id="line2d_32">
     <path d="M 388.650496 72.247187 
L 402.650496 72.247187 
L 416.650496 72.247187 
" style="fill: none; stroke: #de8f05; stroke-width: 3; stroke-linecap: square"/>
    </g>
    <g id="text_17">
     <!-- Stim-CODE-M$_0$ -->
     <g transform="translate(427.850496 77.147187) scale(0.14 -0.14)">
      <defs>
       <path id="DejaVuSans-53" d="M 3425 4513 
L 3425 3897 
Q 3066 4069 2747 4153 
Q 2428 4238 2131 4238 
Q 1616 4238 1336 4038 
Q 1056 3838 1056 3469 
Q 1056 3159 1242 3001 
Q 1428 2844 1947 2747 
L 2328 2669 
Q 3034 2534 3370 2195 
Q 3706 1856 3706 1288 
Q 3706 609 3251 259 
Q 2797 -91 1919 -91 
Q 1588 -91 1214 -16 
Q 841 59 441 206 
L 441 856 
Q 825 641 1194 531 
Q 1563 422 1919 422 
Q 2459 422 2753 634 
Q 3047 847 3047 1241 
Q 3047 1584 2836 1778 
Q 2625 1972 2144 2069 
L 1759 2144 
Q 1053 2284 737 2584 
Q 422 2884 422 3419 
Q 422 4038 858 4394 
Q 1294 4750 2059 4750 
Q 2388 4750 2728 4690 
Q 3069 4631 3425 4513 
z
" transform="scale(0.015625)"/>
       <path id="DejaVuSans-74" d="M 1172 4494 
L 1172 3500 
L 2356 3500 
L 2356 3053 
L 1172 3053 
L 1172 1153 
Q 1172 725 1289 603 
Q 1406 481 1766 481 
L 2356 481 
L 2356 0 
L 1766 0 
Q 1100 0 847 248 
Q 594 497 594 1153 
L 594 3053 
L 172 3053 
L 172 3500 
L 594 3500 
L 594 4494 
L 1172 4494 
z
" transform="scale(0.015625)"/>
       <path id="DejaVuSans-69" d="M 603 3500 
L 1178 3500 
L 1178 0 
L 603 0 
L 603 3500 
z
M 603 4863 
L 1178 4863 
L 1178 4134 
L 603 4134 
L 603 4863 
z
" transform="scale(0.015625)"/>
       <path id="DejaVuSans-2d" d="M 313 2009 
L 1997 2009 
L 1997 1497 
L 313 1497 
L 313 2009 
z
" transform="scale(0.015625)"/>
       <path id="DejaVuSans-43" d="M 4122 4306 
L 4122 3641 
Q 3803 3938 3442 4084 
Q 3081 4231 2675 4231 
Q 1875 4231 1450 3742 
Q 1025 3253 1025 2328 
Q 1025 1406 1450 917 
Q 1875 428 2675 428 
Q 3081 428 3442 575 
Q 3803 722 4122 1019 
L 4122 359 
Q 3791 134 3420 21 
Q 3050 -91 2638 -91 
Q 1578 -91 968 557 
Q 359 1206 359 2328 
Q 359 3453 968 4101 
Q 1578 4750 2638 4750 
Q 3056 4750 3426 4639 
Q 3797 4528 4122 4306 
z
" transform="scale(0.015625)"/>
       <path id="DejaVuSans-4f" d="M 2522 4238 
Q 1834 4238 1429 3725 
Q 1025 3213 1025 2328 
Q 1025 1447 1429 934 
Q 1834 422 2522 422 
Q 3209 422 3611 934 
Q 4013 1447 4013 2328 
Q 4013 3213 3611 3725 
Q 3209 4238 2522 4238 
z
M 2522 4750 
Q 3503 4750 4090 4092 
Q 4678 3434 4678 2328 
Q 4678 1225 4090 567 
Q 3503 -91 2522 -91 
Q 1538 -91 948 565 
Q 359 1222 359 2328 
Q 359 3434 948 4092 
Q 1538 4750 2522 4750 
z
" transform="scale(0.015625)"/>
       <path id="DejaVuSans-44" d="M 1259 4147 
L 1259 519 
L 2022 519 
Q 2988 519 3436 956 
Q 3884 1394 3884 2338 
Q 3884 3275 3436 3711 
Q 2988 4147 2022 4147 
L 1259 4147 
z
M 628 4666 
L 1925 4666 
Q 3281 4666 3915 4102 
Q 4550 3538 4550 2338 
Q 4550 1131 3912 565 
Q 3275 0 1925 0 
L 628 0 
L 628 4666 
z
" transform="scale(0.015625)"/>
       <path id="DejaVuSans-45" d="M 628 4666 
L 3578 4666 
L 3578 4134 
L 1259 4134 
L 1259 2753 
L 3481 2753 
L 3481 2222 
L 1259 2222 
L 1259 531 
L 3634 531 
L 3634 0 
L 628 0 
L 628 4666 
z
" transform="scale(0.015625)"/>
      </defs>
      <use xlink:href="#DejaVuSans-53" transform="translate(0 0.015625)"/>
      <use xlink:href="#DejaVuSans-74" transform="translate(63.476562 0.015625)"/>
      <use xlink:href="#DejaVuSans-69" transform="translate(102.685547 0.015625)"/>
      <use xlink:href="#DejaVuSans-6d" transform="translate(130.46875 0.015625)"/>
      <use xlink:href="#DejaVuSans-2d" transform="translate(226.130859 0.015625)"/>
      <use xlink:href="#DejaVuSans-43" transform="translate(262.214844 0.015625)"/>
      <use xlink:href="#DejaVuSans-4f" transform="translate(332.039062 0.015625)"/>
      <use xlink:href="#DejaVuSans-44" transform="translate(410.75 0.015625)"/>
      <use xlink:href="#DejaVuSans-45" transform="translate(487.751953 0.015625)"/>
      <use xlink:href="#DejaVuSans-2d" transform="translate(550.935547 0.015625)"/>
      <use xlink:href="#DejaVuSans-4d" transform="translate(587.019531 0.015625)"/>
      <use xlink:href="#DejaVuSans-30" transform="translate(674.255859 -16.390625) scale(0.7)"/>
     </g>
    </g>
    <g id="line2d_33">
     <path d="M 388.650496 92.796562 
L 402.650496 92.796562 
L 416.650496 92.796562 
" style="fill: none; stroke: #4d9dc9; stroke-width: 3; stroke-linecap: square"/>
    </g>
    <g id="text_18">
     <!-- Bipolar -->
     <g transform="translate(427.850496 97.696562) scale(0.14 -0.14)">
      <defs>
       <path id="DejaVuSans-42" d="M 1259 2228 
L 1259 519 
L 2272 519 
Q 2781 519 3026 730 
Q 3272 941 3272 1375 
Q 3272 1813 3026 2020 
Q 2781 2228 2272 2228 
L 1259 2228 
z
M 1259 4147 
L 1259 2741 
L 2194 2741 
Q 2656 2741 2882 2914 
Q 3109 3088 3109 3444 
Q 3109 3797 2882 3972 
Q 2656 4147 2194 4147 
L 1259 4147 
z
M 628 4666 
L 2241 4666 
Q 2963 4666 3353 4366 
Q 3744 4066 3744 3513 
Q 3744 3084 3544 2831 
Q 3344 2578 2956 2516 
Q 3422 2416 3680 2098 
Q 3938 1781 3938 1306 
Q 3938 681 3513 340 
Q 3088 0 2303 0 
L 628 0 
L 628 4666 
z
" transform="scale(0.015625)"/>
       <path id="DejaVuSans-70" d="M 1159 525 
L 1159 -1331 
L 581 -1331 
L 581 3500 
L 1159 3500 
L 1159 2969 
Q 1341 3281 1617 3432 
Q 1894 3584 2278 3584 
Q 2916 3584 3314 3078 
Q 3713 2572 3713 1747 
Q 3713 922 3314 415 
Q 2916 -91 2278 -91 
Q 1894 -91 1617 61 
Q 1341 213 1159 525 
z
M 3116 1747 
Q 3116 2381 2855 2742 
Q 2594 3103 2138 3103 
Q 1681 3103 1420 2742 
Q 1159 2381 1159 1747 
Q 1159 1113 1420 752 
Q 1681 391 2138 391 
Q 2594 391 2855 752 
Q 3116 1113 3116 1747 
z
" transform="scale(0.015625)"/>
       <path id="DejaVuSans-6c" d="M 603 4863 
L 1178 4863 
L 1178 0 
L 603 0 
L 603 4863 
z
" transform="scale(0.015625)"/>
       <path id="DejaVuSans-61" d="M 2194 1759 
Q 1497 1759 1228 1600 
Q 959 1441 959 1056 
Q 959 750 1161 570 
Q 1363 391 1709 391 
Q 2188 391 2477 730 
Q 2766 1069 2766 1631 
L 2766 1759 
L 2194 1759 
z
M 3341 1997 
L 3341 0 
L 2766 0 
L 2766 531 
Q 2569 213 2275 61 
Q 1981 -91 1556 -91 
Q 1019 -91 701 211 
Q 384 513 384 1019 
Q 384 1609 779 1909 
Q 1175 2209 1959 2209 
L 2766 2209 
L 2766 2266 
Q 2766 2663 2505 2880 
Q 2244 3097 1772 3097 
Q 1472 3097 1187 3025 
Q 903 2953 641 2809 
L 641 3341 
Q 956 3463 1253 3523 
Q 1550 3584 1831 3584 
Q 2591 3584 2966 3190 
Q 3341 2797 3341 1997 
z
" transform="scale(0.015625)"/>
       <path id="DejaVuSans-72" d="M 2631 2963 
Q 2534 3019 2420 3045 
Q 2306 3072 2169 3072 
Q 1681 3072 1420 2755 
Q 1159 2438 1159 1844 
L 1159 0 
L 581 0 
L 581 3500 
L 1159 3500 
L 1159 2956 
Q 1341 3275 1631 3429 
Q 1922 3584 2338 3584 
Q 2397 3584 2469 3576 
Q 2541 3569 2628 3553 
L 2631 2963 
z
" transform="scale(0.015625)"/>
      </defs>
      <use xlink:href="#DejaVuSans-42"/>
      <use xlink:href="#DejaVuSans-69" x="68.603516"/>
      <use xlink:href="#DejaVuSans-70" x="96.386719"/>
      <use xlink:href="#DejaVuSans-6f" x="159.863281"/>
      <use xlink:href="#DejaVuSans-6c" x="221.044922"/>
      <use xlink:href="#DejaVuSans-61" x="248.828125"/>
      <use xlink:href="#DejaVuSans-72" x="310.107422"/>
     </g>
    </g>
    <g id="line2d_34">
     <path d="M 388.650496 113.345937 
L 402.650496 113.345937 
L 416.650496 113.345937 
" style="fill: none; stroke: #e8b150; stroke-width: 3; stroke-linecap: square"/>
    </g>
    <g id="text_19">
     <!-- Stim-CODE-M$_1$ -->
     <g transform="translate(427.850496 118.245937) scale(0.14 -0.14)">
      <use xlink:href="#DejaVuSans-53" transform="translate(0 0.015625)"/>
      <use xlink:href="#DejaVuSans-74" transform="translate(63.476562 0.015625)"/>
      <use xlink:href="#DejaVuSans-69" transform="translate(102.685547 0.015625)"/>
      <use xlink:href="#DejaVuSans-6d" transform="translate(130.46875 0.015625)"/>
      <use xlink:href="#DejaVuSans-2d" transform="translate(226.130859 0.015625)"/>
      <use xlink:href="#DejaVuSans-43" transform="translate(262.214844 0.015625)"/>
      <use xlink:href="#DejaVuSans-4f" transform="translate(332.039062 0.015625)"/>
      <use xlink:href="#DejaVuSans-44" transform="translate(410.75 0.015625)"/>
      <use xlink:href="#DejaVuSans-45" transform="translate(487.751953 0.015625)"/>
      <use xlink:href="#DejaVuSans-2d" transform="translate(550.935547 0.015625)"/>
      <use xlink:href="#DejaVuSans-4d" transform="translate(587.019531 0.015625)"/>
      <use xlink:href="#DejaVuSans-31" transform="translate(674.255859 -16.390625) scale(0.7)"/>
     </g>
    </g>
   </g>
  </g>
  <g id="axes_2">
   <g id="patch_5">
    <path d="M 558.815 330.28 
L 994.215496 330.28 
L 994.215496 33.36 
L 558.815 33.36 
z
" style="fill: #ffffff"/>
   </g>
   <g id="matplotlib.axis_3">
    <g id="xtick_7">
     <g id="line2d_35">
      <path d="M 578.209717 330.28 
L 578.209717 33.36 
" clip-path="url(#p8b87238e48)" style="fill: none; stroke: #b0b0b0; stroke-opacity: 0.3; stroke-width: 0.8; stroke-linecap: square"/>
     </g>
     <g id="line2d_36">
      <g>
       <use xlink:href="#ma7ad5ae4c4" x="578.209717" y="330.28" style="stroke: #000000; stroke-width: 0.8"/>
      </g>
     </g>
     <g id="text_20">
      <!-- 0 -->
      <g transform="translate(571.847217 352.476875) scale(0.2 -0.2)">
       <use xlink:href="#DejaVuSans-30"/>
      </g>
     </g>
    </g>
    <g id="xtick_8">
     <g id="line2d_37">
      <path d="M 657.452686 330.28 
L 657.452686 33.36 
" clip-path="url(#p8b87238e48)" style="fill: none; stroke: #b0b0b0; stroke-opacity: 0.3; stroke-width: 0.8; stroke-linecap: square"/>
     </g>
     <g id="line2d_38">
      <g>
       <use xlink:href="#ma7ad5ae4c4" x="657.452686" y="330.28" style="stroke: #000000; stroke-width: 0.8"/>
      </g>
     </g>
     <g id="text_21">
      <!-- 20 -->
      <g transform="translate(644.727686 352.476875) scale(0.2 -0.2)">
       <use xlink:href="#DejaVuSans-32"/>
       <use xlink:href="#DejaVuSans-30" x="63.623047"/>
      </g>
     </g>
    </g>
    <g id="xtick_9">
     <g id="line2d_39">
      <path d="M 736.695656 330.28 
L 736.695656 33.36 
" clip-path="url(#p8b87238e48)" style="fill: none; stroke: #b0b0b0; stroke-opacity: 0.3; stroke-width: 0.8; stroke-linecap: square"/>
     </g>
     <g id="line2d_40">
      <g>
       <use xlink:href="#ma7ad5ae4c4" x="736.695656" y="330.28" style="stroke: #000000; stroke-width: 0.8"/>
      </g>
     </g>
     <g id="text_22">
      <!-- 40 -->
      <g transform="translate(723.970656 352.476875) scale(0.2 -0.2)">
       <use xlink:href="#DejaVuSans-34"/>
       <use xlink:href="#DejaVuSans-30" x="63.623047"/>
      </g>
     </g>
    </g>
    <g id="xtick_10">
     <g id="line2d_41">
      <path d="M 815.938625 330.28 
L 815.938625 33.36 
" clip-path="url(#p8b87238e48)" style="fill: none; stroke: #b0b0b0; stroke-opacity: 0.3; stroke-width: 0.8; stroke-linecap: square"/>
     </g>
     <g id="line2d_42">
      <g>
       <use xlink:href="#ma7ad5ae4c4" x="815.938625" y="330.28" style="stroke: #000000; stroke-width: 0.8"/>
      </g>
     </g>
     <g id="text_23">
      <!-- 60 -->
      <g transform="translate(803.213625 352.476875) scale(0.2 -0.2)">
       <use xlink:href="#DejaVuSans-36"/>
       <use xlink:href="#DejaVuSans-30" x="63.623047"/>
      </g>
     </g>
    </g>
    <g id="xtick_11">
     <g id="line2d_43">
      <path d="M 895.181595 330.28 
L 895.181595 33.36 
" clip-path="url(#p8b87238e48)" style="fill: none; stroke: #b0b0b0; stroke-opacity: 0.3; stroke-width: 0.8; stroke-linecap: square"/>
     </g>
     <g id="line2d_44">
      <g>
       <use xlink:href="#ma7ad5ae4c4" x="895.181595" y="330.28" style="stroke: #000000; stroke-width: 0.8"/>
      </g>
     </g>
     <g id="text_24">
      <!-- 80 -->
      <g transform="translate(882.456595 352.476875) scale(0.2 -0.2)">
       <use xlink:href="#DejaVuSans-38"/>
       <use xlink:href="#DejaVuSans-30" x="63.623047"/>
      </g>
     </g>
    </g>
    <g id="xtick_12">
     <g id="line2d_45">
      <path d="M 974.424564 330.28 
L 974.424564 33.36 
" clip-path="url(#p8b87238e48)" style="fill: none; stroke: #b0b0b0; stroke-opacity: 0.3; stroke-width: 0.8; stroke-linecap: square"/>
     </g>
     <g id="line2d_46">
      <g>
       <use xlink:href="#ma7ad5ae4c4" x="974.424564" y="330.28" style="stroke: #000000; stroke-width: 0.8"/>
      </g>
     </g>
     <g id="text_25">
      <!-- 100 -->
      <g transform="translate(955.337064 352.476875) scale(0.2 -0.2)">
       <use xlink:href="#DejaVuSans-31"/>
       <use xlink:href="#DejaVuSans-30" x="63.623047"/>
       <use xlink:href="#DejaVuSans-30" x="127.246094"/>
      </g>
     </g>
    </g>
    <g id="text_26">
     <!-- $\lambda$ [ms] -->
     <g transform="translate(739.830248 378.112656) scale(0.23 -0.23)">
      <use xlink:href="#DejaVuSans-Oblique-3bb" transform="translate(0 0.015625)"/>
      <use xlink:href="#DejaVuSans-20" transform="translate(59.179688 0.015625)"/>
      <use xlink:href="#DejaVuSans-5b" transform="translate(90.966797 0.015625)"/>
      <use xlink:href="#DejaVuSans-6d" transform="translate(129.980469 0.015625)"/>
      <use xlink:href="#DejaVuSans-73" transform="translate(227.392578 0.015625)"/>
      <use xlink:href="#DejaVuSans-5d" transform="translate(279.492188 0.015625)"/>
     </g>
    </g>
   </g>
   <g id="matplotlib.axis_4">
    <g id="ytick_7">
     <g id="line2d_47">
      <path d="M 558.815 300.588 
L 994.215496 300.588 
" clip-path="url(#p8b87238e48)" style="fill: none; stroke: #b0b0b0; stroke-opacity: 0.3; stroke-width: 0.8; stroke-linecap: square"/>
     </g>
     <g id="line2d_48">
      <g>
       <use xlink:href="#m3c5a1a6126" x="558.815" y="300.588" style="stroke: #000000; stroke-width: 0.8"/>
      </g>
     </g>
    </g>
    <g id="ytick_8">
     <g id="line2d_49">
      <path d="M 558.815 251.101333 
L 994.215496 251.101333 
" clip-path="url(#p8b87238e48)" style="fill: none; stroke: #b0b0b0; stroke-opacity: 0.3; stroke-width: 0.8; stroke-linecap: square"/>
     </g>
     <g id="line2d_50">
      <g>
       <use xlink:href="#m3c5a1a6126" x="558.815" y="251.101333" style="stroke: #000000; stroke-width: 0.8"/>
      </g>
     </g>
    </g>
    <g id="ytick_9">
     <g id="line2d_51">
      <path d="M 558.815 201.614667 
L 994.215496 201.614667 
" clip-path="url(#p8b87238e48)" style="fill: none; stroke: #b0b0b0; stroke-opacity: 0.3; stroke-width: 0.8; stroke-linecap: square"/>
     </g>
     <g id="line2d_52">
      <g>
       <use xlink:href="#m3c5a1a6126" x="558.815" y="201.614667" style="stroke: #000000; stroke-width: 0.8"/>
      </g>
     </g>
    </g>
    <g id="ytick_10">
     <g id="line2d_53">
      <path d="M 558.815 152.128 
L 994.215496 152.128 
" clip-path="url(#p8b87238e48)" style="fill: none; stroke: #b0b0b0; stroke-opacity: 0.3; stroke-width: 0.8; stroke-linecap: square"/>
     </g>
     <g id="line2d_54">
      <g>
       <use xlink:href="#m3c5a1a6126" x="558.815" y="152.128" style="stroke: #000000; stroke-width: 0.8"/>
      </g>
     </g>
    </g>
    <g id="ytick_11">
     <g id="line2d_55">
      <path d="M 558.815 102.641333 
L 994.215496 102.641333 
" clip-path="url(#p8b87238e48)" style="fill: none; stroke: #b0b0b0; stroke-opacity: 0.3; stroke-width: 0.8; stroke-linecap: square"/>
     </g>
     <g id="line2d_56">
      <g>
       <use xlink:href="#m3c5a1a6126" x="558.815" y="102.641333" style="stroke: #000000; stroke-width: 0.8"/>
      </g>
     </g>
    </g>
    <g id="ytick_12">
     <g id="line2d_57">
      <path d="M 558.815 53.154667 
L 994.215496 53.154667 
" clip-path="url(#p8b87238e48)" style="fill: none; stroke: #b0b0b0; stroke-opacity: 0.3; stroke-width: 0.8; stroke-linecap: square"/>
     </g>
     <g id="line2d_58">
      <g>
       <use xlink:href="#m3c5a1a6126" x="558.815" y="53.154667" style="stroke: #000000; stroke-width: 0.8"/>
      </g>
     </g>
    </g>
   </g>
   <g id="line2d_59">
    <path d="M 578.605932 242.32167 
L 582.577356 152.159937 
L 583.901164 126.950466 
L 585.224972 106.136314 
L 586.54878 89.716622 
L 587.872589 77.236548 
L 589.196397 68.081222 
L 590.520205 61.633573 
L 591.844013 57.341897 
L 593.167821 54.740134 
L 594.491629 53.44664 
L 595.815437 53.154667 
L 597.139246 53.620633 
L 598.463054 54.65278 
L 599.786862 56.10117 
L 601.11067 57.849253 
L 603.758286 61.904993 
L 615.672559 81.533892 
L 619.643984 87.369694 
L 623.615408 92.736004 
L 627.586833 97.6694 
L 631.558257 102.21846 
L 635.529681 106.43153 
L 639.501106 110.352069 
L 643.47253 114.017404 
L 648.767763 118.561013 
L 654.062995 122.766463 
L 659.358228 126.681069 
L 664.65346 130.342209 
L 671.272501 134.607188 
L 677.891542 138.568843 
L 684.510582 142.26379 
L 691.129623 145.721593 
L 699.072472 149.591977 
L 707.015321 153.190694 
L 714.95817 156.546693 
L 722.901018 159.684419 
L 732.167675 163.097002 
L 741.434332 166.269396 
L 750.700989 169.226017 
L 761.291454 172.36775 
L 771.881919 175.282347 
L 783.796193 178.318818 
L 795.710466 181.126081 
L 808.948547 184.006251 
L 822.186629 186.662664 
L 836.748518 189.355665 
L 852.634216 192.051606 
L 868.519913 194.525052 
L 885.729419 196.983727 
L 904.262733 199.405821 
L 924.119855 201.773707 
L 945.300785 204.073618 
L 967.805524 206.295253 
L 974.424564 206.909596 
L 974.424564 206.909596 
" clip-path="url(#p8b87238e48)" style="fill: none; stroke: #0173b2; stroke-width: 3; stroke-linecap: square"/>
   </g>
   <g id="line2d_60">
    <path d="M 578.605932 248.333477 
L 579.92974 221.12348 
L 582.577356 155.783135 
L 583.901164 127.739227 
L 585.224972 105.659312 
L 586.54878 89.242812 
L 587.872589 77.627246 
L 589.196397 69.871955 
L 590.520205 65.129793 
L 591.844013 62.69108 
L 593.167821 61.981552 
L 594.491629 62.545956 
L 595.815437 64.028657 
L 597.139246 66.15524 
L 598.463054 68.716341 
L 601.11067 74.550488 
L 606.405902 86.717064 
L 609.053519 92.398945 
L 611.701135 97.659313 
L 614.348751 102.483291 
L 616.996368 106.890667 
L 619.643984 110.916818 
L 622.2916 114.602291 
L 624.939216 117.987368 
L 627.586833 121.109434 
L 631.558257 125.371358 
L 635.529681 129.211026 
L 639.501106 132.704424 
L 643.47253 135.911365 
L 647.443955 138.87874 
L 652.739187 142.525051 
L 658.03442 145.876623 
L 663.329652 148.982639 
L 669.948693 152.575237 
L 676.567734 155.894964 
L 683.186774 158.981437 
L 691.129623 162.419241 
L 699.072472 165.60421 
L 707.015321 168.56733 
L 716.281978 171.776737 
L 725.548635 174.749739 
L 736.1391 177.891391 
L 746.729565 180.790793 
L 757.32003 183.475013 
L 769.234303 186.265993 
L 781.148576 188.841386 
L 794.386658 191.478736 
L 808.948547 194.13891 
L 823.510437 196.576725 
L 839.396134 199.013302 
L 856.60564 201.422775 
L 875.138954 203.784035 
L 894.996076 206.080461 
L 916.177006 208.299505 
L 938.681745 210.432208 
L 962.510291 212.472673 
L 974.424564 213.41876 
L 974.424564 213.41876 
" clip-path="url(#p8b87238e48)" style="fill: none; stroke: #de8f05; stroke-width: 3; stroke-linecap: square"/>
   </g>
   <g id="line2d_61">
    <path d="M 578.605932 242.883957 
L 582.577356 165.501907 
L 583.901164 142.304864 
L 585.224972 122.075211 
L 586.54878 105.250641 
L 587.872589 91.869121 
L 589.196397 81.716537 
L 590.520205 74.445498 
L 591.844013 69.656871 
L 593.167821 66.950478 
L 594.491629 65.953471 
L 595.815437 66.333837 
L 597.139246 67.804727 
L 598.463054 70.123538 
L 599.786862 73.088296 
L 601.11067 76.532911 
L 603.758286 84.347033 
L 614.348751 117.633505 
L 616.996368 125.158342 
L 619.643984 132.191638 
L 622.2916 138.72913 
L 624.939216 144.785789 
L 627.586833 150.387269 
L 630.234449 155.564474 
L 632.882065 160.35018 
L 635.529681 164.776978 
L 638.177298 168.876098 
L 640.824914 172.676771 
L 643.47253 176.205946 
L 647.443955 181.043814 
L 651.415379 185.399037 
L 655.386804 189.334462 
L 659.358228 192.90364 
L 663.329652 196.152154 
L 667.301077 199.118826 
L 671.272501 201.836794 
L 675.243926 204.334429 
L 680.539158 207.363495 
L 685.834391 210.092531 
L 691.129623 212.561811 
L 696.424856 214.804853 
L 703.043896 217.332874 
L 709.662937 219.59642 
L 716.281978 221.632602 
L 724.224827 223.818592 
L 732.167675 225.764204 
L 741.434332 227.776658 
L 750.700989 229.554277 
L 761.291454 231.344143 
L 771.881919 232.917092 
L 783.796193 234.469781 
L 797.034274 235.970694 
L 811.596164 237.39687 
L 827.481861 238.733048 
L 846.015175 240.057842 
L 865.872297 241.253433 
L 888.377035 242.387289 
L 914.853198 243.486832 
L 943.976977 244.471795 
L 974.424564 245.3102 
L 974.424564 245.3102 
" clip-path="url(#p8b87238e48)" style="fill: none; stroke: #4d9dc9; stroke-width: 3; stroke-linecap: square"/>
   </g>
   <g id="line2d_62">
    <path d="M 578.605932 248.550347 
L 579.92974 222.537476 
L 582.577356 156.869618 
L 583.901164 128.011351 
L 585.224972 104.827066 
L 586.54878 87.274241 
L 587.872589 74.689411 
L 589.196397 66.219278 
L 590.520205 61.019948 
L 591.844013 58.341891 
L 593.167821 57.557277 
L 594.491629 58.159418 
L 595.815437 59.75003 
L 597.139246 62.022413 
L 598.463054 64.744493 
L 601.11067 70.892957 
L 606.405902 83.540966 
L 609.053519 89.402876 
L 611.701135 94.83009 
L 614.348751 99.826697 
L 616.996368 104.42629 
L 619.643984 108.672737 
L 622.2916 112.610597 
L 626.263025 118.026844 
L 630.234449 122.955312 
L 634.205873 127.485434 
L 638.177298 131.684619 
L 642.148722 135.603389 
L 647.443955 140.456745 
L 652.739187 144.94509 
L 658.03442 149.116813 
L 663.329652 153.008461 
L 668.624885 156.648818 
L 673.920117 160.061428 
L 680.539158 164.036931 
L 687.158199 167.720536 
L 693.777239 171.140597 
L 700.39628 174.321839 
L 707.015321 177.286082 
L 714.95817 180.583893 
L 722.901018 183.626671 
L 730.843867 186.440397 
L 740.110524 189.463925 
L 749.377181 192.238398 
L 758.643838 194.791272 
L 769.234303 197.467944 
L 779.824768 199.916942 
L 791.739041 202.432537 
L 803.653315 204.725124 
L 816.891396 207.043673 
L 831.453286 209.351851 
L 846.015175 211.439904 
L 861.900873 213.500661 
L 879.110378 215.512511 
L 897.643692 217.458893 
L 917.500814 219.327789 
L 940.005553 221.216125 
L 963.834099 222.991049 
L 974.424564 223.715544 
L 974.424564 223.715544 
" clip-path="url(#p8b87238e48)" style="fill: none; stroke: #e8b150; stroke-width: 3; stroke-linecap: square"/>
   </g>
   <g id="line2d_63">
    <path d="M 776.317141 330.28 
L 776.317141 33.36 
" clip-path="url(#p8b87238e48)" style="fill: none; stroke-dasharray: 1.5,2.475; stroke-dashoffset: 0; stroke: #000000; stroke-width: 1.5"/>
   </g>
   <g id="line2d_64">
    <path d="M 558.815 251.101333 
L 994.215496 251.101333 
" clip-path="url(#p8b87238e48)" style="fill: none; stroke: #000000; stroke-opacity: 0.3; stroke-linecap: square"/>
   </g>
   <g id="patch_6">
    <path d="M 558.815 330.28 
L 558.815 33.36 
" style="fill: none; stroke: #000000; stroke-width: 0.8; stroke-linejoin: miter; stroke-linecap: square"/>
   </g>
   <g id="patch_7">
    <path d="M 558.815 330.28 
L 994.215496 330.28 
" style="fill: none; stroke: #000000; stroke-width: 0.8; stroke-linejoin: miter; stroke-linecap: square"/>
   </g>
   <g id="text_27">
    <!-- b = 3000 s/mm² -->
    <g transform="translate(686.555873 27.36) scale(0.22 -0.22)">
     <defs>
      <path id="DejaVuSans-33" d="M 2597 2516 
Q 3050 2419 3304 2112 
Q 3559 1806 3559 1356 
Q 3559 666 3084 287 
Q 2609 -91 1734 -91 
Q 1441 -91 1130 -33 
Q 819 25 488 141 
L 488 750 
Q 750 597 1062 519 
Q 1375 441 1716 441 
Q 2309 441 2620 675 
Q 2931 909 2931 1356 
Q 2931 1769 2642 2001 
Q 2353 2234 1838 2234 
L 1294 2234 
L 1294 2753 
L 1863 2753 
Q 2328 2753 2575 2939 
Q 2822 3125 2822 3475 
Q 2822 3834 2567 4026 
Q 2313 4219 1838 4219 
Q 1578 4219 1281 4162 
Q 984 4106 628 3988 
L 628 4550 
Q 988 4650 1302 4700 
Q 1616 4750 1894 4750 
Q 2613 4750 3031 4423 
Q 3450 4097 3450 3541 
Q 3450 3153 3228 2886 
Q 3006 2619 2597 2516 
z
" transform="scale(0.015625)"/>
     </defs>
     <use xlink:href="#DejaVuSans-62"/>
     <use xlink:href="#DejaVuSans-20" x="63.476562"/>
     <use xlink:href="#DejaVuSans-3d" x="95.263672"/>
     <use xlink:href="#DejaVuSans-20" x="179.052734"/>
     <use xlink:href="#DejaVuSans-33" x="210.839844"/>
     <use xlink:href="#DejaVuSans-30" x="274.462891"/>
     <use xlink:href="#DejaVuSans-30" x="338.085938"/>
     <use xlink:href="#DejaVuSans-30" x="401.708984"/>
     <use xlink:href="#DejaVuSans-20" x="465.332031"/>
     <use xlink:href="#DejaVuSans-73" x="497.119141"/>
     <use xlink:href="#DejaVuSans-2f" x="549.21875"/>
     <use xlink:href="#DejaVuSans-6d" x="582.910156"/>
     <use xlink:href="#DejaVuSans-6d" x="680.322266"/>
     <use xlink:href="#DejaVuSans-b2" x="777.734375"/>
    </g>
   </g>
  </g>
 </g>
 <defs>
  <clipPath id="pbfb4d2c8ff">
   <rect x="106.13" y="33.36" width="435.400496" height="296.92"/>
  </clipPath>
  <clipPath id="p8b87238e48">
   <rect x="558.815" y="33.36" width="435.400496" height="296.92"/>
  </clipPath>
 </defs>
</svg>
