<?xml version="1.0" encoding="utf-8" standalone="no"?>
<!DOCTYPE svg PUBLIC "-//W3C//DTD SVG 1.1//EN"
  "http://www.w3.org/Graphics/SVG/1.1/DTD/svg11.dtd">
<svg xmlns:xlink="http://www.w3.org/1999/xlink" width="2639.595781pt" height="361.015312pt" viewBox="0 0 2639.595781 361.015312" xmlns="http://www.w3.org/2000/svg" version="1.1">
 <metadata>
  <rdf:RDF xmlns:dc="http://purl.org/dc/elements/1.1/" xmlns:cc="http://creativecommons.org/ns#" xmlns:rdf="http://www.w3.org/1999/02/22-rdf-syntax-ns#">
   <cc:Work>
    <dc:type rdf:resource="http://purl.org/dc/dcmitype/StillImage"/>
    <dc:date>2026-02-06T08:54:11.115042</dc:date>
    <dc:format>image/svg+xml</dc:format>
    <dc:creator>
     <cc:Agent>
      <dc:title>Matplotlib v3.9.0, https://matplotlib.org/</dc:title>
     </cc:Agent>
    </dc:creator>
   </cc:Work>
  </rdf:RDF>
 </metadata>
 <defs>
  <style type="text/css">*{stroke-linejoin: round; stroke-linecap: butt}</style>
 </defs>
 <g id="figure_1">
  <g id="patch_1">
   <path d="M 0 361.015312 
L 2639.595781 361.015312 
L 2639.595781 0 
L 0 0 
z
" style="fill: #ffffff"/>
  </g>
  <g id="axes_1">
   <g id="patch_2">
    <path d="M 121.395781 287.65 
L 526.395781 287.65 
L 526.395781 38.17 
L 121.395781 38.17 
z
" style="fill: #ffffff"/>
   </g>
   <g id="PolyCollection_1">
    <defs>
     <path id="m2c4c9111c9" d="M 121.395781 -198.105312 
L 121.395781 -198.105312 
L 122.205781 -198.105312 
L 123.015781 -198.105312 
L 123.825781 -198.105312 
L 124.635781 -198.105312 
L 125.445781 -198.105312 
L 126.255781 -198.105312 
L 127.065781 -198.105312 
L 127.875781 -198.105312 
L 128.685781 -198.105312 
L 129.495781 -198.105312 
L 130.305781 -198.105312 
L 131.115781 -198.105312 
L 131.925781 -198.105312 
L 132.735781 -198.105312 
L 133.545781 -198.105312 
L 134.355781 -198.105312 
L 135.165781 -198.105312 
L 135.975781 -198.105312 
L 136.785781 -198.105312 
L 137.595781 -198.105312 
L 138.405781 -198.105312 
L 139.215781 -198.105312 
L 140.025781 -198.105312 
L 140.835781 -198.105312 
L 141.645781 -198.105312 
L 142.455781 -198.105312 
L 143.265781 -198.105312 
L 144.075781 -198.105312 
L 144.885781 -198.105312 
L 145.695781 -198.105312 
L 146.505781 -198.105312 
L 147.315781 -198.105312 
L 148.125781 -198.105312 
L 148.935781 -198.105312 
L 149.745781 -198.105312 
L 150.555781 -198.105312 
L 151.365781 -198.105312 
L 152.175781 -198.105312 
L 152.985781 -198.105312 
L 153.795781 -198.105312 
L 154.605781 -198.105312 
L 155.415781 -198.105312 
L 156.225781 -198.105312 
L 157.035781 -198.105312 
L 157.845781 -198.105312 
L 158.655781 -198.105312 
L 159.465781 -198.105312 
L 160.275781 -198.105312 
L 161.085781 -198.105312 
L 161.895781 -198.105312 
L 162.705781 -198.105312 
L 163.515781 -198.105312 
L 164.325781 -198.105312 
L 165.135781 -198.105312 
L 165.945781 -198.105312 
L 166.755781 -198.105312 
L 167.565781 -198.105312 
L 168.375781 -198.105312 
L 169.185781 -198.105312 
L 169.995781 -198.105312 
L 170.805781 -198.105312 
L 171.615781 -198.105312 
L 172.425781 -198.105312 
L 173.235781 -198.105312 
L 174.045781 -198.105312 
L 174.855781 -198.105312 
L 175.665781 -198.105312 
L 176.475781 -198.105312 
L 177.285781 -198.105312 
L 178.095781 -198.105312 
L 178.905781 -198.105312 
L 179.715781 -198.105312 
L 180.525781 -198.105312 
L 181.335781 -198.105312 
L 182.145781 -198.105312 
L 182.955781 -198.105312 
L 183.765781 -198.105312 
L 184.575781 -198.105312 
L 185.385781 -198.105312 
L 186.195781 -198.105312 
L 187.005781 -198.105312 
L 187.815781 -198.105312 
L 188.625781 -198.105312 
L 189.435781 -198.105312 
L 190.245781 -198.105312 
L 191.055781 -198.105312 
L 191.865781 -198.105312 
L 192.675781 -198.105312 
L 193.485781 -198.105312 
L 194.295781 -198.105312 
L 195.105781 -198.105312 
L 195.915781 -198.105312 
L 196.725781 -198.105312 
L 197.535781 -198.105312 
L 198.345781 -198.105312 
L 199.155781 -198.105312 
L 199.965781 -198.105312 
L 200.775781 -198.105312 
L 201.585781 -198.105312 
L 202.395781 -198.105312 
L 203.205781 -198.105312 
L 204.015781 -198.105312 
L 204.825781 -198.105312 
L 205.635781 -198.105312 
L 206.445781 -198.105312 
L 207.255781 -198.105312 
L 208.065781 -198.105312 
L 208.875781 -198.105312 
L 209.685781 -198.105312 
L 210.495781 -198.105312 
L 211.305781 -198.105312 
L 212.115781 -198.105312 
L 212.925781 -198.105312 
L 213.735781 -198.105312 
L 214.545781 -198.105312 
L 215.355781 -198.105312 
L 216.165781 -198.105312 
L 216.975781 -198.105312 
L 217.785781 -198.105312 
L 218.595781 -198.105312 
L 219.405781 -198.105312 
L 220.215781 -198.105312 
L 221.025781 -198.105312 
L 221.835781 -198.105312 
L 222.645781 -198.105312 
L 223.455781 -198.105312 
L 224.265781 -198.105312 
L 225.075781 -198.105312 
L 225.885781 -198.105312 
L 226.695781 -198.105312 
L 227.505781 -198.105312 
L 228.315781 -198.105312 
L 229.125781 -198.105312 
L 229.935781 -198.105312 
L 230.745781 -198.105312 
L 231.555781 -198.105312 
L 232.365781 -198.105312 
L 233.175781 -198.105312 
L 233.985781 -198.105312 
L 234.795781 -198.105312 
L 235.605781 -198.105312 
L 236.415781 -198.105312 
L 237.225781 -198.105312 
L 238.035781 -198.105312 
L 238.845781 -198.105312 
L 239.655781 -198.105312 
L 240.465781 -198.105312 
L 241.275781 -198.105312 
L 242.085781 -198.105312 
L 242.895781 -198.105312 
L 243.705781 -198.105312 
L 244.515781 -198.105312 
L 245.325781 -198.105312 
L 246.135781 -198.105312 
L 246.945781 -198.105312 
L 247.755781 -198.105312 
L 248.565781 -198.105312 
L 249.375781 -198.105312 
L 250.185781 -198.105312 
L 250.995781 -198.105312 
L 251.805781 -198.105312 
L 252.615781 -198.105312 
L 253.425781 -198.105312 
L 254.235781 -198.105312 
L 255.045781 -198.105312 
L 255.855781 -198.105312 
L 256.665781 -198.105312 
L 257.475781 -198.105312 
L 258.285781 -198.105312 
L 259.095781 -198.105312 
L 259.905781 -198.105312 
L 260.715781 -198.105312 
L 261.525781 -198.105312 
L 262.335781 -198.105312 
L 263.145781 -198.105312 
L 263.955781 -198.105312 
L 264.765781 -198.105312 
L 265.575781 -198.105312 
L 266.385781 -198.105312 
L 267.195781 -198.105312 
L 268.005781 -198.105312 
L 268.815781 -198.105312 
L 269.625781 -198.105312 
L 270.435781 -198.105312 
L 271.245781 -198.105312 
L 272.055781 -198.105312 
L 272.865781 -198.105312 
L 273.675781 -198.105312 
L 274.485781 -198.105312 
L 275.295781 -198.105312 
L 276.105781 -198.105312 
L 276.915781 -198.105312 
L 277.725781 -198.105312 
L 278.535781 -198.105312 
L 279.345781 -198.105312 
L 280.155781 -198.105312 
L 280.965781 -198.105312 
L 281.775781 -198.105312 
L 282.585781 -198.105312 
L 283.395781 -198.105312 
L 284.205781 -198.105312 
L 285.015781 -198.105312 
L 285.825781 -198.105312 
L 286.635781 -198.105312 
L 287.445781 -198.105312 
L 288.255781 -198.105312 
L 289.065781 -198.105312 
L 289.875781 -198.105312 
L 290.685781 -198.105312 
L 291.495781 -198.105312 
L 292.305781 -198.105312 
L 293.115781 -198.105312 
L 293.925781 -198.105312 
L 294.735781 -198.105312 
L 295.545781 -198.105312 
L 296.355781 -198.105312 
L 297.165781 -198.105312 
L 297.975781 -198.105312 
L 298.785781 -198.105312 
L 299.595781 -198.105312 
L 300.405781 -198.105312 
L 301.215781 -198.105312 
L 302.025781 -198.105312 
L 302.835781 -198.105312 
L 303.645781 -198.105312 
L 304.455781 -198.105312 
L 305.265781 -198.105312 
L 306.075781 -198.105312 
L 306.885781 -198.105312 
L 307.695781 -198.105312 
L 308.505781 -198.105312 
L 309.315781 -198.105312 
L 310.125781 -198.105312 
L 310.935781 -198.105312 
L 311.745781 -198.105312 
L 312.555781 -198.105312 
L 313.365781 -198.105312 
L 314.175781 -198.105312 
L 314.985781 -198.105312 
L 315.795781 -198.105312 
L 316.605781 -198.105312 
L 317.415781 -198.105312 
L 318.225781 -198.105312 
L 319.035781 -198.105312 
L 319.845781 -198.105312 
L 320.655781 -198.105312 
L 321.465781 -198.105312 
L 322.275781 -198.105312 
L 323.085781 -198.105312 
L 323.895781 -198.105312 
L 324.705781 -198.105312 
L 325.515781 -198.105312 
L 326.325781 -198.105312 
L 327.135781 -198.105312 
L 327.945781 -198.105312 
L 328.755781 -198.105312 
L 328.755781 -198.105312 
L 328.755781 -198.105312 
L 327.945781 -189.277919 
L 327.135781 -180.344231 
L 326.325781 -171.269261 
L 325.515781 -162.028454 
L 324.705781 -152.626985 
L 323.895781 -142.946046 
L 323.085781 -132.981636 
L 322.275781 -122.577179 
L 321.465781 -111.427099 
L 320.655781 -86.905917 
L 319.845781 -83.255651 
L 319.035781 -83.255651 
L 318.225781 -83.255651 
L 317.415781 -83.286611 
L 316.605781 -84.403778 
L 315.795781 -91.43236 
L 314.985781 -95.322022 
L 314.175781 -100.680305 
L 313.365781 -106.366862 
L 312.555781 -112.698844 
L 311.745781 -118.685976 
L 310.935781 -122.572153 
L 310.125781 -127.968054 
L 309.315781 -132.723175 
L 308.505781 -138.342394 
L 307.695781 -142.842991 
L 306.885781 -150.595971 
L 306.075781 -155.729688 
L 305.265781 -160.731404 
L 304.455781 -165.921602 
L 303.645781 -170.991567 
L 302.835781 -175.297989 
L 302.025781 -180.482434 
L 301.215781 -185.954926 
L 300.405781 -191.323345 
L 299.595781 -196.805668 
L 298.785781 -202.35643 
L 297.975781 -207.924713 
L 297.165781 -216.010458 
L 296.355781 -225.819323 
L 295.545781 -235.819705 
L 294.735781 -246.050353 
L 293.925781 -256.580768 
L 293.115781 -267.485921 
L 292.305781 -278.889383 
L 291.495781 -297.546568 
L 290.685781 -311.055723 
L 289.875781 -314.783564 
L 289.065781 -314.79661 
L 288.255781 -314.807316 
L 287.445781 -314.815732 
L 286.635781 -314.824327 
L 285.825781 -314.833891 
L 285.015781 -314.839602 
L 284.205781 -314.839602 
L 283.395781 -314.839601 
L 282.585781 -314.839602 
L 281.775781 -314.839602 
L 280.965781 -314.839602 
L 280.155781 -314.839602 
L 279.345781 -314.839602 
L 278.535781 -314.839602 
L 277.725781 -310.679828 
L 276.915781 -304.685447 
L 276.105781 -299.715646 
L 275.295781 -294.193517 
L 274.485781 -288.651983 
L 273.675781 -283.106701 
L 272.865781 -277.538487 
L 272.055781 -271.95159 
L 271.245781 -264.244458 
L 270.435781 -253.828909 
L 269.625781 -243.013307 
L 268.815781 -231.584879 
L 268.005781 -219.093107 
L 267.195781 -198.105312 
L 266.385781 -198.105312 
L 265.575781 -198.105312 
L 264.765781 -198.105312 
L 263.955781 -198.105312 
L 263.145781 -198.105312 
L 262.335781 -198.105312 
L 261.525781 -198.105312 
L 260.715781 -198.105312 
L 259.905781 -198.105312 
L 259.095781 -198.105312 
L 258.285781 -198.105312 
L 257.475781 -198.105312 
L 256.665781 -198.105312 
L 255.855781 -198.105312 
L 255.045781 -198.105312 
L 254.235781 -198.105312 
L 253.425781 -198.105312 
L 252.615781 -198.105312 
L 251.805781 -198.105312 
L 250.995781 -198.105312 
L 250.185781 -198.105312 
L 249.375781 -198.105312 
L 248.565781 -198.105312 
L 247.755781 -198.105312 
L 246.945781 -198.105312 
L 246.135781 -198.105312 
L 245.325781 -198.105312 
L 244.515781 -198.105312 
L 243.705781 -198.105312 
L 242.895781 -198.105312 
L 242.085781 -198.105312 
L 241.275781 -198.105312 
L 240.465781 -198.105312 
L 239.655781 -198.105312 
L 238.845781 -198.105312 
L 238.035781 -188.517862 
L 237.225781 -178.755369 
L 236.415781 -168.763826 
L 235.605781 -158.505688 
L 234.795781 -147.91457 
L 233.985781 -136.874121 
L 233.175781 -125.21671 
L 232.365781 -103.001075 
L 231.555781 -91.826792 
L 230.745781 -91.826792 
L 229.935781 -91.826792 
L 229.125781 -91.826792 
L 228.315781 -91.826793 
L 227.505781 -95.994832 
L 226.695781 -101.359924 
L 225.885781 -106.705456 
L 225.075781 -112.214569 
L 224.265781 -117.562673 
L 223.455781 -123.385412 
L 222.645781 -128.689639 
L 221.835781 -133.257258 
L 221.025781 -138.097635 
L 220.215781 -144.898173 
L 219.405781 -148.455768 
L 218.595781 -153.847107 
L 217.785781 -161.183848 
L 216.975781 -166.16842 
L 216.165781 -170.14443 
L 215.355781 -175.99302 
L 214.545781 -181.000522 
L 213.735781 -186.286272 
L 212.925781 -191.650549 
L 212.115781 -197.03425 
L 211.305781 -202.534448 
L 210.495781 -208.007224 
L 209.685781 -213.433058 
L 208.875781 -218.908257 
L 208.065781 -224.648525 
L 207.255781 -235.875945 
L 206.445781 -247.440794 
L 205.635781 -259.429652 
L 204.825781 -271.961468 
L 204.015781 -290.47147 
L 203.205781 -307.782605 
L 202.395781 -314.751578 
L 201.585781 -314.761205 
L 200.775781 -314.77032 
L 199.965781 -314.783428 
L 199.155781 -314.792998 
L 198.345781 -314.804225 
L 197.535781 -314.81166 
L 196.725781 -314.819912 
L 195.915781 -314.825359 
L 195.105781 -314.830542 
L 194.295781 -314.835091 
L 193.485781 -314.838453 
L 192.675781 -314.839614 
L 191.865781 -314.839614 
L 191.055781 -314.839615 
L 190.245781 -314.839615 
L 189.435781 -314.839615 
L 188.625781 -314.839615 
L 187.815781 -314.839615 
L 187.005781 -314.839615 
L 186.195781 -314.839615 
L 185.385781 -314.839615 
L 184.575781 -314.839615 
L 183.765781 -314.839614 
L 182.955781 -314.839614 
L 182.145781 -314.837486 
L 181.335781 -314.834154 
L 180.525781 -314.830474 
L 179.715781 -314.826395 
L 178.905781 -314.821932 
L 178.095781 -314.816198 
L 177.285781 -314.80767 
L 176.475781 -312.738345 
L 175.665781 -308.106922 
L 174.855781 -301.576925 
L 174.045781 -297.347033 
L 173.235781 -290.674583 
L 172.425781 -286.566044 
L 171.615781 -280.183291 
L 170.805781 -275.070931 
L 169.995781 -269.993713 
L 169.185781 -264.77108 
L 168.375781 -259.544343 
L 167.565781 -254.066803 
L 166.755781 -248.57952 
L 165.945781 -243.094606 
L 165.135781 -237.589103 
L 164.325781 -232.063159 
L 163.515781 -226.503853 
L 162.705781 -220.483226 
L 161.895781 -215.081704 
L 161.085781 -209.878711 
L 160.275781 -204.386649 
L 159.465781 -198.771166 
L 158.655781 -193.14269 
L 157.845781 -187.483253 
L 157.035781 -179.946456 
L 156.225781 -168.323863 
L 155.415781 -156.346827 
L 154.605781 -143.934835 
L 153.795781 -130.957429 
L 152.985781 -113.938942 
L 152.175781 -94.219009 
L 151.365781 -82.25345 
L 150.555781 -81.481293 
L 149.745781 -81.445141 
L 148.935781 -81.425701 
L 148.125781 -81.416875 
L 147.315781 -81.408906 
L 146.505781 -81.401669 
L 145.695781 -81.396682 
L 144.885781 -81.396682 
L 144.075781 -81.396682 
L 143.265781 -84.557265 
L 142.455781 -90.10436 
L 141.645781 -95.669974 
L 140.835781 -101.254182 
L 140.025781 -106.858944 
L 139.215781 -112.486426 
L 138.405781 -118.13902 
L 137.595781 -123.819382 
L 136.785781 -129.530438 
L 135.975781 -137.495827 
L 135.165781 -151.989696 
L 134.355781 -173.529677 
L 133.545781 -198.105312 
L 132.735781 -198.105312 
L 131.925781 -198.105312 
L 131.115781 -198.105312 
L 130.305781 -198.105312 
L 129.495781 -198.105312 
L 128.685781 -198.105312 
L 127.875781 -198.105312 
L 127.065781 -198.105312 
L 126.255781 -198.105312 
L 125.445781 -198.105312 
L 124.635781 -198.105312 
L 123.825781 -198.105312 
L 123.015781 -198.105312 
L 122.205781 -198.105312 
L 121.395781 -198.105312 
z
" style="stroke: #0173b2; stroke-opacity: 0.75"/>
    </defs>
    <g clip-path="url(#p4a3d591c06)">
     <use xlink:href="#m2c4c9111c9" x="0" y="361.015312" style="fill: #0173b2; fill-opacity: 0.75; stroke: #0173b2; stroke-opacity: 0.75"/>
    </g>
   </g>
   <g id="matplotlib.axis_1">
    <g id="xtick_1">
     <g id="line2d_1">
      <defs>
       <path id="m5d50a728ad" d="M 0 0 
L 0 3.5 
" style="stroke: #000000; stroke-width: 0.8"/>
      </defs>
      <g>
       <use xlink:href="#m5d50a728ad" x="121.395781" y="287.65" style="stroke: #000000; stroke-width: 0.8"/>
      </g>
     </g>
     <g id="text_1">
      <!-- 0 -->
      <g transform="translate(112.806406 315.165781) scale(0.27 -0.27)">
       <defs>
        <path id="DejaVuSans-30" d="M 2034 4250 
Q 1547 4250 1301 3770 
Q 1056 3291 1056 2328 
Q 1056 1369 1301 889 
Q 1547 409 2034 409 
Q 2525 409 2770 889 
Q 3016 1369 3016 2328 
Q 3016 3291 2770 3770 
Q 2525 4250 2034 4250 
z
M 2034 4750 
Q 2819 4750 3233 4129 
Q 3647 3509 3647 2328 
Q 3647 1150 3233 529 
Q 2819 -91 2034 -91 
Q 1250 -91 836 529 
Q 422 1150 422 2328 
Q 422 3509 836 4129 
Q 1250 4750 2034 4750 
z
" transform="scale(0.015625)"/>
       </defs>
       <use xlink:href="#DejaVuSans-30"/>
      </g>
     </g>
    </g>
    <g id="xtick_2">
     <g id="line2d_2">
      <g>
       <use xlink:href="#m5d50a728ad" x="222.645781" y="287.65" style="stroke: #000000; stroke-width: 0.8"/>
      </g>
     </g>
     <g id="text_2">
      <!-- 25 -->
      <g transform="translate(205.467031 315.165781) scale(0.27 -0.27)">
       <defs>
        <path id="DejaVuSans-32" d="M 1228 531 
L 3431 531 
L 3431 0 
L 469 0 
L 469 531 
Q 828 903 1448 1529 
Q 2069 2156 2228 2338 
Q 2531 2678 2651 2914 
Q 2772 3150 2772 3378 
Q 2772 3750 2511 3984 
Q 2250 4219 1831 4219 
Q 1534 4219 1204 4116 
Q 875 4013 500 3803 
L 500 4441 
Q 881 4594 1212 4672 
Q 1544 4750 1819 4750 
Q 2544 4750 2975 4387 
Q 3406 4025 3406 3419 
Q 3406 3131 3298 2873 
Q 3191 2616 2906 2266 
Q 2828 2175 2409 1742 
Q 1991 1309 1228 531 
z
" transform="scale(0.015625)"/>
        <path id="DejaVuSans-35" d="M 691 4666 
L 3169 4666 
L 3169 4134 
L 1269 4134 
L 1269 2991 
Q 1406 3038 1543 3061 
Q 1681 3084 1819 3084 
Q 2600 3084 3056 2656 
Q 3513 2228 3513 1497 
Q 3513 744 3044 326 
Q 2575 -91 1722 -91 
Q 1428 -91 1123 -41 
Q 819 9 494 109 
L 494 744 
Q 775 591 1075 516 
Q 1375 441 1709 441 
Q 2250 441 2565 725 
Q 2881 1009 2881 1497 
Q 2881 1984 2565 2268 
Q 2250 2553 1709 2553 
Q 1456 2553 1204 2497 
Q 953 2441 691 2322 
L 691 4666 
z
" transform="scale(0.015625)"/>
       </defs>
       <use xlink:href="#DejaVuSans-32"/>
       <use xlink:href="#DejaVuSans-35" x="63.623047"/>
      </g>
     </g>
    </g>
    <g id="xtick_3">
     <g id="line2d_3">
      <g>
       <use xlink:href="#m5d50a728ad" x="323.895781" y="287.65" style="stroke: #000000; stroke-width: 0.8"/>
      </g>
     </g>
     <g id="text_3">
      <!-- 50 -->
      <g transform="translate(306.717031 315.165781) scale(0.27 -0.27)">
       <use xlink:href="#DejaVuSans-35"/>
       <use xlink:href="#DejaVuSans-30" x="63.623047"/>
      </g>
     </g>
    </g>
    <g id="xtick_4">
     <g id="line2d_4">
      <g>
       <use xlink:href="#m5d50a728ad" x="425.145781" y="287.65" style="stroke: #000000; stroke-width: 0.8"/>
      </g>
     </g>
     <g id="text_4">
      <!-- 75 -->
      <g transform="translate(407.967031 315.165781) scale(0.27 -0.27)">
       <defs>
        <path id="DejaVuSans-37" d="M 525 4666 
L 3525 4666 
L 3525 4397 
L 1831 0 
L 1172 0 
L 2766 4134 
L 525 4134 
L 525 4666 
z
" transform="scale(0.015625)"/>
       </defs>
       <use xlink:href="#DejaVuSans-37"/>
       <use xlink:href="#DejaVuSans-35" x="63.623047"/>
      </g>
     </g>
    </g>
    <g id="text_5">
     <!-- Time [ms] -->
     <g transform="translate(248.298125 347.57625) scale(0.3 -0.3)">
      <defs>
       <path id="DejaVuSans-54" d="M -19 4666 
L 3928 4666 
L 3928 4134 
L 2272 4134 
L 2272 0 
L 1638 0 
L 1638 4134 
L -19 4134 
L -19 4666 
z
" transform="scale(0.015625)"/>
       <path id="DejaVuSans-69" d="M 603 3500 
L 1178 3500 
L 1178 0 
L 603 0 
L 603 3500 
z
M 603 4863 
L 1178 4863 
L 1178 4134 
L 603 4134 
L 603 4863 
z
" transform="scale(0.015625)"/>
       <path id="DejaVuSans-6d" d="M 3328 2828 
Q 3544 3216 3844 3400 
Q 4144 3584 4550 3584 
Q 5097 3584 5394 3201 
Q 5691 2819 5691 2113 
L 5691 0 
L 5113 0 
L 5113 2094 
Q 5113 2597 4934 2840 
Q 4756 3084 4391 3084 
Q 3944 3084 3684 2787 
Q 3425 2491 3425 1978 
L 3425 0 
L 2847 0 
L 2847 2094 
Q 2847 2600 2669 2842 
Q 2491 3084 2119 3084 
Q 1678 3084 1418 2786 
Q 1159 2488 1159 1978 
L 1159 0 
L 581 0 
L 581 3500 
L 1159 3500 
L 1159 2956 
Q 1356 3278 1631 3431 
Q 1906 3584 2284 3584 
Q 2666 3584 2933 3390 
Q 3200 3197 3328 2828 
z
" transform="scale(0.015625)"/>
       <path id="DejaVuSans-65" d="M 3597 1894 
L 3597 1613 
L 953 1613 
Q 991 1019 1311 708 
Q 1631 397 2203 397 
Q 2534 397 2845 478 
Q 3156 559 3463 722 
L 3463 178 
Q 3153 47 2828 -22 
Q 2503 -91 2169 -91 
Q 1331 -91 842 396 
Q 353 884 353 1716 
Q 353 2575 817 3079 
Q 1281 3584 2069 3584 
Q 2775 3584 3186 3129 
Q 3597 2675 3597 1894 
z
M 3022 2063 
Q 3016 2534 2758 2815 
Q 2500 3097 2075 3097 
Q 1594 3097 1305 2825 
Q 1016 2553 972 2059 
L 3022 2063 
z
" transform="scale(0.015625)"/>
       <path id="DejaVuSans-20" transform="scale(0.015625)"/>
       <path id="DejaVuSans-5b" d="M 550 4863 
L 1875 4863 
L 1875 4416 
L 1125 4416 
L 1125 -397 
L 1875 -397 
L 1875 -844 
L 550 -844 
L 550 4863 
z
" transform="scale(0.015625)"/>
       <path id="DejaVuSans-73" d="M 2834 3397 
L 2834 2853 
Q 2591 2978 2328 3040 
Q 2066 3103 1784 3103 
Q 1356 3103 1142 2972 
Q 928 2841 928 2578 
Q 928 2378 1081 2264 
Q 1234 2150 1697 2047 
L 1894 2003 
Q 2506 1872 2764 1633 
Q 3022 1394 3022 966 
Q 3022 478 2636 193 
Q 2250 -91 1575 -91 
Q 1294 -91 989 -36 
Q 684 19 347 128 
L 347 722 
Q 666 556 975 473 
Q 1284 391 1588 391 
Q 1994 391 2212 530 
Q 2431 669 2431 922 
Q 2431 1156 2273 1281 
Q 2116 1406 1581 1522 
L 1381 1569 
Q 847 1681 609 1914 
Q 372 2147 372 2553 
Q 372 3047 722 3315 
Q 1072 3584 1716 3584 
Q 2034 3584 2315 3537 
Q 2597 3491 2834 3397 
z
" transform="scale(0.015625)"/>
       <path id="DejaVuSans-5d" d="M 1947 4863 
L 1947 -844 
L 622 -844 
L 622 -397 
L 1369 -397 
L 1369 4416 
L 622 4416 
L 622 4863 
L 1947 4863 
z
" transform="scale(0.015625)"/>
      </defs>
      <use xlink:href="#DejaVuSans-54"/>
      <use xlink:href="#DejaVuSans-69" x="57.958984"/>
      <use xlink:href="#DejaVuSans-6d" x="85.742188"/>
      <use xlink:href="#DejaVuSans-65" x="183.154297"/>
      <use xlink:href="#DejaVuSans-20" x="244.677734"/>
      <use xlink:href="#DejaVuSans-5b" x="276.464844"/>
      <use xlink:href="#DejaVuSans-6d" x="315.478516"/>
      <use xlink:href="#DejaVuSans-73" x="412.890625"/>
      <use xlink:href="#DejaVuSans-5d" x="464.990234"/>
     </g>
    </g>
   </g>
   <g id="matplotlib.axis_2">
    <g id="ytick_1">
     <g id="line2d_5">
      <defs>
       <path id="mc8f6a3f67d" d="M 0 0 
L -3.5 0 
" style="stroke: #000000; stroke-width: 0.8"/>
      </defs>
      <g>
       <use xlink:href="#mc8f6a3f67d" x="121.395781" y="287.029403" style="stroke: #000000; stroke-width: 0.8"/>
      </g>
     </g>
     <g id="text_6">
      <!-- −200 -->
      <g transform="translate(40.234375 297.287294) scale(0.27 -0.27)">
       <defs>
        <path id="DejaVuSans-2212" d="M 678 2272 
L 4684 2272 
L 4684 1741 
L 678 1741 
L 678 2272 
z
" transform="scale(0.015625)"/>
       </defs>
       <use xlink:href="#DejaVuSans-2212"/>
       <use xlink:href="#DejaVuSans-32" x="83.789062"/>
       <use xlink:href="#DejaVuSans-30" x="147.412109"/>
       <use xlink:href="#DejaVuSans-30" x="211.035156"/>
      </g>
     </g>
    </g>
    <g id="ytick_2">
     <g id="line2d_6">
      <g>
       <use xlink:href="#mc8f6a3f67d" x="121.395781" y="224.969701" style="stroke: #000000; stroke-width: 0.8"/>
      </g>
     </g>
     <g id="text_7">
      <!-- −100 -->
      <g transform="translate(40.234375 235.227592) scale(0.27 -0.27)">
       <defs>
        <path id="DejaVuSans-31" d="M 794 531 
L 1825 531 
L 1825 4091 
L 703 3866 
L 703 4441 
L 1819 4666 
L 2450 4666 
L 2450 531 
L 3481 531 
L 3481 0 
L 794 0 
L 794 531 
z
" transform="scale(0.015625)"/>
       </defs>
       <use xlink:href="#DejaVuSans-2212"/>
       <use xlink:href="#DejaVuSans-31" x="83.789062"/>
       <use xlink:href="#DejaVuSans-30" x="147.412109"/>
       <use xlink:href="#DejaVuSans-30" x="211.035156"/>
      </g>
     </g>
    </g>
    <g id="ytick_3">
     <g id="line2d_7">
      <g>
       <use xlink:href="#mc8f6a3f67d" x="121.395781" y="162.91" style="stroke: #000000; stroke-width: 0.8"/>
      </g>
     </g>
     <g id="text_8">
      <!-- 0 -->
      <g transform="translate(97.217031 173.167891) scale(0.27 -0.27)">
       <use xlink:href="#DejaVuSans-30"/>
      </g>
     </g>
    </g>
    <g id="ytick_4">
     <g id="line2d_8">
      <g>
       <use xlink:href="#mc8f6a3f67d" x="121.395781" y="100.850299" style="stroke: #000000; stroke-width: 0.8"/>
      </g>
     </g>
     <g id="text_9">
      <!-- 100 -->
      <g transform="translate(62.859531 111.108189) scale(0.27 -0.27)">
       <use xlink:href="#DejaVuSans-31"/>
       <use xlink:href="#DejaVuSans-30" x="63.623047"/>
       <use xlink:href="#DejaVuSans-30" x="127.246094"/>
      </g>
     </g>
    </g>
    <g id="ytick_5">
     <g id="line2d_9">
      <g>
       <use xlink:href="#mc8f6a3f67d" x="121.395781" y="38.790597" style="stroke: #000000; stroke-width: 0.8"/>
      </g>
     </g>
     <g id="text_10">
      <!-- 200 -->
      <g transform="translate(62.859531 49.048488) scale(0.27 -0.27)">
       <use xlink:href="#DejaVuSans-32"/>
       <use xlink:href="#DejaVuSans-30" x="63.623047"/>
       <use xlink:href="#DejaVuSans-30" x="127.246094"/>
      </g>
     </g>
    </g>
    <g id="text_11">
     <!-- mT/m -->
     <g transform="translate(29.995313 206.346719) rotate(-90) scale(0.3 -0.3)">
      <defs>
       <path id="DejaVuSans-2f" d="M 1625 4666 
L 2156 4666 
L 531 -594 
L 0 -594 
L 1625 4666 
z
" transform="scale(0.015625)"/>
      </defs>
      <use xlink:href="#DejaVuSans-6d"/>
      <use xlink:href="#DejaVuSans-54" x="97.412109"/>
      <use xlink:href="#DejaVuSans-2f" x="158.496094"/>
      <use xlink:href="#DejaVuSans-6d" x="192.1875"/>
     </g>
    </g>
   </g>
   <g id="line2d_10">
    <path d="M 121.395781 162.91 
L 526.395781 162.91 
" clip-path="url(#p4a3d591c06)" style="fill: none; stroke: #d3d3d3; stroke-opacity: 0.8; stroke-width: 1.5; stroke-linecap: square"/>
   </g>
   <g id="line2d_11">
    <path d="M 121.395781 162.91 
L 133.545781 162.91 
L 135.165781 209.025617 
L 135.975781 223.519486 
L 136.785781 231.484874 
L 143.265781 276.458047 
L 144.075781 279.618631 
L 150.555781 279.53402 
L 151.365781 278.761862 
L 152.175781 266.796303 
L 153.795781 230.057883 
L 156.225781 192.691449 
L 157.035781 181.068857 
L 157.845781 173.53206 
L 161.895781 145.933609 
L 163.515781 134.511459 
L 169.185781 96.244233 
L 171.615781 80.832022 
L 172.425781 74.449268 
L 173.235781 70.34073 
L 174.045781 63.66828 
L 174.855781 59.438388 
L 175.665781 52.908391 
L 176.475781 48.276967 
L 177.285781 46.207643 
L 190.245781 46.175698 
L 202.395781 46.263735 
L 203.205781 53.232707 
L 204.825781 89.053844 
L 207.255781 125.139368 
L 208.065781 136.366788 
L 210.495781 153.008089 
L 214.545781 180.014791 
L 215.355781 185.022292 
L 216.165781 190.870882 
L 216.975781 194.846892 
L 217.785781 199.831465 
L 218.595781 207.168205 
L 219.405781 212.559545 
L 220.215781 216.11714 
L 221.025781 222.917677 
L 223.455781 237.629901 
L 225.885781 254.309857 
L 227.505781 265.02048 
L 228.315781 269.18852 
L 231.555781 269.18852 
L 232.365781 258.014237 
L 233.175781 235.798602 
L 234.795781 213.100743 
L 237.225781 182.259943 
L 238.845781 162.91 
L 267.195781 162.91 
L 268.005781 141.922206 
L 269.625781 118.002006 
L 271.245781 96.770855 
L 272.055781 89.063723 
L 276.105781 61.299667 
L 276.915781 56.329865 
L 277.725781 50.335484 
L 278.535781 46.175711 
L 289.875781 46.231748 
L 290.685781 49.95959 
L 291.495781 63.468745 
L 292.305781 82.125929 
L 294.735781 114.96496 
L 297.165781 145.004854 
L 297.975781 153.0906 
L 302.025781 180.532878 
L 302.835781 185.717323 
L 303.645781 190.023745 
L 306.885781 210.419341 
L 307.695781 218.172321 
L 308.505781 222.672919 
L 309.315781 228.292138 
L 311.745781 242.329337 
L 314.985781 265.69329 
L 315.795781 269.582952 
L 316.605781 276.611535 
L 317.415781 277.728701 
L 319.845781 277.759661 
L 320.655781 274.109395 
L 321.465781 249.588213 
L 323.085781 228.033677 
L 325.515781 198.986859 
L 328.755781 162.91 
L 328.755781 162.91 
" clip-path="url(#p4a3d591c06)" style="fill: none; stroke: #000000; stroke-width: 5; stroke-linecap: square"/>
   </g>
   <g id="line2d_12">
    <path d="M 328.755781 162.91 
L 331.064281 162.91 
L 331.995781 184.261831 
L 332.036281 183.33349 
L 333.939781 141.558169 
L 334.790281 141.558169 
L 336.734281 184.261831 
L 337.584781 184.261831 
L 339.528781 141.558169 
L 340.379281 141.558169 
L 342.323281 184.261831 
L 343.173781 184.261831 
L 345.117781 141.558169 
L 345.968281 141.558169 
L 347.912281 184.261831 
L 348.762781 184.261831 
L 350.706781 141.558169 
L 351.557281 141.558169 
L 353.501281 184.261831 
L 354.351781 184.261831 
L 356.295781 141.558169 
L 357.146281 141.558169 
L 359.090281 184.261831 
L 359.940781 184.261831 
L 361.884781 141.558169 
L 362.735281 141.558169 
L 364.679281 184.261831 
L 365.529781 184.261831 
L 367.473781 141.558169 
L 368.324281 141.558169 
L 370.268281 184.261831 
L 371.118781 184.261831 
L 373.062781 141.558169 
L 373.913281 141.558169 
L 375.857281 184.261831 
L 376.707781 184.261831 
L 378.651781 141.558169 
L 379.502281 141.558169 
L 381.446281 184.261831 
L 382.296781 184.261831 
L 384.240781 141.558169 
L 385.091281 141.558169 
L 387.035281 184.261831 
L 387.885781 184.261831 
L 389.829781 141.558169 
L 390.680281 141.558169 
L 392.624281 184.261831 
L 393.474781 184.261831 
L 395.418781 141.558169 
L 396.269281 141.558169 
L 398.213281 184.261831 
L 399.063781 184.261831 
L 401.007781 141.558169 
L 401.858281 141.558169 
L 403.802281 184.261831 
L 404.652781 184.261831 
L 406.596781 141.558169 
L 407.447281 141.558169 
L 409.391281 184.261831 
L 410.241781 184.261831 
L 412.185781 141.558169 
L 413.036281 141.558169 
L 414.980281 184.261831 
L 415.830781 184.261831 
L 417.774781 141.558169 
L 418.625281 141.558169 
L 420.569281 184.261831 
L 421.419781 184.261831 
L 423.363781 141.558169 
L 424.214281 141.558169 
L 426.158281 184.261831 
L 427.008781 184.261831 
L 428.952781 141.558169 
L 429.803281 141.558169 
L 431.747281 184.261831 
L 432.597781 184.261831 
L 434.541781 141.558169 
L 435.392281 141.558169 
L 437.336281 184.261831 
L 438.186781 184.261831 
L 440.130781 141.558169 
L 440.981281 141.558169 
L 442.925281 184.261831 
L 443.775781 184.261831 
L 445.719781 141.558169 
L 446.570281 141.558169 
L 448.514281 184.261831 
L 449.364781 184.261831 
L 451.308781 141.558169 
L 452.159281 141.558169 
L 454.103281 184.261831 
L 454.953781 184.261831 
L 456.897781 141.558169 
L 457.748281 141.558169 
L 459.692281 184.261831 
L 460.542781 184.261831 
L 462.486781 141.558169 
L 463.337281 141.558169 
L 465.281281 184.261831 
L 466.131781 184.261831 
L 468.075781 141.558169 
L 468.926281 141.558169 
L 470.870281 184.261831 
L 471.720781 184.261831 
L 473.664781 141.558169 
L 474.515281 141.558169 
L 476.459281 184.261831 
L 477.309781 184.261831 
L 479.253781 141.558169 
L 480.104281 141.558169 
L 482.048281 184.261831 
L 482.898781 184.261831 
L 484.842781 141.558169 
L 485.693281 141.558169 
L 486.665281 162.91 
L 486.665281 162.91 
" clip-path="url(#p4a3d591c06)" style="fill: none; stroke: #000000; stroke-opacity: 0.7; stroke-width: 5; stroke-linecap: square"/>
   </g>
   <g id="line2d_13">
    <path d="M 384.621481 287.65 
L 384.621481 38.17 
" clip-path="url(#p4a3d591c06)" style="fill: none; stroke-dasharray: 18.5,8; stroke-dashoffset: 0; stroke: #000000; stroke-width: 5"/>
   </g>
   <g id="line2d_14">
    <path d="M 121.395781 38.790597 
L 526.395781 38.790597 
" clip-path="url(#p4a3d591c06)" style="fill: none; stroke-dasharray: 18.5,8; stroke-dashoffset: 0; stroke: #000000; stroke-opacity: 0.2; stroke-width: 5"/>
   </g>
   <g id="line2d_15">
    <path d="M 121.395781 287.029403 
L 526.395781 287.029403 
" clip-path="url(#p4a3d591c06)" style="fill: none; stroke-dasharray: 18.5,8; stroke-dashoffset: 0; stroke: #000000; stroke-opacity: 0.2; stroke-width: 5"/>
   </g>
   <g id="line2d_16">
    <path d="M 121.395781 162.91 
L 526.395781 162.91 
" clip-path="url(#p4a3d591c06)" style="fill: none; stroke: #000000; stroke-width: 5; stroke-linecap: square"/>
   </g>
   <g id="patch_3">
    <path d="M 121.395781 287.65 
L 121.395781 38.17 
" style="fill: none; stroke: #000000; stroke-width: 0.8; stroke-linejoin: miter; stroke-linecap: square"/>
   </g>
   <g id="patch_4">
    <path d="M 121.395781 287.65 
L 526.395781 287.65 
" style="fill: none; stroke: #000000; stroke-width: 0.8; stroke-linejoin: miter; stroke-linecap: square"/>
   </g>
   <g id="text_12">
    <!-- $G(t)$ -->
    <g transform="translate(292.695781 31.515) scale(0.32 -0.32)">
     <defs>
      <path id="DejaVuSans-Oblique-47" d="M 3494 697 
L 3738 1919 
L 2700 1919 
L 2797 2438 
L 4453 2438 
L 4050 384 
Q 3634 156 3143 32 
Q 2653 -91 2156 -91 
Q 1278 -91 783 396 
Q 288 884 288 1753 
Q 288 2475 589 3126 
Q 891 3778 1422 4213 
Q 1756 4484 2153 4617 
Q 2550 4750 3034 4750 
Q 3472 4750 3873 4639 
Q 4275 4528 4641 4306 
L 4513 3634 
Q 4231 3928 3853 4083 
Q 3475 4238 3047 4238 
Q 2550 4238 2172 4048 
Q 1794 3859 1497 3463 
Q 1244 3125 1098 2667 
Q 953 2209 953 1734 
Q 953 1081 1287 751 
Q 1622 422 2284 422 
Q 2616 422 2925 492 
Q 3234 563 3494 697 
z
" transform="scale(0.015625)"/>
      <path id="DejaVuSans-28" d="M 1984 4856 
Q 1566 4138 1362 3434 
Q 1159 2731 1159 2009 
Q 1159 1288 1364 580 
Q 1569 -128 1984 -844 
L 1484 -844 
Q 1016 -109 783 600 
Q 550 1309 550 2009 
Q 550 2706 781 3412 
Q 1013 4119 1484 4856 
L 1984 4856 
z
" transform="scale(0.015625)"/>
      <path id="DejaVuSans-Oblique-74" d="M 2706 3500 
L 2619 3053 
L 1472 3053 
L 1100 1153 
Q 1081 1047 1072 975 
Q 1063 903 1063 863 
Q 1063 663 1183 572 
Q 1303 481 1569 481 
L 2150 481 
L 2053 0 
L 1503 0 
Q 991 0 739 200 
Q 488 400 488 806 
Q 488 878 497 964 
Q 506 1050 525 1153 
L 897 3053 
L 409 3053 
L 500 3500 
L 978 3500 
L 1172 4494 
L 1747 4494 
L 1556 3500 
L 2706 3500 
z
" transform="scale(0.015625)"/>
      <path id="DejaVuSans-29" d="M 513 4856 
L 1013 4856 
Q 1481 4119 1714 3412 
Q 1947 2706 1947 2009 
Q 1947 1309 1714 600 
Q 1481 -109 1013 -844 
L 513 -844 
Q 928 -128 1133 580 
Q 1338 1288 1338 2009 
Q 1338 2731 1133 3434 
Q 928 4138 513 4856 
z
" transform="scale(0.015625)"/>
     </defs>
     <use xlink:href="#DejaVuSans-Oblique-47" transform="translate(0 0.125)"/>
     <use xlink:href="#DejaVuSans-28" transform="translate(77.490234 0.125)"/>
     <use xlink:href="#DejaVuSans-Oblique-74" transform="translate(116.503906 0.125)"/>
     <use xlink:href="#DejaVuSans-29" transform="translate(155.712891 0.125)"/>
    </g>
   </g>
   <g id="legend_1">
    <g id="patch_5">
     <path d="M 502.195781 66.77 
L 510.995781 66.77 
Q 515.395781 66.77 515.395781 62.37 
L 515.395781 53.57 
Q 515.395781 49.17 510.995781 49.17 
L 502.195781 49.17 
Q 497.795781 49.17 497.795781 53.57 
L 497.795781 62.37 
Q 497.795781 66.77 502.195781 66.77 
z
" style="fill: #ffffff; opacity: 0.8; stroke: #cccccc; stroke-linejoin: miter"/>
    </g>
   </g>
  </g>
  <g id="axes_2">
   <g id="patch_6">
    <path d="M 647.895781 287.65 
L 1052.895781 287.65 
L 1052.895781 38.17 
L 647.895781 38.17 
z
" style="fill: #ffffff"/>
   </g>
   <g id="matplotlib.axis_3">
    <g id="xtick_5">
     <g id="line2d_17">
      <g>
       <use xlink:href="#m5d50a728ad" x="647.895781" y="287.65" style="stroke: #000000; stroke-width: 0.8"/>
      </g>
     </g>
     <g id="text_13">
      <!-- 0 -->
      <g transform="translate(639.306406 315.165781) scale(0.27 -0.27)">
       <use xlink:href="#DejaVuSans-30"/>
      </g>
     </g>
    </g>
    <g id="xtick_6">
     <g id="line2d_18">
      <g>
       <use xlink:href="#m5d50a728ad" x="749.145781" y="287.65" style="stroke: #000000; stroke-width: 0.8"/>
      </g>
     </g>
     <g id="text_14">
      <!-- 25 -->
      <g transform="translate(731.967031 315.165781) scale(0.27 -0.27)">
       <use xlink:href="#DejaVuSans-32"/>
       <use xlink:href="#DejaVuSans-35" x="63.623047"/>
      </g>
     </g>
    </g>
    <g id="xtick_7">
     <g id="line2d_19">
      <g>
       <use xlink:href="#m5d50a728ad" x="850.395781" y="287.65" style="stroke: #000000; stroke-width: 0.8"/>
      </g>
     </g>
     <g id="text_15">
      <!-- 50 -->
      <g transform="translate(833.217031 315.165781) scale(0.27 -0.27)">
       <use xlink:href="#DejaVuSans-35"/>
       <use xlink:href="#DejaVuSans-30" x="63.623047"/>
      </g>
     </g>
    </g>
    <g id="xtick_8">
     <g id="line2d_20">
      <g>
       <use xlink:href="#m5d50a728ad" x="951.645781" y="287.65" style="stroke: #000000; stroke-width: 0.8"/>
      </g>
     </g>
     <g id="text_16">
      <!-- 75 -->
      <g transform="translate(934.467031 315.165781) scale(0.27 -0.27)">
       <use xlink:href="#DejaVuSans-37"/>
       <use xlink:href="#DejaVuSans-35" x="63.623047"/>
      </g>
     </g>
    </g>
    <g id="text_17">
     <!-- Time [ms] -->
     <g transform="translate(774.798125 347.57625) scale(0.3 -0.3)">
      <use xlink:href="#DejaVuSans-54"/>
      <use xlink:href="#DejaVuSans-69" x="57.958984"/>
      <use xlink:href="#DejaVuSans-6d" x="85.742188"/>
      <use xlink:href="#DejaVuSans-65" x="183.154297"/>
      <use xlink:href="#DejaVuSans-20" x="244.677734"/>
      <use xlink:href="#DejaVuSans-5b" x="276.464844"/>
      <use xlink:href="#DejaVuSans-6d" x="315.478516"/>
      <use xlink:href="#DejaVuSans-73" x="412.890625"/>
      <use xlink:href="#DejaVuSans-5d" x="464.990234"/>
     </g>
    </g>
   </g>
   <g id="matplotlib.axis_4">
    <g id="ytick_6">
     <g id="line2d_21">
      <g>
       <use xlink:href="#mc8f6a3f67d" x="647.895781" y="287.029403" style="stroke: #000000; stroke-width: 0.8"/>
      </g>
     </g>
     <g id="text_18">
      <!-- −200 -->
      <g transform="translate(566.734375 297.287294) scale(0.27 -0.27)">
       <use xlink:href="#DejaVuSans-2212"/>
       <use xlink:href="#DejaVuSans-32" x="83.789062"/>
       <use xlink:href="#DejaVuSans-30" x="147.412109"/>
       <use xlink:href="#DejaVuSans-30" x="211.035156"/>
      </g>
     </g>
    </g>
    <g id="ytick_7">
     <g id="line2d_22">
      <g>
       <use xlink:href="#mc8f6a3f67d" x="647.895781" y="224.969701" style="stroke: #000000; stroke-width: 0.8"/>
      </g>
     </g>
     <g id="text_19">
      <!-- −100 -->
      <g transform="translate(566.734375 235.227592) scale(0.27 -0.27)">
       <use xlink:href="#DejaVuSans-2212"/>
       <use xlink:href="#DejaVuSans-31" x="83.789062"/>
       <use xlink:href="#DejaVuSans-30" x="147.412109"/>
       <use xlink:href="#DejaVuSans-30" x="211.035156"/>
      </g>
     </g>
    </g>
    <g id="ytick_8">
     <g id="line2d_23">
      <g>
       <use xlink:href="#mc8f6a3f67d" x="647.895781" y="162.91" style="stroke: #000000; stroke-width: 0.8"/>
      </g>
     </g>
     <g id="text_20">
      <!-- 0 -->
      <g transform="translate(623.717031 173.167891) scale(0.27 -0.27)">
       <use xlink:href="#DejaVuSans-30"/>
      </g>
     </g>
    </g>
    <g id="ytick_9">
     <g id="line2d_24">
      <g>
       <use xlink:href="#mc8f6a3f67d" x="647.895781" y="100.850299" style="stroke: #000000; stroke-width: 0.8"/>
      </g>
     </g>
     <g id="text_21">
      <!-- 100 -->
      <g transform="translate(589.359531 111.108189) scale(0.27 -0.27)">
       <use xlink:href="#DejaVuSans-31"/>
       <use xlink:href="#DejaVuSans-30" x="63.623047"/>
       <use xlink:href="#DejaVuSans-30" x="127.246094"/>
      </g>
     </g>
    </g>
    <g id="ytick_10">
     <g id="line2d_25">
      <g>
       <use xlink:href="#mc8f6a3f67d" x="647.895781" y="38.790597" style="stroke: #000000; stroke-width: 0.8"/>
      </g>
     </g>
     <g id="text_22">
      <!-- 200 -->
      <g transform="translate(589.359531 49.048488) scale(0.27 -0.27)">
       <use xlink:href="#DejaVuSans-32"/>
       <use xlink:href="#DejaVuSans-30" x="63.623047"/>
       <use xlink:href="#DejaVuSans-30" x="127.246094"/>
      </g>
     </g>
    </g>
    <g id="text_23">
     <!-- T/m/s -->
     <g transform="translate(556.495312 204.602969) rotate(-90) scale(0.3 -0.3)">
      <use xlink:href="#DejaVuSans-54"/>
      <use xlink:href="#DejaVuSans-2f" x="61.083984"/>
      <use xlink:href="#DejaVuSans-6d" x="94.775391"/>
      <use xlink:href="#DejaVuSans-2f" x="192.1875"/>
      <use xlink:href="#DejaVuSans-73" x="225.878906"/>
     </g>
    </g>
   </g>
   <g id="line2d_26">
    <path d="M 647.895781 162.91 
L 1052.895781 162.91 
" clip-path="url(#pd53e1b9326)" style="fill: none; stroke: #d3d3d3; stroke-opacity: 0.8; stroke-width: 1.5; stroke-linecap: square"/>
   </g>
   <g id="line2d_27">
    <path d="M 647.895781 162.91 
L 659.235781 162.91 
L 660.045781 285.788179 
L 660.855781 270.609904 
L 662.475781 202.736941 
L 663.285781 191.465282 
L 666.525781 190.93381 
L 668.955781 190.645474 
L 669.765781 178.712916 
L 670.575781 162.91 
L 675.435781 162.812797 
L 676.245781 162.729241 
L 677.055781 159.049213 
L 677.865781 103.082205 
L 678.675781 64.310336 
L 679.485781 77.817563 
L 680.295781 98.02297 
L 681.105781 100.850044 
L 681.915781 103.024816 
L 682.725781 104.797038 
L 683.535781 125.226014 
L 684.345781 134.612817 
L 685.965781 134.832588 
L 686.775781 135.44969 
L 687.585781 136.895035 
L 688.395781 135.90239 
L 689.205781 132.806863 
L 690.015781 135.113469 
L 691.635781 135.382483 
L 692.445781 135.485434 
L 694.065781 135.5223 
L 694.875781 136.776318 
L 695.685781 136.796833 
L 696.495781 137.523909 
L 697.305781 137.348202 
L 698.115781 130.996233 
L 698.925781 142.367307 
L 699.735781 129.547751 
L 700.545781 141.760539 
L 701.355781 130.260017 
L 702.165781 139.752881 
L 702.975781 152.563377 
L 703.785781 162.867358 
L 712.695781 162.909998 
L 728.085781 162.958136 
L 728.895781 197.754863 
L 729.705781 249.465676 
L 730.515781 255.460008 
L 731.325781 225.569082 
L 732.135781 222.85429 
L 732.945781 220.734245 
L 733.755781 219.047101 
L 734.565781 191.611338 
L 735.375781 190.285997 
L 736.185781 190.03917 
L 737.805781 190.410991 
L 738.615781 189.828507 
L 739.425781 189.731383 
L 740.235781 189.338751 
L 741.045781 187.947509 
L 741.855781 192.152949 
L 742.665781 182.790049 
L 743.475781 187.832863 
L 744.285781 199.593703 
L 745.905781 180.697975 
L 746.715781 196.912689 
L 747.525781 187.111884 
L 748.335781 185.748094 
L 749.145781 189.431137 
L 749.955781 192.023695 
L 750.765781 189.650521 
L 751.575781 190.455565 
L 752.385781 189.637661 
L 753.195781 189.735458 
L 754.005781 183.750196 
L 754.815781 162.910002 
L 757.245781 162.91 
L 758.865781 51.831826 
L 759.675781 104.622945 
L 760.485781 107.707757 
L 761.295781 109.954408 
L 762.105781 111.619309 
L 763.725781 114.097539 
L 764.535781 114.972746 
L 765.345781 162.91 
L 792.885781 162.91 
L 793.695781 57.97103 
L 794.505781 100.451138 
L 795.315781 105.76786 
L 796.125781 108.831988 
L 796.935781 110.832258 
L 797.745781 124.374339 
L 798.555781 134.975515 
L 801.795781 135.299356 
L 802.605781 138.060992 
L 803.415781 132.938096 
L 804.225781 142.111132 
L 805.035781 162.909999 
L 815.565781 162.975228 
L 816.375781 181.549206 
L 817.185781 230.455777 
L 817.995781 256.195922 
L 818.805781 219.927312 
L 819.615781 217.435764 
L 820.425781 215.562076 
L 821.235781 214.063239 
L 822.045781 212.911909 
L 822.855781 211.954324 
L 823.665781 203.33873 
L 824.475781 190.751412 
L 825.285781 190.663811 
L 826.095781 190.321614 
L 826.905781 189.752095 
L 827.715781 190.27246 
L 828.525781 188.832225 
L 829.335781 184.442109 
L 830.145781 188.259828 
L 830.955781 188.860988 
L 831.765781 187.918584 
L 832.575781 188.578582 
L 833.385781 201.6749 
L 834.195781 185.412987 
L 835.005781 191.006096 
L 835.815781 186.685601 
L 836.625781 189.889506 
L 837.435781 182.340887 
L 838.245781 192.845659 
L 839.055781 194.569911 
L 839.865781 191.342782 
L 840.675781 189.701416 
L 841.485781 182.35831 
L 842.295781 198.052912 
L 843.105781 168.495833 
L 843.915781 163.064799 
L 844.725781 162.910004 
L 845.535781 162.909997 
L 846.345781 144.658669 
L 847.155781 40.304089 
L 847.965781 107.159604 
L 848.775781 110.887715 
L 849.585781 113.087946 
L 851.205781 115.902655 
L 853.635781 118.241559 
L 854.445781 118.773032 
L 854.445781 118.773032 
" clip-path="url(#pd53e1b9326)" style="fill: none; stroke: #000000; stroke-width: 5; stroke-linecap: square"/>
   </g>
   <g id="line2d_28">
    <path d="M 647.895781 38.790597 
L 1052.895781 38.790597 
" clip-path="url(#pd53e1b9326)" style="fill: none; stroke-dasharray: 18.5,8; stroke-dashoffset: 0; stroke: #000000; stroke-opacity: 0.2; stroke-width: 5"/>
   </g>
   <g id="line2d_29">
    <path d="M 647.895781 287.029403 
L 1052.895781 287.029403 
" clip-path="url(#pd53e1b9326)" style="fill: none; stroke-dasharray: 18.5,8; stroke-dashoffset: 0; stroke: #000000; stroke-opacity: 0.2; stroke-width: 5"/>
   </g>
   <g id="line2d_30">
    <path d="M 647.895781 162.91 
L 1052.895781 162.91 
" clip-path="url(#pd53e1b9326)" style="fill: none; stroke: #000000; stroke-width: 5; stroke-linecap: square"/>
   </g>
   <g id="patch_7">
    <path d="M 647.895781 287.65 
L 647.895781 38.17 
" style="fill: none; stroke: #000000; stroke-width: 0.8; stroke-linejoin: miter; stroke-linecap: square"/>
   </g>
   <g id="patch_8">
    <path d="M 647.895781 287.65 
L 1052.895781 287.65 
" style="fill: none; stroke: #000000; stroke-width: 0.8; stroke-linejoin: miter; stroke-linecap: square"/>
   </g>
   <g id="text_24">
    <!-- $S(t)$ -->
    <g transform="translate(821.435781 31.515) scale(0.32 -0.32)">
     <defs>
      <path id="DejaVuSans-Oblique-53" d="M 3859 4513 
L 3738 3897 
Q 3422 4066 3111 4152 
Q 2800 4238 2509 4238 
Q 1944 4238 1609 3991 
Q 1275 3744 1275 3334 
Q 1275 3109 1398 2989 
Q 1522 2869 2034 2731 
L 2413 2638 
Q 3053 2472 3303 2217 
Q 3553 1963 3553 1503 
Q 3553 797 2998 353 
Q 2444 -91 1538 -91 
Q 1166 -91 791 -17 
Q 416 56 38 206 
L 166 856 
Q 513 641 861 531 
Q 1209 422 1556 422 
Q 2147 422 2503 684 
Q 2859 947 2859 1369 
Q 2859 1650 2717 1795 
Q 2575 1941 2106 2059 
L 1728 2156 
Q 1081 2325 845 2545 
Q 609 2766 609 3163 
Q 609 3859 1145 4304 
Q 1681 4750 2541 4750 
Q 2875 4750 3203 4690 
Q 3531 4631 3859 4513 
z
" transform="scale(0.015625)"/>
     </defs>
     <use xlink:href="#DejaVuSans-Oblique-53" transform="translate(0 0.125)"/>
     <use xlink:href="#DejaVuSans-28" transform="translate(63.476562 0.125)"/>
     <use xlink:href="#DejaVuSans-Oblique-74" transform="translate(102.490234 0.125)"/>
     <use xlink:href="#DejaVuSans-29" transform="translate(141.699219 0.125)"/>
    </g>
   </g>
  </g>
  <g id="axes_3">
   <g id="patch_9">
    <path d="M 1174.395781 287.65 
L 1579.395781 287.65 
L 1579.395781 38.17 
L 1174.395781 38.17 
z
" style="fill: #ffffff"/>
   </g>
   <g id="matplotlib.axis_5">
    <g id="xtick_9">
     <g id="line2d_31">
      <g>
       <use xlink:href="#m5d50a728ad" x="1174.395781" y="287.65" style="stroke: #000000; stroke-width: 0.8"/>
      </g>
     </g>
     <g id="text_25">
      <!-- 0 -->
      <g transform="translate(1165.806406 315.165781) scale(0.27 -0.27)">
       <use xlink:href="#DejaVuSans-30"/>
      </g>
     </g>
    </g>
    <g id="xtick_10">
     <g id="line2d_32">
      <g>
       <use xlink:href="#m5d50a728ad" x="1275.645781" y="287.65" style="stroke: #000000; stroke-width: 0.8"/>
      </g>
     </g>
     <g id="text_26">
      <!-- 25 -->
      <g transform="translate(1258.467031 315.165781) scale(0.27 -0.27)">
       <use xlink:href="#DejaVuSans-32"/>
       <use xlink:href="#DejaVuSans-35" x="63.623047"/>
      </g>
     </g>
    </g>
    <g id="xtick_11">
     <g id="line2d_33">
      <g>
       <use xlink:href="#m5d50a728ad" x="1376.895781" y="287.65" style="stroke: #000000; stroke-width: 0.8"/>
      </g>
     </g>
     <g id="text_27">
      <!-- 50 -->
      <g transform="translate(1359.717031 315.165781) scale(0.27 -0.27)">
       <use xlink:href="#DejaVuSans-35"/>
       <use xlink:href="#DejaVuSans-30" x="63.623047"/>
      </g>
     </g>
    </g>
    <g id="xtick_12">
     <g id="line2d_34">
      <g>
       <use xlink:href="#m5d50a728ad" x="1478.145781" y="287.65" style="stroke: #000000; stroke-width: 0.8"/>
      </g>
     </g>
     <g id="text_28">
      <!-- 75 -->
      <g transform="translate(1460.967031 315.165781) scale(0.27 -0.27)">
       <use xlink:href="#DejaVuSans-37"/>
       <use xlink:href="#DejaVuSans-35" x="63.623047"/>
      </g>
     </g>
    </g>
    <g id="text_29">
     <!-- Time [ms] -->
     <g transform="translate(1301.298125 347.57625) scale(0.3 -0.3)">
      <use xlink:href="#DejaVuSans-54"/>
      <use xlink:href="#DejaVuSans-69" x="57.958984"/>
      <use xlink:href="#DejaVuSans-6d" x="85.742188"/>
      <use xlink:href="#DejaVuSans-65" x="183.154297"/>
      <use xlink:href="#DejaVuSans-20" x="244.677734"/>
      <use xlink:href="#DejaVuSans-5b" x="276.464844"/>
      <use xlink:href="#DejaVuSans-6d" x="315.478516"/>
      <use xlink:href="#DejaVuSans-73" x="412.890625"/>
      <use xlink:href="#DejaVuSans-5d" x="464.990234"/>
     </g>
    </g>
   </g>
   <g id="matplotlib.axis_6">
    <g id="ytick_11">
     <g id="line2d_35">
      <g>
       <use xlink:href="#mc8f6a3f67d" x="1174.395781" y="287.65" style="stroke: #000000; stroke-width: 0.8"/>
      </g>
     </g>
     <g id="text_30">
      <!-- 0.00 -->
      <g transform="translate(1107.278594 297.907891) scale(0.27 -0.27)">
       <defs>
        <path id="DejaVuSans-2e" d="M 684 794 
L 1344 794 
L 1344 0 
L 684 0 
L 684 794 
z
" transform="scale(0.015625)"/>
       </defs>
       <use xlink:href="#DejaVuSans-30"/>
       <use xlink:href="#DejaVuSans-2e" x="63.623047"/>
       <use xlink:href="#DejaVuSans-30" x="95.410156"/>
       <use xlink:href="#DejaVuSans-30" x="159.033203"/>
      </g>
     </g>
    </g>
    <g id="ytick_12">
     <g id="line2d_36">
      <g>
       <use xlink:href="#mc8f6a3f67d" x="1174.395781" y="225.28" style="stroke: #000000; stroke-width: 0.8"/>
      </g>
     </g>
     <g id="text_31">
      <!-- 0.25 -->
      <g transform="translate(1107.278594 235.537891) scale(0.27 -0.27)">
       <use xlink:href="#DejaVuSans-30"/>
       <use xlink:href="#DejaVuSans-2e" x="63.623047"/>
       <use xlink:href="#DejaVuSans-32" x="95.410156"/>
       <use xlink:href="#DejaVuSans-35" x="159.033203"/>
      </g>
     </g>
    </g>
    <g id="ytick_13">
     <g id="line2d_37">
      <g>
       <use xlink:href="#mc8f6a3f67d" x="1174.395781" y="162.91" style="stroke: #000000; stroke-width: 0.8"/>
      </g>
     </g>
     <g id="text_32">
      <!-- 0.50 -->
      <g transform="translate(1107.278594 173.167891) scale(0.27 -0.27)">
       <use xlink:href="#DejaVuSans-30"/>
       <use xlink:href="#DejaVuSans-2e" x="63.623047"/>
       <use xlink:href="#DejaVuSans-35" x="95.410156"/>
       <use xlink:href="#DejaVuSans-30" x="159.033203"/>
      </g>
     </g>
    </g>
    <g id="ytick_14">
     <g id="line2d_38">
      <g>
       <use xlink:href="#mc8f6a3f67d" x="1174.395781" y="100.54" style="stroke: #000000; stroke-width: 0.8"/>
      </g>
     </g>
     <g id="text_33">
      <!-- 0.75 -->
      <g transform="translate(1107.278594 110.797891) scale(0.27 -0.27)">
       <use xlink:href="#DejaVuSans-30"/>
       <use xlink:href="#DejaVuSans-2e" x="63.623047"/>
       <use xlink:href="#DejaVuSans-37" x="95.410156"/>
       <use xlink:href="#DejaVuSans-35" x="159.033203"/>
      </g>
     </g>
    </g>
    <g id="ytick_15">
     <g id="line2d_39">
      <g>
       <use xlink:href="#mc8f6a3f67d" x="1174.395781" y="38.17" style="stroke: #000000; stroke-width: 0.8"/>
      </g>
     </g>
     <g id="text_34">
      <!-- 1.00 -->
      <g transform="translate(1107.278594 48.427891) scale(0.27 -0.27)">
       <use xlink:href="#DejaVuSans-31"/>
       <use xlink:href="#DejaVuSans-2e" x="63.623047"/>
       <use xlink:href="#DejaVuSans-30" x="95.410156"/>
       <use xlink:href="#DejaVuSans-30" x="159.033203"/>
      </g>
     </g>
    </g>
    <g id="text_35">
     <!-- unitless -->
     <g transform="translate(1097.039531 220.995156) rotate(-90) scale(0.3 -0.3)">
      <defs>
       <path id="DejaVuSans-75" d="M 544 1381 
L 544 3500 
L 1119 3500 
L 1119 1403 
Q 1119 906 1312 657 
Q 1506 409 1894 409 
Q 2359 409 2629 706 
Q 2900 1003 2900 1516 
L 2900 3500 
L 3475 3500 
L 3475 0 
L 2900 0 
L 2900 538 
Q 2691 219 2414 64 
Q 2138 -91 1772 -91 
Q 1169 -91 856 284 
Q 544 659 544 1381 
z
M 1991 3584 
L 1991 3584 
z
" transform="scale(0.015625)"/>
       <path id="DejaVuSans-6e" d="M 3513 2113 
L 3513 0 
L 2938 0 
L 2938 2094 
Q 2938 2591 2744 2837 
Q 2550 3084 2163 3084 
Q 1697 3084 1428 2787 
Q 1159 2491 1159 1978 
L 1159 0 
L 581 0 
L 581 3500 
L 1159 3500 
L 1159 2956 
Q 1366 3272 1645 3428 
Q 1925 3584 2291 3584 
Q 2894 3584 3203 3211 
Q 3513 2838 3513 2113 
z
" transform="scale(0.015625)"/>
       <path id="DejaVuSans-74" d="M 1172 4494 
L 1172 3500 
L 2356 3500 
L 2356 3053 
L 1172 3053 
L 1172 1153 
Q 1172 725 1289 603 
Q 1406 481 1766 481 
L 2356 481 
L 2356 0 
L 1766 0 
Q 1100 0 847 248 
Q 594 497 594 1153 
L 594 3053 
L 172 3053 
L 172 3500 
L 594 3500 
L 594 4494 
L 1172 4494 
z
" transform="scale(0.015625)"/>
       <path id="DejaVuSans-6c" d="M 603 4863 
L 1178 4863 
L 1178 0 
L 603 0 
L 603 4863 
z
" transform="scale(0.015625)"/>
      </defs>
      <use xlink:href="#DejaVuSans-75"/>
      <use xlink:href="#DejaVuSans-6e" x="63.378906"/>
      <use xlink:href="#DejaVuSans-69" x="126.757812"/>
      <use xlink:href="#DejaVuSans-74" x="154.541016"/>
      <use xlink:href="#DejaVuSans-6c" x="193.75"/>
      <use xlink:href="#DejaVuSans-65" x="221.533203"/>
      <use xlink:href="#DejaVuSans-73" x="283.056641"/>
      <use xlink:href="#DejaVuSans-73" x="335.15625"/>
     </g>
    </g>
   </g>
   <g id="line2d_40">
    <path d="M 1174.395781 287.65 
L 1579.395781 287.65 
" clip-path="url(#pf32549a91d)" style="fill: none; stroke: #d3d3d3; stroke-opacity: 0.8; stroke-width: 1.5; stroke-linecap: square"/>
   </g>
   <g id="line2d_41">
    <path d="M 1174.395781 287.65 
L 1186.545781 287.65 
L 1187.355781 146.721386 
L 1188.165781 82.450851 
L 1188.975781 82.368509 
L 1190.595781 144.888544 
L 1191.405781 160.193629 
L 1192.215781 168.433149 
L 1193.025781 172.986069 
L 1193.835781 175.556984 
L 1194.645781 177.018036 
L 1195.455781 177.825082 
L 1196.265781 178.233594 
L 1197.075781 191.966057 
L 1197.885781 217.836486 
L 1198.695781 232.909901 
L 1199.505781 242.262337 
L 1200.315781 248.439483 
L 1201.125781 252.768566 
L 1201.935781 255.966051 
L 1202.745781 258.479249 
L 1203.555781 260.378982 
L 1204.365781 259.414996 
L 1205.175781 199.385574 
L 1205.985781 115.7417 
L 1206.795781 81.116259 
L 1210.035781 80.887731 
L 1211.655781 124.62749 
L 1212.465781 136.888427 
L 1213.275781 143.958921 
L 1214.895781 153.513787 
L 1215.705781 155.21826 
L 1216.515781 152.804573 
L 1217.325781 154.140262 
L 1218.135781 155.060735 
L 1218.945781 155.653878 
L 1219.755781 156.042781 
L 1221.375781 156.189675 
L 1222.185781 157.524351 
L 1222.995781 158.192716 
L 1223.805781 159.308604 
L 1224.615781 159.653031 
L 1225.425781 152.482432 
L 1226.235781 161.278951 
L 1227.045781 151.411398 
L 1227.855781 159.669063 
L 1228.665781 150.987087 
L 1229.475781 156.790091 
L 1230.285781 174.57895 
L 1231.095781 196.607435 
L 1231.905781 209.69699 
L 1232.715781 218.011437 
L 1233.525781 223.675627 
L 1234.335781 227.798093 
L 1235.145781 230.9704 
L 1235.955781 233.52594 
L 1236.765781 235.659238 
L 1238.385781 239.046509 
L 1240.005781 241.679296 
L 1241.625781 243.839514 
L 1243.245781 245.687992 
L 1245.675781 248.0815 
L 1248.105781 250.161925 
L 1251.345781 252.655103 
L 1255.395781 255.421094 
L 1256.205781 216.031052 
L 1257.015781 134.104802 
L 1257.825781 79.037563 
L 1261.065781 78.950795 
L 1261.875781 108.855226 
L 1262.685781 126.423407 
L 1263.495781 136.497014 
L 1264.305781 142.080096 
L 1265.115781 145.319254 
L 1265.925781 148.043227 
L 1267.545781 151.511519 
L 1268.355781 154.13266 
L 1269.165781 150.880427 
L 1269.975781 159.791271 
L 1270.785781 159.103125 
L 1271.595781 145.331534 
L 1272.405781 148.547035 
L 1273.215781 160.612711 
L 1274.025781 148.812344 
L 1275.645781 157.258876 
L 1276.455781 155.229307 
L 1277.265781 151.073249 
L 1278.075781 151.311768 
L 1278.885781 150.352049 
L 1279.695781 150.583227 
L 1280.505781 150.445518 
L 1281.315781 157.091289 
L 1282.125781 184.713346 
L 1282.935781 200.753301 
L 1283.745781 210.68928 
L 1284.555781 217.297439 
L 1285.365781 181.191312 
L 1286.175781 78.94026 
L 1286.985781 78.69873 
L 1288.605781 78.572636 
L 1290.225781 78.290875 
L 1291.845781 78.271924 
L 1292.655781 132.417932 
L 1293.465781 163.10574 
L 1294.275781 181.542573 
L 1295.085781 193.385084 
L 1295.895781 201.529262 
L 1296.705781 207.489663 
L 1297.515781 212.08295 
L 1298.325781 215.767995 
L 1299.135781 218.816179 
L 1300.755781 223.624776 
L 1302.375781 227.311388 
L 1303.995781 230.290673 
L 1305.615781 232.80452 
L 1308.045781 236.014295 
L 1310.475781 238.797088 
L 1313.715781 242.097187 
L 1316.955781 245.083095 
L 1320.195781 247.835759 
L 1321.005781 128.138446 
L 1321.815781 107.749958 
L 1322.625781 99.52525 
L 1323.435781 95.890422 
L 1324.245781 94.043773 
L 1325.055781 106.823282 
L 1325.865781 125.003732 
L 1326.675781 134.816753 
L 1327.485781 140.350254 
L 1328.295781 143.522709 
L 1329.105781 145.498871 
L 1329.915781 149.851782 
L 1330.725781 146.527537 
L 1331.535781 155.199513 
L 1332.345781 184.024031 
L 1333.155781 200.849818 
L 1333.965781 211.323766 
L 1334.775781 218.313741 
L 1335.585781 223.301777 
L 1336.395781 227.073601 
L 1337.205781 230.06089 
L 1338.015781 232.512074 
L 1338.825781 234.608192 
L 1340.445781 237.904072 
L 1342.065781 240.49842 
L 1342.875781 241.616609 
L 1343.685781 223.739136 
L 1345.305781 86.576012 
L 1347.735781 86.039894 
L 1350.165781 85.627327 
L 1350.975781 94.490312 
L 1351.785781 113.263631 
L 1352.595781 123.759702 
L 1353.405781 130.22112 
L 1354.215781 134.782124 
L 1355.025781 137.042467 
L 1355.835781 140.220561 
L 1356.645781 147.269514 
L 1357.455781 147.141096 
L 1358.265781 146.630391 
L 1359.075781 147.577071 
L 1359.885781 147.455824 
L 1360.695781 132.431518 
L 1361.505781 142.402599 
L 1362.315781 141.425092 
L 1363.125781 145.760114 
L 1363.935781 144.515301 
L 1364.745781 152.469006 
L 1365.555781 144.999165 
L 1366.365781 138.83509 
L 1367.175781 138.888951 
L 1367.985781 140.590961 
L 1368.795781 149.824001 
L 1369.605781 137.065137 
L 1370.415781 163.682552 
L 1371.225781 185.119796 
L 1372.035781 198.152317 
L 1372.845781 206.521336 
L 1373.655781 203.887781 
L 1374.465781 84.548239 
L 1375.275781 83.008128 
L 1376.895781 82.94789 
L 1377.705781 82.575634 
L 1378.515781 82.450906 
L 1379.325781 82.112275 
L 1380.135781 81.92272 
L 1381.755781 81.784752 
L 1381.755781 81.784752 
" clip-path="url(#pf32549a91d)" style="fill: none; stroke: #000000; stroke-width: 5; stroke-linecap: square"/>
   </g>
   <g id="line2d_42">
    <path d="M 1174.395781 287.65 
L 1579.395781 287.65 
" clip-path="url(#pf32549a91d)" style="fill: none; stroke: #000000; stroke-width: 5; stroke-linecap: square"/>
   </g>
   <g id="line2d_43">
    <path d="M 1174.395781 83.297043 
L 1176.015781 82.548383 
L 1177.635781 82.019761 
L 1180.065781 81.463618 
L 1184.115781 80.841765 
L 1190.595781 80.135201 
L 1201.125781 79.243187 
L 1213.275781 78.435558 
L 1227.855781 77.698816 
L 1244.865781 77.076865 
L 1265.115781 76.571053 
L 1290.225781 76.176136 
L 1292.655781 76.147659 
L 1293.465781 134.403285 
L 1294.275781 168.266994 
L 1295.085781 121.584289 
L 1295.895781 137.02519 
L 1296.705781 107.003803 
L 1297.515781 95.228936 
L 1298.325781 90.285515 
L 1299.135781 87.96255 
L 1299.945781 86.692814 
L 1300.755781 85.882345 
L 1302.375781 84.84149 
L 1303.995781 84.152511 
L 1306.425781 83.431201 
L 1309.665781 82.75562 
L 1314.525781 81.998475 
L 1316.955781 81.674196 
L 1317.765781 88.506125 
L 1318.575781 180.873551 
L 1319.385781 104.397988 
L 1320.195781 140.909863 
L 1321.005781 126.527218 
L 1321.815781 105.932786 
L 1322.625781 97.625001 
L 1323.435781 93.953456 
L 1324.245781 92.088155 
L 1325.055781 90.969813 
L 1325.865781 90.192346 
L 1327.485781 89.100173 
L 1329.105781 88.312347 
L 1331.535781 87.418527 
L 1334.775781 86.502648 
L 1339.635781 85.396509 
L 1346.115781 84.156423 
L 1354.215781 82.839766 
L 1363.125781 81.625959 
L 1372.845781 80.532587 
L 1381.755781 79.705305 
L 1381.755781 79.705305 
" clip-path="url(#pf32549a91d)" style="fill: none; stroke-dasharray: 22.2,9.6; stroke-dashoffset: 0; stroke: #ff0000; stroke-width: 6"/>
   </g>
   <g id="line2d_44">
    <path d="M 1174.395781 113.014 
L 1579.395781 113.014 
" clip-path="url(#pf32549a91d)" style="fill: none; stroke-dasharray: 5,8.25; stroke-dashoffset: 0; stroke: #ff0000; stroke-opacity: 0.5; stroke-width: 5"/>
   </g>
   <g id="patch_10">
    <path d="M 1174.395781 287.65 
L 1174.395781 38.17 
" style="fill: none; stroke: #000000; stroke-width: 0.8; stroke-linejoin: miter; stroke-linecap: square"/>
   </g>
   <g id="patch_11">
    <path d="M 1174.395781 287.65 
L 1579.395781 287.65 
" style="fill: none; stroke: #000000; stroke-width: 0.8; stroke-linejoin: miter; stroke-linecap: square"/>
   </g>
   <g id="text_36">
    <!-- SAFE-PNS -->
    <g transform="translate(1298.633281 31.515) scale(0.32 -0.32)">
     <defs>
      <path id="DejaVuSans-53" d="M 3425 4513 
L 3425 3897 
Q 3066 4069 2747 4153 
Q 2428 4238 2131 4238 
Q 1616 4238 1336 4038 
Q 1056 3838 1056 3469 
Q 1056 3159 1242 3001 
Q 1428 2844 1947 2747 
L 2328 2669 
Q 3034 2534 3370 2195 
Q 3706 1856 3706 1288 
Q 3706 609 3251 259 
Q 2797 -91 1919 -91 
Q 1588 -91 1214 -16 
Q 841 59 441 206 
L 441 856 
Q 825 641 1194 531 
Q 1563 422 1919 422 
Q 2459 422 2753 634 
Q 3047 847 3047 1241 
Q 3047 1584 2836 1778 
Q 2625 1972 2144 2069 
L 1759 2144 
Q 1053 2284 737 2584 
Q 422 2884 422 3419 
Q 422 4038 858 4394 
Q 1294 4750 2059 4750 
Q 2388 4750 2728 4690 
Q 3069 4631 3425 4513 
z
" transform="scale(0.015625)"/>
      <path id="DejaVuSans-41" d="M 2188 4044 
L 1331 1722 
L 3047 1722 
L 2188 4044 
z
M 1831 4666 
L 2547 4666 
L 4325 0 
L 3669 0 
L 3244 1197 
L 1141 1197 
L 716 0 
L 50 0 
L 1831 4666 
z
" transform="scale(0.015625)"/>
      <path id="DejaVuSans-46" d="M 628 4666 
L 3309 4666 
L 3309 4134 
L 1259 4134 
L 1259 2759 
L 3109 2759 
L 3109 2228 
L 1259 2228 
L 1259 0 
L 628 0 
L 628 4666 
z
" transform="scale(0.015625)"/>
      <path id="DejaVuSans-45" d="M 628 4666 
L 3578 4666 
L 3578 4134 
L 1259 4134 
L 1259 2753 
L 3481 2753 
L 3481 2222 
L 1259 2222 
L 1259 531 
L 3634 531 
L 3634 0 
L 628 0 
L 628 4666 
z
" transform="scale(0.015625)"/>
      <path id="DejaVuSans-2d" d="M 313 2009 
L 1997 2009 
L 1997 1497 
L 313 1497 
L 313 2009 
z
" transform="scale(0.015625)"/>
      <path id="DejaVuSans-50" d="M 1259 4147 
L 1259 2394 
L 2053 2394 
Q 2494 2394 2734 2622 
Q 2975 2850 2975 3272 
Q 2975 3691 2734 3919 
Q 2494 4147 2053 4147 
L 1259 4147 
z
M 628 4666 
L 2053 4666 
Q 2838 4666 3239 4311 
Q 3641 3956 3641 3272 
Q 3641 2581 3239 2228 
Q 2838 1875 2053 1875 
L 1259 1875 
L 1259 0 
L 628 0 
L 628 4666 
z
" transform="scale(0.015625)"/>
      <path id="DejaVuSans-4e" d="M 628 4666 
L 1478 4666 
L 3547 763 
L 3547 4666 
L 4159 4666 
L 4159 0 
L 3309 0 
L 1241 3903 
L 1241 0 
L 628 0 
L 628 4666 
z
" transform="scale(0.015625)"/>
     </defs>
     <use xlink:href="#DejaVuSans-53"/>
     <use xlink:href="#DejaVuSans-41" x="65.351562"/>
     <use xlink:href="#DejaVuSans-46" x="133.759766"/>
     <use xlink:href="#DejaVuSans-45" x="191.279297"/>
     <use xlink:href="#DejaVuSans-2d" x="254.462891"/>
     <use xlink:href="#DejaVuSans-50" x="290.546875"/>
     <use xlink:href="#DejaVuSans-4e" x="350.849609"/>
     <use xlink:href="#DejaVuSans-53" x="425.654297"/>
    </g>
   </g>
   <g id="legend_2">
    <g id="patch_12">
     <path d="M 1430.758281 276.65 
L 1563.995781 276.65 
Q 1568.395781 276.65 1568.395781 272.25 
L 1568.395781 242.158125 
Q 1568.395781 237.758125 1563.995781 237.758125 
L 1430.758281 237.758125 
Q 1426.358281 237.758125 1426.358281 242.158125 
L 1426.358281 272.25 
Q 1426.358281 276.65 1430.758281 276.65 
z
" style="fill: #ffffff; opacity: 0.2; stroke: #cccccc; stroke-linejoin: miter"/>
    </g>
    <g id="line2d_45">
     <path d="M 1435.158281 255.574688 
L 1457.158281 255.574688 
L 1479.158281 255.574688 
" style="fill: none; stroke: #000000; stroke-width: 5; stroke-linecap: square"/>
    </g>
    <g id="text_37">
     <!-- Y-axis -->
     <g transform="translate(1496.758281 263.274688) scale(0.22 -0.22)">
      <defs>
       <path id="DejaVuSans-59" d="M -13 4666 
L 666 4666 
L 1959 2747 
L 3244 4666 
L 3922 4666 
L 2272 2222 
L 2272 0 
L 1638 0 
L 1638 2222 
L -13 4666 
z
" transform="scale(0.015625)"/>
       <path id="DejaVuSans-61" d="M 2194 1759 
Q 1497 1759 1228 1600 
Q 959 1441 959 1056 
Q 959 750 1161 570 
Q 1363 391 1709 391 
Q 2188 391 2477 730 
Q 2766 1069 2766 1631 
L 2766 1759 
L 2194 1759 
z
M 3341 1997 
L 3341 0 
L 2766 0 
L 2766 531 
Q 2569 213 2275 61 
Q 1981 -91 1556 -91 
Q 1019 -91 701 211 
Q 384 513 384 1019 
Q 384 1609 779 1909 
Q 1175 2209 1959 2209 
L 2766 2209 
L 2766 2266 
Q 2766 2663 2505 2880 
Q 2244 3097 1772 3097 
Q 1472 3097 1187 3025 
Q 903 2953 641 2809 
L 641 3341 
Q 956 3463 1253 3523 
Q 1550 3584 1831 3584 
Q 2591 3584 2966 3190 
Q 3341 2797 3341 1997 
z
" transform="scale(0.015625)"/>
       <path id="DejaVuSans-78" d="M 3513 3500 
L 2247 1797 
L 3578 0 
L 2900 0 
L 1881 1375 
L 863 0 
L 184 0 
L 1544 1831 
L 300 3500 
L 978 3500 
L 1906 2253 
L 2834 3500 
L 3513 3500 
z
" transform="scale(0.015625)"/>
      </defs>
      <use xlink:href="#DejaVuSans-59"/>
      <use xlink:href="#DejaVuSans-2d" x="49.208984"/>
      <use xlink:href="#DejaVuSans-61" x="85.292969"/>
      <use xlink:href="#DejaVuSans-78" x="146.572266"/>
      <use xlink:href="#DejaVuSans-69" x="205.751953"/>
      <use xlink:href="#DejaVuSans-73" x="233.535156"/>
     </g>
    </g>
   </g>
  </g>
  <g id="axes_4">
   <g id="patch_13">
    <path d="M 1700.895781 287.65 
L 2105.895781 287.65 
L 2105.895781 38.17 
L 1700.895781 38.17 
z
" style="fill: #ffffff"/>
   </g>
   <g id="matplotlib.axis_7">
    <g id="xtick_13">
     <g id="line2d_46">
      <g>
       <use xlink:href="#m5d50a728ad" x="1700.895781" y="287.65" style="stroke: #000000; stroke-width: 0.8"/>
      </g>
     </g>
     <g id="text_38">
      <!-- 0 -->
      <g transform="translate(1692.306406 315.165781) scale(0.27 -0.27)">
       <use xlink:href="#DejaVuSans-30"/>
      </g>
     </g>
    </g>
    <g id="xtick_14">
     <g id="line2d_47">
      <g>
       <use xlink:href="#m5d50a728ad" x="1802.145781" y="287.65" style="stroke: #000000; stroke-width: 0.8"/>
      </g>
     </g>
     <g id="text_39">
      <!-- 25 -->
      <g transform="translate(1784.967031 315.165781) scale(0.27 -0.27)">
       <use xlink:href="#DejaVuSans-32"/>
       <use xlink:href="#DejaVuSans-35" x="63.623047"/>
      </g>
     </g>
    </g>
    <g id="xtick_15">
     <g id="line2d_48">
      <g>
       <use xlink:href="#m5d50a728ad" x="1903.395781" y="287.65" style="stroke: #000000; stroke-width: 0.8"/>
      </g>
     </g>
     <g id="text_40">
      <!-- 50 -->
      <g transform="translate(1886.217031 315.165781) scale(0.27 -0.27)">
       <use xlink:href="#DejaVuSans-35"/>
       <use xlink:href="#DejaVuSans-30" x="63.623047"/>
      </g>
     </g>
    </g>
    <g id="xtick_16">
     <g id="line2d_49">
      <g>
       <use xlink:href="#m5d50a728ad" x="2004.645781" y="287.65" style="stroke: #000000; stroke-width: 0.8"/>
      </g>
     </g>
     <g id="text_41">
      <!-- 75 -->
      <g transform="translate(1987.467031 315.165781) scale(0.27 -0.27)">
       <use xlink:href="#DejaVuSans-37"/>
       <use xlink:href="#DejaVuSans-35" x="63.623047"/>
      </g>
     </g>
    </g>
    <g id="text_42">
     <!-- Time [ms] -->
     <g transform="translate(1827.798125 347.57625) scale(0.3 -0.3)">
      <use xlink:href="#DejaVuSans-54"/>
      <use xlink:href="#DejaVuSans-69" x="57.958984"/>
      <use xlink:href="#DejaVuSans-6d" x="85.742188"/>
      <use xlink:href="#DejaVuSans-65" x="183.154297"/>
      <use xlink:href="#DejaVuSans-20" x="244.677734"/>
      <use xlink:href="#DejaVuSans-5b" x="276.464844"/>
      <use xlink:href="#DejaVuSans-6d" x="315.478516"/>
      <use xlink:href="#DejaVuSans-73" x="412.890625"/>
      <use xlink:href="#DejaVuSans-5d" x="464.990234"/>
     </g>
    </g>
   </g>
   <g id="matplotlib.axis_8">
    <g id="ytick_16">
     <g id="line2d_50">
      <g>
       <use xlink:href="#mc8f6a3f67d" x="1700.895781" y="287.65" style="stroke: #000000; stroke-width: 0.8"/>
      </g>
     </g>
     <g id="text_43">
      <!-- 0.00 -->
      <g transform="translate(1633.778594 297.907891) scale(0.27 -0.27)">
       <use xlink:href="#DejaVuSans-30"/>
       <use xlink:href="#DejaVuSans-2e" x="63.623047"/>
       <use xlink:href="#DejaVuSans-30" x="95.410156"/>
       <use xlink:href="#DejaVuSans-30" x="159.033203"/>
      </g>
     </g>
    </g>
    <g id="ytick_17">
     <g id="line2d_51">
      <g>
       <use xlink:href="#mc8f6a3f67d" x="1700.895781" y="225.28" style="stroke: #000000; stroke-width: 0.8"/>
      </g>
     </g>
     <g id="text_44">
      <!-- 0.25 -->
      <g transform="translate(1633.778594 235.537891) scale(0.27 -0.27)">
       <use xlink:href="#DejaVuSans-30"/>
       <use xlink:href="#DejaVuSans-2e" x="63.623047"/>
       <use xlink:href="#DejaVuSans-32" x="95.410156"/>
       <use xlink:href="#DejaVuSans-35" x="159.033203"/>
      </g>
     </g>
    </g>
    <g id="ytick_18">
     <g id="line2d_52">
      <g>
       <use xlink:href="#mc8f6a3f67d" x="1700.895781" y="162.91" style="stroke: #000000; stroke-width: 0.8"/>
      </g>
     </g>
     <g id="text_45">
      <!-- 0.50 -->
      <g transform="translate(1633.778594 173.167891) scale(0.27 -0.27)">
       <use xlink:href="#DejaVuSans-30"/>
       <use xlink:href="#DejaVuSans-2e" x="63.623047"/>
       <use xlink:href="#DejaVuSans-35" x="95.410156"/>
       <use xlink:href="#DejaVuSans-30" x="159.033203"/>
      </g>
     </g>
    </g>
    <g id="ytick_19">
     <g id="line2d_53">
      <g>
       <use xlink:href="#mc8f6a3f67d" x="1700.895781" y="100.54" style="stroke: #000000; stroke-width: 0.8"/>
      </g>
     </g>
     <g id="text_46">
      <!-- 0.75 -->
      <g transform="translate(1633.778594 110.797891) scale(0.27 -0.27)">
       <use xlink:href="#DejaVuSans-30"/>
       <use xlink:href="#DejaVuSans-2e" x="63.623047"/>
       <use xlink:href="#DejaVuSans-37" x="95.410156"/>
       <use xlink:href="#DejaVuSans-35" x="159.033203"/>
      </g>
     </g>
    </g>
    <g id="ytick_20">
     <g id="line2d_54">
      <g>
       <use xlink:href="#mc8f6a3f67d" x="1700.895781" y="38.17" style="stroke: #000000; stroke-width: 0.8"/>
      </g>
     </g>
     <g id="text_47">
      <!-- 1.00 -->
      <g transform="translate(1633.778594 48.427891) scale(0.27 -0.27)">
       <use xlink:href="#DejaVuSans-31"/>
       <use xlink:href="#DejaVuSans-2e" x="63.623047"/>
       <use xlink:href="#DejaVuSans-30" x="95.410156"/>
       <use xlink:href="#DejaVuSans-30" x="159.033203"/>
      </g>
     </g>
    </g>
    <g id="text_48">
     <!-- unitless -->
     <g transform="translate(1623.539531 220.995156) rotate(-90) scale(0.3 -0.3)">
      <use xlink:href="#DejaVuSans-75"/>
      <use xlink:href="#DejaVuSans-6e" x="63.378906"/>
      <use xlink:href="#DejaVuSans-69" x="126.757812"/>
      <use xlink:href="#DejaVuSans-74" x="154.541016"/>
      <use xlink:href="#DejaVuSans-6c" x="193.75"/>
      <use xlink:href="#DejaVuSans-65" x="221.533203"/>
      <use xlink:href="#DejaVuSans-73" x="283.056641"/>
      <use xlink:href="#DejaVuSans-73" x="335.15625"/>
     </g>
    </g>
   </g>
   <g id="line2d_55">
    <path d="M 1700.895781 287.65 
L 2105.895781 287.65 
" clip-path="url(#p177cd1d5e4)" style="fill: none; stroke: #d3d3d3; stroke-opacity: 0.8; stroke-width: 1.5; stroke-linecap: square"/>
   </g>
   <g id="line2d_56">
    <path d="M 1700.895781 287.65 
L 1713.045781 287.65 
L 1713.855781 212.224051 
L 1714.665781 152.205606 
L 1715.475781 118.645603 
L 1716.285781 107.809293 
L 1717.905781 101.985993 
L 1719.525781 97.297843 
L 1721.145781 93.52239 
L 1722.765781 90.486151 
L 1723.575781 96.477239 
L 1725.195781 125.624265 
L 1726.815781 150.234659 
L 1728.435781 171.027424 
L 1730.055781 188.646888 
L 1730.865781 197.206119 
L 1732.485781 235.078052 
L 1733.295781 187.975456 
L 1734.915781 130.150907 
L 1736.535781 86.198563 
L 1737.345781 79.786671 
L 1739.775781 79.228274 
L 1740.585781 79.382407 
L 1741.395781 80.357574 
L 1742.205781 80.595869 
L 1743.015781 78.870592 
L 1744.635781 78.532607 
L 1747.875781 78.248053 
L 1749.495781 79.552236 
L 1750.305781 80.549884 
L 1751.115781 81.342055 
L 1751.925781 78.155912 
L 1752.735781 82.193121 
L 1753.545781 78.022211 
L 1754.355781 81.673434 
L 1755.165781 77.959548 
L 1755.975781 80.363242 
L 1756.785781 90.427149 
L 1758.405781 120.309738 
L 1760.025781 145.569498 
L 1761.645781 166.930271 
L 1763.265781 185.019718 
L 1764.885781 200.344873 
L 1766.505781 213.333321 
L 1768.125781 224.349817 
L 1769.745781 233.700727 
L 1771.365781 241.643613 
L 1772.985781 248.396456 
L 1774.605781 254.147502 
L 1776.225781 259.045796 
L 1777.845781 263.22341 
L 1779.465781 266.789649 
L 1781.085781 269.832938 
L 1781.895781 271.181386 
L 1782.705781 277.761176 
L 1784.325781 173.93588 
L 1785.945781 119.606832 
L 1787.565781 78.634218 
L 1788.375781 77.878645 
L 1789.185781 77.96156 
L 1789.995781 78.156368 
L 1790.805781 78.161454 
L 1791.615781 78.054793 
L 1793.235781 78.542541 
L 1794.045781 78.995677 
L 1794.855781 80.247694 
L 1795.665781 78.800448 
L 1796.475781 83.202262 
L 1797.285781 84.139308 
L 1798.095781 77.76971 
L 1798.905781 77.874547 
L 1799.715781 83.588136 
L 1800.525781 78.877527 
L 1801.335781 80.555418 
L 1802.145781 82.926938 
L 1802.955781 82.839221 
L 1803.765781 81.16128 
L 1804.575781 81.070148 
L 1805.385781 80.487002 
L 1807.005781 80.348142 
L 1807.815781 83.926008 
L 1809.435781 114.780107 
L 1811.055781 140.853782 
L 1811.865781 164.257252 
L 1812.675781 197.983793 
L 1813.485781 218.554881 
L 1816.725781 132.81049 
L 1818.345781 101.320473 
L 1819.965781 131.309548 
L 1821.585781 156.346441 
L 1823.205781 177.269337 
L 1824.825781 194.771316 
L 1826.445781 209.425977 
L 1828.065781 221.708456 
L 1829.685781 232.012684 
L 1831.305781 240.665567 
L 1832.925781 247.938646 
L 1834.545781 254.057681 
L 1836.165781 259.210555 
L 1837.785781 263.553776 
L 1839.405781 267.217843 
L 1841.025781 270.311676 
L 1842.645781 272.926269 
L 1844.265781 275.13772 
L 1845.885781 277.009728 
L 1846.695781 277.835474 
L 1847.505781 214.181288 
L 1848.315781 181.743807 
L 1849.125781 155.178852 
L 1850.745781 113.100866 
L 1851.555781 103.445165 
L 1853.175781 98.890745 
L 1854.795781 95.162116 
L 1855.605781 93.558527 
L 1856.415781 93.763089 
L 1857.225781 90.791264 
L 1858.035781 93.676199 
L 1859.655781 123.232214 
L 1861.275781 148.17806 
L 1862.895781 169.251163 
L 1864.515781 187.067912 
L 1866.135781 202.160059 
L 1867.755781 214.943786 
L 1869.375781 225.786453 
L 1870.185781 234.536868 
L 1870.995781 253.164692 
L 1871.805781 213.077182 
L 1873.425781 159.952595 
L 1875.045781 119.360402 
L 1876.665781 87.625048 
L 1877.475781 79.140835 
L 1879.095781 78.905922 
L 1879.905781 78.97025 
L 1880.715781 79.338414 
L 1881.525781 79.320568 
L 1882.335781 80.154761 
L 1883.145781 83.585937 
L 1883.955781 84.369108 
L 1884.765781 84.695622 
L 1885.575781 85.552189 
L 1886.385781 85.914469 
L 1887.195781 78.190592 
L 1888.005781 81.056094 
L 1888.815781 80.24077 
L 1889.625781 82.129073 
L 1890.435781 81.885149 
L 1891.245781 86.282894 
L 1892.055781 83.866837 
L 1892.865781 80.578664 
L 1893.675781 79.528455 
L 1894.485781 79.562287 
L 1895.295781 84.093067 
L 1896.105781 78.617204 
L 1896.915781 91.720892 
L 1898.535781 121.317846 
L 1899.345781 134.392901 
L 1900.155781 150.307468 
L 1900.965781 187.340244 
L 1901.775781 208.062438 
L 1902.585781 213.237101 
L 1904.205781 169.200151 
L 1905.825781 134.47215 
L 1907.445781 106.588219 
L 1908.255781 94.706245 
L 1908.255781 94.706245 
" clip-path="url(#p177cd1d5e4)" style="fill: none; stroke: #000000; stroke-width: 5; stroke-linecap: square"/>
   </g>
   <g id="line2d_57">
    <path d="M 1700.895781 287.65 
L 2105.895781 287.65 
" clip-path="url(#p177cd1d5e4)" style="fill: none; stroke: #000000; stroke-width: 5; stroke-linecap: square"/>
   </g>
   <g id="line2d_58">
    <path d="M 1700.895781 89.163172 
L 1702.515781 86.940244 
L 1704.135781 85.091609 
L 1705.755781 83.552485 
L 1707.375781 82.269599 
L 1708.995781 81.199093 
L 1711.425781 79.91423 
L 1713.855781 78.930841 
L 1716.285781 78.176399 
L 1719.525781 77.434183 
L 1723.575781 76.803916 
L 1728.435781 76.329548 
L 1734.105781 76.008142 
L 1742.205781 75.777762 
L 1755.975781 75.640205 
L 1790.805781 75.593698 
L 1819.155781 75.592114 
L 1820.775781 129.048736 
L 1821.585781 116.704533 
L 1822.395781 113.989 
L 1824.015781 106.624094 
L 1825.635781 100.685067 
L 1827.255781 95.893912 
L 1828.875781 92.027111 
L 1830.495781 88.904914 
L 1832.115781 86.382732 
L 1833.735781 84.344229 
L 1835.355781 82.695779 
L 1836.975781 81.362005 
L 1838.595781 80.282208 
L 1840.215781 79.40749 
L 1842.645781 78.395872 
L 1843.455781 78.123314 
L 1844.265781 79.000064 
L 1845.075781 123.074286 
L 1845.885781 125.253672 
L 1846.695781 110.549611 
L 1847.505781 113.4632 
L 1849.125781 106.219072 
L 1850.745781 100.374501 
L 1852.365781 95.657041 
L 1853.985781 91.847584 
L 1855.605781 88.769872 
L 1857.225781 86.28208 
L 1858.845781 84.270057 
L 1860.465781 82.641902 
L 1862.085781 81.323599 
L 1863.705781 80.255519 
L 1865.325781 79.389609 
L 1867.755781 78.387151 
L 1870.185781 77.653479 
L 1873.425781 76.97021 
L 1876.665781 76.517081 
L 1881.525781 76.104736 
L 1888.005781 75.829081 
L 1897.725781 75.669153 
L 1908.255781 75.615942 
L 1908.255781 75.615942 
" clip-path="url(#p177cd1d5e4)" style="fill: none; stroke-dasharray: 22.2,9.6; stroke-dashoffset: 0; stroke: #800080; stroke-width: 6"/>
   </g>
   <g id="line2d_59">
    <path clip-path="url(#p177cd1d5e4)" style="fill: none; stroke-dasharray: 11.1,4.8; stroke-dashoffset: 0; stroke: #800080; stroke-width: 3"/>
   </g>
   <g id="line2d_60">
    <path d="M 1700.895781 113.014 
L 2105.895781 113.014 
" clip-path="url(#p177cd1d5e4)" style="fill: none; stroke-dasharray: 5,8.25; stroke-dashoffset: 0; stroke: #800080; stroke-opacity: 0.5; stroke-width: 5"/>
   </g>
   <g id="patch_14">
    <path d="M 1700.895781 287.65 
L 1700.895781 38.17 
" style="fill: none; stroke: #000000; stroke-width: 0.8; stroke-linejoin: miter; stroke-linecap: square"/>
   </g>
   <g id="patch_15">
    <path d="M 1700.895781 287.65 
L 2105.895781 287.65 
" style="fill: none; stroke: #000000; stroke-width: 0.8; stroke-linejoin: miter; stroke-linecap: square"/>
   </g>
   <g id="text_49">
    <!-- SAFE-CNS -->
    <g transform="translate(1823.608281 31.515) scale(0.32 -0.32)">
     <defs>
      <path id="DejaVuSans-43" d="M 4122 4306 
L 4122 3641 
Q 3803 3938 3442 4084 
Q 3081 4231 2675 4231 
Q 1875 4231 1450 3742 
Q 1025 3253 1025 2328 
Q 1025 1406 1450 917 
Q 1875 428 2675 428 
Q 3081 428 3442 575 
Q 3803 722 4122 1019 
L 4122 359 
Q 3791 134 3420 21 
Q 3050 -91 2638 -91 
Q 1578 -91 968 557 
Q 359 1206 359 2328 
Q 359 3453 968 4101 
Q 1578 4750 2638 4750 
Q 3056 4750 3426 4639 
Q 3797 4528 4122 4306 
z
" transform="scale(0.015625)"/>
     </defs>
     <use xlink:href="#DejaVuSans-53"/>
     <use xlink:href="#DejaVuSans-41" x="65.351562"/>
     <use xlink:href="#DejaVuSans-46" x="133.759766"/>
     <use xlink:href="#DejaVuSans-45" x="191.279297"/>
     <use xlink:href="#DejaVuSans-2d" x="254.462891"/>
     <use xlink:href="#DejaVuSans-43" x="290.546875"/>
     <use xlink:href="#DejaVuSans-4e" x="360.371094"/>
     <use xlink:href="#DejaVuSans-53" x="435.175781"/>
    </g>
   </g>
   <g id="legend_3">
    <g id="patch_16">
     <path d="M 1957.258281 276.65 
L 2090.495781 276.65 
Q 2094.895781 276.65 2094.895781 272.25 
L 2094.895781 242.158125 
Q 2094.895781 237.758125 2090.495781 237.758125 
L 1957.258281 237.758125 
Q 1952.858281 237.758125 1952.858281 242.158125 
L 1952.858281 272.25 
Q 1952.858281 276.65 1957.258281 276.65 
z
" style="fill: #ffffff; opacity: 0.2; stroke: #cccccc; stroke-linejoin: miter"/>
    </g>
    <g id="line2d_61">
     <path d="M 1961.658281 255.574688 
L 1983.658281 255.574688 
L 2005.658281 255.574688 
" style="fill: none; stroke: #000000; stroke-width: 5; stroke-linecap: square"/>
    </g>
    <g id="text_50">
     <!-- Y-axis -->
     <g transform="translate(2023.258281 263.274688) scale(0.22 -0.22)">
      <use xlink:href="#DejaVuSans-59"/>
      <use xlink:href="#DejaVuSans-2d" x="49.208984"/>
      <use xlink:href="#DejaVuSans-61" x="85.292969"/>
      <use xlink:href="#DejaVuSans-78" x="146.572266"/>
      <use xlink:href="#DejaVuSans-69" x="205.751953"/>
      <use xlink:href="#DejaVuSans-73" x="233.535156"/>
     </g>
    </g>
   </g>
  </g>
  <g id="axes_5">
   <g id="patch_17">
    <path d="M 2227.395781 287.65 
L 2632.395781 287.65 
L 2632.395781 38.17 
L 2227.395781 38.17 
z
" style="fill: #ffffff"/>
   </g>
   <g id="matplotlib.axis_9">
    <g id="xtick_17">
     <g id="line2d_62">
      <g>
       <use xlink:href="#m5d50a728ad" x="2227.395781" y="287.65" style="stroke: #000000; stroke-width: 0.8"/>
      </g>
     </g>
     <g id="text_51">
      <!-- 0 -->
      <g transform="translate(2218.806406 315.165781) scale(0.27 -0.27)">
       <use xlink:href="#DejaVuSans-30"/>
      </g>
     </g>
    </g>
    <g id="xtick_18">
     <g id="line2d_63">
      <g>
       <use xlink:href="#m5d50a728ad" x="2328.645781" y="287.65" style="stroke: #000000; stroke-width: 0.8"/>
      </g>
     </g>
     <g id="text_52">
      <!-- 25 -->
      <g transform="translate(2311.467031 315.165781) scale(0.27 -0.27)">
       <use xlink:href="#DejaVuSans-32"/>
       <use xlink:href="#DejaVuSans-35" x="63.623047"/>
      </g>
     </g>
    </g>
    <g id="xtick_19">
     <g id="line2d_64">
      <g>
       <use xlink:href="#m5d50a728ad" x="2429.895781" y="287.65" style="stroke: #000000; stroke-width: 0.8"/>
      </g>
     </g>
     <g id="text_53">
      <!-- 50 -->
      <g transform="translate(2412.717031 315.165781) scale(0.27 -0.27)">
       <use xlink:href="#DejaVuSans-35"/>
       <use xlink:href="#DejaVuSans-30" x="63.623047"/>
      </g>
     </g>
    </g>
    <g id="xtick_20">
     <g id="line2d_65">
      <g>
       <use xlink:href="#m5d50a728ad" x="2531.145781" y="287.65" style="stroke: #000000; stroke-width: 0.8"/>
      </g>
     </g>
     <g id="text_54">
      <!-- 75 -->
      <g transform="translate(2513.967031 315.165781) scale(0.27 -0.27)">
       <use xlink:href="#DejaVuSans-37"/>
       <use xlink:href="#DejaVuSans-35" x="63.623047"/>
      </g>
     </g>
    </g>
    <g id="text_55">
     <!-- Time [ms] -->
     <g transform="translate(2354.298125 347.57625) scale(0.3 -0.3)">
      <use xlink:href="#DejaVuSans-54"/>
      <use xlink:href="#DejaVuSans-69" x="57.958984"/>
      <use xlink:href="#DejaVuSans-6d" x="85.742188"/>
      <use xlink:href="#DejaVuSans-65" x="183.154297"/>
      <use xlink:href="#DejaVuSans-20" x="244.677734"/>
      <use xlink:href="#DejaVuSans-5b" x="276.464844"/>
      <use xlink:href="#DejaVuSans-6d" x="315.478516"/>
      <use xlink:href="#DejaVuSans-73" x="412.890625"/>
      <use xlink:href="#DejaVuSans-5d" x="464.990234"/>
     </g>
    </g>
   </g>
   <g id="matplotlib.axis_10">
    <g id="ytick_21">
     <g id="line2d_66">
      <g>
       <use xlink:href="#mc8f6a3f67d" x="2227.395781" y="264.160289" style="stroke: #000000; stroke-width: 0.8"/>
      </g>
     </g>
     <g id="text_56">
      <!-- −0.5 -->
      <g transform="translate(2154.832187 274.41818) scale(0.27 -0.27)">
       <use xlink:href="#DejaVuSans-2212"/>
       <use xlink:href="#DejaVuSans-30" x="83.789062"/>
       <use xlink:href="#DejaVuSans-2e" x="147.412109"/>
       <use xlink:href="#DejaVuSans-35" x="179.199219"/>
      </g>
     </g>
    </g>
    <g id="ytick_22">
     <g id="line2d_67">
      <g>
       <use xlink:href="#mc8f6a3f67d" x="2227.395781" y="192.610193" style="stroke: #000000; stroke-width: 0.8"/>
      </g>
     </g>
     <g id="text_57">
      <!-- 0.0 -->
      <g transform="translate(2177.457344 202.868083) scale(0.27 -0.27)">
       <use xlink:href="#DejaVuSans-30"/>
       <use xlink:href="#DejaVuSans-2e" x="63.623047"/>
       <use xlink:href="#DejaVuSans-30" x="95.410156"/>
      </g>
     </g>
    </g>
    <g id="ytick_23">
     <g id="line2d_68">
      <g>
       <use xlink:href="#mc8f6a3f67d" x="2227.395781" y="121.060096" style="stroke: #000000; stroke-width: 0.8"/>
      </g>
     </g>
     <g id="text_58">
      <!-- 0.5 -->
      <g transform="translate(2177.457344 131.317987) scale(0.27 -0.27)">
       <use xlink:href="#DejaVuSans-30"/>
       <use xlink:href="#DejaVuSans-2e" x="63.623047"/>
       <use xlink:href="#DejaVuSans-35" x="95.410156"/>
      </g>
     </g>
    </g>
    <g id="ytick_24">
     <g id="line2d_69">
      <g>
       <use xlink:href="#mc8f6a3f67d" x="2227.395781" y="49.51" style="stroke: #000000; stroke-width: 0.8"/>
      </g>
     </g>
     <g id="text_59">
      <!-- 1.0 -->
      <g transform="translate(2177.457344 59.767891) scale(0.27 -0.27)">
       <use xlink:href="#DejaVuSans-31"/>
       <use xlink:href="#DejaVuSans-2e" x="63.623047"/>
       <use xlink:href="#DejaVuSans-30" x="95.410156"/>
      </g>
     </g>
    </g>
    <g id="text_60">
     <!-- Normalized -->
     <g transform="translate(2144.593125 247.976406) rotate(-90) scale(0.3 -0.3)">
      <defs>
       <path id="DejaVuSans-6f" d="M 1959 3097 
Q 1497 3097 1228 2736 
Q 959 2375 959 1747 
Q 959 1119 1226 758 
Q 1494 397 1959 397 
Q 2419 397 2687 759 
Q 2956 1122 2956 1747 
Q 2956 2369 2687 2733 
Q 2419 3097 1959 3097 
z
M 1959 3584 
Q 2709 3584 3137 3096 
Q 3566 2609 3566 1747 
Q 3566 888 3137 398 
Q 2709 -91 1959 -91 
Q 1206 -91 779 398 
Q 353 888 353 1747 
Q 353 2609 779 3096 
Q 1206 3584 1959 3584 
z
" transform="scale(0.015625)"/>
       <path id="DejaVuSans-72" d="M 2631 2963 
Q 2534 3019 2420 3045 
Q 2306 3072 2169 3072 
Q 1681 3072 1420 2755 
Q 1159 2438 1159 1844 
L 1159 0 
L 581 0 
L 581 3500 
L 1159 3500 
L 1159 2956 
Q 1341 3275 1631 3429 
Q 1922 3584 2338 3584 
Q 2397 3584 2469 3576 
Q 2541 3569 2628 3553 
L 2631 2963 
z
" transform="scale(0.015625)"/>
       <path id="DejaVuSans-7a" d="M 353 3500 
L 3084 3500 
L 3084 2975 
L 922 459 
L 3084 459 
L 3084 0 
L 275 0 
L 275 525 
L 2438 3041 
L 353 3041 
L 353 3500 
z
" transform="scale(0.015625)"/>
       <path id="DejaVuSans-64" d="M 2906 2969 
L 2906 4863 
L 3481 4863 
L 3481 0 
L 2906 0 
L 2906 525 
Q 2725 213 2448 61 
Q 2172 -91 1784 -91 
Q 1150 -91 751 415 
Q 353 922 353 1747 
Q 353 2572 751 3078 
Q 1150 3584 1784 3584 
Q 2172 3584 2448 3432 
Q 2725 3281 2906 2969 
z
M 947 1747 
Q 947 1113 1208 752 
Q 1469 391 1925 391 
Q 2381 391 2643 752 
Q 2906 1113 2906 1747 
Q 2906 2381 2643 2742 
Q 2381 3103 1925 3103 
Q 1469 3103 1208 2742 
Q 947 2381 947 1747 
z
" transform="scale(0.015625)"/>
      </defs>
      <use xlink:href="#DejaVuSans-4e"/>
      <use xlink:href="#DejaVuSans-6f" x="74.804688"/>
      <use xlink:href="#DejaVuSans-72" x="135.986328"/>
      <use xlink:href="#DejaVuSans-6d" x="175.349609"/>
      <use xlink:href="#DejaVuSans-61" x="272.761719"/>
      <use xlink:href="#DejaVuSans-6c" x="334.041016"/>
      <use xlink:href="#DejaVuSans-69" x="361.824219"/>
      <use xlink:href="#DejaVuSans-7a" x="389.607422"/>
      <use xlink:href="#DejaVuSans-65" x="442.097656"/>
      <use xlink:href="#DejaVuSans-64" x="503.621094"/>
     </g>
    </g>
   </g>
   <g id="line2d_70">
    <path d="M 2227.395781 192.610193 
L 2632.395781 192.610193 
" clip-path="url(#p0020e27cc6)" style="fill: none; stroke: #d3d3d3; stroke-opacity: 0.8; stroke-width: 1.5; stroke-linecap: square"/>
   </g>
   <g id="line2d_71">
    <path d="M 2227.395781 192.610193 
L 2239.545781 192.610193 
L 2240.355781 193.42242 
L 2241.165781 194.946546 
L 2242.785781 199.216102 
L 2244.405781 204.314153 
L 2246.025781 210.159567 
L 2247.645781 216.746004 
L 2250.075781 227.925452 
L 2258.175781 266.03908 
L 2258.985781 268.820787 
L 2259.795781 271.040031 
L 2260.605781 272.830371 
L 2261.415781 274.210493 
L 2262.225781 275.194773 
L 2263.035781 275.794925 
L 2263.845781 276.145985 
L 2264.655781 276.31 
L 2265.465781 276.287993 
L 2266.275781 276.080395 
L 2267.085781 275.691283 
L 2267.895781 275.130211 
L 2268.705781 274.390619 
L 2269.515781 273.452045 
L 2271.135781 271.024791 
L 2272.755781 267.869713 
L 2274.375781 263.989614 
L 2275.995781 259.410386 
L 2277.615781 254.153979 
L 2279.235781 248.17092 
L 2280.855781 241.471224 
L 2283.285781 230.190003 
L 2309.205781 106.981914 
L 2310.015781 103.929203 
L 2310.825781 101.48825 
L 2311.635781 99.461474 
L 2312.445781 97.830932 
L 2313.255781 96.582609 
L 2314.065781 95.705353 
L 2314.875781 95.017814 
L 2315.685781 94.51123 
L 2316.495781 94.183971 
L 2317.305781 94.037588 
L 2318.115781 94.072986 
L 2318.925781 94.286317 
L 2319.735781 94.676937 
L 2320.545781 95.242252 
L 2321.355781 95.973066 
L 2322.975781 97.952693 
L 2323.785781 99.172951 
L 2325.405781 102.276612 
L 2327.025781 106.018372 
L 2328.645781 110.455802 
L 2330.265781 115.587244 
L 2331.885781 121.446716 
L 2333.505781 128.018922 
L 2338.365781 148.724704 
L 2339.175781 151.133679 
L 2339.985781 153.157376 
L 2340.795781 154.816185 
L 2341.605781 156.124957 
L 2342.415781 157.094696 
L 2343.225781 157.734213 
L 2344.035781 158.051079 
L 2373.195781 158.051079 
L 2374.005781 157.357431 
L 2374.815781 156.250928 
L 2375.625781 154.766714 
L 2376.435781 152.925044 
L 2378.055781 148.298512 
L 2379.675781 142.863933 
L 2381.295781 136.695632 
L 2382.915781 129.814917 
L 2386.155781 114.520079 
L 2396.685781 64.495922 
L 2397.495781 61.209379 
L 2399.115781 56.246422 
L 2399.925781 54.313802 
L 2400.735781 52.729214 
L 2401.545781 51.48275 
L 2402.355781 50.566799 
L 2403.165781 49.975032 
L 2403.975781 49.6505 
L 2404.785781 49.51 
L 2405.595781 49.552953 
L 2406.405781 49.777098 
L 2407.215781 50.17867 
L 2408.025781 50.761107 
L 2409.645781 52.411004 
L 2411.265781 54.70989 
L 2412.885781 57.680597 
L 2414.505781 61.482192 
L 2416.125781 65.961122 
L 2417.745781 71.082317 
L 2419.365781 76.936974 
L 2420.985781 83.553878 
L 2422.605781 90.837276 
L 2426.655781 109.694574 
L 2428.275781 115.05551 
L 2429.085781 117.207854 
L 2429.895781 119.030873 
L 2430.705781 120.533936 
L 2431.515781 121.72628 
L 2432.325781 122.613214 
L 2433.135781 123.20022 
L 2433.945781 123.491966 
L 2434.755781 123.491966 
L 2434.755781 123.491966 
" clip-path="url(#p0020e27cc6)" style="fill: none; stroke: #e41a1c; stroke-width: 5; stroke-linecap: square"/>
   </g>
   <g id="line2d_72">
    <path d="M 2227.395781 192.610193 
L 2240.355781 192.683101 
L 2241.975781 193.030745 
L 2244.405781 193.859175 
L 2246.025781 194.597557 
L 2247.645781 195.503375 
L 2249.265781 196.59248 
L 2252.505781 199.14594 
L 2255.745781 202.04497 
L 2258.175781 204.350194 
L 2259.795781 205.456836 
L 2261.415781 206.193839 
L 2263.035781 206.57943 
L 2264.655781 206.710385 
L 2266.275781 206.648679 
L 2267.895781 206.384327 
L 2269.515781 205.898906 
L 2271.135781 205.169868 
L 2272.755781 204.18698 
L 2274.375781 202.934811 
L 2275.995781 201.405756 
L 2277.615781 199.591688 
L 2279.235781 197.459866 
L 2280.855781 194.997562 
L 2283.285781 190.692627 
L 2287.335781 182.901522 
L 2291.385781 174.568421 
L 2295.435781 165.694179 
L 2299.485781 156.278844 
L 2303.535781 146.323675 
L 2307.585781 135.831258 
L 2309.205781 131.614505 
L 2310.015781 129.867629 
L 2310.825781 128.45713 
L 2311.635781 127.274592 
L 2312.445781 126.314091 
L 2313.255781 125.571741 
L 2314.875781 124.628555 
L 2316.495781 124.116817 
L 2317.305781 124.02566 
L 2318.115781 124.047902 
L 2318.925781 124.183143 
L 2320.545781 124.797692 
L 2321.355781 125.273291 
L 2322.975781 126.57862 
L 2323.785781 127.393277 
L 2325.405781 129.491932 
L 2327.025781 132.064072 
L 2328.645781 135.163891 
L 2330.265781 138.806148 
L 2331.885781 143.030793 
L 2333.505781 147.842983 
L 2338.365781 163.461727 
L 2339.175781 165.326765 
L 2339.985781 166.904872 
L 2340.795781 168.20774 
L 2341.605781 169.243023 
L 2342.415781 170.01556 
L 2343.225781 170.528616 
L 2344.035781 170.784601 
L 2373.195781 170.784601 
L 2374.005781 170.080242 
L 2374.815781 168.950446 
L 2375.625781 167.426661 
L 2376.435781 165.525556 
L 2378.055781 160.710071 
L 2379.675781 154.992882 
L 2381.295781 148.434677 
L 2382.915781 141.041934 
L 2385.345781 128.5937 
L 2391.015781 98.442924 
L 2397.495781 63.51295 
L 2399.115781 57.625203 
L 2399.925781 55.315787 
L 2400.735781 53.413367 
L 2401.545781 51.909898 
L 2402.355781 50.799952 
L 2403.165781 50.07953 
L 2403.975781 49.682622 
L 2404.785781 49.51 
L 2405.595781 49.563015 
L 2406.405781 49.84092 
L 2407.215781 50.34106 
L 2408.025781 51.06973 
L 2408.835781 52.016995 
L 2409.645781 53.148147 
L 2410.455781 54.496779 
L 2412.075781 57.861262 
L 2412.885781 59.878529 
L 2414.505781 64.794959 
L 2416.125781 70.637559 
L 2417.745781 77.375288 
L 2419.365781 85.143867 
L 2420.985781 93.997954 
L 2422.605781 103.825704 
L 2426.655781 129.637778 
L 2428.275781 137.080497 
L 2429.085781 140.087177 
L 2429.895781 142.64404 
L 2430.705781 144.760583 
L 2431.515781 146.446275 
L 2432.325781 147.705166 
L 2433.135781 148.541639 
L 2433.945781 148.95901 
L 2434.755781 148.95901 
L 2434.755781 148.95901 
" clip-path="url(#p0020e27cc6)" style="fill: none; stroke: #377eb8; stroke-width: 5; stroke-linecap: square"/>
   </g>
   <g id="line2d_73">
    <path d="M 2227.395781 192.610193 
L 2243.595781 192.711492 
L 2247.645781 192.976052 
L 2251.695781 193.462923 
L 2255.745781 194.150865 
L 2259.795781 194.902247 
L 2262.225781 195.139793 
L 2265.465781 195.210797 
L 2268.705781 195.055825 
L 2271.135781 194.7453 
L 2273.565781 194.230626 
L 2275.995781 193.476724 
L 2278.425781 192.446727 
L 2280.855781 191.096615 
L 2283.285781 189.389518 
L 2286.525781 186.809265 
L 2289.765781 183.931968 
L 2293.005781 180.741733 
L 2296.245781 177.222458 
L 2299.485781 173.358002 
L 2302.725781 169.132632 
L 2305.965781 164.530985 
L 2310.015781 158.575738 
L 2311.635781 157.012016 
L 2313.255781 155.965465 
L 2314.875781 155.374767 
L 2316.495781 155.048451 
L 2318.115781 155.003991 
L 2319.735781 155.259082 
L 2321.355781 155.825154 
L 2322.975781 156.719454 
L 2324.595781 157.973354 
L 2326.215781 159.614927 
L 2327.835781 161.673801 
L 2329.455781 164.128153 
L 2331.075781 167.05312 
L 2332.695781 170.464094 
L 2335.125781 176.391265 
L 2338.365781 184.600999 
L 2339.985781 187.379876 
L 2340.795781 188.443098 
L 2341.605781 189.293987 
L 2342.415781 189.933432 
L 2343.225781 190.361089 
L 2344.035781 190.575957 
L 2373.195781 190.575957 
L 2374.005781 189.832822 
L 2374.815781 188.634243 
L 2375.625781 187.008807 
L 2376.435781 184.9698 
L 2378.055781 179.762091 
L 2379.675781 173.512938 
L 2381.295781 166.26814 
L 2382.915781 158.015375 
L 2385.345781 143.937436 
L 2389.395781 119.205109 
L 2393.445781 93.209994 
L 2397.495781 66.925467 
L 2399.115781 59.668102 
L 2399.925781 56.800778 
L 2400.735781 54.427682 
L 2401.545781 52.543478 
L 2402.355781 51.145981 
L 2403.165781 50.234723 
L 2403.975781 49.730361 
L 2404.785781 49.51 
L 2405.595781 49.577985 
L 2406.405781 49.935986 
L 2407.215781 50.583188 
L 2408.025781 51.530364 
L 2408.835781 52.767206 
L 2409.645781 54.250744 
L 2410.455781 56.027374 
L 2412.075781 60.489653 
L 2412.885781 63.18239 
L 2414.505781 69.788637 
L 2416.125781 77.707428 
L 2417.745781 86.91779 
L 2419.365781 97.628112 
L 2420.985781 109.937982 
L 2422.605781 123.71626 
L 2426.655781 160.427553 
L 2428.275781 171.163575 
L 2429.085781 175.527543 
L 2429.895781 179.25354 
L 2430.705781 182.350217 
L 2431.515781 184.826349 
L 2432.325781 186.682886 
L 2433.135781 187.921343 
L 2433.945781 188.541721 
L 2434.755781 188.541721 
L 2434.755781 188.541721 
" clip-path="url(#p0020e27cc6)" style="fill: none; stroke: #4daf4a; stroke-width: 5; stroke-linecap: square"/>
   </g>
   <g id="line2d_74">
    <path d="M 2227.395781 192.610193 
L 2632.395781 192.610193 
" clip-path="url(#p0020e27cc6)" style="fill: none; stroke: #000000; stroke-opacity: 0.5; stroke-linecap: square"/>
   </g>
   <g id="line2d_75">
    <path d="M 2227.395781 192.610193 
L 2632.395781 192.610193 
" clip-path="url(#p0020e27cc6)" style="fill: none; stroke: #000000; stroke-width: 5; stroke-linecap: square"/>
   </g>
   <g id="patch_18">
    <path d="M 2227.395781 287.65 
L 2227.395781 38.17 
" style="fill: none; stroke: #000000; stroke-width: 0.8; stroke-linejoin: miter; stroke-linecap: square"/>
   </g>
   <g id="patch_19">
    <path d="M 2227.395781 287.65 
L 2632.395781 287.65 
" style="fill: none; stroke: #000000; stroke-width: 0.8; stroke-linejoin: miter; stroke-linecap: square"/>
   </g>
   <g id="text_61">
    <!-- Moments -->
    <g transform="translate(2356.123281 31.515) scale(0.32 -0.32)">
     <defs>
      <path id="DejaVuSans-4d" d="M 628 4666 
L 1569 4666 
L 2759 1491 
L 3956 4666 
L 4897 4666 
L 4897 0 
L 4281 0 
L 4281 4097 
L 3078 897 
L 2444 897 
L 1241 4097 
L 1241 0 
L 628 0 
L 628 4666 
z
" transform="scale(0.015625)"/>
     </defs>
     <use xlink:href="#DejaVuSans-4d"/>
     <use xlink:href="#DejaVuSans-6f" x="86.279297"/>
     <use xlink:href="#DejaVuSans-6d" x="147.460938"/>
     <use xlink:href="#DejaVuSans-65" x="244.873047"/>
     <use xlink:href="#DejaVuSans-6e" x="306.396484"/>
     <use xlink:href="#DejaVuSans-74" x="369.775391"/>
     <use xlink:href="#DejaVuSans-73" x="408.984375"/>
    </g>
   </g>
   <g id="legend_4">
    <g id="patch_20">
     <path d="M 2513.616406 276.65 
L 2616.995781 276.65 
Q 2621.395781 276.65 2621.395781 272.25 
L 2621.395781 177.574375 
Q 2621.395781 173.174375 2616.995781 173.174375 
L 2513.616406 173.174375 
Q 2509.216406 173.174375 2509.216406 177.574375 
L 2509.216406 272.25 
Q 2509.216406 276.65 2513.616406 276.65 
z
" style="fill: #ffffff; opacity: 0.2; stroke: #cccccc; stroke-linejoin: miter"/>
    </g>
    <g id="line2d_76">
     <path d="M 2518.016406 190.990938 
L 2540.016406 190.990938 
L 2562.016406 190.990938 
" style="fill: none; stroke: #e41a1c; stroke-width: 5; stroke-linecap: square"/>
    </g>
    <g id="text_62">
     <!-- M0 -->
     <g transform="translate(2579.616406 198.690938) scale(0.22 -0.22)">
      <use xlink:href="#DejaVuSans-4d"/>
      <use xlink:href="#DejaVuSans-30" x="86.279297"/>
     </g>
    </g>
    <g id="line2d_77">
     <path d="M 2518.016406 223.282813 
L 2540.016406 223.282813 
L 2562.016406 223.282813 
" style="fill: none; stroke: #377eb8; stroke-width: 5; stroke-linecap: square"/>
    </g>
    <g id="text_63">
     <!-- M1 -->
     <g transform="translate(2579.616406 230.982813) scale(0.22 -0.22)">
      <use xlink:href="#DejaVuSans-4d"/>
      <use xlink:href="#DejaVuSans-31" x="86.279297"/>
     </g>
    </g>
    <g id="line2d_78">
     <path d="M 2518.016406 255.574688 
L 2540.016406 255.574688 
L 2562.016406 255.574688 
" style="fill: none; stroke: #4daf4a; stroke-width: 5; stroke-linecap: square"/>
    </g>
    <g id="text_64">
     <!-- M2 -->
     <g transform="translate(2579.616406 263.274688) scale(0.22 -0.22)">
      <use xlink:href="#DejaVuSans-4d"/>
      <use xlink:href="#DejaVuSans-32" x="86.279297"/>
     </g>
    </g>
   </g>
  </g>
 </g>
 <defs>
  <clipPath id="p4a3d591c06">
   <rect x="121.395781" y="38.17" width="405" height="249.48"/>
  </clipPath>
  <clipPath id="pd53e1b9326">
   <rect x="647.895781" y="38.17" width="405" height="249.48"/>
  </clipPath>
  <clipPath id="pf32549a91d">
   <rect x="1174.395781" y="38.17" width="405" height="249.48"/>
  </clipPath>
  <clipPath id="p177cd1d5e4">
   <rect x="1700.895781" y="38.17" width="405" height="249.48"/>
  </clipPath>
  <clipPath id="p0020e27cc6">
   <rect x="2227.395781" y="38.17" width="405" height="249.48"/>
  </clipPath>
 </defs>
</svg>
