<?xml version="1.0" encoding="utf-8" standalone="no"?>
<!DOCTYPE svg PUBLIC "-//W3C//DTD SVG 1.1//EN"
  "http://www.w3.org/Graphics/SVG/1.1/DTD/svg11.dtd">
<svg xmlns:xlink="http://www.w3.org/1999/xlink" width="2137.395781pt" height="361.015312pt" viewBox="0 0 2137.395781 361.015312" xmlns="http://www.w3.org/2000/svg" version="1.1">
 <metadata>
  <rdf:RDF xmlns:dc="http://purl.org/dc/elements/1.1/" xmlns:cc="http://creativecommons.org/ns#" xmlns:rdf="http://www.w3.org/1999/02/22-rdf-syntax-ns#">
   <cc:Work>
    <dc:type rdf:resource="http://purl.org/dc/dcmitype/StillImage"/>
    <dc:date>2026-01-09T12:21:19.680707</dc:date>
    <dc:format>image/svg+xml</dc:format>
    <dc:creator>
     <cc:Agent>
      <dc:title>Matplotlib v3.9.0, https://matplotlib.org/</dc:title>
     </cc:Agent>
    </dc:creator>
   </cc:Work>
  </rdf:RDF>
 </metadata>
 <defs>
  <style type="text/css">*{stroke-linejoin: round; stroke-linecap: butt}</style>
 </defs>
 <g id="figure_1">
  <g id="patch_1">
   <path d="M 0 361.015312 
L 2137.395781 361.015312 
L 2137.395781 0 
L 0 0 
z
" style="fill: #ffffff"/>
  </g>
  <g id="axes_1">
   <g id="patch_2">
    <path d="M 121.395781 287.65 
L 531.354965 287.65 
L 531.354965 38.17 
L 121.395781 38.17 
z
" style="fill: #ffffff"/>
   </g>
   <g id="PolyCollection_1">
    <defs>
     <path id="mb28a49b9d7" d="M 121.395781 -198.105312 
L 121.395781 -198.105312 
L 122.2157 -198.105312 
L 123.035618 -198.105312 
L 123.855536 -198.105312 
L 124.675455 -198.105312 
L 125.495373 -198.105312 
L 126.315291 -198.105312 
L 127.13521 -198.105312 
L 127.955128 -198.105312 
L 128.775047 -198.105312 
L 129.594965 -198.105312 
L 130.414883 -198.105312 
L 131.234802 -198.105312 
L 132.05472 -198.105312 
L 132.874638 -198.105312 
L 133.694557 -198.105312 
L 134.514475 -198.105312 
L 135.334393 -198.105312 
L 136.154312 -198.105312 
L 136.97423 -198.105312 
L 137.794149 -198.105312 
L 138.614067 -198.105312 
L 139.433985 -198.105312 
L 140.253904 -198.105312 
L 141.073822 -198.105312 
L 141.89374 -198.105312 
L 142.713659 -198.105312 
L 143.533577 -198.105312 
L 144.353496 -198.105312 
L 145.173414 -198.105312 
L 145.993332 -198.105312 
L 146.813251 -198.105312 
L 147.633169 -198.105312 
L 148.453087 -198.105312 
L 149.273006 -198.105312 
L 150.092924 -198.105312 
L 150.912842 -198.105312 
L 151.732761 -198.105312 
L 152.552679 -198.105312 
L 153.372598 -198.105312 
L 154.192516 -198.105312 
L 155.012434 -198.105312 
L 155.832353 -198.105312 
L 156.652271 -198.105312 
L 157.472189 -198.105312 
L 158.292108 -198.105312 
L 159.112026 -198.105312 
L 159.931945 -198.105312 
L 160.751863 -198.105312 
L 161.571781 -198.105312 
L 162.3917 -198.105312 
L 163.211618 -198.105312 
L 164.031536 -198.105312 
L 164.851455 -198.105312 
L 165.671373 -198.105312 
L 166.491291 -198.105312 
L 167.31121 -198.105312 
L 168.131128 -198.105312 
L 168.951047 -198.105312 
L 169.770965 -198.105312 
L 170.590883 -198.105312 
L 171.410802 -198.105312 
L 172.23072 -198.105312 
L 173.050638 -198.105312 
L 173.870557 -198.105312 
L 174.690475 -198.105312 
L 175.510393 -198.105312 
L 176.330312 -198.105312 
L 177.15023 -198.105312 
L 177.970149 -198.105312 
L 178.790067 -198.105312 
L 179.609985 -198.105312 
L 180.429904 -198.105312 
L 181.249822 -198.105312 
L 182.06974 -198.105312 
L 182.889659 -198.105312 
L 183.709577 -198.105312 
L 184.529496 -198.105312 
L 185.349414 -198.105312 
L 186.169332 -198.105312 
L 186.989251 -198.105312 
L 187.809169 -198.105312 
L 188.629087 -198.105312 
L 189.449006 -198.105312 
L 190.268924 -198.105312 
L 191.088842 -198.105312 
L 191.908761 -198.105312 
L 192.728679 -198.105312 
L 193.548598 -198.105312 
L 194.368516 -198.105312 
L 195.188434 -198.105312 
L 196.008353 -198.105312 
L 196.828271 -198.105312 
L 197.648189 -198.105312 
L 198.468108 -198.105312 
L 199.288026 -198.105312 
L 200.107945 -198.105312 
L 200.927863 -198.105312 
L 201.747781 -198.105312 
L 202.5677 -198.105312 
L 203.387618 -198.105312 
L 204.207536 -198.105312 
L 205.027455 -198.105312 
L 205.847373 -198.105312 
L 206.667291 -198.105312 
L 207.48721 -198.105312 
L 208.307128 -198.105312 
L 209.127047 -198.105312 
L 209.946965 -198.105312 
L 210.766883 -198.105312 
L 211.586802 -198.105312 
L 212.40672 -198.105312 
L 213.226638 -198.105312 
L 214.046557 -198.105312 
L 214.866475 -198.105312 
L 215.686393 -198.105312 
L 216.506312 -198.105312 
L 217.32623 -198.105312 
L 218.146149 -198.105312 
L 218.966067 -198.105312 
L 219.785985 -198.105312 
L 220.605904 -198.105312 
L 221.425822 -198.105312 
L 222.24574 -198.105312 
L 223.065659 -198.105312 
L 223.885577 -198.105312 
L 224.705496 -198.105312 
L 225.525414 -198.105312 
L 226.345332 -198.105312 
L 227.165251 -198.105312 
L 227.985169 -198.105312 
L 228.805087 -198.105312 
L 229.625006 -198.105312 
L 230.444924 -198.105312 
L 231.264842 -198.105312 
L 232.084761 -198.105312 
L 232.904679 -198.105312 
L 233.724598 -198.105312 
L 234.544516 -198.105312 
L 235.364434 -198.105312 
L 236.184353 -198.105312 
L 237.004271 -198.105312 
L 237.824189 -198.105312 
L 238.644108 -198.105312 
L 239.464026 -198.105312 
L 240.283945 -198.105312 
L 241.103863 -198.105312 
L 241.923781 -198.105312 
L 242.7437 -198.105312 
L 243.563618 -198.105312 
L 244.383536 -198.105312 
L 245.203455 -198.105312 
L 246.023373 -198.105312 
L 246.843291 -198.105312 
L 247.66321 -198.105312 
L 248.483128 -198.105312 
L 249.303047 -198.105312 
L 250.122965 -198.105312 
L 250.942883 -198.105312 
L 251.762802 -198.105312 
L 252.58272 -198.105312 
L 252.58272 -198.105312 
L 252.58272 -198.105312 
L 251.762802 -206.159231 
L 250.942883 -214.32588 
L 250.122965 -222.631815 
L 249.303047 -231.111329 
L 248.483128 -239.81202 
L 247.66321 -248.797675 
L 246.843291 -258.156555 
L 246.023373 -268.492162 
L 245.203455 -282.791217 
L 244.383536 -299.337775 
L 243.563618 -299.338754 
L 242.7437 -299.338451 
L 241.923781 -299.339262 
L 241.103863 -299.110182 
L 240.283945 -294.262045 
L 239.464026 -289.404909 
L 238.644108 -284.536984 
L 237.824189 -279.657143 
L 237.004271 -274.764657 
L 236.184353 -269.857249 
L 235.364434 -264.934644 
L 234.544516 -259.693188 
L 233.724598 -250.463338 
L 232.904679 -240.929356 
L 232.084761 -230.978146 
L 231.264842 -220.413399 
L 230.444924 -198.105312 
L 229.625006 -198.105312 
L 228.805087 -198.105312 
L 227.985169 -198.105312 
L 227.165251 -198.105312 
L 226.345332 -198.105312 
L 225.525414 -198.105312 
L 224.705496 -198.105312 
L 223.885577 -198.105312 
L 223.065659 -198.105312 
L 222.24574 -198.105312 
L 221.425822 -198.105312 
L 220.605904 -198.105312 
L 219.785985 -198.105312 
L 218.966067 -198.105312 
L 218.146149 -198.105312 
L 217.32623 -198.105312 
L 216.506312 -198.105312 
L 215.686393 -198.105312 
L 214.866475 -198.105312 
L 214.046557 -198.105312 
L 213.226638 -198.105312 
L 212.40672 -198.105312 
L 211.586802 -198.105312 
L 210.766883 -198.105312 
L 209.946965 -198.105312 
L 209.127047 -198.105312 
L 208.307128 -198.105312 
L 207.48721 -198.105312 
L 206.667291 -198.105312 
L 205.847373 -198.105312 
L 205.027455 -198.105312 
L 204.207536 -198.105312 
L 203.387618 -198.105312 
L 202.5677 -198.105312 
L 201.747781 -198.105312 
L 200.927863 -198.105312 
L 200.107945 -198.105312 
L 199.288026 -189.433269 
L 198.468108 -180.599922 
L 197.648189 -171.263314 
L 196.828271 -162.091686 
L 196.008353 -152.864987 
L 195.188434 -143.133998 
L 194.368516 -132.982923 
L 193.548598 -119.996226 
L 192.728679 -104.338857 
L 191.908761 -100.80413 
L 191.088842 -100.802558 
L 190.268924 -100.804006 
L 189.449006 -100.803453 
L 188.629087 -100.803826 
L 187.809169 -100.804134 
L 186.989251 -104.206717 
L 186.169332 -108.743629 
L 185.349414 -114.077795 
L 184.529496 -118.146 
L 183.709577 -123.026896 
L 182.889659 -128.045987 
L 182.06974 -132.393115 
L 181.249822 -137.519031 
L 180.429904 -141.904081 
L 179.609985 -146.955884 
L 178.790067 -151.483783 
L 177.970149 -156.255828 
L 177.15023 -161.418123 
L 176.330312 -165.781928 
L 175.510393 -170.595551 
L 174.690475 -175.636012 
L 173.870557 -180.168878 
L 173.050638 -185.069132 
L 172.23072 -189.829847 
L 171.410802 -194.646616 
L 170.590883 -199.821665 
L 169.770965 -204.271531 
L 168.951047 -209.442703 
L 168.131128 -213.964736 
L 167.31121 -219.325498 
L 166.491291 -223.598169 
L 165.671373 -230.091062 
L 164.851455 -237.039774 
L 164.031536 -247.509581 
L 163.211618 -258.091993 
L 162.3917 -270.450102 
L 161.571781 -283.112877 
L 160.751863 -297.374 
L 159.931945 -308.471133 
L 159.112026 -313.399164 
L 158.292108 -313.549768 
L 157.472189 -313.592577 
L 156.652271 -313.710667 
L 155.832353 -313.818833 
L 155.012434 -313.907355 
L 154.192516 -314.042263 
L 153.372598 -314.118147 
L 152.552679 -314.250321 
L 151.732761 -314.280733 
L 150.912842 -314.300862 
L 150.092924 -314.301404 
L 149.273006 -314.301856 
L 148.453087 -314.30205 
L 147.633169 -314.302014 
L 146.813251 -314.301574 
L 145.993332 -313.349412 
L 145.173414 -308.488944 
L 144.353496 -303.620393 
L 143.533577 -298.738552 
L 142.713659 -293.843449 
L 141.89374 -288.933485 
L 141.073822 -284.00731 
L 140.253904 -279.063126 
L 139.433985 -274.098957 
L 138.614067 -269.112754 
L 137.794149 -264.102271 
L 136.97423 -259.064778 
L 136.154312 -252.732602 
L 135.334393 -240.010651 
L 134.514475 -222.681024 
L 133.694557 -198.105312 
L 132.874638 -198.105312 
L 132.05472 -198.105312 
L 131.234802 -198.105312 
L 130.414883 -198.105312 
L 129.594965 -198.105312 
L 128.775047 -198.105312 
L 127.955128 -198.105312 
L 127.13521 -198.105312 
L 126.315291 -198.105312 
L 125.495373 -198.105312 
L 124.675455 -198.105312 
L 123.855536 -198.105312 
L 123.035618 -198.105312 
L 122.2157 -198.105312 
L 121.395781 -198.105312 
z
" style="stroke: #0173b2; stroke-opacity: 0.75"/>
    </defs>
    <g clip-path="url(#pdb80d85aba)">
     <use xlink:href="#mb28a49b9d7" x="0" y="361.015312" style="fill: #0173b2; fill-opacity: 0.75; stroke: #0173b2; stroke-opacity: 0.75"/>
    </g>
   </g>
   <g id="matplotlib.axis_1">
    <g id="xtick_1">
     <g id="line2d_1">
      <defs>
       <path id="m9dfb453ad0" d="M 0 0 
L 0 3.5 
" style="stroke: #000000; stroke-width: 0.8"/>
      </defs>
      <g>
       <use xlink:href="#m9dfb453ad0" x="121.395781" y="287.65" style="stroke: #000000; stroke-width: 0.8"/>
      </g>
     </g>
     <g id="text_1">
      <!-- 0 -->
      <g transform="translate(112.806406 315.165781) scale(0.27 -0.27)">
       <defs>
        <path id="DejaVuSans-30" d="M 2034 4250 
Q 1547 4250 1301 3770 
Q 1056 3291 1056 2328 
Q 1056 1369 1301 889 
Q 1547 409 2034 409 
Q 2525 409 2770 889 
Q 3016 1369 3016 2328 
Q 3016 3291 2770 3770 
Q 2525 4250 2034 4250 
z
M 2034 4750 
Q 2819 4750 3233 4129 
Q 3647 3509 3647 2328 
Q 3647 1150 3233 529 
Q 2819 -91 2034 -91 
Q 1250 -91 836 529 
Q 422 1150 422 2328 
Q 422 3509 836 4129 
Q 1250 4750 2034 4750 
z
" transform="scale(0.015625)"/>
       </defs>
       <use xlink:href="#DejaVuSans-30"/>
      </g>
     </g>
    </g>
    <g id="xtick_2">
     <g id="line2d_2">
      <g>
       <use xlink:href="#m9dfb453ad0" x="223.885577" y="287.65" style="stroke: #000000; stroke-width: 0.8"/>
      </g>
     </g>
     <g id="text_2">
      <!-- 25 -->
      <g transform="translate(206.706827 315.165781) scale(0.27 -0.27)">
       <defs>
        <path id="DejaVuSans-32" d="M 1228 531 
L 3431 531 
L 3431 0 
L 469 0 
L 469 531 
Q 828 903 1448 1529 
Q 2069 2156 2228 2338 
Q 2531 2678 2651 2914 
Q 2772 3150 2772 3378 
Q 2772 3750 2511 3984 
Q 2250 4219 1831 4219 
Q 1534 4219 1204 4116 
Q 875 4013 500 3803 
L 500 4441 
Q 881 4594 1212 4672 
Q 1544 4750 1819 4750 
Q 2544 4750 2975 4387 
Q 3406 4025 3406 3419 
Q 3406 3131 3298 2873 
Q 3191 2616 2906 2266 
Q 2828 2175 2409 1742 
Q 1991 1309 1228 531 
z
" transform="scale(0.015625)"/>
        <path id="DejaVuSans-35" d="M 691 4666 
L 3169 4666 
L 3169 4134 
L 1269 4134 
L 1269 2991 
Q 1406 3038 1543 3061 
Q 1681 3084 1819 3084 
Q 2600 3084 3056 2656 
Q 3513 2228 3513 1497 
Q 3513 744 3044 326 
Q 2575 -91 1722 -91 
Q 1428 -91 1123 -41 
Q 819 9 494 109 
L 494 744 
Q 775 591 1075 516 
Q 1375 441 1709 441 
Q 2250 441 2565 725 
Q 2881 1009 2881 1497 
Q 2881 1984 2565 2268 
Q 2250 2553 1709 2553 
Q 1456 2553 1204 2497 
Q 953 2441 691 2322 
L 691 4666 
z
" transform="scale(0.015625)"/>
       </defs>
       <use xlink:href="#DejaVuSans-32"/>
       <use xlink:href="#DejaVuSans-35" x="63.623047"/>
      </g>
     </g>
    </g>
    <g id="xtick_3">
     <g id="line2d_3">
      <g>
       <use xlink:href="#m9dfb453ad0" x="326.375373" y="287.65" style="stroke: #000000; stroke-width: 0.8"/>
      </g>
     </g>
     <g id="text_3">
      <!-- 50 -->
      <g transform="translate(309.196623 315.165781) scale(0.27 -0.27)">
       <use xlink:href="#DejaVuSans-35"/>
       <use xlink:href="#DejaVuSans-30" x="63.623047"/>
      </g>
     </g>
    </g>
    <g id="xtick_4">
     <g id="line2d_4">
      <g>
       <use xlink:href="#m9dfb453ad0" x="428.865169" y="287.65" style="stroke: #000000; stroke-width: 0.8"/>
      </g>
     </g>
     <g id="text_4">
      <!-- 75 -->
      <g transform="translate(411.686419 315.165781) scale(0.27 -0.27)">
       <defs>
        <path id="DejaVuSans-37" d="M 525 4666 
L 3525 4666 
L 3525 4397 
L 1831 0 
L 1172 0 
L 2766 4134 
L 525 4134 
L 525 4666 
z
" transform="scale(0.015625)"/>
       </defs>
       <use xlink:href="#DejaVuSans-37"/>
       <use xlink:href="#DejaVuSans-35" x="63.623047"/>
      </g>
     </g>
    </g>
    <g id="text_5">
     <!-- Time [ms] -->
     <g transform="translate(250.777717 347.57625) scale(0.3 -0.3)">
      <defs>
       <path id="DejaVuSans-54" d="M -19 4666 
L 3928 4666 
L 3928 4134 
L 2272 4134 
L 2272 0 
L 1638 0 
L 1638 4134 
L -19 4134 
L -19 4666 
z
" transform="scale(0.015625)"/>
       <path id="DejaVuSans-69" d="M 603 3500 
L 1178 3500 
L 1178 0 
L 603 0 
L 603 3500 
z
M 603 4863 
L 1178 4863 
L 1178 4134 
L 603 4134 
L 603 4863 
z
" transform="scale(0.015625)"/>
       <path id="DejaVuSans-6d" d="M 3328 2828 
Q 3544 3216 3844 3400 
Q 4144 3584 4550 3584 
Q 5097 3584 5394 3201 
Q 5691 2819 5691 2113 
L 5691 0 
L 5113 0 
L 5113 2094 
Q 5113 2597 4934 2840 
Q 4756 3084 4391 3084 
Q 3944 3084 3684 2787 
Q 3425 2491 3425 1978 
L 3425 0 
L 2847 0 
L 2847 2094 
Q 2847 2600 2669 2842 
Q 2491 3084 2119 3084 
Q 1678 3084 1418 2786 
Q 1159 2488 1159 1978 
L 1159 0 
L 581 0 
L 581 3500 
L 1159 3500 
L 1159 2956 
Q 1356 3278 1631 3431 
Q 1906 3584 2284 3584 
Q 2666 3584 2933 3390 
Q 3200 3197 3328 2828 
z
" transform="scale(0.015625)"/>
       <path id="DejaVuSans-65" d="M 3597 1894 
L 3597 1613 
L 953 1613 
Q 991 1019 1311 708 
Q 1631 397 2203 397 
Q 2534 397 2845 478 
Q 3156 559 3463 722 
L 3463 178 
Q 3153 47 2828 -22 
Q 2503 -91 2169 -91 
Q 1331 -91 842 396 
Q 353 884 353 1716 
Q 353 2575 817 3079 
Q 1281 3584 2069 3584 
Q 2775 3584 3186 3129 
Q 3597 2675 3597 1894 
z
M 3022 2063 
Q 3016 2534 2758 2815 
Q 2500 3097 2075 3097 
Q 1594 3097 1305 2825 
Q 1016 2553 972 2059 
L 3022 2063 
z
" transform="scale(0.015625)"/>
       <path id="DejaVuSans-20" transform="scale(0.015625)"/>
       <path id="DejaVuSans-5b" d="M 550 4863 
L 1875 4863 
L 1875 4416 
L 1125 4416 
L 1125 -397 
L 1875 -397 
L 1875 -844 
L 550 -844 
L 550 4863 
z
" transform="scale(0.015625)"/>
       <path id="DejaVuSans-73" d="M 2834 3397 
L 2834 2853 
Q 2591 2978 2328 3040 
Q 2066 3103 1784 3103 
Q 1356 3103 1142 2972 
Q 928 2841 928 2578 
Q 928 2378 1081 2264 
Q 1234 2150 1697 2047 
L 1894 2003 
Q 2506 1872 2764 1633 
Q 3022 1394 3022 966 
Q 3022 478 2636 193 
Q 2250 -91 1575 -91 
Q 1294 -91 989 -36 
Q 684 19 347 128 
L 347 722 
Q 666 556 975 473 
Q 1284 391 1588 391 
Q 1994 391 2212 530 
Q 2431 669 2431 922 
Q 2431 1156 2273 1281 
Q 2116 1406 1581 1522 
L 1381 1569 
Q 847 1681 609 1914 
Q 372 2147 372 2553 
Q 372 3047 722 3315 
Q 1072 3584 1716 3584 
Q 2034 3584 2315 3537 
Q 2597 3491 2834 3397 
z
" transform="scale(0.015625)"/>
       <path id="DejaVuSans-5d" d="M 1947 4863 
L 1947 -844 
L 622 -844 
L 622 -397 
L 1369 -397 
L 1369 4416 
L 622 4416 
L 622 4863 
L 1947 4863 
z
" transform="scale(0.015625)"/>
      </defs>
      <use xlink:href="#DejaVuSans-54"/>
      <use xlink:href="#DejaVuSans-69" x="57.958984"/>
      <use xlink:href="#DejaVuSans-6d" x="85.742188"/>
      <use xlink:href="#DejaVuSans-65" x="183.154297"/>
      <use xlink:href="#DejaVuSans-20" x="244.677734"/>
      <use xlink:href="#DejaVuSans-5b" x="276.464844"/>
      <use xlink:href="#DejaVuSans-6d" x="315.478516"/>
      <use xlink:href="#DejaVuSans-73" x="412.890625"/>
      <use xlink:href="#DejaVuSans-5d" x="464.990234"/>
     </g>
    </g>
   </g>
   <g id="matplotlib.axis_2">
    <g id="ytick_1">
     <g id="line2d_5">
      <defs>
       <path id="ma15aaf3072" d="M 0 0 
L -3.5 0 
" style="stroke: #000000; stroke-width: 0.8"/>
      </defs>
      <g>
       <use xlink:href="#ma15aaf3072" x="121.395781" y="287.029403" style="stroke: #000000; stroke-width: 0.8"/>
      </g>
     </g>
     <g id="text_6">
      <!-- −200 -->
      <g transform="translate(40.234375 297.287294) scale(0.27 -0.27)">
       <defs>
        <path id="DejaVuSans-2212" d="M 678 2272 
L 4684 2272 
L 4684 1741 
L 678 1741 
L 678 2272 
z
" transform="scale(0.015625)"/>
       </defs>
       <use xlink:href="#DejaVuSans-2212"/>
       <use xlink:href="#DejaVuSans-32" x="83.789062"/>
       <use xlink:href="#DejaVuSans-30" x="147.412109"/>
       <use xlink:href="#DejaVuSans-30" x="211.035156"/>
      </g>
     </g>
    </g>
    <g id="ytick_2">
     <g id="line2d_6">
      <g>
       <use xlink:href="#ma15aaf3072" x="121.395781" y="224.969701" style="stroke: #000000; stroke-width: 0.8"/>
      </g>
     </g>
     <g id="text_7">
      <!-- −100 -->
      <g transform="translate(40.234375 235.227592) scale(0.27 -0.27)">
       <defs>
        <path id="DejaVuSans-31" d="M 794 531 
L 1825 531 
L 1825 4091 
L 703 3866 
L 703 4441 
L 1819 4666 
L 2450 4666 
L 2450 531 
L 3481 531 
L 3481 0 
L 794 0 
L 794 531 
z
" transform="scale(0.015625)"/>
       </defs>
       <use xlink:href="#DejaVuSans-2212"/>
       <use xlink:href="#DejaVuSans-31" x="83.789062"/>
       <use xlink:href="#DejaVuSans-30" x="147.412109"/>
       <use xlink:href="#DejaVuSans-30" x="211.035156"/>
      </g>
     </g>
    </g>
    <g id="ytick_3">
     <g id="line2d_7">
      <g>
       <use xlink:href="#ma15aaf3072" x="121.395781" y="162.91" style="stroke: #000000; stroke-width: 0.8"/>
      </g>
     </g>
     <g id="text_8">
      <!-- 0 -->
      <g transform="translate(97.217031 173.167891) scale(0.27 -0.27)">
       <use xlink:href="#DejaVuSans-30"/>
      </g>
     </g>
    </g>
    <g id="ytick_4">
     <g id="line2d_8">
      <g>
       <use xlink:href="#ma15aaf3072" x="121.395781" y="100.850299" style="stroke: #000000; stroke-width: 0.8"/>
      </g>
     </g>
     <g id="text_9">
      <!-- 100 -->
      <g transform="translate(62.859531 111.108189) scale(0.27 -0.27)">
       <use xlink:href="#DejaVuSans-31"/>
       <use xlink:href="#DejaVuSans-30" x="63.623047"/>
       <use xlink:href="#DejaVuSans-30" x="127.246094"/>
      </g>
     </g>
    </g>
    <g id="ytick_5">
     <g id="line2d_9">
      <g>
       <use xlink:href="#ma15aaf3072" x="121.395781" y="38.790597" style="stroke: #000000; stroke-width: 0.8"/>
      </g>
     </g>
     <g id="text_10">
      <!-- 200 -->
      <g transform="translate(62.859531 49.048488) scale(0.27 -0.27)">
       <use xlink:href="#DejaVuSans-32"/>
       <use xlink:href="#DejaVuSans-30" x="63.623047"/>
       <use xlink:href="#DejaVuSans-30" x="127.246094"/>
      </g>
     </g>
    </g>
    <g id="text_11">
     <!-- mT/m -->
     <g transform="translate(29.995313 206.346719) rotate(-90) scale(0.3 -0.3)">
      <defs>
       <path id="DejaVuSans-2f" d="M 1625 4666 
L 2156 4666 
L 531 -594 
L 0 -594 
L 1625 4666 
z
" transform="scale(0.015625)"/>
      </defs>
      <use xlink:href="#DejaVuSans-6d"/>
      <use xlink:href="#DejaVuSans-54" x="97.412109"/>
      <use xlink:href="#DejaVuSans-2f" x="158.496094"/>
      <use xlink:href="#DejaVuSans-6d" x="192.1875"/>
     </g>
    </g>
   </g>
   <g id="line2d_10">
    <path d="M 121.395781 162.91 
L 531.354965 162.91 
" clip-path="url(#pdb80d85aba)" style="fill: none; stroke: #d3d3d3; stroke-opacity: 0.8; stroke-width: 1.5; stroke-linecap: square"/>
   </g>
   <g id="line2d_11">
    <path d="M 121.395781 162.91 
L 133.694557 162.91 
L 134.514475 138.334288 
L 135.334393 121.004661 
L 136.154312 108.28271 
L 136.97423 101.950535 
L 143.533577 62.276761 
L 145.993332 47.6659 
L 146.813251 46.713739 
L 152.552679 46.764992 
L 155.832353 47.19648 
L 159.112026 47.616148 
L 159.931945 52.544179 
L 160.751863 63.641313 
L 162.3917 90.56521 
L 163.211618 102.923319 
L 164.851455 123.975538 
L 166.491291 137.417144 
L 167.31121 141.689815 
L 168.131128 147.050576 
L 168.951047 151.57261 
L 169.770965 156.743781 
L 170.590883 161.193647 
L 172.23072 171.185465 
L 186.989251 256.808595 
L 187.809169 260.211179 
L 191.908761 260.211183 
L 192.728679 256.676456 
L 193.548598 241.019087 
L 194.368516 228.032389 
L 196.828271 198.923626 
L 200.107945 162.91 
L 230.444924 162.91 
L 231.264842 140.601914 
L 232.904679 120.085957 
L 234.544516 101.322124 
L 237.004271 86.250656 
L 241.103863 61.905131 
L 241.923781 61.67605 
L 244.383536 61.677537 
L 245.203455 78.224096 
L 246.023373 92.523151 
L 247.66321 112.217638 
L 250.122965 138.383498 
L 252.58272 162.91 
L 252.58272 162.91 
" clip-path="url(#pdb80d85aba)" style="fill: none; stroke: #000000; stroke-width: 5; stroke-linecap: square"/>
   </g>
   <g id="line2d_12">
    <path d="M 252.58272 162.91 
L 254.673512 162.91 
L 255.616418 184.261831 
L 255.657414 183.33349 
L 257.584222 141.558169 
L 258.445136 141.558169 
L 260.41294 184.261831 
L 261.273855 184.261831 
L 263.241659 141.558169 
L 264.102573 141.558169 
L 266.070377 184.261831 
L 266.931291 184.261831 
L 268.899096 141.558169 
L 269.76001 141.558169 
L 271.727814 184.261831 
L 272.588728 184.261831 
L 274.556532 141.558169 
L 275.417447 141.558169 
L 277.385251 184.261831 
L 278.246165 184.261831 
L 280.213969 141.558169 
L 281.074883 141.558169 
L 283.042687 184.261831 
L 283.903602 184.261831 
L 285.871406 141.558169 
L 286.73232 141.558169 
L 288.700124 184.261831 
L 289.561038 184.261831 
L 291.528842 141.558169 
L 292.389757 141.558169 
L 294.357561 184.261831 
L 295.218475 184.261831 
L 297.186279 141.558169 
L 298.047193 141.558169 
L 300.014998 184.261831 
L 300.875912 184.261831 
L 302.843716 141.558169 
L 303.70463 141.558169 
L 305.672434 184.261831 
L 306.533349 184.261831 
L 308.501153 141.558169 
L 309.362067 141.558169 
L 311.329871 184.261831 
L 312.190785 184.261831 
L 314.158589 141.558169 
L 315.019504 141.558169 
L 316.987308 184.261831 
L 317.848222 184.261831 
L 319.816026 141.558169 
L 320.67694 141.558169 
L 322.644745 184.261831 
L 323.505659 184.261831 
L 325.473463 141.558169 
L 326.334377 141.558169 
L 328.302181 184.261831 
L 329.163096 184.261831 
L 331.1309 141.558169 
L 331.991814 141.558169 
L 333.959618 184.261831 
L 334.820532 184.261831 
L 336.788336 141.558169 
L 337.649251 141.558169 
L 339.617055 184.261831 
L 340.477969 184.261831 
L 342.445773 141.558169 
L 343.306687 141.558169 
L 345.274491 184.261831 
L 346.135406 184.261831 
L 348.10321 141.558169 
L 348.964124 141.558169 
L 350.931928 184.261831 
L 351.792842 184.261831 
L 353.760647 141.558169 
L 354.621561 141.558169 
L 356.589365 184.261831 
L 357.450279 184.261831 
L 359.418083 141.558169 
L 360.278998 141.558169 
L 362.246802 184.261831 
L 363.107716 184.261831 
L 365.07552 141.558169 
L 365.936434 141.558169 
L 367.904238 184.261831 
L 368.765153 184.261831 
L 370.732957 141.558169 
L 371.593871 141.558169 
L 373.561675 184.261831 
L 374.422589 184.261831 
L 376.390393 141.558169 
L 377.251308 141.558169 
L 379.219112 184.261831 
L 380.080026 184.261831 
L 382.04783 141.558169 
L 382.908745 141.558169 
L 384.876549 184.261831 
L 385.737463 184.261831 
L 387.705267 141.558169 
L 388.566181 141.558169 
L 390.533985 184.261831 
L 391.3949 184.261831 
L 393.362704 141.558169 
L 394.223618 141.558169 
L 396.191422 184.261831 
L 397.052336 184.261831 
L 399.02014 141.558169 
L 399.881055 141.558169 
L 401.848859 184.261831 
L 402.709773 184.261831 
L 404.677577 141.558169 
L 405.538491 141.558169 
L 407.506296 184.261831 
L 408.36721 184.261831 
L 410.335014 141.558169 
L 411.195928 141.558169 
L 412.17983 162.91 
L 412.17983 162.91 
" clip-path="url(#pdb80d85aba)" style="fill: none; stroke: #000000; stroke-opacity: 0.7; stroke-width: 5; stroke-linecap: square"/>
   </g>
   <g id="line2d_13">
    <path d="M 308.886514 287.65 
L 308.886514 38.17 
" clip-path="url(#pdb80d85aba)" style="fill: none; stroke-dasharray: 18.5,8; stroke-dashoffset: 0; stroke: #000000; stroke-width: 5"/>
   </g>
   <g id="line2d_14">
    <path d="M 121.395781 38.790597 
L 531.354965 38.790597 
" clip-path="url(#pdb80d85aba)" style="fill: none; stroke-dasharray: 18.5,8; stroke-dashoffset: 0; stroke: #000000; stroke-opacity: 0.2; stroke-width: 5"/>
   </g>
   <g id="line2d_15">
    <path d="M 121.395781 287.029403 
L 531.354965 287.029403 
" clip-path="url(#pdb80d85aba)" style="fill: none; stroke-dasharray: 18.5,8; stroke-dashoffset: 0; stroke: #000000; stroke-opacity: 0.2; stroke-width: 5"/>
   </g>
   <g id="line2d_16">
    <path d="M 121.395781 162.91 
L 531.354965 162.91 
" clip-path="url(#pdb80d85aba)" style="fill: none; stroke: #000000; stroke-width: 5; stroke-linecap: square"/>
   </g>
   <g id="patch_3">
    <path d="M 121.395781 287.65 
L 121.395781 38.17 
" style="fill: none; stroke: #000000; stroke-width: 0.8; stroke-linejoin: miter; stroke-linecap: square"/>
   </g>
   <g id="patch_4">
    <path d="M 121.395781 287.65 
L 531.354965 287.65 
" style="fill: none; stroke: #000000; stroke-width: 0.8; stroke-linejoin: miter; stroke-linecap: square"/>
   </g>
   <g id="text_12">
    <!-- $G(t)$ -->
    <g transform="translate(295.175373 31.515) scale(0.32 -0.32)">
     <defs>
      <path id="DejaVuSans-Oblique-47" d="M 3494 697 
L 3738 1919 
L 2700 1919 
L 2797 2438 
L 4453 2438 
L 4050 384 
Q 3634 156 3143 32 
Q 2653 -91 2156 -91 
Q 1278 -91 783 396 
Q 288 884 288 1753 
Q 288 2475 589 3126 
Q 891 3778 1422 4213 
Q 1756 4484 2153 4617 
Q 2550 4750 3034 4750 
Q 3472 4750 3873 4639 
Q 4275 4528 4641 4306 
L 4513 3634 
Q 4231 3928 3853 4083 
Q 3475 4238 3047 4238 
Q 2550 4238 2172 4048 
Q 1794 3859 1497 3463 
Q 1244 3125 1098 2667 
Q 953 2209 953 1734 
Q 953 1081 1287 751 
Q 1622 422 2284 422 
Q 2616 422 2925 492 
Q 3234 563 3494 697 
z
" transform="scale(0.015625)"/>
      <path id="DejaVuSans-28" d="M 1984 4856 
Q 1566 4138 1362 3434 
Q 1159 2731 1159 2009 
Q 1159 1288 1364 580 
Q 1569 -128 1984 -844 
L 1484 -844 
Q 1016 -109 783 600 
Q 550 1309 550 2009 
Q 550 2706 781 3412 
Q 1013 4119 1484 4856 
L 1984 4856 
z
" transform="scale(0.015625)"/>
      <path id="DejaVuSans-Oblique-74" d="M 2706 3500 
L 2619 3053 
L 1472 3053 
L 1100 1153 
Q 1081 1047 1072 975 
Q 1063 903 1063 863 
Q 1063 663 1183 572 
Q 1303 481 1569 481 
L 2150 481 
L 2053 0 
L 1503 0 
Q 991 0 739 200 
Q 488 400 488 806 
Q 488 878 497 964 
Q 506 1050 525 1153 
L 897 3053 
L 409 3053 
L 500 3500 
L 978 3500 
L 1172 4494 
L 1747 4494 
L 1556 3500 
L 2706 3500 
z
" transform="scale(0.015625)"/>
      <path id="DejaVuSans-29" d="M 513 4856 
L 1013 4856 
Q 1481 4119 1714 3412 
Q 1947 2706 1947 2009 
Q 1947 1309 1714 600 
Q 1481 -109 1013 -844 
L 513 -844 
Q 928 -128 1133 580 
Q 1338 1288 1338 2009 
Q 1338 2731 1133 3434 
Q 928 4138 513 4856 
z
" transform="scale(0.015625)"/>
     </defs>
     <use xlink:href="#DejaVuSans-Oblique-47" transform="translate(0 0.125)"/>
     <use xlink:href="#DejaVuSans-28" transform="translate(77.490234 0.125)"/>
     <use xlink:href="#DejaVuSans-Oblique-74" transform="translate(116.503906 0.125)"/>
     <use xlink:href="#DejaVuSans-29" transform="translate(155.712891 0.125)"/>
    </g>
   </g>
   <g id="legend_1">
    <g id="patch_5">
     <path d="M 507.154965 66.77 
L 515.954965 66.77 
Q 520.354965 66.77 520.354965 62.37 
L 520.354965 53.57 
Q 520.354965 49.17 515.954965 49.17 
L 507.154965 49.17 
Q 502.754965 49.17 502.754965 53.57 
L 502.754965 62.37 
Q 502.754965 66.77 507.154965 66.77 
z
" style="fill: #ffffff; opacity: 0.8; stroke: #cccccc; stroke-linejoin: miter"/>
    </g>
   </g>
  </g>
  <g id="axes_2">
   <g id="patch_6">
    <path d="M 654.34272 287.65 
L 1064.301904 287.65 
L 1064.301904 38.17 
L 654.34272 38.17 
z
" style="fill: #ffffff"/>
   </g>
   <g id="matplotlib.axis_3">
    <g id="xtick_5">
     <g id="line2d_17">
      <g>
       <use xlink:href="#m9dfb453ad0" x="654.34272" y="287.65" style="stroke: #000000; stroke-width: 0.8"/>
      </g>
     </g>
     <g id="text_13">
      <!-- 0 -->
      <g transform="translate(645.753345 315.165781) scale(0.27 -0.27)">
       <use xlink:href="#DejaVuSans-30"/>
      </g>
     </g>
    </g>
    <g id="xtick_6">
     <g id="line2d_18">
      <g>
       <use xlink:href="#m9dfb453ad0" x="756.832516" y="287.65" style="stroke: #000000; stroke-width: 0.8"/>
      </g>
     </g>
     <g id="text_14">
      <!-- 25 -->
      <g transform="translate(739.653766 315.165781) scale(0.27 -0.27)">
       <use xlink:href="#DejaVuSans-32"/>
       <use xlink:href="#DejaVuSans-35" x="63.623047"/>
      </g>
     </g>
    </g>
    <g id="xtick_7">
     <g id="line2d_19">
      <g>
       <use xlink:href="#m9dfb453ad0" x="859.322312" y="287.65" style="stroke: #000000; stroke-width: 0.8"/>
      </g>
     </g>
     <g id="text_15">
      <!-- 50 -->
      <g transform="translate(842.143562 315.165781) scale(0.27 -0.27)">
       <use xlink:href="#DejaVuSans-35"/>
       <use xlink:href="#DejaVuSans-30" x="63.623047"/>
      </g>
     </g>
    </g>
    <g id="xtick_8">
     <g id="line2d_20">
      <g>
       <use xlink:href="#m9dfb453ad0" x="961.812108" y="287.65" style="stroke: #000000; stroke-width: 0.8"/>
      </g>
     </g>
     <g id="text_16">
      <!-- 75 -->
      <g transform="translate(944.633358 315.165781) scale(0.27 -0.27)">
       <use xlink:href="#DejaVuSans-37"/>
       <use xlink:href="#DejaVuSans-35" x="63.623047"/>
      </g>
     </g>
    </g>
    <g id="text_17">
     <!-- Time [ms] -->
     <g transform="translate(783.724656 347.57625) scale(0.3 -0.3)">
      <use xlink:href="#DejaVuSans-54"/>
      <use xlink:href="#DejaVuSans-69" x="57.958984"/>
      <use xlink:href="#DejaVuSans-6d" x="85.742188"/>
      <use xlink:href="#DejaVuSans-65" x="183.154297"/>
      <use xlink:href="#DejaVuSans-20" x="244.677734"/>
      <use xlink:href="#DejaVuSans-5b" x="276.464844"/>
      <use xlink:href="#DejaVuSans-6d" x="315.478516"/>
      <use xlink:href="#DejaVuSans-73" x="412.890625"/>
      <use xlink:href="#DejaVuSans-5d" x="464.990234"/>
     </g>
    </g>
   </g>
   <g id="matplotlib.axis_4">
    <g id="ytick_6">
     <g id="line2d_21">
      <g>
       <use xlink:href="#ma15aaf3072" x="654.34272" y="287.029403" style="stroke: #000000; stroke-width: 0.8"/>
      </g>
     </g>
     <g id="text_18">
      <!-- −200 -->
      <g transform="translate(573.181314 297.287294) scale(0.27 -0.27)">
       <use xlink:href="#DejaVuSans-2212"/>
       <use xlink:href="#DejaVuSans-32" x="83.789062"/>
       <use xlink:href="#DejaVuSans-30" x="147.412109"/>
       <use xlink:href="#DejaVuSans-30" x="211.035156"/>
      </g>
     </g>
    </g>
    <g id="ytick_7">
     <g id="line2d_22">
      <g>
       <use xlink:href="#ma15aaf3072" x="654.34272" y="224.969701" style="stroke: #000000; stroke-width: 0.8"/>
      </g>
     </g>
     <g id="text_19">
      <!-- −100 -->
      <g transform="translate(573.181314 235.227592) scale(0.27 -0.27)">
       <use xlink:href="#DejaVuSans-2212"/>
       <use xlink:href="#DejaVuSans-31" x="83.789062"/>
       <use xlink:href="#DejaVuSans-30" x="147.412109"/>
       <use xlink:href="#DejaVuSans-30" x="211.035156"/>
      </g>
     </g>
    </g>
    <g id="ytick_8">
     <g id="line2d_23">
      <g>
       <use xlink:href="#ma15aaf3072" x="654.34272" y="162.91" style="stroke: #000000; stroke-width: 0.8"/>
      </g>
     </g>
     <g id="text_20">
      <!-- 0 -->
      <g transform="translate(630.16397 173.167891) scale(0.27 -0.27)">
       <use xlink:href="#DejaVuSans-30"/>
      </g>
     </g>
    </g>
    <g id="ytick_9">
     <g id="line2d_24">
      <g>
       <use xlink:href="#ma15aaf3072" x="654.34272" y="100.850299" style="stroke: #000000; stroke-width: 0.8"/>
      </g>
     </g>
     <g id="text_21">
      <!-- 100 -->
      <g transform="translate(595.80647 111.108189) scale(0.27 -0.27)">
       <use xlink:href="#DejaVuSans-31"/>
       <use xlink:href="#DejaVuSans-30" x="63.623047"/>
       <use xlink:href="#DejaVuSans-30" x="127.246094"/>
      </g>
     </g>
    </g>
    <g id="ytick_10">
     <g id="line2d_25">
      <g>
       <use xlink:href="#ma15aaf3072" x="654.34272" y="38.790597" style="stroke: #000000; stroke-width: 0.8"/>
      </g>
     </g>
     <g id="text_22">
      <!-- 200 -->
      <g transform="translate(595.80647 49.048488) scale(0.27 -0.27)">
       <use xlink:href="#DejaVuSans-32"/>
       <use xlink:href="#DejaVuSans-30" x="63.623047"/>
       <use xlink:href="#DejaVuSans-30" x="127.246094"/>
      </g>
     </g>
    </g>
    <g id="text_23">
     <!-- T/m/s -->
     <g transform="translate(562.942251 204.602969) rotate(-90) scale(0.3 -0.3)">
      <use xlink:href="#DejaVuSans-54"/>
      <use xlink:href="#DejaVuSans-2f" x="61.083984"/>
      <use xlink:href="#DejaVuSans-6d" x="94.775391"/>
      <use xlink:href="#DejaVuSans-2f" x="192.1875"/>
      <use xlink:href="#DejaVuSans-73" x="225.878906"/>
     </g>
    </g>
   </g>
   <g id="line2d_26">
    <path d="M 654.34272 162.91 
L 1064.301904 162.91 
" clip-path="url(#p452984620f)" style="fill: none; stroke: #d3d3d3; stroke-opacity: 0.8; stroke-width: 1.5; stroke-linecap: square"/>
   </g>
   <g id="line2d_27">
    <path d="M 654.34272 162.91 
L 665.821577 162.91 
L 666.641496 40.031442 
L 667.461414 76.261863 
L 668.281332 99.300247 
L 669.101251 131.249122 
L 669.921169 137.722535 
L 673.200842 138.189079 
L 677.300434 138.567245 
L 678.120353 138.607659 
L 678.940271 158.149192 
L 679.760189 162.907801 
L 683.859781 163.010641 
L 684.6797 163.062064 
L 685.499618 163.570867 
L 686.319536 163.289419 
L 687.139455 163.58454 
L 687.959373 163.352613 
L 689.59921 163.50045 
L 690.419128 163.124048 
L 691.239047 163.663016 
L 692.058965 187.550154 
L 692.878883 218.395668 
L 693.698802 234.215613 
L 694.51872 226.223874 
L 695.338638 224.700547 
L 696.158557 215.822063 
L 696.978475 215.259032 
L 697.798393 197.653561 
L 698.618312 195.374466 
L 699.43823 184.273356 
L 700.258149 189.713808 
L 701.078067 185.520168 
L 701.897985 188.765858 
L 702.717904 185.159329 
L 703.537822 188.785246 
L 704.35774 186.993844 
L 705.177659 186.713576 
L 705.997577 187.411271 
L 706.817496 185.574329 
L 707.637414 188.112308 
L 708.457332 186.978114 
L 709.277251 184.729025 
L 710.097169 188.721475 
L 710.917087 186.770226 
L 711.737006 185.549493 
L 712.556924 188.169016 
L 713.376842 184.835249 
L 714.196761 188.539581 
L 715.016679 184.645642 
L 715.836598 188.005457 
L 716.656516 187.314478 
L 717.476434 183.251027 
L 718.296353 189.580829 
L 719.116271 185.594557 
L 719.936189 179.922919 
L 720.756108 162.911537 
L 724.035781 162.90214 
L 724.8557 145.236367 
L 725.675618 84.623154 
L 727.315455 112.154626 
L 728.135373 114.255055 
L 728.955291 116.776504 
L 729.77521 117.051862 
L 730.595128 116.22696 
L 731.415047 118.743264 
L 732.234965 119.549784 
L 733.054883 162.91 
L 762.571945 162.91 
L 763.391863 51.369569 
L 764.211781 110.086264 
L 765.0317 113.15395 
L 765.851618 115.240087 
L 766.671536 116.76075 
L 767.491455 136.702725 
L 768.311373 138.296973 
L 773.230883 138.669315 
L 774.050802 161.764597 
L 774.87072 162.914058 
L 776.510557 162.914896 
L 777.330475 245.642793 
L 778.150393 234.405274 
L 778.970312 214.588034 
L 779.79023 209.704402 
L 780.610149 207.838271 
L 781.430067 206.413459 
L 782.249985 205.307569 
L 783.069904 204.439672 
L 784.70974 203.179592 
L 784.70974 203.179592 
" clip-path="url(#p452984620f)" style="fill: none; stroke: #000000; stroke-width: 5; stroke-linecap: square"/>
   </g>
   <g id="line2d_28">
    <path d="M 654.34272 38.790597 
L 1064.301904 38.790597 
" clip-path="url(#p452984620f)" style="fill: none; stroke-dasharray: 18.5,8; stroke-dashoffset: 0; stroke: #000000; stroke-opacity: 0.2; stroke-width: 5"/>
   </g>
   <g id="line2d_29">
    <path d="M 654.34272 287.029403 
L 1064.301904 287.029403 
" clip-path="url(#p452984620f)" style="fill: none; stroke-dasharray: 18.5,8; stroke-dashoffset: 0; stroke: #000000; stroke-opacity: 0.2; stroke-width: 5"/>
   </g>
   <g id="line2d_30">
    <path d="M 654.34272 162.91 
L 1064.301904 162.91 
" clip-path="url(#p452984620f)" style="fill: none; stroke: #000000; stroke-width: 5; stroke-linecap: square"/>
   </g>
   <g id="patch_7">
    <path d="M 654.34272 287.65 
L 654.34272 38.17 
" style="fill: none; stroke: #000000; stroke-width: 0.8; stroke-linejoin: miter; stroke-linecap: square"/>
   </g>
   <g id="patch_8">
    <path d="M 654.34272 287.65 
L 1064.301904 287.65 
" style="fill: none; stroke: #000000; stroke-width: 0.8; stroke-linejoin: miter; stroke-linecap: square"/>
   </g>
   <g id="text_24">
    <!-- $S(t)$ -->
    <g transform="translate(830.362312 31.515) scale(0.32 -0.32)">
     <defs>
      <path id="DejaVuSans-Oblique-53" d="M 3859 4513 
L 3738 3897 
Q 3422 4066 3111 4152 
Q 2800 4238 2509 4238 
Q 1944 4238 1609 3991 
Q 1275 3744 1275 3334 
Q 1275 3109 1398 2989 
Q 1522 2869 2034 2731 
L 2413 2638 
Q 3053 2472 3303 2217 
Q 3553 1963 3553 1503 
Q 3553 797 2998 353 
Q 2444 -91 1538 -91 
Q 1166 -91 791 -17 
Q 416 56 38 206 
L 166 856 
Q 513 641 861 531 
Q 1209 422 1556 422 
Q 2147 422 2503 684 
Q 2859 947 2859 1369 
Q 2859 1650 2717 1795 
Q 2575 1941 2106 2059 
L 1728 2156 
Q 1081 2325 845 2545 
Q 609 2766 609 3163 
Q 609 3859 1145 4304 
Q 1681 4750 2541 4750 
Q 2875 4750 3203 4690 
Q 3531 4631 3859 4513 
z
" transform="scale(0.015625)"/>
     </defs>
     <use xlink:href="#DejaVuSans-Oblique-53" transform="translate(0 0.125)"/>
     <use xlink:href="#DejaVuSans-28" transform="translate(63.476562 0.125)"/>
     <use xlink:href="#DejaVuSans-Oblique-74" transform="translate(102.490234 0.125)"/>
     <use xlink:href="#DejaVuSans-29" transform="translate(141.699219 0.125)"/>
    </g>
   </g>
  </g>
  <g id="axes_3">
   <g id="patch_9">
    <path d="M 1187.289659 287.65 
L 1597.248842 287.65 
L 1597.248842 38.17 
L 1187.289659 38.17 
z
" style="fill: #ffffff"/>
   </g>
   <g id="matplotlib.axis_5">
    <g id="xtick_9">
     <g id="line2d_31">
      <g>
       <use xlink:href="#m9dfb453ad0" x="1187.289659" y="287.65" style="stroke: #000000; stroke-width: 0.8"/>
      </g>
     </g>
     <g id="text_25">
      <!-- 0 -->
      <g transform="translate(1178.700284 315.165781) scale(0.27 -0.27)">
       <use xlink:href="#DejaVuSans-30"/>
      </g>
     </g>
    </g>
    <g id="xtick_10">
     <g id="line2d_32">
      <g>
       <use xlink:href="#m9dfb453ad0" x="1289.779455" y="287.65" style="stroke: #000000; stroke-width: 0.8"/>
      </g>
     </g>
     <g id="text_26">
      <!-- 25 -->
      <g transform="translate(1272.600705 315.165781) scale(0.27 -0.27)">
       <use xlink:href="#DejaVuSans-32"/>
       <use xlink:href="#DejaVuSans-35" x="63.623047"/>
      </g>
     </g>
    </g>
    <g id="xtick_11">
     <g id="line2d_33">
      <g>
       <use xlink:href="#m9dfb453ad0" x="1392.269251" y="287.65" style="stroke: #000000; stroke-width: 0.8"/>
      </g>
     </g>
     <g id="text_27">
      <!-- 50 -->
      <g transform="translate(1375.090501 315.165781) scale(0.27 -0.27)">
       <use xlink:href="#DejaVuSans-35"/>
       <use xlink:href="#DejaVuSans-30" x="63.623047"/>
      </g>
     </g>
    </g>
    <g id="xtick_12">
     <g id="line2d_34">
      <g>
       <use xlink:href="#m9dfb453ad0" x="1494.759047" y="287.65" style="stroke: #000000; stroke-width: 0.8"/>
      </g>
     </g>
     <g id="text_28">
      <!-- 75 -->
      <g transform="translate(1477.580297 315.165781) scale(0.27 -0.27)">
       <use xlink:href="#DejaVuSans-37"/>
       <use xlink:href="#DejaVuSans-35" x="63.623047"/>
      </g>
     </g>
    </g>
    <g id="text_29">
     <!-- Time [ms] -->
     <g transform="translate(1316.671594 347.57625) scale(0.3 -0.3)">
      <use xlink:href="#DejaVuSans-54"/>
      <use xlink:href="#DejaVuSans-69" x="57.958984"/>
      <use xlink:href="#DejaVuSans-6d" x="85.742188"/>
      <use xlink:href="#DejaVuSans-65" x="183.154297"/>
      <use xlink:href="#DejaVuSans-20" x="244.677734"/>
      <use xlink:href="#DejaVuSans-5b" x="276.464844"/>
      <use xlink:href="#DejaVuSans-6d" x="315.478516"/>
      <use xlink:href="#DejaVuSans-73" x="412.890625"/>
      <use xlink:href="#DejaVuSans-5d" x="464.990234"/>
     </g>
    </g>
   </g>
   <g id="matplotlib.axis_6">
    <g id="ytick_11">
     <g id="line2d_35">
      <g>
       <use xlink:href="#ma15aaf3072" x="1187.289659" y="287.65" style="stroke: #000000; stroke-width: 0.8"/>
      </g>
     </g>
     <g id="text_30">
      <!-- 0.00 -->
      <g transform="translate(1120.172471 297.907891) scale(0.27 -0.27)">
       <defs>
        <path id="DejaVuSans-2e" d="M 684 794 
L 1344 794 
L 1344 0 
L 684 0 
L 684 794 
z
" transform="scale(0.015625)"/>
       </defs>
       <use xlink:href="#DejaVuSans-30"/>
       <use xlink:href="#DejaVuSans-2e" x="63.623047"/>
       <use xlink:href="#DejaVuSans-30" x="95.410156"/>
       <use xlink:href="#DejaVuSans-30" x="159.033203"/>
      </g>
     </g>
    </g>
    <g id="ytick_12">
     <g id="line2d_36">
      <g>
       <use xlink:href="#ma15aaf3072" x="1187.289659" y="225.28" style="stroke: #000000; stroke-width: 0.8"/>
      </g>
     </g>
     <g id="text_31">
      <!-- 0.25 -->
      <g transform="translate(1120.172471 235.537891) scale(0.27 -0.27)">
       <use xlink:href="#DejaVuSans-30"/>
       <use xlink:href="#DejaVuSans-2e" x="63.623047"/>
       <use xlink:href="#DejaVuSans-32" x="95.410156"/>
       <use xlink:href="#DejaVuSans-35" x="159.033203"/>
      </g>
     </g>
    </g>
    <g id="ytick_13">
     <g id="line2d_37">
      <g>
       <use xlink:href="#ma15aaf3072" x="1187.289659" y="162.91" style="stroke: #000000; stroke-width: 0.8"/>
      </g>
     </g>
     <g id="text_32">
      <!-- 0.50 -->
      <g transform="translate(1120.172471 173.167891) scale(0.27 -0.27)">
       <use xlink:href="#DejaVuSans-30"/>
       <use xlink:href="#DejaVuSans-2e" x="63.623047"/>
       <use xlink:href="#DejaVuSans-35" x="95.410156"/>
       <use xlink:href="#DejaVuSans-30" x="159.033203"/>
      </g>
     </g>
    </g>
    <g id="ytick_14">
     <g id="line2d_38">
      <g>
       <use xlink:href="#ma15aaf3072" x="1187.289659" y="100.54" style="stroke: #000000; stroke-width: 0.8"/>
      </g>
     </g>
     <g id="text_33">
      <!-- 0.75 -->
      <g transform="translate(1120.172471 110.797891) scale(0.27 -0.27)">
       <use xlink:href="#DejaVuSans-30"/>
       <use xlink:href="#DejaVuSans-2e" x="63.623047"/>
       <use xlink:href="#DejaVuSans-37" x="95.410156"/>
       <use xlink:href="#DejaVuSans-35" x="159.033203"/>
      </g>
     </g>
    </g>
    <g id="ytick_15">
     <g id="line2d_39">
      <g>
       <use xlink:href="#ma15aaf3072" x="1187.289659" y="38.17" style="stroke: #000000; stroke-width: 0.8"/>
      </g>
     </g>
     <g id="text_34">
      <!-- 1.00 -->
      <g transform="translate(1120.172471 48.427891) scale(0.27 -0.27)">
       <use xlink:href="#DejaVuSans-31"/>
       <use xlink:href="#DejaVuSans-2e" x="63.623047"/>
       <use xlink:href="#DejaVuSans-30" x="95.410156"/>
       <use xlink:href="#DejaVuSans-30" x="159.033203"/>
      </g>
     </g>
    </g>
    <g id="text_35">
     <!-- unitless -->
     <g transform="translate(1109.933409 220.995156) rotate(-90) scale(0.3 -0.3)">
      <defs>
       <path id="DejaVuSans-75" d="M 544 1381 
L 544 3500 
L 1119 3500 
L 1119 1403 
Q 1119 906 1312 657 
Q 1506 409 1894 409 
Q 2359 409 2629 706 
Q 2900 1003 2900 1516 
L 2900 3500 
L 3475 3500 
L 3475 0 
L 2900 0 
L 2900 538 
Q 2691 219 2414 64 
Q 2138 -91 1772 -91 
Q 1169 -91 856 284 
Q 544 659 544 1381 
z
M 1991 3584 
L 1991 3584 
z
" transform="scale(0.015625)"/>
       <path id="DejaVuSans-6e" d="M 3513 2113 
L 3513 0 
L 2938 0 
L 2938 2094 
Q 2938 2591 2744 2837 
Q 2550 3084 2163 3084 
Q 1697 3084 1428 2787 
Q 1159 2491 1159 1978 
L 1159 0 
L 581 0 
L 581 3500 
L 1159 3500 
L 1159 2956 
Q 1366 3272 1645 3428 
Q 1925 3584 2291 3584 
Q 2894 3584 3203 3211 
Q 3513 2838 3513 2113 
z
" transform="scale(0.015625)"/>
       <path id="DejaVuSans-74" d="M 1172 4494 
L 1172 3500 
L 2356 3500 
L 2356 3053 
L 1172 3053 
L 1172 1153 
Q 1172 725 1289 603 
Q 1406 481 1766 481 
L 2356 481 
L 2356 0 
L 1766 0 
Q 1100 0 847 248 
Q 594 497 594 1153 
L 594 3053 
L 172 3053 
L 172 3500 
L 594 3500 
L 594 4494 
L 1172 4494 
z
" transform="scale(0.015625)"/>
       <path id="DejaVuSans-6c" d="M 603 4863 
L 1178 4863 
L 1178 0 
L 603 0 
L 603 4863 
z
" transform="scale(0.015625)"/>
      </defs>
      <use xlink:href="#DejaVuSans-75"/>
      <use xlink:href="#DejaVuSans-6e" x="63.378906"/>
      <use xlink:href="#DejaVuSans-69" x="126.757812"/>
      <use xlink:href="#DejaVuSans-74" x="154.541016"/>
      <use xlink:href="#DejaVuSans-6c" x="193.75"/>
      <use xlink:href="#DejaVuSans-65" x="221.533203"/>
      <use xlink:href="#DejaVuSans-73" x="283.056641"/>
      <use xlink:href="#DejaVuSans-73" x="335.15625"/>
     </g>
    </g>
   </g>
   <g id="line2d_40">
    <path d="M 1187.289659 287.65 
L 1597.248842 287.65 
" clip-path="url(#p9580220959)" style="fill: none; stroke: #d3d3d3; stroke-opacity: 0.8; stroke-width: 1.5; stroke-linecap: square"/>
   </g>
   <g id="line2d_41">
    <path d="M 1187.289659 287.65 
L 1199.588434 287.65 
L 1200.408353 146.720952 
L 1201.228271 106.594807 
L 1202.048189 106.522731 
L 1202.868108 139.678068 
L 1203.688026 163.601546 
L 1204.507945 176.204774 
L 1205.327863 183.010351 
L 1206.147781 186.782565 
L 1206.9677 188.917615 
L 1207.787618 190.130582 
L 1208.607536 190.796286 
L 1209.427455 191.119261 
L 1210.247373 191.212835 
L 1211.067291 191.153232 
L 1211.88721 190.95757 
L 1212.707128 213.034959 
L 1213.527047 231.055582 
L 1214.346965 241.775295 
L 1215.166883 248.565245 
L 1215.986802 253.152612 
L 1216.80672 256.439816 
L 1217.626638 259.016891 
L 1218.446557 261.056466 
L 1219.266475 262.089415 
L 1220.086393 263.32846 
L 1222.546149 265.943382 
L 1223.366067 266.590185 
L 1224.185985 267.426336 
L 1225.005904 267.712777 
L 1225.825822 240.934456 
L 1227.465659 141.229965 
L 1228.285577 120.732036 
L 1229.105496 108.254465 
L 1229.925414 108.903837 
L 1230.745332 107.819472 
L 1231.565251 125.709644 
L 1232.385169 137.300263 
L 1233.205087 156.001699 
L 1234.025006 160.202302 
L 1234.844924 167.482986 
L 1235.664842 168.025252 
L 1236.484761 172.605329 
L 1237.304679 171.148113 
L 1238.124598 172.440133 
L 1238.944516 173.486469 
L 1239.764434 173.254725 
L 1240.584353 175.176421 
L 1241.404271 173.292637 
L 1242.224189 173.439332 
L 1243.044108 175.975446 
L 1243.864026 172.735612 
L 1244.683945 173.019616 
L 1245.503863 174.419329 
L 1246.323781 172.074951 
L 1247.1437 174.425488 
L 1247.963618 171.368815 
L 1248.783536 173.957921 
L 1249.603455 171.42692 
L 1250.423373 170.648327 
L 1251.243291 174.69358 
L 1252.06321 169.609406 
L 1252.883128 171.172675 
L 1253.703047 178.395481 
L 1254.522965 201.959761 
L 1255.342883 215.657948 
L 1256.162802 224.154634 
L 1256.98272 229.793923 
L 1257.802638 233.827726 
L 1258.622557 226.348504 
L 1259.442475 149.896665 
L 1260.262393 117.051648 
L 1261.082312 112.079125 
L 1261.90223 109.197791 
L 1262.722149 108.46115 
L 1263.542067 106.763776 
L 1264.361985 103.567387 
L 1266.001822 103.527046 
L 1266.82174 152.472632 
L 1267.641659 180.186972 
L 1268.461577 196.811213 
L 1269.281496 207.464517 
L 1270.101414 214.768154 
L 1270.921332 220.093359 
L 1271.741251 224.179774 
L 1272.561169 227.443188 
L 1273.381087 230.129627 
L 1275.020924 234.336578 
L 1276.660761 237.529103 
L 1278.300598 240.083774 
L 1279.940434 242.220287 
L 1282.400189 244.924034 
L 1284.859945 247.249943 
L 1288.139618 249.993394 
L 1292.23921 253.05367 
L 1296.338802 255.821964 
L 1297.15872 128.420785 
L 1297.978638 122.135781 
L 1298.798557 119.279366 
L 1299.618475 117.774386 
L 1300.438393 116.835415 
L 1301.258312 137.696827 
L 1302.07823 150.415955 
L 1302.898149 157.371447 
L 1303.718067 161.332725 
L 1304.537985 163.683748 
L 1305.357904 165.139239 
L 1306.177822 166.069106 
L 1306.99774 166.667627 
L 1307.817659 193.489447 
L 1308.637577 210.319083 
L 1309.457496 220.623019 
L 1310.277414 227.390031 
L 1311.097332 161.697906 
L 1311.917251 117.476964 
L 1312.737169 112.252521 
L 1318.476598 111.134303 
L 1318.476598 111.134303 
" clip-path="url(#p9580220959)" style="fill: none; stroke: #000000; stroke-width: 5; stroke-linecap: square"/>
   </g>
   <g id="line2d_42">
    <path d="M 1187.289659 287.65 
L 1597.248842 287.65 
" clip-path="url(#p9580220959)" style="fill: none; stroke: #000000; stroke-width: 5; stroke-linecap: square"/>
   </g>
   <g id="line2d_43">
    <path d="M 1187.289659 107.358532 
L 1188.929496 106.691734 
L 1191.389251 106.035061 
L 1194.668924 105.480175 
L 1199.588434 104.920966 
L 1208.607536 104.164686 
L 1220.906312 103.36175 
L 1235.664842 102.630631 
L 1252.883128 102.013457 
L 1266.001822 101.668688 
L 1266.82174 122.698209 
L 1267.641659 174.521896 
L 1268.461577 141.145289 
L 1269.281496 179.820181 
L 1270.101414 141.245107 
L 1270.921332 123.783442 
L 1271.741251 116.735783 
L 1272.561169 113.624364 
L 1273.381087 112.051384 
L 1274.201006 111.118118 
L 1275.020924 110.479107 
L 1276.660761 109.604719 
L 1278.300598 108.997733 
L 1280.760353 108.339378 
L 1284.040026 107.698594 
L 1289.779455 106.846107 
L 1292.23921 106.531117 
L 1293.059128 131.248527 
L 1293.879047 209.069862 
L 1294.698965 129.550185 
L 1295.518883 172.547428 
L 1296.338802 142.298822 
L 1297.15872 126.814207 
L 1297.978638 120.465047 
L 1298.798557 117.580533 
L 1299.618475 116.059143 
L 1300.438393 115.111329 
L 1301.258312 114.432167 
L 1302.898149 113.452476 
L 1304.537985 112.731147 
L 1306.99774 111.89972 
L 1310.277414 111.034379 
L 1315.196924 109.976929 
L 1318.476598 109.357472 
L 1318.476598 109.357472 
" clip-path="url(#p9580220959)" style="fill: none; stroke-dasharray: 22.2,9.6; stroke-dashoffset: 0; stroke: #ff0000; stroke-width: 6"/>
   </g>
   <g id="line2d_44">
    <path d="M 1187.289659 75.592 
L 1597.248842 75.592 
" clip-path="url(#p9580220959)" style="fill: none; stroke-dasharray: 5,8.25; stroke-dashoffset: 0; stroke: #ff0000; stroke-opacity: 0.5; stroke-width: 5"/>
   </g>
   <g id="patch_10">
    <path d="M 1187.289659 287.65 
L 1187.289659 38.17 
" style="fill: none; stroke: #000000; stroke-width: 0.8; stroke-linejoin: miter; stroke-linecap: square"/>
   </g>
   <g id="patch_11">
    <path d="M 1187.289659 287.65 
L 1597.248842 287.65 
" style="fill: none; stroke: #000000; stroke-width: 0.8; stroke-linejoin: miter; stroke-linecap: square"/>
   </g>
   <g id="text_36">
    <!-- SAFE-PNS -->
    <g transform="translate(1314.006751 31.515) scale(0.32 -0.32)">
     <defs>
      <path id="DejaVuSans-53" d="M 3425 4513 
L 3425 3897 
Q 3066 4069 2747 4153 
Q 2428 4238 2131 4238 
Q 1616 4238 1336 4038 
Q 1056 3838 1056 3469 
Q 1056 3159 1242 3001 
Q 1428 2844 1947 2747 
L 2328 2669 
Q 3034 2534 3370 2195 
Q 3706 1856 3706 1288 
Q 3706 609 3251 259 
Q 2797 -91 1919 -91 
Q 1588 -91 1214 -16 
Q 841 59 441 206 
L 441 856 
Q 825 641 1194 531 
Q 1563 422 1919 422 
Q 2459 422 2753 634 
Q 3047 847 3047 1241 
Q 3047 1584 2836 1778 
Q 2625 1972 2144 2069 
L 1759 2144 
Q 1053 2284 737 2584 
Q 422 2884 422 3419 
Q 422 4038 858 4394 
Q 1294 4750 2059 4750 
Q 2388 4750 2728 4690 
Q 3069 4631 3425 4513 
z
" transform="scale(0.015625)"/>
      <path id="DejaVuSans-41" d="M 2188 4044 
L 1331 1722 
L 3047 1722 
L 2188 4044 
z
M 1831 4666 
L 2547 4666 
L 4325 0 
L 3669 0 
L 3244 1197 
L 1141 1197 
L 716 0 
L 50 0 
L 1831 4666 
z
" transform="scale(0.015625)"/>
      <path id="DejaVuSans-46" d="M 628 4666 
L 3309 4666 
L 3309 4134 
L 1259 4134 
L 1259 2759 
L 3109 2759 
L 3109 2228 
L 1259 2228 
L 1259 0 
L 628 0 
L 628 4666 
z
" transform="scale(0.015625)"/>
      <path id="DejaVuSans-45" d="M 628 4666 
L 3578 4666 
L 3578 4134 
L 1259 4134 
L 1259 2753 
L 3481 2753 
L 3481 2222 
L 1259 2222 
L 1259 531 
L 3634 531 
L 3634 0 
L 628 0 
L 628 4666 
z
" transform="scale(0.015625)"/>
      <path id="DejaVuSans-2d" d="M 313 2009 
L 1997 2009 
L 1997 1497 
L 313 1497 
L 313 2009 
z
" transform="scale(0.015625)"/>
      <path id="DejaVuSans-50" d="M 1259 4147 
L 1259 2394 
L 2053 2394 
Q 2494 2394 2734 2622 
Q 2975 2850 2975 3272 
Q 2975 3691 2734 3919 
Q 2494 4147 2053 4147 
L 1259 4147 
z
M 628 4666 
L 2053 4666 
Q 2838 4666 3239 4311 
Q 3641 3956 3641 3272 
Q 3641 2581 3239 2228 
Q 2838 1875 2053 1875 
L 1259 1875 
L 1259 0 
L 628 0 
L 628 4666 
z
" transform="scale(0.015625)"/>
      <path id="DejaVuSans-4e" d="M 628 4666 
L 1478 4666 
L 3547 763 
L 3547 4666 
L 4159 4666 
L 4159 0 
L 3309 0 
L 1241 3903 
L 1241 0 
L 628 0 
L 628 4666 
z
" transform="scale(0.015625)"/>
     </defs>
     <use xlink:href="#DejaVuSans-53"/>
     <use xlink:href="#DejaVuSans-41" x="65.351562"/>
     <use xlink:href="#DejaVuSans-46" x="133.759766"/>
     <use xlink:href="#DejaVuSans-45" x="191.279297"/>
     <use xlink:href="#DejaVuSans-2d" x="254.462891"/>
     <use xlink:href="#DejaVuSans-50" x="290.546875"/>
     <use xlink:href="#DejaVuSans-4e" x="350.849609"/>
     <use xlink:href="#DejaVuSans-53" x="425.654297"/>
    </g>
   </g>
   <g id="legend_2">
    <g id="patch_12">
     <path d="M 1448.611342 276.65 
L 1581.848842 276.65 
Q 1586.248842 276.65 1586.248842 272.25 
L 1586.248842 242.158125 
Q 1586.248842 237.758125 1581.848842 237.758125 
L 1448.611342 237.758125 
Q 1444.211342 237.758125 1444.211342 242.158125 
L 1444.211342 272.25 
Q 1444.211342 276.65 1448.611342 276.65 
z
" style="fill: #ffffff; opacity: 0.2; stroke: #cccccc; stroke-linejoin: miter"/>
    </g>
    <g id="line2d_45">
     <path d="M 1453.011342 255.574688 
L 1475.011342 255.574688 
L 1497.011342 255.574688 
" style="fill: none; stroke: #000000; stroke-width: 5; stroke-linecap: square"/>
    </g>
    <g id="text_37">
     <!-- Y-axis -->
     <g transform="translate(1514.611342 263.274688) scale(0.22 -0.22)">
      <defs>
       <path id="DejaVuSans-59" d="M -13 4666 
L 666 4666 
L 1959 2747 
L 3244 4666 
L 3922 4666 
L 2272 2222 
L 2272 0 
L 1638 0 
L 1638 2222 
L -13 4666 
z
" transform="scale(0.015625)"/>
       <path id="DejaVuSans-61" d="M 2194 1759 
Q 1497 1759 1228 1600 
Q 959 1441 959 1056 
Q 959 750 1161 570 
Q 1363 391 1709 391 
Q 2188 391 2477 730 
Q 2766 1069 2766 1631 
L 2766 1759 
L 2194 1759 
z
M 3341 1997 
L 3341 0 
L 2766 0 
L 2766 531 
Q 2569 213 2275 61 
Q 1981 -91 1556 -91 
Q 1019 -91 701 211 
Q 384 513 384 1019 
Q 384 1609 779 1909 
Q 1175 2209 1959 2209 
L 2766 2209 
L 2766 2266 
Q 2766 2663 2505 2880 
Q 2244 3097 1772 3097 
Q 1472 3097 1187 3025 
Q 903 2953 641 2809 
L 641 3341 
Q 956 3463 1253 3523 
Q 1550 3584 1831 3584 
Q 2591 3584 2966 3190 
Q 3341 2797 3341 1997 
z
" transform="scale(0.015625)"/>
       <path id="DejaVuSans-78" d="M 3513 3500 
L 2247 1797 
L 3578 0 
L 2900 0 
L 1881 1375 
L 863 0 
L 184 0 
L 1544 1831 
L 300 3500 
L 978 3500 
L 1906 2253 
L 2834 3500 
L 3513 3500 
z
" transform="scale(0.015625)"/>
      </defs>
      <use xlink:href="#DejaVuSans-59"/>
      <use xlink:href="#DejaVuSans-2d" x="49.208984"/>
      <use xlink:href="#DejaVuSans-61" x="85.292969"/>
      <use xlink:href="#DejaVuSans-78" x="146.572266"/>
      <use xlink:href="#DejaVuSans-69" x="205.751953"/>
      <use xlink:href="#DejaVuSans-73" x="233.535156"/>
     </g>
    </g>
   </g>
  </g>
  <g id="axes_4">
   <g id="patch_13">
    <path d="M 1720.236598 287.65 
L 2130.195781 287.65 
L 2130.195781 38.17 
L 1720.236598 38.17 
z
" style="fill: #ffffff"/>
   </g>
   <g id="matplotlib.axis_7">
    <g id="xtick_13">
     <g id="line2d_46">
      <g>
       <use xlink:href="#m9dfb453ad0" x="1720.236598" y="287.65" style="stroke: #000000; stroke-width: 0.8"/>
      </g>
     </g>
     <g id="text_38">
      <!-- 0 -->
      <g transform="translate(1711.647223 315.165781) scale(0.27 -0.27)">
       <use xlink:href="#DejaVuSans-30"/>
      </g>
     </g>
    </g>
    <g id="xtick_14">
     <g id="line2d_47">
      <g>
       <use xlink:href="#m9dfb453ad0" x="1822.726393" y="287.65" style="stroke: #000000; stroke-width: 0.8"/>
      </g>
     </g>
     <g id="text_39">
      <!-- 25 -->
      <g transform="translate(1805.547643 315.165781) scale(0.27 -0.27)">
       <use xlink:href="#DejaVuSans-32"/>
       <use xlink:href="#DejaVuSans-35" x="63.623047"/>
      </g>
     </g>
    </g>
    <g id="xtick_15">
     <g id="line2d_48">
      <g>
       <use xlink:href="#m9dfb453ad0" x="1925.216189" y="287.65" style="stroke: #000000; stroke-width: 0.8"/>
      </g>
     </g>
     <g id="text_40">
      <!-- 50 -->
      <g transform="translate(1908.037439 315.165781) scale(0.27 -0.27)">
       <use xlink:href="#DejaVuSans-35"/>
       <use xlink:href="#DejaVuSans-30" x="63.623047"/>
      </g>
     </g>
    </g>
    <g id="xtick_16">
     <g id="line2d_49">
      <g>
       <use xlink:href="#m9dfb453ad0" x="2027.705985" y="287.65" style="stroke: #000000; stroke-width: 0.8"/>
      </g>
     </g>
     <g id="text_41">
      <!-- 75 -->
      <g transform="translate(2010.527235 315.165781) scale(0.27 -0.27)">
       <use xlink:href="#DejaVuSans-37"/>
       <use xlink:href="#DejaVuSans-35" x="63.623047"/>
      </g>
     </g>
    </g>
    <g id="text_42">
     <!-- Time [ms] -->
     <g transform="translate(1849.618533 347.57625) scale(0.3 -0.3)">
      <use xlink:href="#DejaVuSans-54"/>
      <use xlink:href="#DejaVuSans-69" x="57.958984"/>
      <use xlink:href="#DejaVuSans-6d" x="85.742188"/>
      <use xlink:href="#DejaVuSans-65" x="183.154297"/>
      <use xlink:href="#DejaVuSans-20" x="244.677734"/>
      <use xlink:href="#DejaVuSans-5b" x="276.464844"/>
      <use xlink:href="#DejaVuSans-6d" x="315.478516"/>
      <use xlink:href="#DejaVuSans-73" x="412.890625"/>
      <use xlink:href="#DejaVuSans-5d" x="464.990234"/>
     </g>
    </g>
   </g>
   <g id="matplotlib.axis_8">
    <g id="ytick_16">
     <g id="line2d_50">
      <g>
       <use xlink:href="#ma15aaf3072" x="1720.236598" y="287.65" style="stroke: #000000; stroke-width: 0.8"/>
      </g>
     </g>
     <g id="text_43">
      <!-- 0.00 -->
      <g transform="translate(1653.11941 297.907891) scale(0.27 -0.27)">
       <use xlink:href="#DejaVuSans-30"/>
       <use xlink:href="#DejaVuSans-2e" x="63.623047"/>
       <use xlink:href="#DejaVuSans-30" x="95.410156"/>
       <use xlink:href="#DejaVuSans-30" x="159.033203"/>
      </g>
     </g>
    </g>
    <g id="ytick_17">
     <g id="line2d_51">
      <g>
       <use xlink:href="#ma15aaf3072" x="1720.236598" y="225.28" style="stroke: #000000; stroke-width: 0.8"/>
      </g>
     </g>
     <g id="text_44">
      <!-- 0.25 -->
      <g transform="translate(1653.11941 235.537891) scale(0.27 -0.27)">
       <use xlink:href="#DejaVuSans-30"/>
       <use xlink:href="#DejaVuSans-2e" x="63.623047"/>
       <use xlink:href="#DejaVuSans-32" x="95.410156"/>
       <use xlink:href="#DejaVuSans-35" x="159.033203"/>
      </g>
     </g>
    </g>
    <g id="ytick_18">
     <g id="line2d_52">
      <g>
       <use xlink:href="#ma15aaf3072" x="1720.236598" y="162.91" style="stroke: #000000; stroke-width: 0.8"/>
      </g>
     </g>
     <g id="text_45">
      <!-- 0.50 -->
      <g transform="translate(1653.11941 173.167891) scale(0.27 -0.27)">
       <use xlink:href="#DejaVuSans-30"/>
       <use xlink:href="#DejaVuSans-2e" x="63.623047"/>
       <use xlink:href="#DejaVuSans-35" x="95.410156"/>
       <use xlink:href="#DejaVuSans-30" x="159.033203"/>
      </g>
     </g>
    </g>
    <g id="ytick_19">
     <g id="line2d_53">
      <g>
       <use xlink:href="#ma15aaf3072" x="1720.236598" y="100.54" style="stroke: #000000; stroke-width: 0.8"/>
      </g>
     </g>
     <g id="text_46">
      <!-- 0.75 -->
      <g transform="translate(1653.11941 110.797891) scale(0.27 -0.27)">
       <use xlink:href="#DejaVuSans-30"/>
       <use xlink:href="#DejaVuSans-2e" x="63.623047"/>
       <use xlink:href="#DejaVuSans-37" x="95.410156"/>
       <use xlink:href="#DejaVuSans-35" x="159.033203"/>
      </g>
     </g>
    </g>
    <g id="ytick_20">
     <g id="line2d_54">
      <g>
       <use xlink:href="#ma15aaf3072" x="1720.236598" y="38.17" style="stroke: #000000; stroke-width: 0.8"/>
      </g>
     </g>
     <g id="text_47">
      <!-- 1.00 -->
      <g transform="translate(1653.11941 48.427891) scale(0.27 -0.27)">
       <use xlink:href="#DejaVuSans-31"/>
       <use xlink:href="#DejaVuSans-2e" x="63.623047"/>
       <use xlink:href="#DejaVuSans-30" x="95.410156"/>
       <use xlink:href="#DejaVuSans-30" x="159.033203"/>
      </g>
     </g>
    </g>
    <g id="text_48">
     <!-- unitless -->
     <g transform="translate(1642.880348 220.995156) rotate(-90) scale(0.3 -0.3)">
      <use xlink:href="#DejaVuSans-75"/>
      <use xlink:href="#DejaVuSans-6e" x="63.378906"/>
      <use xlink:href="#DejaVuSans-69" x="126.757812"/>
      <use xlink:href="#DejaVuSans-74" x="154.541016"/>
      <use xlink:href="#DejaVuSans-6c" x="193.75"/>
      <use xlink:href="#DejaVuSans-65" x="221.533203"/>
      <use xlink:href="#DejaVuSans-73" x="283.056641"/>
      <use xlink:href="#DejaVuSans-73" x="335.15625"/>
     </g>
    </g>
   </g>
   <g id="line2d_55">
    <path d="M 1720.236598 287.65 
L 2130.195781 287.65 
" clip-path="url(#pc7669afc83)" style="fill: none; stroke: #d3d3d3; stroke-opacity: 0.8; stroke-width: 1.5; stroke-linecap: square"/>
   </g>
   <g id="line2d_56">
    <path d="M 1720.236598 287.65 
L 1732.535373 287.65 
L 1733.355291 212.223819 
L 1734.17521 165.127536 
L 1734.995128 135.962341 
L 1735.815047 128.742569 
L 1737.454883 123.644596 
L 1739.09472 119.540695 
L 1740.734557 116.236458 
L 1742.374393 113.574671 
L 1744.01423 111.4334 
L 1744.834149 110.517071 
L 1745.654067 121.658952 
L 1747.293904 146.897011 
L 1748.93374 168.209528 
L 1750.573577 186.242254 
L 1752.213414 201.646021 
L 1753.853251 214.745581 
L 1755.493087 225.83973 
L 1757.132924 235.215185 
L 1757.952842 239.433181 
L 1758.772761 248.417933 
L 1759.592679 263.452497 
L 1760.412598 223.127907 
L 1762.052434 160.219427 
L 1763.692271 118.531491 
L 1764.512189 111.073828 
L 1765.332108 105.567727 
L 1766.152026 107.273952 
L 1766.971945 105.459672 
L 1767.791863 106.327059 
L 1768.611781 105.09632 
L 1769.4317 106.146356 
L 1770.251618 104.85624 
L 1771.071536 104.743117 
L 1771.891455 104.786566 
L 1772.711373 104.375854 
L 1773.531291 105.105523 
L 1774.35121 104.199813 
L 1775.171128 104.046675 
L 1775.991047 105.27105 
L 1776.810965 103.931847 
L 1777.630883 103.885971 
L 1778.450802 104.581471 
L 1779.27072 103.602278 
L 1780.090638 104.738999 
L 1780.910557 103.501284 
L 1781.730475 104.745899 
L 1782.550393 103.820331 
L 1783.370312 103.387199 
L 1784.19023 105.477271 
L 1785.010149 103.507607 
L 1785.830067 104.139196 
L 1786.649985 108.19658 
L 1788.289822 135.384787 
L 1789.929659 158.356621 
L 1790.749577 168.479712 
L 1791.569496 181.559122 
L 1792.389414 206.653975 
L 1793.209332 227.474228 
L 1794.029251 220.336306 
L 1794.849169 196.863383 
L 1796.489006 158.306437 
L 1797.308924 140.770658 
L 1798.948761 113.050374 
L 1800.588598 140.874615 
L 1802.228434 164.149198 
L 1803.868271 183.637038 
L 1805.508108 199.970084 
L 1807.147945 213.672271 
L 1808.787781 225.178383 
L 1810.427618 234.849563 
L 1812.067455 242.986063 
L 1813.707291 249.837754 
L 1815.347128 255.612779 
L 1816.986965 260.484687 
L 1818.626802 264.598328 
L 1820.266638 268.074713 
L 1821.906475 271.015037 
L 1823.546312 273.504008 
L 1825.186149 275.6126 
L 1826.825985 277.400341 
L 1828.465822 278.917201 
L 1829.28574 279.587447 
L 1830.105659 211.738639 
L 1830.925577 185.412113 
L 1831.745496 163.083748 
L 1833.385332 127.036567 
L 1834.205251 123.82616 
L 1835.845087 120.028765 
L 1837.484924 116.921476 
L 1839.124761 114.376253 
L 1839.944679 113.279259 
L 1842.404434 150.965879 
L 1843.224353 161.758937 
L 1844.044271 189.323411 
L 1844.864189 212.90291 
L 1845.684108 223.883447 
L 1847.323945 181.834704 
L 1848.963781 149.301076 
L 1850.603618 123.518588 
L 1851.423536 112.591295 
L 1851.423536 112.591295 
" clip-path="url(#pc7669afc83)" style="fill: none; stroke: #000000; stroke-width: 5; stroke-linecap: square"/>
   </g>
   <g id="line2d_57">
    <path d="M 1720.236598 287.65 
L 2130.195781 287.65 
" clip-path="url(#pc7669afc83)" style="fill: none; stroke: #000000; stroke-width: 5; stroke-linecap: square"/>
   </g>
   <g id="line2d_58">
    <path d="M 1720.236598 112.568403 
L 1721.876434 110.597904 
L 1723.516271 108.959242 
L 1725.156108 107.594976 
L 1726.795945 106.457869 
L 1729.2557 105.09497 
L 1731.715455 104.053587 
L 1734.17521 103.255942 
L 1737.454883 102.472626 
L 1740.734557 101.919765 
L 1744.834149 101.449343 
L 1750.573577 101.05087 
L 1757.952842 100.785957 
L 1769.4317 100.620335 
L 1794.029251 100.547649 
L 1798.948761 100.5448 
L 1799.768679 108.096264 
L 1800.588598 136.695705 
L 1801.408516 149.456687 
L 1802.228434 136.779911 
L 1803.048353 135.096659 
L 1804.688189 128.462334 
L 1806.328026 123.113334 
L 1807.967863 118.798927 
L 1809.6077 115.317541 
L 1811.247536 112.507092 
L 1812.887373 110.237214 
L 1814.52721 108.403031 
L 1816.167047 106.920143 
L 1817.806883 105.720614 
L 1819.44672 104.749744 
L 1821.906475 103.628181 
L 1824.36623 102.809613 
L 1825.186149 102.589056 
L 1826.006067 110.167603 
L 1826.825985 151.552892 
L 1827.645904 144.820269 
L 1828.465822 136.314441 
L 1829.28574 135.457548 
L 1830.925577 128.769083 
L 1832.565414 123.3742 
L 1834.205251 119.020882 
L 1835.845087 115.506477 
L 1837.484924 112.667992 
L 1839.124761 110.374297 
L 1840.764598 108.519868 
L 1842.404434 107.019762 
L 1844.044271 105.805583 
L 1845.684108 104.82224 
L 1848.143863 103.68535 
L 1850.603618 102.854725 
L 1851.423536 102.630749 
L 1851.423536 102.630749 
" clip-path="url(#pc7669afc83)" style="fill: none; stroke-dasharray: 22.2,9.6; stroke-dashoffset: 0; stroke: #800080; stroke-width: 6"/>
   </g>
   <g id="line2d_59">
    <path clip-path="url(#pc7669afc83)" style="fill: none; stroke-dasharray: 11.1,4.8; stroke-dashoffset: 0; stroke: #800080; stroke-width: 3"/>
   </g>
   <g id="line2d_60">
    <path d="M 1720.236598 75.592 
L 2130.195781 75.592 
" clip-path="url(#pc7669afc83)" style="fill: none; stroke-dasharray: 5,8.25; stroke-dashoffset: 0; stroke: #800080; stroke-opacity: 0.5; stroke-width: 5"/>
   </g>
   <g id="patch_14">
    <path d="M 1720.236598 287.65 
L 1720.236598 38.17 
" style="fill: none; stroke: #000000; stroke-width: 0.8; stroke-linejoin: miter; stroke-linecap: square"/>
   </g>
   <g id="patch_15">
    <path d="M 1720.236598 287.65 
L 2130.195781 287.65 
" style="fill: none; stroke: #000000; stroke-width: 0.8; stroke-linejoin: miter; stroke-linecap: square"/>
   </g>
   <g id="text_49">
    <!-- SAFE-CNS -->
    <g transform="translate(1845.428689 31.515) scale(0.32 -0.32)">
     <defs>
      <path id="DejaVuSans-43" d="M 4122 4306 
L 4122 3641 
Q 3803 3938 3442 4084 
Q 3081 4231 2675 4231 
Q 1875 4231 1450 3742 
Q 1025 3253 1025 2328 
Q 1025 1406 1450 917 
Q 1875 428 2675 428 
Q 3081 428 3442 575 
Q 3803 722 4122 1019 
L 4122 359 
Q 3791 134 3420 21 
Q 3050 -91 2638 -91 
Q 1578 -91 968 557 
Q 359 1206 359 2328 
Q 359 3453 968 4101 
Q 1578 4750 2638 4750 
Q 3056 4750 3426 4639 
Q 3797 4528 4122 4306 
z
" transform="scale(0.015625)"/>
     </defs>
     <use xlink:href="#DejaVuSans-53"/>
     <use xlink:href="#DejaVuSans-41" x="65.351562"/>
     <use xlink:href="#DejaVuSans-46" x="133.759766"/>
     <use xlink:href="#DejaVuSans-45" x="191.279297"/>
     <use xlink:href="#DejaVuSans-2d" x="254.462891"/>
     <use xlink:href="#DejaVuSans-43" x="290.546875"/>
     <use xlink:href="#DejaVuSans-4e" x="360.371094"/>
     <use xlink:href="#DejaVuSans-53" x="435.175781"/>
    </g>
   </g>
   <g id="legend_3">
    <g id="patch_16">
     <path d="M 1981.558281 276.65 
L 2114.795781 276.65 
Q 2119.195781 276.65 2119.195781 272.25 
L 2119.195781 242.158125 
Q 2119.195781 237.758125 2114.795781 237.758125 
L 1981.558281 237.758125 
Q 1977.158281 237.758125 1977.158281 242.158125 
L 1977.158281 272.25 
Q 1977.158281 276.65 1981.558281 276.65 
z
" style="fill: #ffffff; opacity: 0.2; stroke: #cccccc; stroke-linejoin: miter"/>
    </g>
    <g id="line2d_61">
     <path d="M 1985.958281 255.574688 
L 2007.958281 255.574688 
L 2029.958281 255.574688 
" style="fill: none; stroke: #000000; stroke-width: 5; stroke-linecap: square"/>
    </g>
    <g id="text_50">
     <!-- Y-axis -->
     <g transform="translate(2047.558281 263.274688) scale(0.22 -0.22)">
      <use xlink:href="#DejaVuSans-59"/>
      <use xlink:href="#DejaVuSans-2d" x="49.208984"/>
      <use xlink:href="#DejaVuSans-61" x="85.292969"/>
      <use xlink:href="#DejaVuSans-78" x="146.572266"/>
      <use xlink:href="#DejaVuSans-69" x="205.751953"/>
      <use xlink:href="#DejaVuSans-73" x="233.535156"/>
     </g>
    </g>
   </g>
  </g>
 </g>
 <defs>
  <clipPath id="pdb80d85aba">
   <rect x="121.395781" y="38.17" width="409.959184" height="249.48"/>
  </clipPath>
  <clipPath id="p452984620f">
   <rect x="654.34272" y="38.17" width="409.959184" height="249.48"/>
  </clipPath>
  <clipPath id="p9580220959">
   <rect x="1187.289659" y="38.17" width="409.959184" height="249.48"/>
  </clipPath>
  <clipPath id="pc7669afc83">
   <rect x="1720.236598" y="38.17" width="409.959184" height="249.48"/>
  </clipPath>
 </defs>
</svg>
