<?xml version="1.0" encoding="utf-8" standalone="no"?>
<!DOCTYPE svg PUBLIC "-//W3C//DTD SVG 1.1//EN"
  "http://www.w3.org/Graphics/SVG/1.1/DTD/svg11.dtd">
<svg xmlns:xlink="http://www.w3.org/1999/xlink" width="2137.395781pt" height="361.015312pt" viewBox="0 0 2137.395781 361.015312" xmlns="http://www.w3.org/2000/svg" version="1.1">
 <metadata>
  <rdf:RDF xmlns:dc="http://purl.org/dc/elements/1.1/" xmlns:cc="http://creativecommons.org/ns#" xmlns:rdf="http://www.w3.org/1999/02/22-rdf-syntax-ns#">
   <cc:Work>
    <dc:type rdf:resource="http://purl.org/dc/dcmitype/StillImage"/>
    <dc:date>2026-01-09T12:34:45.296705</dc:date>
    <dc:format>image/svg+xml</dc:format>
    <dc:creator>
     <cc:Agent>
      <dc:title>Matplotlib v3.9.0, https://matplotlib.org/</dc:title>
     </cc:Agent>
    </dc:creator>
   </cc:Work>
  </rdf:RDF>
 </metadata>
 <defs>
  <style type="text/css">*{stroke-linejoin: round; stroke-linecap: butt}</style>
 </defs>
 <g id="figure_1">
  <g id="patch_1">
   <path d="M 0 361.015312 
L 2137.395781 361.015312 
L 2137.395781 0 
L 0 0 
z
" style="fill: #ffffff"/>
  </g>
  <g id="axes_1">
   <g id="patch_2">
    <path d="M 121.395781 287.65 
L 531.354965 287.65 
L 531.354965 38.17 
L 121.395781 38.17 
z
" style="fill: #ffffff"/>
   </g>
   <g id="PolyCollection_1">
    <defs>
     <path id="mab633ebde3" d="M 121.395781 -198.105312 
L 121.395781 -198.105312 
L 122.2157 -198.105312 
L 123.035618 -198.105312 
L 123.855536 -198.105312 
L 124.675455 -198.105312 
L 125.495373 -198.105312 
L 126.315291 -198.105312 
L 127.13521 -198.105312 
L 127.955128 -198.105312 
L 128.775047 -198.105312 
L 129.594965 -198.105312 
L 130.414883 -198.105312 
L 131.234802 -198.105312 
L 132.05472 -198.105312 
L 132.874638 -198.105312 
L 133.694557 -198.105312 
L 134.514475 -198.105312 
L 135.334393 -198.105312 
L 136.154312 -198.105312 
L 136.97423 -198.105312 
L 137.794149 -198.105312 
L 138.614067 -198.105312 
L 139.433985 -198.105312 
L 140.253904 -198.105312 
L 141.073822 -198.105312 
L 141.89374 -198.105312 
L 142.713659 -198.105312 
L 143.533577 -198.105312 
L 144.353496 -198.105312 
L 145.173414 -198.105312 
L 145.993332 -198.105312 
L 146.813251 -198.105312 
L 147.633169 -198.105312 
L 148.453087 -198.105312 
L 149.273006 -198.105312 
L 150.092924 -198.105312 
L 150.912842 -198.105312 
L 151.732761 -198.105312 
L 152.552679 -198.105312 
L 153.372598 -198.105312 
L 154.192516 -198.105312 
L 155.012434 -198.105312 
L 155.832353 -198.105312 
L 156.652271 -198.105312 
L 157.472189 -198.105312 
L 158.292108 -198.105312 
L 159.112026 -198.105312 
L 159.931945 -198.105312 
L 160.751863 -198.105312 
L 161.571781 -198.105312 
L 162.3917 -198.105312 
L 163.211618 -198.105312 
L 164.031536 -198.105312 
L 164.851455 -198.105312 
L 165.671373 -198.105312 
L 166.491291 -198.105312 
L 167.31121 -198.105312 
L 168.131128 -198.105312 
L 168.951047 -198.105312 
L 169.770965 -198.105312 
L 170.590883 -198.105312 
L 171.410802 -198.105312 
L 172.23072 -198.105312 
L 173.050638 -198.105312 
L 173.870557 -198.105312 
L 174.690475 -198.105312 
L 175.510393 -198.105312 
L 176.330312 -198.105312 
L 177.15023 -198.105312 
L 177.970149 -198.105312 
L 178.790067 -198.105312 
L 179.609985 -198.105312 
L 180.429904 -198.105312 
L 181.249822 -198.105312 
L 182.06974 -198.105312 
L 182.889659 -198.105312 
L 183.709577 -198.105312 
L 184.529496 -198.105312 
L 185.349414 -198.105312 
L 186.169332 -198.105312 
L 186.989251 -198.105312 
L 187.809169 -198.105312 
L 188.629087 -198.105312 
L 189.449006 -198.105312 
L 190.268924 -198.105312 
L 191.088842 -198.105312 
L 191.908761 -198.105312 
L 192.728679 -198.105312 
L 193.548598 -198.105312 
L 194.368516 -198.105312 
L 195.188434 -198.105312 
L 196.008353 -198.105312 
L 196.828271 -198.105312 
L 197.648189 -198.105312 
L 198.468108 -198.105312 
L 199.288026 -198.105312 
L 200.107945 -198.105312 
L 200.927863 -198.105312 
L 201.747781 -198.105312 
L 202.5677 -198.105312 
L 203.387618 -198.105312 
L 204.207536 -198.105312 
L 205.027455 -198.105312 
L 205.847373 -198.105312 
L 206.667291 -198.105312 
L 207.48721 -198.105312 
L 208.307128 -198.105312 
L 209.127047 -198.105312 
L 209.946965 -198.105312 
L 210.766883 -198.105312 
L 211.586802 -198.105312 
L 212.40672 -198.105312 
L 213.226638 -198.105312 
L 214.046557 -198.105312 
L 214.866475 -198.105312 
L 215.686393 -198.105312 
L 216.506312 -198.105312 
L 217.32623 -198.105312 
L 218.146149 -198.105312 
L 218.966067 -198.105312 
L 219.785985 -198.105312 
L 220.605904 -198.105312 
L 221.425822 -198.105312 
L 222.24574 -198.105312 
L 223.065659 -198.105312 
L 223.885577 -198.105312 
L 224.705496 -198.105312 
L 225.525414 -198.105312 
L 226.345332 -198.105312 
L 227.165251 -198.105312 
L 227.985169 -198.105312 
L 228.805087 -198.105312 
L 229.625006 -198.105312 
L 230.444924 -198.105312 
L 231.264842 -198.105312 
L 232.084761 -198.105312 
L 232.904679 -198.105312 
L 233.724598 -198.105312 
L 234.544516 -198.105312 
L 235.364434 -198.105312 
L 236.184353 -198.105312 
L 237.004271 -198.105312 
L 237.824189 -198.105312 
L 238.644108 -198.105312 
L 239.464026 -198.105312 
L 240.283945 -198.105312 
L 241.103863 -198.105312 
L 241.923781 -198.105312 
L 242.7437 -198.105312 
L 243.563618 -198.105312 
L 244.383536 -198.105312 
L 245.203455 -198.105312 
L 246.023373 -198.105312 
L 246.843291 -198.105312 
L 247.66321 -198.105312 
L 248.483128 -198.105312 
L 249.303047 -198.105312 
L 250.122965 -198.105312 
L 250.942883 -198.105312 
L 251.762802 -198.105312 
L 252.58272 -198.105312 
L 253.402638 -198.105312 
L 254.222557 -198.105312 
L 255.042475 -198.105312 
L 255.042475 -198.105312 
L 255.042475 -198.105312 
L 254.222557 -205.68744 
L 253.402638 -213.3679 
L 252.58272 -221.175664 
L 251.762802 -229.125456 
L 250.942883 -237.263526 
L 250.122965 -245.646185 
L 249.303047 -254.328052 
L 248.483128 -263.427519 
L 247.66321 -273.223453 
L 246.843291 -295.98372 
L 246.023373 -296.507745 
L 245.203455 -296.505536 
L 244.383536 -296.540577 
L 243.563618 -296.535449 
L 242.7437 -296.532826 
L 241.923781 -292.064032 
L 241.103863 -287.542558 
L 240.283945 -282.998423 
L 239.464026 -278.45908 
L 238.644108 -273.894972 
L 237.824189 -269.329562 
L 237.004271 -264.740742 
L 236.184353 -260.14577 
L 235.364434 -255.52519 
L 234.544516 -247.20311 
L 233.724598 -238.117193 
L 232.904679 -228.598281 
L 232.084761 -218.405434 
L 231.264842 -198.105312 
L 230.444924 -198.105312 
L 229.625006 -198.105312 
L 228.805087 -198.105312 
L 227.985169 -198.105312 
L 227.165251 -198.105312 
L 226.345332 -198.105312 
L 225.525414 -198.105312 
L 224.705496 -198.105312 
L 223.885577 -198.105312 
L 223.065659 -198.105312 
L 222.24574 -198.105312 
L 221.425822 -198.105312 
L 220.605904 -198.105312 
L 219.785985 -198.105312 
L 218.966067 -198.105312 
L 218.146149 -198.105312 
L 217.32623 -198.105312 
L 216.506312 -198.105312 
L 215.686393 -198.105312 
L 214.866475 -198.105312 
L 214.046557 -198.105312 
L 213.226638 -198.105312 
L 212.40672 -198.105312 
L 211.586802 -198.105312 
L 210.766883 -198.105312 
L 209.946965 -198.105312 
L 209.127047 -198.105312 
L 208.307128 -198.105312 
L 207.48721 -198.105312 
L 206.667291 -198.105312 
L 205.847373 -198.105312 
L 205.027455 -198.105312 
L 204.207536 -198.105312 
L 203.387618 -198.105312 
L 202.5677 -198.105312 
L 201.747781 -198.105312 
L 200.927863 -192.201142 
L 200.107945 -182.655031 
L 199.288026 -173.03497 
L 198.468108 -164.27118 
L 197.648189 -156.469967 
L 196.828271 -150.244341 
L 196.008353 -139.193566 
L 195.188434 -128.565061 
L 194.368516 -121.513845 
L 193.548598 -121.50783 
L 192.728679 -121.486935 
L 191.908761 -121.489369 
L 191.088842 -121.459434 
L 190.268924 -121.474137 
L 189.449006 -121.480109 
L 188.629087 -121.474744 
L 187.809169 -121.488423 
L 186.989251 -121.492351 
L 186.169332 -121.520958 
L 185.349414 -129.626507 
L 184.529496 -129.63686 
L 183.709577 -138.466745 
L 182.889659 -138.48296 
L 182.06974 -146.774973 
L 181.249822 -146.781814 
L 180.429904 -155.407813 
L 179.609985 -155.417768 
L 178.790067 -164.12521 
L 177.970149 -164.134516 
L 177.15023 -172.967071 
L 176.330312 -172.982689 
L 175.510393 -181.407627 
L 174.690475 -181.935587 
L 173.870557 -189.636112 
L 173.050638 -190.631172 
L 172.23072 -198.596533 
L 171.410802 -199.48376 
L 170.590883 -207.910515 
L 169.770965 -208.170832 
L 168.951047 -217.236715 
L 168.131128 -217.245379 
L 167.31121 -226.479801 
L 166.491291 -226.491643 
L 165.671373 -235.330141 
L 164.851455 -236.065272 
L 164.031536 -245.924138 
L 163.211618 -255.435807 
L 162.3917 -264.393021 
L 161.571781 -274.704471 
L 160.751863 -287.332812 
L 159.931945 -298.224393 
L 159.112026 -307.43499 
L 158.292108 -309.006638 
L 157.472189 -309.023775 
L 156.652271 -309.530963 
L 155.832353 -309.846381 
L 155.012434 -310.204215 
L 154.192516 -310.214685 
L 153.372598 -310.22507 
L 152.552679 -310.227299 
L 151.732761 -310.238113 
L 150.912842 -310.236385 
L 150.092924 -310.247836 
L 149.273006 -310.242381 
L 148.453087 -310.250668 
L 147.633169 -310.241881 
L 146.813251 -310.244027 
L 145.993332 -305.865087 
L 145.173414 -301.342456 
L 144.353496 -296.799307 
L 143.533577 -292.2381 
L 142.713659 -287.675703 
L 141.89374 -283.088526 
L 141.073822 -278.495948 
L 140.253904 -273.876444 
L 139.433985 -269.249143 
L 138.614067 -264.590096 
L 137.794149 -259.919667 
L 136.97423 -255.212886 
L 136.154312 -249.74187 
L 135.334393 -237.906679 
L 134.514475 -222.681009 
L 133.694557 -198.105312 
L 132.874638 -198.105312 
L 132.05472 -198.105312 
L 131.234802 -198.105312 
L 130.414883 -198.105312 
L 129.594965 -198.105312 
L 128.775047 -198.105312 
L 127.955128 -198.105312 
L 127.13521 -198.105312 
L 126.315291 -198.105312 
L 125.495373 -198.105312 
L 124.675455 -198.105312 
L 123.855536 -198.105312 
L 123.035618 -198.105312 
L 122.2157 -198.105312 
L 121.395781 -198.105312 
z
" style="stroke: #0173b2; stroke-opacity: 0.75"/>
    </defs>
    <g clip-path="url(#p4cb70cba8f)">
     <use xlink:href="#mab633ebde3" x="0" y="361.015312" style="fill: #0173b2; fill-opacity: 0.75; stroke: #0173b2; stroke-opacity: 0.75"/>
    </g>
   </g>
   <g id="matplotlib.axis_1">
    <g id="xtick_1">
     <g id="line2d_1">
      <defs>
       <path id="m5300c4052a" d="M 0 0 
L 0 3.5 
" style="stroke: #000000; stroke-width: 0.8"/>
      </defs>
      <g>
       <use xlink:href="#m5300c4052a" x="121.395781" y="287.65" style="stroke: #000000; stroke-width: 0.8"/>
      </g>
     </g>
     <g id="text_1">
      <!-- 0 -->
      <g transform="translate(112.806406 315.165781) scale(0.27 -0.27)">
       <defs>
        <path id="DejaVuSans-30" d="M 2034 4250 
Q 1547 4250 1301 3770 
Q 1056 3291 1056 2328 
Q 1056 1369 1301 889 
Q 1547 409 2034 409 
Q 2525 409 2770 889 
Q 3016 1369 3016 2328 
Q 3016 3291 2770 3770 
Q 2525 4250 2034 4250 
z
M 2034 4750 
Q 2819 4750 3233 4129 
Q 3647 3509 3647 2328 
Q 3647 1150 3233 529 
Q 2819 -91 2034 -91 
Q 1250 -91 836 529 
Q 422 1150 422 2328 
Q 422 3509 836 4129 
Q 1250 4750 2034 4750 
z
" transform="scale(0.015625)"/>
       </defs>
       <use xlink:href="#DejaVuSans-30"/>
      </g>
     </g>
    </g>
    <g id="xtick_2">
     <g id="line2d_2">
      <g>
       <use xlink:href="#m5300c4052a" x="223.885577" y="287.65" style="stroke: #000000; stroke-width: 0.8"/>
      </g>
     </g>
     <g id="text_2">
      <!-- 25 -->
      <g transform="translate(206.706827 315.165781) scale(0.27 -0.27)">
       <defs>
        <path id="DejaVuSans-32" d="M 1228 531 
L 3431 531 
L 3431 0 
L 469 0 
L 469 531 
Q 828 903 1448 1529 
Q 2069 2156 2228 2338 
Q 2531 2678 2651 2914 
Q 2772 3150 2772 3378 
Q 2772 3750 2511 3984 
Q 2250 4219 1831 4219 
Q 1534 4219 1204 4116 
Q 875 4013 500 3803 
L 500 4441 
Q 881 4594 1212 4672 
Q 1544 4750 1819 4750 
Q 2544 4750 2975 4387 
Q 3406 4025 3406 3419 
Q 3406 3131 3298 2873 
Q 3191 2616 2906 2266 
Q 2828 2175 2409 1742 
Q 1991 1309 1228 531 
z
" transform="scale(0.015625)"/>
        <path id="DejaVuSans-35" d="M 691 4666 
L 3169 4666 
L 3169 4134 
L 1269 4134 
L 1269 2991 
Q 1406 3038 1543 3061 
Q 1681 3084 1819 3084 
Q 2600 3084 3056 2656 
Q 3513 2228 3513 1497 
Q 3513 744 3044 326 
Q 2575 -91 1722 -91 
Q 1428 -91 1123 -41 
Q 819 9 494 109 
L 494 744 
Q 775 591 1075 516 
Q 1375 441 1709 441 
Q 2250 441 2565 725 
Q 2881 1009 2881 1497 
Q 2881 1984 2565 2268 
Q 2250 2553 1709 2553 
Q 1456 2553 1204 2497 
Q 953 2441 691 2322 
L 691 4666 
z
" transform="scale(0.015625)"/>
       </defs>
       <use xlink:href="#DejaVuSans-32"/>
       <use xlink:href="#DejaVuSans-35" x="63.623047"/>
      </g>
     </g>
    </g>
    <g id="xtick_3">
     <g id="line2d_3">
      <g>
       <use xlink:href="#m5300c4052a" x="326.375373" y="287.65" style="stroke: #000000; stroke-width: 0.8"/>
      </g>
     </g>
     <g id="text_3">
      <!-- 50 -->
      <g transform="translate(309.196623 315.165781) scale(0.27 -0.27)">
       <use xlink:href="#DejaVuSans-35"/>
       <use xlink:href="#DejaVuSans-30" x="63.623047"/>
      </g>
     </g>
    </g>
    <g id="xtick_4">
     <g id="line2d_4">
      <g>
       <use xlink:href="#m5300c4052a" x="428.865169" y="287.65" style="stroke: #000000; stroke-width: 0.8"/>
      </g>
     </g>
     <g id="text_4">
      <!-- 75 -->
      <g transform="translate(411.686419 315.165781) scale(0.27 -0.27)">
       <defs>
        <path id="DejaVuSans-37" d="M 525 4666 
L 3525 4666 
L 3525 4397 
L 1831 0 
L 1172 0 
L 2766 4134 
L 525 4134 
L 525 4666 
z
" transform="scale(0.015625)"/>
       </defs>
       <use xlink:href="#DejaVuSans-37"/>
       <use xlink:href="#DejaVuSans-35" x="63.623047"/>
      </g>
     </g>
    </g>
    <g id="text_5">
     <!-- Time [ms] -->
     <g transform="translate(250.777717 347.57625) scale(0.3 -0.3)">
      <defs>
       <path id="DejaVuSans-54" d="M -19 4666 
L 3928 4666 
L 3928 4134 
L 2272 4134 
L 2272 0 
L 1638 0 
L 1638 4134 
L -19 4134 
L -19 4666 
z
" transform="scale(0.015625)"/>
       <path id="DejaVuSans-69" d="M 603 3500 
L 1178 3500 
L 1178 0 
L 603 0 
L 603 3500 
z
M 603 4863 
L 1178 4863 
L 1178 4134 
L 603 4134 
L 603 4863 
z
" transform="scale(0.015625)"/>
       <path id="DejaVuSans-6d" d="M 3328 2828 
Q 3544 3216 3844 3400 
Q 4144 3584 4550 3584 
Q 5097 3584 5394 3201 
Q 5691 2819 5691 2113 
L 5691 0 
L 5113 0 
L 5113 2094 
Q 5113 2597 4934 2840 
Q 4756 3084 4391 3084 
Q 3944 3084 3684 2787 
Q 3425 2491 3425 1978 
L 3425 0 
L 2847 0 
L 2847 2094 
Q 2847 2600 2669 2842 
Q 2491 3084 2119 3084 
Q 1678 3084 1418 2786 
Q 1159 2488 1159 1978 
L 1159 0 
L 581 0 
L 581 3500 
L 1159 3500 
L 1159 2956 
Q 1356 3278 1631 3431 
Q 1906 3584 2284 3584 
Q 2666 3584 2933 3390 
Q 3200 3197 3328 2828 
z
" transform="scale(0.015625)"/>
       <path id="DejaVuSans-65" d="M 3597 1894 
L 3597 1613 
L 953 1613 
Q 991 1019 1311 708 
Q 1631 397 2203 397 
Q 2534 397 2845 478 
Q 3156 559 3463 722 
L 3463 178 
Q 3153 47 2828 -22 
Q 2503 -91 2169 -91 
Q 1331 -91 842 396 
Q 353 884 353 1716 
Q 353 2575 817 3079 
Q 1281 3584 2069 3584 
Q 2775 3584 3186 3129 
Q 3597 2675 3597 1894 
z
M 3022 2063 
Q 3016 2534 2758 2815 
Q 2500 3097 2075 3097 
Q 1594 3097 1305 2825 
Q 1016 2553 972 2059 
L 3022 2063 
z
" transform="scale(0.015625)"/>
       <path id="DejaVuSans-20" transform="scale(0.015625)"/>
       <path id="DejaVuSans-5b" d="M 550 4863 
L 1875 4863 
L 1875 4416 
L 1125 4416 
L 1125 -397 
L 1875 -397 
L 1875 -844 
L 550 -844 
L 550 4863 
z
" transform="scale(0.015625)"/>
       <path id="DejaVuSans-73" d="M 2834 3397 
L 2834 2853 
Q 2591 2978 2328 3040 
Q 2066 3103 1784 3103 
Q 1356 3103 1142 2972 
Q 928 2841 928 2578 
Q 928 2378 1081 2264 
Q 1234 2150 1697 2047 
L 1894 2003 
Q 2506 1872 2764 1633 
Q 3022 1394 3022 966 
Q 3022 478 2636 193 
Q 2250 -91 1575 -91 
Q 1294 -91 989 -36 
Q 684 19 347 128 
L 347 722 
Q 666 556 975 473 
Q 1284 391 1588 391 
Q 1994 391 2212 530 
Q 2431 669 2431 922 
Q 2431 1156 2273 1281 
Q 2116 1406 1581 1522 
L 1381 1569 
Q 847 1681 609 1914 
Q 372 2147 372 2553 
Q 372 3047 722 3315 
Q 1072 3584 1716 3584 
Q 2034 3584 2315 3537 
Q 2597 3491 2834 3397 
z
" transform="scale(0.015625)"/>
       <path id="DejaVuSans-5d" d="M 1947 4863 
L 1947 -844 
L 622 -844 
L 622 -397 
L 1369 -397 
L 1369 4416 
L 622 4416 
L 622 4863 
L 1947 4863 
z
" transform="scale(0.015625)"/>
      </defs>
      <use xlink:href="#DejaVuSans-54"/>
      <use xlink:href="#DejaVuSans-69" x="57.958984"/>
      <use xlink:href="#DejaVuSans-6d" x="85.742188"/>
      <use xlink:href="#DejaVuSans-65" x="183.154297"/>
      <use xlink:href="#DejaVuSans-20" x="244.677734"/>
      <use xlink:href="#DejaVuSans-5b" x="276.464844"/>
      <use xlink:href="#DejaVuSans-6d" x="315.478516"/>
      <use xlink:href="#DejaVuSans-73" x="412.890625"/>
      <use xlink:href="#DejaVuSans-5d" x="464.990234"/>
     </g>
    </g>
   </g>
   <g id="matplotlib.axis_2">
    <g id="ytick_1">
     <g id="line2d_5">
      <defs>
       <path id="m661e2f0f21" d="M 0 0 
L -3.5 0 
" style="stroke: #000000; stroke-width: 0.8"/>
      </defs>
      <g>
       <use xlink:href="#m661e2f0f21" x="121.395781" y="287.029403" style="stroke: #000000; stroke-width: 0.8"/>
      </g>
     </g>
     <g id="text_6">
      <!-- −200 -->
      <g transform="translate(40.234375 297.287294) scale(0.27 -0.27)">
       <defs>
        <path id="DejaVuSans-2212" d="M 678 2272 
L 4684 2272 
L 4684 1741 
L 678 1741 
L 678 2272 
z
" transform="scale(0.015625)"/>
       </defs>
       <use xlink:href="#DejaVuSans-2212"/>
       <use xlink:href="#DejaVuSans-32" x="83.789062"/>
       <use xlink:href="#DejaVuSans-30" x="147.412109"/>
       <use xlink:href="#DejaVuSans-30" x="211.035156"/>
      </g>
     </g>
    </g>
    <g id="ytick_2">
     <g id="line2d_6">
      <g>
       <use xlink:href="#m661e2f0f21" x="121.395781" y="224.969701" style="stroke: #000000; stroke-width: 0.8"/>
      </g>
     </g>
     <g id="text_7">
      <!-- −100 -->
      <g transform="translate(40.234375 235.227592) scale(0.27 -0.27)">
       <defs>
        <path id="DejaVuSans-31" d="M 794 531 
L 1825 531 
L 1825 4091 
L 703 3866 
L 703 4441 
L 1819 4666 
L 2450 4666 
L 2450 531 
L 3481 531 
L 3481 0 
L 794 0 
L 794 531 
z
" transform="scale(0.015625)"/>
       </defs>
       <use xlink:href="#DejaVuSans-2212"/>
       <use xlink:href="#DejaVuSans-31" x="83.789062"/>
       <use xlink:href="#DejaVuSans-30" x="147.412109"/>
       <use xlink:href="#DejaVuSans-30" x="211.035156"/>
      </g>
     </g>
    </g>
    <g id="ytick_3">
     <g id="line2d_7">
      <g>
       <use xlink:href="#m661e2f0f21" x="121.395781" y="162.91" style="stroke: #000000; stroke-width: 0.8"/>
      </g>
     </g>
     <g id="text_8">
      <!-- 0 -->
      <g transform="translate(97.217031 173.167891) scale(0.27 -0.27)">
       <use xlink:href="#DejaVuSans-30"/>
      </g>
     </g>
    </g>
    <g id="ytick_4">
     <g id="line2d_8">
      <g>
       <use xlink:href="#m661e2f0f21" x="121.395781" y="100.850299" style="stroke: #000000; stroke-width: 0.8"/>
      </g>
     </g>
     <g id="text_9">
      <!-- 100 -->
      <g transform="translate(62.859531 111.108189) scale(0.27 -0.27)">
       <use xlink:href="#DejaVuSans-31"/>
       <use xlink:href="#DejaVuSans-30" x="63.623047"/>
       <use xlink:href="#DejaVuSans-30" x="127.246094"/>
      </g>
     </g>
    </g>
    <g id="ytick_5">
     <g id="line2d_9">
      <g>
       <use xlink:href="#m661e2f0f21" x="121.395781" y="38.790597" style="stroke: #000000; stroke-width: 0.8"/>
      </g>
     </g>
     <g id="text_10">
      <!-- 200 -->
      <g transform="translate(62.859531 49.048488) scale(0.27 -0.27)">
       <use xlink:href="#DejaVuSans-32"/>
       <use xlink:href="#DejaVuSans-30" x="63.623047"/>
       <use xlink:href="#DejaVuSans-30" x="127.246094"/>
      </g>
     </g>
    </g>
    <g id="text_11">
     <!-- mT/m -->
     <g transform="translate(29.995313 206.346719) rotate(-90) scale(0.3 -0.3)">
      <defs>
       <path id="DejaVuSans-2f" d="M 1625 4666 
L 2156 4666 
L 531 -594 
L 0 -594 
L 1625 4666 
z
" transform="scale(0.015625)"/>
      </defs>
      <use xlink:href="#DejaVuSans-6d"/>
      <use xlink:href="#DejaVuSans-54" x="97.412109"/>
      <use xlink:href="#DejaVuSans-2f" x="158.496094"/>
      <use xlink:href="#DejaVuSans-6d" x="192.1875"/>
     </g>
    </g>
   </g>
   <g id="line2d_10">
    <path d="M 121.395781 162.91 
L 531.354965 162.91 
" clip-path="url(#p4cb70cba8f)" style="fill: none; stroke: #d3d3d3; stroke-opacity: 0.8; stroke-width: 1.5; stroke-linecap: square"/>
   </g>
   <g id="line2d_11">
    <path d="M 121.395781 162.91 
L 133.694557 162.91 
L 134.514475 138.334304 
L 135.334393 123.108633 
L 136.154312 111.273443 
L 136.97423 105.802426 
L 143.533577 68.777213 
L 146.813251 50.771286 
L 155.012434 50.811098 
L 157.472189 51.991537 
L 158.292108 52.008675 
L 159.112026 53.580322 
L 159.931945 62.790919 
L 160.751863 73.6825 
L 161.571781 86.310841 
L 163.211618 105.579506 
L 164.851455 124.950041 
L 165.671373 125.685172 
L 166.491291 134.52367 
L 167.31121 134.535511 
L 168.131128 143.769933 
L 168.951047 143.778598 
L 169.770965 152.84448 
L 170.590883 153.104798 
L 171.410802 161.531552 
L 172.23072 162.41878 
L 173.050638 170.38414 
L 173.870557 171.379201 
L 174.690475 179.079726 
L 175.510393 179.607686 
L 176.330312 188.032624 
L 177.15023 188.048241 
L 177.970149 196.880797 
L 178.790067 196.890103 
L 179.609985 205.597544 
L 180.429904 205.6075 
L 181.249822 214.233499 
L 182.06974 214.24034 
L 182.889659 222.532353 
L 183.709577 222.548567 
L 184.529496 231.378453 
L 185.349414 231.388805 
L 186.169332 239.494355 
L 191.088842 239.555879 
L 194.368516 239.501468 
L 195.188434 232.450251 
L 196.828271 210.770971 
L 197.648189 204.545346 
L 199.288026 187.980343 
L 200.927863 168.814171 
L 201.747781 162.91 
L 231.264842 162.91 
L 232.084761 142.609879 
L 233.724598 122.898119 
L 235.364434 105.490122 
L 242.7437 64.482486 
L 246.023373 64.507567 
L 246.843291 65.031593 
L 247.66321 87.791859 
L 249.303047 106.687261 
L 251.762802 131.889856 
L 255.042475 162.91 
L 255.042475 162.91 
" clip-path="url(#p4cb70cba8f)" style="fill: none; stroke: #000000; stroke-width: 5; stroke-linecap: square"/>
   </g>
   <g id="line2d_12">
    <path d="M 255.042475 162.91 
L 257.133267 162.91 
L 258.076173 184.261831 
L 258.117169 183.33349 
L 260.043977 141.558169 
L 260.904891 141.558169 
L 262.872696 184.261831 
L 263.73361 184.261831 
L 265.701414 141.558169 
L 266.562328 141.558169 
L 268.530132 184.261831 
L 269.391047 184.261831 
L 271.358851 141.558169 
L 272.219765 141.558169 
L 274.187569 184.261831 
L 275.048483 184.261831 
L 277.016287 141.558169 
L 277.877202 141.558169 
L 279.845006 184.261831 
L 280.70592 184.261831 
L 282.673724 141.558169 
L 283.534638 141.558169 
L 285.502442 184.261831 
L 286.363357 184.261831 
L 288.331161 141.558169 
L 289.192075 141.558169 
L 291.159879 184.261831 
L 292.020793 184.261831 
L 293.988598 141.558169 
L 294.849512 141.558169 
L 296.817316 184.261831 
L 297.67823 184.261831 
L 299.646034 141.558169 
L 300.506949 141.558169 
L 302.474753 184.261831 
L 303.335667 184.261831 
L 305.303471 141.558169 
L 306.164385 141.558169 
L 308.132189 184.261831 
L 308.993104 184.261831 
L 310.960908 141.558169 
L 311.821822 141.558169 
L 313.789626 184.261831 
L 314.65054 184.261831 
L 316.618345 141.558169 
L 317.479259 141.558169 
L 319.447063 184.261831 
L 320.307977 184.261831 
L 322.275781 141.558169 
L 323.136696 141.558169 
L 325.1045 184.261831 
L 325.965414 184.261831 
L 327.933218 141.558169 
L 328.794132 141.558169 
L 330.761936 184.261831 
L 331.622851 184.261831 
L 333.590655 141.558169 
L 334.451569 141.558169 
L 336.419373 184.261831 
L 337.280287 184.261831 
L 339.248091 141.558169 
L 340.109006 141.558169 
L 342.07681 184.261831 
L 342.937724 184.261831 
L 344.905528 141.558169 
L 345.766442 141.558169 
L 347.734247 184.261831 
L 348.595161 184.261831 
L 350.562965 141.558169 
L 351.423879 141.558169 
L 353.391683 184.261831 
L 354.252598 184.261831 
L 356.220402 141.558169 
L 357.081316 141.558169 
L 359.04912 184.261831 
L 359.910034 184.261831 
L 361.877838 141.558169 
L 362.738753 141.558169 
L 364.706557 184.261831 
L 365.567471 184.261831 
L 367.535275 141.558169 
L 368.396189 141.558169 
L 370.363993 184.261831 
L 371.224908 184.261831 
L 373.192712 141.558169 
L 374.053626 141.558169 
L 376.02143 184.261831 
L 376.882345 184.261831 
L 378.850149 141.558169 
L 379.711063 141.558169 
L 381.678867 184.261831 
L 382.539781 184.261831 
L 384.507585 141.558169 
L 385.3685 141.558169 
L 387.336304 184.261831 
L 388.197218 184.261831 
L 390.165022 141.558169 
L 391.025936 141.558169 
L 392.99374 184.261831 
L 393.854655 184.261831 
L 395.822459 141.558169 
L 396.683373 141.558169 
L 398.651177 184.261831 
L 399.512091 184.261831 
L 401.479896 141.558169 
L 402.34081 141.558169 
L 404.308614 184.261831 
L 405.169528 184.261831 
L 407.137332 141.558169 
L 407.998247 141.558169 
L 409.966051 184.261831 
L 410.826965 184.261831 
L 412.794769 141.558169 
L 413.655683 141.558169 
L 414.639585 162.91 
L 414.639585 162.91 
" clip-path="url(#p4cb70cba8f)" style="fill: none; stroke: #000000; stroke-opacity: 0.7; stroke-width: 5; stroke-linecap: square"/>
   </g>
   <g id="line2d_13">
    <path d="M 311.346269 287.65 
L 311.346269 38.17 
" clip-path="url(#p4cb70cba8f)" style="fill: none; stroke-dasharray: 18.5,8; stroke-dashoffset: 0; stroke: #000000; stroke-width: 5"/>
   </g>
   <g id="line2d_14">
    <path d="M 121.395781 38.790597 
L 531.354965 38.790597 
" clip-path="url(#p4cb70cba8f)" style="fill: none; stroke-dasharray: 18.5,8; stroke-dashoffset: 0; stroke: #000000; stroke-opacity: 0.2; stroke-width: 5"/>
   </g>
   <g id="line2d_15">
    <path d="M 121.395781 287.029403 
L 531.354965 287.029403 
" clip-path="url(#p4cb70cba8f)" style="fill: none; stroke-dasharray: 18.5,8; stroke-dashoffset: 0; stroke: #000000; stroke-opacity: 0.2; stroke-width: 5"/>
   </g>
   <g id="line2d_16">
    <path d="M 121.395781 162.91 
L 531.354965 162.91 
" clip-path="url(#p4cb70cba8f)" style="fill: none; stroke: #000000; stroke-width: 5; stroke-linecap: square"/>
   </g>
   <g id="patch_3">
    <path d="M 121.395781 287.65 
L 121.395781 38.17 
" style="fill: none; stroke: #000000; stroke-width: 0.8; stroke-linejoin: miter; stroke-linecap: square"/>
   </g>
   <g id="patch_4">
    <path d="M 121.395781 287.65 
L 531.354965 287.65 
" style="fill: none; stroke: #000000; stroke-width: 0.8; stroke-linejoin: miter; stroke-linecap: square"/>
   </g>
   <g id="text_12">
    <!-- $G(t)$ -->
    <g transform="translate(295.175373 31.515) scale(0.32 -0.32)">
     <defs>
      <path id="DejaVuSans-Oblique-47" d="M 3494 697 
L 3738 1919 
L 2700 1919 
L 2797 2438 
L 4453 2438 
L 4050 384 
Q 3634 156 3143 32 
Q 2653 -91 2156 -91 
Q 1278 -91 783 396 
Q 288 884 288 1753 
Q 288 2475 589 3126 
Q 891 3778 1422 4213 
Q 1756 4484 2153 4617 
Q 2550 4750 3034 4750 
Q 3472 4750 3873 4639 
Q 4275 4528 4641 4306 
L 4513 3634 
Q 4231 3928 3853 4083 
Q 3475 4238 3047 4238 
Q 2550 4238 2172 4048 
Q 1794 3859 1497 3463 
Q 1244 3125 1098 2667 
Q 953 2209 953 1734 
Q 953 1081 1287 751 
Q 1622 422 2284 422 
Q 2616 422 2925 492 
Q 3234 563 3494 697 
z
" transform="scale(0.015625)"/>
      <path id="DejaVuSans-28" d="M 1984 4856 
Q 1566 4138 1362 3434 
Q 1159 2731 1159 2009 
Q 1159 1288 1364 580 
Q 1569 -128 1984 -844 
L 1484 -844 
Q 1016 -109 783 600 
Q 550 1309 550 2009 
Q 550 2706 781 3412 
Q 1013 4119 1484 4856 
L 1984 4856 
z
" transform="scale(0.015625)"/>
      <path id="DejaVuSans-Oblique-74" d="M 2706 3500 
L 2619 3053 
L 1472 3053 
L 1100 1153 
Q 1081 1047 1072 975 
Q 1063 903 1063 863 
Q 1063 663 1183 572 
Q 1303 481 1569 481 
L 2150 481 
L 2053 0 
L 1503 0 
Q 991 0 739 200 
Q 488 400 488 806 
Q 488 878 497 964 
Q 506 1050 525 1153 
L 897 3053 
L 409 3053 
L 500 3500 
L 978 3500 
L 1172 4494 
L 1747 4494 
L 1556 3500 
L 2706 3500 
z
" transform="scale(0.015625)"/>
      <path id="DejaVuSans-29" d="M 513 4856 
L 1013 4856 
Q 1481 4119 1714 3412 
Q 1947 2706 1947 2009 
Q 1947 1309 1714 600 
Q 1481 -109 1013 -844 
L 513 -844 
Q 928 -128 1133 580 
Q 1338 1288 1338 2009 
Q 1338 2731 1133 3434 
Q 928 4138 513 4856 
z
" transform="scale(0.015625)"/>
     </defs>
     <use xlink:href="#DejaVuSans-Oblique-47" transform="translate(0 0.125)"/>
     <use xlink:href="#DejaVuSans-28" transform="translate(77.490234 0.125)"/>
     <use xlink:href="#DejaVuSans-Oblique-74" transform="translate(116.503906 0.125)"/>
     <use xlink:href="#DejaVuSans-29" transform="translate(155.712891 0.125)"/>
    </g>
   </g>
   <g id="legend_1">
    <g id="patch_5">
     <path d="M 507.154965 66.77 
L 515.954965 66.77 
Q 520.354965 66.77 520.354965 62.37 
L 520.354965 53.57 
Q 520.354965 49.17 515.954965 49.17 
L 507.154965 49.17 
Q 502.754965 49.17 502.754965 53.57 
L 502.754965 62.37 
Q 502.754965 66.77 507.154965 66.77 
z
" style="fill: #ffffff; opacity: 0.8; stroke: #cccccc; stroke-linejoin: miter"/>
    </g>
   </g>
  </g>
  <g id="axes_2">
   <g id="patch_6">
    <path d="M 654.34272 287.65 
L 1064.301904 287.65 
L 1064.301904 38.17 
L 654.34272 38.17 
z
" style="fill: #ffffff"/>
   </g>
   <g id="matplotlib.axis_3">
    <g id="xtick_5">
     <g id="line2d_17">
      <g>
       <use xlink:href="#m5300c4052a" x="654.34272" y="287.65" style="stroke: #000000; stroke-width: 0.8"/>
      </g>
     </g>
     <g id="text_13">
      <!-- 0 -->
      <g transform="translate(645.753345 315.165781) scale(0.27 -0.27)">
       <use xlink:href="#DejaVuSans-30"/>
      </g>
     </g>
    </g>
    <g id="xtick_6">
     <g id="line2d_18">
      <g>
       <use xlink:href="#m5300c4052a" x="756.832516" y="287.65" style="stroke: #000000; stroke-width: 0.8"/>
      </g>
     </g>
     <g id="text_14">
      <!-- 25 -->
      <g transform="translate(739.653766 315.165781) scale(0.27 -0.27)">
       <use xlink:href="#DejaVuSans-32"/>
       <use xlink:href="#DejaVuSans-35" x="63.623047"/>
      </g>
     </g>
    </g>
    <g id="xtick_7">
     <g id="line2d_19">
      <g>
       <use xlink:href="#m5300c4052a" x="859.322312" y="287.65" style="stroke: #000000; stroke-width: 0.8"/>
      </g>
     </g>
     <g id="text_15">
      <!-- 50 -->
      <g transform="translate(842.143562 315.165781) scale(0.27 -0.27)">
       <use xlink:href="#DejaVuSans-35"/>
       <use xlink:href="#DejaVuSans-30" x="63.623047"/>
      </g>
     </g>
    </g>
    <g id="xtick_8">
     <g id="line2d_20">
      <g>
       <use xlink:href="#m5300c4052a" x="961.812108" y="287.65" style="stroke: #000000; stroke-width: 0.8"/>
      </g>
     </g>
     <g id="text_16">
      <!-- 75 -->
      <g transform="translate(944.633358 315.165781) scale(0.27 -0.27)">
       <use xlink:href="#DejaVuSans-37"/>
       <use xlink:href="#DejaVuSans-35" x="63.623047"/>
      </g>
     </g>
    </g>
    <g id="text_17">
     <!-- Time [ms] -->
     <g transform="translate(783.724656 347.57625) scale(0.3 -0.3)">
      <use xlink:href="#DejaVuSans-54"/>
      <use xlink:href="#DejaVuSans-69" x="57.958984"/>
      <use xlink:href="#DejaVuSans-6d" x="85.742188"/>
      <use xlink:href="#DejaVuSans-65" x="183.154297"/>
      <use xlink:href="#DejaVuSans-20" x="244.677734"/>
      <use xlink:href="#DejaVuSans-5b" x="276.464844"/>
      <use xlink:href="#DejaVuSans-6d" x="315.478516"/>
      <use xlink:href="#DejaVuSans-73" x="412.890625"/>
      <use xlink:href="#DejaVuSans-5d" x="464.990234"/>
     </g>
    </g>
   </g>
   <g id="matplotlib.axis_4">
    <g id="ytick_6">
     <g id="line2d_21">
      <g>
       <use xlink:href="#m661e2f0f21" x="654.34272" y="287.029403" style="stroke: #000000; stroke-width: 0.8"/>
      </g>
     </g>
     <g id="text_18">
      <!-- −200 -->
      <g transform="translate(573.181314 297.287294) scale(0.27 -0.27)">
       <use xlink:href="#DejaVuSans-2212"/>
       <use xlink:href="#DejaVuSans-32" x="83.789062"/>
       <use xlink:href="#DejaVuSans-30" x="147.412109"/>
       <use xlink:href="#DejaVuSans-30" x="211.035156"/>
      </g>
     </g>
    </g>
    <g id="ytick_7">
     <g id="line2d_22">
      <g>
       <use xlink:href="#m661e2f0f21" x="654.34272" y="224.969701" style="stroke: #000000; stroke-width: 0.8"/>
      </g>
     </g>
     <g id="text_19">
      <!-- −100 -->
      <g transform="translate(573.181314 235.227592) scale(0.27 -0.27)">
       <use xlink:href="#DejaVuSans-2212"/>
       <use xlink:href="#DejaVuSans-31" x="83.789062"/>
       <use xlink:href="#DejaVuSans-30" x="147.412109"/>
       <use xlink:href="#DejaVuSans-30" x="211.035156"/>
      </g>
     </g>
    </g>
    <g id="ytick_8">
     <g id="line2d_23">
      <g>
       <use xlink:href="#m661e2f0f21" x="654.34272" y="162.91" style="stroke: #000000; stroke-width: 0.8"/>
      </g>
     </g>
     <g id="text_20">
      <!-- 0 -->
      <g transform="translate(630.16397 173.167891) scale(0.27 -0.27)">
       <use xlink:href="#DejaVuSans-30"/>
      </g>
     </g>
    </g>
    <g id="ytick_9">
     <g id="line2d_24">
      <g>
       <use xlink:href="#m661e2f0f21" x="654.34272" y="100.850299" style="stroke: #000000; stroke-width: 0.8"/>
      </g>
     </g>
     <g id="text_21">
      <!-- 100 -->
      <g transform="translate(595.80647 111.108189) scale(0.27 -0.27)">
       <use xlink:href="#DejaVuSans-31"/>
       <use xlink:href="#DejaVuSans-30" x="63.623047"/>
       <use xlink:href="#DejaVuSans-30" x="127.246094"/>
      </g>
     </g>
    </g>
    <g id="ytick_10">
     <g id="line2d_25">
      <g>
       <use xlink:href="#m661e2f0f21" x="654.34272" y="38.790597" style="stroke: #000000; stroke-width: 0.8"/>
      </g>
     </g>
     <g id="text_22">
      <!-- 200 -->
      <g transform="translate(595.80647 49.048488) scale(0.27 -0.27)">
       <use xlink:href="#DejaVuSans-32"/>
       <use xlink:href="#DejaVuSans-30" x="63.623047"/>
       <use xlink:href="#DejaVuSans-30" x="127.246094"/>
      </g>
     </g>
    </g>
    <g id="text_23">
     <!-- T/m/s -->
     <g transform="translate(562.942251 204.602969) rotate(-90) scale(0.3 -0.3)">
      <use xlink:href="#DejaVuSans-54"/>
      <use xlink:href="#DejaVuSans-2f" x="61.083984"/>
      <use xlink:href="#DejaVuSans-6d" x="94.775391"/>
      <use xlink:href="#DejaVuSans-2f" x="192.1875"/>
      <use xlink:href="#DejaVuSans-73" x="225.878906"/>
     </g>
    </g>
   </g>
   <g id="line2d_26">
    <path d="M 654.34272 162.91 
L 1064.301904 162.91 
" clip-path="url(#p9943b22725)" style="fill: none; stroke: #d3d3d3; stroke-opacity: 0.8; stroke-width: 1.5; stroke-linecap: square"/>
   </g>
   <g id="line2d_27">
    <path d="M 654.34272 162.91 
L 665.821577 162.91 
L 666.641496 40.031519 
L 667.461414 86.781647 
L 668.281332 103.734047 
L 669.101251 135.554918 
L 669.921169 139.376095 
L 670.741087 139.557858 
L 673.200842 139.812482 
L 674.840679 139.974114 
L 675.660598 140.098018 
L 677.300434 140.194258 
L 678.120353 140.296845 
L 678.940271 141.0153 
L 679.760189 162.920728 
L 680.580108 162.866068 
L 681.400026 162.951431 
L 682.219945 162.882724 
L 683.039863 162.967255 
L 683.859781 162.90136 
L 685.499618 162.921146 
L 687.139455 162.96235 
L 687.959373 164.699169 
L 688.779291 164.487086 
L 689.59921 165.44594 
L 690.419128 162.995688 
L 691.239047 170.768238 
L 692.058965 208.962985 
L 693.698802 226.051707 
L 694.51872 214.46725 
L 695.338638 207.696072 
L 696.158557 210.468345 
L 696.978475 212.20433 
L 697.798393 166.585654 
L 698.618312 207.102491 
L 699.43823 162.969208 
L 700.258149 209.082109 
L 701.078067 162.953323 
L 701.897985 208.239411 
L 702.717904 164.211589 
L 703.537822 205.043772 
L 704.35774 167.346138 
L 705.177659 202.736802 
L 705.997577 167.885302 
L 706.817496 201.412625 
L 707.637414 165.549799 
L 708.457332 205.034692 
L 709.277251 162.988087 
L 710.097169 207.072778 
L 710.917087 162.956529 
L 711.737006 206.447208 
L 712.556924 162.959778 
L 713.376842 206.039995 
L 714.196761 162.944204 
L 715.016679 204.370064 
L 715.836598 162.991074 
L 716.656516 207.059426 
L 717.476434 162.961762 
L 718.296353 203.437747 
L 719.116271 163.053033 
L 719.936189 162.929644 
L 720.756108 162.978393 
L 721.576026 162.883177 
L 723.215863 162.983515 
L 724.035781 162.760322 
L 724.8557 162.922173 
L 725.675618 162.805523 
L 726.495536 162.879926 
L 727.315455 127.653918 
L 728.135373 109.767475 
L 728.955291 107.656126 
L 729.77521 131.781872 
L 730.595128 123.903936 
L 732.234965 114.809693 
L 733.054883 115.179447 
L 733.874802 133.389145 
L 734.69472 162.91 
L 763.391863 162.91 
L 764.211781 61.409393 
L 765.0317 111.945764 
L 765.851618 115.31544 
L 766.671536 117.480416 
L 767.491455 121.299599 
L 768.311373 139.8071 
L 770.771128 140.08295 
L 771.591047 140.08946 
L 772.410965 140.213284 
L 773.230883 140.189327 
L 774.050802 140.302631 
L 774.87072 140.566027 
L 775.690638 162.896884 
L 776.510557 162.884362 
L 777.330475 163.085203 
L 778.150393 162.898956 
L 778.970312 165.530128 
L 779.79023 276.711332 
L 780.610149 211.889672 
L 781.430067 208.407335 
L 782.249985 206.319336 
L 783.069904 204.823293 
L 783.889822 203.60035 
L 784.70974 202.658961 
L 786.349577 201.312299 
L 787.169496 200.820638 
L 787.169496 200.820638 
" clip-path="url(#p9943b22725)" style="fill: none; stroke: #000000; stroke-width: 5; stroke-linecap: square"/>
   </g>
   <g id="line2d_28">
    <path d="M 654.34272 38.790597 
L 1064.301904 38.790597 
" clip-path="url(#p9943b22725)" style="fill: none; stroke-dasharray: 18.5,8; stroke-dashoffset: 0; stroke: #000000; stroke-opacity: 0.2; stroke-width: 5"/>
   </g>
   <g id="line2d_29">
    <path d="M 654.34272 287.029403 
L 1064.301904 287.029403 
" clip-path="url(#p9943b22725)" style="fill: none; stroke-dasharray: 18.5,8; stroke-dashoffset: 0; stroke: #000000; stroke-opacity: 0.2; stroke-width: 5"/>
   </g>
   <g id="line2d_30">
    <path d="M 654.34272 162.91 
L 1064.301904 162.91 
" clip-path="url(#p9943b22725)" style="fill: none; stroke: #000000; stroke-width: 5; stroke-linecap: square"/>
   </g>
   <g id="patch_7">
    <path d="M 654.34272 287.65 
L 654.34272 38.17 
" style="fill: none; stroke: #000000; stroke-width: 0.8; stroke-linejoin: miter; stroke-linecap: square"/>
   </g>
   <g id="patch_8">
    <path d="M 654.34272 287.65 
L 1064.301904 287.65 
" style="fill: none; stroke: #000000; stroke-width: 0.8; stroke-linejoin: miter; stroke-linecap: square"/>
   </g>
   <g id="text_24">
    <!-- $S(t)$ -->
    <g transform="translate(830.362312 31.515) scale(0.32 -0.32)">
     <defs>
      <path id="DejaVuSans-Oblique-53" d="M 3859 4513 
L 3738 3897 
Q 3422 4066 3111 4152 
Q 2800 4238 2509 4238 
Q 1944 4238 1609 3991 
Q 1275 3744 1275 3334 
Q 1275 3109 1398 2989 
Q 1522 2869 2034 2731 
L 2413 2638 
Q 3053 2472 3303 2217 
Q 3553 1963 3553 1503 
Q 3553 797 2998 353 
Q 2444 -91 1538 -91 
Q 1166 -91 791 -17 
Q 416 56 38 206 
L 166 856 
Q 513 641 861 531 
Q 1209 422 1556 422 
Q 2147 422 2503 684 
Q 2859 947 2859 1369 
Q 2859 1650 2717 1795 
Q 2575 1941 2106 2059 
L 1728 2156 
Q 1081 2325 845 2545 
Q 609 2766 609 3163 
Q 609 3859 1145 4304 
Q 1681 4750 2541 4750 
Q 2875 4750 3203 4690 
Q 3531 4631 3859 4513 
z
" transform="scale(0.015625)"/>
     </defs>
     <use xlink:href="#DejaVuSans-Oblique-53" transform="translate(0 0.125)"/>
     <use xlink:href="#DejaVuSans-28" transform="translate(63.476562 0.125)"/>
     <use xlink:href="#DejaVuSans-Oblique-74" transform="translate(102.490234 0.125)"/>
     <use xlink:href="#DejaVuSans-29" transform="translate(141.699219 0.125)"/>
    </g>
   </g>
  </g>
  <g id="axes_3">
   <g id="patch_9">
    <path d="M 1187.289659 287.65 
L 1597.248842 287.65 
L 1597.248842 38.17 
L 1187.289659 38.17 
z
" style="fill: #ffffff"/>
   </g>
   <g id="matplotlib.axis_5">
    <g id="xtick_9">
     <g id="line2d_31">
      <g>
       <use xlink:href="#m5300c4052a" x="1187.289659" y="287.65" style="stroke: #000000; stroke-width: 0.8"/>
      </g>
     </g>
     <g id="text_25">
      <!-- 0 -->
      <g transform="translate(1178.700284 315.165781) scale(0.27 -0.27)">
       <use xlink:href="#DejaVuSans-30"/>
      </g>
     </g>
    </g>
    <g id="xtick_10">
     <g id="line2d_32">
      <g>
       <use xlink:href="#m5300c4052a" x="1289.779455" y="287.65" style="stroke: #000000; stroke-width: 0.8"/>
      </g>
     </g>
     <g id="text_26">
      <!-- 25 -->
      <g transform="translate(1272.600705 315.165781) scale(0.27 -0.27)">
       <use xlink:href="#DejaVuSans-32"/>
       <use xlink:href="#DejaVuSans-35" x="63.623047"/>
      </g>
     </g>
    </g>
    <g id="xtick_11">
     <g id="line2d_33">
      <g>
       <use xlink:href="#m5300c4052a" x="1392.269251" y="287.65" style="stroke: #000000; stroke-width: 0.8"/>
      </g>
     </g>
     <g id="text_27">
      <!-- 50 -->
      <g transform="translate(1375.090501 315.165781) scale(0.27 -0.27)">
       <use xlink:href="#DejaVuSans-35"/>
       <use xlink:href="#DejaVuSans-30" x="63.623047"/>
      </g>
     </g>
    </g>
    <g id="xtick_12">
     <g id="line2d_34">
      <g>
       <use xlink:href="#m5300c4052a" x="1494.759047" y="287.65" style="stroke: #000000; stroke-width: 0.8"/>
      </g>
     </g>
     <g id="text_28">
      <!-- 75 -->
      <g transform="translate(1477.580297 315.165781) scale(0.27 -0.27)">
       <use xlink:href="#DejaVuSans-37"/>
       <use xlink:href="#DejaVuSans-35" x="63.623047"/>
      </g>
     </g>
    </g>
    <g id="text_29">
     <!-- Time [ms] -->
     <g transform="translate(1316.671594 347.57625) scale(0.3 -0.3)">
      <use xlink:href="#DejaVuSans-54"/>
      <use xlink:href="#DejaVuSans-69" x="57.958984"/>
      <use xlink:href="#DejaVuSans-6d" x="85.742188"/>
      <use xlink:href="#DejaVuSans-65" x="183.154297"/>
      <use xlink:href="#DejaVuSans-20" x="244.677734"/>
      <use xlink:href="#DejaVuSans-5b" x="276.464844"/>
      <use xlink:href="#DejaVuSans-6d" x="315.478516"/>
      <use xlink:href="#DejaVuSans-73" x="412.890625"/>
      <use xlink:href="#DejaVuSans-5d" x="464.990234"/>
     </g>
    </g>
   </g>
   <g id="matplotlib.axis_6">
    <g id="ytick_11">
     <g id="line2d_35">
      <g>
       <use xlink:href="#m661e2f0f21" x="1187.289659" y="287.65" style="stroke: #000000; stroke-width: 0.8"/>
      </g>
     </g>
     <g id="text_30">
      <!-- 0.00 -->
      <g transform="translate(1120.172471 297.907891) scale(0.27 -0.27)">
       <defs>
        <path id="DejaVuSans-2e" d="M 684 794 
L 1344 794 
L 1344 0 
L 684 0 
L 684 794 
z
" transform="scale(0.015625)"/>
       </defs>
       <use xlink:href="#DejaVuSans-30"/>
       <use xlink:href="#DejaVuSans-2e" x="63.623047"/>
       <use xlink:href="#DejaVuSans-30" x="95.410156"/>
       <use xlink:href="#DejaVuSans-30" x="159.033203"/>
      </g>
     </g>
    </g>
    <g id="ytick_12">
     <g id="line2d_36">
      <g>
       <use xlink:href="#m661e2f0f21" x="1187.289659" y="225.28" style="stroke: #000000; stroke-width: 0.8"/>
      </g>
     </g>
     <g id="text_31">
      <!-- 0.25 -->
      <g transform="translate(1120.172471 235.537891) scale(0.27 -0.27)">
       <use xlink:href="#DejaVuSans-30"/>
       <use xlink:href="#DejaVuSans-2e" x="63.623047"/>
       <use xlink:href="#DejaVuSans-32" x="95.410156"/>
       <use xlink:href="#DejaVuSans-35" x="159.033203"/>
      </g>
     </g>
    </g>
    <g id="ytick_13">
     <g id="line2d_37">
      <g>
       <use xlink:href="#m661e2f0f21" x="1187.289659" y="162.91" style="stroke: #000000; stroke-width: 0.8"/>
      </g>
     </g>
     <g id="text_32">
      <!-- 0.50 -->
      <g transform="translate(1120.172471 173.167891) scale(0.27 -0.27)">
       <use xlink:href="#DejaVuSans-30"/>
       <use xlink:href="#DejaVuSans-2e" x="63.623047"/>
       <use xlink:href="#DejaVuSans-35" x="95.410156"/>
       <use xlink:href="#DejaVuSans-30" x="159.033203"/>
      </g>
     </g>
    </g>
    <g id="ytick_14">
     <g id="line2d_38">
      <g>
       <use xlink:href="#m661e2f0f21" x="1187.289659" y="100.54" style="stroke: #000000; stroke-width: 0.8"/>
      </g>
     </g>
     <g id="text_33">
      <!-- 0.75 -->
      <g transform="translate(1120.172471 110.797891) scale(0.27 -0.27)">
       <use xlink:href="#DejaVuSans-30"/>
       <use xlink:href="#DejaVuSans-2e" x="63.623047"/>
       <use xlink:href="#DejaVuSans-37" x="95.410156"/>
       <use xlink:href="#DejaVuSans-35" x="159.033203"/>
      </g>
     </g>
    </g>
    <g id="ytick_15">
     <g id="line2d_39">
      <g>
       <use xlink:href="#m661e2f0f21" x="1187.289659" y="38.17" style="stroke: #000000; stroke-width: 0.8"/>
      </g>
     </g>
     <g id="text_34">
      <!-- 1.00 -->
      <g transform="translate(1120.172471 48.427891) scale(0.27 -0.27)">
       <use xlink:href="#DejaVuSans-31"/>
       <use xlink:href="#DejaVuSans-2e" x="63.623047"/>
       <use xlink:href="#DejaVuSans-30" x="95.410156"/>
       <use xlink:href="#DejaVuSans-30" x="159.033203"/>
      </g>
     </g>
    </g>
    <g id="text_35">
     <!-- unitless -->
     <g transform="translate(1109.933409 220.995156) rotate(-90) scale(0.3 -0.3)">
      <defs>
       <path id="DejaVuSans-75" d="M 544 1381 
L 544 3500 
L 1119 3500 
L 1119 1403 
Q 1119 906 1312 657 
Q 1506 409 1894 409 
Q 2359 409 2629 706 
Q 2900 1003 2900 1516 
L 2900 3500 
L 3475 3500 
L 3475 0 
L 2900 0 
L 2900 538 
Q 2691 219 2414 64 
Q 2138 -91 1772 -91 
Q 1169 -91 856 284 
Q 544 659 544 1381 
z
M 1991 3584 
L 1991 3584 
z
" transform="scale(0.015625)"/>
       <path id="DejaVuSans-6e" d="M 3513 2113 
L 3513 0 
L 2938 0 
L 2938 2094 
Q 2938 2591 2744 2837 
Q 2550 3084 2163 3084 
Q 1697 3084 1428 2787 
Q 1159 2491 1159 1978 
L 1159 0 
L 581 0 
L 581 3500 
L 1159 3500 
L 1159 2956 
Q 1366 3272 1645 3428 
Q 1925 3584 2291 3584 
Q 2894 3584 3203 3211 
Q 3513 2838 3513 2113 
z
" transform="scale(0.015625)"/>
       <path id="DejaVuSans-74" d="M 1172 4494 
L 1172 3500 
L 2356 3500 
L 2356 3053 
L 1172 3053 
L 1172 1153 
Q 1172 725 1289 603 
Q 1406 481 1766 481 
L 2356 481 
L 2356 0 
L 1766 0 
Q 1100 0 847 248 
Q 594 497 594 1153 
L 594 3053 
L 172 3053 
L 172 3500 
L 594 3500 
L 594 4494 
L 1172 4494 
z
" transform="scale(0.015625)"/>
       <path id="DejaVuSans-6c" d="M 603 4863 
L 1178 4863 
L 1178 0 
L 603 0 
L 603 4863 
z
" transform="scale(0.015625)"/>
      </defs>
      <use xlink:href="#DejaVuSans-75"/>
      <use xlink:href="#DejaVuSans-6e" x="63.378906"/>
      <use xlink:href="#DejaVuSans-69" x="126.757812"/>
      <use xlink:href="#DejaVuSans-74" x="154.541016"/>
      <use xlink:href="#DejaVuSans-6c" x="193.75"/>
      <use xlink:href="#DejaVuSans-65" x="221.533203"/>
      <use xlink:href="#DejaVuSans-73" x="283.056641"/>
      <use xlink:href="#DejaVuSans-73" x="335.15625"/>
     </g>
    </g>
   </g>
   <g id="line2d_40">
    <path d="M 1187.289659 287.65 
L 1597.248842 287.65 
" clip-path="url(#p7e93c5c7f4)" style="fill: none; stroke: #d3d3d3; stroke-opacity: 0.8; stroke-width: 1.5; stroke-linecap: square"/>
   </g>
   <g id="line2d_41">
    <path d="M 1187.289659 287.65 
L 1199.588434 287.65 
L 1200.408353 146.72104 
L 1201.228271 118.659967 
L 1202.048189 118.600489 
L 1202.868108 151.893589 
L 1203.688026 173.07134 
L 1204.507945 184.31114 
L 1205.327863 190.329845 
L 1206.147781 193.736523 
L 1206.9677 195.605052 
L 1207.787618 196.724157 
L 1208.607536 197.28041 
L 1209.427455 197.605368 
L 1211.067291 197.585183 
L 1211.88721 197.47572 
L 1212.707128 198.028528 
L 1213.527047 223.255112 
L 1214.346965 237.60862 
L 1215.166883 246.393988 
L 1215.986802 251.983767 
L 1216.80672 255.926233 
L 1217.626638 258.714107 
L 1218.446557 260.914476 
L 1219.266475 262.596342 
L 1220.086393 264.010306 
L 1220.906312 265.086492 
L 1221.72623 264.88898 
L 1222.546149 265.372633 
L 1223.366067 265.352166 
L 1224.185985 267.297428 
L 1225.005904 259.91588 
L 1225.825822 211.551205 
L 1227.465659 140.683867 
L 1228.285577 133.02344 
L 1229.105496 134.203897 
L 1229.925414 129.846873 
L 1230.745332 123.873544 
L 1231.565251 171.446859 
L 1232.385169 151.352872 
L 1233.205087 190.416431 
L 1234.025006 159.707263 
L 1234.844924 195.284939 
L 1235.664842 163.561956 
L 1236.484761 196.118692 
L 1237.304679 167.721843 
L 1238.124598 194.862053 
L 1238.944516 169.586081 
L 1239.764434 195.168309 
L 1240.584353 171.124811 
L 1241.404271 198.549157 
L 1242.224189 168.748484 
L 1243.044108 199.980643 
L 1243.864026 167.023492 
L 1244.683945 198.822796 
L 1245.503863 166.823572 
L 1246.323781 198.432036 
L 1247.1437 166.79757 
L 1247.963618 198.169009 
L 1248.783536 168.304961 
L 1249.603455 198.7375 
L 1250.423373 165.343768 
L 1251.243291 196.863485 
L 1252.06321 168.151978 
L 1252.883128 198.100684 
L 1253.703047 215.129867 
L 1254.522965 225.248499 
L 1255.342883 231.827899 
L 1256.162802 236.268134 
L 1256.98272 239.472006 
L 1257.802638 242.201498 
L 1259.442475 245.912652 
L 1260.262393 247.307486 
L 1261.082312 213.114039 
L 1261.90223 169.275355 
L 1262.722149 140.648346 
L 1263.542067 150.142714 
L 1264.361985 144.751973 
L 1265.181904 134.893664 
L 1266.001822 123.195953 
L 1266.82174 115.761595 
L 1267.641659 131.203435 
L 1268.461577 172.922848 
L 1269.281496 196.5682 
L 1270.101414 210.766197 
L 1270.921332 219.872903 
L 1271.741251 226.119918 
L 1272.561169 230.675461 
L 1273.381087 234.170291 
L 1274.201006 236.95944 
L 1275.020924 239.253304 
L 1276.660761 242.839255 
L 1278.300598 245.553192 
L 1279.940434 247.718918 
L 1281.580271 249.525541 
L 1284.040026 251.805869 
L 1286.499781 253.763026 
L 1289.779455 256.06782 
L 1293.879047 258.636121 
L 1297.15872 260.510748 
L 1297.978638 144.547535 
L 1298.798557 135.478664 
L 1299.618475 131.589246 
L 1300.438393 129.689846 
L 1301.258312 131.221544 
L 1302.07823 151.909192 
L 1302.898149 162.933642 
L 1303.718067 168.919785 
L 1304.537985 172.380671 
L 1305.357904 174.366076 
L 1306.177822 175.665411 
L 1306.99774 176.39457 
L 1308.637577 177.521525 
L 1309.457496 203.423479 
L 1310.277414 218.363241 
L 1311.097332 227.754155 
L 1311.917251 233.711172 
L 1312.737169 238.35768 
L 1313.557087 125.71525 
L 1314.377006 123.851897 
L 1316.836761 123.385211 
L 1320.936353 122.6966 
L 1320.936353 122.6966 
" clip-path="url(#p7e93c5c7f4)" style="fill: none; stroke: #000000; stroke-width: 5; stroke-linecap: square"/>
   </g>
   <g id="line2d_42">
    <path d="M 1187.289659 287.65 
L 1597.248842 287.65 
" clip-path="url(#p7e93c5c7f4)" style="fill: none; stroke: #000000; stroke-width: 5; stroke-linecap: square"/>
   </g>
   <g id="line2d_43">
    <path d="M 1187.289659 119.377963 
L 1188.929496 118.755619 
L 1191.389251 118.142723 
L 1194.668924 117.62483 
L 1199.588434 117.102901 
L 1208.607536 116.39704 
L 1221.72623 115.604112 
L 1237.304679 114.901312 
L 1255.342883 114.322183 
L 1267.641659 114.03292 
L 1268.461577 162.548391 
L 1269.281496 195.656142 
L 1270.101414 152.844845 
L 1270.921332 167.148709 
L 1271.741251 140.961186 
L 1272.561169 130.694213 
L 1273.381087 126.385564 
L 1274.201006 124.360729 
L 1275.020924 123.25256 
L 1275.840842 122.543236 
L 1277.480679 121.626648 
L 1279.120516 121.013599 
L 1281.580271 120.363131 
L 1284.859945 119.743514 
L 1290.599373 118.934595 
L 1293.879047 118.543433 
L 1294.698965 185.087666 
L 1296.338802 158.886354 
L 1297.15872 166.225325 
L 1297.978638 143.108259 
L 1298.798557 133.943633 
L 1299.618475 130.013093 
L 1300.438393 128.098357 
L 1301.258312 127.000031 
L 1302.07823 126.262301 
L 1303.718067 125.252525 
L 1305.357904 124.533483 
L 1307.817659 123.720921 
L 1311.097332 122.890089 
L 1316.016842 121.888093 
L 1320.936353 121.029863 
L 1320.936353 121.029863 
" clip-path="url(#p7e93c5c7f4)" style="fill: none; stroke-dasharray: 22.2,9.6; stroke-dashoffset: 0; stroke: #ff0000; stroke-width: 6"/>
   </g>
   <g id="line2d_44">
    <path d="M 1187.289659 75.592 
L 1597.248842 75.592 
" clip-path="url(#p7e93c5c7f4)" style="fill: none; stroke-dasharray: 5,8.25; stroke-dashoffset: 0; stroke: #ff0000; stroke-opacity: 0.5; stroke-width: 5"/>
   </g>
   <g id="patch_10">
    <path d="M 1187.289659 287.65 
L 1187.289659 38.17 
" style="fill: none; stroke: #000000; stroke-width: 0.8; stroke-linejoin: miter; stroke-linecap: square"/>
   </g>
   <g id="patch_11">
    <path d="M 1187.289659 287.65 
L 1597.248842 287.65 
" style="fill: none; stroke: #000000; stroke-width: 0.8; stroke-linejoin: miter; stroke-linecap: square"/>
   </g>
   <g id="text_36">
    <!-- SAFE-PNS -->
    <g transform="translate(1314.006751 31.515) scale(0.32 -0.32)">
     <defs>
      <path id="DejaVuSans-53" d="M 3425 4513 
L 3425 3897 
Q 3066 4069 2747 4153 
Q 2428 4238 2131 4238 
Q 1616 4238 1336 4038 
Q 1056 3838 1056 3469 
Q 1056 3159 1242 3001 
Q 1428 2844 1947 2747 
L 2328 2669 
Q 3034 2534 3370 2195 
Q 3706 1856 3706 1288 
Q 3706 609 3251 259 
Q 2797 -91 1919 -91 
Q 1588 -91 1214 -16 
Q 841 59 441 206 
L 441 856 
Q 825 641 1194 531 
Q 1563 422 1919 422 
Q 2459 422 2753 634 
Q 3047 847 3047 1241 
Q 3047 1584 2836 1778 
Q 2625 1972 2144 2069 
L 1759 2144 
Q 1053 2284 737 2584 
Q 422 2884 422 3419 
Q 422 4038 858 4394 
Q 1294 4750 2059 4750 
Q 2388 4750 2728 4690 
Q 3069 4631 3425 4513 
z
" transform="scale(0.015625)"/>
      <path id="DejaVuSans-41" d="M 2188 4044 
L 1331 1722 
L 3047 1722 
L 2188 4044 
z
M 1831 4666 
L 2547 4666 
L 4325 0 
L 3669 0 
L 3244 1197 
L 1141 1197 
L 716 0 
L 50 0 
L 1831 4666 
z
" transform="scale(0.015625)"/>
      <path id="DejaVuSans-46" d="M 628 4666 
L 3309 4666 
L 3309 4134 
L 1259 4134 
L 1259 2759 
L 3109 2759 
L 3109 2228 
L 1259 2228 
L 1259 0 
L 628 0 
L 628 4666 
z
" transform="scale(0.015625)"/>
      <path id="DejaVuSans-45" d="M 628 4666 
L 3578 4666 
L 3578 4134 
L 1259 4134 
L 1259 2753 
L 3481 2753 
L 3481 2222 
L 1259 2222 
L 1259 531 
L 3634 531 
L 3634 0 
L 628 0 
L 628 4666 
z
" transform="scale(0.015625)"/>
      <path id="DejaVuSans-2d" d="M 313 2009 
L 1997 2009 
L 1997 1497 
L 313 1497 
L 313 2009 
z
" transform="scale(0.015625)"/>
      <path id="DejaVuSans-50" d="M 1259 4147 
L 1259 2394 
L 2053 2394 
Q 2494 2394 2734 2622 
Q 2975 2850 2975 3272 
Q 2975 3691 2734 3919 
Q 2494 4147 2053 4147 
L 1259 4147 
z
M 628 4666 
L 2053 4666 
Q 2838 4666 3239 4311 
Q 3641 3956 3641 3272 
Q 3641 2581 3239 2228 
Q 2838 1875 2053 1875 
L 1259 1875 
L 1259 0 
L 628 0 
L 628 4666 
z
" transform="scale(0.015625)"/>
      <path id="DejaVuSans-4e" d="M 628 4666 
L 1478 4666 
L 3547 763 
L 3547 4666 
L 4159 4666 
L 4159 0 
L 3309 0 
L 1241 3903 
L 1241 0 
L 628 0 
L 628 4666 
z
" transform="scale(0.015625)"/>
     </defs>
     <use xlink:href="#DejaVuSans-53"/>
     <use xlink:href="#DejaVuSans-41" x="65.351562"/>
     <use xlink:href="#DejaVuSans-46" x="133.759766"/>
     <use xlink:href="#DejaVuSans-45" x="191.279297"/>
     <use xlink:href="#DejaVuSans-2d" x="254.462891"/>
     <use xlink:href="#DejaVuSans-50" x="290.546875"/>
     <use xlink:href="#DejaVuSans-4e" x="350.849609"/>
     <use xlink:href="#DejaVuSans-53" x="425.654297"/>
    </g>
   </g>
   <g id="legend_2">
    <g id="patch_12">
     <path d="M 1448.611342 276.65 
L 1581.848842 276.65 
Q 1586.248842 276.65 1586.248842 272.25 
L 1586.248842 242.158125 
Q 1586.248842 237.758125 1581.848842 237.758125 
L 1448.611342 237.758125 
Q 1444.211342 237.758125 1444.211342 242.158125 
L 1444.211342 272.25 
Q 1444.211342 276.65 1448.611342 276.65 
z
" style="fill: #ffffff; opacity: 0.2; stroke: #cccccc; stroke-linejoin: miter"/>
    </g>
    <g id="line2d_45">
     <path d="M 1453.011342 255.574688 
L 1475.011342 255.574688 
L 1497.011342 255.574688 
" style="fill: none; stroke: #000000; stroke-width: 5; stroke-linecap: square"/>
    </g>
    <g id="text_37">
     <!-- Y-axis -->
     <g transform="translate(1514.611342 263.274688) scale(0.22 -0.22)">
      <defs>
       <path id="DejaVuSans-59" d="M -13 4666 
L 666 4666 
L 1959 2747 
L 3244 4666 
L 3922 4666 
L 2272 2222 
L 2272 0 
L 1638 0 
L 1638 2222 
L -13 4666 
z
" transform="scale(0.015625)"/>
       <path id="DejaVuSans-61" d="M 2194 1759 
Q 1497 1759 1228 1600 
Q 959 1441 959 1056 
Q 959 750 1161 570 
Q 1363 391 1709 391 
Q 2188 391 2477 730 
Q 2766 1069 2766 1631 
L 2766 1759 
L 2194 1759 
z
M 3341 1997 
L 3341 0 
L 2766 0 
L 2766 531 
Q 2569 213 2275 61 
Q 1981 -91 1556 -91 
Q 1019 -91 701 211 
Q 384 513 384 1019 
Q 384 1609 779 1909 
Q 1175 2209 1959 2209 
L 2766 2209 
L 2766 2266 
Q 2766 2663 2505 2880 
Q 2244 3097 1772 3097 
Q 1472 3097 1187 3025 
Q 903 2953 641 2809 
L 641 3341 
Q 956 3463 1253 3523 
Q 1550 3584 1831 3584 
Q 2591 3584 2966 3190 
Q 3341 2797 3341 1997 
z
" transform="scale(0.015625)"/>
       <path id="DejaVuSans-78" d="M 3513 3500 
L 2247 1797 
L 3578 0 
L 2900 0 
L 1881 1375 
L 863 0 
L 184 0 
L 1544 1831 
L 300 3500 
L 978 3500 
L 1906 2253 
L 2834 3500 
L 3513 3500 
z
" transform="scale(0.015625)"/>
      </defs>
      <use xlink:href="#DejaVuSans-59"/>
      <use xlink:href="#DejaVuSans-2d" x="49.208984"/>
      <use xlink:href="#DejaVuSans-61" x="85.292969"/>
      <use xlink:href="#DejaVuSans-78" x="146.572266"/>
      <use xlink:href="#DejaVuSans-69" x="205.751953"/>
      <use xlink:href="#DejaVuSans-73" x="233.535156"/>
     </g>
    </g>
   </g>
  </g>
  <g id="axes_4">
   <g id="patch_13">
    <path d="M 1720.236598 287.65 
L 2130.195781 287.65 
L 2130.195781 38.17 
L 1720.236598 38.17 
z
" style="fill: #ffffff"/>
   </g>
   <g id="matplotlib.axis_7">
    <g id="xtick_13">
     <g id="line2d_46">
      <g>
       <use xlink:href="#m5300c4052a" x="1720.236598" y="287.65" style="stroke: #000000; stroke-width: 0.8"/>
      </g>
     </g>
     <g id="text_38">
      <!-- 0 -->
      <g transform="translate(1711.647223 315.165781) scale(0.27 -0.27)">
       <use xlink:href="#DejaVuSans-30"/>
      </g>
     </g>
    </g>
    <g id="xtick_14">
     <g id="line2d_47">
      <g>
       <use xlink:href="#m5300c4052a" x="1822.726393" y="287.65" style="stroke: #000000; stroke-width: 0.8"/>
      </g>
     </g>
     <g id="text_39">
      <!-- 25 -->
      <g transform="translate(1805.547643 315.165781) scale(0.27 -0.27)">
       <use xlink:href="#DejaVuSans-32"/>
       <use xlink:href="#DejaVuSans-35" x="63.623047"/>
      </g>
     </g>
    </g>
    <g id="xtick_15">
     <g id="line2d_48">
      <g>
       <use xlink:href="#m5300c4052a" x="1925.216189" y="287.65" style="stroke: #000000; stroke-width: 0.8"/>
      </g>
     </g>
     <g id="text_40">
      <!-- 50 -->
      <g transform="translate(1908.037439 315.165781) scale(0.27 -0.27)">
       <use xlink:href="#DejaVuSans-35"/>
       <use xlink:href="#DejaVuSans-30" x="63.623047"/>
      </g>
     </g>
    </g>
    <g id="xtick_16">
     <g id="line2d_49">
      <g>
       <use xlink:href="#m5300c4052a" x="2027.705985" y="287.65" style="stroke: #000000; stroke-width: 0.8"/>
      </g>
     </g>
     <g id="text_41">
      <!-- 75 -->
      <g transform="translate(2010.527235 315.165781) scale(0.27 -0.27)">
       <use xlink:href="#DejaVuSans-37"/>
       <use xlink:href="#DejaVuSans-35" x="63.623047"/>
      </g>
     </g>
    </g>
    <g id="text_42">
     <!-- Time [ms] -->
     <g transform="translate(1849.618533 347.57625) scale(0.3 -0.3)">
      <use xlink:href="#DejaVuSans-54"/>
      <use xlink:href="#DejaVuSans-69" x="57.958984"/>
      <use xlink:href="#DejaVuSans-6d" x="85.742188"/>
      <use xlink:href="#DejaVuSans-65" x="183.154297"/>
      <use xlink:href="#DejaVuSans-20" x="244.677734"/>
      <use xlink:href="#DejaVuSans-5b" x="276.464844"/>
      <use xlink:href="#DejaVuSans-6d" x="315.478516"/>
      <use xlink:href="#DejaVuSans-73" x="412.890625"/>
      <use xlink:href="#DejaVuSans-5d" x="464.990234"/>
     </g>
    </g>
   </g>
   <g id="matplotlib.axis_8">
    <g id="ytick_16">
     <g id="line2d_50">
      <g>
       <use xlink:href="#m661e2f0f21" x="1720.236598" y="287.65" style="stroke: #000000; stroke-width: 0.8"/>
      </g>
     </g>
     <g id="text_43">
      <!-- 0.00 -->
      <g transform="translate(1653.11941 297.907891) scale(0.27 -0.27)">
       <use xlink:href="#DejaVuSans-30"/>
       <use xlink:href="#DejaVuSans-2e" x="63.623047"/>
       <use xlink:href="#DejaVuSans-30" x="95.410156"/>
       <use xlink:href="#DejaVuSans-30" x="159.033203"/>
      </g>
     </g>
    </g>
    <g id="ytick_17">
     <g id="line2d_51">
      <g>
       <use xlink:href="#m661e2f0f21" x="1720.236598" y="225.28" style="stroke: #000000; stroke-width: 0.8"/>
      </g>
     </g>
     <g id="text_44">
      <!-- 0.25 -->
      <g transform="translate(1653.11941 235.537891) scale(0.27 -0.27)">
       <use xlink:href="#DejaVuSans-30"/>
       <use xlink:href="#DejaVuSans-2e" x="63.623047"/>
       <use xlink:href="#DejaVuSans-32" x="95.410156"/>
       <use xlink:href="#DejaVuSans-35" x="159.033203"/>
      </g>
     </g>
    </g>
    <g id="ytick_18">
     <g id="line2d_52">
      <g>
       <use xlink:href="#m661e2f0f21" x="1720.236598" y="162.91" style="stroke: #000000; stroke-width: 0.8"/>
      </g>
     </g>
     <g id="text_45">
      <!-- 0.50 -->
      <g transform="translate(1653.11941 173.167891) scale(0.27 -0.27)">
       <use xlink:href="#DejaVuSans-30"/>
       <use xlink:href="#DejaVuSans-2e" x="63.623047"/>
       <use xlink:href="#DejaVuSans-35" x="95.410156"/>
       <use xlink:href="#DejaVuSans-30" x="159.033203"/>
      </g>
     </g>
    </g>
    <g id="ytick_19">
     <g id="line2d_53">
      <g>
       <use xlink:href="#m661e2f0f21" x="1720.236598" y="100.54" style="stroke: #000000; stroke-width: 0.8"/>
      </g>
     </g>
     <g id="text_46">
      <!-- 0.75 -->
      <g transform="translate(1653.11941 110.797891) scale(0.27 -0.27)">
       <use xlink:href="#DejaVuSans-30"/>
       <use xlink:href="#DejaVuSans-2e" x="63.623047"/>
       <use xlink:href="#DejaVuSans-37" x="95.410156"/>
       <use xlink:href="#DejaVuSans-35" x="159.033203"/>
      </g>
     </g>
    </g>
    <g id="ytick_20">
     <g id="line2d_54">
      <g>
       <use xlink:href="#m661e2f0f21" x="1720.236598" y="38.17" style="stroke: #000000; stroke-width: 0.8"/>
      </g>
     </g>
     <g id="text_47">
      <!-- 1.00 -->
      <g transform="translate(1653.11941 48.427891) scale(0.27 -0.27)">
       <use xlink:href="#DejaVuSans-31"/>
       <use xlink:href="#DejaVuSans-2e" x="63.623047"/>
       <use xlink:href="#DejaVuSans-30" x="95.410156"/>
       <use xlink:href="#DejaVuSans-30" x="159.033203"/>
      </g>
     </g>
    </g>
    <g id="text_48">
     <!-- unitless -->
     <g transform="translate(1642.880348 220.995156) rotate(-90) scale(0.3 -0.3)">
      <use xlink:href="#DejaVuSans-75"/>
      <use xlink:href="#DejaVuSans-6e" x="63.378906"/>
      <use xlink:href="#DejaVuSans-69" x="126.757812"/>
      <use xlink:href="#DejaVuSans-74" x="154.541016"/>
      <use xlink:href="#DejaVuSans-6c" x="193.75"/>
      <use xlink:href="#DejaVuSans-65" x="221.533203"/>
      <use xlink:href="#DejaVuSans-73" x="283.056641"/>
      <use xlink:href="#DejaVuSans-73" x="335.15625"/>
     </g>
    </g>
   </g>
   <g id="line2d_55">
    <path d="M 1720.236598 287.65 
L 2130.195781 287.65 
" clip-path="url(#p9c2f6ed064)" style="fill: none; stroke: #d3d3d3; stroke-opacity: 0.8; stroke-width: 1.5; stroke-linecap: square"/>
   </g>
   <g id="line2d_56">
    <path d="M 1720.236598 287.65 
L 1732.535373 287.65 
L 1733.355291 212.223866 
L 1734.17521 171.584908 
L 1734.995128 144.619864 
L 1735.815047 139.345167 
L 1737.454883 134.587386 
L 1739.09472 130.757072 
L 1740.734557 127.6721 
L 1742.374393 125.191904 
L 1744.01423 123.179343 
L 1744.834149 122.366128 
L 1745.654067 122.049452 
L 1747.293904 147.233303 
L 1748.93374 168.509693 
L 1750.573577 186.501592 
L 1752.213414 201.723739 
L 1753.853251 214.615678 
L 1755.493087 226.215603 
L 1756.313006 231.53416 
L 1757.132924 235.925762 
L 1757.952842 241.625486 
L 1758.772761 255.076786 
L 1759.592679 247.956886 
L 1760.412598 212.859075 
L 1761.232516 187.65789 
L 1763.692271 130.493357 
L 1764.512189 141.13645 
L 1765.332108 126.00264 
L 1766.152026 139.140137 
L 1766.971945 122.871474 
L 1767.791863 136.197631 
L 1768.611781 120.616056 
L 1769.4317 133.289808 
L 1770.251618 119.847671 
L 1771.071536 130.607103 
L 1771.891455 118.749983 
L 1772.711373 129.223249 
L 1773.531291 118.25062 
L 1774.35121 130.16112 
L 1775.171128 116.855986 
L 1775.991047 130.421304 
L 1776.810965 115.816374 
L 1777.630883 129.45982 
L 1778.450802 115.293428 
L 1779.27072 128.955937 
L 1780.090638 115.060846 
L 1780.910557 128.734013 
L 1781.730475 115.865771 
L 1782.550393 129.430471 
L 1783.370312 114.841966 
L 1784.19023 128.495434 
L 1785.010149 116.194515 
L 1786.649985 142.132557 
L 1788.289822 164.10068 
L 1789.929659 182.64291 
L 1791.569496 198.415823 
L 1793.209332 211.778071 
L 1794.029251 225.179657 
L 1794.849169 241.594525 
L 1795.669087 241.452077 
L 1796.489006 226.734905 
L 1798.128842 188.339392 
L 1799.768679 148.123481 
L 1800.588598 141.616222 
L 1802.228434 164.752914 
L 1803.868271 184.128647 
L 1805.508108 200.370529 
L 1807.147945 213.998563 
L 1808.787781 225.444347 
L 1810.427618 235.06643 
L 1812.067455 243.162964 
L 1813.707291 249.982112 
L 1815.347128 255.73063 
L 1816.986965 260.580941 
L 1818.626802 264.676978 
L 1820.266638 268.13901 
L 1821.906475 271.067626 
L 1823.546312 273.547044 
L 1825.186149 275.647839 
L 1826.825985 277.42921 
L 1828.465822 278.940866 
L 1830.105659 280.224583 
L 1830.925577 218.488357 
L 1831.745496 192.759512 
L 1832.565414 171.167027 
L 1833.385332 152.63367 
L 1834.205251 137.925154 
L 1835.845087 133.804079 
L 1837.484924 130.434455 
L 1839.124761 127.678464 
L 1840.764598 125.410571 
L 1841.584516 124.589977 
L 1843.224353 149.412621 
L 1844.864189 170.415421 
L 1845.684108 180.204498 
L 1846.504026 212.937787 
L 1847.323945 230.07963 
L 1848.143863 217.007263 
L 1849.7837 179.46605 
L 1851.423536 150.246057 
L 1853.063373 126.993985 
L 1853.883291 117.134684 
L 1853.883291 117.134684 
" clip-path="url(#p9c2f6ed064)" style="fill: none; stroke: #000000; stroke-width: 5; stroke-linecap: square"/>
   </g>
   <g id="line2d_57">
    <path d="M 1720.236598 287.65 
L 2130.195781 287.65 
" clip-path="url(#p9c2f6ed064)" style="fill: none; stroke: #000000; stroke-width: 5; stroke-linecap: square"/>
   </g>
   <g id="line2d_58">
    <path d="M 1720.236598 124.240509 
L 1721.876434 122.401377 
L 1723.516271 120.87196 
L 1725.156108 119.598644 
L 1726.795945 118.537344 
L 1729.2557 117.265306 
L 1731.715455 116.293348 
L 1734.17521 115.548879 
L 1737.454883 114.817784 
L 1741.554475 114.198316 
L 1746.473985 113.73323 
L 1753.033332 113.387259 
L 1762.052434 113.167595 
L 1777.630883 113.048053 
L 1800.588598 113.017837 
L 1801.408516 133.70577 
L 1802.228434 159.251478 
L 1803.048353 149.819564 
L 1803.868271 147.035338 
L 1805.508108 140.50037 
L 1807.147945 135.231981 
L 1808.787781 130.983022 
L 1810.427618 127.554813 
L 1812.067455 124.787604 
L 1813.707291 122.552915 
L 1815.347128 120.747391 
L 1816.986965 119.287865 
L 1818.626802 118.107398 
L 1820.266638 117.152093 
L 1822.726393 116.04872 
L 1825.186149 115.243624 
L 1826.825985 114.831342 
L 1827.645904 141.736902 
L 1828.465822 161.205919 
L 1829.28574 147.680321 
L 1830.105659 147.385868 
L 1831.745496 140.798271 
L 1833.385332 135.485288 
L 1835.025169 131.198518 
L 1836.665006 127.738229 
L 1838.304842 124.943785 
L 1839.944679 122.685962 
L 1841.584516 120.860777 
L 1843.224353 119.384532 
L 1844.864189 118.18984 
L 1846.504026 117.222429 
L 1848.963781 116.104178 
L 1851.423536 115.287381 
L 1853.883291 114.689827 
L 1853.883291 114.689827 
" clip-path="url(#p9c2f6ed064)" style="fill: none; stroke-dasharray: 22.2,9.6; stroke-dashoffset: 0; stroke: #800080; stroke-width: 6"/>
   </g>
   <g id="line2d_59">
    <path clip-path="url(#p9c2f6ed064)" style="fill: none; stroke-dasharray: 11.1,4.8; stroke-dashoffset: 0; stroke: #800080; stroke-width: 3"/>
   </g>
   <g id="line2d_60">
    <path d="M 1720.236598 75.592 
L 2130.195781 75.592 
" clip-path="url(#p9c2f6ed064)" style="fill: none; stroke-dasharray: 5,8.25; stroke-dashoffset: 0; stroke: #800080; stroke-opacity: 0.5; stroke-width: 5"/>
   </g>
   <g id="patch_14">
    <path d="M 1720.236598 287.65 
L 1720.236598 38.17 
" style="fill: none; stroke: #000000; stroke-width: 0.8; stroke-linejoin: miter; stroke-linecap: square"/>
   </g>
   <g id="patch_15">
    <path d="M 1720.236598 287.65 
L 2130.195781 287.65 
" style="fill: none; stroke: #000000; stroke-width: 0.8; stroke-linejoin: miter; stroke-linecap: square"/>
   </g>
   <g id="text_49">
    <!-- SAFE-CNS -->
    <g transform="translate(1845.428689 31.515) scale(0.32 -0.32)">
     <defs>
      <path id="DejaVuSans-43" d="M 4122 4306 
L 4122 3641 
Q 3803 3938 3442 4084 
Q 3081 4231 2675 4231 
Q 1875 4231 1450 3742 
Q 1025 3253 1025 2328 
Q 1025 1406 1450 917 
Q 1875 428 2675 428 
Q 3081 428 3442 575 
Q 3803 722 4122 1019 
L 4122 359 
Q 3791 134 3420 21 
Q 3050 -91 2638 -91 
Q 1578 -91 968 557 
Q 359 1206 359 2328 
Q 359 3453 968 4101 
Q 1578 4750 2638 4750 
Q 3056 4750 3426 4639 
Q 3797 4528 4122 4306 
z
" transform="scale(0.015625)"/>
     </defs>
     <use xlink:href="#DejaVuSans-53"/>
     <use xlink:href="#DejaVuSans-41" x="65.351562"/>
     <use xlink:href="#DejaVuSans-46" x="133.759766"/>
     <use xlink:href="#DejaVuSans-45" x="191.279297"/>
     <use xlink:href="#DejaVuSans-2d" x="254.462891"/>
     <use xlink:href="#DejaVuSans-43" x="290.546875"/>
     <use xlink:href="#DejaVuSans-4e" x="360.371094"/>
     <use xlink:href="#DejaVuSans-53" x="435.175781"/>
    </g>
   </g>
   <g id="legend_3">
    <g id="patch_16">
     <path d="M 1981.558281 276.65 
L 2114.795781 276.65 
Q 2119.195781 276.65 2119.195781 272.25 
L 2119.195781 242.158125 
Q 2119.195781 237.758125 2114.795781 237.758125 
L 1981.558281 237.758125 
Q 1977.158281 237.758125 1977.158281 242.158125 
L 1977.158281 272.25 
Q 1977.158281 276.65 1981.558281 276.65 
z
" style="fill: #ffffff; opacity: 0.2; stroke: #cccccc; stroke-linejoin: miter"/>
    </g>
    <g id="line2d_61">
     <path d="M 1985.958281 255.574688 
L 2007.958281 255.574688 
L 2029.958281 255.574688 
" style="fill: none; stroke: #000000; stroke-width: 5; stroke-linecap: square"/>
    </g>
    <g id="text_50">
     <!-- Y-axis -->
     <g transform="translate(2047.558281 263.274688) scale(0.22 -0.22)">
      <use xlink:href="#DejaVuSans-59"/>
      <use xlink:href="#DejaVuSans-2d" x="49.208984"/>
      <use xlink:href="#DejaVuSans-61" x="85.292969"/>
      <use xlink:href="#DejaVuSans-78" x="146.572266"/>
      <use xlink:href="#DejaVuSans-69" x="205.751953"/>
      <use xlink:href="#DejaVuSans-73" x="233.535156"/>
     </g>
    </g>
   </g>
  </g>
 </g>
 <defs>
  <clipPath id="p4cb70cba8f">
   <rect x="121.395781" y="38.17" width="409.959184" height="249.48"/>
  </clipPath>
  <clipPath id="p9943b22725">
   <rect x="654.34272" y="38.17" width="409.959184" height="249.48"/>
  </clipPath>
  <clipPath id="p7e93c5c7f4">
   <rect x="1187.289659" y="38.17" width="409.959184" height="249.48"/>
  </clipPath>
  <clipPath id="p9c2f6ed064">
   <rect x="1720.236598" y="38.17" width="409.959184" height="249.48"/>
  </clipPath>
 </defs>
</svg>
