<?xml version="1.0" encoding="utf-8" standalone="no"?>
<!DOCTYPE svg PUBLIC "-//W3C//DTD SVG 1.1//EN"
  "http://www.w3.org/Graphics/SVG/1.1/DTD/svg11.dtd">
<svg xmlns:xlink="http://www.w3.org/1999/xlink" width="2137.395781pt" height="361.015312pt" viewBox="0 0 2137.395781 361.015312" xmlns="http://www.w3.org/2000/svg" version="1.1">
 <metadata>
  <rdf:RDF xmlns:dc="http://purl.org/dc/elements/1.1/" xmlns:cc="http://creativecommons.org/ns#" xmlns:rdf="http://www.w3.org/1999/02/22-rdf-syntax-ns#">
   <cc:Work>
    <dc:type rdf:resource="http://purl.org/dc/dcmitype/StillImage"/>
    <dc:date>2026-02-03T16:50:52.920835</dc:date>
    <dc:format>image/svg+xml</dc:format>
    <dc:creator>
     <cc:Agent>
      <dc:title>Matplotlib v3.9.0, https://matplotlib.org/</dc:title>
     </cc:Agent>
    </dc:creator>
   </cc:Work>
  </rdf:RDF>
 </metadata>
 <defs>
  <style type="text/css">*{stroke-linejoin: round; stroke-linecap: butt}</style>
 </defs>
 <g id="figure_1">
  <g id="patch_1">
   <path d="M 0 361.015312 
L 2137.395781 361.015312 
L 2137.395781 0 
L 0 0 
z
" style="fill: #ffffff"/>
  </g>
  <g id="axes_1">
   <g id="patch_2">
    <path d="M 121.395781 287.65 
L 531.354965 287.65 
L 531.354965 38.17 
L 121.395781 38.17 
z
" style="fill: #ffffff"/>
   </g>
   <g id="PolyCollection_1">
    <defs>
     <path id="m7bf2ec2732" d="M 121.395781 -198.105312 
L 121.395781 -198.105312 
L 122.2157 -198.105312 
L 123.035618 -198.105312 
L 123.855536 -198.105312 
L 124.675455 -198.105312 
L 125.495373 -198.105312 
L 126.315291 -198.105312 
L 127.13521 -198.105312 
L 127.955128 -198.105312 
L 128.775047 -198.105312 
L 129.594965 -198.105312 
L 130.414883 -198.105312 
L 131.234802 -198.105312 
L 132.05472 -198.105312 
L 132.874638 -198.105312 
L 133.694557 -198.105312 
L 134.514475 -198.105312 
L 135.334393 -198.105312 
L 136.154312 -198.105312 
L 136.97423 -198.105312 
L 137.794149 -198.105312 
L 138.614067 -198.105312 
L 139.433985 -198.105312 
L 140.253904 -198.105312 
L 141.073822 -198.105312 
L 141.89374 -198.105312 
L 142.713659 -198.105312 
L 143.533577 -198.105312 
L 144.353496 -198.105312 
L 145.173414 -198.105312 
L 145.993332 -198.105312 
L 146.813251 -198.105312 
L 147.633169 -198.105312 
L 148.453087 -198.105312 
L 149.273006 -198.105312 
L 150.092924 -198.105312 
L 150.912842 -198.105312 
L 151.732761 -198.105312 
L 152.552679 -198.105312 
L 153.372598 -198.105312 
L 154.192516 -198.105312 
L 155.012434 -198.105312 
L 155.832353 -198.105312 
L 156.652271 -198.105312 
L 157.472189 -198.105312 
L 158.292108 -198.105312 
L 159.112026 -198.105312 
L 159.931945 -198.105312 
L 160.751863 -198.105312 
L 161.571781 -198.105312 
L 162.3917 -198.105312 
L 163.211618 -198.105312 
L 164.031536 -198.105312 
L 164.851455 -198.105312 
L 165.671373 -198.105312 
L 166.491291 -198.105312 
L 167.31121 -198.105312 
L 168.131128 -198.105312 
L 168.951047 -198.105312 
L 169.770965 -198.105312 
L 170.590883 -198.105312 
L 171.410802 -198.105312 
L 172.23072 -198.105312 
L 173.050638 -198.105312 
L 173.870557 -198.105312 
L 174.690475 -198.105312 
L 175.510393 -198.105312 
L 176.330312 -198.105312 
L 177.15023 -198.105312 
L 177.970149 -198.105312 
L 178.790067 -198.105312 
L 179.609985 -198.105312 
L 180.429904 -198.105312 
L 181.249822 -198.105312 
L 182.06974 -198.105312 
L 182.889659 -198.105312 
L 183.709577 -198.105312 
L 184.529496 -198.105312 
L 185.349414 -198.105312 
L 186.169332 -198.105312 
L 186.989251 -198.105312 
L 187.809169 -198.105312 
L 188.629087 -198.105312 
L 189.449006 -198.105312 
L 190.268924 -198.105312 
L 191.088842 -198.105312 
L 191.908761 -198.105312 
L 192.728679 -198.105312 
L 193.548598 -198.105312 
L 194.368516 -198.105312 
L 195.188434 -198.105312 
L 196.008353 -198.105312 
L 196.828271 -198.105312 
L 197.648189 -198.105312 
L 198.468108 -198.105312 
L 199.288026 -198.105312 
L 200.107945 -198.105312 
L 200.927863 -198.105312 
L 201.747781 -198.105312 
L 202.5677 -198.105312 
L 203.387618 -198.105312 
L 204.207536 -198.105312 
L 205.027455 -198.105312 
L 205.847373 -198.105312 
L 206.667291 -198.105312 
L 207.48721 -198.105312 
L 208.307128 -198.105312 
L 209.127047 -198.105312 
L 209.946965 -198.105312 
L 210.766883 -198.105312 
L 211.586802 -198.105312 
L 212.40672 -198.105312 
L 213.226638 -198.105312 
L 214.046557 -198.105312 
L 214.866475 -198.105312 
L 215.686393 -198.105312 
L 216.506312 -198.105312 
L 217.32623 -198.105312 
L 218.146149 -198.105312 
L 218.966067 -198.105312 
L 219.785985 -198.105312 
L 220.605904 -198.105312 
L 221.425822 -198.105312 
L 222.24574 -198.105312 
L 223.065659 -198.105312 
L 223.885577 -198.105312 
L 224.705496 -198.105312 
L 225.525414 -198.105312 
L 226.345332 -198.105312 
L 227.165251 -198.105312 
L 227.985169 -198.105312 
L 228.805087 -198.105312 
L 229.625006 -198.105312 
L 230.444924 -198.105312 
L 231.264842 -198.105312 
L 232.084761 -198.105312 
L 232.904679 -198.105312 
L 233.724598 -198.105312 
L 234.544516 -198.105312 
L 235.364434 -198.105312 
L 236.184353 -198.105312 
L 237.004271 -198.105312 
L 237.824189 -198.105312 
L 238.644108 -198.105312 
L 239.464026 -198.105312 
L 240.283945 -198.105312 
L 241.103863 -198.105312 
L 241.923781 -198.105312 
L 242.7437 -198.105312 
L 243.563618 -198.105312 
L 244.383536 -198.105312 
L 245.203455 -198.105312 
L 246.023373 -198.105312 
L 246.843291 -198.105312 
L 247.66321 -198.105312 
L 248.483128 -198.105312 
L 249.303047 -198.105312 
L 250.122965 -198.105312 
L 250.942883 -198.105312 
L 251.762802 -198.105312 
L 252.58272 -198.105312 
L 253.402638 -198.105312 
L 254.222557 -198.105312 
L 255.042475 -198.105312 
L 255.862393 -198.105312 
L 256.682312 -198.105312 
L 257.50223 -198.105312 
L 258.322149 -198.105312 
L 259.142067 -198.105312 
L 259.961985 -198.105312 
L 260.781904 -198.105312 
L 261.601822 -198.105312 
L 262.42174 -198.105312 
L 263.241659 -198.105312 
L 264.061577 -198.105312 
L 264.881496 -198.105312 
L 265.701414 -198.105312 
L 266.521332 -198.105312 
L 267.341251 -198.105312 
L 268.161169 -198.105312 
L 268.981087 -198.105312 
L 269.801006 -198.105312 
L 270.620924 -198.105312 
L 271.440842 -198.105312 
L 272.260761 -198.105312 
L 273.080679 -198.105312 
L 273.900598 -198.105312 
L 274.720516 -198.105312 
L 275.540434 -198.105312 
L 276.360353 -198.105312 
L 277.180271 -198.105312 
L 278.000189 -198.105312 
L 278.820108 -198.105312 
L 279.640026 -198.105312 
L 280.459945 -198.105312 
L 281.279863 -198.105312 
L 282.099781 -198.105312 
L 282.9197 -198.105312 
L 283.739618 -198.105312 
L 284.559536 -198.105312 
L 285.379455 -198.105312 
L 286.199373 -198.105312 
L 287.019291 -198.105312 
L 287.83921 -198.105312 
L 288.659128 -198.105312 
L 289.479047 -198.105312 
L 290.298965 -198.105312 
L 291.118883 -198.105312 
L 291.938802 -198.105312 
L 292.75872 -198.105312 
L 293.578638 -198.105312 
L 294.398557 -198.105312 
L 295.218475 -198.105312 
L 296.038393 -198.105312 
L 296.858312 -198.105312 
L 297.67823 -198.105312 
L 298.498149 -198.105312 
L 299.318067 -198.105312 
L 300.137985 -198.105312 
L 300.957904 -198.105312 
L 301.777822 -198.105312 
L 302.59774 -198.105312 
L 303.417659 -198.105312 
L 304.237577 -198.105312 
L 305.057496 -198.105312 
L 305.877414 -198.105312 
L 306.697332 -198.105312 
L 307.517251 -198.105312 
L 308.337169 -198.105312 
L 309.157087 -198.105312 
L 309.977006 -198.105312 
L 310.796924 -198.105312 
L 311.616842 -198.105312 
L 312.436761 -198.105312 
L 313.256679 -198.105312 
L 314.076598 -198.105312 
L 314.896516 -198.105312 
L 315.716434 -198.105312 
L 316.536353 -198.105312 
L 317.356271 -198.105312 
L 318.176189 -198.105312 
L 318.996108 -198.105312 
L 319.816026 -198.105312 
L 320.635945 -198.105312 
L 321.455863 -198.105312 
L 322.275781 -198.105312 
L 323.0957 -198.105312 
L 323.915618 -198.105312 
L 324.735536 -198.105312 
L 325.555455 -198.105312 
L 326.375373 -198.105312 
L 327.195291 -198.105312 
L 328.01521 -198.105312 
L 328.835128 -198.105312 
L 329.655047 -198.105312 
L 330.474965 -198.105312 
L 331.294883 -198.105312 
L 331.294883 -198.105312 
L 331.294883 -198.105312 
L 330.474965 -189.277919 
L 329.655047 -180.344231 
L 328.835128 -171.269261 
L 328.01521 -162.028454 
L 327.195291 -152.626985 
L 326.375373 -142.946046 
L 325.555455 -132.981636 
L 324.735536 -122.577179 
L 323.915618 -111.427099 
L 323.0957 -86.905917 
L 322.275781 -83.255651 
L 321.455863 -83.255651 
L 320.635945 -83.255651 
L 319.816026 -83.286611 
L 318.996108 -84.403778 
L 318.176189 -91.43236 
L 317.356271 -95.322022 
L 316.536353 -100.680305 
L 315.716434 -106.366862 
L 314.896516 -112.698844 
L 314.076598 -118.685976 
L 313.256679 -122.572153 
L 312.436761 -127.968054 
L 311.616842 -132.723175 
L 310.796924 -138.342394 
L 309.977006 -142.842991 
L 309.157087 -150.595971 
L 308.337169 -155.729688 
L 307.517251 -160.731404 
L 306.697332 -165.921602 
L 305.877414 -170.991567 
L 305.057496 -175.297989 
L 304.237577 -180.482434 
L 303.417659 -185.954926 
L 302.59774 -191.323345 
L 301.777822 -196.805668 
L 300.957904 -202.35643 
L 300.137985 -207.924713 
L 299.318067 -216.010458 
L 298.498149 -225.819323 
L 297.67823 -235.819705 
L 296.858312 -246.050353 
L 296.038393 -256.580768 
L 295.218475 -267.485921 
L 294.398557 -278.889383 
L 293.578638 -297.546568 
L 292.75872 -311.055723 
L 291.938802 -314.783564 
L 291.118883 -314.79661 
L 290.298965 -314.807316 
L 289.479047 -314.815732 
L 288.659128 -314.824327 
L 287.83921 -314.833891 
L 287.019291 -314.839602 
L 286.199373 -314.839602 
L 285.379455 -314.839601 
L 284.559536 -314.839602 
L 283.739618 -314.839602 
L 282.9197 -314.839602 
L 282.099781 -314.839602 
L 281.279863 -314.839602 
L 280.459945 -314.839602 
L 279.640026 -310.679828 
L 278.820108 -304.685447 
L 278.000189 -299.715646 
L 277.180271 -294.193517 
L 276.360353 -288.651983 
L 275.540434 -283.106701 
L 274.720516 -277.538487 
L 273.900598 -271.95159 
L 273.080679 -264.244458 
L 272.260761 -253.828909 
L 271.440842 -243.013307 
L 270.620924 -231.584879 
L 269.801006 -219.093107 
L 268.981087 -198.105312 
L 268.161169 -198.105312 
L 267.341251 -198.105312 
L 266.521332 -198.105312 
L 265.701414 -198.105312 
L 264.881496 -198.105312 
L 264.061577 -198.105312 
L 263.241659 -198.105312 
L 262.42174 -198.105312 
L 261.601822 -198.105312 
L 260.781904 -198.105312 
L 259.961985 -198.105312 
L 259.142067 -198.105312 
L 258.322149 -198.105312 
L 257.50223 -198.105312 
L 256.682312 -198.105312 
L 255.862393 -198.105312 
L 255.042475 -198.105312 
L 254.222557 -198.105312 
L 253.402638 -198.105312 
L 252.58272 -198.105312 
L 251.762802 -198.105312 
L 250.942883 -198.105312 
L 250.122965 -198.105312 
L 249.303047 -198.105312 
L 248.483128 -198.105312 
L 247.66321 -198.105312 
L 246.843291 -198.105312 
L 246.023373 -198.105312 
L 245.203455 -198.105312 
L 244.383536 -198.105312 
L 243.563618 -198.105312 
L 242.7437 -198.105312 
L 241.923781 -198.105312 
L 241.103863 -198.105312 
L 240.283945 -198.105312 
L 239.464026 -188.517862 
L 238.644108 -178.755369 
L 237.824189 -168.763826 
L 237.004271 -158.505688 
L 236.184353 -147.91457 
L 235.364434 -136.874121 
L 234.544516 -125.21671 
L 233.724598 -103.001075 
L 232.904679 -91.826792 
L 232.084761 -91.826792 
L 231.264842 -91.826792 
L 230.444924 -91.826792 
L 229.625006 -91.826793 
L 228.805087 -95.994832 
L 227.985169 -101.359924 
L 227.165251 -106.705456 
L 226.345332 -112.214569 
L 225.525414 -117.562673 
L 224.705496 -123.385412 
L 223.885577 -128.689639 
L 223.065659 -133.257258 
L 222.24574 -138.097635 
L 221.425822 -144.898173 
L 220.605904 -148.455768 
L 219.785985 -153.847107 
L 218.966067 -161.183848 
L 218.146149 -166.16842 
L 217.32623 -170.14443 
L 216.506312 -175.99302 
L 215.686393 -181.000522 
L 214.866475 -186.286272 
L 214.046557 -191.650549 
L 213.226638 -197.03425 
L 212.40672 -202.534448 
L 211.586802 -208.007224 
L 210.766883 -213.433058 
L 209.946965 -218.908257 
L 209.127047 -224.648525 
L 208.307128 -235.875945 
L 207.48721 -247.440794 
L 206.667291 -259.429652 
L 205.847373 -271.961468 
L 205.027455 -290.47147 
L 204.207536 -307.782605 
L 203.387618 -314.751578 
L 202.5677 -314.761205 
L 201.747781 -314.77032 
L 200.927863 -314.783428 
L 200.107945 -314.792998 
L 199.288026 -314.804225 
L 198.468108 -314.81166 
L 197.648189 -314.819912 
L 196.828271 -314.825359 
L 196.008353 -314.830542 
L 195.188434 -314.835091 
L 194.368516 -314.838453 
L 193.548598 -314.839614 
L 192.728679 -314.839614 
L 191.908761 -314.839615 
L 191.088842 -314.839615 
L 190.268924 -314.839615 
L 189.449006 -314.839615 
L 188.629087 -314.839615 
L 187.809169 -314.839615 
L 186.989251 -314.839615 
L 186.169332 -314.839615 
L 185.349414 -314.839615 
L 184.529496 -314.839614 
L 183.709577 -314.839614 
L 182.889659 -314.837486 
L 182.06974 -314.834154 
L 181.249822 -314.830474 
L 180.429904 -314.826395 
L 179.609985 -314.821932 
L 178.790067 -314.816198 
L 177.970149 -314.80767 
L 177.15023 -312.738345 
L 176.330312 -308.106922 
L 175.510393 -301.576925 
L 174.690475 -297.347033 
L 173.870557 -290.674583 
L 173.050638 -286.566044 
L 172.23072 -280.183291 
L 171.410802 -275.070931 
L 170.590883 -269.993713 
L 169.770965 -264.77108 
L 168.951047 -259.544343 
L 168.131128 -254.066803 
L 167.31121 -248.57952 
L 166.491291 -243.094606 
L 165.671373 -237.589103 
L 164.851455 -232.063159 
L 164.031536 -226.503853 
L 163.211618 -220.483226 
L 162.3917 -215.081704 
L 161.571781 -209.878711 
L 160.751863 -204.386649 
L 159.931945 -198.771166 
L 159.112026 -193.14269 
L 158.292108 -187.483253 
L 157.472189 -179.946456 
L 156.652271 -168.323863 
L 155.832353 -156.346827 
L 155.012434 -143.934835 
L 154.192516 -130.957429 
L 153.372598 -113.938942 
L 152.552679 -94.219009 
L 151.732761 -82.25345 
L 150.912842 -81.481293 
L 150.092924 -81.445141 
L 149.273006 -81.425701 
L 148.453087 -81.416875 
L 147.633169 -81.408906 
L 146.813251 -81.401669 
L 145.993332 -81.396682 
L 145.173414 -81.396682 
L 144.353496 -81.396682 
L 143.533577 -84.557265 
L 142.713659 -90.10436 
L 141.89374 -95.669974 
L 141.073822 -101.254182 
L 140.253904 -106.858944 
L 139.433985 -112.486426 
L 138.614067 -118.13902 
L 137.794149 -123.819382 
L 136.97423 -129.530438 
L 136.154312 -137.495827 
L 135.334393 -151.989696 
L 134.514475 -173.529677 
L 133.694557 -198.105312 
L 132.874638 -198.105312 
L 132.05472 -198.105312 
L 131.234802 -198.105312 
L 130.414883 -198.105312 
L 129.594965 -198.105312 
L 128.775047 -198.105312 
L 127.955128 -198.105312 
L 127.13521 -198.105312 
L 126.315291 -198.105312 
L 125.495373 -198.105312 
L 124.675455 -198.105312 
L 123.855536 -198.105312 
L 123.035618 -198.105312 
L 122.2157 -198.105312 
L 121.395781 -198.105312 
z
" style="stroke: #0173b2; stroke-opacity: 0.75"/>
    </defs>
    <g clip-path="url(#p85d79d3b28)">
     <use xlink:href="#m7bf2ec2732" x="0" y="361.015312" style="fill: #0173b2; fill-opacity: 0.75; stroke: #0173b2; stroke-opacity: 0.75"/>
    </g>
   </g>
   <g id="matplotlib.axis_1">
    <g id="xtick_1">
     <g id="line2d_1">
      <defs>
       <path id="m95f67fdfb3" d="M 0 0 
L 0 3.5 
" style="stroke: #000000; stroke-width: 0.8"/>
      </defs>
      <g>
       <use xlink:href="#m95f67fdfb3" x="121.395781" y="287.65" style="stroke: #000000; stroke-width: 0.8"/>
      </g>
     </g>
     <g id="text_1">
      <!-- 0 -->
      <g transform="translate(112.806406 315.165781) scale(0.27 -0.27)">
       <defs>
        <path id="DejaVuSans-30" d="M 2034 4250 
Q 1547 4250 1301 3770 
Q 1056 3291 1056 2328 
Q 1056 1369 1301 889 
Q 1547 409 2034 409 
Q 2525 409 2770 889 
Q 3016 1369 3016 2328 
Q 3016 3291 2770 3770 
Q 2525 4250 2034 4250 
z
M 2034 4750 
Q 2819 4750 3233 4129 
Q 3647 3509 3647 2328 
Q 3647 1150 3233 529 
Q 2819 -91 2034 -91 
Q 1250 -91 836 529 
Q 422 1150 422 2328 
Q 422 3509 836 4129 
Q 1250 4750 2034 4750 
z
" transform="scale(0.015625)"/>
       </defs>
       <use xlink:href="#DejaVuSans-30"/>
      </g>
     </g>
    </g>
    <g id="xtick_2">
     <g id="line2d_2">
      <g>
       <use xlink:href="#m95f67fdfb3" x="223.885577" y="287.65" style="stroke: #000000; stroke-width: 0.8"/>
      </g>
     </g>
     <g id="text_2">
      <!-- 25 -->
      <g transform="translate(206.706827 315.165781) scale(0.27 -0.27)">
       <defs>
        <path id="DejaVuSans-32" d="M 1228 531 
L 3431 531 
L 3431 0 
L 469 0 
L 469 531 
Q 828 903 1448 1529 
Q 2069 2156 2228 2338 
Q 2531 2678 2651 2914 
Q 2772 3150 2772 3378 
Q 2772 3750 2511 3984 
Q 2250 4219 1831 4219 
Q 1534 4219 1204 4116 
Q 875 4013 500 3803 
L 500 4441 
Q 881 4594 1212 4672 
Q 1544 4750 1819 4750 
Q 2544 4750 2975 4387 
Q 3406 4025 3406 3419 
Q 3406 3131 3298 2873 
Q 3191 2616 2906 2266 
Q 2828 2175 2409 1742 
Q 1991 1309 1228 531 
z
" transform="scale(0.015625)"/>
        <path id="DejaVuSans-35" d="M 691 4666 
L 3169 4666 
L 3169 4134 
L 1269 4134 
L 1269 2991 
Q 1406 3038 1543 3061 
Q 1681 3084 1819 3084 
Q 2600 3084 3056 2656 
Q 3513 2228 3513 1497 
Q 3513 744 3044 326 
Q 2575 -91 1722 -91 
Q 1428 -91 1123 -41 
Q 819 9 494 109 
L 494 744 
Q 775 591 1075 516 
Q 1375 441 1709 441 
Q 2250 441 2565 725 
Q 2881 1009 2881 1497 
Q 2881 1984 2565 2268 
Q 2250 2553 1709 2553 
Q 1456 2553 1204 2497 
Q 953 2441 691 2322 
L 691 4666 
z
" transform="scale(0.015625)"/>
       </defs>
       <use xlink:href="#DejaVuSans-32"/>
       <use xlink:href="#DejaVuSans-35" x="63.623047"/>
      </g>
     </g>
    </g>
    <g id="xtick_3">
     <g id="line2d_3">
      <g>
       <use xlink:href="#m95f67fdfb3" x="326.375373" y="287.65" style="stroke: #000000; stroke-width: 0.8"/>
      </g>
     </g>
     <g id="text_3">
      <!-- 50 -->
      <g transform="translate(309.196623 315.165781) scale(0.27 -0.27)">
       <use xlink:href="#DejaVuSans-35"/>
       <use xlink:href="#DejaVuSans-30" x="63.623047"/>
      </g>
     </g>
    </g>
    <g id="xtick_4">
     <g id="line2d_4">
      <g>
       <use xlink:href="#m95f67fdfb3" x="428.865169" y="287.65" style="stroke: #000000; stroke-width: 0.8"/>
      </g>
     </g>
     <g id="text_4">
      <!-- 75 -->
      <g transform="translate(411.686419 315.165781) scale(0.27 -0.27)">
       <defs>
        <path id="DejaVuSans-37" d="M 525 4666 
L 3525 4666 
L 3525 4397 
L 1831 0 
L 1172 0 
L 2766 4134 
L 525 4134 
L 525 4666 
z
" transform="scale(0.015625)"/>
       </defs>
       <use xlink:href="#DejaVuSans-37"/>
       <use xlink:href="#DejaVuSans-35" x="63.623047"/>
      </g>
     </g>
    </g>
    <g id="text_5">
     <!-- Time [ms] -->
     <g transform="translate(250.777717 347.57625) scale(0.3 -0.3)">
      <defs>
       <path id="DejaVuSans-54" d="M -19 4666 
L 3928 4666 
L 3928 4134 
L 2272 4134 
L 2272 0 
L 1638 0 
L 1638 4134 
L -19 4134 
L -19 4666 
z
" transform="scale(0.015625)"/>
       <path id="DejaVuSans-69" d="M 603 3500 
L 1178 3500 
L 1178 0 
L 603 0 
L 603 3500 
z
M 603 4863 
L 1178 4863 
L 1178 4134 
L 603 4134 
L 603 4863 
z
" transform="scale(0.015625)"/>
       <path id="DejaVuSans-6d" d="M 3328 2828 
Q 3544 3216 3844 3400 
Q 4144 3584 4550 3584 
Q 5097 3584 5394 3201 
Q 5691 2819 5691 2113 
L 5691 0 
L 5113 0 
L 5113 2094 
Q 5113 2597 4934 2840 
Q 4756 3084 4391 3084 
Q 3944 3084 3684 2787 
Q 3425 2491 3425 1978 
L 3425 0 
L 2847 0 
L 2847 2094 
Q 2847 2600 2669 2842 
Q 2491 3084 2119 3084 
Q 1678 3084 1418 2786 
Q 1159 2488 1159 1978 
L 1159 0 
L 581 0 
L 581 3500 
L 1159 3500 
L 1159 2956 
Q 1356 3278 1631 3431 
Q 1906 3584 2284 3584 
Q 2666 3584 2933 3390 
Q 3200 3197 3328 2828 
z
" transform="scale(0.015625)"/>
       <path id="DejaVuSans-65" d="M 3597 1894 
L 3597 1613 
L 953 1613 
Q 991 1019 1311 708 
Q 1631 397 2203 397 
Q 2534 397 2845 478 
Q 3156 559 3463 722 
L 3463 178 
Q 3153 47 2828 -22 
Q 2503 -91 2169 -91 
Q 1331 -91 842 396 
Q 353 884 353 1716 
Q 353 2575 817 3079 
Q 1281 3584 2069 3584 
Q 2775 3584 3186 3129 
Q 3597 2675 3597 1894 
z
M 3022 2063 
Q 3016 2534 2758 2815 
Q 2500 3097 2075 3097 
Q 1594 3097 1305 2825 
Q 1016 2553 972 2059 
L 3022 2063 
z
" transform="scale(0.015625)"/>
       <path id="DejaVuSans-20" transform="scale(0.015625)"/>
       <path id="DejaVuSans-5b" d="M 550 4863 
L 1875 4863 
L 1875 4416 
L 1125 4416 
L 1125 -397 
L 1875 -397 
L 1875 -844 
L 550 -844 
L 550 4863 
z
" transform="scale(0.015625)"/>
       <path id="DejaVuSans-73" d="M 2834 3397 
L 2834 2853 
Q 2591 2978 2328 3040 
Q 2066 3103 1784 3103 
Q 1356 3103 1142 2972 
Q 928 2841 928 2578 
Q 928 2378 1081 2264 
Q 1234 2150 1697 2047 
L 1894 2003 
Q 2506 1872 2764 1633 
Q 3022 1394 3022 966 
Q 3022 478 2636 193 
Q 2250 -91 1575 -91 
Q 1294 -91 989 -36 
Q 684 19 347 128 
L 347 722 
Q 666 556 975 473 
Q 1284 391 1588 391 
Q 1994 391 2212 530 
Q 2431 669 2431 922 
Q 2431 1156 2273 1281 
Q 2116 1406 1581 1522 
L 1381 1569 
Q 847 1681 609 1914 
Q 372 2147 372 2553 
Q 372 3047 722 3315 
Q 1072 3584 1716 3584 
Q 2034 3584 2315 3537 
Q 2597 3491 2834 3397 
z
" transform="scale(0.015625)"/>
       <path id="DejaVuSans-5d" d="M 1947 4863 
L 1947 -844 
L 622 -844 
L 622 -397 
L 1369 -397 
L 1369 4416 
L 622 4416 
L 622 4863 
L 1947 4863 
z
" transform="scale(0.015625)"/>
      </defs>
      <use xlink:href="#DejaVuSans-54"/>
      <use xlink:href="#DejaVuSans-69" x="57.958984"/>
      <use xlink:href="#DejaVuSans-6d" x="85.742188"/>
      <use xlink:href="#DejaVuSans-65" x="183.154297"/>
      <use xlink:href="#DejaVuSans-20" x="244.677734"/>
      <use xlink:href="#DejaVuSans-5b" x="276.464844"/>
      <use xlink:href="#DejaVuSans-6d" x="315.478516"/>
      <use xlink:href="#DejaVuSans-73" x="412.890625"/>
      <use xlink:href="#DejaVuSans-5d" x="464.990234"/>
     </g>
    </g>
   </g>
   <g id="matplotlib.axis_2">
    <g id="ytick_1">
     <g id="line2d_5">
      <defs>
       <path id="m6739935ae4" d="M 0 0 
L -3.5 0 
" style="stroke: #000000; stroke-width: 0.8"/>
      </defs>
      <g>
       <use xlink:href="#m6739935ae4" x="121.395781" y="287.029403" style="stroke: #000000; stroke-width: 0.8"/>
      </g>
     </g>
     <g id="text_6">
      <!-- −200 -->
      <g transform="translate(40.234375 297.287294) scale(0.27 -0.27)">
       <defs>
        <path id="DejaVuSans-2212" d="M 678 2272 
L 4684 2272 
L 4684 1741 
L 678 1741 
L 678 2272 
z
" transform="scale(0.015625)"/>
       </defs>
       <use xlink:href="#DejaVuSans-2212"/>
       <use xlink:href="#DejaVuSans-32" x="83.789062"/>
       <use xlink:href="#DejaVuSans-30" x="147.412109"/>
       <use xlink:href="#DejaVuSans-30" x="211.035156"/>
      </g>
     </g>
    </g>
    <g id="ytick_2">
     <g id="line2d_6">
      <g>
       <use xlink:href="#m6739935ae4" x="121.395781" y="224.969701" style="stroke: #000000; stroke-width: 0.8"/>
      </g>
     </g>
     <g id="text_7">
      <!-- −100 -->
      <g transform="translate(40.234375 235.227592) scale(0.27 -0.27)">
       <defs>
        <path id="DejaVuSans-31" d="M 794 531 
L 1825 531 
L 1825 4091 
L 703 3866 
L 703 4441 
L 1819 4666 
L 2450 4666 
L 2450 531 
L 3481 531 
L 3481 0 
L 794 0 
L 794 531 
z
" transform="scale(0.015625)"/>
       </defs>
       <use xlink:href="#DejaVuSans-2212"/>
       <use xlink:href="#DejaVuSans-31" x="83.789062"/>
       <use xlink:href="#DejaVuSans-30" x="147.412109"/>
       <use xlink:href="#DejaVuSans-30" x="211.035156"/>
      </g>
     </g>
    </g>
    <g id="ytick_3">
     <g id="line2d_7">
      <g>
       <use xlink:href="#m6739935ae4" x="121.395781" y="162.91" style="stroke: #000000; stroke-width: 0.8"/>
      </g>
     </g>
     <g id="text_8">
      <!-- 0 -->
      <g transform="translate(97.217031 173.167891) scale(0.27 -0.27)">
       <use xlink:href="#DejaVuSans-30"/>
      </g>
     </g>
    </g>
    <g id="ytick_4">
     <g id="line2d_8">
      <g>
       <use xlink:href="#m6739935ae4" x="121.395781" y="100.850299" style="stroke: #000000; stroke-width: 0.8"/>
      </g>
     </g>
     <g id="text_9">
      <!-- 100 -->
      <g transform="translate(62.859531 111.108189) scale(0.27 -0.27)">
       <use xlink:href="#DejaVuSans-31"/>
       <use xlink:href="#DejaVuSans-30" x="63.623047"/>
       <use xlink:href="#DejaVuSans-30" x="127.246094"/>
      </g>
     </g>
    </g>
    <g id="ytick_5">
     <g id="line2d_9">
      <g>
       <use xlink:href="#m6739935ae4" x="121.395781" y="38.790597" style="stroke: #000000; stroke-width: 0.8"/>
      </g>
     </g>
     <g id="text_10">
      <!-- 200 -->
      <g transform="translate(62.859531 49.048488) scale(0.27 -0.27)">
       <use xlink:href="#DejaVuSans-32"/>
       <use xlink:href="#DejaVuSans-30" x="63.623047"/>
       <use xlink:href="#DejaVuSans-30" x="127.246094"/>
      </g>
     </g>
    </g>
    <g id="text_11">
     <!-- mT/m -->
     <g transform="translate(29.995313 206.346719) rotate(-90) scale(0.3 -0.3)">
      <defs>
       <path id="DejaVuSans-2f" d="M 1625 4666 
L 2156 4666 
L 531 -594 
L 0 -594 
L 1625 4666 
z
" transform="scale(0.015625)"/>
      </defs>
      <use xlink:href="#DejaVuSans-6d"/>
      <use xlink:href="#DejaVuSans-54" x="97.412109"/>
      <use xlink:href="#DejaVuSans-2f" x="158.496094"/>
      <use xlink:href="#DejaVuSans-6d" x="192.1875"/>
     </g>
    </g>
   </g>
   <g id="line2d_10">
    <path d="M 121.395781 162.91 
L 531.354965 162.91 
" clip-path="url(#p85d79d3b28)" style="fill: none; stroke: #d3d3d3; stroke-opacity: 0.8; stroke-width: 1.5; stroke-linecap: square"/>
   </g>
   <g id="line2d_11">
    <path d="M 121.395781 162.91 
L 133.694557 162.91 
L 135.334393 209.025617 
L 136.154312 223.519486 
L 136.97423 231.484874 
L 143.533577 276.458047 
L 144.353496 279.618631 
L 150.912842 279.53402 
L 151.732761 278.761862 
L 152.552679 266.796303 
L 153.372598 247.07637 
L 154.192516 230.057883 
L 156.652271 192.691449 
L 157.472189 181.068857 
L 158.292108 173.53206 
L 162.3917 145.933609 
L 164.031536 134.511459 
L 169.770965 96.244233 
L 172.23072 80.832022 
L 173.050638 74.449268 
L 173.870557 70.34073 
L 174.690475 63.66828 
L 175.510393 59.438388 
L 176.330312 52.908391 
L 177.15023 48.276967 
L 177.970149 46.207643 
L 191.088842 46.175698 
L 203.387618 46.263735 
L 204.207536 53.232707 
L 205.847373 89.053844 
L 208.307128 125.139368 
L 209.127047 136.366788 
L 211.586802 153.008089 
L 215.686393 180.014791 
L 216.506312 185.022292 
L 217.32623 190.870882 
L 218.146149 194.846892 
L 218.966067 199.831465 
L 219.785985 207.168205 
L 220.605904 212.559545 
L 221.425822 216.11714 
L 222.24574 222.917677 
L 224.705496 237.629901 
L 227.165251 254.309857 
L 228.805087 265.02048 
L 229.625006 269.18852 
L 232.904679 269.18852 
L 233.724598 258.014237 
L 234.544516 235.798602 
L 236.184353 213.100743 
L 238.644108 182.259943 
L 240.283945 162.91 
L 268.981087 162.91 
L 269.801006 141.922206 
L 271.440842 118.002006 
L 273.080679 96.770855 
L 273.900598 89.063723 
L 278.000189 61.299667 
L 278.820108 56.329865 
L 279.640026 50.335484 
L 280.459945 46.175711 
L 291.938802 46.231748 
L 292.75872 49.95959 
L 293.578638 63.468745 
L 294.398557 82.125929 
L 296.858312 114.96496 
L 299.318067 145.004854 
L 300.137985 153.0906 
L 304.237577 180.532878 
L 305.057496 185.717323 
L 305.877414 190.023745 
L 309.157087 210.419341 
L 309.977006 218.172321 
L 310.796924 222.672919 
L 311.616842 228.292138 
L 314.076598 242.329337 
L 317.356271 265.69329 
L 318.176189 269.582952 
L 318.996108 276.611535 
L 319.816026 277.728701 
L 322.275781 277.759661 
L 323.0957 274.109395 
L 323.915618 249.588213 
L 325.555455 228.033677 
L 328.01521 198.986859 
L 331.294883 162.91 
L 331.294883 162.91 
" clip-path="url(#p85d79d3b28)" style="fill: none; stroke: #000000; stroke-width: 5; stroke-linecap: square"/>
   </g>
   <g id="line2d_12">
    <path d="M 331.294883 162.91 
L 333.631651 162.91 
L 334.574557 184.261831 
L 334.615553 183.33349 
L 336.542361 141.558169 
L 337.403275 141.558169 
L 339.371079 184.261831 
L 340.231993 184.261831 
L 342.199798 141.558169 
L 343.060712 141.558169 
L 345.028516 184.261831 
L 345.88943 184.261831 
L 347.857234 141.558169 
L 348.718149 141.558169 
L 350.685953 184.261831 
L 351.546867 184.261831 
L 353.514671 141.558169 
L 354.375585 141.558169 
L 356.343389 184.261831 
L 357.204304 184.261831 
L 359.172108 141.558169 
L 360.033022 141.558169 
L 362.000826 184.261831 
L 362.86174 184.261831 
L 364.829545 141.558169 
L 365.690459 141.558169 
L 367.658263 184.261831 
L 368.519177 184.261831 
L 370.486981 141.558169 
L 371.347896 141.558169 
L 373.3157 184.261831 
L 374.176614 184.261831 
L 376.144418 141.558169 
L 377.005332 141.558169 
L 378.973136 184.261831 
L 379.834051 184.261831 
L 381.801855 141.558169 
L 382.662769 141.558169 
L 384.630573 184.261831 
L 385.491487 184.261831 
L 387.459291 141.558169 
L 388.320206 141.558169 
L 390.28801 184.261831 
L 391.148924 184.261831 
L 393.116728 141.558169 
L 393.977642 141.558169 
L 395.945447 184.261831 
L 396.806361 184.261831 
L 398.774165 141.558169 
L 399.635079 141.558169 
L 401.602883 184.261831 
L 402.463798 184.261831 
L 404.431602 141.558169 
L 405.292516 141.558169 
L 407.26032 184.261831 
L 408.121234 184.261831 
L 410.089038 141.558169 
L 410.949953 141.558169 
L 412.917757 184.261831 
L 413.778671 184.261831 
L 415.746475 141.558169 
L 416.607389 141.558169 
L 418.575193 184.261831 
L 419.436108 184.261831 
L 421.403912 141.558169 
L 422.264826 141.558169 
L 424.23263 184.261831 
L 425.093545 184.261831 
L 427.061349 141.558169 
L 427.922263 141.558169 
L 429.890067 184.261831 
L 430.750981 184.261831 
L 432.718785 141.558169 
L 433.5797 141.558169 
L 435.547504 184.261831 
L 436.408418 184.261831 
L 438.376222 141.558169 
L 439.237136 141.558169 
L 441.20494 184.261831 
L 442.065855 184.261831 
L 444.033659 141.558169 
L 444.894573 141.558169 
L 446.862377 184.261831 
L 447.723291 184.261831 
L 449.691096 141.558169 
L 450.55201 141.558169 
L 452.519814 184.261831 
L 453.380728 184.261831 
L 455.348532 141.558169 
L 456.209447 141.558169 
L 458.177251 184.261831 
L 459.038165 184.261831 
L 461.005969 141.558169 
L 461.866883 141.558169 
L 463.834687 184.261831 
L 464.695602 184.261831 
L 466.663406 141.558169 
L 467.52432 141.558169 
L 469.492124 184.261831 
L 470.353038 184.261831 
L 472.320842 141.558169 
L 473.181757 141.558169 
L 475.149561 184.261831 
L 476.010475 184.261831 
L 477.978279 141.558169 
L 478.839193 141.558169 
L 480.806998 184.261831 
L 481.667912 184.261831 
L 483.635716 141.558169 
L 484.49663 141.558169 
L 486.464434 184.261831 
L 487.325349 184.261831 
L 489.293153 141.558169 
L 490.154067 141.558169 
L 491.137969 162.91 
L 491.137969 162.91 
" clip-path="url(#p85d79d3b28)" style="fill: none; stroke: #000000; stroke-opacity: 0.7; stroke-width: 5; stroke-linecap: square"/>
   </g>
   <g id="line2d_13">
    <path d="M 387.844653 287.65 
L 387.844653 38.17 
" clip-path="url(#p85d79d3b28)" style="fill: none; stroke-dasharray: 18.5,8; stroke-dashoffset: 0; stroke: #000000; stroke-width: 5"/>
   </g>
   <g id="line2d_14">
    <path d="M 121.395781 38.790597 
L 531.354965 38.790597 
" clip-path="url(#p85d79d3b28)" style="fill: none; stroke-dasharray: 18.5,8; stroke-dashoffset: 0; stroke: #000000; stroke-opacity: 0.2; stroke-width: 5"/>
   </g>
   <g id="line2d_15">
    <path d="M 121.395781 287.029403 
L 531.354965 287.029403 
" clip-path="url(#p85d79d3b28)" style="fill: none; stroke-dasharray: 18.5,8; stroke-dashoffset: 0; stroke: #000000; stroke-opacity: 0.2; stroke-width: 5"/>
   </g>
   <g id="line2d_16">
    <path d="M 121.395781 162.91 
L 531.354965 162.91 
" clip-path="url(#p85d79d3b28)" style="fill: none; stroke: #000000; stroke-width: 5; stroke-linecap: square"/>
   </g>
   <g id="patch_3">
    <path d="M 121.395781 287.65 
L 121.395781 38.17 
" style="fill: none; stroke: #000000; stroke-width: 0.8; stroke-linejoin: miter; stroke-linecap: square"/>
   </g>
   <g id="patch_4">
    <path d="M 121.395781 287.65 
L 531.354965 287.65 
" style="fill: none; stroke: #000000; stroke-width: 0.8; stroke-linejoin: miter; stroke-linecap: square"/>
   </g>
   <g id="text_12">
    <!-- $G(t)$ -->
    <g transform="translate(295.175373 31.515) scale(0.32 -0.32)">
     <defs>
      <path id="DejaVuSans-Oblique-47" d="M 3494 697 
L 3738 1919 
L 2700 1919 
L 2797 2438 
L 4453 2438 
L 4050 384 
Q 3634 156 3143 32 
Q 2653 -91 2156 -91 
Q 1278 -91 783 396 
Q 288 884 288 1753 
Q 288 2475 589 3126 
Q 891 3778 1422 4213 
Q 1756 4484 2153 4617 
Q 2550 4750 3034 4750 
Q 3472 4750 3873 4639 
Q 4275 4528 4641 4306 
L 4513 3634 
Q 4231 3928 3853 4083 
Q 3475 4238 3047 4238 
Q 2550 4238 2172 4048 
Q 1794 3859 1497 3463 
Q 1244 3125 1098 2667 
Q 953 2209 953 1734 
Q 953 1081 1287 751 
Q 1622 422 2284 422 
Q 2616 422 2925 492 
Q 3234 563 3494 697 
z
" transform="scale(0.015625)"/>
      <path id="DejaVuSans-28" d="M 1984 4856 
Q 1566 4138 1362 3434 
Q 1159 2731 1159 2009 
Q 1159 1288 1364 580 
Q 1569 -128 1984 -844 
L 1484 -844 
Q 1016 -109 783 600 
Q 550 1309 550 2009 
Q 550 2706 781 3412 
Q 1013 4119 1484 4856 
L 1984 4856 
z
" transform="scale(0.015625)"/>
      <path id="DejaVuSans-Oblique-74" d="M 2706 3500 
L 2619 3053 
L 1472 3053 
L 1100 1153 
Q 1081 1047 1072 975 
Q 1063 903 1063 863 
Q 1063 663 1183 572 
Q 1303 481 1569 481 
L 2150 481 
L 2053 0 
L 1503 0 
Q 991 0 739 200 
Q 488 400 488 806 
Q 488 878 497 964 
Q 506 1050 525 1153 
L 897 3053 
L 409 3053 
L 500 3500 
L 978 3500 
L 1172 4494 
L 1747 4494 
L 1556 3500 
L 2706 3500 
z
" transform="scale(0.015625)"/>
      <path id="DejaVuSans-29" d="M 513 4856 
L 1013 4856 
Q 1481 4119 1714 3412 
Q 1947 2706 1947 2009 
Q 1947 1309 1714 600 
Q 1481 -109 1013 -844 
L 513 -844 
Q 928 -128 1133 580 
Q 1338 1288 1338 2009 
Q 1338 2731 1133 3434 
Q 928 4138 513 4856 
z
" transform="scale(0.015625)"/>
     </defs>
     <use xlink:href="#DejaVuSans-Oblique-47" transform="translate(0 0.125)"/>
     <use xlink:href="#DejaVuSans-28" transform="translate(77.490234 0.125)"/>
     <use xlink:href="#DejaVuSans-Oblique-74" transform="translate(116.503906 0.125)"/>
     <use xlink:href="#DejaVuSans-29" transform="translate(155.712891 0.125)"/>
    </g>
   </g>
   <g id="legend_1">
    <g id="patch_5">
     <path d="M 507.154965 66.77 
L 515.954965 66.77 
Q 520.354965 66.77 520.354965 62.37 
L 520.354965 53.57 
Q 520.354965 49.17 515.954965 49.17 
L 507.154965 49.17 
Q 502.754965 49.17 502.754965 53.57 
L 502.754965 62.37 
Q 502.754965 66.77 507.154965 66.77 
z
" style="fill: #ffffff; opacity: 0.8; stroke: #cccccc; stroke-linejoin: miter"/>
    </g>
   </g>
  </g>
  <g id="axes_2">
   <g id="patch_6">
    <path d="M 654.34272 287.65 
L 1064.301904 287.65 
L 1064.301904 38.17 
L 654.34272 38.17 
z
" style="fill: #ffffff"/>
   </g>
   <g id="matplotlib.axis_3">
    <g id="xtick_5">
     <g id="line2d_17">
      <g>
       <use xlink:href="#m95f67fdfb3" x="654.34272" y="287.65" style="stroke: #000000; stroke-width: 0.8"/>
      </g>
     </g>
     <g id="text_13">
      <!-- 0 -->
      <g transform="translate(645.753345 315.165781) scale(0.27 -0.27)">
       <use xlink:href="#DejaVuSans-30"/>
      </g>
     </g>
    </g>
    <g id="xtick_6">
     <g id="line2d_18">
      <g>
       <use xlink:href="#m95f67fdfb3" x="756.832516" y="287.65" style="stroke: #000000; stroke-width: 0.8"/>
      </g>
     </g>
     <g id="text_14">
      <!-- 25 -->
      <g transform="translate(739.653766 315.165781) scale(0.27 -0.27)">
       <use xlink:href="#DejaVuSans-32"/>
       <use xlink:href="#DejaVuSans-35" x="63.623047"/>
      </g>
     </g>
    </g>
    <g id="xtick_7">
     <g id="line2d_19">
      <g>
       <use xlink:href="#m95f67fdfb3" x="859.322312" y="287.65" style="stroke: #000000; stroke-width: 0.8"/>
      </g>
     </g>
     <g id="text_15">
      <!-- 50 -->
      <g transform="translate(842.143562 315.165781) scale(0.27 -0.27)">
       <use xlink:href="#DejaVuSans-35"/>
       <use xlink:href="#DejaVuSans-30" x="63.623047"/>
      </g>
     </g>
    </g>
    <g id="xtick_8">
     <g id="line2d_20">
      <g>
       <use xlink:href="#m95f67fdfb3" x="961.812108" y="287.65" style="stroke: #000000; stroke-width: 0.8"/>
      </g>
     </g>
     <g id="text_16">
      <!-- 75 -->
      <g transform="translate(944.633358 315.165781) scale(0.27 -0.27)">
       <use xlink:href="#DejaVuSans-37"/>
       <use xlink:href="#DejaVuSans-35" x="63.623047"/>
      </g>
     </g>
    </g>
    <g id="text_17">
     <!-- Time [ms] -->
     <g transform="translate(783.724656 347.57625) scale(0.3 -0.3)">
      <use xlink:href="#DejaVuSans-54"/>
      <use xlink:href="#DejaVuSans-69" x="57.958984"/>
      <use xlink:href="#DejaVuSans-6d" x="85.742188"/>
      <use xlink:href="#DejaVuSans-65" x="183.154297"/>
      <use xlink:href="#DejaVuSans-20" x="244.677734"/>
      <use xlink:href="#DejaVuSans-5b" x="276.464844"/>
      <use xlink:href="#DejaVuSans-6d" x="315.478516"/>
      <use xlink:href="#DejaVuSans-73" x="412.890625"/>
      <use xlink:href="#DejaVuSans-5d" x="464.990234"/>
     </g>
    </g>
   </g>
   <g id="matplotlib.axis_4">
    <g id="ytick_6">
     <g id="line2d_21">
      <g>
       <use xlink:href="#m6739935ae4" x="654.34272" y="287.029403" style="stroke: #000000; stroke-width: 0.8"/>
      </g>
     </g>
     <g id="text_18">
      <!-- −200 -->
      <g transform="translate(573.181314 297.287294) scale(0.27 -0.27)">
       <use xlink:href="#DejaVuSans-2212"/>
       <use xlink:href="#DejaVuSans-32" x="83.789062"/>
       <use xlink:href="#DejaVuSans-30" x="147.412109"/>
       <use xlink:href="#DejaVuSans-30" x="211.035156"/>
      </g>
     </g>
    </g>
    <g id="ytick_7">
     <g id="line2d_22">
      <g>
       <use xlink:href="#m6739935ae4" x="654.34272" y="224.969701" style="stroke: #000000; stroke-width: 0.8"/>
      </g>
     </g>
     <g id="text_19">
      <!-- −100 -->
      <g transform="translate(573.181314 235.227592) scale(0.27 -0.27)">
       <use xlink:href="#DejaVuSans-2212"/>
       <use xlink:href="#DejaVuSans-31" x="83.789062"/>
       <use xlink:href="#DejaVuSans-30" x="147.412109"/>
       <use xlink:href="#DejaVuSans-30" x="211.035156"/>
      </g>
     </g>
    </g>
    <g id="ytick_8">
     <g id="line2d_23">
      <g>
       <use xlink:href="#m6739935ae4" x="654.34272" y="162.91" style="stroke: #000000; stroke-width: 0.8"/>
      </g>
     </g>
     <g id="text_20">
      <!-- 0 -->
      <g transform="translate(630.16397 173.167891) scale(0.27 -0.27)">
       <use xlink:href="#DejaVuSans-30"/>
      </g>
     </g>
    </g>
    <g id="ytick_9">
     <g id="line2d_24">
      <g>
       <use xlink:href="#m6739935ae4" x="654.34272" y="100.850299" style="stroke: #000000; stroke-width: 0.8"/>
      </g>
     </g>
     <g id="text_21">
      <!-- 100 -->
      <g transform="translate(595.80647 111.108189) scale(0.27 -0.27)">
       <use xlink:href="#DejaVuSans-31"/>
       <use xlink:href="#DejaVuSans-30" x="63.623047"/>
       <use xlink:href="#DejaVuSans-30" x="127.246094"/>
      </g>
     </g>
    </g>
    <g id="ytick_10">
     <g id="line2d_25">
      <g>
       <use xlink:href="#m6739935ae4" x="654.34272" y="38.790597" style="stroke: #000000; stroke-width: 0.8"/>
      </g>
     </g>
     <g id="text_22">
      <!-- 200 -->
      <g transform="translate(595.80647 49.048488) scale(0.27 -0.27)">
       <use xlink:href="#DejaVuSans-32"/>
       <use xlink:href="#DejaVuSans-30" x="63.623047"/>
       <use xlink:href="#DejaVuSans-30" x="127.246094"/>
      </g>
     </g>
    </g>
    <g id="text_23">
     <!-- T/m/s -->
     <g transform="translate(562.942251 204.602969) rotate(-90) scale(0.3 -0.3)">
      <use xlink:href="#DejaVuSans-54"/>
      <use xlink:href="#DejaVuSans-2f" x="61.083984"/>
      <use xlink:href="#DejaVuSans-6d" x="94.775391"/>
      <use xlink:href="#DejaVuSans-2f" x="192.1875"/>
      <use xlink:href="#DejaVuSans-73" x="225.878906"/>
     </g>
    </g>
   </g>
   <g id="line2d_26">
    <path d="M 654.34272 162.91 
L 1064.301904 162.91 
" clip-path="url(#pac6a68eb68)" style="fill: none; stroke: #d3d3d3; stroke-opacity: 0.8; stroke-width: 1.5; stroke-linecap: square"/>
   </g>
   <g id="line2d_27">
    <path d="M 654.34272 162.91 
L 665.821577 162.91 
L 666.641496 285.788179 
L 667.461414 270.609904 
L 669.101251 202.736941 
L 669.921169 191.465282 
L 673.200842 190.93381 
L 675.660598 190.645474 
L 676.480516 178.712916 
L 677.300434 162.91 
L 682.219945 162.812797 
L 683.039863 162.729241 
L 683.859781 159.049213 
L 684.6797 103.082205 
L 685.499618 64.310336 
L 686.319536 77.817563 
L 687.139455 98.02297 
L 687.959373 100.850044 
L 688.779291 103.024816 
L 689.59921 104.797038 
L 690.419128 125.226014 
L 691.239047 134.612817 
L 692.878883 134.832588 
L 693.698802 135.44969 
L 694.51872 136.895035 
L 695.338638 135.90239 
L 696.158557 132.806863 
L 696.978475 135.113469 
L 698.618312 135.382483 
L 699.43823 135.485434 
L 701.078067 135.5223 
L 701.897985 136.776318 
L 702.717904 136.796833 
L 703.537822 137.523909 
L 704.35774 137.348202 
L 705.177659 130.996233 
L 705.997577 142.367307 
L 706.817496 129.547751 
L 707.637414 141.760539 
L 708.457332 130.260017 
L 709.277251 139.752881 
L 710.097169 152.563377 
L 710.917087 162.867358 
L 719.936189 162.909998 
L 735.514638 162.958136 
L 736.334557 197.754863 
L 737.154475 249.465676 
L 737.974393 255.460008 
L 738.794312 225.569082 
L 739.61423 222.85429 
L 740.434149 220.734245 
L 741.254067 219.047101 
L 742.073985 191.611338 
L 742.893904 190.285997 
L 743.713822 190.03917 
L 745.353659 190.410991 
L 746.173577 189.828507 
L 746.993496 189.731383 
L 747.813414 189.338751 
L 748.633332 187.947509 
L 749.453251 192.152949 
L 750.273169 182.790049 
L 751.093087 187.832863 
L 751.913006 199.593703 
L 753.552842 180.697975 
L 754.372761 196.912689 
L 755.192679 187.111884 
L 756.012598 185.748094 
L 756.832516 189.431137 
L 757.652434 192.023695 
L 758.472353 189.650521 
L 759.292271 190.455565 
L 760.112189 189.637661 
L 760.932108 189.735458 
L 761.752026 183.750196 
L 762.571945 162.910002 
L 765.0317 162.91 
L 766.671536 51.831826 
L 767.491455 104.622945 
L 768.311373 107.707757 
L 769.131291 109.954408 
L 769.95121 111.619309 
L 771.591047 114.097539 
L 772.410965 114.972746 
L 773.230883 162.91 
L 801.108108 162.91 
L 801.928026 57.97103 
L 802.747945 100.451138 
L 803.567863 105.76786 
L 804.387781 108.831988 
L 805.2077 110.832258 
L 806.027618 124.374339 
L 806.847536 134.975515 
L 810.12721 135.299356 
L 810.947128 138.060992 
L 811.767047 132.938096 
L 812.586965 142.111132 
L 813.406883 162.909999 
L 824.065822 162.975228 
L 824.88574 181.549206 
L 825.705659 230.455777 
L 826.525577 256.195922 
L 827.345496 219.927312 
L 828.165414 217.435764 
L 828.985332 215.562076 
L 829.805251 214.063239 
L 830.625169 212.911909 
L 831.445087 211.954324 
L 832.265006 203.33873 
L 833.084924 190.751412 
L 833.904842 190.663811 
L 834.724761 190.321614 
L 835.544679 189.752095 
L 836.364598 190.27246 
L 837.184516 188.832225 
L 838.004434 184.442109 
L 838.824353 188.259828 
L 839.644271 188.860988 
L 840.464189 187.918584 
L 841.284108 188.578582 
L 842.104026 201.6749 
L 842.923945 185.412987 
L 843.743863 191.006096 
L 844.563781 186.685601 
L 845.3837 189.889506 
L 846.203618 182.340887 
L 847.023536 192.845659 
L 847.843455 194.569911 
L 848.663373 191.342782 
L 849.483291 189.701416 
L 850.30321 182.35831 
L 851.123128 198.052912 
L 851.943047 168.495833 
L 852.762965 163.064799 
L 853.582883 162.910004 
L 854.402802 162.909997 
L 855.22272 144.658669 
L 856.042638 40.304089 
L 856.862557 107.159604 
L 857.682475 110.887715 
L 858.502393 113.087946 
L 860.14223 115.902655 
L 862.601985 118.241559 
L 863.421904 118.773032 
L 863.421904 118.773032 
" clip-path="url(#pac6a68eb68)" style="fill: none; stroke: #000000; stroke-width: 5; stroke-linecap: square"/>
   </g>
   <g id="line2d_28">
    <path d="M 654.34272 38.790597 
L 1064.301904 38.790597 
" clip-path="url(#pac6a68eb68)" style="fill: none; stroke-dasharray: 18.5,8; stroke-dashoffset: 0; stroke: #000000; stroke-opacity: 0.2; stroke-width: 5"/>
   </g>
   <g id="line2d_29">
    <path d="M 654.34272 287.029403 
L 1064.301904 287.029403 
" clip-path="url(#pac6a68eb68)" style="fill: none; stroke-dasharray: 18.5,8; stroke-dashoffset: 0; stroke: #000000; stroke-opacity: 0.2; stroke-width: 5"/>
   </g>
   <g id="line2d_30">
    <path d="M 654.34272 162.91 
L 1064.301904 162.91 
" clip-path="url(#pac6a68eb68)" style="fill: none; stroke: #000000; stroke-width: 5; stroke-linecap: square"/>
   </g>
   <g id="patch_7">
    <path d="M 654.34272 287.65 
L 654.34272 38.17 
" style="fill: none; stroke: #000000; stroke-width: 0.8; stroke-linejoin: miter; stroke-linecap: square"/>
   </g>
   <g id="patch_8">
    <path d="M 654.34272 287.65 
L 1064.301904 287.65 
" style="fill: none; stroke: #000000; stroke-width: 0.8; stroke-linejoin: miter; stroke-linecap: square"/>
   </g>
   <g id="text_24">
    <!-- $S(t)$ -->
    <g transform="translate(830.362312 31.515) scale(0.32 -0.32)">
     <defs>
      <path id="DejaVuSans-Oblique-53" d="M 3859 4513 
L 3738 3897 
Q 3422 4066 3111 4152 
Q 2800 4238 2509 4238 
Q 1944 4238 1609 3991 
Q 1275 3744 1275 3334 
Q 1275 3109 1398 2989 
Q 1522 2869 2034 2731 
L 2413 2638 
Q 3053 2472 3303 2217 
Q 3553 1963 3553 1503 
Q 3553 797 2998 353 
Q 2444 -91 1538 -91 
Q 1166 -91 791 -17 
Q 416 56 38 206 
L 166 856 
Q 513 641 861 531 
Q 1209 422 1556 422 
Q 2147 422 2503 684 
Q 2859 947 2859 1369 
Q 2859 1650 2717 1795 
Q 2575 1941 2106 2059 
L 1728 2156 
Q 1081 2325 845 2545 
Q 609 2766 609 3163 
Q 609 3859 1145 4304 
Q 1681 4750 2541 4750 
Q 2875 4750 3203 4690 
Q 3531 4631 3859 4513 
z
" transform="scale(0.015625)"/>
     </defs>
     <use xlink:href="#DejaVuSans-Oblique-53" transform="translate(0 0.125)"/>
     <use xlink:href="#DejaVuSans-28" transform="translate(63.476562 0.125)"/>
     <use xlink:href="#DejaVuSans-Oblique-74" transform="translate(102.490234 0.125)"/>
     <use xlink:href="#DejaVuSans-29" transform="translate(141.699219 0.125)"/>
    </g>
   </g>
  </g>
  <g id="axes_3">
   <g id="patch_9">
    <path d="M 1187.289659 287.65 
L 1597.248842 287.65 
L 1597.248842 38.17 
L 1187.289659 38.17 
z
" style="fill: #ffffff"/>
   </g>
   <g id="matplotlib.axis_5">
    <g id="xtick_9">
     <g id="line2d_31">
      <g>
       <use xlink:href="#m95f67fdfb3" x="1187.289659" y="287.65" style="stroke: #000000; stroke-width: 0.8"/>
      </g>
     </g>
     <g id="text_25">
      <!-- 0 -->
      <g transform="translate(1178.700284 315.165781) scale(0.27 -0.27)">
       <use xlink:href="#DejaVuSans-30"/>
      </g>
     </g>
    </g>
    <g id="xtick_10">
     <g id="line2d_32">
      <g>
       <use xlink:href="#m95f67fdfb3" x="1289.779455" y="287.65" style="stroke: #000000; stroke-width: 0.8"/>
      </g>
     </g>
     <g id="text_26">
      <!-- 25 -->
      <g transform="translate(1272.600705 315.165781) scale(0.27 -0.27)">
       <use xlink:href="#DejaVuSans-32"/>
       <use xlink:href="#DejaVuSans-35" x="63.623047"/>
      </g>
     </g>
    </g>
    <g id="xtick_11">
     <g id="line2d_33">
      <g>
       <use xlink:href="#m95f67fdfb3" x="1392.269251" y="287.65" style="stroke: #000000; stroke-width: 0.8"/>
      </g>
     </g>
     <g id="text_27">
      <!-- 50 -->
      <g transform="translate(1375.090501 315.165781) scale(0.27 -0.27)">
       <use xlink:href="#DejaVuSans-35"/>
       <use xlink:href="#DejaVuSans-30" x="63.623047"/>
      </g>
     </g>
    </g>
    <g id="xtick_12">
     <g id="line2d_34">
      <g>
       <use xlink:href="#m95f67fdfb3" x="1494.759047" y="287.65" style="stroke: #000000; stroke-width: 0.8"/>
      </g>
     </g>
     <g id="text_28">
      <!-- 75 -->
      <g transform="translate(1477.580297 315.165781) scale(0.27 -0.27)">
       <use xlink:href="#DejaVuSans-37"/>
       <use xlink:href="#DejaVuSans-35" x="63.623047"/>
      </g>
     </g>
    </g>
    <g id="text_29">
     <!-- Time [ms] -->
     <g transform="translate(1316.671594 347.57625) scale(0.3 -0.3)">
      <use xlink:href="#DejaVuSans-54"/>
      <use xlink:href="#DejaVuSans-69" x="57.958984"/>
      <use xlink:href="#DejaVuSans-6d" x="85.742188"/>
      <use xlink:href="#DejaVuSans-65" x="183.154297"/>
      <use xlink:href="#DejaVuSans-20" x="244.677734"/>
      <use xlink:href="#DejaVuSans-5b" x="276.464844"/>
      <use xlink:href="#DejaVuSans-6d" x="315.478516"/>
      <use xlink:href="#DejaVuSans-73" x="412.890625"/>
      <use xlink:href="#DejaVuSans-5d" x="464.990234"/>
     </g>
    </g>
   </g>
   <g id="matplotlib.axis_6">
    <g id="ytick_11">
     <g id="line2d_35">
      <g>
       <use xlink:href="#m6739935ae4" x="1187.289659" y="287.65" style="stroke: #000000; stroke-width: 0.8"/>
      </g>
     </g>
     <g id="text_30">
      <!-- 0.00 -->
      <g transform="translate(1120.172471 297.907891) scale(0.27 -0.27)">
       <defs>
        <path id="DejaVuSans-2e" d="M 684 794 
L 1344 794 
L 1344 0 
L 684 0 
L 684 794 
z
" transform="scale(0.015625)"/>
       </defs>
       <use xlink:href="#DejaVuSans-30"/>
       <use xlink:href="#DejaVuSans-2e" x="63.623047"/>
       <use xlink:href="#DejaVuSans-30" x="95.410156"/>
       <use xlink:href="#DejaVuSans-30" x="159.033203"/>
      </g>
     </g>
    </g>
    <g id="ytick_12">
     <g id="line2d_36">
      <g>
       <use xlink:href="#m6739935ae4" x="1187.289659" y="225.28" style="stroke: #000000; stroke-width: 0.8"/>
      </g>
     </g>
     <g id="text_31">
      <!-- 0.25 -->
      <g transform="translate(1120.172471 235.537891) scale(0.27 -0.27)">
       <use xlink:href="#DejaVuSans-30"/>
       <use xlink:href="#DejaVuSans-2e" x="63.623047"/>
       <use xlink:href="#DejaVuSans-32" x="95.410156"/>
       <use xlink:href="#DejaVuSans-35" x="159.033203"/>
      </g>
     </g>
    </g>
    <g id="ytick_13">
     <g id="line2d_37">
      <g>
       <use xlink:href="#m6739935ae4" x="1187.289659" y="162.91" style="stroke: #000000; stroke-width: 0.8"/>
      </g>
     </g>
     <g id="text_32">
      <!-- 0.50 -->
      <g transform="translate(1120.172471 173.167891) scale(0.27 -0.27)">
       <use xlink:href="#DejaVuSans-30"/>
       <use xlink:href="#DejaVuSans-2e" x="63.623047"/>
       <use xlink:href="#DejaVuSans-35" x="95.410156"/>
       <use xlink:href="#DejaVuSans-30" x="159.033203"/>
      </g>
     </g>
    </g>
    <g id="ytick_14">
     <g id="line2d_38">
      <g>
       <use xlink:href="#m6739935ae4" x="1187.289659" y="100.54" style="stroke: #000000; stroke-width: 0.8"/>
      </g>
     </g>
     <g id="text_33">
      <!-- 0.75 -->
      <g transform="translate(1120.172471 110.797891) scale(0.27 -0.27)">
       <use xlink:href="#DejaVuSans-30"/>
       <use xlink:href="#DejaVuSans-2e" x="63.623047"/>
       <use xlink:href="#DejaVuSans-37" x="95.410156"/>
       <use xlink:href="#DejaVuSans-35" x="159.033203"/>
      </g>
     </g>
    </g>
    <g id="ytick_15">
     <g id="line2d_39">
      <g>
       <use xlink:href="#m6739935ae4" x="1187.289659" y="38.17" style="stroke: #000000; stroke-width: 0.8"/>
      </g>
     </g>
     <g id="text_34">
      <!-- 1.00 -->
      <g transform="translate(1120.172471 48.427891) scale(0.27 -0.27)">
       <use xlink:href="#DejaVuSans-31"/>
       <use xlink:href="#DejaVuSans-2e" x="63.623047"/>
       <use xlink:href="#DejaVuSans-30" x="95.410156"/>
       <use xlink:href="#DejaVuSans-30" x="159.033203"/>
      </g>
     </g>
    </g>
    <g id="text_35">
     <!-- unitless -->
     <g transform="translate(1109.933409 220.995156) rotate(-90) scale(0.3 -0.3)">
      <defs>
       <path id="DejaVuSans-75" d="M 544 1381 
L 544 3500 
L 1119 3500 
L 1119 1403 
Q 1119 906 1312 657 
Q 1506 409 1894 409 
Q 2359 409 2629 706 
Q 2900 1003 2900 1516 
L 2900 3500 
L 3475 3500 
L 3475 0 
L 2900 0 
L 2900 538 
Q 2691 219 2414 64 
Q 2138 -91 1772 -91 
Q 1169 -91 856 284 
Q 544 659 544 1381 
z
M 1991 3584 
L 1991 3584 
z
" transform="scale(0.015625)"/>
       <path id="DejaVuSans-6e" d="M 3513 2113 
L 3513 0 
L 2938 0 
L 2938 2094 
Q 2938 2591 2744 2837 
Q 2550 3084 2163 3084 
Q 1697 3084 1428 2787 
Q 1159 2491 1159 1978 
L 1159 0 
L 581 0 
L 581 3500 
L 1159 3500 
L 1159 2956 
Q 1366 3272 1645 3428 
Q 1925 3584 2291 3584 
Q 2894 3584 3203 3211 
Q 3513 2838 3513 2113 
z
" transform="scale(0.015625)"/>
       <path id="DejaVuSans-74" d="M 1172 4494 
L 1172 3500 
L 2356 3500 
L 2356 3053 
L 1172 3053 
L 1172 1153 
Q 1172 725 1289 603 
Q 1406 481 1766 481 
L 2356 481 
L 2356 0 
L 1766 0 
Q 1100 0 847 248 
Q 594 497 594 1153 
L 594 3053 
L 172 3053 
L 172 3500 
L 594 3500 
L 594 4494 
L 1172 4494 
z
" transform="scale(0.015625)"/>
       <path id="DejaVuSans-6c" d="M 603 4863 
L 1178 4863 
L 1178 0 
L 603 0 
L 603 4863 
z
" transform="scale(0.015625)"/>
      </defs>
      <use xlink:href="#DejaVuSans-75"/>
      <use xlink:href="#DejaVuSans-6e" x="63.378906"/>
      <use xlink:href="#DejaVuSans-69" x="126.757812"/>
      <use xlink:href="#DejaVuSans-74" x="154.541016"/>
      <use xlink:href="#DejaVuSans-6c" x="193.75"/>
      <use xlink:href="#DejaVuSans-65" x="221.533203"/>
      <use xlink:href="#DejaVuSans-73" x="283.056641"/>
      <use xlink:href="#DejaVuSans-73" x="335.15625"/>
     </g>
    </g>
   </g>
   <g id="line2d_40">
    <path d="M 1187.289659 287.65 
L 1597.248842 287.65 
" clip-path="url(#p2977693570)" style="fill: none; stroke: #d3d3d3; stroke-opacity: 0.8; stroke-width: 1.5; stroke-linecap: square"/>
   </g>
   <g id="line2d_41">
    <path d="M 1187.289659 287.65 
L 1199.588434 287.65 
L 1200.408353 146.721386 
L 1201.228271 82.450851 
L 1202.048189 82.368509 
L 1203.688026 144.888544 
L 1204.507945 160.193629 
L 1205.327863 168.433149 
L 1206.147781 172.986069 
L 1206.9677 175.556984 
L 1207.787618 177.018036 
L 1208.607536 177.825082 
L 1209.427455 178.233594 
L 1210.247373 191.966057 
L 1211.067291 217.836486 
L 1211.88721 232.909901 
L 1212.707128 242.262337 
L 1213.527047 248.439483 
L 1214.346965 252.768566 
L 1215.166883 255.966051 
L 1215.986802 258.479249 
L 1216.80672 260.378982 
L 1217.626638 259.414996 
L 1218.446557 199.385574 
L 1219.266475 115.7417 
L 1220.086393 81.116259 
L 1223.366067 80.887731 
L 1225.005904 124.62749 
L 1225.825822 136.888427 
L 1226.64574 143.958921 
L 1228.285577 153.513787 
L 1229.105496 155.21826 
L 1229.925414 152.804573 
L 1230.745332 154.140262 
L 1231.565251 155.060735 
L 1232.385169 155.653878 
L 1233.205087 156.042781 
L 1234.844924 156.189675 
L 1235.664842 157.524351 
L 1236.484761 158.192716 
L 1237.304679 159.308604 
L 1238.124598 159.653031 
L 1238.944516 152.482432 
L 1239.764434 161.278951 
L 1240.584353 151.411398 
L 1241.404271 159.669063 
L 1242.224189 150.987087 
L 1243.044108 156.790091 
L 1243.864026 174.57895 
L 1244.683945 196.607435 
L 1245.503863 209.69699 
L 1246.323781 218.011437 
L 1247.1437 223.675627 
L 1247.963618 227.798093 
L 1248.783536 230.9704 
L 1249.603455 233.52594 
L 1250.423373 235.659238 
L 1252.06321 239.046509 
L 1253.703047 241.679296 
L 1255.342883 243.839514 
L 1256.98272 245.687992 
L 1259.442475 248.0815 
L 1261.90223 250.161925 
L 1265.181904 252.655103 
L 1269.281496 255.421094 
L 1270.101414 216.031052 
L 1270.921332 134.104802 
L 1271.741251 79.037563 
L 1275.020924 78.950795 
L 1275.840842 108.855226 
L 1276.660761 126.423407 
L 1277.480679 136.497014 
L 1278.300598 142.080096 
L 1279.120516 145.319254 
L 1279.940434 148.043227 
L 1281.580271 151.511519 
L 1282.400189 154.13266 
L 1283.220108 150.880427 
L 1284.040026 159.791271 
L 1284.859945 159.103125 
L 1285.679863 145.331534 
L 1286.499781 148.547035 
L 1287.3197 160.612711 
L 1288.139618 148.812344 
L 1289.779455 157.258876 
L 1290.599373 155.229307 
L 1291.419291 151.073249 
L 1292.23921 151.311768 
L 1293.059128 150.352049 
L 1293.879047 150.583227 
L 1294.698965 150.445518 
L 1295.518883 157.091289 
L 1296.338802 184.713346 
L 1297.15872 200.753301 
L 1297.978638 210.68928 
L 1298.798557 217.297439 
L 1299.618475 181.191312 
L 1300.438393 78.94026 
L 1301.258312 78.69873 
L 1302.898149 78.572636 
L 1304.537985 78.290875 
L 1306.177822 78.271924 
L 1306.99774 132.417932 
L 1307.817659 163.10574 
L 1308.637577 181.542573 
L 1309.457496 193.385084 
L 1310.277414 201.529262 
L 1311.097332 207.489663 
L 1311.917251 212.08295 
L 1312.737169 215.767995 
L 1313.557087 218.816179 
L 1315.196924 223.624776 
L 1316.836761 227.311388 
L 1318.476598 230.290673 
L 1320.116434 232.80452 
L 1322.576189 236.014295 
L 1325.035945 238.797088 
L 1328.315618 242.097187 
L 1331.595291 245.083095 
L 1334.874965 247.835759 
L 1335.694883 128.138446 
L 1336.514802 107.749958 
L 1337.33472 99.52525 
L 1338.154638 95.890422 
L 1338.974557 94.043773 
L 1339.794475 106.823282 
L 1340.614393 125.003732 
L 1341.434312 134.816753 
L 1342.25423 140.350254 
L 1343.074149 143.522709 
L 1343.894067 145.498871 
L 1344.713985 149.851782 
L 1345.533904 146.527537 
L 1346.353822 155.199513 
L 1347.17374 184.024031 
L 1347.993659 200.849818 
L 1348.813577 211.323766 
L 1349.633496 218.313741 
L 1350.453414 223.301777 
L 1351.273332 227.073601 
L 1352.093251 230.06089 
L 1352.913169 232.512074 
L 1353.733087 234.608192 
L 1355.372924 237.904072 
L 1357.012761 240.49842 
L 1357.832679 241.616609 
L 1358.652598 223.739136 
L 1360.292434 86.576012 
L 1362.752189 86.039894 
L 1365.211945 85.627327 
L 1366.031863 94.490312 
L 1366.851781 113.263631 
L 1367.6717 123.759702 
L 1368.491618 130.22112 
L 1369.311536 134.782124 
L 1370.131455 137.042467 
L 1370.951373 140.220561 
L 1371.771291 147.269514 
L 1372.59121 147.141096 
L 1373.411128 146.630391 
L 1374.231047 147.577071 
L 1375.050965 147.455824 
L 1375.870883 132.431518 
L 1376.690802 142.402599 
L 1377.51072 141.425092 
L 1378.330638 145.760114 
L 1379.150557 144.515301 
L 1379.970475 152.469006 
L 1380.790393 144.999165 
L 1381.610312 138.83509 
L 1382.43023 138.888951 
L 1383.250149 140.590961 
L 1384.070067 149.824001 
L 1384.889985 137.065137 
L 1385.709904 163.682552 
L 1386.529822 185.119796 
L 1387.34974 198.152317 
L 1388.169659 206.521336 
L 1388.989577 203.887781 
L 1389.809496 84.548239 
L 1390.629414 83.008128 
L 1392.269251 82.94789 
L 1393.089169 82.575634 
L 1393.909087 82.450906 
L 1394.729006 82.112275 
L 1395.548924 81.92272 
L 1397.188761 81.784752 
L 1397.188761 81.784752 
" clip-path="url(#p2977693570)" style="fill: none; stroke: #000000; stroke-width: 5; stroke-linecap: square"/>
   </g>
   <g id="line2d_42">
    <path d="M 1187.289659 287.65 
L 1597.248842 287.65 
" clip-path="url(#p2977693570)" style="fill: none; stroke: #000000; stroke-width: 5; stroke-linecap: square"/>
   </g>
   <g id="line2d_43">
    <path d="M 1187.289659 83.297043 
L 1188.929496 82.548383 
L 1190.569332 82.019761 
L 1193.029087 81.463618 
L 1197.128679 80.841765 
L 1203.688026 80.135201 
L 1214.346965 79.243187 
L 1226.64574 78.435558 
L 1241.404271 77.698816 
L 1258.622557 77.076865 
L 1279.120516 76.571053 
L 1304.537985 76.176136 
L 1306.99774 76.147659 
L 1307.817659 134.403285 
L 1308.637577 168.266994 
L 1309.457496 121.584289 
L 1310.277414 137.02519 
L 1311.097332 107.003803 
L 1311.917251 95.228936 
L 1312.737169 90.285515 
L 1313.557087 87.96255 
L 1314.377006 86.692814 
L 1315.196924 85.882345 
L 1316.836761 84.84149 
L 1318.476598 84.152511 
L 1320.936353 83.431201 
L 1324.216026 82.75562 
L 1329.135536 81.998475 
L 1331.595291 81.674196 
L 1332.41521 88.506125 
L 1333.235128 180.873551 
L 1334.055047 104.397988 
L 1334.874965 140.909863 
L 1335.694883 126.527218 
L 1336.514802 105.932786 
L 1337.33472 97.625001 
L 1338.154638 93.953456 
L 1338.974557 92.088155 
L 1339.794475 90.969813 
L 1340.614393 90.192346 
L 1342.25423 89.100173 
L 1343.894067 88.312347 
L 1346.353822 87.418527 
L 1349.633496 86.502648 
L 1354.553006 85.396509 
L 1361.112353 84.156423 
L 1369.311536 82.839766 
L 1378.330638 81.625959 
L 1388.169659 80.532587 
L 1397.188761 79.705305 
L 1397.188761 79.705305 
" clip-path="url(#p2977693570)" style="fill: none; stroke-dasharray: 22.2,9.6; stroke-dashoffset: 0; stroke: #ff0000; stroke-width: 6"/>
   </g>
   <g id="line2d_44">
    <path d="M 1187.289659 113.014 
L 1597.248842 113.014 
" clip-path="url(#p2977693570)" style="fill: none; stroke-dasharray: 5,8.25; stroke-dashoffset: 0; stroke: #ff0000; stroke-opacity: 0.5; stroke-width: 5"/>
   </g>
   <g id="patch_10">
    <path d="M 1187.289659 287.65 
L 1187.289659 38.17 
" style="fill: none; stroke: #000000; stroke-width: 0.8; stroke-linejoin: miter; stroke-linecap: square"/>
   </g>
   <g id="patch_11">
    <path d="M 1187.289659 287.65 
L 1597.248842 287.65 
" style="fill: none; stroke: #000000; stroke-width: 0.8; stroke-linejoin: miter; stroke-linecap: square"/>
   </g>
   <g id="text_36">
    <!-- SAFE-PNS -->
    <g transform="translate(1314.006751 31.515) scale(0.32 -0.32)">
     <defs>
      <path id="DejaVuSans-53" d="M 3425 4513 
L 3425 3897 
Q 3066 4069 2747 4153 
Q 2428 4238 2131 4238 
Q 1616 4238 1336 4038 
Q 1056 3838 1056 3469 
Q 1056 3159 1242 3001 
Q 1428 2844 1947 2747 
L 2328 2669 
Q 3034 2534 3370 2195 
Q 3706 1856 3706 1288 
Q 3706 609 3251 259 
Q 2797 -91 1919 -91 
Q 1588 -91 1214 -16 
Q 841 59 441 206 
L 441 856 
Q 825 641 1194 531 
Q 1563 422 1919 422 
Q 2459 422 2753 634 
Q 3047 847 3047 1241 
Q 3047 1584 2836 1778 
Q 2625 1972 2144 2069 
L 1759 2144 
Q 1053 2284 737 2584 
Q 422 2884 422 3419 
Q 422 4038 858 4394 
Q 1294 4750 2059 4750 
Q 2388 4750 2728 4690 
Q 3069 4631 3425 4513 
z
" transform="scale(0.015625)"/>
      <path id="DejaVuSans-41" d="M 2188 4044 
L 1331 1722 
L 3047 1722 
L 2188 4044 
z
M 1831 4666 
L 2547 4666 
L 4325 0 
L 3669 0 
L 3244 1197 
L 1141 1197 
L 716 0 
L 50 0 
L 1831 4666 
z
" transform="scale(0.015625)"/>
      <path id="DejaVuSans-46" d="M 628 4666 
L 3309 4666 
L 3309 4134 
L 1259 4134 
L 1259 2759 
L 3109 2759 
L 3109 2228 
L 1259 2228 
L 1259 0 
L 628 0 
L 628 4666 
z
" transform="scale(0.015625)"/>
      <path id="DejaVuSans-45" d="M 628 4666 
L 3578 4666 
L 3578 4134 
L 1259 4134 
L 1259 2753 
L 3481 2753 
L 3481 2222 
L 1259 2222 
L 1259 531 
L 3634 531 
L 3634 0 
L 628 0 
L 628 4666 
z
" transform="scale(0.015625)"/>
      <path id="DejaVuSans-2d" d="M 313 2009 
L 1997 2009 
L 1997 1497 
L 313 1497 
L 313 2009 
z
" transform="scale(0.015625)"/>
      <path id="DejaVuSans-50" d="M 1259 4147 
L 1259 2394 
L 2053 2394 
Q 2494 2394 2734 2622 
Q 2975 2850 2975 3272 
Q 2975 3691 2734 3919 
Q 2494 4147 2053 4147 
L 1259 4147 
z
M 628 4666 
L 2053 4666 
Q 2838 4666 3239 4311 
Q 3641 3956 3641 3272 
Q 3641 2581 3239 2228 
Q 2838 1875 2053 1875 
L 1259 1875 
L 1259 0 
L 628 0 
L 628 4666 
z
" transform="scale(0.015625)"/>
      <path id="DejaVuSans-4e" d="M 628 4666 
L 1478 4666 
L 3547 763 
L 3547 4666 
L 4159 4666 
L 4159 0 
L 3309 0 
L 1241 3903 
L 1241 0 
L 628 0 
L 628 4666 
z
" transform="scale(0.015625)"/>
     </defs>
     <use xlink:href="#DejaVuSans-53"/>
     <use xlink:href="#DejaVuSans-41" x="65.351562"/>
     <use xlink:href="#DejaVuSans-46" x="133.759766"/>
     <use xlink:href="#DejaVuSans-45" x="191.279297"/>
     <use xlink:href="#DejaVuSans-2d" x="254.462891"/>
     <use xlink:href="#DejaVuSans-50" x="290.546875"/>
     <use xlink:href="#DejaVuSans-4e" x="350.849609"/>
     <use xlink:href="#DejaVuSans-53" x="425.654297"/>
    </g>
   </g>
   <g id="legend_2">
    <g id="patch_12">
     <path d="M 1448.611342 276.65 
L 1581.848842 276.65 
Q 1586.248842 276.65 1586.248842 272.25 
L 1586.248842 242.158125 
Q 1586.248842 237.758125 1581.848842 237.758125 
L 1448.611342 237.758125 
Q 1444.211342 237.758125 1444.211342 242.158125 
L 1444.211342 272.25 
Q 1444.211342 276.65 1448.611342 276.65 
z
" style="fill: #ffffff; opacity: 0.2; stroke: #cccccc; stroke-linejoin: miter"/>
    </g>
    <g id="line2d_45">
     <path d="M 1453.011342 255.574688 
L 1475.011342 255.574688 
L 1497.011342 255.574688 
" style="fill: none; stroke: #000000; stroke-width: 5; stroke-linecap: square"/>
    </g>
    <g id="text_37">
     <!-- Y-axis -->
     <g transform="translate(1514.611342 263.274688) scale(0.22 -0.22)">
      <defs>
       <path id="DejaVuSans-59" d="M -13 4666 
L 666 4666 
L 1959 2747 
L 3244 4666 
L 3922 4666 
L 2272 2222 
L 2272 0 
L 1638 0 
L 1638 2222 
L -13 4666 
z
" transform="scale(0.015625)"/>
       <path id="DejaVuSans-61" d="M 2194 1759 
Q 1497 1759 1228 1600 
Q 959 1441 959 1056 
Q 959 750 1161 570 
Q 1363 391 1709 391 
Q 2188 391 2477 730 
Q 2766 1069 2766 1631 
L 2766 1759 
L 2194 1759 
z
M 3341 1997 
L 3341 0 
L 2766 0 
L 2766 531 
Q 2569 213 2275 61 
Q 1981 -91 1556 -91 
Q 1019 -91 701 211 
Q 384 513 384 1019 
Q 384 1609 779 1909 
Q 1175 2209 1959 2209 
L 2766 2209 
L 2766 2266 
Q 2766 2663 2505 2880 
Q 2244 3097 1772 3097 
Q 1472 3097 1187 3025 
Q 903 2953 641 2809 
L 641 3341 
Q 956 3463 1253 3523 
Q 1550 3584 1831 3584 
Q 2591 3584 2966 3190 
Q 3341 2797 3341 1997 
z
" transform="scale(0.015625)"/>
       <path id="DejaVuSans-78" d="M 3513 3500 
L 2247 1797 
L 3578 0 
L 2900 0 
L 1881 1375 
L 863 0 
L 184 0 
L 1544 1831 
L 300 3500 
L 978 3500 
L 1906 2253 
L 2834 3500 
L 3513 3500 
z
" transform="scale(0.015625)"/>
      </defs>
      <use xlink:href="#DejaVuSans-59"/>
      <use xlink:href="#DejaVuSans-2d" x="49.208984"/>
      <use xlink:href="#DejaVuSans-61" x="85.292969"/>
      <use xlink:href="#DejaVuSans-78" x="146.572266"/>
      <use xlink:href="#DejaVuSans-69" x="205.751953"/>
      <use xlink:href="#DejaVuSans-73" x="233.535156"/>
     </g>
    </g>
   </g>
  </g>
  <g id="axes_4">
   <g id="patch_13">
    <path d="M 1720.236598 287.65 
L 2130.195781 287.65 
L 2130.195781 38.17 
L 1720.236598 38.17 
z
" style="fill: #ffffff"/>
   </g>
   <g id="matplotlib.axis_7">
    <g id="xtick_13">
     <g id="line2d_46">
      <g>
       <use xlink:href="#m95f67fdfb3" x="1720.236598" y="287.65" style="stroke: #000000; stroke-width: 0.8"/>
      </g>
     </g>
     <g id="text_38">
      <!-- 0 -->
      <g transform="translate(1711.647223 315.165781) scale(0.27 -0.27)">
       <use xlink:href="#DejaVuSans-30"/>
      </g>
     </g>
    </g>
    <g id="xtick_14">
     <g id="line2d_47">
      <g>
       <use xlink:href="#m95f67fdfb3" x="1822.726393" y="287.65" style="stroke: #000000; stroke-width: 0.8"/>
      </g>
     </g>
     <g id="text_39">
      <!-- 25 -->
      <g transform="translate(1805.547643 315.165781) scale(0.27 -0.27)">
       <use xlink:href="#DejaVuSans-32"/>
       <use xlink:href="#DejaVuSans-35" x="63.623047"/>
      </g>
     </g>
    </g>
    <g id="xtick_15">
     <g id="line2d_48">
      <g>
       <use xlink:href="#m95f67fdfb3" x="1925.216189" y="287.65" style="stroke: #000000; stroke-width: 0.8"/>
      </g>
     </g>
     <g id="text_40">
      <!-- 50 -->
      <g transform="translate(1908.037439 315.165781) scale(0.27 -0.27)">
       <use xlink:href="#DejaVuSans-35"/>
       <use xlink:href="#DejaVuSans-30" x="63.623047"/>
      </g>
     </g>
    </g>
    <g id="xtick_16">
     <g id="line2d_49">
      <g>
       <use xlink:href="#m95f67fdfb3" x="2027.705985" y="287.65" style="stroke: #000000; stroke-width: 0.8"/>
      </g>
     </g>
     <g id="text_41">
      <!-- 75 -->
      <g transform="translate(2010.527235 315.165781) scale(0.27 -0.27)">
       <use xlink:href="#DejaVuSans-37"/>
       <use xlink:href="#DejaVuSans-35" x="63.623047"/>
      </g>
     </g>
    </g>
    <g id="text_42">
     <!-- Time [ms] -->
     <g transform="translate(1849.618533 347.57625) scale(0.3 -0.3)">
      <use xlink:href="#DejaVuSans-54"/>
      <use xlink:href="#DejaVuSans-69" x="57.958984"/>
      <use xlink:href="#DejaVuSans-6d" x="85.742188"/>
      <use xlink:href="#DejaVuSans-65" x="183.154297"/>
      <use xlink:href="#DejaVuSans-20" x="244.677734"/>
      <use xlink:href="#DejaVuSans-5b" x="276.464844"/>
      <use xlink:href="#DejaVuSans-6d" x="315.478516"/>
      <use xlink:href="#DejaVuSans-73" x="412.890625"/>
      <use xlink:href="#DejaVuSans-5d" x="464.990234"/>
     </g>
    </g>
   </g>
   <g id="matplotlib.axis_8">
    <g id="ytick_16">
     <g id="line2d_50">
      <g>
       <use xlink:href="#m6739935ae4" x="1720.236598" y="287.65" style="stroke: #000000; stroke-width: 0.8"/>
      </g>
     </g>
     <g id="text_43">
      <!-- 0.00 -->
      <g transform="translate(1653.11941 297.907891) scale(0.27 -0.27)">
       <use xlink:href="#DejaVuSans-30"/>
       <use xlink:href="#DejaVuSans-2e" x="63.623047"/>
       <use xlink:href="#DejaVuSans-30" x="95.410156"/>
       <use xlink:href="#DejaVuSans-30" x="159.033203"/>
      </g>
     </g>
    </g>
    <g id="ytick_17">
     <g id="line2d_51">
      <g>
       <use xlink:href="#m6739935ae4" x="1720.236598" y="225.28" style="stroke: #000000; stroke-width: 0.8"/>
      </g>
     </g>
     <g id="text_44">
      <!-- 0.25 -->
      <g transform="translate(1653.11941 235.537891) scale(0.27 -0.27)">
       <use xlink:href="#DejaVuSans-30"/>
       <use xlink:href="#DejaVuSans-2e" x="63.623047"/>
       <use xlink:href="#DejaVuSans-32" x="95.410156"/>
       <use xlink:href="#DejaVuSans-35" x="159.033203"/>
      </g>
     </g>
    </g>
    <g id="ytick_18">
     <g id="line2d_52">
      <g>
       <use xlink:href="#m6739935ae4" x="1720.236598" y="162.91" style="stroke: #000000; stroke-width: 0.8"/>
      </g>
     </g>
     <g id="text_45">
      <!-- 0.50 -->
      <g transform="translate(1653.11941 173.167891) scale(0.27 -0.27)">
       <use xlink:href="#DejaVuSans-30"/>
       <use xlink:href="#DejaVuSans-2e" x="63.623047"/>
       <use xlink:href="#DejaVuSans-35" x="95.410156"/>
       <use xlink:href="#DejaVuSans-30" x="159.033203"/>
      </g>
     </g>
    </g>
    <g id="ytick_19">
     <g id="line2d_53">
      <g>
       <use xlink:href="#m6739935ae4" x="1720.236598" y="100.54" style="stroke: #000000; stroke-width: 0.8"/>
      </g>
     </g>
     <g id="text_46">
      <!-- 0.75 -->
      <g transform="translate(1653.11941 110.797891) scale(0.27 -0.27)">
       <use xlink:href="#DejaVuSans-30"/>
       <use xlink:href="#DejaVuSans-2e" x="63.623047"/>
       <use xlink:href="#DejaVuSans-37" x="95.410156"/>
       <use xlink:href="#DejaVuSans-35" x="159.033203"/>
      </g>
     </g>
    </g>
    <g id="ytick_20">
     <g id="line2d_54">
      <g>
       <use xlink:href="#m6739935ae4" x="1720.236598" y="38.17" style="stroke: #000000; stroke-width: 0.8"/>
      </g>
     </g>
     <g id="text_47">
      <!-- 1.00 -->
      <g transform="translate(1653.11941 48.427891) scale(0.27 -0.27)">
       <use xlink:href="#DejaVuSans-31"/>
       <use xlink:href="#DejaVuSans-2e" x="63.623047"/>
       <use xlink:href="#DejaVuSans-30" x="95.410156"/>
       <use xlink:href="#DejaVuSans-30" x="159.033203"/>
      </g>
     </g>
    </g>
    <g id="text_48">
     <!-- unitless -->
     <g transform="translate(1642.880348 220.995156) rotate(-90) scale(0.3 -0.3)">
      <use xlink:href="#DejaVuSans-75"/>
      <use xlink:href="#DejaVuSans-6e" x="63.378906"/>
      <use xlink:href="#DejaVuSans-69" x="126.757812"/>
      <use xlink:href="#DejaVuSans-74" x="154.541016"/>
      <use xlink:href="#DejaVuSans-6c" x="193.75"/>
      <use xlink:href="#DejaVuSans-65" x="221.533203"/>
      <use xlink:href="#DejaVuSans-73" x="283.056641"/>
      <use xlink:href="#DejaVuSans-73" x="335.15625"/>
     </g>
    </g>
   </g>
   <g id="line2d_55">
    <path d="M 1720.236598 287.65 
L 2130.195781 287.65 
" clip-path="url(#pa8358eccda)" style="fill: none; stroke: #d3d3d3; stroke-opacity: 0.8; stroke-width: 1.5; stroke-linecap: square"/>
   </g>
   <g id="line2d_56">
    <path d="M 1720.236598 287.65 
L 1732.535373 287.65 
L 1733.355291 212.224051 
L 1734.17521 152.205606 
L 1734.995128 118.645603 
L 1735.815047 107.809293 
L 1737.454883 101.985993 
L 1739.09472 97.297843 
L 1740.734557 93.52239 
L 1742.374393 90.486151 
L 1743.194312 96.477239 
L 1744.834149 125.624265 
L 1746.473985 150.234659 
L 1748.113822 171.027424 
L 1749.753659 188.646888 
L 1750.573577 197.206119 
L 1752.213414 235.078052 
L 1753.033332 187.975456 
L 1754.673169 130.150907 
L 1756.313006 86.198563 
L 1757.132924 79.786671 
L 1759.592679 79.228274 
L 1760.412598 79.382407 
L 1761.232516 80.357574 
L 1762.052434 80.595869 
L 1762.872353 78.870592 
L 1764.512189 78.532607 
L 1767.791863 78.248053 
L 1769.4317 79.552236 
L 1770.251618 80.549884 
L 1771.071536 81.342055 
L 1771.891455 78.155912 
L 1772.711373 82.193121 
L 1773.531291 78.022211 
L 1774.35121 81.673434 
L 1775.171128 77.959548 
L 1775.991047 80.363242 
L 1776.810965 90.427149 
L 1778.450802 120.309738 
L 1780.090638 145.569498 
L 1781.730475 166.930271 
L 1783.370312 185.019718 
L 1785.010149 200.344873 
L 1786.649985 213.333321 
L 1788.289822 224.349817 
L 1789.929659 233.700727 
L 1791.569496 241.643613 
L 1793.209332 248.396456 
L 1794.849169 254.147502 
L 1796.489006 259.045796 
L 1798.128842 263.22341 
L 1799.768679 266.789649 
L 1801.408516 269.832938 
L 1802.228434 271.181386 
L 1803.048353 277.761176 
L 1804.688189 173.93588 
L 1805.508108 144.776477 
L 1807.147945 97.737304 
L 1807.967863 78.634218 
L 1808.787781 77.878645 
L 1809.6077 77.96156 
L 1810.427618 78.156368 
L 1811.247536 78.161454 
L 1812.067455 78.054793 
L 1813.707291 78.542541 
L 1814.52721 78.995677 
L 1815.347128 80.247694 
L 1816.167047 78.800448 
L 1816.986965 83.202262 
L 1817.806883 84.139308 
L 1818.626802 77.76971 
L 1819.44672 77.874547 
L 1820.266638 83.588136 
L 1821.086557 78.877527 
L 1821.906475 80.555418 
L 1822.726393 82.926938 
L 1823.546312 82.839221 
L 1824.36623 81.16128 
L 1825.186149 81.070148 
L 1826.006067 80.487002 
L 1827.645904 80.348142 
L 1828.465822 83.926008 
L 1830.105659 114.780107 
L 1831.745496 140.853782 
L 1832.565414 164.257252 
L 1833.385332 197.983793 
L 1834.205251 218.554881 
L 1837.484924 132.81049 
L 1839.124761 101.320473 
L 1840.764598 131.309548 
L 1842.404434 156.346441 
L 1844.044271 177.269337 
L 1845.684108 194.771316 
L 1847.323945 209.425977 
L 1848.963781 221.708456 
L 1850.603618 232.012684 
L 1852.243455 240.665567 
L 1853.883291 247.938646 
L 1855.523128 254.057681 
L 1857.162965 259.210555 
L 1858.802802 263.553776 
L 1860.442638 267.217843 
L 1862.082475 270.311676 
L 1863.722312 272.926269 
L 1865.362149 275.13772 
L 1867.001985 277.009728 
L 1867.821904 277.835474 
L 1868.641822 214.181288 
L 1869.46174 181.743807 
L 1870.281659 155.178852 
L 1871.921496 113.100866 
L 1872.741414 103.445165 
L 1874.381251 98.890745 
L 1876.021087 95.162116 
L 1876.841006 93.558527 
L 1877.660924 93.763089 
L 1878.480842 90.791264 
L 1879.300761 93.676199 
L 1880.940598 123.232214 
L 1882.580434 148.17806 
L 1884.220271 169.251163 
L 1885.860108 187.067912 
L 1887.499945 202.160059 
L 1889.139781 214.943786 
L 1890.779618 225.786453 
L 1891.599536 234.536868 
L 1892.419455 253.164692 
L 1893.239373 213.077182 
L 1894.87921 159.952595 
L 1896.519047 119.360402 
L 1898.158883 87.625048 
L 1898.978802 79.140835 
L 1900.618638 78.905922 
L 1901.438557 78.97025 
L 1902.258475 79.338414 
L 1903.078393 79.320568 
L 1903.898312 80.154761 
L 1904.71823 83.585937 
L 1905.538149 84.369108 
L 1906.358067 84.695622 
L 1907.177985 85.552189 
L 1907.997904 85.914469 
L 1908.817822 78.190592 
L 1909.63774 81.056094 
L 1910.457659 80.24077 
L 1911.277577 82.129073 
L 1912.097496 81.885149 
L 1912.917414 86.282894 
L 1913.737332 83.866837 
L 1914.557251 80.578664 
L 1915.377169 79.528455 
L 1916.197087 79.562287 
L 1917.017006 84.093067 
L 1917.836924 78.617204 
L 1918.656842 91.720892 
L 1920.296679 121.317846 
L 1921.116598 134.392901 
L 1921.936516 150.307468 
L 1922.756434 187.340244 
L 1923.576353 208.062438 
L 1924.396271 213.237101 
L 1926.036108 169.200151 
L 1927.675945 134.47215 
L 1929.315781 106.588219 
L 1930.1357 94.706245 
L 1930.1357 94.706245 
" clip-path="url(#pa8358eccda)" style="fill: none; stroke: #000000; stroke-width: 5; stroke-linecap: square"/>
   </g>
   <g id="line2d_57">
    <path d="M 1720.236598 287.65 
L 2130.195781 287.65 
" clip-path="url(#pa8358eccda)" style="fill: none; stroke: #000000; stroke-width: 5; stroke-linecap: square"/>
   </g>
   <g id="line2d_58">
    <path d="M 1720.236598 89.163172 
L 1721.876434 86.940244 
L 1723.516271 85.091609 
L 1725.156108 83.552485 
L 1726.795945 82.269599 
L 1728.435781 81.199093 
L 1730.895536 79.91423 
L 1733.355291 78.930841 
L 1735.815047 78.176399 
L 1739.09472 77.434183 
L 1742.374393 76.909293 
L 1746.473985 76.461751 
L 1752.213414 76.081717 
L 1759.592679 75.82833 
L 1771.891455 75.663514 
L 1798.128842 75.597856 
L 1839.944679 75.592114 
L 1841.584516 129.048736 
L 1842.404434 116.704533 
L 1843.224353 113.989 
L 1844.864189 106.624094 
L 1846.504026 100.685067 
L 1848.143863 95.893912 
L 1849.7837 92.027111 
L 1851.423536 88.904914 
L 1853.063373 86.382732 
L 1854.70321 84.344229 
L 1856.343047 82.695779 
L 1857.982883 81.362005 
L 1859.62272 80.282208 
L 1861.262557 79.40749 
L 1863.722312 78.395872 
L 1864.54223 78.123314 
L 1865.362149 79.000064 
L 1866.182067 123.074286 
L 1867.001985 125.253672 
L 1867.821904 110.549611 
L 1868.641822 113.4632 
L 1870.281659 106.219072 
L 1871.921496 100.374501 
L 1873.561332 95.657041 
L 1875.201169 91.847584 
L 1876.841006 88.769872 
L 1878.480842 86.28208 
L 1880.120679 84.270057 
L 1881.760516 82.641902 
L 1883.400353 81.323599 
L 1885.040189 80.255519 
L 1886.680026 79.389609 
L 1889.139781 78.387151 
L 1891.599536 77.653479 
L 1894.87921 76.97021 
L 1898.158883 76.517081 
L 1903.078393 76.104736 
L 1909.63774 75.829081 
L 1919.476761 75.669153 
L 1930.1357 75.615942 
L 1930.1357 75.615942 
" clip-path="url(#pa8358eccda)" style="fill: none; stroke-dasharray: 22.2,9.6; stroke-dashoffset: 0; stroke: #800080; stroke-width: 6"/>
   </g>
   <g id="line2d_59">
    <path clip-path="url(#pa8358eccda)" style="fill: none; stroke-dasharray: 11.1,4.8; stroke-dashoffset: 0; stroke: #800080; stroke-width: 3"/>
   </g>
   <g id="line2d_60">
    <path d="M 1720.236598 113.014 
L 2130.195781 113.014 
" clip-path="url(#pa8358eccda)" style="fill: none; stroke-dasharray: 5,8.25; stroke-dashoffset: 0; stroke: #800080; stroke-opacity: 0.5; stroke-width: 5"/>
   </g>
   <g id="patch_14">
    <path d="M 1720.236598 287.65 
L 1720.236598 38.17 
" style="fill: none; stroke: #000000; stroke-width: 0.8; stroke-linejoin: miter; stroke-linecap: square"/>
   </g>
   <g id="patch_15">
    <path d="M 1720.236598 287.65 
L 2130.195781 287.65 
" style="fill: none; stroke: #000000; stroke-width: 0.8; stroke-linejoin: miter; stroke-linecap: square"/>
   </g>
   <g id="text_49">
    <!-- SAFE-CNS -->
    <g transform="translate(1845.428689 31.515) scale(0.32 -0.32)">
     <defs>
      <path id="DejaVuSans-43" d="M 4122 4306 
L 4122 3641 
Q 3803 3938 3442 4084 
Q 3081 4231 2675 4231 
Q 1875 4231 1450 3742 
Q 1025 3253 1025 2328 
Q 1025 1406 1450 917 
Q 1875 428 2675 428 
Q 3081 428 3442 575 
Q 3803 722 4122 1019 
L 4122 359 
Q 3791 134 3420 21 
Q 3050 -91 2638 -91 
Q 1578 -91 968 557 
Q 359 1206 359 2328 
Q 359 3453 968 4101 
Q 1578 4750 2638 4750 
Q 3056 4750 3426 4639 
Q 3797 4528 4122 4306 
z
" transform="scale(0.015625)"/>
     </defs>
     <use xlink:href="#DejaVuSans-53"/>
     <use xlink:href="#DejaVuSans-41" x="65.351562"/>
     <use xlink:href="#DejaVuSans-46" x="133.759766"/>
     <use xlink:href="#DejaVuSans-45" x="191.279297"/>
     <use xlink:href="#DejaVuSans-2d" x="254.462891"/>
     <use xlink:href="#DejaVuSans-43" x="290.546875"/>
     <use xlink:href="#DejaVuSans-4e" x="360.371094"/>
     <use xlink:href="#DejaVuSans-53" x="435.175781"/>
    </g>
   </g>
   <g id="legend_3">
    <g id="patch_16">
     <path d="M 1981.558281 276.65 
L 2114.795781 276.65 
Q 2119.195781 276.65 2119.195781 272.25 
L 2119.195781 242.158125 
Q 2119.195781 237.758125 2114.795781 237.758125 
L 1981.558281 237.758125 
Q 1977.158281 237.758125 1977.158281 242.158125 
L 1977.158281 272.25 
Q 1977.158281 276.65 1981.558281 276.65 
z
" style="fill: #ffffff; opacity: 0.2; stroke: #cccccc; stroke-linejoin: miter"/>
    </g>
    <g id="line2d_61">
     <path d="M 1985.958281 255.574688 
L 2007.958281 255.574688 
L 2029.958281 255.574688 
" style="fill: none; stroke: #000000; stroke-width: 5; stroke-linecap: square"/>
    </g>
    <g id="text_50">
     <!-- Y-axis -->
     <g transform="translate(2047.558281 263.274688) scale(0.22 -0.22)">
      <use xlink:href="#DejaVuSans-59"/>
      <use xlink:href="#DejaVuSans-2d" x="49.208984"/>
      <use xlink:href="#DejaVuSans-61" x="85.292969"/>
      <use xlink:href="#DejaVuSans-78" x="146.572266"/>
      <use xlink:href="#DejaVuSans-69" x="205.751953"/>
      <use xlink:href="#DejaVuSans-73" x="233.535156"/>
     </g>
    </g>
   </g>
  </g>
 </g>
 <defs>
  <clipPath id="p85d79d3b28">
   <rect x="121.395781" y="38.17" width="409.959184" height="249.48"/>
  </clipPath>
  <clipPath id="pac6a68eb68">
   <rect x="654.34272" y="38.17" width="409.959184" height="249.48"/>
  </clipPath>
  <clipPath id="p2977693570">
   <rect x="1187.289659" y="38.17" width="409.959184" height="249.48"/>
  </clipPath>
  <clipPath id="pa8358eccda">
   <rect x="1720.236598" y="38.17" width="409.959184" height="249.48"/>
  </clipPath>
 </defs>
</svg>
