<?xml version="1.0" encoding="utf-8" standalone="no"?>
<!DOCTYPE svg PUBLIC "-//W3C//DTD SVG 1.1//EN"
  "http://www.w3.org/Graphics/SVG/1.1/DTD/svg11.dtd">
<svg xmlns:xlink="http://www.w3.org/1999/xlink" width="2639.595781pt" height="361.015312pt" viewBox="0 0 2639.595781 361.015312" xmlns="http://www.w3.org/2000/svg" version="1.1">
 <metadata>
  <rdf:RDF xmlns:dc="http://purl.org/dc/elements/1.1/" xmlns:cc="http://creativecommons.org/ns#" xmlns:rdf="http://www.w3.org/1999/02/22-rdf-syntax-ns#">
   <cc:Work>
    <dc:type rdf:resource="http://purl.org/dc/dcmitype/StillImage"/>
    <dc:date>2026-02-06T14:07:41.469200</dc:date>
    <dc:format>image/svg+xml</dc:format>
    <dc:creator>
     <cc:Agent>
      <dc:title>Matplotlib v3.9.0, https://matplotlib.org/</dc:title>
     </cc:Agent>
    </dc:creator>
   </cc:Work>
  </rdf:RDF>
 </metadata>
 <defs>
  <style type="text/css">*{stroke-linejoin: round; stroke-linecap: butt}</style>
 </defs>
 <g id="figure_1">
  <g id="patch_1">
   <path d="M 0 361.015312 
L 2639.595781 361.015312 
L 2639.595781 0 
L 0 0 
z
" style="fill: #ffffff"/>
  </g>
  <g id="axes_1">
   <g id="patch_2">
    <path d="M 121.395781 287.65 
L 526.395781 287.65 
L 526.395781 38.17 
L 121.395781 38.17 
z
" style="fill: #ffffff"/>
   </g>
   <g id="PolyCollection_1">
    <defs>
     <path id="m07d5a3058d" d="M 121.395781 -198.105312 
L 121.395781 -198.105312 
L 122.070781 -198.105312 
L 122.745781 -198.105312 
L 123.420781 -198.105312 
L 124.095781 -198.105312 
L 124.770781 -198.105312 
L 125.445781 -198.105312 
L 126.120781 -198.105312 
L 126.795781 -198.105312 
L 127.470781 -198.105312 
L 128.145781 -198.105312 
L 128.820781 -198.105312 
L 129.495781 -198.105312 
L 130.170781 -198.105312 
L 130.845781 -198.105312 
L 131.520781 -198.105312 
L 132.195781 -198.105312 
L 132.870781 -198.105312 
L 133.545781 -198.105312 
L 134.220781 -198.105312 
L 134.895781 -198.105312 
L 135.570781 -198.105312 
L 136.245781 -198.105312 
L 136.920781 -198.105312 
L 137.595781 -198.105312 
L 138.270781 -198.105312 
L 138.945781 -198.105312 
L 139.620781 -198.105312 
L 140.295781 -198.105312 
L 140.970781 -198.105312 
L 141.645781 -198.105312 
L 142.320781 -198.105312 
L 142.995781 -198.105312 
L 143.670781 -198.105312 
L 144.345781 -198.105312 
L 145.020781 -198.105312 
L 145.695781 -198.105312 
L 146.370781 -198.105312 
L 147.045781 -198.105312 
L 147.720781 -198.105312 
L 148.395781 -198.105312 
L 149.070781 -198.105312 
L 149.745781 -198.105312 
L 150.420781 -198.105312 
L 151.095781 -198.105312 
L 151.770781 -198.105312 
L 152.445781 -198.105312 
L 153.120781 -198.105312 
L 153.795781 -198.105312 
L 154.470781 -198.105312 
L 155.145781 -198.105312 
L 155.820781 -198.105312 
L 156.495781 -198.105312 
L 157.170781 -198.105312 
L 157.845781 -198.105312 
L 158.520781 -198.105312 
L 159.195781 -198.105312 
L 159.870781 -198.105312 
L 160.545781 -198.105312 
L 161.220781 -198.105312 
L 161.895781 -198.105312 
L 162.570781 -198.105312 
L 163.245781 -198.105312 
L 163.920781 -198.105312 
L 164.595781 -198.105312 
L 165.270781 -198.105312 
L 165.945781 -198.105312 
L 166.620781 -198.105312 
L 167.295781 -198.105312 
L 167.970781 -198.105312 
L 168.645781 -198.105312 
L 169.320781 -198.105312 
L 169.995781 -198.105312 
L 170.670781 -198.105312 
L 171.345781 -198.105312 
L 172.020781 -198.105312 
L 172.695781 -198.105312 
L 173.370781 -198.105312 
L 174.045781 -198.105312 
L 174.720781 -198.105312 
L 175.395781 -198.105312 
L 176.070781 -198.105312 
L 176.745781 -198.105312 
L 177.420781 -198.105312 
L 178.095781 -198.105312 
L 178.770781 -198.105312 
L 179.445781 -198.105312 
L 180.120781 -198.105312 
L 180.795781 -198.105312 
L 181.470781 -198.105312 
L 182.145781 -198.105312 
L 182.820781 -198.105312 
L 183.495781 -198.105312 
L 184.170781 -198.105312 
L 184.845781 -198.105312 
L 185.520781 -198.105312 
L 186.195781 -198.105312 
L 186.870781 -198.105312 
L 187.545781 -198.105312 
L 188.220781 -198.105312 
L 188.895781 -198.105312 
L 189.570781 -198.105312 
L 190.245781 -198.105312 
L 190.920781 -198.105312 
L 191.595781 -198.105312 
L 192.270781 -198.105312 
L 192.945781 -198.105312 
L 193.620781 -198.105312 
L 194.295781 -198.105312 
L 194.970781 -198.105312 
L 195.645781 -198.105312 
L 196.320781 -198.105312 
L 196.995781 -198.105312 
L 197.670781 -198.105312 
L 198.345781 -198.105312 
L 199.020781 -198.105312 
L 199.695781 -198.105312 
L 200.370781 -198.105312 
L 201.045781 -198.105312 
L 201.720781 -198.105312 
L 202.395781 -198.105312 
L 203.070781 -198.105312 
L 203.745781 -198.105312 
L 204.420781 -198.105312 
L 205.095781 -198.105312 
L 205.770781 -198.105312 
L 206.445781 -198.105312 
L 207.120781 -198.105312 
L 207.795781 -198.105312 
L 208.470781 -198.105312 
L 209.145781 -198.105312 
L 209.820781 -198.105312 
L 210.495781 -198.105312 
L 211.170781 -198.105312 
L 211.845781 -198.105312 
L 212.520781 -198.105312 
L 213.195781 -198.105312 
L 213.870781 -198.105312 
L 214.545781 -198.105312 
L 215.220781 -198.105312 
L 215.895781 -198.105312 
L 216.570781 -198.105312 
L 217.245781 -198.105312 
L 217.920781 -198.105312 
L 218.595781 -198.105312 
L 219.270781 -198.105312 
L 219.945781 -198.105312 
L 220.620781 -198.105312 
L 221.295781 -198.105312 
L 221.970781 -198.105312 
L 222.645781 -198.105312 
L 223.320781 -198.105312 
L 223.995781 -198.105312 
L 224.670781 -198.105312 
L 225.345781 -198.105312 
L 226.020781 -198.105312 
L 226.695781 -198.105312 
L 227.370781 -198.105312 
L 228.045781 -198.105312 
L 228.720781 -198.105312 
L 229.395781 -198.105312 
L 230.070781 -198.105312 
L 230.745781 -198.105312 
L 231.420781 -198.105312 
L 232.095781 -198.105312 
L 232.770781 -198.105312 
L 233.445781 -198.105312 
L 234.120781 -198.105312 
L 234.795781 -198.105312 
L 235.470781 -198.105312 
L 236.145781 -198.105312 
L 236.820781 -198.105312 
L 237.495781 -198.105312 
L 238.170781 -198.105312 
L 238.845781 -198.105312 
L 239.520781 -198.105312 
L 240.195781 -198.105312 
L 240.870781 -198.105312 
L 241.545781 -198.105312 
L 242.220781 -198.105312 
L 242.895781 -198.105312 
L 243.570781 -198.105312 
L 244.245781 -198.105312 
L 244.920781 -198.105312 
L 245.595781 -198.105312 
L 246.270781 -198.105312 
L 246.945781 -198.105312 
L 247.620781 -198.105312 
L 248.295781 -198.105312 
L 248.970781 -198.105312 
L 249.645781 -198.105312 
L 250.320781 -198.105312 
L 250.995781 -198.105312 
L 251.670781 -198.105312 
L 252.345781 -198.105312 
L 253.020781 -198.105312 
L 253.695781 -198.105312 
L 254.370781 -198.105312 
L 255.045781 -198.105312 
L 255.720781 -198.105312 
L 256.395781 -198.105312 
L 257.070781 -198.105312 
L 257.745781 -198.105312 
L 258.420781 -198.105312 
L 259.095781 -198.105312 
L 259.770781 -198.105312 
L 260.445781 -198.105312 
L 261.120781 -198.105312 
L 261.795781 -198.105312 
L 262.470781 -198.105312 
L 263.145781 -198.105312 
L 263.820781 -198.105312 
L 264.495781 -198.105312 
L 265.170781 -198.105312 
L 265.845781 -198.105312 
L 266.520781 -198.105312 
L 267.195781 -198.105312 
L 267.870781 -198.105312 
L 268.545781 -198.105312 
L 269.220781 -198.105312 
L 269.895781 -198.105312 
L 270.570781 -198.105312 
L 271.245781 -198.105312 
L 271.920781 -198.105312 
L 272.595781 -198.105312 
L 273.270781 -198.105312 
L 273.945781 -198.105312 
L 274.620781 -198.105312 
L 275.295781 -198.105312 
L 275.970781 -198.105312 
L 276.645781 -198.105312 
L 277.320781 -198.105312 
L 277.995781 -198.105312 
L 278.670781 -198.105312 
L 279.345781 -198.105312 
L 280.020781 -198.105312 
L 280.695781 -198.105312 
L 281.370781 -198.105312 
L 282.045781 -198.105312 
L 282.720781 -198.105312 
L 283.395781 -198.105312 
L 284.070781 -198.105312 
L 284.745781 -198.105312 
L 285.420781 -198.105312 
L 286.095781 -198.105312 
L 286.770781 -198.105312 
L 287.445781 -198.105312 
L 288.120781 -198.105312 
L 288.795781 -198.105312 
L 289.470781 -198.105312 
L 290.145781 -198.105312 
L 290.820781 -198.105312 
L 291.495781 -198.105312 
L 292.170781 -198.105312 
L 292.845781 -198.105312 
L 293.520781 -198.105312 
L 294.195781 -198.105312 
L 294.870781 -198.105312 
L 295.545781 -198.105312 
L 296.220781 -198.105312 
L 296.895781 -198.105312 
L 297.570781 -198.105312 
L 298.245781 -198.105312 
L 298.920781 -198.105312 
L 299.595781 -198.105312 
L 300.270781 -198.105312 
L 300.945781 -198.105312 
L 301.620781 -198.105312 
L 302.295781 -198.105312 
L 302.970781 -198.105312 
L 303.645781 -198.105312 
L 304.320781 -198.105312 
L 304.995781 -198.105312 
L 305.670781 -198.105312 
L 306.345781 -198.105312 
L 307.020781 -198.105312 
L 307.695781 -198.105312 
L 308.370781 -198.105312 
L 309.045781 -198.105312 
L 309.720781 -198.105312 
L 310.395781 -198.105312 
L 311.070781 -198.105312 
L 311.070781 -198.105312 
L 311.070781 -198.105312 
L 310.395781 -202.640013 
L 309.720781 -207.184208 
L 309.045781 -211.740217 
L 308.370781 -216.307171 
L 307.695781 -220.888267 
L 307.020781 -226.94016 
L 306.345781 -234.562775 
L 305.670781 -242.290117 
L 304.995781 -250.154246 
L 304.320781 -258.18321 
L 303.645781 -266.416599 
L 302.970781 -274.922424 
L 302.295781 -283.773549 
L 301.620781 -295.597261 
L 300.945781 -310.130323 
L 300.270781 -314.833549 
L 299.595781 -314.835866 
L 298.920781 -314.835739 
L 298.245781 -314.837474 
L 297.570781 -314.839597 
L 296.895781 -314.840934 
L 296.220781 -314.839149 
L 295.545781 -314.84022 
L 294.870781 -314.839769 
L 294.195781 -314.8406 
L 293.520781 -314.839593 
L 292.845781 -314.840084 
L 292.170781 -314.83913 
L 291.495781 -314.839533 
L 290.820781 -312.015563 
L 290.145781 -307.552657 
L 289.470781 -303.093255 
L 288.795781 -298.623951 
L 288.120781 -294.160648 
L 287.445781 -289.688608 
L 286.770781 -285.21629 
L 286.095781 -280.735901 
L 285.420781 -276.256579 
L 284.745781 -271.767725 
L 284.070781 -267.276664 
L 283.395781 -262.78215 
L 282.720781 -258.278124 
L 282.045781 -253.770304 
L 281.370781 -249.255265 
L 280.695781 -244.730698 
L 280.020781 -240.197253 
L 279.345781 -235.656186 
L 278.670781 -231.102143 
L 277.995781 -226.539345 
L 277.320781 -221.961397 
L 276.645781 -217.372261 
L 275.970781 -212.764931 
L 275.295781 -208.143358 
L 274.620781 -203.500351 
L 273.945781 -198.840025 
L 273.270781 -194.154219 
L 272.595781 -187.361107 
L 271.920781 -179.594014 
L 271.245781 -171.69769 
L 270.570781 -163.649171 
L 269.895781 -155.404623 
L 269.220781 -146.915183 
L 268.545781 -138.108832 
L 267.870781 -128.878972 
L 267.195781 -119.100436 
L 266.520781 -96.231598 
L 265.845781 -94.197569 
L 265.170781 -94.196738 
L 264.495781 -94.194256 
L 263.820781 -94.1955 
L 263.145781 -98.026314 
L 262.470781 -102.540463 
L 261.795781 -107.067511 
L 261.120781 -111.600051 
L 260.445781 -116.142464 
L 259.770781 -120.697066 
L 259.095781 -125.261419 
L 258.420781 -129.843394 
L 257.745781 -134.436546 
L 257.070781 -139.047939 
L 256.395781 -143.676267 
L 255.720781 -151.733232 
L 255.045781 -161.153585 
L 254.370781 -171.144661 
L 253.695781 -182.191129 
L 253.020781 -198.105312 
L 252.345781 -198.105312 
L 251.670781 -198.105312 
L 250.995781 -198.105312 
L 250.320781 -198.105312 
L 249.645781 -198.105312 
L 248.970781 -198.105312 
L 248.295781 -198.105312 
L 247.620781 -198.105312 
L 246.945781 -198.105312 
L 246.270781 -198.105312 
L 245.595781 -198.105312 
L 244.920781 -198.105312 
L 244.245781 -198.105312 
L 243.570781 -198.105312 
L 242.895781 -198.105312 
L 242.220781 -198.105312 
L 241.545781 -198.105312 
L 240.870781 -198.105312 
L 240.195781 -198.105312 
L 239.520781 -198.105312 
L 238.845781 -198.105312 
L 238.170781 -198.105312 
L 237.495781 -198.105312 
L 236.820781 -198.105312 
L 236.145781 -198.105312 
L 235.470781 -198.105312 
L 234.795781 -198.105312 
L 234.120781 -198.105312 
L 233.445781 -198.105312 
L 232.770781 -198.105312 
L 232.095781 -198.105312 
L 231.420781 -198.105312 
L 230.745781 -198.105312 
L 230.070781 -198.105312 
L 229.395781 -198.105312 
L 228.720781 -198.105312 
L 228.045781 -198.105312 
L 227.370781 -198.105312 
L 226.695781 -198.105312 
L 226.020781 -199.619923 
L 225.345781 -203.085638 
L 224.670781 -207.570055 
L 223.995781 -212.061441 
L 223.320781 -216.552265 
L 222.645781 -221.050432 
L 221.970781 -225.557538 
L 221.295781 -230.068219 
L 220.620781 -234.590957 
L 219.945781 -239.116685 
L 219.270781 -244.912344 
L 218.595781 -254.478617 
L 217.920781 -264.373668 
L 217.245781 -274.689883 
L 216.570781 -286.830143 
L 215.895781 -304.745222 
L 215.220781 -314.401046 
L 214.545781 -314.81521 
L 213.870781 -314.82479 
L 213.195781 -314.833659 
L 212.520781 -314.835982 
L 211.845781 -314.839443 
L 211.170781 -314.840659 
L 210.495781 -314.836923 
L 209.820781 -314.839967 
L 209.145781 -314.839963 
L 208.470781 -314.837171 
L 207.795781 -314.8395 
L 207.120781 -314.841377 
L 206.445781 -314.838899 
L 205.770781 -314.841333 
L 205.095781 -314.840508 
L 204.420781 -314.839135 
L 203.745781 -314.838642 
L 203.070781 -314.840125 
L 202.395781 -314.839848 
L 201.720781 -314.840239 
L 201.045781 -314.83969 
L 200.370781 -314.83969 
L 199.695781 -314.839699 
L 199.020781 -314.839751 
L 198.345781 -314.839896 
L 197.670781 -314.839467 
L 196.995781 -314.839401 
L 196.320781 -314.839679 
L 195.645781 -314.839698 
L 194.970781 -314.839246 
L 194.295781 -314.839803 
L 193.620781 -314.839884 
L 192.945781 -314.838876 
L 192.270781 -314.839538 
L 191.595781 -314.840217 
L 190.920781 -314.839552 
L 190.245781 -314.840494 
L 189.570781 -314.839888 
L 188.895781 -314.840672 
L 188.220781 -314.041195 
L 187.545781 -309.599172 
L 186.870781 -305.154171 
L 186.195781 -300.709983 
L 185.520781 -296.268797 
L 184.845781 -291.82235 
L 184.170781 -287.322834 
L 183.495781 -282.93384 
L 182.820781 -278.077014 
L 182.145781 -273.485005 
L 181.470781 -269.560463 
L 180.795781 -265.13771 
L 180.120781 -260.484276 
L 179.445781 -256.072164 
L 178.770781 -251.473148 
L 178.095781 -247.35147 
L 177.420781 -242.875226 
L 176.745781 -238.335525 
L 176.070781 -233.92154 
L 175.395781 -229.774763 
L 174.720781 -225.170595 
L 174.045781 -220.685263 
L 173.370781 -216.387389 
L 172.695781 -211.610901 
L 172.020781 -207.456115 
L 171.345781 -202.969339 
L 170.670781 -198.162657 
L 169.995781 -193.53281 
L 169.320781 -189.55194 
L 168.645781 -184.808458 
L 167.970781 -180.555209 
L 167.295781 -175.280067 
L 166.620781 -171.083187 
L 165.945781 -166.797948 
L 165.270781 -162.217768 
L 164.595781 -157.92806 
L 163.920781 -150.624042 
L 163.245781 -140.73374 
L 162.570781 -130.252799 
L 161.895781 -119.278206 
L 161.220781 -106.301061 
L 160.545781 -84.050425 
L 159.870781 -81.3703 
L 159.195781 -81.370525 
L 158.520781 -81.36988 
L 157.845781 -81.370571 
L 157.170781 -81.370158 
L 156.495781 -81.371008 
L 155.820781 -81.370563 
L 155.145781 -81.37107 
L 154.470781 -81.37068 
L 153.795781 -81.370523 
L 153.120781 -81.370987 
L 152.445781 -81.370928 
L 151.770781 -81.37093 
L 151.095781 -81.370912 
L 150.420781 -81.370959 
L 149.745781 -81.371042 
L 149.070781 -81.370992 
L 148.395781 -81.371045 
L 147.720781 -81.370988 
L 147.045781 -81.370991 
L 146.370781 -81.371118 
L 145.695781 -81.370906 
L 145.020781 -81.371337 
L 144.345781 -81.370933 
L 143.670781 -81.370841 
L 142.995781 -81.371363 
L 142.320781 -85.868513 
L 141.645781 -90.396277 
L 140.970781 -94.929379 
L 140.295781 -99.47472 
L 139.620781 -104.032201 
L 138.945781 -108.600776 
L 138.270781 -113.184086 
L 137.595781 -117.781215 
L 136.920781 -122.396453 
L 136.245781 -127.030256 
L 135.570781 -131.683989 
L 134.895781 -136.360863 
L 134.220781 -141.063099 
L 133.545781 -146.468339 
L 132.870781 -158.305198 
L 132.195781 -173.529428 
L 131.520781 -198.105312 
L 130.845781 -198.105312 
L 130.170781 -198.105312 
L 129.495781 -198.105312 
L 128.820781 -198.105312 
L 128.145781 -198.105312 
L 127.470781 -198.105312 
L 126.795781 -198.105312 
L 126.120781 -198.105312 
L 125.445781 -198.105312 
L 124.770781 -198.105312 
L 124.095781 -198.105312 
L 123.420781 -198.105312 
L 122.745781 -198.105312 
L 122.070781 -198.105312 
L 121.395781 -198.105312 
z
" style="stroke: #0173b2; stroke-opacity: 0.75"/>
    </defs>
    <g clip-path="url(#pea5fd04055)">
     <use xlink:href="#m07d5a3058d" x="0" y="361.015312" style="fill: #0173b2; fill-opacity: 0.75; stroke: #0173b2; stroke-opacity: 0.75"/>
    </g>
   </g>
   <g id="matplotlib.axis_1">
    <g id="xtick_1">
     <g id="line2d_1">
      <defs>
       <path id="m20ceef7767" d="M 0 0 
L 0 3.5 
" style="stroke: #000000; stroke-width: 0.8"/>
      </defs>
      <g>
       <use xlink:href="#m20ceef7767" x="121.395781" y="287.65" style="stroke: #000000; stroke-width: 0.8"/>
      </g>
     </g>
     <g id="text_1">
      <!-- 0 -->
      <g transform="translate(112.806406 315.165781) scale(0.27 -0.27)">
       <defs>
        <path id="DejaVuSans-30" d="M 2034 4250 
Q 1547 4250 1301 3770 
Q 1056 3291 1056 2328 
Q 1056 1369 1301 889 
Q 1547 409 2034 409 
Q 2525 409 2770 889 
Q 3016 1369 3016 2328 
Q 3016 3291 2770 3770 
Q 2525 4250 2034 4250 
z
M 2034 4750 
Q 2819 4750 3233 4129 
Q 3647 3509 3647 2328 
Q 3647 1150 3233 529 
Q 2819 -91 2034 -91 
Q 1250 -91 836 529 
Q 422 1150 422 2328 
Q 422 3509 836 4129 
Q 1250 4750 2034 4750 
z
" transform="scale(0.015625)"/>
       </defs>
       <use xlink:href="#DejaVuSans-30"/>
      </g>
     </g>
    </g>
    <g id="xtick_2">
     <g id="line2d_2">
      <g>
       <use xlink:href="#m20ceef7767" x="205.770781" y="287.65" style="stroke: #000000; stroke-width: 0.8"/>
      </g>
     </g>
     <g id="text_2">
      <!-- 25 -->
      <g transform="translate(188.592031 315.165781) scale(0.27 -0.27)">
       <defs>
        <path id="DejaVuSans-32" d="M 1228 531 
L 3431 531 
L 3431 0 
L 469 0 
L 469 531 
Q 828 903 1448 1529 
Q 2069 2156 2228 2338 
Q 2531 2678 2651 2914 
Q 2772 3150 2772 3378 
Q 2772 3750 2511 3984 
Q 2250 4219 1831 4219 
Q 1534 4219 1204 4116 
Q 875 4013 500 3803 
L 500 4441 
Q 881 4594 1212 4672 
Q 1544 4750 1819 4750 
Q 2544 4750 2975 4387 
Q 3406 4025 3406 3419 
Q 3406 3131 3298 2873 
Q 3191 2616 2906 2266 
Q 2828 2175 2409 1742 
Q 1991 1309 1228 531 
z
" transform="scale(0.015625)"/>
        <path id="DejaVuSans-35" d="M 691 4666 
L 3169 4666 
L 3169 4134 
L 1269 4134 
L 1269 2991 
Q 1406 3038 1543 3061 
Q 1681 3084 1819 3084 
Q 2600 3084 3056 2656 
Q 3513 2228 3513 1497 
Q 3513 744 3044 326 
Q 2575 -91 1722 -91 
Q 1428 -91 1123 -41 
Q 819 9 494 109 
L 494 744 
Q 775 591 1075 516 
Q 1375 441 1709 441 
Q 2250 441 2565 725 
Q 2881 1009 2881 1497 
Q 2881 1984 2565 2268 
Q 2250 2553 1709 2553 
Q 1456 2553 1204 2497 
Q 953 2441 691 2322 
L 691 4666 
z
" transform="scale(0.015625)"/>
       </defs>
       <use xlink:href="#DejaVuSans-32"/>
       <use xlink:href="#DejaVuSans-35" x="63.623047"/>
      </g>
     </g>
    </g>
    <g id="xtick_3">
     <g id="line2d_3">
      <g>
       <use xlink:href="#m20ceef7767" x="290.145781" y="287.65" style="stroke: #000000; stroke-width: 0.8"/>
      </g>
     </g>
     <g id="text_3">
      <!-- 50 -->
      <g transform="translate(272.967031 315.165781) scale(0.27 -0.27)">
       <use xlink:href="#DejaVuSans-35"/>
       <use xlink:href="#DejaVuSans-30" x="63.623047"/>
      </g>
     </g>
    </g>
    <g id="xtick_4">
     <g id="line2d_4">
      <g>
       <use xlink:href="#m20ceef7767" x="374.520781" y="287.65" style="stroke: #000000; stroke-width: 0.8"/>
      </g>
     </g>
     <g id="text_4">
      <!-- 75 -->
      <g transform="translate(357.342031 315.165781) scale(0.27 -0.27)">
       <defs>
        <path id="DejaVuSans-37" d="M 525 4666 
L 3525 4666 
L 3525 4397 
L 1831 0 
L 1172 0 
L 2766 4134 
L 525 4134 
L 525 4666 
z
" transform="scale(0.015625)"/>
       </defs>
       <use xlink:href="#DejaVuSans-37"/>
       <use xlink:href="#DejaVuSans-35" x="63.623047"/>
      </g>
     </g>
    </g>
    <g id="xtick_5">
     <g id="line2d_5">
      <g>
       <use xlink:href="#m20ceef7767" x="458.895781" y="287.65" style="stroke: #000000; stroke-width: 0.8"/>
      </g>
     </g>
     <g id="text_5">
      <!-- 100 -->
      <g transform="translate(433.127656 315.165781) scale(0.27 -0.27)">
       <defs>
        <path id="DejaVuSans-31" d="M 794 531 
L 1825 531 
L 1825 4091 
L 703 3866 
L 703 4441 
L 1819 4666 
L 2450 4666 
L 2450 531 
L 3481 531 
L 3481 0 
L 794 0 
L 794 531 
z
" transform="scale(0.015625)"/>
       </defs>
       <use xlink:href="#DejaVuSans-31"/>
       <use xlink:href="#DejaVuSans-30" x="63.623047"/>
       <use xlink:href="#DejaVuSans-30" x="127.246094"/>
      </g>
     </g>
    </g>
    <g id="text_6">
     <!-- Time [ms] -->
     <g transform="translate(248.298125 347.57625) scale(0.3 -0.3)">
      <defs>
       <path id="DejaVuSans-54" d="M -19 4666 
L 3928 4666 
L 3928 4134 
L 2272 4134 
L 2272 0 
L 1638 0 
L 1638 4134 
L -19 4134 
L -19 4666 
z
" transform="scale(0.015625)"/>
       <path id="DejaVuSans-69" d="M 603 3500 
L 1178 3500 
L 1178 0 
L 603 0 
L 603 3500 
z
M 603 4863 
L 1178 4863 
L 1178 4134 
L 603 4134 
L 603 4863 
z
" transform="scale(0.015625)"/>
       <path id="DejaVuSans-6d" d="M 3328 2828 
Q 3544 3216 3844 3400 
Q 4144 3584 4550 3584 
Q 5097 3584 5394 3201 
Q 5691 2819 5691 2113 
L 5691 0 
L 5113 0 
L 5113 2094 
Q 5113 2597 4934 2840 
Q 4756 3084 4391 3084 
Q 3944 3084 3684 2787 
Q 3425 2491 3425 1978 
L 3425 0 
L 2847 0 
L 2847 2094 
Q 2847 2600 2669 2842 
Q 2491 3084 2119 3084 
Q 1678 3084 1418 2786 
Q 1159 2488 1159 1978 
L 1159 0 
L 581 0 
L 581 3500 
L 1159 3500 
L 1159 2956 
Q 1356 3278 1631 3431 
Q 1906 3584 2284 3584 
Q 2666 3584 2933 3390 
Q 3200 3197 3328 2828 
z
" transform="scale(0.015625)"/>
       <path id="DejaVuSans-65" d="M 3597 1894 
L 3597 1613 
L 953 1613 
Q 991 1019 1311 708 
Q 1631 397 2203 397 
Q 2534 397 2845 478 
Q 3156 559 3463 722 
L 3463 178 
Q 3153 47 2828 -22 
Q 2503 -91 2169 -91 
Q 1331 -91 842 396 
Q 353 884 353 1716 
Q 353 2575 817 3079 
Q 1281 3584 2069 3584 
Q 2775 3584 3186 3129 
Q 3597 2675 3597 1894 
z
M 3022 2063 
Q 3016 2534 2758 2815 
Q 2500 3097 2075 3097 
Q 1594 3097 1305 2825 
Q 1016 2553 972 2059 
L 3022 2063 
z
" transform="scale(0.015625)"/>
       <path id="DejaVuSans-20" transform="scale(0.015625)"/>
       <path id="DejaVuSans-5b" d="M 550 4863 
L 1875 4863 
L 1875 4416 
L 1125 4416 
L 1125 -397 
L 1875 -397 
L 1875 -844 
L 550 -844 
L 550 4863 
z
" transform="scale(0.015625)"/>
       <path id="DejaVuSans-73" d="M 2834 3397 
L 2834 2853 
Q 2591 2978 2328 3040 
Q 2066 3103 1784 3103 
Q 1356 3103 1142 2972 
Q 928 2841 928 2578 
Q 928 2378 1081 2264 
Q 1234 2150 1697 2047 
L 1894 2003 
Q 2506 1872 2764 1633 
Q 3022 1394 3022 966 
Q 3022 478 2636 193 
Q 2250 -91 1575 -91 
Q 1294 -91 989 -36 
Q 684 19 347 128 
L 347 722 
Q 666 556 975 473 
Q 1284 391 1588 391 
Q 1994 391 2212 530 
Q 2431 669 2431 922 
Q 2431 1156 2273 1281 
Q 2116 1406 1581 1522 
L 1381 1569 
Q 847 1681 609 1914 
Q 372 2147 372 2553 
Q 372 3047 722 3315 
Q 1072 3584 1716 3584 
Q 2034 3584 2315 3537 
Q 2597 3491 2834 3397 
z
" transform="scale(0.015625)"/>
       <path id="DejaVuSans-5d" d="M 1947 4863 
L 1947 -844 
L 622 -844 
L 622 -397 
L 1369 -397 
L 1369 4416 
L 622 4416 
L 622 4863 
L 1947 4863 
z
" transform="scale(0.015625)"/>
      </defs>
      <use xlink:href="#DejaVuSans-54"/>
      <use xlink:href="#DejaVuSans-69" x="57.958984"/>
      <use xlink:href="#DejaVuSans-6d" x="85.742188"/>
      <use xlink:href="#DejaVuSans-65" x="183.154297"/>
      <use xlink:href="#DejaVuSans-20" x="244.677734"/>
      <use xlink:href="#DejaVuSans-5b" x="276.464844"/>
      <use xlink:href="#DejaVuSans-6d" x="315.478516"/>
      <use xlink:href="#DejaVuSans-73" x="412.890625"/>
      <use xlink:href="#DejaVuSans-5d" x="464.990234"/>
     </g>
    </g>
   </g>
   <g id="matplotlib.axis_2">
    <g id="ytick_1">
     <g id="line2d_6">
      <defs>
       <path id="m6bf22b9011" d="M 0 0 
L -3.5 0 
" style="stroke: #000000; stroke-width: 0.8"/>
      </defs>
      <g>
       <use xlink:href="#m6bf22b9011" x="121.395781" y="287.029403" style="stroke: #000000; stroke-width: 0.8"/>
      </g>
     </g>
     <g id="text_7">
      <!-- −200 -->
      <g transform="translate(40.234375 297.287294) scale(0.27 -0.27)">
       <defs>
        <path id="DejaVuSans-2212" d="M 678 2272 
L 4684 2272 
L 4684 1741 
L 678 1741 
L 678 2272 
z
" transform="scale(0.015625)"/>
       </defs>
       <use xlink:href="#DejaVuSans-2212"/>
       <use xlink:href="#DejaVuSans-32" x="83.789062"/>
       <use xlink:href="#DejaVuSans-30" x="147.412109"/>
       <use xlink:href="#DejaVuSans-30" x="211.035156"/>
      </g>
     </g>
    </g>
    <g id="ytick_2">
     <g id="line2d_7">
      <g>
       <use xlink:href="#m6bf22b9011" x="121.395781" y="224.969701" style="stroke: #000000; stroke-width: 0.8"/>
      </g>
     </g>
     <g id="text_8">
      <!-- −100 -->
      <g transform="translate(40.234375 235.227592) scale(0.27 -0.27)">
       <use xlink:href="#DejaVuSans-2212"/>
       <use xlink:href="#DejaVuSans-31" x="83.789062"/>
       <use xlink:href="#DejaVuSans-30" x="147.412109"/>
       <use xlink:href="#DejaVuSans-30" x="211.035156"/>
      </g>
     </g>
    </g>
    <g id="ytick_3">
     <g id="line2d_8">
      <g>
       <use xlink:href="#m6bf22b9011" x="121.395781" y="162.91" style="stroke: #000000; stroke-width: 0.8"/>
      </g>
     </g>
     <g id="text_9">
      <!-- 0 -->
      <g transform="translate(97.217031 173.167891) scale(0.27 -0.27)">
       <use xlink:href="#DejaVuSans-30"/>
      </g>
     </g>
    </g>
    <g id="ytick_4">
     <g id="line2d_9">
      <g>
       <use xlink:href="#m6bf22b9011" x="121.395781" y="100.850299" style="stroke: #000000; stroke-width: 0.8"/>
      </g>
     </g>
     <g id="text_10">
      <!-- 100 -->
      <g transform="translate(62.859531 111.108189) scale(0.27 -0.27)">
       <use xlink:href="#DejaVuSans-31"/>
       <use xlink:href="#DejaVuSans-30" x="63.623047"/>
       <use xlink:href="#DejaVuSans-30" x="127.246094"/>
      </g>
     </g>
    </g>
    <g id="ytick_5">
     <g id="line2d_10">
      <g>
       <use xlink:href="#m6bf22b9011" x="121.395781" y="38.790597" style="stroke: #000000; stroke-width: 0.8"/>
      </g>
     </g>
     <g id="text_11">
      <!-- 200 -->
      <g transform="translate(62.859531 49.048488) scale(0.27 -0.27)">
       <use xlink:href="#DejaVuSans-32"/>
       <use xlink:href="#DejaVuSans-30" x="63.623047"/>
       <use xlink:href="#DejaVuSans-30" x="127.246094"/>
      </g>
     </g>
    </g>
    <g id="text_12">
     <!-- mT/m -->
     <g transform="translate(29.995313 206.346719) rotate(-90) scale(0.3 -0.3)">
      <defs>
       <path id="DejaVuSans-2f" d="M 1625 4666 
L 2156 4666 
L 531 -594 
L 0 -594 
L 1625 4666 
z
" transform="scale(0.015625)"/>
      </defs>
      <use xlink:href="#DejaVuSans-6d"/>
      <use xlink:href="#DejaVuSans-54" x="97.412109"/>
      <use xlink:href="#DejaVuSans-2f" x="158.496094"/>
      <use xlink:href="#DejaVuSans-6d" x="192.1875"/>
     </g>
    </g>
   </g>
   <g id="line2d_11">
    <path d="M 121.395781 162.91 
L 526.395781 162.91 
" clip-path="url(#pea5fd04055)" style="fill: none; stroke: #d3d3d3; stroke-opacity: 0.8; stroke-width: 1.5; stroke-linecap: square"/>
   </g>
   <g id="line2d_12">
    <path d="M 121.395781 162.91 
L 131.520781 162.91 
L 132.195781 187.485884 
L 132.870781 202.710115 
L 133.545781 214.546974 
L 134.895781 224.654449 
L 140.970781 266.085933 
L 142.995781 279.64395 
L 159.870781 279.645012 
L 160.545781 276.964888 
L 161.220781 254.714252 
L 162.570781 230.762514 
L 163.920781 210.39127 
L 164.595781 203.087252 
L 167.295781 185.735246 
L 167.970781 180.460103 
L 170.670781 162.852656 
L 172.020781 153.559198 
L 173.370781 144.627924 
L 177.420781 118.140087 
L 188.220781 46.974117 
L 188.895781 46.174641 
L 214.545781 46.200103 
L 215.220781 46.614267 
L 215.895781 56.270091 
L 216.570781 74.18517 
L 217.920781 96.641645 
L 219.270781 116.102968 
L 219.945781 121.898627 
L 225.345781 157.929674 
L 226.020781 161.39539 
L 226.695781 162.91 
L 253.020781 162.91 
L 253.695781 178.824183 
L 255.045781 199.861727 
L 256.395781 217.339045 
L 263.145781 262.988998 
L 263.820781 266.819813 
L 265.845781 266.817743 
L 266.520781 264.783715 
L 267.195781 241.914877 
L 269.220781 214.10013 
L 271.920781 181.421299 
L 273.270781 166.861093 
L 279.345781 125.359126 
L 289.470781 57.922058 
L 290.820781 48.999749 
L 291.495781 46.17578 
L 300.270781 46.181764 
L 300.945781 50.884989 
L 301.620781 65.418052 
L 302.295781 77.241763 
L 304.320781 102.832102 
L 307.020781 134.075152 
L 307.695781 140.127045 
L 311.070781 162.91 
L 311.070781 162.91 
" clip-path="url(#pea5fd04055)" style="fill: none; stroke: #000000; stroke-width: 5; stroke-linecap: square"/>
   </g>
   <g id="line2d_13">
    <path d="M 311.070781 162.91 
L 312.994531 162.91 
L 313.770781 184.261831 
L 313.804531 183.33349 
L 315.424531 141.558169 
L 316.099531 141.558169 
L 317.753281 184.261831 
L 318.428281 184.261831 
L 320.082031 141.558169 
L 320.757031 141.558169 
L 322.410781 184.261831 
L 323.085781 184.261831 
L 324.739531 141.558169 
L 325.414531 141.558169 
L 327.068281 184.261831 
L 327.743281 184.261831 
L 329.397031 141.558169 
L 330.072031 141.558169 
L 331.725781 184.261831 
L 332.400781 184.261831 
L 334.054531 141.558169 
L 334.729531 141.558169 
L 336.383281 184.261831 
L 337.058281 184.261831 
L 338.712031 141.558169 
L 339.387031 141.558169 
L 341.040781 184.261831 
L 341.715781 184.261831 
L 343.369531 141.558169 
L 344.044531 141.558169 
L 345.698281 184.261831 
L 346.373281 184.261831 
L 348.027031 141.558169 
L 348.702031 141.558169 
L 350.355781 184.261831 
L 351.030781 184.261831 
L 352.684531 141.558169 
L 353.359531 141.558169 
L 355.013281 184.261831 
L 355.688281 184.261831 
L 357.342031 141.558169 
L 358.017031 141.558169 
L 359.670781 184.261831 
L 360.345781 184.261831 
L 361.999531 141.558169 
L 362.674531 141.558169 
L 364.328281 184.261831 
L 365.003281 184.261831 
L 366.657031 141.558169 
L 367.332031 141.558169 
L 368.985781 184.261831 
L 369.660781 184.261831 
L 371.314531 141.558169 
L 371.989531 141.558169 
L 373.643281 184.261831 
L 374.318281 184.261831 
L 375.972031 141.558169 
L 376.647031 141.558169 
L 378.300781 184.261831 
L 378.975781 184.261831 
L 380.629531 141.558169 
L 381.304531 141.558169 
L 382.958281 184.261831 
L 383.633281 184.261831 
L 385.287031 141.558169 
L 385.962031 141.558169 
L 387.615781 184.261831 
L 388.290781 184.261831 
L 389.944531 141.558169 
L 390.619531 141.558169 
L 392.273281 184.261831 
L 392.948281 184.261831 
L 394.602031 141.558169 
L 395.277031 141.558169 
L 396.930781 184.261831 
L 397.605781 184.261831 
L 399.259531 141.558169 
L 399.934531 141.558169 
L 401.588281 184.261831 
L 402.263281 184.261831 
L 403.917031 141.558169 
L 404.592031 141.558169 
L 406.245781 184.261831 
L 406.920781 184.261831 
L 408.574531 141.558169 
L 409.249531 141.558169 
L 410.903281 184.261831 
L 411.578281 184.261831 
L 413.232031 141.558169 
L 413.907031 141.558169 
L 415.560781 184.261831 
L 416.235781 184.261831 
L 417.889531 141.558169 
L 418.564531 141.558169 
L 420.218281 184.261831 
L 420.893281 184.261831 
L 422.547031 141.558169 
L 423.222031 141.558169 
L 424.875781 184.261831 
L 425.550781 184.261831 
L 427.204531 141.558169 
L 427.879531 141.558169 
L 429.533281 184.261831 
L 430.208281 184.261831 
L 431.862031 141.558169 
L 432.537031 141.558169 
L 434.190781 184.261831 
L 434.865781 184.261831 
L 436.519531 141.558169 
L 437.194531 141.558169 
L 438.848281 184.261831 
L 439.523281 184.261831 
L 441.177031 141.558169 
L 441.852031 141.558169 
L 442.662031 162.91 
L 442.662031 162.91 
" clip-path="url(#pea5fd04055)" style="fill: none; stroke: #000000; stroke-opacity: 0.7; stroke-width: 5; stroke-linecap: square"/>
   </g>
   <g id="line2d_14">
    <path d="M 357.625531 287.65 
L 357.625531 38.17 
" clip-path="url(#pea5fd04055)" style="fill: none; stroke-dasharray: 18.5,8; stroke-dashoffset: 0; stroke: #000000; stroke-width: 5"/>
   </g>
   <g id="line2d_15">
    <path d="M 121.395781 38.790597 
L 526.395781 38.790597 
" clip-path="url(#pea5fd04055)" style="fill: none; stroke-dasharray: 18.5,8; stroke-dashoffset: 0; stroke: #000000; stroke-opacity: 0.2; stroke-width: 5"/>
   </g>
   <g id="line2d_16">
    <path d="M 121.395781 287.029403 
L 526.395781 287.029403 
" clip-path="url(#pea5fd04055)" style="fill: none; stroke-dasharray: 18.5,8; stroke-dashoffset: 0; stroke: #000000; stroke-opacity: 0.2; stroke-width: 5"/>
   </g>
   <g id="line2d_17">
    <path d="M 121.395781 162.91 
L 526.395781 162.91 
" clip-path="url(#pea5fd04055)" style="fill: none; stroke: #000000; stroke-width: 5; stroke-linecap: square"/>
   </g>
   <g id="patch_3">
    <path d="M 121.395781 287.65 
L 121.395781 38.17 
" style="fill: none; stroke: #000000; stroke-width: 0.8; stroke-linejoin: miter; stroke-linecap: square"/>
   </g>
   <g id="patch_4">
    <path d="M 121.395781 287.65 
L 526.395781 287.65 
" style="fill: none; stroke: #000000; stroke-width: 0.8; stroke-linejoin: miter; stroke-linecap: square"/>
   </g>
   <g id="text_13">
    <!-- $G(t)$ -->
    <g transform="translate(292.695781 31.515) scale(0.32 -0.32)">
     <defs>
      <path id="DejaVuSans-Oblique-47" d="M 3494 697 
L 3738 1919 
L 2700 1919 
L 2797 2438 
L 4453 2438 
L 4050 384 
Q 3634 156 3143 32 
Q 2653 -91 2156 -91 
Q 1278 -91 783 396 
Q 288 884 288 1753 
Q 288 2475 589 3126 
Q 891 3778 1422 4213 
Q 1756 4484 2153 4617 
Q 2550 4750 3034 4750 
Q 3472 4750 3873 4639 
Q 4275 4528 4641 4306 
L 4513 3634 
Q 4231 3928 3853 4083 
Q 3475 4238 3047 4238 
Q 2550 4238 2172 4048 
Q 1794 3859 1497 3463 
Q 1244 3125 1098 2667 
Q 953 2209 953 1734 
Q 953 1081 1287 751 
Q 1622 422 2284 422 
Q 2616 422 2925 492 
Q 3234 563 3494 697 
z
" transform="scale(0.015625)"/>
      <path id="DejaVuSans-28" d="M 1984 4856 
Q 1566 4138 1362 3434 
Q 1159 2731 1159 2009 
Q 1159 1288 1364 580 
Q 1569 -128 1984 -844 
L 1484 -844 
Q 1016 -109 783 600 
Q 550 1309 550 2009 
Q 550 2706 781 3412 
Q 1013 4119 1484 4856 
L 1984 4856 
z
" transform="scale(0.015625)"/>
      <path id="DejaVuSans-Oblique-74" d="M 2706 3500 
L 2619 3053 
L 1472 3053 
L 1100 1153 
Q 1081 1047 1072 975 
Q 1063 903 1063 863 
Q 1063 663 1183 572 
Q 1303 481 1569 481 
L 2150 481 
L 2053 0 
L 1503 0 
Q 991 0 739 200 
Q 488 400 488 806 
Q 488 878 497 964 
Q 506 1050 525 1153 
L 897 3053 
L 409 3053 
L 500 3500 
L 978 3500 
L 1172 4494 
L 1747 4494 
L 1556 3500 
L 2706 3500 
z
" transform="scale(0.015625)"/>
      <path id="DejaVuSans-29" d="M 513 4856 
L 1013 4856 
Q 1481 4119 1714 3412 
Q 1947 2706 1947 2009 
Q 1947 1309 1714 600 
Q 1481 -109 1013 -844 
L 513 -844 
Q 928 -128 1133 580 
Q 1338 1288 1338 2009 
Q 1338 2731 1133 3434 
Q 928 4138 513 4856 
z
" transform="scale(0.015625)"/>
     </defs>
     <use xlink:href="#DejaVuSans-Oblique-47" transform="translate(0 0.125)"/>
     <use xlink:href="#DejaVuSans-28" transform="translate(77.490234 0.125)"/>
     <use xlink:href="#DejaVuSans-Oblique-74" transform="translate(116.503906 0.125)"/>
     <use xlink:href="#DejaVuSans-29" transform="translate(155.712891 0.125)"/>
    </g>
   </g>
   <g id="legend_1">
    <g id="patch_5">
     <path d="M 502.195781 66.77 
L 510.995781 66.77 
Q 515.395781 66.77 515.395781 62.37 
L 515.395781 53.57 
Q 515.395781 49.17 510.995781 49.17 
L 502.195781 49.17 
Q 497.795781 49.17 497.795781 53.57 
L 497.795781 62.37 
Q 497.795781 66.77 502.195781 66.77 
z
" style="fill: #ffffff; opacity: 0.8; stroke: #cccccc; stroke-linejoin: miter"/>
    </g>
   </g>
  </g>
  <g id="axes_2">
   <g id="patch_6">
    <path d="M 647.895781 287.65 
L 1052.895781 287.65 
L 1052.895781 38.17 
L 647.895781 38.17 
z
" style="fill: #ffffff"/>
   </g>
   <g id="matplotlib.axis_3">
    <g id="xtick_6">
     <g id="line2d_18">
      <g>
       <use xlink:href="#m20ceef7767" x="647.895781" y="287.65" style="stroke: #000000; stroke-width: 0.8"/>
      </g>
     </g>
     <g id="text_14">
      <!-- 0 -->
      <g transform="translate(639.306406 315.165781) scale(0.27 -0.27)">
       <use xlink:href="#DejaVuSans-30"/>
      </g>
     </g>
    </g>
    <g id="xtick_7">
     <g id="line2d_19">
      <g>
       <use xlink:href="#m20ceef7767" x="732.270781" y="287.65" style="stroke: #000000; stroke-width: 0.8"/>
      </g>
     </g>
     <g id="text_15">
      <!-- 25 -->
      <g transform="translate(715.092031 315.165781) scale(0.27 -0.27)">
       <use xlink:href="#DejaVuSans-32"/>
       <use xlink:href="#DejaVuSans-35" x="63.623047"/>
      </g>
     </g>
    </g>
    <g id="xtick_8">
     <g id="line2d_20">
      <g>
       <use xlink:href="#m20ceef7767" x="816.645781" y="287.65" style="stroke: #000000; stroke-width: 0.8"/>
      </g>
     </g>
     <g id="text_16">
      <!-- 50 -->
      <g transform="translate(799.467031 315.165781) scale(0.27 -0.27)">
       <use xlink:href="#DejaVuSans-35"/>
       <use xlink:href="#DejaVuSans-30" x="63.623047"/>
      </g>
     </g>
    </g>
    <g id="xtick_9">
     <g id="line2d_21">
      <g>
       <use xlink:href="#m20ceef7767" x="901.020781" y="287.65" style="stroke: #000000; stroke-width: 0.8"/>
      </g>
     </g>
     <g id="text_17">
      <!-- 75 -->
      <g transform="translate(883.842031 315.165781) scale(0.27 -0.27)">
       <use xlink:href="#DejaVuSans-37"/>
       <use xlink:href="#DejaVuSans-35" x="63.623047"/>
      </g>
     </g>
    </g>
    <g id="xtick_10">
     <g id="line2d_22">
      <g>
       <use xlink:href="#m20ceef7767" x="985.395781" y="287.65" style="stroke: #000000; stroke-width: 0.8"/>
      </g>
     </g>
     <g id="text_18">
      <!-- 100 -->
      <g transform="translate(959.627656 315.165781) scale(0.27 -0.27)">
       <use xlink:href="#DejaVuSans-31"/>
       <use xlink:href="#DejaVuSans-30" x="63.623047"/>
       <use xlink:href="#DejaVuSans-30" x="127.246094"/>
      </g>
     </g>
    </g>
    <g id="text_19">
     <!-- Time [ms] -->
     <g transform="translate(774.798125 347.57625) scale(0.3 -0.3)">
      <use xlink:href="#DejaVuSans-54"/>
      <use xlink:href="#DejaVuSans-69" x="57.958984"/>
      <use xlink:href="#DejaVuSans-6d" x="85.742188"/>
      <use xlink:href="#DejaVuSans-65" x="183.154297"/>
      <use xlink:href="#DejaVuSans-20" x="244.677734"/>
      <use xlink:href="#DejaVuSans-5b" x="276.464844"/>
      <use xlink:href="#DejaVuSans-6d" x="315.478516"/>
      <use xlink:href="#DejaVuSans-73" x="412.890625"/>
      <use xlink:href="#DejaVuSans-5d" x="464.990234"/>
     </g>
    </g>
   </g>
   <g id="matplotlib.axis_4">
    <g id="ytick_6">
     <g id="line2d_23">
      <g>
       <use xlink:href="#m6bf22b9011" x="647.895781" y="287.029403" style="stroke: #000000; stroke-width: 0.8"/>
      </g>
     </g>
     <g id="text_20">
      <!-- −200 -->
      <g transform="translate(566.734375 297.287294) scale(0.27 -0.27)">
       <use xlink:href="#DejaVuSans-2212"/>
       <use xlink:href="#DejaVuSans-32" x="83.789062"/>
       <use xlink:href="#DejaVuSans-30" x="147.412109"/>
       <use xlink:href="#DejaVuSans-30" x="211.035156"/>
      </g>
     </g>
    </g>
    <g id="ytick_7">
     <g id="line2d_24">
      <g>
       <use xlink:href="#m6bf22b9011" x="647.895781" y="224.969701" style="stroke: #000000; stroke-width: 0.8"/>
      </g>
     </g>
     <g id="text_21">
      <!-- −100 -->
      <g transform="translate(566.734375 235.227592) scale(0.27 -0.27)">
       <use xlink:href="#DejaVuSans-2212"/>
       <use xlink:href="#DejaVuSans-31" x="83.789062"/>
       <use xlink:href="#DejaVuSans-30" x="147.412109"/>
       <use xlink:href="#DejaVuSans-30" x="211.035156"/>
      </g>
     </g>
    </g>
    <g id="ytick_8">
     <g id="line2d_25">
      <g>
       <use xlink:href="#m6bf22b9011" x="647.895781" y="162.91" style="stroke: #000000; stroke-width: 0.8"/>
      </g>
     </g>
     <g id="text_22">
      <!-- 0 -->
      <g transform="translate(623.717031 173.167891) scale(0.27 -0.27)">
       <use xlink:href="#DejaVuSans-30"/>
      </g>
     </g>
    </g>
    <g id="ytick_9">
     <g id="line2d_26">
      <g>
       <use xlink:href="#m6bf22b9011" x="647.895781" y="100.850299" style="stroke: #000000; stroke-width: 0.8"/>
      </g>
     </g>
     <g id="text_23">
      <!-- 100 -->
      <g transform="translate(589.359531 111.108189) scale(0.27 -0.27)">
       <use xlink:href="#DejaVuSans-31"/>
       <use xlink:href="#DejaVuSans-30" x="63.623047"/>
       <use xlink:href="#DejaVuSans-30" x="127.246094"/>
      </g>
     </g>
    </g>
    <g id="ytick_10">
     <g id="line2d_27">
      <g>
       <use xlink:href="#m6bf22b9011" x="647.895781" y="38.790597" style="stroke: #000000; stroke-width: 0.8"/>
      </g>
     </g>
     <g id="text_24">
      <!-- 200 -->
      <g transform="translate(589.359531 49.048488) scale(0.27 -0.27)">
       <use xlink:href="#DejaVuSans-32"/>
       <use xlink:href="#DejaVuSans-30" x="63.623047"/>
       <use xlink:href="#DejaVuSans-30" x="127.246094"/>
      </g>
     </g>
    </g>
    <g id="text_25">
     <!-- T/m/s -->
     <g transform="translate(556.495312 204.602969) rotate(-90) scale(0.3 -0.3)">
      <use xlink:href="#DejaVuSans-54"/>
      <use xlink:href="#DejaVuSans-2f" x="61.083984"/>
      <use xlink:href="#DejaVuSans-6d" x="94.775391"/>
      <use xlink:href="#DejaVuSans-2f" x="192.1875"/>
      <use xlink:href="#DejaVuSans-73" x="225.878906"/>
     </g>
    </g>
   </g>
   <g id="line2d_28">
    <path d="M 647.895781 162.91 
L 1052.895781 162.91 
" clip-path="url(#p893612059b)" style="fill: none; stroke: #d3d3d3; stroke-opacity: 0.8; stroke-width: 1.5; stroke-linecap: square"/>
   </g>
   <g id="line2d_29">
    <path d="M 647.895781 162.91 
L 657.345781 162.91 
L 658.020781 285.789422 
L 658.695781 239.031151 
L 659.370781 222.094295 
L 660.045781 189.936201 
L 660.720781 186.421177 
L 664.095781 185.895647 
L 668.820781 185.395752 
L 669.495781 162.912611 
L 685.695781 162.911123 
L 686.370781 149.509379 
L 687.045781 51.656819 
L 687.720781 98.024275 
L 688.395781 108.037036 
L 689.070781 110.505292 
L 689.745781 113.458491 
L 690.420781 126.38991 
L 691.095781 141.46146 
L 691.770781 140.009102 
L 692.445781 141.483805 
L 693.120781 141.9256 
L 693.795781 136.534287 
L 694.470781 141.643756 
L 695.145781 139.192589 
L 695.820781 143.005652 
L 696.495781 139.760767 
L 697.170781 138.876586 
L 698.520781 142.13607 
L 699.195781 139.02756 
L 699.870781 141.420629 
L 700.545781 140.483343 
L 701.220781 139.889156 
L 701.895781 142.176116 
L 702.570781 140.840077 
L 703.245781 140.211494 
L 703.920781 140.528781 
L 704.595781 142.301606 
L 705.270781 139.914921 
L 705.945781 140.849443 
L 706.620781 139.642826 
L 707.295781 140.796237 
L 707.970781 143.287289 
L 708.645781 139.949957 
L 709.320781 138.625868 
L 709.995781 140.965032 
L 710.670781 140.41242 
L 711.345781 140.677762 
L 714.045781 140.699887 
L 714.720781 158.912616 
L 715.395781 162.913917 
L 726.195781 162.910047 
L 740.370781 162.957903 
L 741.045781 164.98082 
L 742.395781 252.485396 
L 743.070781 223.611296 
L 743.745781 214.491077 
L 744.420781 212.385254 
L 745.095781 210.741364 
L 745.770781 191.888294 
L 746.445781 185.538641 
L 751.170781 185.332081 
L 751.845781 180.238579 
L 752.520781 170.483051 
L 753.195781 162.91 
L 778.845781 162.91 
L 779.520781 242.480915 
L 780.195781 218.14234 
L 780.870781 212.865381 
L 781.545781 210.011763 
L 782.220781 203.194826 
L 782.895781 186.05164 
L 786.945781 185.622063 
L 788.970781 185.480742 
L 789.645781 182.064071 
L 790.320781 162.916218 
L 791.670781 162.905844 
L 792.345781 152.739859 
L 793.020781 48.56581 
L 793.695781 114.01732 
L 794.370781 116.760699 
L 795.045781 118.878246 
L 795.720781 120.462798 
L 796.395781 121.687258 
L 797.070781 122.667408 
L 798.420781 124.074535 
L 799.095781 128.944437 
L 799.770781 139.480972 
L 801.795781 139.802136 
L 807.870781 140.334808 
L 814.620781 140.593485 
L 816.645781 140.595467 
L 817.320781 148.790151 
L 817.995781 162.912012 
L 826.095781 162.921587 
L 826.770781 186.426128 
L 827.445781 235.575313 
L 828.795781 207.165626 
L 829.470781 205.439125 
L 830.145781 204.076945 
L 831.495781 202.230641 
L 832.170781 201.546712 
L 832.845781 201.023074 
L 834.195781 185.815482 
L 836.895781 185.583501 
L 836.895781 185.583501 
" clip-path="url(#p893612059b)" style="fill: none; stroke: #000000; stroke-width: 5; stroke-linecap: square"/>
   </g>
   <g id="line2d_30">
    <path d="M 647.895781 38.790597 
L 1052.895781 38.790597 
" clip-path="url(#p893612059b)" style="fill: none; stroke-dasharray: 18.5,8; stroke-dashoffset: 0; stroke: #000000; stroke-opacity: 0.2; stroke-width: 5"/>
   </g>
   <g id="line2d_31">
    <path d="M 647.895781 287.029403 
L 1052.895781 287.029403 
" clip-path="url(#p893612059b)" style="fill: none; stroke-dasharray: 18.5,8; stroke-dashoffset: 0; stroke: #000000; stroke-opacity: 0.2; stroke-width: 5"/>
   </g>
   <g id="line2d_32">
    <path d="M 647.895781 162.91 
L 1052.895781 162.91 
" clip-path="url(#p893612059b)" style="fill: none; stroke: #000000; stroke-width: 5; stroke-linecap: square"/>
   </g>
   <g id="patch_7">
    <path d="M 647.895781 287.65 
L 647.895781 38.17 
" style="fill: none; stroke: #000000; stroke-width: 0.8; stroke-linejoin: miter; stroke-linecap: square"/>
   </g>
   <g id="patch_8">
    <path d="M 647.895781 287.65 
L 1052.895781 287.65 
" style="fill: none; stroke: #000000; stroke-width: 0.8; stroke-linejoin: miter; stroke-linecap: square"/>
   </g>
   <g id="text_26">
    <!-- $S(t)$ -->
    <g transform="translate(821.435781 31.515) scale(0.32 -0.32)">
     <defs>
      <path id="DejaVuSans-Oblique-53" d="M 3859 4513 
L 3738 3897 
Q 3422 4066 3111 4152 
Q 2800 4238 2509 4238 
Q 1944 4238 1609 3991 
Q 1275 3744 1275 3334 
Q 1275 3109 1398 2989 
Q 1522 2869 2034 2731 
L 2413 2638 
Q 3053 2472 3303 2217 
Q 3553 1963 3553 1503 
Q 3553 797 2998 353 
Q 2444 -91 1538 -91 
Q 1166 -91 791 -17 
Q 416 56 38 206 
L 166 856 
Q 513 641 861 531 
Q 1209 422 1556 422 
Q 2147 422 2503 684 
Q 2859 947 2859 1369 
Q 2859 1650 2717 1795 
Q 2575 1941 2106 2059 
L 1728 2156 
Q 1081 2325 845 2545 
Q 609 2766 609 3163 
Q 609 3859 1145 4304 
Q 1681 4750 2541 4750 
Q 2875 4750 3203 4690 
Q 3531 4631 3859 4513 
z
" transform="scale(0.015625)"/>
     </defs>
     <use xlink:href="#DejaVuSans-Oblique-53" transform="translate(0 0.125)"/>
     <use xlink:href="#DejaVuSans-28" transform="translate(63.476562 0.125)"/>
     <use xlink:href="#DejaVuSans-Oblique-74" transform="translate(102.490234 0.125)"/>
     <use xlink:href="#DejaVuSans-29" transform="translate(141.699219 0.125)"/>
    </g>
   </g>
  </g>
  <g id="axes_3">
   <g id="patch_9">
    <path d="M 1174.395781 287.65 
L 1579.395781 287.65 
L 1579.395781 38.17 
L 1174.395781 38.17 
z
" style="fill: #ffffff"/>
   </g>
   <g id="matplotlib.axis_5">
    <g id="xtick_11">
     <g id="line2d_33">
      <g>
       <use xlink:href="#m20ceef7767" x="1174.395781" y="287.65" style="stroke: #000000; stroke-width: 0.8"/>
      </g>
     </g>
     <g id="text_27">
      <!-- 0 -->
      <g transform="translate(1165.806406 315.165781) scale(0.27 -0.27)">
       <use xlink:href="#DejaVuSans-30"/>
      </g>
     </g>
    </g>
    <g id="xtick_12">
     <g id="line2d_34">
      <g>
       <use xlink:href="#m20ceef7767" x="1258.770781" y="287.65" style="stroke: #000000; stroke-width: 0.8"/>
      </g>
     </g>
     <g id="text_28">
      <!-- 25 -->
      <g transform="translate(1241.592031 315.165781) scale(0.27 -0.27)">
       <use xlink:href="#DejaVuSans-32"/>
       <use xlink:href="#DejaVuSans-35" x="63.623047"/>
      </g>
     </g>
    </g>
    <g id="xtick_13">
     <g id="line2d_35">
      <g>
       <use xlink:href="#m20ceef7767" x="1343.145781" y="287.65" style="stroke: #000000; stroke-width: 0.8"/>
      </g>
     </g>
     <g id="text_29">
      <!-- 50 -->
      <g transform="translate(1325.967031 315.165781) scale(0.27 -0.27)">
       <use xlink:href="#DejaVuSans-35"/>
       <use xlink:href="#DejaVuSans-30" x="63.623047"/>
      </g>
     </g>
    </g>
    <g id="xtick_14">
     <g id="line2d_36">
      <g>
       <use xlink:href="#m20ceef7767" x="1427.520781" y="287.65" style="stroke: #000000; stroke-width: 0.8"/>
      </g>
     </g>
     <g id="text_30">
      <!-- 75 -->
      <g transform="translate(1410.342031 315.165781) scale(0.27 -0.27)">
       <use xlink:href="#DejaVuSans-37"/>
       <use xlink:href="#DejaVuSans-35" x="63.623047"/>
      </g>
     </g>
    </g>
    <g id="xtick_15">
     <g id="line2d_37">
      <g>
       <use xlink:href="#m20ceef7767" x="1511.895781" y="287.65" style="stroke: #000000; stroke-width: 0.8"/>
      </g>
     </g>
     <g id="text_31">
      <!-- 100 -->
      <g transform="translate(1486.127656 315.165781) scale(0.27 -0.27)">
       <use xlink:href="#DejaVuSans-31"/>
       <use xlink:href="#DejaVuSans-30" x="63.623047"/>
       <use xlink:href="#DejaVuSans-30" x="127.246094"/>
      </g>
     </g>
    </g>
    <g id="text_32">
     <!-- Time [ms] -->
     <g transform="translate(1301.298125 347.57625) scale(0.3 -0.3)">
      <use xlink:href="#DejaVuSans-54"/>
      <use xlink:href="#DejaVuSans-69" x="57.958984"/>
      <use xlink:href="#DejaVuSans-6d" x="85.742188"/>
      <use xlink:href="#DejaVuSans-65" x="183.154297"/>
      <use xlink:href="#DejaVuSans-20" x="244.677734"/>
      <use xlink:href="#DejaVuSans-5b" x="276.464844"/>
      <use xlink:href="#DejaVuSans-6d" x="315.478516"/>
      <use xlink:href="#DejaVuSans-73" x="412.890625"/>
      <use xlink:href="#DejaVuSans-5d" x="464.990234"/>
     </g>
    </g>
   </g>
   <g id="matplotlib.axis_6">
    <g id="ytick_11">
     <g id="line2d_38">
      <g>
       <use xlink:href="#m6bf22b9011" x="1174.395781" y="287.65" style="stroke: #000000; stroke-width: 0.8"/>
      </g>
     </g>
     <g id="text_33">
      <!-- 0.00 -->
      <g transform="translate(1107.278594 297.907891) scale(0.27 -0.27)">
       <defs>
        <path id="DejaVuSans-2e" d="M 684 794 
L 1344 794 
L 1344 0 
L 684 0 
L 684 794 
z
" transform="scale(0.015625)"/>
       </defs>
       <use xlink:href="#DejaVuSans-30"/>
       <use xlink:href="#DejaVuSans-2e" x="63.623047"/>
       <use xlink:href="#DejaVuSans-30" x="95.410156"/>
       <use xlink:href="#DejaVuSans-30" x="159.033203"/>
      </g>
     </g>
    </g>
    <g id="ytick_12">
     <g id="line2d_39">
      <g>
       <use xlink:href="#m6bf22b9011" x="1174.395781" y="225.28" style="stroke: #000000; stroke-width: 0.8"/>
      </g>
     </g>
     <g id="text_34">
      <!-- 0.25 -->
      <g transform="translate(1107.278594 235.537891) scale(0.27 -0.27)">
       <use xlink:href="#DejaVuSans-30"/>
       <use xlink:href="#DejaVuSans-2e" x="63.623047"/>
       <use xlink:href="#DejaVuSans-32" x="95.410156"/>
       <use xlink:href="#DejaVuSans-35" x="159.033203"/>
      </g>
     </g>
    </g>
    <g id="ytick_13">
     <g id="line2d_40">
      <g>
       <use xlink:href="#m6bf22b9011" x="1174.395781" y="162.91" style="stroke: #000000; stroke-width: 0.8"/>
      </g>
     </g>
     <g id="text_35">
      <!-- 0.50 -->
      <g transform="translate(1107.278594 173.167891) scale(0.27 -0.27)">
       <use xlink:href="#DejaVuSans-30"/>
       <use xlink:href="#DejaVuSans-2e" x="63.623047"/>
       <use xlink:href="#DejaVuSans-35" x="95.410156"/>
       <use xlink:href="#DejaVuSans-30" x="159.033203"/>
      </g>
     </g>
    </g>
    <g id="ytick_14">
     <g id="line2d_41">
      <g>
       <use xlink:href="#m6bf22b9011" x="1174.395781" y="100.54" style="stroke: #000000; stroke-width: 0.8"/>
      </g>
     </g>
     <g id="text_36">
      <!-- 0.75 -->
      <g transform="translate(1107.278594 110.797891) scale(0.27 -0.27)">
       <use xlink:href="#DejaVuSans-30"/>
       <use xlink:href="#DejaVuSans-2e" x="63.623047"/>
       <use xlink:href="#DejaVuSans-37" x="95.410156"/>
       <use xlink:href="#DejaVuSans-35" x="159.033203"/>
      </g>
     </g>
    </g>
    <g id="ytick_15">
     <g id="line2d_42">
      <g>
       <use xlink:href="#m6bf22b9011" x="1174.395781" y="38.17" style="stroke: #000000; stroke-width: 0.8"/>
      </g>
     </g>
     <g id="text_37">
      <!-- 1.00 -->
      <g transform="translate(1107.278594 48.427891) scale(0.27 -0.27)">
       <use xlink:href="#DejaVuSans-31"/>
       <use xlink:href="#DejaVuSans-2e" x="63.623047"/>
       <use xlink:href="#DejaVuSans-30" x="95.410156"/>
       <use xlink:href="#DejaVuSans-30" x="159.033203"/>
      </g>
     </g>
    </g>
    <g id="text_38">
     <!-- unitless -->
     <g transform="translate(1097.039531 220.995156) rotate(-90) scale(0.3 -0.3)">
      <defs>
       <path id="DejaVuSans-75" d="M 544 1381 
L 544 3500 
L 1119 3500 
L 1119 1403 
Q 1119 906 1312 657 
Q 1506 409 1894 409 
Q 2359 409 2629 706 
Q 2900 1003 2900 1516 
L 2900 3500 
L 3475 3500 
L 3475 0 
L 2900 0 
L 2900 538 
Q 2691 219 2414 64 
Q 2138 -91 1772 -91 
Q 1169 -91 856 284 
Q 544 659 544 1381 
z
M 1991 3584 
L 1991 3584 
z
" transform="scale(0.015625)"/>
       <path id="DejaVuSans-6e" d="M 3513 2113 
L 3513 0 
L 2938 0 
L 2938 2094 
Q 2938 2591 2744 2837 
Q 2550 3084 2163 3084 
Q 1697 3084 1428 2787 
Q 1159 2491 1159 1978 
L 1159 0 
L 581 0 
L 581 3500 
L 1159 3500 
L 1159 2956 
Q 1366 3272 1645 3428 
Q 1925 3584 2291 3584 
Q 2894 3584 3203 3211 
Q 3513 2838 3513 2113 
z
" transform="scale(0.015625)"/>
       <path id="DejaVuSans-74" d="M 1172 4494 
L 1172 3500 
L 2356 3500 
L 2356 3053 
L 1172 3053 
L 1172 1153 
Q 1172 725 1289 603 
Q 1406 481 1766 481 
L 2356 481 
L 2356 0 
L 1766 0 
Q 1100 0 847 248 
Q 594 497 594 1153 
L 594 3053 
L 172 3053 
L 172 3500 
L 594 3500 
L 594 4494 
L 1172 4494 
z
" transform="scale(0.015625)"/>
       <path id="DejaVuSans-6c" d="M 603 4863 
L 1178 4863 
L 1178 0 
L 603 0 
L 603 4863 
z
" transform="scale(0.015625)"/>
      </defs>
      <use xlink:href="#DejaVuSans-75"/>
      <use xlink:href="#DejaVuSans-6e" x="63.378906"/>
      <use xlink:href="#DejaVuSans-69" x="126.757812"/>
      <use xlink:href="#DejaVuSans-74" x="154.541016"/>
      <use xlink:href="#DejaVuSans-6c" x="193.75"/>
      <use xlink:href="#DejaVuSans-65" x="221.533203"/>
      <use xlink:href="#DejaVuSans-73" x="283.056641"/>
      <use xlink:href="#DejaVuSans-73" x="335.15625"/>
     </g>
    </g>
   </g>
   <g id="line2d_43">
    <path d="M 1174.395781 287.65 
L 1579.395781 287.65 
" clip-path="url(#p5e6311c733)" style="fill: none; stroke: #d3d3d3; stroke-opacity: 0.8; stroke-width: 1.5; stroke-linecap: square"/>
   </g>
   <g id="line2d_44">
    <path d="M 1174.395781 287.65 
L 1184.520781 287.65 
L 1185.195781 146.719961 
L 1185.870781 118.667601 
L 1186.545781 118.595321 
L 1187.220781 152.267943 
L 1187.895781 173.314375 
L 1188.570781 184.423641 
L 1189.245781 190.437812 
L 1189.920781 193.774058 
L 1190.595781 195.663483 
L 1191.270781 196.742606 
L 1191.945781 197.323339 
L 1192.620781 197.603546 
L 1193.295781 197.668553 
L 1194.645781 197.428775 
L 1195.995781 196.952456 
L 1196.670781 222.396017 
L 1197.345781 236.918125 
L 1198.020781 245.697859 
L 1198.695781 251.352758 
L 1199.370781 255.243343 
L 1200.045781 258.072706 
L 1200.720781 260.23151 
L 1201.395781 261.938934 
L 1202.745781 264.478027 
L 1204.095781 266.283155 
L 1205.445781 267.642608 
L 1206.795781 268.713729 
L 1208.820781 269.992682 
L 1211.520781 271.341809 
L 1212.870781 271.93163 
L 1213.545781 257.018343 
L 1214.220781 136.11785 
L 1214.895781 118.970433 
L 1215.570781 117.553826 
L 1216.245781 116.873847 
L 1216.920781 117.720641 
L 1217.595781 131.311947 
L 1218.270781 155.08558 
L 1218.945781 166.356328 
L 1219.620781 174.390214 
L 1220.295781 179.582737 
L 1220.970781 176.539813 
L 1221.645781 180.787405 
L 1222.320781 180.422692 
L 1222.995781 184.613832 
L 1223.670781 183.283928 
L 1224.345781 181.518929 
L 1225.020781 182.271601 
L 1225.695781 184.485213 
L 1226.370781 182.084609 
L 1227.045781 183.361107 
L 1227.720781 182.87734 
L 1228.395781 181.797439 
L 1229.070781 183.660929 
L 1229.745781 183.050723 
L 1230.420781 181.867939 
L 1231.095781 181.420779 
L 1231.770781 183.043842 
L 1232.445781 181.094205 
L 1233.120781 180.929611 
L 1233.795781 179.298641 
L 1234.470781 179.531201 
L 1235.145781 182.349888 
L 1235.820781 180.004284 
L 1236.495781 177.050833 
L 1237.170781 177.887518 
L 1237.845781 177.545467 
L 1239.195781 177.357503 
L 1241.220781 176.588125 
L 1241.895781 197.199734 
L 1242.570781 213.613386 
L 1243.245781 223.479388 
L 1243.920781 229.845931 
L 1244.595781 234.238946 
L 1245.270781 237.487549 
L 1245.945781 240.014169 
L 1247.295781 243.769306 
L 1248.645781 246.522464 
L 1249.995781 248.689479 
L 1251.345781 250.477182 
L 1253.370781 252.72617 
L 1255.395781 254.644205 
L 1258.095781 256.889428 
L 1261.470781 259.38951 
L 1264.845781 261.65773 
L 1267.545781 263.242733 
L 1268.220781 261.302674 
L 1268.895781 207.341287 
L 1269.570781 128.807344 
L 1270.245781 115.270489 
L 1271.595781 115.222333 
L 1272.270781 115.238511 
L 1273.620781 153.104707 
L 1274.295781 162.846416 
L 1274.970781 168.467923 
L 1275.645781 171.826858 
L 1276.320781 173.951006 
L 1276.995781 175.340233 
L 1277.670781 176.228051 
L 1278.345781 176.833643 
L 1279.020781 183.043547 
L 1279.695781 197.819605 
L 1280.370781 215.167025 
L 1281.045781 225.60438 
L 1281.720781 232.321722 
L 1282.395781 236.952297 
L 1283.070781 240.350317 
L 1283.745781 242.97642 
L 1285.095781 246.842551 
L 1286.445781 249.620325 
L 1287.795781 251.762743 
L 1289.145781 253.503906 
L 1291.170781 255.647195 
L 1293.195781 257.446648 
L 1295.895781 259.532981 
L 1299.270781 261.83435 
L 1303.320781 264.297029 
L 1306.020781 265.796542 
L 1306.695781 174.895926 
L 1307.370781 150.271104 
L 1308.045781 140.096602 
L 1308.720781 135.404984 
L 1309.395781 138.659986 
L 1310.070781 158.643549 
L 1310.745781 169.142361 
L 1311.420781 174.822982 
L 1312.095781 177.968111 
L 1312.770781 179.801394 
L 1313.445781 180.867591 
L 1314.120781 181.506484 
L 1314.795781 181.873026 
L 1316.145781 182.121841 
L 1316.820781 185.982396 
L 1317.495781 210.065221 
L 1318.170781 224.008458 
L 1318.845781 232.574863 
L 1319.520781 235.707776 
L 1320.195781 125.028528 
L 1325.595781 123.69562 
L 1326.270781 128.543518 
L 1326.945781 142.872512 
L 1327.620781 150.943069 
L 1328.295781 155.700162 
L 1328.970781 158.698125 
L 1329.645781 160.670509 
L 1330.320781 162.06328 
L 1330.995781 163.055277 
L 1331.670781 163.809716 
L 1333.020781 164.799978 
L 1334.370781 165.362157 
L 1335.720781 165.684782 
L 1337.745781 165.848065 
L 1341.795781 165.661583 
L 1343.820781 165.4077 
L 1344.495781 174.700247 
L 1345.170781 196.233408 
L 1345.845781 208.873005 
L 1346.520781 216.823547 
L 1347.195781 222.18815 
L 1347.870781 226.086832 
L 1348.545781 229.077721 
L 1349.220781 231.499207 
L 1350.570781 235.250061 
L 1351.920781 238.138698 
L 1353.270781 240.465749 
L 1353.945781 216.793641 
L 1354.620781 145.307372 
L 1355.295781 119.040856 
L 1360.020781 118.565997 
L 1360.695781 126.981989 
L 1361.370781 139.822583 
L 1362.045781 147.127051 
L 1362.720781 151.502192 
L 1363.395781 154.290778 
L 1364.070781 156.166403 
L 1364.070781 156.166403 
" clip-path="url(#p5e6311c733)" style="fill: none; stroke: #000000; stroke-width: 5; stroke-linecap: square"/>
   </g>
   <g id="line2d_45">
    <path d="M 1174.395781 287.65 
L 1579.395781 287.65 
" clip-path="url(#p5e6311c733)" style="fill: none; stroke: #000000; stroke-width: 5; stroke-linecap: square"/>
   </g>
   <g id="line2d_46">
    <path d="M 1174.395781 119.35933 
L 1175.745781 118.742786 
L 1177.770781 118.134639 
L 1180.470781 117.619579 
L 1185.195781 117.026136 
L 1193.295781 116.282795 
L 1204.095781 115.517135 
L 1216.920781 114.837944 
L 1231.770781 114.27826 
L 1249.995781 113.820279 
L 1273.620781 113.464041 
L 1280.370781 113.394978 
L 1281.045781 160.79216 
L 1281.720781 188.344381 
L 1282.395781 182.409533 
L 1283.070781 150.056024 
L 1283.745781 170.377373 
L 1284.420781 200.066168 
L 1285.095781 156.298239 
L 1285.770781 138.947535 
L 1286.445781 131.538279 
L 1287.120781 127.981106 
L 1287.795781 126.000818 
L 1288.470781 124.72832 
L 1289.145781 123.81711 
L 1290.495781 122.559703 
L 1291.845781 121.719525 
L 1293.195781 121.116369 
L 1295.220781 120.465006 
L 1297.920781 119.840426 
L 1301.970781 119.126881 
L 1302.645781 142.549864 
L 1303.320781 200.486902 
L 1303.995781 196.937651 
L 1304.670781 155.641629 
L 1305.345781 162.359381 
L 1306.020781 188.570268 
L 1306.695781 173.762485 
L 1307.370781 148.899253 
L 1308.045781 138.601117 
L 1308.720781 133.867202 
L 1309.395781 131.352581 
L 1310.070781 129.79337 
L 1310.745781 128.696007 
L 1312.095781 127.178443 
L 1313.445781 126.136709 
L 1314.795781 125.359707 
L 1316.820781 124.478234 
L 1319.520781 123.581881 
L 1323.570781 122.506623 
L 1328.970781 121.305032 
L 1335.720781 120.030269 
L 1343.145781 118.85522 
L 1351.245781 117.796772 
L 1360.695781 116.801795 
L 1364.070781 116.49906 
L 1364.070781 116.49906 
" clip-path="url(#p5e6311c733)" style="fill: none; stroke-dasharray: 22.2,9.6; stroke-dashoffset: 0; stroke: #ff0000; stroke-width: 6"/>
   </g>
   <g id="line2d_47">
    <path d="M 1174.395781 113.014 
L 1579.395781 113.014 
" clip-path="url(#p5e6311c733)" style="fill: none; stroke-dasharray: 5,8.25; stroke-dashoffset: 0; stroke: #ff0000; stroke-opacity: 0.5; stroke-width: 5"/>
   </g>
   <g id="patch_10">
    <path d="M 1174.395781 287.65 
L 1174.395781 38.17 
" style="fill: none; stroke: #000000; stroke-width: 0.8; stroke-linejoin: miter; stroke-linecap: square"/>
   </g>
   <g id="patch_11">
    <path d="M 1174.395781 287.65 
L 1579.395781 287.65 
" style="fill: none; stroke: #000000; stroke-width: 0.8; stroke-linejoin: miter; stroke-linecap: square"/>
   </g>
   <g id="text_39">
    <!-- SAFE-PNS -->
    <g transform="translate(1298.633281 31.515) scale(0.32 -0.32)">
     <defs>
      <path id="DejaVuSans-53" d="M 3425 4513 
L 3425 3897 
Q 3066 4069 2747 4153 
Q 2428 4238 2131 4238 
Q 1616 4238 1336 4038 
Q 1056 3838 1056 3469 
Q 1056 3159 1242 3001 
Q 1428 2844 1947 2747 
L 2328 2669 
Q 3034 2534 3370 2195 
Q 3706 1856 3706 1288 
Q 3706 609 3251 259 
Q 2797 -91 1919 -91 
Q 1588 -91 1214 -16 
Q 841 59 441 206 
L 441 856 
Q 825 641 1194 531 
Q 1563 422 1919 422 
Q 2459 422 2753 634 
Q 3047 847 3047 1241 
Q 3047 1584 2836 1778 
Q 2625 1972 2144 2069 
L 1759 2144 
Q 1053 2284 737 2584 
Q 422 2884 422 3419 
Q 422 4038 858 4394 
Q 1294 4750 2059 4750 
Q 2388 4750 2728 4690 
Q 3069 4631 3425 4513 
z
" transform="scale(0.015625)"/>
      <path id="DejaVuSans-41" d="M 2188 4044 
L 1331 1722 
L 3047 1722 
L 2188 4044 
z
M 1831 4666 
L 2547 4666 
L 4325 0 
L 3669 0 
L 3244 1197 
L 1141 1197 
L 716 0 
L 50 0 
L 1831 4666 
z
" transform="scale(0.015625)"/>
      <path id="DejaVuSans-46" d="M 628 4666 
L 3309 4666 
L 3309 4134 
L 1259 4134 
L 1259 2759 
L 3109 2759 
L 3109 2228 
L 1259 2228 
L 1259 0 
L 628 0 
L 628 4666 
z
" transform="scale(0.015625)"/>
      <path id="DejaVuSans-45" d="M 628 4666 
L 3578 4666 
L 3578 4134 
L 1259 4134 
L 1259 2753 
L 3481 2753 
L 3481 2222 
L 1259 2222 
L 1259 531 
L 3634 531 
L 3634 0 
L 628 0 
L 628 4666 
z
" transform="scale(0.015625)"/>
      <path id="DejaVuSans-2d" d="M 313 2009 
L 1997 2009 
L 1997 1497 
L 313 1497 
L 313 2009 
z
" transform="scale(0.015625)"/>
      <path id="DejaVuSans-50" d="M 1259 4147 
L 1259 2394 
L 2053 2394 
Q 2494 2394 2734 2622 
Q 2975 2850 2975 3272 
Q 2975 3691 2734 3919 
Q 2494 4147 2053 4147 
L 1259 4147 
z
M 628 4666 
L 2053 4666 
Q 2838 4666 3239 4311 
Q 3641 3956 3641 3272 
Q 3641 2581 3239 2228 
Q 2838 1875 2053 1875 
L 1259 1875 
L 1259 0 
L 628 0 
L 628 4666 
z
" transform="scale(0.015625)"/>
      <path id="DejaVuSans-4e" d="M 628 4666 
L 1478 4666 
L 3547 763 
L 3547 4666 
L 4159 4666 
L 4159 0 
L 3309 0 
L 1241 3903 
L 1241 0 
L 628 0 
L 628 4666 
z
" transform="scale(0.015625)"/>
     </defs>
     <use xlink:href="#DejaVuSans-53"/>
     <use xlink:href="#DejaVuSans-41" x="65.351562"/>
     <use xlink:href="#DejaVuSans-46" x="133.759766"/>
     <use xlink:href="#DejaVuSans-45" x="191.279297"/>
     <use xlink:href="#DejaVuSans-2d" x="254.462891"/>
     <use xlink:href="#DejaVuSans-50" x="290.546875"/>
     <use xlink:href="#DejaVuSans-4e" x="350.849609"/>
     <use xlink:href="#DejaVuSans-53" x="425.654297"/>
    </g>
   </g>
   <g id="legend_2">
    <g id="patch_12">
     <path d="M 1430.758281 276.65 
L 1563.995781 276.65 
Q 1568.395781 276.65 1568.395781 272.25 
L 1568.395781 242.158125 
Q 1568.395781 237.758125 1563.995781 237.758125 
L 1430.758281 237.758125 
Q 1426.358281 237.758125 1426.358281 242.158125 
L 1426.358281 272.25 
Q 1426.358281 276.65 1430.758281 276.65 
z
" style="fill: #ffffff; opacity: 0.2; stroke: #cccccc; stroke-linejoin: miter"/>
    </g>
    <g id="line2d_48">
     <path d="M 1435.158281 255.574688 
L 1457.158281 255.574688 
L 1479.158281 255.574688 
" style="fill: none; stroke: #000000; stroke-width: 5; stroke-linecap: square"/>
    </g>
    <g id="text_40">
     <!-- Y-axis -->
     <g transform="translate(1496.758281 263.274688) scale(0.22 -0.22)">
      <defs>
       <path id="DejaVuSans-59" d="M -13 4666 
L 666 4666 
L 1959 2747 
L 3244 4666 
L 3922 4666 
L 2272 2222 
L 2272 0 
L 1638 0 
L 1638 2222 
L -13 4666 
z
" transform="scale(0.015625)"/>
       <path id="DejaVuSans-61" d="M 2194 1759 
Q 1497 1759 1228 1600 
Q 959 1441 959 1056 
Q 959 750 1161 570 
Q 1363 391 1709 391 
Q 2188 391 2477 730 
Q 2766 1069 2766 1631 
L 2766 1759 
L 2194 1759 
z
M 3341 1997 
L 3341 0 
L 2766 0 
L 2766 531 
Q 2569 213 2275 61 
Q 1981 -91 1556 -91 
Q 1019 -91 701 211 
Q 384 513 384 1019 
Q 384 1609 779 1909 
Q 1175 2209 1959 2209 
L 2766 2209 
L 2766 2266 
Q 2766 2663 2505 2880 
Q 2244 3097 1772 3097 
Q 1472 3097 1187 3025 
Q 903 2953 641 2809 
L 641 3341 
Q 956 3463 1253 3523 
Q 1550 3584 1831 3584 
Q 2591 3584 2966 3190 
Q 3341 2797 3341 1997 
z
" transform="scale(0.015625)"/>
       <path id="DejaVuSans-78" d="M 3513 3500 
L 2247 1797 
L 3578 0 
L 2900 0 
L 1881 1375 
L 863 0 
L 184 0 
L 1544 1831 
L 300 3500 
L 978 3500 
L 1906 2253 
L 2834 3500 
L 3513 3500 
z
" transform="scale(0.015625)"/>
      </defs>
      <use xlink:href="#DejaVuSans-59"/>
      <use xlink:href="#DejaVuSans-2d" x="49.208984"/>
      <use xlink:href="#DejaVuSans-61" x="85.292969"/>
      <use xlink:href="#DejaVuSans-78" x="146.572266"/>
      <use xlink:href="#DejaVuSans-69" x="205.751953"/>
      <use xlink:href="#DejaVuSans-73" x="233.535156"/>
     </g>
    </g>
   </g>
  </g>
  <g id="axes_4">
   <g id="patch_13">
    <path d="M 1700.895781 287.65 
L 2105.895781 287.65 
L 2105.895781 38.17 
L 1700.895781 38.17 
z
" style="fill: #ffffff"/>
   </g>
   <g id="matplotlib.axis_7">
    <g id="xtick_16">
     <g id="line2d_49">
      <g>
       <use xlink:href="#m20ceef7767" x="1700.895781" y="287.65" style="stroke: #000000; stroke-width: 0.8"/>
      </g>
     </g>
     <g id="text_41">
      <!-- 0 -->
      <g transform="translate(1692.306406 315.165781) scale(0.27 -0.27)">
       <use xlink:href="#DejaVuSans-30"/>
      </g>
     </g>
    </g>
    <g id="xtick_17">
     <g id="line2d_50">
      <g>
       <use xlink:href="#m20ceef7767" x="1785.270781" y="287.65" style="stroke: #000000; stroke-width: 0.8"/>
      </g>
     </g>
     <g id="text_42">
      <!-- 25 -->
      <g transform="translate(1768.092031 315.165781) scale(0.27 -0.27)">
       <use xlink:href="#DejaVuSans-32"/>
       <use xlink:href="#DejaVuSans-35" x="63.623047"/>
      </g>
     </g>
    </g>
    <g id="xtick_18">
     <g id="line2d_51">
      <g>
       <use xlink:href="#m20ceef7767" x="1869.645781" y="287.65" style="stroke: #000000; stroke-width: 0.8"/>
      </g>
     </g>
     <g id="text_43">
      <!-- 50 -->
      <g transform="translate(1852.467031 315.165781) scale(0.27 -0.27)">
       <use xlink:href="#DejaVuSans-35"/>
       <use xlink:href="#DejaVuSans-30" x="63.623047"/>
      </g>
     </g>
    </g>
    <g id="xtick_19">
     <g id="line2d_52">
      <g>
       <use xlink:href="#m20ceef7767" x="1954.020781" y="287.65" style="stroke: #000000; stroke-width: 0.8"/>
      </g>
     </g>
     <g id="text_44">
      <!-- 75 -->
      <g transform="translate(1936.842031 315.165781) scale(0.27 -0.27)">
       <use xlink:href="#DejaVuSans-37"/>
       <use xlink:href="#DejaVuSans-35" x="63.623047"/>
      </g>
     </g>
    </g>
    <g id="xtick_20">
     <g id="line2d_53">
      <g>
       <use xlink:href="#m20ceef7767" x="2038.395781" y="287.65" style="stroke: #000000; stroke-width: 0.8"/>
      </g>
     </g>
     <g id="text_45">
      <!-- 100 -->
      <g transform="translate(2012.627656 315.165781) scale(0.27 -0.27)">
       <use xlink:href="#DejaVuSans-31"/>
       <use xlink:href="#DejaVuSans-30" x="63.623047"/>
       <use xlink:href="#DejaVuSans-30" x="127.246094"/>
      </g>
     </g>
    </g>
    <g id="text_46">
     <!-- Time [ms] -->
     <g transform="translate(1827.798125 347.57625) scale(0.3 -0.3)">
      <use xlink:href="#DejaVuSans-54"/>
      <use xlink:href="#DejaVuSans-69" x="57.958984"/>
      <use xlink:href="#DejaVuSans-6d" x="85.742188"/>
      <use xlink:href="#DejaVuSans-65" x="183.154297"/>
      <use xlink:href="#DejaVuSans-20" x="244.677734"/>
      <use xlink:href="#DejaVuSans-5b" x="276.464844"/>
      <use xlink:href="#DejaVuSans-6d" x="315.478516"/>
      <use xlink:href="#DejaVuSans-73" x="412.890625"/>
      <use xlink:href="#DejaVuSans-5d" x="464.990234"/>
     </g>
    </g>
   </g>
   <g id="matplotlib.axis_8">
    <g id="ytick_16">
     <g id="line2d_54">
      <g>
       <use xlink:href="#m6bf22b9011" x="1700.895781" y="287.65" style="stroke: #000000; stroke-width: 0.8"/>
      </g>
     </g>
     <g id="text_47">
      <!-- 0.00 -->
      <g transform="translate(1633.778594 297.907891) scale(0.27 -0.27)">
       <use xlink:href="#DejaVuSans-30"/>
       <use xlink:href="#DejaVuSans-2e" x="63.623047"/>
       <use xlink:href="#DejaVuSans-30" x="95.410156"/>
       <use xlink:href="#DejaVuSans-30" x="159.033203"/>
      </g>
     </g>
    </g>
    <g id="ytick_17">
     <g id="line2d_55">
      <g>
       <use xlink:href="#m6bf22b9011" x="1700.895781" y="225.28" style="stroke: #000000; stroke-width: 0.8"/>
      </g>
     </g>
     <g id="text_48">
      <!-- 0.25 -->
      <g transform="translate(1633.778594 235.537891) scale(0.27 -0.27)">
       <use xlink:href="#DejaVuSans-30"/>
       <use xlink:href="#DejaVuSans-2e" x="63.623047"/>
       <use xlink:href="#DejaVuSans-32" x="95.410156"/>
       <use xlink:href="#DejaVuSans-35" x="159.033203"/>
      </g>
     </g>
    </g>
    <g id="ytick_18">
     <g id="line2d_56">
      <g>
       <use xlink:href="#m6bf22b9011" x="1700.895781" y="162.91" style="stroke: #000000; stroke-width: 0.8"/>
      </g>
     </g>
     <g id="text_49">
      <!-- 0.50 -->
      <g transform="translate(1633.778594 173.167891) scale(0.27 -0.27)">
       <use xlink:href="#DejaVuSans-30"/>
       <use xlink:href="#DejaVuSans-2e" x="63.623047"/>
       <use xlink:href="#DejaVuSans-35" x="95.410156"/>
       <use xlink:href="#DejaVuSans-30" x="159.033203"/>
      </g>
     </g>
    </g>
    <g id="ytick_19">
     <g id="line2d_57">
      <g>
       <use xlink:href="#m6bf22b9011" x="1700.895781" y="100.54" style="stroke: #000000; stroke-width: 0.8"/>
      </g>
     </g>
     <g id="text_50">
      <!-- 0.75 -->
      <g transform="translate(1633.778594 110.797891) scale(0.27 -0.27)">
       <use xlink:href="#DejaVuSans-30"/>
       <use xlink:href="#DejaVuSans-2e" x="63.623047"/>
       <use xlink:href="#DejaVuSans-37" x="95.410156"/>
       <use xlink:href="#DejaVuSans-35" x="159.033203"/>
      </g>
     </g>
    </g>
    <g id="ytick_20">
     <g id="line2d_58">
      <g>
       <use xlink:href="#m6bf22b9011" x="1700.895781" y="38.17" style="stroke: #000000; stroke-width: 0.8"/>
      </g>
     </g>
     <g id="text_51">
      <!-- 1.00 -->
      <g transform="translate(1633.778594 48.427891) scale(0.27 -0.27)">
       <use xlink:href="#DejaVuSans-31"/>
       <use xlink:href="#DejaVuSans-2e" x="63.623047"/>
       <use xlink:href="#DejaVuSans-30" x="95.410156"/>
       <use xlink:href="#DejaVuSans-30" x="159.033203"/>
      </g>
     </g>
    </g>
    <g id="text_52">
     <!-- unitless -->
     <g transform="translate(1623.539531 220.995156) rotate(-90) scale(0.3 -0.3)">
      <use xlink:href="#DejaVuSans-75"/>
      <use xlink:href="#DejaVuSans-6e" x="63.378906"/>
      <use xlink:href="#DejaVuSans-69" x="126.757812"/>
      <use xlink:href="#DejaVuSans-74" x="154.541016"/>
      <use xlink:href="#DejaVuSans-6c" x="193.75"/>
      <use xlink:href="#DejaVuSans-65" x="221.533203"/>
      <use xlink:href="#DejaVuSans-73" x="283.056641"/>
      <use xlink:href="#DejaVuSans-73" x="335.15625"/>
     </g>
    </g>
   </g>
   <g id="line2d_59">
    <path d="M 1700.895781 287.65 
L 2105.895781 287.65 
" clip-path="url(#p508287c7b4)" style="fill: none; stroke: #d3d3d3; stroke-opacity: 0.8; stroke-width: 1.5; stroke-linecap: square"/>
   </g>
   <g id="line2d_60">
    <path d="M 1700.895781 287.65 
L 1711.020781 287.65 
L 1711.695781 212.223289 
L 1712.370781 171.588797 
L 1713.045781 144.618319 
L 1713.720781 139.545624 
L 1715.070781 134.749855 
L 1716.420781 130.889553 
L 1717.770781 127.782346 
L 1719.120781 125.277287 
L 1720.470781 123.255576 
L 1721.820781 121.627867 
L 1722.495781 120.99879 
L 1723.845781 146.35313 
L 1725.195781 167.759526 
L 1726.545781 185.848703 
L 1727.895781 201.14722 
L 1729.245781 214.095927 
L 1730.595781 225.064412 
L 1731.945781 234.36341 
L 1733.295781 242.251324 
L 1734.645781 248.950335 
L 1735.995781 254.640559 
L 1737.345781 259.477553 
L 1738.695781 263.59355 
L 1739.370781 265.415917 
L 1740.045781 269.956582 
L 1740.720781 225.452061 
L 1741.395781 190.84811 
L 1742.745781 143.018766 
L 1743.420781 124.448105 
L 1744.095781 115.279211 
L 1744.770781 116.066444 
L 1745.445781 115.864604 
L 1746.120781 116.553492 
L 1746.795781 117.429911 
L 1747.470781 114.900862 
L 1748.145781 115.68946 
L 1748.820781 114.888504 
L 1749.495781 116.473577 
L 1750.170781 115.921243 
L 1750.845781 114.855046 
L 1751.520781 114.84238 
L 1752.195781 115.836368 
L 1752.870781 114.829918 
L 1753.545781 115.362857 
L 1754.220781 115.267418 
L 1754.895781 114.80595 
L 1755.570781 115.777334 
L 1756.245781 115.842635 
L 1756.920781 115.510133 
L 1757.595781 115.39317 
L 1758.270781 116.36828 
L 1758.945781 115.794543 
L 1759.620781 115.836313 
L 1760.295781 115.129899 
L 1760.970781 115.184752 
L 1761.645781 116.760693 
L 1762.320781 116.157608 
L 1762.995781 114.787811 
L 1763.670781 114.961951 
L 1764.345781 114.780286 
L 1767.720781 114.77151 
L 1769.070781 138.679259 
L 1770.420781 161.139261 
L 1771.770781 180.136459 
L 1773.120781 196.217033 
L 1774.470781 209.843841 
L 1775.820781 221.395742 
L 1777.170781 231.199024 
L 1778.520781 239.522229 
L 1779.870781 246.595925 
L 1781.220781 252.60912 
L 1782.570781 257.726927 
L 1783.920781 262.084888 
L 1785.270781 265.791385 
L 1786.620781 268.952358 
L 1787.970781 271.658213 
L 1789.320781 273.955355 
L 1790.670781 275.916312 
L 1792.020781 277.605036 
L 1794.720781 280.735848 
L 1795.395781 262.385369 
L 1796.070781 209.511261 
L 1796.745781 178.619615 
L 1798.095781 136.09518 
L 1798.770781 118.964204 
L 1799.445781 114.762694 
L 1804.845781 114.766971 
L 1805.520781 117.879243 
L 1806.195781 126.716546 
L 1807.545781 151.202311 
L 1808.895781 171.874929 
L 1810.245781 189.343301 
L 1811.595781 204.116559 
L 1812.945781 216.620834 
L 1814.295781 227.21313 
L 1815.645781 236.192826 
L 1816.995781 243.811223 
L 1818.345781 250.279465 
L 1819.695781 255.77512 
L 1821.045781 260.447663 
L 1822.395781 264.423032 
L 1823.745781 267.807433 
L 1825.095781 270.69051 
L 1826.445781 273.147993 
L 1827.795781 275.243911 
L 1829.145781 277.03245 
L 1830.495781 278.559496 
L 1832.520781 280.443206 
L 1833.195781 232.136002 
L 1833.870781 202.672207 
L 1835.220781 158.636156 
L 1835.895781 144.251836 
L 1837.245781 139.073158 
L 1838.595781 134.823669 
L 1839.945781 131.342907 
L 1841.295781 128.48311 
L 1842.645781 126.124474 
L 1843.320781 127.187877 
L 1844.670781 151.603602 
L 1846.020781 174.387743 
L 1846.695781 207.75451 
L 1847.370781 225.343126 
L 1848.045781 215.559708 
L 1849.395781 177.685819 
L 1850.745781 148.238046 
L 1852.095781 124.862644 
L 1852.770781 117.633229 
L 1854.795781 116.955185 
L 1857.495781 116.304448 
L 1860.870781 115.759043 
L 1865.595781 115.31675 
L 1869.645781 115.101712 
L 1870.320781 115.066235 
L 1870.995781 120.057403 
L 1872.345781 145.479638 
L 1873.695781 166.955604 
L 1875.045781 185.115438 
L 1876.395781 200.478397 
L 1877.745781 213.497078 
L 1879.095781 224.529017 
L 1879.770781 229.401471 
L 1880.445781 238.903158 
L 1881.120781 258.311316 
L 1881.795781 227.381506 
L 1883.145781 186.542296 
L 1884.495781 155.029198 
L 1885.845781 130.17076 
L 1886.520781 119.67756 
L 1887.195781 114.807401 
L 1890.570781 114.794238 
L 1890.570781 114.794238 
" clip-path="url(#p508287c7b4)" style="fill: none; stroke: #000000; stroke-width: 5; stroke-linecap: square"/>
   </g>
   <g id="line2d_61">
    <path d="M 1700.895781 287.65 
L 2105.895781 287.65 
" clip-path="url(#p508287c7b4)" style="fill: none; stroke: #000000; stroke-width: 5; stroke-linecap: square"/>
   </g>
   <g id="line2d_62">
    <path d="M 1700.895781 124.19026 
L 1702.245781 122.359612 
L 1703.595781 120.837207 
L 1704.945781 119.569694 
L 1706.970781 118.052535 
L 1708.995781 116.895143 
L 1711.020781 116.01003 
L 1713.720781 115.142329 
L 1716.420781 114.531092 
L 1719.795781 114.012049 
L 1723.845781 113.621393 
L 1729.245781 113.329977 
L 1737.345781 113.134358 
L 1752.195781 113.035187 
L 1806.870781 113.01404 
L 1808.220781 156.505649 
L 1808.895781 169.694457 
L 1809.570781 164.940938 
L 1810.245781 149.423061 
L 1810.920781 154.839199 
L 1812.270781 147.059643 
L 1813.620781 140.750413 
L 1814.970781 135.630072 
L 1816.320781 131.471585 
L 1817.670781 128.091724 
L 1819.020781 125.342547 
L 1820.370781 123.104549 
L 1821.720781 121.281143 
L 1823.070781 119.794227 
L 1824.420781 118.580611 
L 1825.770781 117.589139 
L 1827.795781 116.429992 
L 1828.470781 116.114721 
L 1829.145781 121.90141 
L 1829.820781 153.833821 
L 1830.495781 171.303654 
L 1831.170781 165.949264 
L 1831.845781 153.141296 
L 1832.520781 144.826258 
L 1833.195781 153.471592 
L 1834.545781 145.980025 
L 1835.895781 139.899242 
L 1837.245781 134.959967 
L 1838.595781 130.944866 
L 1839.945781 127.678439 
L 1841.295781 125.018906 
L 1842.645781 122.851665 
L 1843.995781 121.084037 
L 1845.345781 119.641028 
L 1846.695781 118.461918 
L 1848.045781 117.497516 
L 1850.070781 116.368356 
L 1852.095781 115.529974 
L 1854.120781 114.90601 
L 1856.820781 114.31308 
L 1860.195781 113.831241 
L 1864.245781 113.487041 
L 1870.320781 113.226211 
L 1879.770781 113.077476 
L 1890.570781 113.030778 
L 1890.570781 113.030778 
" clip-path="url(#p508287c7b4)" style="fill: none; stroke-dasharray: 22.2,9.6; stroke-dashoffset: 0; stroke: #800080; stroke-width: 6"/>
   </g>
   <g id="line2d_63">
    <path clip-path="url(#p508287c7b4)" style="fill: none; stroke-dasharray: 11.1,4.8; stroke-dashoffset: 0; stroke: #800080; stroke-width: 3"/>
   </g>
   <g id="line2d_64">
    <path d="M 1700.895781 113.014 
L 2105.895781 113.014 
" clip-path="url(#p508287c7b4)" style="fill: none; stroke-dasharray: 5,8.25; stroke-dashoffset: 0; stroke: #800080; stroke-opacity: 0.5; stroke-width: 5"/>
   </g>
   <g id="patch_14">
    <path d="M 1700.895781 287.65 
L 1700.895781 38.17 
" style="fill: none; stroke: #000000; stroke-width: 0.8; stroke-linejoin: miter; stroke-linecap: square"/>
   </g>
   <g id="patch_15">
    <path d="M 1700.895781 287.65 
L 2105.895781 287.65 
" style="fill: none; stroke: #000000; stroke-width: 0.8; stroke-linejoin: miter; stroke-linecap: square"/>
   </g>
   <g id="text_53">
    <!-- SAFE-CNS -->
    <g transform="translate(1823.608281 31.515) scale(0.32 -0.32)">
     <defs>
      <path id="DejaVuSans-43" d="M 4122 4306 
L 4122 3641 
Q 3803 3938 3442 4084 
Q 3081 4231 2675 4231 
Q 1875 4231 1450 3742 
Q 1025 3253 1025 2328 
Q 1025 1406 1450 917 
Q 1875 428 2675 428 
Q 3081 428 3442 575 
Q 3803 722 4122 1019 
L 4122 359 
Q 3791 134 3420 21 
Q 3050 -91 2638 -91 
Q 1578 -91 968 557 
Q 359 1206 359 2328 
Q 359 3453 968 4101 
Q 1578 4750 2638 4750 
Q 3056 4750 3426 4639 
Q 3797 4528 4122 4306 
z
" transform="scale(0.015625)"/>
     </defs>
     <use xlink:href="#DejaVuSans-53"/>
     <use xlink:href="#DejaVuSans-41" x="65.351562"/>
     <use xlink:href="#DejaVuSans-46" x="133.759766"/>
     <use xlink:href="#DejaVuSans-45" x="191.279297"/>
     <use xlink:href="#DejaVuSans-2d" x="254.462891"/>
     <use xlink:href="#DejaVuSans-43" x="290.546875"/>
     <use xlink:href="#DejaVuSans-4e" x="360.371094"/>
     <use xlink:href="#DejaVuSans-53" x="435.175781"/>
    </g>
   </g>
   <g id="legend_3">
    <g id="patch_16">
     <path d="M 1957.258281 276.65 
L 2090.495781 276.65 
Q 2094.895781 276.65 2094.895781 272.25 
L 2094.895781 242.158125 
Q 2094.895781 237.758125 2090.495781 237.758125 
L 1957.258281 237.758125 
Q 1952.858281 237.758125 1952.858281 242.158125 
L 1952.858281 272.25 
Q 1952.858281 276.65 1957.258281 276.65 
z
" style="fill: #ffffff; opacity: 0.2; stroke: #cccccc; stroke-linejoin: miter"/>
    </g>
    <g id="line2d_65">
     <path d="M 1961.658281 255.574688 
L 1983.658281 255.574688 
L 2005.658281 255.574688 
" style="fill: none; stroke: #000000; stroke-width: 5; stroke-linecap: square"/>
    </g>
    <g id="text_54">
     <!-- Y-axis -->
     <g transform="translate(2023.258281 263.274688) scale(0.22 -0.22)">
      <use xlink:href="#DejaVuSans-59"/>
      <use xlink:href="#DejaVuSans-2d" x="49.208984"/>
      <use xlink:href="#DejaVuSans-61" x="85.292969"/>
      <use xlink:href="#DejaVuSans-78" x="146.572266"/>
      <use xlink:href="#DejaVuSans-69" x="205.751953"/>
      <use xlink:href="#DejaVuSans-73" x="233.535156"/>
     </g>
    </g>
   </g>
  </g>
  <g id="axes_5">
   <g id="patch_17">
    <path d="M 2227.395781 287.65 
L 2632.395781 287.65 
L 2632.395781 38.17 
L 2227.395781 38.17 
z
" style="fill: #ffffff"/>
   </g>
   <g id="matplotlib.axis_9">
    <g id="xtick_21">
     <g id="line2d_66">
      <g>
       <use xlink:href="#m20ceef7767" x="2227.395781" y="287.65" style="stroke: #000000; stroke-width: 0.8"/>
      </g>
     </g>
     <g id="text_55">
      <!-- 0 -->
      <g transform="translate(2218.806406 315.165781) scale(0.27 -0.27)">
       <use xlink:href="#DejaVuSans-30"/>
      </g>
     </g>
    </g>
    <g id="xtick_22">
     <g id="line2d_67">
      <g>
       <use xlink:href="#m20ceef7767" x="2311.770781" y="287.65" style="stroke: #000000; stroke-width: 0.8"/>
      </g>
     </g>
     <g id="text_56">
      <!-- 25 -->
      <g transform="translate(2294.592031 315.165781) scale(0.27 -0.27)">
       <use xlink:href="#DejaVuSans-32"/>
       <use xlink:href="#DejaVuSans-35" x="63.623047"/>
      </g>
     </g>
    </g>
    <g id="xtick_23">
     <g id="line2d_68">
      <g>
       <use xlink:href="#m20ceef7767" x="2396.145781" y="287.65" style="stroke: #000000; stroke-width: 0.8"/>
      </g>
     </g>
     <g id="text_57">
      <!-- 50 -->
      <g transform="translate(2378.967031 315.165781) scale(0.27 -0.27)">
       <use xlink:href="#DejaVuSans-35"/>
       <use xlink:href="#DejaVuSans-30" x="63.623047"/>
      </g>
     </g>
    </g>
    <g id="xtick_24">
     <g id="line2d_69">
      <g>
       <use xlink:href="#m20ceef7767" x="2480.520781" y="287.65" style="stroke: #000000; stroke-width: 0.8"/>
      </g>
     </g>
     <g id="text_58">
      <!-- 75 -->
      <g transform="translate(2463.342031 315.165781) scale(0.27 -0.27)">
       <use xlink:href="#DejaVuSans-37"/>
       <use xlink:href="#DejaVuSans-35" x="63.623047"/>
      </g>
     </g>
    </g>
    <g id="xtick_25">
     <g id="line2d_70">
      <g>
       <use xlink:href="#m20ceef7767" x="2564.895781" y="287.65" style="stroke: #000000; stroke-width: 0.8"/>
      </g>
     </g>
     <g id="text_59">
      <!-- 100 -->
      <g transform="translate(2539.127656 315.165781) scale(0.27 -0.27)">
       <use xlink:href="#DejaVuSans-31"/>
       <use xlink:href="#DejaVuSans-30" x="63.623047"/>
       <use xlink:href="#DejaVuSans-30" x="127.246094"/>
      </g>
     </g>
    </g>
    <g id="text_60">
     <!-- Time [ms] -->
     <g transform="translate(2354.298125 347.57625) scale(0.3 -0.3)">
      <use xlink:href="#DejaVuSans-54"/>
      <use xlink:href="#DejaVuSans-69" x="57.958984"/>
      <use xlink:href="#DejaVuSans-6d" x="85.742188"/>
      <use xlink:href="#DejaVuSans-65" x="183.154297"/>
      <use xlink:href="#DejaVuSans-20" x="244.677734"/>
      <use xlink:href="#DejaVuSans-5b" x="276.464844"/>
      <use xlink:href="#DejaVuSans-6d" x="315.478516"/>
      <use xlink:href="#DejaVuSans-73" x="412.890625"/>
      <use xlink:href="#DejaVuSans-5d" x="464.990234"/>
     </g>
    </g>
   </g>
   <g id="matplotlib.axis_10">
    <g id="ytick_21">
     <g id="line2d_71">
      <g>
       <use xlink:href="#m6bf22b9011" x="2227.395781" y="276.31" style="stroke: #000000; stroke-width: 0.8"/>
      </g>
     </g>
     <g id="text_61">
      <!-- −1 -->
      <g transform="translate(2180.591875 286.567891) scale(0.27 -0.27)">
       <use xlink:href="#DejaVuSans-2212"/>
       <use xlink:href="#DejaVuSans-31" x="83.789062"/>
      </g>
     </g>
    </g>
    <g id="ytick_22">
     <g id="line2d_72">
      <g>
       <use xlink:href="#m6bf22b9011" x="2227.395781" y="162.91" style="stroke: #000000; stroke-width: 0.8"/>
      </g>
     </g>
     <g id="text_62">
      <!-- 0 -->
      <g transform="translate(2203.217031 173.167891) scale(0.27 -0.27)">
       <use xlink:href="#DejaVuSans-30"/>
      </g>
     </g>
    </g>
    <g id="ytick_23">
     <g id="line2d_73">
      <g>
       <use xlink:href="#m6bf22b9011" x="2227.395781" y="49.51" style="stroke: #000000; stroke-width: 0.8"/>
      </g>
     </g>
     <g id="text_63">
      <!-- 1 -->
      <g transform="translate(2203.217031 59.767891) scale(0.27 -0.27)">
       <use xlink:href="#DejaVuSans-31"/>
      </g>
     </g>
    </g>
    <g id="text_64">
     <!-- Normalized -->
     <g transform="translate(2170.352812 247.976406) rotate(-90) scale(0.3 -0.3)">
      <defs>
       <path id="DejaVuSans-6f" d="M 1959 3097 
Q 1497 3097 1228 2736 
Q 959 2375 959 1747 
Q 959 1119 1226 758 
Q 1494 397 1959 397 
Q 2419 397 2687 759 
Q 2956 1122 2956 1747 
Q 2956 2369 2687 2733 
Q 2419 3097 1959 3097 
z
M 1959 3584 
Q 2709 3584 3137 3096 
Q 3566 2609 3566 1747 
Q 3566 888 3137 398 
Q 2709 -91 1959 -91 
Q 1206 -91 779 398 
Q 353 888 353 1747 
Q 353 2609 779 3096 
Q 1206 3584 1959 3584 
z
" transform="scale(0.015625)"/>
       <path id="DejaVuSans-72" d="M 2631 2963 
Q 2534 3019 2420 3045 
Q 2306 3072 2169 3072 
Q 1681 3072 1420 2755 
Q 1159 2438 1159 1844 
L 1159 0 
L 581 0 
L 581 3500 
L 1159 3500 
L 1159 2956 
Q 1341 3275 1631 3429 
Q 1922 3584 2338 3584 
Q 2397 3584 2469 3576 
Q 2541 3569 2628 3553 
L 2631 2963 
z
" transform="scale(0.015625)"/>
       <path id="DejaVuSans-7a" d="M 353 3500 
L 3084 3500 
L 3084 2975 
L 922 459 
L 3084 459 
L 3084 0 
L 275 0 
L 275 525 
L 2438 3041 
L 353 3041 
L 353 3500 
z
" transform="scale(0.015625)"/>
       <path id="DejaVuSans-64" d="M 2906 2969 
L 2906 4863 
L 3481 4863 
L 3481 0 
L 2906 0 
L 2906 525 
Q 2725 213 2448 61 
Q 2172 -91 1784 -91 
Q 1150 -91 751 415 
Q 353 922 353 1747 
Q 353 2572 751 3078 
Q 1150 3584 1784 3584 
Q 2172 3584 2448 3432 
Q 2725 3281 2906 2969 
z
M 947 1747 
Q 947 1113 1208 752 
Q 1469 391 1925 391 
Q 2381 391 2643 752 
Q 2906 1113 2906 1747 
Q 2906 2381 2643 2742 
Q 2381 3103 1925 3103 
Q 1469 3103 1208 2742 
Q 947 2381 947 1747 
z
" transform="scale(0.015625)"/>
      </defs>
      <use xlink:href="#DejaVuSans-4e"/>
      <use xlink:href="#DejaVuSans-6f" x="74.804688"/>
      <use xlink:href="#DejaVuSans-72" x="135.986328"/>
      <use xlink:href="#DejaVuSans-6d" x="175.349609"/>
      <use xlink:href="#DejaVuSans-61" x="272.761719"/>
      <use xlink:href="#DejaVuSans-6c" x="334.041016"/>
      <use xlink:href="#DejaVuSans-69" x="361.824219"/>
      <use xlink:href="#DejaVuSans-7a" x="389.607422"/>
      <use xlink:href="#DejaVuSans-65" x="442.097656"/>
      <use xlink:href="#DejaVuSans-64" x="503.621094"/>
     </g>
    </g>
   </g>
   <g id="line2d_74">
    <path d="M 2227.395781 162.91 
L 2632.395781 162.91 
" clip-path="url(#p05c844048b)" style="fill: none; stroke: #d3d3d3; stroke-opacity: 0.8; stroke-width: 1.5; stroke-linecap: square"/>
   </g>
   <g id="line2d_75">
    <path d="M 2227.395781 162.91 
L 2237.520781 162.91 
L 2238.195781 163.477337 
L 2238.870781 164.396126 
L 2240.220781 166.904995 
L 2241.570781 169.863714 
L 2242.920781 173.252235 
L 2244.945781 179.133159 
L 2246.970781 185.963568 
L 2248.995781 193.735852 
L 2266.545781 263.739495 
L 2267.895781 267.678536 
L 2269.245781 270.569346 
L 2270.595781 272.592951 
L 2271.945781 274.144152 
L 2273.295781 275.294883 
L 2274.645781 276.006988 
L 2275.995781 276.31 
L 2277.345781 276.19639 
L 2278.695781 275.668748 
L 2280.045781 274.725444 
L 2281.395781 273.369547 
L 2282.745781 271.614008 
L 2284.095781 269.443638 
L 2285.445781 266.873467 
L 2286.795781 263.885993 
L 2288.820781 258.650143 
L 2290.845781 252.468807 
L 2292.870781 245.362822 
L 2295.570781 234.72291 
L 2321.895781 129.869098 
L 2323.245781 126.052915 
L 2324.595781 123.22172 
L 2325.945781 121.194424 
L 2327.295781 119.614283 
L 2328.645781 118.450856 
L 2329.995781 117.702827 
L 2331.345781 117.369362 
L 2334.045781 117.334397 
L 2359.020781 117.334397 
L 2359.695781 117.701777 
L 2360.370781 118.324166 
L 2361.045781 119.1772 
L 2362.395781 121.504204 
L 2363.745781 124.337348 
L 2365.095781 127.594789 
L 2366.445781 131.273886 
L 2368.470781 137.578608 
L 2373.195781 153.659563 
L 2374.545781 156.642684 
L 2375.895781 158.810163 
L 2376.570781 159.605586 
L 2377.245781 160.215208 
L 2377.920781 160.642543 
L 2378.595781 160.890574 
L 2379.945781 160.964825 
L 2381.295781 160.608551 
L 2382.645781 159.825353 
L 2383.995781 158.61823 
L 2385.345781 156.98963 
L 2386.695781 154.941582 
L 2388.045781 152.475749 
L 2389.395781 149.593583 
L 2390.745781 146.296253 
L 2392.770781 140.573623 
L 2394.795781 133.921486 
L 2396.820781 126.341598 
L 2406.945781 86.028287 
L 2408.295781 81.800017 
L 2409.645781 78.449714 
L 2410.995781 75.861255 
L 2412.345781 73.999621 
L 2413.695781 72.808019 
L 2415.045781 72.073065 
L 2416.395781 71.758794 
L 2417.070781 71.758794 
L 2417.070781 71.758794 
" clip-path="url(#p05c844048b)" style="fill: none; stroke: #e41a1c; stroke-width: 5; stroke-linecap: square"/>
   </g>
   <g id="line2d_76">
    <path d="M 2227.395781 162.91 
L 2238.870781 163.013267 
L 2241.570781 163.461447 
L 2244.270781 164.171483 
L 2246.295781 164.90787 
L 2248.320781 165.844453 
L 2251.695781 167.760032 
L 2255.070781 169.957315 
L 2258.445781 172.436303 
L 2261.820781 175.196998 
L 2265.195781 178.239405 
L 2267.220781 180.043081 
L 2268.570781 180.899151 
L 2269.920781 181.53125 
L 2271.945781 182.204081 
L 2273.970781 182.645557 
L 2275.995781 182.825802 
L 2278.020781 182.722958 
L 2280.045781 182.317987 
L 2282.070781 181.586997 
L 2284.095781 180.510571 
L 2286.120781 179.067634 
L 2288.145781 177.229498 
L 2290.170781 174.972784 
L 2292.195781 172.271452 
L 2294.220781 169.106515 
L 2298.270781 162.176595 
L 2302.320781 154.841055 
L 2306.370781 147.099854 
L 2311.095781 137.555747 
L 2315.820781 127.459502 
L 2320.545781 116.811799 
L 2321.895781 113.810293 
L 2323.245781 111.552967 
L 2324.595781 109.854642 
L 2325.945781 108.621529 
L 2327.295781 107.647186 
L 2328.645781 106.920123 
L 2329.995781 106.446478 
L 2331.345781 106.232661 
L 2334.720781 106.21 
L 2359.020781 106.21 
L 2359.695781 106.511088 
L 2360.370781 107.023772 
L 2361.045781 107.730013 
L 2362.395781 109.671561 
L 2363.745781 112.058853 
L 2365.095781 114.830876 
L 2366.445781 117.992459 
L 2368.470781 123.476741 
L 2371.170781 131.884635 
L 2372.520781 136.145291 
L 2373.870781 139.242599 
L 2375.220781 141.587249 
L 2376.570781 143.229089 
L 2377.245781 143.794983 
L 2377.920781 144.193452 
L 2378.595781 144.425766 
L 2379.945781 144.495551 
L 2381.295781 144.156415 
L 2382.645781 143.404612 
L 2383.995781 142.235905 
L 2385.345781 140.645591 
L 2386.695781 138.628621 
L 2388.045781 136.17963 
L 2389.395781 133.293084 
L 2390.745781 129.963199 
L 2392.095781 126.183878 
L 2394.120781 119.658847 
L 2396.145781 112.087925 
L 2399.520781 97.90218 
L 2405.595781 71.534965 
L 2406.945781 65.672666 
L 2408.295781 60.943818 
L 2409.645781 57.168819 
L 2410.995781 54.230661 
L 2412.345781 52.102047 
L 2413.695781 50.729644 
L 2415.045781 49.877069 
L 2415.720781 49.632563 
L 2416.395781 49.51 
L 2417.070781 49.51 
L 2417.070781 49.51 
" clip-path="url(#p05c844048b)" style="fill: none; stroke: #377eb8; stroke-width: 5; stroke-linecap: square"/>
   </g>
   <g id="line2d_77">
    <path d="M 2227.395781 162.91 
L 2243.595781 163.013418 
L 2248.995781 163.315177 
L 2254.395781 163.877241 
L 2259.120781 164.590589 
L 2263.845781 165.548464 
L 2268.570781 166.600534 
L 2271.945781 166.988226 
L 2275.320781 167.176625 
L 2278.020781 167.1515 
L 2280.720781 166.929793 
L 2283.420781 166.472331 
L 2286.120781 165.737077 
L 2288.145781 164.974042 
L 2290.170781 164.005719 
L 2292.195781 162.808918 
L 2294.220781 161.362516 
L 2297.595781 158.629403 
L 2300.970781 155.621842 
L 2304.345781 152.326678 
L 2307.720781 148.730779 
L 2311.095781 144.821022 
L 2314.470781 140.58427 
L 2317.845781 136.007401 
L 2322.570781 129.347191 
L 2323.920781 128.042502 
L 2325.270781 127.073639 
L 2327.295781 126.010433 
L 2328.645781 125.503864 
L 2329.995781 125.169498 
L 2331.345781 125.016648 
L 2336.070781 125.000274 
L 2359.020781 125.000274 
L 2359.695781 125.27538 
L 2360.370781 125.746212 
L 2361.045781 126.398093 
L 2362.395781 128.204148 
L 2363.745781 130.446862 
L 2365.095781 133.07682 
L 2366.445781 136.10582 
L 2367.795781 139.546141 
L 2369.820781 145.492322 
L 2372.520781 153.975574 
L 2373.870781 157.101139 
L 2375.220781 159.488969 
L 2376.570781 161.176246 
L 2377.245781 161.761896 
L 2377.920781 162.176134 
L 2378.595781 162.418725 
L 2379.945781 162.491847 
L 2381.295781 162.131936 
L 2382.645781 161.32736 
L 2383.995781 160.065849 
L 2385.345781 158.334511 
L 2386.695781 156.11994 
L 2388.045781 153.408241 
L 2389.395781 150.185178 
L 2390.745781 146.436081 
L 2392.095781 142.145761 
L 2393.445781 137.298875 
L 2395.470781 128.950702 
L 2397.495781 119.307406 
L 2402.220781 95.207977 
L 2407.620781 66.79563 
L 2408.970781 61.525525 
L 2410.320781 57.299183 
L 2411.670781 54.084525 
L 2412.345781 52.852866 
L 2413.020781 51.871601 
L 2414.370781 50.462175 
L 2415.045781 49.987994 
L 2415.720781 49.669981 
L 2416.395781 49.51 
L 2417.070781 49.51 
L 2417.070781 49.51 
" clip-path="url(#p05c844048b)" style="fill: none; stroke: #4daf4a; stroke-width: 5; stroke-linecap: square"/>
   </g>
   <g id="line2d_78">
    <path d="M 2227.395781 162.91 
L 2632.395781 162.91 
" clip-path="url(#p05c844048b)" style="fill: none; stroke: #000000; stroke-opacity: 0.5; stroke-linecap: square"/>
   </g>
   <g id="line2d_79">
    <path d="M 2227.395781 162.91 
L 2632.395781 162.91 
" clip-path="url(#p05c844048b)" style="fill: none; stroke: #000000; stroke-width: 5; stroke-linecap: square"/>
   </g>
   <g id="patch_18">
    <path d="M 2227.395781 287.65 
L 2227.395781 38.17 
" style="fill: none; stroke: #000000; stroke-width: 0.8; stroke-linejoin: miter; stroke-linecap: square"/>
   </g>
   <g id="patch_19">
    <path d="M 2227.395781 287.65 
L 2632.395781 287.65 
" style="fill: none; stroke: #000000; stroke-width: 0.8; stroke-linejoin: miter; stroke-linecap: square"/>
   </g>
   <g id="text_65">
    <!-- Moments -->
    <g transform="translate(2356.123281 31.515) scale(0.32 -0.32)">
     <defs>
      <path id="DejaVuSans-4d" d="M 628 4666 
L 1569 4666 
L 2759 1491 
L 3956 4666 
L 4897 4666 
L 4897 0 
L 4281 0 
L 4281 4097 
L 3078 897 
L 2444 897 
L 1241 4097 
L 1241 0 
L 628 0 
L 628 4666 
z
" transform="scale(0.015625)"/>
     </defs>
     <use xlink:href="#DejaVuSans-4d"/>
     <use xlink:href="#DejaVuSans-6f" x="86.279297"/>
     <use xlink:href="#DejaVuSans-6d" x="147.460938"/>
     <use xlink:href="#DejaVuSans-65" x="244.873047"/>
     <use xlink:href="#DejaVuSans-6e" x="306.396484"/>
     <use xlink:href="#DejaVuSans-74" x="369.775391"/>
     <use xlink:href="#DejaVuSans-73" x="408.984375"/>
    </g>
   </g>
   <g id="legend_4">
    <g id="patch_20">
     <path d="M 2513.616406 276.65 
L 2616.995781 276.65 
Q 2621.395781 276.65 2621.395781 272.25 
L 2621.395781 177.574375 
Q 2621.395781 173.174375 2616.995781 173.174375 
L 2513.616406 173.174375 
Q 2509.216406 173.174375 2509.216406 177.574375 
L 2509.216406 272.25 
Q 2509.216406 276.65 2513.616406 276.65 
z
" style="fill: #ffffff; opacity: 0.2; stroke: #cccccc; stroke-linejoin: miter"/>
    </g>
    <g id="line2d_80">
     <path d="M 2518.016406 190.990938 
L 2540.016406 190.990938 
L 2562.016406 190.990938 
" style="fill: none; stroke: #e41a1c; stroke-width: 5; stroke-linecap: square"/>
    </g>
    <g id="text_66">
     <!-- M0 -->
     <g transform="translate(2579.616406 198.690938) scale(0.22 -0.22)">
      <use xlink:href="#DejaVuSans-4d"/>
      <use xlink:href="#DejaVuSans-30" x="86.279297"/>
     </g>
    </g>
    <g id="line2d_81">
     <path d="M 2518.016406 223.282813 
L 2540.016406 223.282813 
L 2562.016406 223.282813 
" style="fill: none; stroke: #377eb8; stroke-width: 5; stroke-linecap: square"/>
    </g>
    <g id="text_67">
     <!-- M1 -->
     <g transform="translate(2579.616406 230.982813) scale(0.22 -0.22)">
      <use xlink:href="#DejaVuSans-4d"/>
      <use xlink:href="#DejaVuSans-31" x="86.279297"/>
     </g>
    </g>
    <g id="line2d_82">
     <path d="M 2518.016406 255.574688 
L 2540.016406 255.574688 
L 2562.016406 255.574688 
" style="fill: none; stroke: #4daf4a; stroke-width: 5; stroke-linecap: square"/>
    </g>
    <g id="text_68">
     <!-- M2 -->
     <g transform="translate(2579.616406 263.274688) scale(0.22 -0.22)">
      <use xlink:href="#DejaVuSans-4d"/>
      <use xlink:href="#DejaVuSans-32" x="86.279297"/>
     </g>
    </g>
   </g>
  </g>
 </g>
 <defs>
  <clipPath id="pea5fd04055">
   <rect x="121.395781" y="38.17" width="405" height="249.48"/>
  </clipPath>
  <clipPath id="p893612059b">
   <rect x="647.895781" y="38.17" width="405" height="249.48"/>
  </clipPath>
  <clipPath id="p5e6311c733">
   <rect x="1174.395781" y="38.17" width="405" height="249.48"/>
  </clipPath>
  <clipPath id="p508287c7b4">
   <rect x="1700.895781" y="38.17" width="405" height="249.48"/>
  </clipPath>
  <clipPath id="p05c844048b">
   <rect x="2227.395781" y="38.17" width="405" height="249.48"/>
  </clipPath>
 </defs>
</svg>
