<?xml version="1.0" encoding="utf-8" standalone="no"?>
<!DOCTYPE svg PUBLIC "-//W3C//DTD SVG 1.1//EN"
  "http://www.w3.org/Graphics/SVG/1.1/DTD/svg11.dtd">
<svg xmlns:xlink="http://www.w3.org/1999/xlink" width="2137.395781pt" height="361.015312pt" viewBox="0 0 2137.395781 361.015312" xmlns="http://www.w3.org/2000/svg" version="1.1">
 <metadata>
  <rdf:RDF xmlns:dc="http://purl.org/dc/elements/1.1/" xmlns:cc="http://creativecommons.org/ns#" xmlns:rdf="http://www.w3.org/1999/02/22-rdf-syntax-ns#">
   <cc:Work>
    <dc:type rdf:resource="http://purl.org/dc/dcmitype/StillImage"/>
    <dc:date>2026-01-22T17:33:56.142569</dc:date>
    <dc:format>image/svg+xml</dc:format>
    <dc:creator>
     <cc:Agent>
      <dc:title>Matplotlib v3.9.0, https://matplotlib.org/</dc:title>
     </cc:Agent>
    </dc:creator>
   </cc:Work>
  </rdf:RDF>
 </metadata>
 <defs>
  <style type="text/css">*{stroke-linejoin: round; stroke-linecap: butt}</style>
 </defs>
 <g id="figure_1">
  <g id="patch_1">
   <path d="M 0 361.015312 
L 2137.395781 361.015312 
L 2137.395781 0 
L 0 0 
z
" style="fill: #ffffff"/>
  </g>
  <g id="axes_1">
   <g id="patch_2">
    <path d="M 121.395781 287.65 
L 531.354965 287.65 
L 531.354965 38.17 
L 121.395781 38.17 
z
" style="fill: #ffffff"/>
   </g>
   <g id="PolyCollection_1">
    <defs>
     <path id="mb6cd31925b" d="M 121.395781 -198.105312 
L 121.395781 -198.105312 
L 122.2157 -198.105312 
L 123.035618 -198.105312 
L 123.855536 -198.105312 
L 124.675455 -198.105312 
L 125.495373 -198.105312 
L 126.315291 -198.105312 
L 127.13521 -198.105312 
L 127.955128 -198.105312 
L 128.775047 -198.105312 
L 129.594965 -198.105312 
L 130.414883 -198.105312 
L 131.234802 -198.105312 
L 132.05472 -198.105312 
L 132.874638 -198.105312 
L 133.694557 -198.105312 
L 134.514475 -198.105312 
L 135.334393 -198.105312 
L 136.154312 -198.105312 
L 136.97423 -198.105312 
L 137.794149 -198.105312 
L 138.614067 -198.105312 
L 139.433985 -198.105312 
L 140.253904 -198.105312 
L 141.073822 -198.105312 
L 141.89374 -198.105312 
L 142.713659 -198.105312 
L 143.533577 -198.105312 
L 144.353496 -198.105312 
L 145.173414 -198.105312 
L 145.993332 -198.105312 
L 146.813251 -198.105312 
L 147.633169 -198.105312 
L 148.453087 -198.105312 
L 149.273006 -198.105312 
L 150.092924 -198.105312 
L 150.912842 -198.105312 
L 151.732761 -198.105312 
L 152.552679 -198.105312 
L 153.372598 -198.105312 
L 154.192516 -198.105312 
L 155.012434 -198.105312 
L 155.832353 -198.105312 
L 156.652271 -198.105312 
L 157.472189 -198.105312 
L 158.292108 -198.105312 
L 159.112026 -198.105312 
L 159.931945 -198.105312 
L 160.751863 -198.105312 
L 161.571781 -198.105312 
L 162.3917 -198.105312 
L 163.211618 -198.105312 
L 164.031536 -198.105312 
L 164.851455 -198.105312 
L 165.671373 -198.105312 
L 166.491291 -198.105312 
L 167.31121 -198.105312 
L 168.131128 -198.105312 
L 168.951047 -198.105312 
L 169.770965 -198.105312 
L 170.590883 -198.105312 
L 171.410802 -198.105312 
L 172.23072 -198.105312 
L 173.050638 -198.105312 
L 173.870557 -198.105312 
L 174.690475 -198.105312 
L 175.510393 -198.105312 
L 176.330312 -198.105312 
L 177.15023 -198.105312 
L 177.970149 -198.105312 
L 178.790067 -198.105312 
L 179.609985 -198.105312 
L 180.429904 -198.105312 
L 181.249822 -198.105312 
L 182.06974 -198.105312 
L 182.889659 -198.105312 
L 183.709577 -198.105312 
L 184.529496 -198.105312 
L 185.349414 -198.105312 
L 186.169332 -198.105312 
L 186.989251 -198.105312 
L 187.809169 -198.105312 
L 188.629087 -198.105312 
L 189.449006 -198.105312 
L 190.268924 -198.105312 
L 191.088842 -198.105312 
L 191.908761 -198.105312 
L 192.728679 -198.105312 
L 193.548598 -198.105312 
L 194.368516 -198.105312 
L 195.188434 -198.105312 
L 196.008353 -198.105312 
L 196.828271 -198.105312 
L 197.648189 -198.105312 
L 198.468108 -198.105312 
L 199.288026 -198.105312 
L 200.107945 -198.105312 
L 200.927863 -198.105312 
L 201.747781 -198.105312 
L 202.5677 -198.105312 
L 203.387618 -198.105312 
L 204.207536 -198.105312 
L 205.027455 -198.105312 
L 205.847373 -198.105312 
L 206.667291 -198.105312 
L 207.48721 -198.105312 
L 208.307128 -198.105312 
L 209.127047 -198.105312 
L 209.946965 -198.105312 
L 210.766883 -198.105312 
L 211.586802 -198.105312 
L 212.40672 -198.105312 
L 213.226638 -198.105312 
L 214.046557 -198.105312 
L 214.866475 -198.105312 
L 215.686393 -198.105312 
L 216.506312 -198.105312 
L 217.32623 -198.105312 
L 218.146149 -198.105312 
L 218.966067 -198.105312 
L 219.785985 -198.105312 
L 220.605904 -198.105312 
L 221.425822 -198.105312 
L 222.24574 -198.105312 
L 223.065659 -198.105312 
L 223.885577 -198.105312 
L 224.705496 -198.105312 
L 225.525414 -198.105312 
L 226.345332 -198.105312 
L 227.165251 -198.105312 
L 227.985169 -198.105312 
L 228.805087 -198.105312 
L 229.625006 -198.105312 
L 230.444924 -198.105312 
L 231.264842 -198.105312 
L 232.084761 -198.105312 
L 232.904679 -198.105312 
L 233.724598 -198.105312 
L 234.544516 -198.105312 
L 235.364434 -198.105312 
L 236.184353 -198.105312 
L 237.004271 -198.105312 
L 237.824189 -198.105312 
L 238.644108 -198.105312 
L 239.464026 -198.105312 
L 240.283945 -198.105312 
L 241.103863 -198.105312 
L 241.923781 -198.105312 
L 242.7437 -198.105312 
L 243.563618 -198.105312 
L 244.383536 -198.105312 
L 245.203455 -198.105312 
L 246.023373 -198.105312 
L 246.843291 -198.105312 
L 247.66321 -198.105312 
L 248.483128 -198.105312 
L 249.303047 -198.105312 
L 250.122965 -198.105312 
L 250.942883 -198.105312 
L 251.762802 -198.105312 
L 252.58272 -198.105312 
L 253.402638 -198.105312 
L 254.222557 -198.105312 
L 255.042475 -198.105312 
L 255.862393 -198.105312 
L 256.682312 -198.105312 
L 257.50223 -198.105312 
L 258.322149 -198.105312 
L 259.142067 -198.105312 
L 259.961985 -198.105312 
L 260.781904 -198.105312 
L 261.601822 -198.105312 
L 262.42174 -198.105312 
L 263.241659 -198.105312 
L 264.061577 -198.105312 
L 264.881496 -198.105312 
L 265.701414 -198.105312 
L 266.521332 -198.105312 
L 267.341251 -198.105312 
L 268.161169 -198.105312 
L 268.981087 -198.105312 
L 269.801006 -198.105312 
L 270.620924 -198.105312 
L 271.440842 -198.105312 
L 272.260761 -198.105312 
L 273.080679 -198.105312 
L 273.900598 -198.105312 
L 274.720516 -198.105312 
L 275.540434 -198.105312 
L 276.360353 -198.105312 
L 277.180271 -198.105312 
L 278.000189 -198.105312 
L 278.820108 -198.105312 
L 279.640026 -198.105312 
L 280.459945 -198.105312 
L 281.279863 -198.105312 
L 282.099781 -198.105312 
L 282.9197 -198.105312 
L 283.739618 -198.105312 
L 284.559536 -198.105312 
L 285.379455 -198.105312 
L 286.199373 -198.105312 
L 287.019291 -198.105312 
L 287.83921 -198.105312 
L 288.659128 -198.105312 
L 289.479047 -198.105312 
L 289.479047 -198.105312 
L 289.479047 -198.105312 
L 288.659128 -194.80867 
L 287.83921 -182.228839 
L 287.019291 -183.217483 
L 286.199373 -187.891685 
L 285.379455 -192.385259 
L 284.559536 -196.883199 
L 283.739618 -201.409234 
L 282.9197 -205.960493 
L 282.099781 -211.38822 
L 281.279863 -218.505547 
L 280.459945 -225.680172 
L 279.640026 -232.943611 
L 278.820108 -240.320067 
L 278.000189 -247.862188 
L 277.180271 -255.574509 
L 276.360353 -263.797292 
L 275.540434 -272.894611 
L 274.720516 -282.429777 
L 273.900598 -291.338816 
L 273.080679 -297.880263 
L 272.260761 -301.440891 
L 271.440842 -301.013141 
L 270.620924 -300.794866 
L 269.801006 -300.572913 
L 268.981087 -300.301739 
L 268.161169 -299.748688 
L 267.341251 -294.628375 
L 266.521332 -289.921664 
L 265.701414 -285.163132 
L 264.881496 -280.349237 
L 264.061577 -275.479662 
L 263.241659 -270.555026 
L 262.42174 -265.576114 
L 261.601822 -260.543865 
L 260.781904 -255.453305 
L 259.961985 -250.334098 
L 259.142067 -244.388205 
L 258.322149 -237.659932 
L 257.50223 -229.042732 
L 256.682312 -220.195559 
L 255.862393 -211.033476 
L 255.042475 -201.440001 
L 254.222557 -188.817466 
L 253.402638 -175.912986 
L 252.58272 -165.815842 
L 251.762802 -156.636726 
L 250.942883 -157.668483 
L 250.122965 -166.179987 
L 249.303047 -175.569046 
L 248.483128 -198.105312 
L 247.66321 -198.105312 
L 246.843291 -198.105312 
L 246.023373 -198.105312 
L 245.203455 -198.105312 
L 244.383536 -198.105312 
L 243.563618 -198.105312 
L 242.7437 -198.105312 
L 241.923781 -198.105312 
L 241.103863 -198.105312 
L 240.283945 -198.105312 
L 239.464026 -198.105312 
L 238.644108 -198.105312 
L 237.824189 -198.105312 
L 237.004271 -198.105312 
L 236.184353 -198.105312 
L 235.364434 -198.105312 
L 234.544516 -198.105312 
L 233.724598 -198.105312 
L 232.904679 -198.105312 
L 232.084761 -198.105312 
L 231.264842 -198.105312 
L 230.444924 -198.105312 
L 229.625006 -198.105312 
L 228.805087 -198.105312 
L 227.985169 -198.105312 
L 227.165251 -198.105312 
L 226.345332 -198.105312 
L 225.525414 -198.105312 
L 224.705496 -198.105312 
L 223.885577 -198.105312 
L 223.065659 -198.105312 
L 222.24574 -198.105312 
L 221.425822 -198.105312 
L 220.605904 -198.105312 
L 219.785985 -198.105312 
L 218.966067 -198.105312 
L 218.146149 -198.265377 
L 217.32623 -202.841126 
L 216.506312 -208.336872 
L 215.686393 -213.848509 
L 214.866475 -220.313188 
L 214.046557 -227.09813 
L 213.226638 -239.051949 
L 212.40672 -250.121332 
L 211.586802 -262.253711 
L 210.766883 -271.782841 
L 209.946965 -287.984714 
L 209.127047 -312.538955 
L 208.307128 -312.578898 
L 207.48721 -314.435739 
L 206.667291 -314.777275 
L 205.847373 -314.792113 
L 205.027455 -314.793515 
L 204.207536 -314.782688 
L 203.387618 -314.823505 
L 202.5677 -314.811578 
L 201.747781 -314.815593 
L 200.927863 -314.804474 
L 200.107945 -314.83058 
L 199.288026 -314.81998 
L 198.468108 -314.809937 
L 197.648189 -314.813411 
L 196.828271 -314.824786 
L 196.008353 -314.824905 
L 195.188434 -314.812225 
L 194.368516 -314.808214 
L 193.548598 -314.824714 
L 192.728679 -314.820198 
L 191.908761 -314.813569 
L 191.088842 -314.81281 
L 190.268924 -314.813067 
L 189.449006 -314.811073 
L 188.629087 -314.813837 
L 187.809169 -314.800503 
L 186.989251 -314.821123 
L 186.169332 -314.810227 
L 185.349414 -314.875377 
L 184.529496 -314.834717 
L 183.709577 -312.390231 
L 182.889659 -308.659797 
L 182.06974 -303.24978 
L 181.249822 -297.835761 
L 180.429904 -292.419467 
L 179.609985 -287.005647 
L 178.790067 -281.579986 
L 177.970149 -276.153335 
L 177.15023 -270.726263 
L 176.330312 -265.29099 
L 175.510393 -259.855735 
L 174.690475 -254.409341 
L 173.870557 -248.963807 
L 173.050638 -243.506806 
L 172.23072 -238.048232 
L 171.410802 -232.575079 
L 170.590883 -227.103676 
L 169.770965 -221.549585 
L 168.951047 -216.12713 
L 168.131128 -210.195489 
L 167.31121 -204.469515 
L 166.491291 -198.248757 
L 165.671373 -192.192078 
L 164.851455 -185.963657 
L 164.031536 -181.245851 
L 163.211618 -168.741153 
L 162.3917 -166.228859 
L 161.571781 -153.668061 
L 160.751863 -142.341253 
L 159.931945 -128.027941 
L 159.112026 -120.387678 
L 158.292108 -99.168177 
L 157.472189 -85.746746 
L 156.652271 -85.607516 
L 155.832353 -83.92017 
L 155.012434 -82.676778 
L 154.192516 -81.697555 
L 153.372598 -81.389383 
L 152.552679 -81.414454 
L 151.732761 -81.412772 
L 150.912842 -81.420721 
L 150.092924 -81.44962 
L 149.273006 -81.412984 
L 148.453087 -81.4138 
L 147.633169 -81.383908 
L 146.813251 -81.255879 
L 145.993332 -81.193906 
L 145.173414 -81.316919 
L 144.353496 -81.3223 
L 143.533577 -84.478535 
L 142.713659 -90.026462 
L 141.89374 -95.591867 
L 141.073822 -101.175109 
L 140.253904 -106.779778 
L 139.433985 -112.407237 
L 138.614067 -118.058671 
L 137.794149 -123.736463 
L 136.97423 -129.447563 
L 136.154312 -137.493052 
L 135.334393 -151.988055 
L 134.514475 -173.529315 
L 133.694557 -198.105312 
L 132.874638 -198.105312 
L 132.05472 -198.105312 
L 131.234802 -198.105312 
L 130.414883 -198.105312 
L 129.594965 -198.105312 
L 128.775047 -198.105312 
L 127.955128 -198.105312 
L 127.13521 -198.105312 
L 126.315291 -198.105312 
L 125.495373 -198.105312 
L 124.675455 -198.105312 
L 123.855536 -198.105312 
L 123.035618 -198.105312 
L 122.2157 -198.105312 
L 121.395781 -198.105312 
z
" style="stroke: #0173b2; stroke-opacity: 0.75"/>
    </defs>
    <g clip-path="url(#pe50920a3c3)">
     <use xlink:href="#mb6cd31925b" x="0" y="361.015312" style="fill: #0173b2; fill-opacity: 0.75; stroke: #0173b2; stroke-opacity: 0.75"/>
    </g>
   </g>
   <g id="matplotlib.axis_1">
    <g id="xtick_1">
     <g id="line2d_1">
      <defs>
       <path id="m188a97a17e" d="M 0 0 
L 0 3.5 
" style="stroke: #000000; stroke-width: 0.8"/>
      </defs>
      <g>
       <use xlink:href="#m188a97a17e" x="121.395781" y="287.65" style="stroke: #000000; stroke-width: 0.8"/>
      </g>
     </g>
     <g id="text_1">
      <!-- 0 -->
      <g transform="translate(112.806406 315.165781) scale(0.27 -0.27)">
       <defs>
        <path id="DejaVuSans-30" d="M 2034 4250 
Q 1547 4250 1301 3770 
Q 1056 3291 1056 2328 
Q 1056 1369 1301 889 
Q 1547 409 2034 409 
Q 2525 409 2770 889 
Q 3016 1369 3016 2328 
Q 3016 3291 2770 3770 
Q 2525 4250 2034 4250 
z
M 2034 4750 
Q 2819 4750 3233 4129 
Q 3647 3509 3647 2328 
Q 3647 1150 3233 529 
Q 2819 -91 2034 -91 
Q 1250 -91 836 529 
Q 422 1150 422 2328 
Q 422 3509 836 4129 
Q 1250 4750 2034 4750 
z
" transform="scale(0.015625)"/>
       </defs>
       <use xlink:href="#DejaVuSans-30"/>
      </g>
     </g>
    </g>
    <g id="xtick_2">
     <g id="line2d_2">
      <g>
       <use xlink:href="#m188a97a17e" x="223.885577" y="287.65" style="stroke: #000000; stroke-width: 0.8"/>
      </g>
     </g>
     <g id="text_2">
      <!-- 25 -->
      <g transform="translate(206.706827 315.165781) scale(0.27 -0.27)">
       <defs>
        <path id="DejaVuSans-32" d="M 1228 531 
L 3431 531 
L 3431 0 
L 469 0 
L 469 531 
Q 828 903 1448 1529 
Q 2069 2156 2228 2338 
Q 2531 2678 2651 2914 
Q 2772 3150 2772 3378 
Q 2772 3750 2511 3984 
Q 2250 4219 1831 4219 
Q 1534 4219 1204 4116 
Q 875 4013 500 3803 
L 500 4441 
Q 881 4594 1212 4672 
Q 1544 4750 1819 4750 
Q 2544 4750 2975 4387 
Q 3406 4025 3406 3419 
Q 3406 3131 3298 2873 
Q 3191 2616 2906 2266 
Q 2828 2175 2409 1742 
Q 1991 1309 1228 531 
z
" transform="scale(0.015625)"/>
        <path id="DejaVuSans-35" d="M 691 4666 
L 3169 4666 
L 3169 4134 
L 1269 4134 
L 1269 2991 
Q 1406 3038 1543 3061 
Q 1681 3084 1819 3084 
Q 2600 3084 3056 2656 
Q 3513 2228 3513 1497 
Q 3513 744 3044 326 
Q 2575 -91 1722 -91 
Q 1428 -91 1123 -41 
Q 819 9 494 109 
L 494 744 
Q 775 591 1075 516 
Q 1375 441 1709 441 
Q 2250 441 2565 725 
Q 2881 1009 2881 1497 
Q 2881 1984 2565 2268 
Q 2250 2553 1709 2553 
Q 1456 2553 1204 2497 
Q 953 2441 691 2322 
L 691 4666 
z
" transform="scale(0.015625)"/>
       </defs>
       <use xlink:href="#DejaVuSans-32"/>
       <use xlink:href="#DejaVuSans-35" x="63.623047"/>
      </g>
     </g>
    </g>
    <g id="xtick_3">
     <g id="line2d_3">
      <g>
       <use xlink:href="#m188a97a17e" x="326.375373" y="287.65" style="stroke: #000000; stroke-width: 0.8"/>
      </g>
     </g>
     <g id="text_3">
      <!-- 50 -->
      <g transform="translate(309.196623 315.165781) scale(0.27 -0.27)">
       <use xlink:href="#DejaVuSans-35"/>
       <use xlink:href="#DejaVuSans-30" x="63.623047"/>
      </g>
     </g>
    </g>
    <g id="xtick_4">
     <g id="line2d_4">
      <g>
       <use xlink:href="#m188a97a17e" x="428.865169" y="287.65" style="stroke: #000000; stroke-width: 0.8"/>
      </g>
     </g>
     <g id="text_4">
      <!-- 75 -->
      <g transform="translate(411.686419 315.165781) scale(0.27 -0.27)">
       <defs>
        <path id="DejaVuSans-37" d="M 525 4666 
L 3525 4666 
L 3525 4397 
L 1831 0 
L 1172 0 
L 2766 4134 
L 525 4134 
L 525 4666 
z
" transform="scale(0.015625)"/>
       </defs>
       <use xlink:href="#DejaVuSans-37"/>
       <use xlink:href="#DejaVuSans-35" x="63.623047"/>
      </g>
     </g>
    </g>
    <g id="text_5">
     <!-- Time [ms] -->
     <g transform="translate(250.777717 347.57625) scale(0.3 -0.3)">
      <defs>
       <path id="DejaVuSans-54" d="M -19 4666 
L 3928 4666 
L 3928 4134 
L 2272 4134 
L 2272 0 
L 1638 0 
L 1638 4134 
L -19 4134 
L -19 4666 
z
" transform="scale(0.015625)"/>
       <path id="DejaVuSans-69" d="M 603 3500 
L 1178 3500 
L 1178 0 
L 603 0 
L 603 3500 
z
M 603 4863 
L 1178 4863 
L 1178 4134 
L 603 4134 
L 603 4863 
z
" transform="scale(0.015625)"/>
       <path id="DejaVuSans-6d" d="M 3328 2828 
Q 3544 3216 3844 3400 
Q 4144 3584 4550 3584 
Q 5097 3584 5394 3201 
Q 5691 2819 5691 2113 
L 5691 0 
L 5113 0 
L 5113 2094 
Q 5113 2597 4934 2840 
Q 4756 3084 4391 3084 
Q 3944 3084 3684 2787 
Q 3425 2491 3425 1978 
L 3425 0 
L 2847 0 
L 2847 2094 
Q 2847 2600 2669 2842 
Q 2491 3084 2119 3084 
Q 1678 3084 1418 2786 
Q 1159 2488 1159 1978 
L 1159 0 
L 581 0 
L 581 3500 
L 1159 3500 
L 1159 2956 
Q 1356 3278 1631 3431 
Q 1906 3584 2284 3584 
Q 2666 3584 2933 3390 
Q 3200 3197 3328 2828 
z
" transform="scale(0.015625)"/>
       <path id="DejaVuSans-65" d="M 3597 1894 
L 3597 1613 
L 953 1613 
Q 991 1019 1311 708 
Q 1631 397 2203 397 
Q 2534 397 2845 478 
Q 3156 559 3463 722 
L 3463 178 
Q 3153 47 2828 -22 
Q 2503 -91 2169 -91 
Q 1331 -91 842 396 
Q 353 884 353 1716 
Q 353 2575 817 3079 
Q 1281 3584 2069 3584 
Q 2775 3584 3186 3129 
Q 3597 2675 3597 1894 
z
M 3022 2063 
Q 3016 2534 2758 2815 
Q 2500 3097 2075 3097 
Q 1594 3097 1305 2825 
Q 1016 2553 972 2059 
L 3022 2063 
z
" transform="scale(0.015625)"/>
       <path id="DejaVuSans-20" transform="scale(0.015625)"/>
       <path id="DejaVuSans-5b" d="M 550 4863 
L 1875 4863 
L 1875 4416 
L 1125 4416 
L 1125 -397 
L 1875 -397 
L 1875 -844 
L 550 -844 
L 550 4863 
z
" transform="scale(0.015625)"/>
       <path id="DejaVuSans-73" d="M 2834 3397 
L 2834 2853 
Q 2591 2978 2328 3040 
Q 2066 3103 1784 3103 
Q 1356 3103 1142 2972 
Q 928 2841 928 2578 
Q 928 2378 1081 2264 
Q 1234 2150 1697 2047 
L 1894 2003 
Q 2506 1872 2764 1633 
Q 3022 1394 3022 966 
Q 3022 478 2636 193 
Q 2250 -91 1575 -91 
Q 1294 -91 989 -36 
Q 684 19 347 128 
L 347 722 
Q 666 556 975 473 
Q 1284 391 1588 391 
Q 1994 391 2212 530 
Q 2431 669 2431 922 
Q 2431 1156 2273 1281 
Q 2116 1406 1581 1522 
L 1381 1569 
Q 847 1681 609 1914 
Q 372 2147 372 2553 
Q 372 3047 722 3315 
Q 1072 3584 1716 3584 
Q 2034 3584 2315 3537 
Q 2597 3491 2834 3397 
z
" transform="scale(0.015625)"/>
       <path id="DejaVuSans-5d" d="M 1947 4863 
L 1947 -844 
L 622 -844 
L 622 -397 
L 1369 -397 
L 1369 4416 
L 622 4416 
L 622 4863 
L 1947 4863 
z
" transform="scale(0.015625)"/>
      </defs>
      <use xlink:href="#DejaVuSans-54"/>
      <use xlink:href="#DejaVuSans-69" x="57.958984"/>
      <use xlink:href="#DejaVuSans-6d" x="85.742188"/>
      <use xlink:href="#DejaVuSans-65" x="183.154297"/>
      <use xlink:href="#DejaVuSans-20" x="244.677734"/>
      <use xlink:href="#DejaVuSans-5b" x="276.464844"/>
      <use xlink:href="#DejaVuSans-6d" x="315.478516"/>
      <use xlink:href="#DejaVuSans-73" x="412.890625"/>
      <use xlink:href="#DejaVuSans-5d" x="464.990234"/>
     </g>
    </g>
   </g>
   <g id="matplotlib.axis_2">
    <g id="ytick_1">
     <g id="line2d_5">
      <defs>
       <path id="me1c302977e" d="M 0 0 
L -3.5 0 
" style="stroke: #000000; stroke-width: 0.8"/>
      </defs>
      <g>
       <use xlink:href="#me1c302977e" x="121.395781" y="287.029403" style="stroke: #000000; stroke-width: 0.8"/>
      </g>
     </g>
     <g id="text_6">
      <!-- −200 -->
      <g transform="translate(40.234375 297.287294) scale(0.27 -0.27)">
       <defs>
        <path id="DejaVuSans-2212" d="M 678 2272 
L 4684 2272 
L 4684 1741 
L 678 1741 
L 678 2272 
z
" transform="scale(0.015625)"/>
       </defs>
       <use xlink:href="#DejaVuSans-2212"/>
       <use xlink:href="#DejaVuSans-32" x="83.789062"/>
       <use xlink:href="#DejaVuSans-30" x="147.412109"/>
       <use xlink:href="#DejaVuSans-30" x="211.035156"/>
      </g>
     </g>
    </g>
    <g id="ytick_2">
     <g id="line2d_6">
      <g>
       <use xlink:href="#me1c302977e" x="121.395781" y="224.969701" style="stroke: #000000; stroke-width: 0.8"/>
      </g>
     </g>
     <g id="text_7">
      <!-- −100 -->
      <g transform="translate(40.234375 235.227592) scale(0.27 -0.27)">
       <defs>
        <path id="DejaVuSans-31" d="M 794 531 
L 1825 531 
L 1825 4091 
L 703 3866 
L 703 4441 
L 1819 4666 
L 2450 4666 
L 2450 531 
L 3481 531 
L 3481 0 
L 794 0 
L 794 531 
z
" transform="scale(0.015625)"/>
       </defs>
       <use xlink:href="#DejaVuSans-2212"/>
       <use xlink:href="#DejaVuSans-31" x="83.789062"/>
       <use xlink:href="#DejaVuSans-30" x="147.412109"/>
       <use xlink:href="#DejaVuSans-30" x="211.035156"/>
      </g>
     </g>
    </g>
    <g id="ytick_3">
     <g id="line2d_7">
      <g>
       <use xlink:href="#me1c302977e" x="121.395781" y="162.91" style="stroke: #000000; stroke-width: 0.8"/>
      </g>
     </g>
     <g id="text_8">
      <!-- 0 -->
      <g transform="translate(97.217031 173.167891) scale(0.27 -0.27)">
       <use xlink:href="#DejaVuSans-30"/>
      </g>
     </g>
    </g>
    <g id="ytick_4">
     <g id="line2d_8">
      <g>
       <use xlink:href="#me1c302977e" x="121.395781" y="100.850299" style="stroke: #000000; stroke-width: 0.8"/>
      </g>
     </g>
     <g id="text_9">
      <!-- 100 -->
      <g transform="translate(62.859531 111.108189) scale(0.27 -0.27)">
       <use xlink:href="#DejaVuSans-31"/>
       <use xlink:href="#DejaVuSans-30" x="63.623047"/>
       <use xlink:href="#DejaVuSans-30" x="127.246094"/>
      </g>
     </g>
    </g>
    <g id="ytick_5">
     <g id="line2d_9">
      <g>
       <use xlink:href="#me1c302977e" x="121.395781" y="38.790597" style="stroke: #000000; stroke-width: 0.8"/>
      </g>
     </g>
     <g id="text_10">
      <!-- 200 -->
      <g transform="translate(62.859531 49.048488) scale(0.27 -0.27)">
       <use xlink:href="#DejaVuSans-32"/>
       <use xlink:href="#DejaVuSans-30" x="63.623047"/>
       <use xlink:href="#DejaVuSans-30" x="127.246094"/>
      </g>
     </g>
    </g>
    <g id="text_11">
     <!-- mT/m -->
     <g transform="translate(29.995313 206.346719) rotate(-90) scale(0.3 -0.3)">
      <defs>
       <path id="DejaVuSans-2f" d="M 1625 4666 
L 2156 4666 
L 531 -594 
L 0 -594 
L 1625 4666 
z
" transform="scale(0.015625)"/>
      </defs>
      <use xlink:href="#DejaVuSans-6d"/>
      <use xlink:href="#DejaVuSans-54" x="97.412109"/>
      <use xlink:href="#DejaVuSans-2f" x="158.496094"/>
      <use xlink:href="#DejaVuSans-6d" x="192.1875"/>
     </g>
    </g>
   </g>
   <g id="line2d_10">
    <path d="M 121.395781 162.91 
L 531.354965 162.91 
" clip-path="url(#pe50920a3c3)" style="fill: none; stroke: #d3d3d3; stroke-opacity: 0.8; stroke-width: 1.5; stroke-linecap: square"/>
   </g>
   <g id="line2d_11">
    <path d="M 121.395781 162.91 
L 133.694557 162.91 
L 135.334393 209.027258 
L 136.154312 223.522261 
L 136.97423 231.56775 
L 143.533577 276.536778 
L 144.353496 279.693012 
L 145.173414 279.698394 
L 145.993332 279.821407 
L 150.092924 279.565693 
L 153.372598 279.62593 
L 154.192516 279.317758 
L 155.012434 278.338535 
L 155.832353 277.095143 
L 156.652271 275.407797 
L 157.472189 275.268567 
L 158.292108 261.847136 
L 159.112026 240.627634 
L 159.931945 232.987371 
L 160.751863 218.674059 
L 162.3917 194.786453 
L 163.211618 192.27416 
L 164.031536 179.769462 
L 164.851455 175.051656 
L 168.131128 150.819823 
L 169.770965 139.465728 
L 176.330312 95.724322 
L 182.889659 52.355515 
L 183.709577 48.625082 
L 184.529496 46.180595 
L 186.169332 46.205086 
L 194.368516 46.207099 
L 206.667291 46.238038 
L 207.48721 46.579573 
L 208.307128 48.436414 
L 209.127047 48.476358 
L 209.946965 73.030599 
L 210.766883 89.232471 
L 211.586802 98.761602 
L 214.046557 133.917182 
L 215.686393 147.166804 
L 217.32623 158.174187 
L 218.146149 162.749935 
L 218.966067 162.91 
L 248.483128 162.91 
L 249.303047 185.446267 
L 250.942883 203.34683 
L 251.762802 204.378587 
L 253.402638 185.102327 
L 255.042475 159.575312 
L 257.50223 131.972581 
L 258.322149 123.35538 
L 259.961985 110.681215 
L 264.881496 80.666076 
L 268.161169 61.266625 
L 268.981087 60.713574 
L 272.260761 59.574422 
L 273.080679 63.135049 
L 273.900598 69.676497 
L 278.000189 113.153124 
L 281.279863 142.509765 
L 282.099781 149.627092 
L 282.9197 155.054819 
L 287.019291 177.79783 
L 287.83921 178.786474 
L 288.659128 166.206642 
L 289.479047 162.91 
L 289.479047 162.91 
" clip-path="url(#pe50920a3c3)" style="fill: none; stroke: #000000; stroke-width: 5; stroke-linecap: square"/>
   </g>
   <g id="line2d_12">
    <path d="M 289.479047 162.91 
L 291.569838 162.91 
L 292.512745 184.261831 
L 292.55374 183.33349 
L 294.480549 141.558169 
L 295.341463 141.558169 
L 297.309267 184.261831 
L 298.170181 184.261831 
L 300.137985 141.558169 
L 300.9989 141.558169 
L 302.966704 184.261831 
L 303.827618 184.261831 
L 305.795422 141.558169 
L 306.656336 141.558169 
L 308.62414 184.261831 
L 309.485055 184.261831 
L 311.452859 141.558169 
L 312.313773 141.558169 
L 314.281577 184.261831 
L 315.142491 184.261831 
L 317.110296 141.558169 
L 317.97121 141.558169 
L 319.939014 184.261831 
L 320.799928 184.261831 
L 322.767732 141.558169 
L 323.628647 141.558169 
L 325.596451 184.261831 
L 326.457365 184.261831 
L 328.425169 141.558169 
L 329.286083 141.558169 
L 331.253887 184.261831 
L 332.114802 184.261831 
L 334.082606 141.558169 
L 334.94352 141.558169 
L 336.911324 184.261831 
L 337.772238 184.261831 
L 339.740042 141.558169 
L 340.600957 141.558169 
L 342.568761 184.261831 
L 343.429675 184.261831 
L 345.397479 141.558169 
L 346.258393 141.558169 
L 348.226198 184.261831 
L 349.087112 184.261831 
L 351.054916 141.558169 
L 351.91583 141.558169 
L 353.883634 184.261831 
L 354.744549 184.261831 
L 356.712353 141.558169 
L 357.573267 141.558169 
L 359.541071 184.261831 
L 360.401985 184.261831 
L 362.369789 141.558169 
L 363.230704 141.558169 
L 365.198508 184.261831 
L 366.059422 184.261831 
L 368.027226 141.558169 
L 368.88814 141.558169 
L 370.855945 184.261831 
L 371.716859 184.261831 
L 373.684663 141.558169 
L 374.545577 141.558169 
L 376.513381 184.261831 
L 377.374296 184.261831 
L 379.3421 141.558169 
L 380.203014 141.558169 
L 382.170818 184.261831 
L 383.031732 184.261831 
L 384.999536 141.558169 
L 385.860451 141.558169 
L 387.828255 184.261831 
L 388.689169 184.261831 
L 390.656973 141.558169 
L 391.517887 141.558169 
L 393.485691 184.261831 
L 394.346606 184.261831 
L 396.31441 141.558169 
L 397.175324 141.558169 
L 399.143128 184.261831 
L 400.004042 184.261831 
L 401.971847 141.558169 
L 402.832761 141.558169 
L 404.800565 184.261831 
L 405.661479 184.261831 
L 407.629283 141.558169 
L 408.490198 141.558169 
L 410.458002 184.261831 
L 411.318916 184.261831 
L 413.28672 141.558169 
L 414.147634 141.558169 
L 416.115438 184.261831 
L 416.976353 184.261831 
L 418.944157 141.558169 
L 419.805071 141.558169 
L 421.772875 184.261831 
L 422.633789 184.261831 
L 424.601593 141.558169 
L 425.462508 141.558169 
L 427.430312 184.261831 
L 428.291226 184.261831 
L 430.25903 141.558169 
L 431.119945 141.558169 
L 433.087749 184.261831 
L 433.948663 184.261831 
L 435.916467 141.558169 
L 436.777381 141.558169 
L 438.745185 184.261831 
L 439.6061 184.261831 
L 441.573904 141.558169 
L 442.434818 141.558169 
L 444.402622 184.261831 
L 445.263536 184.261831 
L 447.23134 141.558169 
L 448.092255 141.558169 
L 449.076157 162.91 
L 449.076157 162.91 
" clip-path="url(#pe50920a3c3)" style="fill: none; stroke: #000000; stroke-opacity: 0.7; stroke-width: 5; stroke-linecap: square"/>
   </g>
   <g id="line2d_13">
    <path d="M 345.782841 287.65 
L 345.782841 38.17 
" clip-path="url(#pe50920a3c3)" style="fill: none; stroke-dasharray: 18.5,8; stroke-dashoffset: 0; stroke: #000000; stroke-width: 5"/>
   </g>
   <g id="line2d_14">
    <path d="M 121.395781 38.790597 
L 531.354965 38.790597 
" clip-path="url(#pe50920a3c3)" style="fill: none; stroke-dasharray: 18.5,8; stroke-dashoffset: 0; stroke: #000000; stroke-opacity: 0.2; stroke-width: 5"/>
   </g>
   <g id="line2d_15">
    <path d="M 121.395781 287.029403 
L 531.354965 287.029403 
" clip-path="url(#pe50920a3c3)" style="fill: none; stroke-dasharray: 18.5,8; stroke-dashoffset: 0; stroke: #000000; stroke-opacity: 0.2; stroke-width: 5"/>
   </g>
   <g id="line2d_16">
    <path d="M 121.395781 162.91 
L 531.354965 162.91 
" clip-path="url(#pe50920a3c3)" style="fill: none; stroke: #000000; stroke-width: 5; stroke-linecap: square"/>
   </g>
   <g id="patch_3">
    <path d="M 121.395781 287.65 
L 121.395781 38.17 
" style="fill: none; stroke: #000000; stroke-width: 0.8; stroke-linejoin: miter; stroke-linecap: square"/>
   </g>
   <g id="patch_4">
    <path d="M 121.395781 287.65 
L 531.354965 287.65 
" style="fill: none; stroke: #000000; stroke-width: 0.8; stroke-linejoin: miter; stroke-linecap: square"/>
   </g>
   <g id="text_12">
    <!-- $G(t)$ -->
    <g transform="translate(295.175373 31.515) scale(0.32 -0.32)">
     <defs>
      <path id="DejaVuSans-Oblique-47" d="M 3494 697 
L 3738 1919 
L 2700 1919 
L 2797 2438 
L 4453 2438 
L 4050 384 
Q 3634 156 3143 32 
Q 2653 -91 2156 -91 
Q 1278 -91 783 396 
Q 288 884 288 1753 
Q 288 2475 589 3126 
Q 891 3778 1422 4213 
Q 1756 4484 2153 4617 
Q 2550 4750 3034 4750 
Q 3472 4750 3873 4639 
Q 4275 4528 4641 4306 
L 4513 3634 
Q 4231 3928 3853 4083 
Q 3475 4238 3047 4238 
Q 2550 4238 2172 4048 
Q 1794 3859 1497 3463 
Q 1244 3125 1098 2667 
Q 953 2209 953 1734 
Q 953 1081 1287 751 
Q 1622 422 2284 422 
Q 2616 422 2925 492 
Q 3234 563 3494 697 
z
" transform="scale(0.015625)"/>
      <path id="DejaVuSans-28" d="M 1984 4856 
Q 1566 4138 1362 3434 
Q 1159 2731 1159 2009 
Q 1159 1288 1364 580 
Q 1569 -128 1984 -844 
L 1484 -844 
Q 1016 -109 783 600 
Q 550 1309 550 2009 
Q 550 2706 781 3412 
Q 1013 4119 1484 4856 
L 1984 4856 
z
" transform="scale(0.015625)"/>
      <path id="DejaVuSans-Oblique-74" d="M 2706 3500 
L 2619 3053 
L 1472 3053 
L 1100 1153 
Q 1081 1047 1072 975 
Q 1063 903 1063 863 
Q 1063 663 1183 572 
Q 1303 481 1569 481 
L 2150 481 
L 2053 0 
L 1503 0 
Q 991 0 739 200 
Q 488 400 488 806 
Q 488 878 497 964 
Q 506 1050 525 1153 
L 897 3053 
L 409 3053 
L 500 3500 
L 978 3500 
L 1172 4494 
L 1747 4494 
L 1556 3500 
L 2706 3500 
z
" transform="scale(0.015625)"/>
      <path id="DejaVuSans-29" d="M 513 4856 
L 1013 4856 
Q 1481 4119 1714 3412 
Q 1947 2706 1947 2009 
Q 1947 1309 1714 600 
Q 1481 -109 1013 -844 
L 513 -844 
Q 928 -128 1133 580 
Q 1338 1288 1338 2009 
Q 1338 2731 1133 3434 
Q 928 4138 513 4856 
z
" transform="scale(0.015625)"/>
     </defs>
     <use xlink:href="#DejaVuSans-Oblique-47" transform="translate(0 0.125)"/>
     <use xlink:href="#DejaVuSans-28" transform="translate(77.490234 0.125)"/>
     <use xlink:href="#DejaVuSans-Oblique-74" transform="translate(116.503906 0.125)"/>
     <use xlink:href="#DejaVuSans-29" transform="translate(155.712891 0.125)"/>
    </g>
   </g>
   <g id="legend_1">
    <g id="patch_5">
     <path d="M 507.154965 66.77 
L 515.954965 66.77 
Q 520.354965 66.77 520.354965 62.37 
L 520.354965 53.57 
Q 520.354965 49.17 515.954965 49.17 
L 507.154965 49.17 
Q 502.754965 49.17 502.754965 53.57 
L 502.754965 62.37 
Q 502.754965 66.77 507.154965 66.77 
z
" style="fill: #ffffff; opacity: 0.8; stroke: #cccccc; stroke-linejoin: miter"/>
    </g>
   </g>
  </g>
  <g id="axes_2">
   <g id="patch_6">
    <path d="M 654.34272 287.65 
L 1064.301904 287.65 
L 1064.301904 38.17 
L 654.34272 38.17 
z
" style="fill: #ffffff"/>
   </g>
   <g id="matplotlib.axis_3">
    <g id="xtick_5">
     <g id="line2d_17">
      <g>
       <use xlink:href="#m188a97a17e" x="654.34272" y="287.65" style="stroke: #000000; stroke-width: 0.8"/>
      </g>
     </g>
     <g id="text_13">
      <!-- 0 -->
      <g transform="translate(645.753345 315.165781) scale(0.27 -0.27)">
       <use xlink:href="#DejaVuSans-30"/>
      </g>
     </g>
    </g>
    <g id="xtick_6">
     <g id="line2d_18">
      <g>
       <use xlink:href="#m188a97a17e" x="756.832516" y="287.65" style="stroke: #000000; stroke-width: 0.8"/>
      </g>
     </g>
     <g id="text_14">
      <!-- 25 -->
      <g transform="translate(739.653766 315.165781) scale(0.27 -0.27)">
       <use xlink:href="#DejaVuSans-32"/>
       <use xlink:href="#DejaVuSans-35" x="63.623047"/>
      </g>
     </g>
    </g>
    <g id="xtick_7">
     <g id="line2d_19">
      <g>
       <use xlink:href="#m188a97a17e" x="859.322312" y="287.65" style="stroke: #000000; stroke-width: 0.8"/>
      </g>
     </g>
     <g id="text_15">
      <!-- 50 -->
      <g transform="translate(842.143562 315.165781) scale(0.27 -0.27)">
       <use xlink:href="#DejaVuSans-35"/>
       <use xlink:href="#DejaVuSans-30" x="63.623047"/>
      </g>
     </g>
    </g>
    <g id="xtick_8">
     <g id="line2d_20">
      <g>
       <use xlink:href="#m188a97a17e" x="961.812108" y="287.65" style="stroke: #000000; stroke-width: 0.8"/>
      </g>
     </g>
     <g id="text_16">
      <!-- 75 -->
      <g transform="translate(944.633358 315.165781) scale(0.27 -0.27)">
       <use xlink:href="#DejaVuSans-37"/>
       <use xlink:href="#DejaVuSans-35" x="63.623047"/>
      </g>
     </g>
    </g>
    <g id="text_17">
     <!-- Time [ms] -->
     <g transform="translate(783.724656 347.57625) scale(0.3 -0.3)">
      <use xlink:href="#DejaVuSans-54"/>
      <use xlink:href="#DejaVuSans-69" x="57.958984"/>
      <use xlink:href="#DejaVuSans-6d" x="85.742188"/>
      <use xlink:href="#DejaVuSans-65" x="183.154297"/>
      <use xlink:href="#DejaVuSans-20" x="244.677734"/>
      <use xlink:href="#DejaVuSans-5b" x="276.464844"/>
      <use xlink:href="#DejaVuSans-6d" x="315.478516"/>
      <use xlink:href="#DejaVuSans-73" x="412.890625"/>
      <use xlink:href="#DejaVuSans-5d" x="464.990234"/>
     </g>
    </g>
   </g>
   <g id="matplotlib.axis_4">
    <g id="ytick_6">
     <g id="line2d_21">
      <g>
       <use xlink:href="#me1c302977e" x="654.34272" y="287.029403" style="stroke: #000000; stroke-width: 0.8"/>
      </g>
     </g>
     <g id="text_18">
      <!-- −200 -->
      <g transform="translate(573.181314 297.287294) scale(0.27 -0.27)">
       <use xlink:href="#DejaVuSans-2212"/>
       <use xlink:href="#DejaVuSans-32" x="83.789062"/>
       <use xlink:href="#DejaVuSans-30" x="147.412109"/>
       <use xlink:href="#DejaVuSans-30" x="211.035156"/>
      </g>
     </g>
    </g>
    <g id="ytick_7">
     <g id="line2d_22">
      <g>
       <use xlink:href="#me1c302977e" x="654.34272" y="224.969701" style="stroke: #000000; stroke-width: 0.8"/>
      </g>
     </g>
     <g id="text_19">
      <!-- −100 -->
      <g transform="translate(573.181314 235.227592) scale(0.27 -0.27)">
       <use xlink:href="#DejaVuSans-2212"/>
       <use xlink:href="#DejaVuSans-31" x="83.789062"/>
       <use xlink:href="#DejaVuSans-30" x="147.412109"/>
       <use xlink:href="#DejaVuSans-30" x="211.035156"/>
      </g>
     </g>
    </g>
    <g id="ytick_8">
     <g id="line2d_23">
      <g>
       <use xlink:href="#me1c302977e" x="654.34272" y="162.91" style="stroke: #000000; stroke-width: 0.8"/>
      </g>
     </g>
     <g id="text_20">
      <!-- 0 -->
      <g transform="translate(630.16397 173.167891) scale(0.27 -0.27)">
       <use xlink:href="#DejaVuSans-30"/>
      </g>
     </g>
    </g>
    <g id="ytick_9">
     <g id="line2d_24">
      <g>
       <use xlink:href="#me1c302977e" x="654.34272" y="100.850299" style="stroke: #000000; stroke-width: 0.8"/>
      </g>
     </g>
     <g id="text_21">
      <!-- 100 -->
      <g transform="translate(595.80647 111.108189) scale(0.27 -0.27)">
       <use xlink:href="#DejaVuSans-31"/>
       <use xlink:href="#DejaVuSans-30" x="63.623047"/>
       <use xlink:href="#DejaVuSans-30" x="127.246094"/>
      </g>
     </g>
    </g>
    <g id="ytick_10">
     <g id="line2d_25">
      <g>
       <use xlink:href="#me1c302977e" x="654.34272" y="38.790597" style="stroke: #000000; stroke-width: 0.8"/>
      </g>
     </g>
     <g id="text_22">
      <!-- 200 -->
      <g transform="translate(595.80647 49.048488) scale(0.27 -0.27)">
       <use xlink:href="#DejaVuSans-32"/>
       <use xlink:href="#DejaVuSans-30" x="63.623047"/>
       <use xlink:href="#DejaVuSans-30" x="127.246094"/>
      </g>
     </g>
    </g>
    <g id="text_23">
     <!-- T/m/s -->
     <g transform="translate(562.942251 204.602969) rotate(-90) scale(0.3 -0.3)">
      <use xlink:href="#DejaVuSans-54"/>
      <use xlink:href="#DejaVuSans-2f" x="61.083984"/>
      <use xlink:href="#DejaVuSans-6d" x="94.775391"/>
      <use xlink:href="#DejaVuSans-2f" x="192.1875"/>
      <use xlink:href="#DejaVuSans-73" x="225.878906"/>
     </g>
    </g>
   </g>
   <g id="line2d_26">
    <path d="M 654.34272 162.91 
L 1064.301904 162.91 
" clip-path="url(#p8461ebb3a1)" style="fill: none; stroke: #d3d3d3; stroke-opacity: 0.8; stroke-width: 1.5; stroke-linecap: square"/>
   </g>
   <g id="line2d_27">
    <path d="M 654.34272 162.91 
L 665.821577 162.91 
L 666.641496 285.789988 
L 667.461414 270.6163 
L 669.101251 203.137445 
L 669.921169 191.4655 
L 672.380924 191.047294 
L 675.660598 190.649638 
L 676.480516 178.691174 
L 677.300434 162.936907 
L 678.120353 163.525066 
L 678.940271 162.600135 
L 679.760189 162.269854 
L 680.580108 162.760538 
L 681.400026 162.914083 
L 682.219945 162.726819 
L 683.039863 163.054494 
L 684.6797 162.901593 
L 685.499618 163.035355 
L 686.319536 161.36914 
L 687.139455 158.013885 
L 687.959373 156.69304 
L 688.779291 154.473269 
L 689.59921 162.213851 
L 690.419128 95.802845 
L 691.239047 56.812492 
L 692.058965 124.708685 
L 692.878883 91.343439 
L 693.698802 106.275961 
L 694.51872 100.10601 
L 695.338638 150.348532 
L 696.158557 100.386511 
L 696.978475 139.32097 
L 697.798393 131.767895 
L 698.618312 132.626606 
L 699.43823 131.806207 
L 700.258149 134.280129 
L 701.078067 133.251795 
L 701.897985 135.797729 
L 702.717904 135.139543 
L 703.537822 135.552983 
L 705.997577 135.624993 
L 708.457332 135.733722 
L 714.196761 135.839905 
L 715.016679 135.859914 
L 715.836598 144.257831 
L 716.656516 150.687569 
L 717.476434 162.7067 
L 718.296353 163.235753 
L 719.116271 162.85552 
L 719.936189 163.013098 
L 720.756108 162.843328 
L 722.395945 162.900035 
L 727.315455 162.889942 
L 728.955291 162.910597 
L 730.595128 162.927369 
L 732.234965 162.857004 
L 733.054883 163.040528 
L 733.874802 162.854404 
L 734.69472 162.930074 
L 735.514638 162.850368 
L 736.334557 163.114086 
L 737.154475 162.855862 
L 738.794312 162.984191 
L 739.61423 164.617677 
L 740.434149 172.194206 
L 741.254067 163.109718 
L 742.073985 285.681204 
L 742.893904 243.919363 
L 743.713822 210.555652 
L 744.53374 223.571893 
L 745.353659 218.256917 
L 746.173577 222.679093 
L 746.993496 196.83471 
L 747.813414 195.233399 
L 748.633332 190.468181 
L 749.453251 190.388734 
L 750.273169 185.78874 
L 751.093087 163.710325 
L 751.913006 162.91 
L 780.610149 162.91 
L 781.430067 275.591334 
L 782.249985 209.855295 
L 783.069904 205.467519 
L 783.889822 168.068787 
L 784.70974 117.014418 
L 785.529659 112.424282 
L 786.349577 98.387596 
L 787.169496 99.797329 
L 787.989414 114.942623 
L 788.809332 117.099586 
L 789.629251 118.674138 
L 790.449169 119.823997 
L 791.269087 129.268636 
L 792.908924 137.313963 
L 793.728842 137.457201 
L 798.648353 139.117343 
L 799.468271 139.376441 
L 800.288189 137.308439 
L 801.108108 160.144745 
L 801.928026 161.554128 
L 802.747945 161.800234 
L 803.567863 161.818624 
L 804.387781 160.771254 
L 805.2077 180.713137 
L 806.027618 195.617237 
L 806.847536 207.455194 
L 807.667455 210.585829 
L 808.487373 208.396596 
L 809.307291 204.023915 
L 810.12721 201.471603 
L 811.767047 199.792283 
L 813.406883 198.783125 
L 814.226802 198.496635 
L 815.04672 190.048635 
L 815.866638 185.666295 
L 818.326393 185.377866 
L 819.146312 186.281013 
L 819.96623 167.85322 
L 820.786149 100.010842 
L 821.606067 146.42679 
L 821.606067 146.42679 
" clip-path="url(#p8461ebb3a1)" style="fill: none; stroke: #000000; stroke-width: 5; stroke-linecap: square"/>
   </g>
   <g id="line2d_28">
    <path d="M 654.34272 38.790597 
L 1064.301904 38.790597 
" clip-path="url(#p8461ebb3a1)" style="fill: none; stroke-dasharray: 18.5,8; stroke-dashoffset: 0; stroke: #000000; stroke-opacity: 0.2; stroke-width: 5"/>
   </g>
   <g id="line2d_29">
    <path d="M 654.34272 287.029403 
L 1064.301904 287.029403 
" clip-path="url(#p8461ebb3a1)" style="fill: none; stroke-dasharray: 18.5,8; stroke-dashoffset: 0; stroke: #000000; stroke-opacity: 0.2; stroke-width: 5"/>
   </g>
   <g id="line2d_30">
    <path d="M 654.34272 162.91 
L 1064.301904 162.91 
" clip-path="url(#p8461ebb3a1)" style="fill: none; stroke: #000000; stroke-width: 5; stroke-linecap: square"/>
   </g>
   <g id="patch_7">
    <path d="M 654.34272 287.65 
L 654.34272 38.17 
" style="fill: none; stroke: #000000; stroke-width: 0.8; stroke-linejoin: miter; stroke-linecap: square"/>
   </g>
   <g id="patch_8">
    <path d="M 654.34272 287.65 
L 1064.301904 287.65 
" style="fill: none; stroke: #000000; stroke-width: 0.8; stroke-linejoin: miter; stroke-linecap: square"/>
   </g>
   <g id="text_24">
    <!-- $S(t)$ -->
    <g transform="translate(830.362312 31.515) scale(0.32 -0.32)">
     <defs>
      <path id="DejaVuSans-Oblique-53" d="M 3859 4513 
L 3738 3897 
Q 3422 4066 3111 4152 
Q 2800 4238 2509 4238 
Q 1944 4238 1609 3991 
Q 1275 3744 1275 3334 
Q 1275 3109 1398 2989 
Q 1522 2869 2034 2731 
L 2413 2638 
Q 3053 2472 3303 2217 
Q 3553 1963 3553 1503 
Q 3553 797 2998 353 
Q 2444 -91 1538 -91 
Q 1166 -91 791 -17 
Q 416 56 38 206 
L 166 856 
Q 513 641 861 531 
Q 1209 422 1556 422 
Q 2147 422 2503 684 
Q 2859 947 2859 1369 
Q 2859 1650 2717 1795 
Q 2575 1941 2106 2059 
L 1728 2156 
Q 1081 2325 845 2545 
Q 609 2766 609 3163 
Q 609 3859 1145 4304 
Q 1681 4750 2541 4750 
Q 2875 4750 3203 4690 
Q 3531 4631 3859 4513 
z
" transform="scale(0.015625)"/>
     </defs>
     <use xlink:href="#DejaVuSans-Oblique-53" transform="translate(0 0.125)"/>
     <use xlink:href="#DejaVuSans-28" transform="translate(63.476562 0.125)"/>
     <use xlink:href="#DejaVuSans-Oblique-74" transform="translate(102.490234 0.125)"/>
     <use xlink:href="#DejaVuSans-29" transform="translate(141.699219 0.125)"/>
    </g>
   </g>
  </g>
  <g id="axes_3">
   <g id="patch_9">
    <path d="M 1187.289659 287.65 
L 1597.248842 287.65 
L 1597.248842 38.17 
L 1187.289659 38.17 
z
" style="fill: #ffffff"/>
   </g>
   <g id="matplotlib.axis_5">
    <g id="xtick_9">
     <g id="line2d_31">
      <g>
       <use xlink:href="#m188a97a17e" x="1187.289659" y="287.65" style="stroke: #000000; stroke-width: 0.8"/>
      </g>
     </g>
     <g id="text_25">
      <!-- 0 -->
      <g transform="translate(1178.700284 315.165781) scale(0.27 -0.27)">
       <use xlink:href="#DejaVuSans-30"/>
      </g>
     </g>
    </g>
    <g id="xtick_10">
     <g id="line2d_32">
      <g>
       <use xlink:href="#m188a97a17e" x="1289.779455" y="287.65" style="stroke: #000000; stroke-width: 0.8"/>
      </g>
     </g>
     <g id="text_26">
      <!-- 25 -->
      <g transform="translate(1272.600705 315.165781) scale(0.27 -0.27)">
       <use xlink:href="#DejaVuSans-32"/>
       <use xlink:href="#DejaVuSans-35" x="63.623047"/>
      </g>
     </g>
    </g>
    <g id="xtick_11">
     <g id="line2d_33">
      <g>
       <use xlink:href="#m188a97a17e" x="1392.269251" y="287.65" style="stroke: #000000; stroke-width: 0.8"/>
      </g>
     </g>
     <g id="text_27">
      <!-- 50 -->
      <g transform="translate(1375.090501 315.165781) scale(0.27 -0.27)">
       <use xlink:href="#DejaVuSans-35"/>
       <use xlink:href="#DejaVuSans-30" x="63.623047"/>
      </g>
     </g>
    </g>
    <g id="xtick_12">
     <g id="line2d_34">
      <g>
       <use xlink:href="#m188a97a17e" x="1494.759047" y="287.65" style="stroke: #000000; stroke-width: 0.8"/>
      </g>
     </g>
     <g id="text_28">
      <!-- 75 -->
      <g transform="translate(1477.580297 315.165781) scale(0.27 -0.27)">
       <use xlink:href="#DejaVuSans-37"/>
       <use xlink:href="#DejaVuSans-35" x="63.623047"/>
      </g>
     </g>
    </g>
    <g id="text_29">
     <!-- Time [ms] -->
     <g transform="translate(1316.671594 347.57625) scale(0.3 -0.3)">
      <use xlink:href="#DejaVuSans-54"/>
      <use xlink:href="#DejaVuSans-69" x="57.958984"/>
      <use xlink:href="#DejaVuSans-6d" x="85.742188"/>
      <use xlink:href="#DejaVuSans-65" x="183.154297"/>
      <use xlink:href="#DejaVuSans-20" x="244.677734"/>
      <use xlink:href="#DejaVuSans-5b" x="276.464844"/>
      <use xlink:href="#DejaVuSans-6d" x="315.478516"/>
      <use xlink:href="#DejaVuSans-73" x="412.890625"/>
      <use xlink:href="#DejaVuSans-5d" x="464.990234"/>
     </g>
    </g>
   </g>
   <g id="matplotlib.axis_6">
    <g id="ytick_11">
     <g id="line2d_35">
      <g>
       <use xlink:href="#me1c302977e" x="1187.289659" y="287.65" style="stroke: #000000; stroke-width: 0.8"/>
      </g>
     </g>
     <g id="text_30">
      <!-- 0.00 -->
      <g transform="translate(1120.172471 297.907891) scale(0.27 -0.27)">
       <defs>
        <path id="DejaVuSans-2e" d="M 684 794 
L 1344 794 
L 1344 0 
L 684 0 
L 684 794 
z
" transform="scale(0.015625)"/>
       </defs>
       <use xlink:href="#DejaVuSans-30"/>
       <use xlink:href="#DejaVuSans-2e" x="63.623047"/>
       <use xlink:href="#DejaVuSans-30" x="95.410156"/>
       <use xlink:href="#DejaVuSans-30" x="159.033203"/>
      </g>
     </g>
    </g>
    <g id="ytick_12">
     <g id="line2d_36">
      <g>
       <use xlink:href="#me1c302977e" x="1187.289659" y="225.28" style="stroke: #000000; stroke-width: 0.8"/>
      </g>
     </g>
     <g id="text_31">
      <!-- 0.25 -->
      <g transform="translate(1120.172471 235.537891) scale(0.27 -0.27)">
       <use xlink:href="#DejaVuSans-30"/>
       <use xlink:href="#DejaVuSans-2e" x="63.623047"/>
       <use xlink:href="#DejaVuSans-32" x="95.410156"/>
       <use xlink:href="#DejaVuSans-35" x="159.033203"/>
      </g>
     </g>
    </g>
    <g id="ytick_13">
     <g id="line2d_37">
      <g>
       <use xlink:href="#me1c302977e" x="1187.289659" y="162.91" style="stroke: #000000; stroke-width: 0.8"/>
      </g>
     </g>
     <g id="text_32">
      <!-- 0.50 -->
      <g transform="translate(1120.172471 173.167891) scale(0.27 -0.27)">
       <use xlink:href="#DejaVuSans-30"/>
       <use xlink:href="#DejaVuSans-2e" x="63.623047"/>
       <use xlink:href="#DejaVuSans-35" x="95.410156"/>
       <use xlink:href="#DejaVuSans-30" x="159.033203"/>
      </g>
     </g>
    </g>
    <g id="ytick_14">
     <g id="line2d_38">
      <g>
       <use xlink:href="#me1c302977e" x="1187.289659" y="100.54" style="stroke: #000000; stroke-width: 0.8"/>
      </g>
     </g>
     <g id="text_33">
      <!-- 0.75 -->
      <g transform="translate(1120.172471 110.797891) scale(0.27 -0.27)">
       <use xlink:href="#DejaVuSans-30"/>
       <use xlink:href="#DejaVuSans-2e" x="63.623047"/>
       <use xlink:href="#DejaVuSans-37" x="95.410156"/>
       <use xlink:href="#DejaVuSans-35" x="159.033203"/>
      </g>
     </g>
    </g>
    <g id="ytick_15">
     <g id="line2d_39">
      <g>
       <use xlink:href="#me1c302977e" x="1187.289659" y="38.17" style="stroke: #000000; stroke-width: 0.8"/>
      </g>
     </g>
     <g id="text_34">
      <!-- 1.00 -->
      <g transform="translate(1120.172471 48.427891) scale(0.27 -0.27)">
       <use xlink:href="#DejaVuSans-31"/>
       <use xlink:href="#DejaVuSans-2e" x="63.623047"/>
       <use xlink:href="#DejaVuSans-30" x="95.410156"/>
       <use xlink:href="#DejaVuSans-30" x="159.033203"/>
      </g>
     </g>
    </g>
    <g id="text_35">
     <!-- unitless -->
     <g transform="translate(1109.933409 220.995156) rotate(-90) scale(0.3 -0.3)">
      <defs>
       <path id="DejaVuSans-75" d="M 544 1381 
L 544 3500 
L 1119 3500 
L 1119 1403 
Q 1119 906 1312 657 
Q 1506 409 1894 409 
Q 2359 409 2629 706 
Q 2900 1003 2900 1516 
L 2900 3500 
L 3475 3500 
L 3475 0 
L 2900 0 
L 2900 538 
Q 2691 219 2414 64 
Q 2138 -91 1772 -91 
Q 1169 -91 856 284 
Q 544 659 544 1381 
z
M 1991 3584 
L 1991 3584 
z
" transform="scale(0.015625)"/>
       <path id="DejaVuSans-6e" d="M 3513 2113 
L 3513 0 
L 2938 0 
L 2938 2094 
Q 2938 2591 2744 2837 
Q 2550 3084 2163 3084 
Q 1697 3084 1428 2787 
Q 1159 2491 1159 1978 
L 1159 0 
L 581 0 
L 581 3500 
L 1159 3500 
L 1159 2956 
Q 1366 3272 1645 3428 
Q 1925 3584 2291 3584 
Q 2894 3584 3203 3211 
Q 3513 2838 3513 2113 
z
" transform="scale(0.015625)"/>
       <path id="DejaVuSans-74" d="M 1172 4494 
L 1172 3500 
L 2356 3500 
L 2356 3053 
L 1172 3053 
L 1172 1153 
Q 1172 725 1289 603 
Q 1406 481 1766 481 
L 2356 481 
L 2356 0 
L 1766 0 
Q 1100 0 847 248 
Q 594 497 594 1153 
L 594 3053 
L 172 3053 
L 172 3500 
L 594 3500 
L 594 4494 
L 1172 4494 
z
" transform="scale(0.015625)"/>
       <path id="DejaVuSans-6c" d="M 603 4863 
L 1178 4863 
L 1178 0 
L 603 0 
L 603 4863 
z
" transform="scale(0.015625)"/>
      </defs>
      <use xlink:href="#DejaVuSans-75"/>
      <use xlink:href="#DejaVuSans-6e" x="63.378906"/>
      <use xlink:href="#DejaVuSans-69" x="126.757812"/>
      <use xlink:href="#DejaVuSans-74" x="154.541016"/>
      <use xlink:href="#DejaVuSans-6c" x="193.75"/>
      <use xlink:href="#DejaVuSans-65" x="221.533203"/>
      <use xlink:href="#DejaVuSans-73" x="283.056641"/>
      <use xlink:href="#DejaVuSans-73" x="335.15625"/>
     </g>
    </g>
   </g>
   <g id="line2d_40">
    <path d="M 1187.289659 287.65 
L 1597.248842 287.65 
" clip-path="url(#p384adcaaa7)" style="fill: none; stroke: #d3d3d3; stroke-opacity: 0.8; stroke-width: 1.5; stroke-linecap: square"/>
   </g>
   <g id="line2d_41">
    <path d="M 1187.289659 287.65 
L 1199.588434 287.65 
L 1200.408353 146.719311 
L 1201.228271 82.442312 
L 1202.048189 82.357012 
L 1203.688026 144.617632 
L 1204.507945 160.040284 
L 1205.327863 168.336079 
L 1206.147781 172.914731 
L 1206.9677 175.501844 
L 1207.787618 176.978441 
L 1208.607536 177.791317 
L 1209.427455 178.198402 
L 1210.247373 191.960725 
L 1211.067291 217.793339 
L 1211.88721 232.171454 
L 1212.707128 242.125867 
L 1213.527047 248.960267 
L 1214.346965 253.129454 
L 1215.166883 256.082094 
L 1215.986802 258.607437 
L 1217.626638 261.759576 
L 1218.446557 263.088423 
L 1219.266475 264.0454 
L 1220.086393 264.166354 
L 1220.906312 262.35251 
L 1221.72623 258.675918 
L 1222.546149 253.454411 
L 1223.366067 259.155308 
L 1224.185985 186.07849 
L 1225.005904 98.990816 
L 1225.825822 124.710768 
L 1226.64574 98.0581 
L 1227.465659 97.759924 
L 1228.285577 88.323123 
L 1229.105496 138.714279 
L 1229.925414 108.95987 
L 1230.745332 136.154733 
L 1231.565251 142.313171 
L 1232.385169 146.675234 
L 1233.205087 148.167662 
L 1234.025006 151.814932 
L 1234.844924 152.665185 
L 1235.664842 156.026175 
L 1237.304679 158.199796 
L 1238.124598 158.738508 
L 1238.944516 159.053033 
L 1240.584353 159.149136 
L 1242.224189 158.862689 
L 1244.683945 158.068419 
L 1248.783536 156.361777 
L 1249.603455 165.617671 
L 1250.423373 178.188651 
L 1251.243291 199.313955 
L 1252.06321 212.438145 
L 1252.883128 220.326163 
L 1253.703047 225.896855 
L 1254.522965 229.752493 
L 1255.342883 232.840368 
L 1256.162802 235.292456 
L 1256.98272 237.347509 
L 1258.622557 240.575958 
L 1260.262393 243.123981 
L 1261.90223 245.17887 
L 1263.542067 246.997505 
L 1265.181904 248.575469 
L 1269.281496 251.93884 
L 1270.101414 252.489193 
L 1271.741251 253.777458 
L 1272.561169 254.306845 
L 1273.381087 252.994296 
L 1274.201006 243.718132 
L 1275.020924 248.929552 
L 1275.840842 111.323426 
L 1276.660761 79.579342 
L 1277.480679 96.39922 
L 1278.300598 88.143255 
L 1279.120516 87.439332 
L 1279.940434 80.16567 
L 1280.760353 104.125725 
L 1282.400189 131.664479 
L 1283.220108 139.186227 
L 1284.040026 148.87799 
L 1284.859945 179.95799 
L 1285.679863 199.152842 
L 1286.499781 211.135567 
L 1287.3197 219.135651 
L 1288.139618 224.828322 
L 1288.959536 229.106513 
L 1289.779455 232.464375 
L 1290.599373 235.188827 
L 1291.419291 237.456044 
L 1293.059128 241.041685 
L 1294.698965 243.78501 
L 1296.338802 245.991701 
L 1297.978638 247.844411 
L 1300.438393 250.197587 
L 1302.898149 252.228241 
L 1306.177822 254.628593 
L 1310.277414 257.309841 
L 1314.377006 259.736803 
L 1315.196924 130.962571 
L 1316.016842 131.90624 
L 1316.836761 134.697743 
L 1318.476598 218.828128 
L 1319.296516 195.439516 
L 1320.116434 148.591776 
L 1320.936353 121.095242 
L 1321.756271 120.009806 
L 1323.396108 118.755 
L 1324.216026 118.198619 
L 1326.675781 145.589193 
L 1327.4957 150.802106 
L 1328.315618 154.072997 
L 1329.135536 156.280362 
L 1329.955455 157.905743 
L 1331.595291 160.29841 
L 1333.235128 162.139476 
L 1334.055047 160.272178 
L 1334.874965 185.375729 
L 1335.694883 201.471015 
L 1336.514802 211.581985 
L 1337.33472 218.202147 
L 1338.154638 221.631821 
L 1338.974557 219.191401 
L 1339.794475 198.236129 
L 1340.614393 166.219303 
L 1341.434312 143.073644 
L 1342.25423 130.725594 
L 1343.074149 126.981273 
L 1344.713985 125.554332 
L 1347.993659 123.964617 
L 1349.633496 142.795857 
L 1350.453414 148.505571 
L 1351.273332 152.059116 
L 1352.093251 154.305758 
L 1352.913169 154.749552 
L 1353.733087 176.305163 
L 1354.553006 176.718268 
L 1355.372924 189.572049 
L 1355.372924 189.572049 
" clip-path="url(#p384adcaaa7)" style="fill: none; stroke: #000000; stroke-width: 5; stroke-linecap: square"/>
   </g>
   <g id="line2d_42">
    <path d="M 1187.289659 287.65 
L 1597.248842 287.65 
" clip-path="url(#p384adcaaa7)" style="fill: none; stroke: #000000; stroke-width: 5; stroke-linecap: square"/>
   </g>
   <g id="line2d_43">
    <path d="M 1187.289659 83.319669 
L 1188.929496 82.563965 
L 1190.569332 82.031061 
L 1193.029087 81.47133 
L 1197.128679 80.846954 
L 1203.688026 80.139099 
L 1214.346965 79.246235 
L 1226.64574 78.437928 
L 1241.404271 77.700572 
L 1258.622557 77.078102 
L 1279.120516 76.571869 
L 1284.859945 76.46401 
L 1286.499781 168.015728 
L 1287.3197 103.306892 
L 1288.139618 154.997242 
L 1288.959536 114.554131 
L 1289.779455 98.880651 
L 1290.599373 92.442298 
L 1291.419291 89.516946 
L 1292.23921 87.981558 
L 1293.059128 87.036577 
L 1293.879047 86.371758 
L 1295.518883 85.443358 
L 1297.15872 84.791661 
L 1299.618475 84.081303 
L 1302.898149 83.387071 
L 1308.637577 82.460326 
L 1311.097332 82.117435 
L 1311.917251 139.23044 
L 1312.737169 187.431097 
L 1313.557087 121.428692 
L 1314.377006 152.332481 
L 1315.196924 116.690393 
L 1316.016842 102.747992 
L 1316.836761 96.912061 
L 1317.656679 94.172228 
L 1318.476598 92.66695 
L 1319.296516 91.693169 
L 1320.936353 90.403479 
L 1322.576189 89.50479 
L 1325.035945 88.501887 
L 1328.315618 87.487952 
L 1333.235128 86.275551 
L 1339.794475 84.922714 
L 1347.17374 83.620756 
L 1355.372924 82.388367 
L 1355.372924 82.388367 
" clip-path="url(#p384adcaaa7)" style="fill: none; stroke-dasharray: 22.2,9.6; stroke-dashoffset: 0; stroke: #ff0000; stroke-width: 6"/>
   </g>
   <g id="line2d_44">
    <path d="M 1187.289659 75.592 
L 1597.248842 75.592 
" clip-path="url(#p384adcaaa7)" style="fill: none; stroke-dasharray: 5,8.25; stroke-dashoffset: 0; stroke: #ff0000; stroke-opacity: 0.5; stroke-width: 5"/>
   </g>
   <g id="patch_10">
    <path d="M 1187.289659 287.65 
L 1187.289659 38.17 
" style="fill: none; stroke: #000000; stroke-width: 0.8; stroke-linejoin: miter; stroke-linecap: square"/>
   </g>
   <g id="patch_11">
    <path d="M 1187.289659 287.65 
L 1597.248842 287.65 
" style="fill: none; stroke: #000000; stroke-width: 0.8; stroke-linejoin: miter; stroke-linecap: square"/>
   </g>
   <g id="text_36">
    <!-- SAFE-PNS -->
    <g transform="translate(1314.006751 31.515) scale(0.32 -0.32)">
     <defs>
      <path id="DejaVuSans-53" d="M 3425 4513 
L 3425 3897 
Q 3066 4069 2747 4153 
Q 2428 4238 2131 4238 
Q 1616 4238 1336 4038 
Q 1056 3838 1056 3469 
Q 1056 3159 1242 3001 
Q 1428 2844 1947 2747 
L 2328 2669 
Q 3034 2534 3370 2195 
Q 3706 1856 3706 1288 
Q 3706 609 3251 259 
Q 2797 -91 1919 -91 
Q 1588 -91 1214 -16 
Q 841 59 441 206 
L 441 856 
Q 825 641 1194 531 
Q 1563 422 1919 422 
Q 2459 422 2753 634 
Q 3047 847 3047 1241 
Q 3047 1584 2836 1778 
Q 2625 1972 2144 2069 
L 1759 2144 
Q 1053 2284 737 2584 
Q 422 2884 422 3419 
Q 422 4038 858 4394 
Q 1294 4750 2059 4750 
Q 2388 4750 2728 4690 
Q 3069 4631 3425 4513 
z
" transform="scale(0.015625)"/>
      <path id="DejaVuSans-41" d="M 2188 4044 
L 1331 1722 
L 3047 1722 
L 2188 4044 
z
M 1831 4666 
L 2547 4666 
L 4325 0 
L 3669 0 
L 3244 1197 
L 1141 1197 
L 716 0 
L 50 0 
L 1831 4666 
z
" transform="scale(0.015625)"/>
      <path id="DejaVuSans-46" d="M 628 4666 
L 3309 4666 
L 3309 4134 
L 1259 4134 
L 1259 2759 
L 3109 2759 
L 3109 2228 
L 1259 2228 
L 1259 0 
L 628 0 
L 628 4666 
z
" transform="scale(0.015625)"/>
      <path id="DejaVuSans-45" d="M 628 4666 
L 3578 4666 
L 3578 4134 
L 1259 4134 
L 1259 2753 
L 3481 2753 
L 3481 2222 
L 1259 2222 
L 1259 531 
L 3634 531 
L 3634 0 
L 628 0 
L 628 4666 
z
" transform="scale(0.015625)"/>
      <path id="DejaVuSans-2d" d="M 313 2009 
L 1997 2009 
L 1997 1497 
L 313 1497 
L 313 2009 
z
" transform="scale(0.015625)"/>
      <path id="DejaVuSans-50" d="M 1259 4147 
L 1259 2394 
L 2053 2394 
Q 2494 2394 2734 2622 
Q 2975 2850 2975 3272 
Q 2975 3691 2734 3919 
Q 2494 4147 2053 4147 
L 1259 4147 
z
M 628 4666 
L 2053 4666 
Q 2838 4666 3239 4311 
Q 3641 3956 3641 3272 
Q 3641 2581 3239 2228 
Q 2838 1875 2053 1875 
L 1259 1875 
L 1259 0 
L 628 0 
L 628 4666 
z
" transform="scale(0.015625)"/>
      <path id="DejaVuSans-4e" d="M 628 4666 
L 1478 4666 
L 3547 763 
L 3547 4666 
L 4159 4666 
L 4159 0 
L 3309 0 
L 1241 3903 
L 1241 0 
L 628 0 
L 628 4666 
z
" transform="scale(0.015625)"/>
     </defs>
     <use xlink:href="#DejaVuSans-53"/>
     <use xlink:href="#DejaVuSans-41" x="65.351562"/>
     <use xlink:href="#DejaVuSans-46" x="133.759766"/>
     <use xlink:href="#DejaVuSans-45" x="191.279297"/>
     <use xlink:href="#DejaVuSans-2d" x="254.462891"/>
     <use xlink:href="#DejaVuSans-50" x="290.546875"/>
     <use xlink:href="#DejaVuSans-4e" x="350.849609"/>
     <use xlink:href="#DejaVuSans-53" x="425.654297"/>
    </g>
   </g>
   <g id="legend_2">
    <g id="patch_12">
     <path d="M 1448.611342 276.65 
L 1581.848842 276.65 
Q 1586.248842 276.65 1586.248842 272.25 
L 1586.248842 242.158125 
Q 1586.248842 237.758125 1581.848842 237.758125 
L 1448.611342 237.758125 
Q 1444.211342 237.758125 1444.211342 242.158125 
L 1444.211342 272.25 
Q 1444.211342 276.65 1448.611342 276.65 
z
" style="fill: #ffffff; opacity: 0.2; stroke: #cccccc; stroke-linejoin: miter"/>
    </g>
    <g id="line2d_45">
     <path d="M 1453.011342 255.574688 
L 1475.011342 255.574688 
L 1497.011342 255.574688 
" style="fill: none; stroke: #000000; stroke-width: 5; stroke-linecap: square"/>
    </g>
    <g id="text_37">
     <!-- Y-axis -->
     <g transform="translate(1514.611342 263.274688) scale(0.22 -0.22)">
      <defs>
       <path id="DejaVuSans-59" d="M -13 4666 
L 666 4666 
L 1959 2747 
L 3244 4666 
L 3922 4666 
L 2272 2222 
L 2272 0 
L 1638 0 
L 1638 2222 
L -13 4666 
z
" transform="scale(0.015625)"/>
       <path id="DejaVuSans-61" d="M 2194 1759 
Q 1497 1759 1228 1600 
Q 959 1441 959 1056 
Q 959 750 1161 570 
Q 1363 391 1709 391 
Q 2188 391 2477 730 
Q 2766 1069 2766 1631 
L 2766 1759 
L 2194 1759 
z
M 3341 1997 
L 3341 0 
L 2766 0 
L 2766 531 
Q 2569 213 2275 61 
Q 1981 -91 1556 -91 
Q 1019 -91 701 211 
Q 384 513 384 1019 
Q 384 1609 779 1909 
Q 1175 2209 1959 2209 
L 2766 2209 
L 2766 2266 
Q 2766 2663 2505 2880 
Q 2244 3097 1772 3097 
Q 1472 3097 1187 3025 
Q 903 2953 641 2809 
L 641 3341 
Q 956 3463 1253 3523 
Q 1550 3584 1831 3584 
Q 2591 3584 2966 3190 
Q 3341 2797 3341 1997 
z
" transform="scale(0.015625)"/>
       <path id="DejaVuSans-78" d="M 3513 3500 
L 2247 1797 
L 3578 0 
L 2900 0 
L 1881 1375 
L 863 0 
L 184 0 
L 1544 1831 
L 300 3500 
L 978 3500 
L 1906 2253 
L 2834 3500 
L 3513 3500 
z
" transform="scale(0.015625)"/>
      </defs>
      <use xlink:href="#DejaVuSans-59"/>
      <use xlink:href="#DejaVuSans-2d" x="49.208984"/>
      <use xlink:href="#DejaVuSans-61" x="85.292969"/>
      <use xlink:href="#DejaVuSans-78" x="146.572266"/>
      <use xlink:href="#DejaVuSans-69" x="205.751953"/>
      <use xlink:href="#DejaVuSans-73" x="233.535156"/>
     </g>
    </g>
   </g>
  </g>
  <g id="axes_4">
   <g id="patch_13">
    <path d="M 1720.236598 287.65 
L 2130.195781 287.65 
L 2130.195781 38.17 
L 1720.236598 38.17 
z
" style="fill: #ffffff"/>
   </g>
   <g id="matplotlib.axis_7">
    <g id="xtick_13">
     <g id="line2d_46">
      <g>
       <use xlink:href="#m188a97a17e" x="1720.236598" y="287.65" style="stroke: #000000; stroke-width: 0.8"/>
      </g>
     </g>
     <g id="text_38">
      <!-- 0 -->
      <g transform="translate(1711.647223 315.165781) scale(0.27 -0.27)">
       <use xlink:href="#DejaVuSans-30"/>
      </g>
     </g>
    </g>
    <g id="xtick_14">
     <g id="line2d_47">
      <g>
       <use xlink:href="#m188a97a17e" x="1822.726393" y="287.65" style="stroke: #000000; stroke-width: 0.8"/>
      </g>
     </g>
     <g id="text_39">
      <!-- 25 -->
      <g transform="translate(1805.547643 315.165781) scale(0.27 -0.27)">
       <use xlink:href="#DejaVuSans-32"/>
       <use xlink:href="#DejaVuSans-35" x="63.623047"/>
      </g>
     </g>
    </g>
    <g id="xtick_15">
     <g id="line2d_48">
      <g>
       <use xlink:href="#m188a97a17e" x="1925.216189" y="287.65" style="stroke: #000000; stroke-width: 0.8"/>
      </g>
     </g>
     <g id="text_40">
      <!-- 50 -->
      <g transform="translate(1908.037439 315.165781) scale(0.27 -0.27)">
       <use xlink:href="#DejaVuSans-35"/>
       <use xlink:href="#DejaVuSans-30" x="63.623047"/>
      </g>
     </g>
    </g>
    <g id="xtick_16">
     <g id="line2d_49">
      <g>
       <use xlink:href="#m188a97a17e" x="2027.705985" y="287.65" style="stroke: #000000; stroke-width: 0.8"/>
      </g>
     </g>
     <g id="text_41">
      <!-- 75 -->
      <g transform="translate(2010.527235 315.165781) scale(0.27 -0.27)">
       <use xlink:href="#DejaVuSans-37"/>
       <use xlink:href="#DejaVuSans-35" x="63.623047"/>
      </g>
     </g>
    </g>
    <g id="text_42">
     <!-- Time [ms] -->
     <g transform="translate(1849.618533 347.57625) scale(0.3 -0.3)">
      <use xlink:href="#DejaVuSans-54"/>
      <use xlink:href="#DejaVuSans-69" x="57.958984"/>
      <use xlink:href="#DejaVuSans-6d" x="85.742188"/>
      <use xlink:href="#DejaVuSans-65" x="183.154297"/>
      <use xlink:href="#DejaVuSans-20" x="244.677734"/>
      <use xlink:href="#DejaVuSans-5b" x="276.464844"/>
      <use xlink:href="#DejaVuSans-6d" x="315.478516"/>
      <use xlink:href="#DejaVuSans-73" x="412.890625"/>
      <use xlink:href="#DejaVuSans-5d" x="464.990234"/>
     </g>
    </g>
   </g>
   <g id="matplotlib.axis_8">
    <g id="ytick_16">
     <g id="line2d_50">
      <g>
       <use xlink:href="#me1c302977e" x="1720.236598" y="287.65" style="stroke: #000000; stroke-width: 0.8"/>
      </g>
     </g>
     <g id="text_43">
      <!-- 0.00 -->
      <g transform="translate(1653.11941 297.907891) scale(0.27 -0.27)">
       <use xlink:href="#DejaVuSans-30"/>
       <use xlink:href="#DejaVuSans-2e" x="63.623047"/>
       <use xlink:href="#DejaVuSans-30" x="95.410156"/>
       <use xlink:href="#DejaVuSans-30" x="159.033203"/>
      </g>
     </g>
    </g>
    <g id="ytick_17">
     <g id="line2d_51">
      <g>
       <use xlink:href="#me1c302977e" x="1720.236598" y="225.28" style="stroke: #000000; stroke-width: 0.8"/>
      </g>
     </g>
     <g id="text_44">
      <!-- 0.25 -->
      <g transform="translate(1653.11941 235.537891) scale(0.27 -0.27)">
       <use xlink:href="#DejaVuSans-30"/>
       <use xlink:href="#DejaVuSans-2e" x="63.623047"/>
       <use xlink:href="#DejaVuSans-32" x="95.410156"/>
       <use xlink:href="#DejaVuSans-35" x="159.033203"/>
      </g>
     </g>
    </g>
    <g id="ytick_18">
     <g id="line2d_52">
      <g>
       <use xlink:href="#me1c302977e" x="1720.236598" y="162.91" style="stroke: #000000; stroke-width: 0.8"/>
      </g>
     </g>
     <g id="text_45">
      <!-- 0.50 -->
      <g transform="translate(1653.11941 173.167891) scale(0.27 -0.27)">
       <use xlink:href="#DejaVuSans-30"/>
       <use xlink:href="#DejaVuSans-2e" x="63.623047"/>
       <use xlink:href="#DejaVuSans-35" x="95.410156"/>
       <use xlink:href="#DejaVuSans-30" x="159.033203"/>
      </g>
     </g>
    </g>
    <g id="ytick_19">
     <g id="line2d_53">
      <g>
       <use xlink:href="#me1c302977e" x="1720.236598" y="100.54" style="stroke: #000000; stroke-width: 0.8"/>
      </g>
     </g>
     <g id="text_46">
      <!-- 0.75 -->
      <g transform="translate(1653.11941 110.797891) scale(0.27 -0.27)">
       <use xlink:href="#DejaVuSans-30"/>
       <use xlink:href="#DejaVuSans-2e" x="63.623047"/>
       <use xlink:href="#DejaVuSans-37" x="95.410156"/>
       <use xlink:href="#DejaVuSans-35" x="159.033203"/>
      </g>
     </g>
    </g>
    <g id="ytick_20">
     <g id="line2d_54">
      <g>
       <use xlink:href="#me1c302977e" x="1720.236598" y="38.17" style="stroke: #000000; stroke-width: 0.8"/>
      </g>
     </g>
     <g id="text_47">
      <!-- 1.00 -->
      <g transform="translate(1653.11941 48.427891) scale(0.27 -0.27)">
       <use xlink:href="#DejaVuSans-31"/>
       <use xlink:href="#DejaVuSans-2e" x="63.623047"/>
       <use xlink:href="#DejaVuSans-30" x="95.410156"/>
       <use xlink:href="#DejaVuSans-30" x="159.033203"/>
      </g>
     </g>
    </g>
    <g id="text_48">
     <!-- unitless -->
     <g transform="translate(1642.880348 220.995156) rotate(-90) scale(0.3 -0.3)">
      <use xlink:href="#DejaVuSans-75"/>
      <use xlink:href="#DejaVuSans-6e" x="63.378906"/>
      <use xlink:href="#DejaVuSans-69" x="126.757812"/>
      <use xlink:href="#DejaVuSans-74" x="154.541016"/>
      <use xlink:href="#DejaVuSans-6c" x="193.75"/>
      <use xlink:href="#DejaVuSans-65" x="221.533203"/>
      <use xlink:href="#DejaVuSans-73" x="283.056641"/>
      <use xlink:href="#DejaVuSans-73" x="335.15625"/>
     </g>
    </g>
   </g>
   <g id="line2d_55">
    <path d="M 1720.236598 287.65 
L 2130.195781 287.65 
" clip-path="url(#p53b54be587)" style="fill: none; stroke: #d3d3d3; stroke-opacity: 0.8; stroke-width: 1.5; stroke-linecap: square"/>
   </g>
   <g id="line2d_56">
    <path d="M 1720.236598 287.65 
L 1732.535373 287.65 
L 1733.355291 212.222941 
L 1734.17521 152.200659 
L 1734.995128 118.637576 
L 1735.815047 107.556074 
L 1737.454883 101.77973 
L 1739.09472 97.126699 
L 1740.734557 93.380714 
L 1742.374393 90.364133 
L 1743.194312 96.378232 
L 1744.834149 125.147508 
L 1746.473985 150.018232 
L 1748.113822 170.866527 
L 1749.753659 188.411432 
L 1751.393496 203.286745 
L 1755.493087 235.555313 
L 1756.313006 239.855381 
L 1757.132924 257.974174 
L 1757.952842 202.957294 
L 1758.772761 186.827527 
L 1759.592679 151.461006 
L 1761.232516 102.70382 
L 1762.052434 110.178831 
L 1762.872353 86.326235 
L 1763.692271 88.249224 
L 1764.512189 85.33132 
L 1765.332108 83.131625 
L 1766.152026 80.564974 
L 1766.971945 79.686465 
L 1767.791863 78.212956 
L 1768.611781 78.389467 
L 1769.4317 78.118596 
L 1781.730475 77.823924 
L 1782.550393 82.967143 
L 1783.370312 91.635978 
L 1785.010149 121.273209 
L 1786.649985 146.360264 
L 1788.289822 167.553574 
L 1789.929659 185.522219 
L 1791.569496 200.726842 
L 1793.209332 213.644563 
L 1794.849169 224.550426 
L 1796.489006 233.872608 
L 1798.128842 241.754325 
L 1799.768679 248.481037 
L 1801.408516 254.180729 
L 1803.048353 259.070064 
L 1804.688189 263.198541 
L 1806.328026 267.125393 
L 1807.147945 270.661212 
L 1807.967863 272.050993 
L 1808.787781 219.000361 
L 1809.6077 174.989982 
L 1810.427618 154.985097 
L 1811.247536 128.572621 
L 1812.887373 85.420475 
L 1813.707291 80.931938 
L 1814.52721 77.752015 
L 1816.167047 77.706966 
L 1816.986965 80.49007 
L 1818.626802 111.828107 
L 1820.266638 138.690362 
L 1821.906475 161.350244 
L 1823.546312 180.482026 
L 1825.186149 196.648971 
L 1826.825985 210.322075 
L 1828.465822 221.895562 
L 1830.105659 231.699719 
L 1831.745496 240.011536 
L 1833.385332 247.063525 
L 1835.025169 253.051053 
L 1836.665006 258.138427 
L 1838.304842 262.463963 
L 1839.944679 266.144202 
L 1841.584516 269.27743 
L 1843.224353 271.946608 
L 1844.864189 274.221824 
L 1846.504026 276.162338 
L 1847.323945 277.023068 
L 1848.143863 208.651451 
L 1848.963781 186.155216 
L 1849.7837 168.160078 
L 1850.603618 174.562352 
L 1853.063373 232.484273 
L 1853.883291 201.463392 
L 1854.70321 179.924602 
L 1856.343047 145.141893 
L 1857.162965 130.859833 
L 1857.982883 123.443216 
L 1858.802802 118.946673 
L 1860.442638 115.760559 
L 1861.262557 114.483841 
L 1862.082475 113.416976 
L 1862.902393 112.550832 
L 1863.722312 111.876137 
L 1864.54223 111.383478 
L 1865.362149 111.060996 
L 1866.182067 110.887567 
L 1867.001985 109.425927 
L 1869.46174 146.113635 
L 1870.281659 156.754138 
L 1871.101577 165.877878 
L 1871.921496 179.363563 
L 1873.561332 212.262956 
L 1874.381251 229.04446 
L 1875.201169 225.965972 
L 1876.021087 206.63548 
L 1877.660924 175.788372 
L 1879.300761 151.200319 
L 1880.940598 131.154389 
L 1881.760516 127.499238 
L 1883.400353 126.116746 
L 1885.040189 125.001215 
L 1885.860108 123.896948 
L 1886.680026 134.15439 
L 1887.499945 159.99811 
L 1888.319863 174.309214 
L 1888.319863 174.309214 
" clip-path="url(#p53b54be587)" style="fill: none; stroke: #000000; stroke-width: 5; stroke-linecap: square"/>
   </g>
   <g id="line2d_57">
    <path d="M 1720.236598 287.65 
L 2130.195781 287.65 
" clip-path="url(#p53b54be587)" style="fill: none; stroke: #000000; stroke-width: 5; stroke-linecap: square"/>
   </g>
   <g id="line2d_58">
    <path d="M 1720.236598 89.22419 
L 1721.876434 86.990958 
L 1723.516271 85.133808 
L 1725.156108 83.587639 
L 1726.795945 82.298918 
L 1728.435781 81.223571 
L 1730.895536 79.932943 
L 1733.355291 78.945181 
L 1735.815047 78.187414 
L 1739.09472 77.441958 
L 1742.374393 76.914803 
L 1746.473985 76.46535 
L 1752.213414 76.083718 
L 1759.592679 75.829283 
L 1771.891455 75.663797 
L 1798.128842 75.597879 
L 1817.806883 75.592919 
L 1818.626802 92.523989 
L 1819.44672 124.232618 
L 1820.266638 125.617272 
L 1821.086557 118.024055 
L 1822.726393 109.871536 
L 1824.36623 103.299395 
L 1826.006067 97.999208 
L 1827.645904 93.723045 
L 1829.28574 90.271557 
L 1830.925577 87.484426 
L 1832.565414 85.232685 
L 1834.205251 83.412563 
L 1835.845087 81.94054 
L 1837.484924 80.749372 
L 1839.124761 79.784904 
L 1841.584516 78.670192 
L 1844.044271 77.856108 
L 1844.864189 98.617888 
L 1845.684108 138.371345 
L 1846.504026 121.701 
L 1847.323945 118.456003 
L 1848.963781 110.238584 
L 1850.603618 103.61146 
L 1852.243455 98.26466 
L 1853.883291 93.948954 
L 1855.523128 90.463902 
L 1857.162965 87.648264 
L 1858.802802 85.372298 
L 1860.442638 83.53158 
L 1862.082475 82.042035 
L 1863.722312 80.835955 
L 1865.362149 79.85879 
L 1867.821904 78.72847 
L 1870.281659 77.902104 
L 1872.741414 77.296963 
L 1876.021087 76.733 
L 1880.120679 76.286575 
L 1885.040189 75.978245 
L 1888.319863 75.854646 
L 1888.319863 75.854646 
" clip-path="url(#p53b54be587)" style="fill: none; stroke-dasharray: 22.2,9.6; stroke-dashoffset: 0; stroke: #800080; stroke-width: 6"/>
   </g>
   <g id="line2d_59">
    <path clip-path="url(#p53b54be587)" style="fill: none; stroke-dasharray: 11.1,4.8; stroke-dashoffset: 0; stroke: #800080; stroke-width: 3"/>
   </g>
   <g id="line2d_60">
    <path d="M 1720.236598 75.592 
L 2130.195781 75.592 
" clip-path="url(#p53b54be587)" style="fill: none; stroke-dasharray: 5,8.25; stroke-dashoffset: 0; stroke: #800080; stroke-opacity: 0.5; stroke-width: 5"/>
   </g>
   <g id="patch_14">
    <path d="M 1720.236598 287.65 
L 1720.236598 38.17 
" style="fill: none; stroke: #000000; stroke-width: 0.8; stroke-linejoin: miter; stroke-linecap: square"/>
   </g>
   <g id="patch_15">
    <path d="M 1720.236598 287.65 
L 2130.195781 287.65 
" style="fill: none; stroke: #000000; stroke-width: 0.8; stroke-linejoin: miter; stroke-linecap: square"/>
   </g>
   <g id="text_49">
    <!-- SAFE-CNS -->
    <g transform="translate(1845.428689 31.515) scale(0.32 -0.32)">
     <defs>
      <path id="DejaVuSans-43" d="M 4122 4306 
L 4122 3641 
Q 3803 3938 3442 4084 
Q 3081 4231 2675 4231 
Q 1875 4231 1450 3742 
Q 1025 3253 1025 2328 
Q 1025 1406 1450 917 
Q 1875 428 2675 428 
Q 3081 428 3442 575 
Q 3803 722 4122 1019 
L 4122 359 
Q 3791 134 3420 21 
Q 3050 -91 2638 -91 
Q 1578 -91 968 557 
Q 359 1206 359 2328 
Q 359 3453 968 4101 
Q 1578 4750 2638 4750 
Q 3056 4750 3426 4639 
Q 3797 4528 4122 4306 
z
" transform="scale(0.015625)"/>
     </defs>
     <use xlink:href="#DejaVuSans-53"/>
     <use xlink:href="#DejaVuSans-41" x="65.351562"/>
     <use xlink:href="#DejaVuSans-46" x="133.759766"/>
     <use xlink:href="#DejaVuSans-45" x="191.279297"/>
     <use xlink:href="#DejaVuSans-2d" x="254.462891"/>
     <use xlink:href="#DejaVuSans-43" x="290.546875"/>
     <use xlink:href="#DejaVuSans-4e" x="360.371094"/>
     <use xlink:href="#DejaVuSans-53" x="435.175781"/>
    </g>
   </g>
   <g id="legend_3">
    <g id="patch_16">
     <path d="M 1981.558281 276.65 
L 2114.795781 276.65 
Q 2119.195781 276.65 2119.195781 272.25 
L 2119.195781 242.158125 
Q 2119.195781 237.758125 2114.795781 237.758125 
L 1981.558281 237.758125 
Q 1977.158281 237.758125 1977.158281 242.158125 
L 1977.158281 272.25 
Q 1977.158281 276.65 1981.558281 276.65 
z
" style="fill: #ffffff; opacity: 0.2; stroke: #cccccc; stroke-linejoin: miter"/>
    </g>
    <g id="line2d_61">
     <path d="M 1985.958281 255.574688 
L 2007.958281 255.574688 
L 2029.958281 255.574688 
" style="fill: none; stroke: #000000; stroke-width: 5; stroke-linecap: square"/>
    </g>
    <g id="text_50">
     <!-- Y-axis -->
     <g transform="translate(2047.558281 263.274688) scale(0.22 -0.22)">
      <use xlink:href="#DejaVuSans-59"/>
      <use xlink:href="#DejaVuSans-2d" x="49.208984"/>
      <use xlink:href="#DejaVuSans-61" x="85.292969"/>
      <use xlink:href="#DejaVuSans-78" x="146.572266"/>
      <use xlink:href="#DejaVuSans-69" x="205.751953"/>
      <use xlink:href="#DejaVuSans-73" x="233.535156"/>
     </g>
    </g>
   </g>
  </g>
 </g>
 <defs>
  <clipPath id="pe50920a3c3">
   <rect x="121.395781" y="38.17" width="409.959184" height="249.48"/>
  </clipPath>
  <clipPath id="p8461ebb3a1">
   <rect x="654.34272" y="38.17" width="409.959184" height="249.48"/>
  </clipPath>
  <clipPath id="p384adcaaa7">
   <rect x="1187.289659" y="38.17" width="409.959184" height="249.48"/>
  </clipPath>
  <clipPath id="p53b54be587">
   <rect x="1720.236598" y="38.17" width="409.959184" height="249.48"/>
  </clipPath>
 </defs>
</svg>
