<?xml version="1.0" encoding="utf-8" standalone="no"?>
<!DOCTYPE svg PUBLIC "-//W3C//DTD SVG 1.1//EN"
  "http://www.w3.org/Graphics/SVG/1.1/DTD/svg11.dtd">
<svg xmlns:xlink="http://www.w3.org/1999/xlink" width="2137.395781pt" height="361.015312pt" viewBox="0 0 2137.395781 361.015312" xmlns="http://www.w3.org/2000/svg" version="1.1">
 <metadata>
  <rdf:RDF xmlns:dc="http://purl.org/dc/elements/1.1/" xmlns:cc="http://creativecommons.org/ns#" xmlns:rdf="http://www.w3.org/1999/02/22-rdf-syntax-ns#">
   <cc:Work>
    <dc:type rdf:resource="http://purl.org/dc/dcmitype/StillImage"/>
    <dc:date>2025-12-11T16:02:15.331882</dc:date>
    <dc:format>image/svg+xml</dc:format>
    <dc:creator>
     <cc:Agent>
      <dc:title>Matplotlib v3.9.0, https://matplotlib.org/</dc:title>
     </cc:Agent>
    </dc:creator>
   </cc:Work>
  </rdf:RDF>
 </metadata>
 <defs>
  <style type="text/css">*{stroke-linejoin: round; stroke-linecap: butt}</style>
 </defs>
 <g id="figure_1">
  <g id="patch_1">
   <path d="M 0 361.015312 
L 2137.395781 361.015312 
L 2137.395781 0 
L 0 0 
z
" style="fill: #ffffff"/>
  </g>
  <g id="axes_1">
   <g id="patch_2">
    <path d="M 121.395781 287.65 
L 531.354965 287.65 
L 531.354965 38.17 
L 121.395781 38.17 
z
" style="fill: #ffffff"/>
   </g>
   <g id="PolyCollection_1">
    <defs>
     <path id="m36e018210a" d="M 121.395781 -198.105312 
L 121.395781 -198.105312 
L 122.141162 -198.105312 
L 122.886542 -198.105312 
L 123.631922 -198.105312 
L 124.377303 -198.105312 
L 125.122683 -198.105312 
L 125.868063 -198.105312 
L 126.613444 -198.105312 
L 127.358824 -198.105312 
L 128.104204 -198.105312 
L 128.849585 -198.105312 
L 129.594965 -198.105312 
L 130.340345 -198.105312 
L 131.085726 -198.105312 
L 131.831106 -198.105312 
L 132.576486 -198.105312 
L 133.321867 -198.105312 
L 134.067247 -198.105312 
L 134.812627 -198.105312 
L 135.558008 -198.105312 
L 136.303388 -198.105312 
L 137.048768 -198.105312 
L 137.794149 -198.105312 
L 138.539529 -198.105312 
L 139.284909 -198.105312 
L 140.03029 -198.105312 
L 140.77567 -198.105312 
L 141.52105 -198.105312 
L 142.266431 -198.105312 
L 143.011811 -198.105312 
L 143.757191 -198.105312 
L 144.502572 -198.105312 
L 145.247952 -198.105312 
L 145.993332 -198.105312 
L 146.738713 -198.105312 
L 147.484093 -198.105312 
L 148.229473 -198.105312 
L 148.974854 -198.105312 
L 149.720234 -198.105312 
L 150.465614 -198.105312 
L 151.210995 -198.105312 
L 151.956375 -198.105312 
L 152.701755 -198.105312 
L 153.447136 -198.105312 
L 154.192516 -198.105312 
L 154.937896 -198.105312 
L 155.683277 -198.105312 
L 156.428657 -198.105312 
L 157.174037 -198.105312 
L 157.919418 -198.105312 
L 158.664798 -198.105312 
L 159.410178 -198.105312 
L 160.155559 -198.105312 
L 160.900939 -198.105312 
L 161.646319 -198.105312 
L 162.3917 -198.105312 
L 163.13708 -198.105312 
L 163.88246 -198.105312 
L 164.627841 -198.105312 
L 165.373221 -198.105312 
L 166.118601 -198.105312 
L 166.863982 -198.105312 
L 167.609362 -198.105312 
L 168.354742 -198.105312 
L 169.100123 -198.105312 
L 169.845503 -198.105312 
L 170.590883 -198.105312 
L 171.336264 -198.105312 
L 172.081644 -198.105312 
L 172.827024 -198.105312 
L 173.572405 -198.105312 
L 174.317785 -198.105312 
L 175.063165 -198.105312 
L 175.808546 -198.105312 
L 176.553926 -198.105312 
L 177.299306 -198.105312 
L 178.044687 -198.105312 
L 178.790067 -198.105312 
L 179.535447 -198.105312 
L 180.280828 -198.105312 
L 181.026208 -198.105312 
L 181.771588 -198.105312 
L 182.516969 -198.105312 
L 183.262349 -198.105312 
L 184.007729 -198.105312 
L 184.75311 -198.105312 
L 185.49849 -198.105312 
L 186.24387 -198.105312 
L 186.989251 -198.105312 
L 187.734631 -198.105312 
L 188.480011 -198.105312 
L 189.225392 -198.105312 
L 189.970772 -198.105312 
L 190.716152 -198.105312 
L 191.461533 -198.105312 
L 192.206913 -198.105312 
L 192.952293 -198.105312 
L 193.697674 -198.105312 
L 194.443054 -198.105312 
L 195.188434 -198.105312 
L 195.933815 -198.105312 
L 196.679195 -198.105312 
L 197.424575 -198.105312 
L 198.169956 -198.105312 
L 198.915336 -198.105312 
L 199.660716 -198.105312 
L 200.406097 -198.105312 
L 201.151477 -198.105312 
L 201.896857 -198.105312 
L 202.642238 -198.105312 
L 203.387618 -198.105312 
L 204.132998 -198.105312 
L 204.878379 -198.105312 
L 205.623759 -198.105312 
L 206.369139 -198.105312 
L 207.11452 -198.105312 
L 207.8599 -198.105312 
L 208.60528 -198.105312 
L 209.350661 -198.105312 
L 210.096041 -198.105312 
L 210.841421 -198.105312 
L 211.586802 -198.105312 
L 212.332182 -198.105312 
L 213.077562 -198.105312 
L 213.822943 -198.105312 
L 214.568323 -198.105312 
L 215.313703 -198.105312 
L 216.059084 -198.105312 
L 216.804464 -198.105312 
L 217.549844 -198.105312 
L 218.295225 -198.105312 
L 219.040605 -198.105312 
L 219.785985 -198.105312 
L 220.531366 -198.105312 
L 221.276746 -198.105312 
L 222.022126 -198.105312 
L 222.767507 -198.105312 
L 223.512887 -198.105312 
L 224.258267 -198.105312 
L 225.003648 -198.105312 
L 225.749028 -198.105312 
L 226.494408 -198.105312 
L 227.239789 -198.105312 
L 227.985169 -198.105312 
L 228.730549 -198.105312 
L 229.47593 -198.105312 
L 230.22131 -198.105312 
L 230.96669 -198.105312 
L 231.712071 -198.105312 
L 232.457451 -198.105312 
L 233.202831 -198.105312 
L 233.948212 -198.105312 
L 234.693592 -198.105312 
L 235.438972 -198.105312 
L 236.184353 -198.105312 
L 236.929733 -198.105312 
L 237.675113 -198.105312 
L 238.420494 -198.105312 
L 239.165874 -198.105312 
L 239.911254 -198.105312 
L 240.656635 -198.105312 
L 241.402015 -198.105312 
L 242.147395 -198.105312 
L 242.892776 -198.105312 
L 243.638156 -198.105312 
L 244.383536 -198.105312 
L 245.128917 -198.105312 
L 245.874297 -198.105312 
L 246.619677 -198.105312 
L 247.365058 -198.105312 
L 248.110438 -198.105312 
L 248.855818 -198.105312 
L 249.601199 -198.105312 
L 250.346579 -198.105312 
L 251.091959 -198.105312 
L 251.83734 -198.105312 
L 252.58272 -198.105312 
L 253.3281 -198.105312 
L 254.073481 -198.105312 
L 254.818861 -198.105312 
L 255.564241 -198.105312 
L 256.309622 -198.105312 
L 257.055002 -198.105312 
L 257.800382 -198.105312 
L 258.545763 -198.105312 
L 259.291143 -198.105312 
L 260.036523 -198.105312 
L 260.036523 -198.105312 
L 260.036523 -198.105312 
L 259.291143 -203.660816 
L 258.545763 -209.516592 
L 257.800382 -217.219543 
L 257.055002 -227.310441 
L 256.309622 -237.548065 
L 255.564241 -248.04375 
L 254.818861 -258.786371 
L 254.073481 -269.916865 
L 253.3281 -281.377779 
L 252.58272 -302.26017 
L 251.83734 -314.836579 
L 251.091959 -314.837561 
L 250.346579 -314.838728 
L 249.601199 -314.838851 
L 248.855818 -314.83998 
L 248.110438 -314.838934 
L 247.365058 -314.839466 
L 246.619677 -314.839268 
L 245.874297 -314.839645 
L 245.128917 -314.840032 
L 244.383536 -314.839489 
L 243.638156 -314.839339 
L 242.892776 -314.839415 
L 242.147395 -314.839261 
L 241.402015 -314.839504 
L 240.656635 -314.839116 
L 239.911254 -312.649535 
L 239.165874 -307.155261 
L 238.420494 -301.650654 
L 237.675113 -296.133977 
L 236.929733 -290.602694 
L 236.184353 -285.058323 
L 235.438972 -279.496434 
L 234.693592 -273.917649 
L 233.948212 -268.317841 
L 233.202831 -257.953169 
L 232.457451 -246.971356 
L 231.712071 -235.500751 
L 230.96669 -222.680911 
L 230.22131 -198.105312 
L 229.47593 -198.105312 
L 228.730549 -198.105312 
L 227.985169 -198.105312 
L 227.239789 -198.105312 
L 226.494408 -198.105312 
L 225.749028 -198.105312 
L 225.003648 -198.105312 
L 224.258267 -198.105312 
L 223.512887 -198.105312 
L 222.767507 -198.105312 
L 222.022126 -198.105312 
L 221.276746 -198.105312 
L 220.531366 -198.105312 
L 219.785985 -198.105312 
L 219.040605 -198.105312 
L 218.295225 -198.105312 
L 217.549844 -198.105312 
L 216.804464 -198.105312 
L 216.059084 -198.105312 
L 215.313703 -198.105312 
L 214.568323 -198.105312 
L 213.822943 -198.105312 
L 213.077562 -198.105312 
L 212.332182 -198.105312 
L 211.586802 -198.105312 
L 210.841421 -198.105312 
L 210.096041 -198.105312 
L 209.350661 -198.105312 
L 208.60528 -198.105312 
L 207.8599 -198.105312 
L 207.11452 -198.105312 
L 206.369139 -198.105312 
L 205.623759 -198.105312 
L 204.878379 -198.105312 
L 204.132998 -198.105312 
L 203.387618 -198.105312 
L 202.642238 -198.105312 
L 201.896857 -187.932918 
L 201.151477 -177.508111 
L 200.406097 -166.75743 
L 199.660716 -155.855425 
L 198.915336 -144.723109 
L 198.169956 -133.148396 
L 197.424575 -119.274677 
L 196.679195 -97.503454 
L 195.933815 -89.863997 
L 195.188434 -89.863995 
L 194.443054 -89.86407 
L 193.697674 -89.883085 
L 192.952293 -89.912948 
L 192.206913 -89.955571 
L 191.461533 -90.300726 
L 190.716152 -95.706184 
L 189.970772 -101.076682 
L 189.225392 -106.429176 
L 188.480011 -111.791502 
L 187.734631 -117.146871 
L 186.989251 -122.51623 
L 186.24387 -127.878912 
L 185.49849 -133.25462 
L 184.75311 -138.621822 
L 184.007729 -144.004007 
L 183.262349 -149.38087 
L 182.516969 -154.769106 
L 181.771588 -160.154516 
L 181.026208 -165.550893 
L 180.280828 -170.946329 
L 179.535447 -176.349092 
L 178.790067 -181.758549 
L 178.044687 -187.171962 
L 177.299306 -192.594146 
L 176.553926 -198.016939 
L 175.808546 -203.454047 
L 175.063165 -208.896546 
L 174.317785 -214.348346 
L 173.572405 -219.8045 
L 172.827024 -225.251131 
L 172.081644 -233.423504 
L 171.336264 -245.702244 
L 170.590883 -258.744516 
L 169.845503 -275.790172 
L 169.100123 -292.549068 
L 168.354742 -306.412825 
L 167.609362 -313.75279 
L 166.863982 -313.75942 
L 166.118601 -313.822266 
L 165.373221 -313.873785 
L 164.627841 -313.93301 
L 163.88246 -313.998823 
L 163.13708 -314.048439 
L 162.3917 -314.124138 
L 161.646319 -314.168096 
L 160.900939 -314.241801 
L 160.155559 -314.28041 
L 159.410178 -314.351363 
L 158.664798 -314.386572 
L 157.919418 -314.455816 
L 157.174037 -314.488534 
L 156.428657 -314.543401 
L 155.683277 -314.59277 
L 154.937896 -314.621444 
L 154.192516 -314.679547 
L 153.447136 -314.703128 
L 152.701755 -314.755139 
L 151.956375 -314.762487 
L 151.210995 -314.81 
L 150.465614 -314.810018 
L 149.720234 -314.839298 
L 148.974854 -314.839323 
L 148.229473 -314.839345 
L 147.484093 -314.839291 
L 146.738713 -314.839352 
L 145.993332 -314.839323 
L 145.247952 -314.839355 
L 144.502572 -314.839318 
L 143.757191 -314.839376 
L 143.011811 -314.839364 
L 142.266431 -314.839169 
L 141.52105 -311.731146 
L 140.77567 -306.18296 
L 140.03029 -300.617763 
L 139.284909 -295.034369 
L 138.539529 -289.430318 
L 137.794149 -283.80357 
L 137.048768 -278.151993 
L 136.303388 -272.472517 
L 135.558008 -266.762767 
L 134.812627 -258.713672 
L 134.067247 -244.220061 
L 133.321867 -222.680931 
L 132.576486 -198.105312 
L 131.831106 -198.105312 
L 131.085726 -198.105312 
L 130.340345 -198.105312 
L 129.594965 -198.105312 
L 128.849585 -198.105312 
L 128.104204 -198.105312 
L 127.358824 -198.105312 
L 126.613444 -198.105312 
L 125.868063 -198.105312 
L 125.122683 -198.105312 
L 124.377303 -198.105312 
L 123.631922 -198.105312 
L 122.886542 -198.105312 
L 122.141162 -198.105312 
L 121.395781 -198.105312 
z
" style="stroke: #0173b2; stroke-opacity: 0.75"/>
    </defs>
    <g clip-path="url(#p2137cdd9c8)">
     <use xlink:href="#m36e018210a" x="0" y="361.015312" style="fill: #0173b2; fill-opacity: 0.75; stroke: #0173b2; stroke-opacity: 0.75"/>
    </g>
   </g>
   <g id="matplotlib.axis_1">
    <g id="xtick_1">
     <g id="line2d_1">
      <defs>
       <path id="m66f4d6ada8" d="M 0 0 
L 0 3.5 
" style="stroke: #000000; stroke-width: 0.8"/>
      </defs>
      <g>
       <use xlink:href="#m66f4d6ada8" x="121.395781" y="287.65" style="stroke: #000000; stroke-width: 0.8"/>
      </g>
     </g>
     <g id="text_1">
      <!-- 0 -->
      <g transform="translate(112.806406 315.165781) scale(0.27 -0.27)">
       <defs>
        <path id="DejaVuSans-30" d="M 2034 4250 
Q 1547 4250 1301 3770 
Q 1056 3291 1056 2328 
Q 1056 1369 1301 889 
Q 1547 409 2034 409 
Q 2525 409 2770 889 
Q 3016 1369 3016 2328 
Q 3016 3291 2770 3770 
Q 2525 4250 2034 4250 
z
M 2034 4750 
Q 2819 4750 3233 4129 
Q 3647 3509 3647 2328 
Q 3647 1150 3233 529 
Q 2819 -91 2034 -91 
Q 1250 -91 836 529 
Q 422 1150 422 2328 
Q 422 3509 836 4129 
Q 1250 4750 2034 4750 
z
" transform="scale(0.015625)"/>
       </defs>
       <use xlink:href="#DejaVuSans-30"/>
      </g>
     </g>
    </g>
    <g id="xtick_2">
     <g id="line2d_2">
      <g>
       <use xlink:href="#m66f4d6ada8" x="214.568323" y="287.65" style="stroke: #000000; stroke-width: 0.8"/>
      </g>
     </g>
     <g id="text_2">
      <!-- 25 -->
      <g transform="translate(197.389573 315.165781) scale(0.27 -0.27)">
       <defs>
        <path id="DejaVuSans-32" d="M 1228 531 
L 3431 531 
L 3431 0 
L 469 0 
L 469 531 
Q 828 903 1448 1529 
Q 2069 2156 2228 2338 
Q 2531 2678 2651 2914 
Q 2772 3150 2772 3378 
Q 2772 3750 2511 3984 
Q 2250 4219 1831 4219 
Q 1534 4219 1204 4116 
Q 875 4013 500 3803 
L 500 4441 
Q 881 4594 1212 4672 
Q 1544 4750 1819 4750 
Q 2544 4750 2975 4387 
Q 3406 4025 3406 3419 
Q 3406 3131 3298 2873 
Q 3191 2616 2906 2266 
Q 2828 2175 2409 1742 
Q 1991 1309 1228 531 
z
" transform="scale(0.015625)"/>
        <path id="DejaVuSans-35" d="M 691 4666 
L 3169 4666 
L 3169 4134 
L 1269 4134 
L 1269 2991 
Q 1406 3038 1543 3061 
Q 1681 3084 1819 3084 
Q 2600 3084 3056 2656 
Q 3513 2228 3513 1497 
Q 3513 744 3044 326 
Q 2575 -91 1722 -91 
Q 1428 -91 1123 -41 
Q 819 9 494 109 
L 494 744 
Q 775 591 1075 516 
Q 1375 441 1709 441 
Q 2250 441 2565 725 
Q 2881 1009 2881 1497 
Q 2881 1984 2565 2268 
Q 2250 2553 1709 2553 
Q 1456 2553 1204 2497 
Q 953 2441 691 2322 
L 691 4666 
z
" transform="scale(0.015625)"/>
       </defs>
       <use xlink:href="#DejaVuSans-32"/>
       <use xlink:href="#DejaVuSans-35" x="63.623047"/>
      </g>
     </g>
    </g>
    <g id="xtick_3">
     <g id="line2d_3">
      <g>
       <use xlink:href="#m66f4d6ada8" x="307.740865" y="287.65" style="stroke: #000000; stroke-width: 0.8"/>
      </g>
     </g>
     <g id="text_3">
      <!-- 50 -->
      <g transform="translate(290.562115 315.165781) scale(0.27 -0.27)">
       <use xlink:href="#DejaVuSans-35"/>
       <use xlink:href="#DejaVuSans-30" x="63.623047"/>
      </g>
     </g>
    </g>
    <g id="xtick_4">
     <g id="line2d_4">
      <g>
       <use xlink:href="#m66f4d6ada8" x="400.913406" y="287.65" style="stroke: #000000; stroke-width: 0.8"/>
      </g>
     </g>
     <g id="text_4">
      <!-- 75 -->
      <g transform="translate(383.734656 315.165781) scale(0.27 -0.27)">
       <defs>
        <path id="DejaVuSans-37" d="M 525 4666 
L 3525 4666 
L 3525 4397 
L 1831 0 
L 1172 0 
L 2766 4134 
L 525 4134 
L 525 4666 
z
" transform="scale(0.015625)"/>
       </defs>
       <use xlink:href="#DejaVuSans-37"/>
       <use xlink:href="#DejaVuSans-35" x="63.623047"/>
      </g>
     </g>
    </g>
    <g id="xtick_5">
     <g id="line2d_5">
      <g>
       <use xlink:href="#m66f4d6ada8" x="494.085948" y="287.65" style="stroke: #000000; stroke-width: 0.8"/>
      </g>
     </g>
     <g id="text_5">
      <!-- 100 -->
      <g transform="translate(468.317823 315.165781) scale(0.27 -0.27)">
       <defs>
        <path id="DejaVuSans-31" d="M 794 531 
L 1825 531 
L 1825 4091 
L 703 3866 
L 703 4441 
L 1819 4666 
L 2450 4666 
L 2450 531 
L 3481 531 
L 3481 0 
L 794 0 
L 794 531 
z
" transform="scale(0.015625)"/>
       </defs>
       <use xlink:href="#DejaVuSans-31"/>
       <use xlink:href="#DejaVuSans-30" x="63.623047"/>
       <use xlink:href="#DejaVuSans-30" x="127.246094"/>
      </g>
     </g>
    </g>
    <g id="text_6">
     <!-- Time [ms] -->
     <g transform="translate(250.777717 347.57625) scale(0.3 -0.3)">
      <defs>
       <path id="DejaVuSans-54" d="M -19 4666 
L 3928 4666 
L 3928 4134 
L 2272 4134 
L 2272 0 
L 1638 0 
L 1638 4134 
L -19 4134 
L -19 4666 
z
" transform="scale(0.015625)"/>
       <path id="DejaVuSans-69" d="M 603 3500 
L 1178 3500 
L 1178 0 
L 603 0 
L 603 3500 
z
M 603 4863 
L 1178 4863 
L 1178 4134 
L 603 4134 
L 603 4863 
z
" transform="scale(0.015625)"/>
       <path id="DejaVuSans-6d" d="M 3328 2828 
Q 3544 3216 3844 3400 
Q 4144 3584 4550 3584 
Q 5097 3584 5394 3201 
Q 5691 2819 5691 2113 
L 5691 0 
L 5113 0 
L 5113 2094 
Q 5113 2597 4934 2840 
Q 4756 3084 4391 3084 
Q 3944 3084 3684 2787 
Q 3425 2491 3425 1978 
L 3425 0 
L 2847 0 
L 2847 2094 
Q 2847 2600 2669 2842 
Q 2491 3084 2119 3084 
Q 1678 3084 1418 2786 
Q 1159 2488 1159 1978 
L 1159 0 
L 581 0 
L 581 3500 
L 1159 3500 
L 1159 2956 
Q 1356 3278 1631 3431 
Q 1906 3584 2284 3584 
Q 2666 3584 2933 3390 
Q 3200 3197 3328 2828 
z
" transform="scale(0.015625)"/>
       <path id="DejaVuSans-65" d="M 3597 1894 
L 3597 1613 
L 953 1613 
Q 991 1019 1311 708 
Q 1631 397 2203 397 
Q 2534 397 2845 478 
Q 3156 559 3463 722 
L 3463 178 
Q 3153 47 2828 -22 
Q 2503 -91 2169 -91 
Q 1331 -91 842 396 
Q 353 884 353 1716 
Q 353 2575 817 3079 
Q 1281 3584 2069 3584 
Q 2775 3584 3186 3129 
Q 3597 2675 3597 1894 
z
M 3022 2063 
Q 3016 2534 2758 2815 
Q 2500 3097 2075 3097 
Q 1594 3097 1305 2825 
Q 1016 2553 972 2059 
L 3022 2063 
z
" transform="scale(0.015625)"/>
       <path id="DejaVuSans-20" transform="scale(0.015625)"/>
       <path id="DejaVuSans-5b" d="M 550 4863 
L 1875 4863 
L 1875 4416 
L 1125 4416 
L 1125 -397 
L 1875 -397 
L 1875 -844 
L 550 -844 
L 550 4863 
z
" transform="scale(0.015625)"/>
       <path id="DejaVuSans-73" d="M 2834 3397 
L 2834 2853 
Q 2591 2978 2328 3040 
Q 2066 3103 1784 3103 
Q 1356 3103 1142 2972 
Q 928 2841 928 2578 
Q 928 2378 1081 2264 
Q 1234 2150 1697 2047 
L 1894 2003 
Q 2506 1872 2764 1633 
Q 3022 1394 3022 966 
Q 3022 478 2636 193 
Q 2250 -91 1575 -91 
Q 1294 -91 989 -36 
Q 684 19 347 128 
L 347 722 
Q 666 556 975 473 
Q 1284 391 1588 391 
Q 1994 391 2212 530 
Q 2431 669 2431 922 
Q 2431 1156 2273 1281 
Q 2116 1406 1581 1522 
L 1381 1569 
Q 847 1681 609 1914 
Q 372 2147 372 2553 
Q 372 3047 722 3315 
Q 1072 3584 1716 3584 
Q 2034 3584 2315 3537 
Q 2597 3491 2834 3397 
z
" transform="scale(0.015625)"/>
       <path id="DejaVuSans-5d" d="M 1947 4863 
L 1947 -844 
L 622 -844 
L 622 -397 
L 1369 -397 
L 1369 4416 
L 622 4416 
L 622 4863 
L 1947 4863 
z
" transform="scale(0.015625)"/>
      </defs>
      <use xlink:href="#DejaVuSans-54"/>
      <use xlink:href="#DejaVuSans-69" x="57.958984"/>
      <use xlink:href="#DejaVuSans-6d" x="85.742188"/>
      <use xlink:href="#DejaVuSans-65" x="183.154297"/>
      <use xlink:href="#DejaVuSans-20" x="244.677734"/>
      <use xlink:href="#DejaVuSans-5b" x="276.464844"/>
      <use xlink:href="#DejaVuSans-6d" x="315.478516"/>
      <use xlink:href="#DejaVuSans-73" x="412.890625"/>
      <use xlink:href="#DejaVuSans-5d" x="464.990234"/>
     </g>
    </g>
   </g>
   <g id="matplotlib.axis_2">
    <g id="ytick_1">
     <g id="line2d_6">
      <defs>
       <path id="m512922a6c4" d="M 0 0 
L -3.5 0 
" style="stroke: #000000; stroke-width: 0.8"/>
      </defs>
      <g>
       <use xlink:href="#m512922a6c4" x="121.395781" y="287.029403" style="stroke: #000000; stroke-width: 0.8"/>
      </g>
     </g>
     <g id="text_7">
      <!-- −200 -->
      <g transform="translate(40.234375 297.287294) scale(0.27 -0.27)">
       <defs>
        <path id="DejaVuSans-2212" d="M 678 2272 
L 4684 2272 
L 4684 1741 
L 678 1741 
L 678 2272 
z
" transform="scale(0.015625)"/>
       </defs>
       <use xlink:href="#DejaVuSans-2212"/>
       <use xlink:href="#DejaVuSans-32" x="83.789062"/>
       <use xlink:href="#DejaVuSans-30" x="147.412109"/>
       <use xlink:href="#DejaVuSans-30" x="211.035156"/>
      </g>
     </g>
    </g>
    <g id="ytick_2">
     <g id="line2d_7">
      <g>
       <use xlink:href="#m512922a6c4" x="121.395781" y="224.969701" style="stroke: #000000; stroke-width: 0.8"/>
      </g>
     </g>
     <g id="text_8">
      <!-- −100 -->
      <g transform="translate(40.234375 235.227592) scale(0.27 -0.27)">
       <use xlink:href="#DejaVuSans-2212"/>
       <use xlink:href="#DejaVuSans-31" x="83.789062"/>
       <use xlink:href="#DejaVuSans-30" x="147.412109"/>
       <use xlink:href="#DejaVuSans-30" x="211.035156"/>
      </g>
     </g>
    </g>
    <g id="ytick_3">
     <g id="line2d_8">
      <g>
       <use xlink:href="#m512922a6c4" x="121.395781" y="162.91" style="stroke: #000000; stroke-width: 0.8"/>
      </g>
     </g>
     <g id="text_9">
      <!-- 0 -->
      <g transform="translate(97.217031 173.167891) scale(0.27 -0.27)">
       <use xlink:href="#DejaVuSans-30"/>
      </g>
     </g>
    </g>
    <g id="ytick_4">
     <g id="line2d_9">
      <g>
       <use xlink:href="#m512922a6c4" x="121.395781" y="100.850299" style="stroke: #000000; stroke-width: 0.8"/>
      </g>
     </g>
     <g id="text_10">
      <!-- 100 -->
      <g transform="translate(62.859531 111.108189) scale(0.27 -0.27)">
       <use xlink:href="#DejaVuSans-31"/>
       <use xlink:href="#DejaVuSans-30" x="63.623047"/>
       <use xlink:href="#DejaVuSans-30" x="127.246094"/>
      </g>
     </g>
    </g>
    <g id="ytick_5">
     <g id="line2d_10">
      <g>
       <use xlink:href="#m512922a6c4" x="121.395781" y="38.790597" style="stroke: #000000; stroke-width: 0.8"/>
      </g>
     </g>
     <g id="text_11">
      <!-- 200 -->
      <g transform="translate(62.859531 49.048488) scale(0.27 -0.27)">
       <use xlink:href="#DejaVuSans-32"/>
       <use xlink:href="#DejaVuSans-30" x="63.623047"/>
       <use xlink:href="#DejaVuSans-30" x="127.246094"/>
      </g>
     </g>
    </g>
    <g id="text_12">
     <!-- mT/m -->
     <g transform="translate(29.995313 206.346719) rotate(-90) scale(0.3 -0.3)">
      <defs>
       <path id="DejaVuSans-2f" d="M 1625 4666 
L 2156 4666 
L 531 -594 
L 0 -594 
L 1625 4666 
z
" transform="scale(0.015625)"/>
      </defs>
      <use xlink:href="#DejaVuSans-6d"/>
      <use xlink:href="#DejaVuSans-54" x="97.412109"/>
      <use xlink:href="#DejaVuSans-2f" x="158.496094"/>
      <use xlink:href="#DejaVuSans-6d" x="192.1875"/>
     </g>
    </g>
   </g>
   <g id="line2d_11">
    <path d="M 121.395781 162.91 
L 531.354965 162.91 
" clip-path="url(#p2137cdd9c8)" style="fill: none; stroke: #d3d3d3; stroke-opacity: 0.8; stroke-width: 1.5; stroke-linecap: square"/>
   </g>
   <g id="line2d_12">
    <path d="M 121.395781 162.91 
L 132.576486 162.91 
L 134.067247 116.795251 
L 134.812627 102.30164 
L 135.558008 94.252545 
L 141.52105 49.284166 
L 142.266431 46.176144 
L 152.701755 46.260173 
L 167.609362 47.262523 
L 168.354742 54.602488 
L 169.100123 68.466245 
L 170.590883 102.270797 
L 172.081644 127.591808 
L 172.827024 135.764182 
L 186.989251 238.499082 
L 191.461533 270.714587 
L 192.206913 271.059742 
L 195.188434 271.151318 
L 195.933815 271.151315 
L 196.679195 263.511859 
L 197.424575 241.740635 
L 198.169956 227.866917 
L 200.406097 194.257883 
L 202.642238 162.91 
L 230.22131 162.91 
L 230.96669 138.334401 
L 232.457451 114.043957 
L 233.948212 92.697472 
L 239.911254 48.365777 
L 240.656635 46.176197 
L 251.83734 46.178734 
L 252.58272 58.755143 
L 253.3281 79.637533 
L 255.564241 112.971563 
L 257.800382 143.795769 
L 258.545763 151.49872 
L 260.036523 162.91 
L 260.036523 162.91 
" clip-path="url(#p2137cdd9c8)" style="fill: none; stroke: #000000; stroke-width: 5; stroke-linecap: square"/>
   </g>
   <g id="line2d_13">
    <path d="M 260.036523 162.91 
L 261.937243 162.91 
L 262.794431 184.261831 
L 262.8317 183.33349 
L 264.583343 141.558169 
L 265.365993 141.558169 
L 267.154906 184.261831 
L 267.937555 184.261831 
L 269.726468 141.558169 
L 270.509117 141.558169 
L 272.29803 184.261831 
L 273.080679 184.261831 
L 274.869592 141.558169 
L 275.652241 141.558169 
L 277.441154 184.261831 
L 278.223804 184.261831 
L 280.012716 141.558169 
L 280.795366 141.558169 
L 282.584278 184.261831 
L 283.366928 184.261831 
L 285.155841 141.558169 
L 285.93849 141.558169 
L 287.727403 184.261831 
L 288.510052 184.261831 
L 290.298965 141.558169 
L 291.081614 141.558169 
L 292.870527 184.261831 
L 293.653176 184.261831 
L 295.442089 141.558169 
L 296.224739 141.558169 
L 298.013651 184.261831 
L 298.796301 184.261831 
L 300.585214 141.558169 
L 301.367863 141.558169 
L 303.156776 184.261831 
L 303.939425 184.261831 
L 305.728338 141.558169 
L 306.510987 141.558169 
L 308.2999 184.261831 
L 309.082549 184.261831 
L 310.871462 141.558169 
L 311.654111 141.558169 
L 313.443024 184.261831 
L 314.225674 184.261831 
L 316.014586 141.558169 
L 316.797236 141.558169 
L 318.586149 184.261831 
L 319.368798 184.261831 
L 321.157711 141.558169 
L 321.94036 141.558169 
L 323.729273 184.261831 
L 324.511922 184.261831 
L 326.300835 141.558169 
L 327.083484 141.558169 
L 328.872397 184.261831 
L 329.655047 184.261831 
L 331.443959 141.558169 
L 332.226609 141.558169 
L 334.015522 184.261831 
L 334.798171 184.261831 
L 336.587084 141.558169 
L 337.369733 141.558169 
L 339.158646 184.261831 
L 339.941295 184.261831 
L 341.730208 141.558169 
L 342.512857 141.558169 
L 344.30177 184.261831 
L 345.084419 184.261831 
L 346.873332 141.558169 
L 347.655982 141.558169 
L 349.444894 184.261831 
L 350.227544 184.261831 
L 352.016457 141.558169 
L 352.799106 141.558169 
L 354.588019 184.261831 
L 355.370668 184.261831 
L 357.159581 141.558169 
L 357.94223 141.558169 
L 359.731143 184.261831 
L 360.513792 184.261831 
L 362.302705 141.558169 
L 363.085355 141.558169 
L 364.874267 184.261831 
L 365.656917 184.261831 
L 367.445829 141.558169 
L 368.228479 141.558169 
L 370.017392 184.261831 
L 370.800041 184.261831 
L 372.588954 141.558169 
L 373.371603 141.558169 
L 375.160516 184.261831 
L 375.943165 184.261831 
L 377.732078 141.558169 
L 378.514727 141.558169 
L 380.30364 184.261831 
L 381.08629 184.261831 
L 382.875202 141.558169 
L 383.657852 141.558169 
L 385.446765 184.261831 
L 386.229414 184.261831 
L 388.018327 141.558169 
L 388.800976 141.558169 
L 390.589889 184.261831 
L 391.372538 184.261831 
L 393.161451 141.558169 
L 393.9441 141.558169 
L 395.733013 184.261831 
L 396.515663 184.261831 
L 398.304575 141.558169 
L 399.087225 141.558169 
L 400.876137 184.261831 
L 401.658787 184.261831 
L 403.4477 141.558169 
L 404.230349 141.558169 
L 405.124805 162.91 
L 405.124805 162.91 
" clip-path="url(#p2137cdd9c8)" style="fill: none; stroke: #000000; stroke-opacity: 0.7; stroke-width: 5; stroke-linecap: square"/>
   </g>
   <g id="line2d_14">
    <path d="M 311.221791 287.65 
L 311.221791 38.17 
" clip-path="url(#p2137cdd9c8)" style="fill: none; stroke-dasharray: 18.5,8; stroke-dashoffset: 0; stroke: #000000; stroke-width: 5"/>
   </g>
   <g id="line2d_15">
    <path d="M 121.395781 38.790597 
L 531.354965 38.790597 
" clip-path="url(#p2137cdd9c8)" style="fill: none; stroke-dasharray: 18.5,8; stroke-dashoffset: 0; stroke: #000000; stroke-opacity: 0.2; stroke-width: 5"/>
   </g>
   <g id="line2d_16">
    <path d="M 121.395781 287.029403 
L 531.354965 287.029403 
" clip-path="url(#p2137cdd9c8)" style="fill: none; stroke-dasharray: 18.5,8; stroke-dashoffset: 0; stroke: #000000; stroke-opacity: 0.2; stroke-width: 5"/>
   </g>
   <g id="line2d_17">
    <path d="M 121.395781 162.91 
L 531.354965 162.91 
" clip-path="url(#p2137cdd9c8)" style="fill: none; stroke: #000000; stroke-width: 5; stroke-linecap: square"/>
   </g>
   <g id="patch_3">
    <path d="M 121.395781 287.65 
L 121.395781 38.17 
" style="fill: none; stroke: #000000; stroke-width: 0.8; stroke-linejoin: miter; stroke-linecap: square"/>
   </g>
   <g id="patch_4">
    <path d="M 121.395781 287.65 
L 531.354965 287.65 
" style="fill: none; stroke: #000000; stroke-width: 0.8; stroke-linejoin: miter; stroke-linecap: square"/>
   </g>
   <g id="text_13">
    <!-- $G(t)$ -->
    <g transform="translate(295.175373 31.515) scale(0.32 -0.32)">
     <defs>
      <path id="DejaVuSans-Oblique-47" d="M 3494 697 
L 3738 1919 
L 2700 1919 
L 2797 2438 
L 4453 2438 
L 4050 384 
Q 3634 156 3143 32 
Q 2653 -91 2156 -91 
Q 1278 -91 783 396 
Q 288 884 288 1753 
Q 288 2475 589 3126 
Q 891 3778 1422 4213 
Q 1756 4484 2153 4617 
Q 2550 4750 3034 4750 
Q 3472 4750 3873 4639 
Q 4275 4528 4641 4306 
L 4513 3634 
Q 4231 3928 3853 4083 
Q 3475 4238 3047 4238 
Q 2550 4238 2172 4048 
Q 1794 3859 1497 3463 
Q 1244 3125 1098 2667 
Q 953 2209 953 1734 
Q 953 1081 1287 751 
Q 1622 422 2284 422 
Q 2616 422 2925 492 
Q 3234 563 3494 697 
z
" transform="scale(0.015625)"/>
      <path id="DejaVuSans-28" d="M 1984 4856 
Q 1566 4138 1362 3434 
Q 1159 2731 1159 2009 
Q 1159 1288 1364 580 
Q 1569 -128 1984 -844 
L 1484 -844 
Q 1016 -109 783 600 
Q 550 1309 550 2009 
Q 550 2706 781 3412 
Q 1013 4119 1484 4856 
L 1984 4856 
z
" transform="scale(0.015625)"/>
      <path id="DejaVuSans-Oblique-74" d="M 2706 3500 
L 2619 3053 
L 1472 3053 
L 1100 1153 
Q 1081 1047 1072 975 
Q 1063 903 1063 863 
Q 1063 663 1183 572 
Q 1303 481 1569 481 
L 2150 481 
L 2053 0 
L 1503 0 
Q 991 0 739 200 
Q 488 400 488 806 
Q 488 878 497 964 
Q 506 1050 525 1153 
L 897 3053 
L 409 3053 
L 500 3500 
L 978 3500 
L 1172 4494 
L 1747 4494 
L 1556 3500 
L 2706 3500 
z
" transform="scale(0.015625)"/>
      <path id="DejaVuSans-29" d="M 513 4856 
L 1013 4856 
Q 1481 4119 1714 3412 
Q 1947 2706 1947 2009 
Q 1947 1309 1714 600 
Q 1481 -109 1013 -844 
L 513 -844 
Q 928 -128 1133 580 
Q 1338 1288 1338 2009 
Q 1338 2731 1133 3434 
Q 928 4138 513 4856 
z
" transform="scale(0.015625)"/>
     </defs>
     <use xlink:href="#DejaVuSans-Oblique-47" transform="translate(0 0.125)"/>
     <use xlink:href="#DejaVuSans-28" transform="translate(77.490234 0.125)"/>
     <use xlink:href="#DejaVuSans-Oblique-74" transform="translate(116.503906 0.125)"/>
     <use xlink:href="#DejaVuSans-29" transform="translate(155.712891 0.125)"/>
    </g>
   </g>
   <g id="legend_1">
    <g id="patch_5">
     <path d="M 507.154965 66.77 
L 515.954965 66.77 
Q 520.354965 66.77 520.354965 62.37 
L 520.354965 53.57 
Q 520.354965 49.17 515.954965 49.17 
L 507.154965 49.17 
Q 502.754965 49.17 502.754965 53.57 
L 502.754965 62.37 
Q 502.754965 66.77 507.154965 66.77 
z
" style="fill: #ffffff; opacity: 0.8; stroke: #cccccc; stroke-linejoin: miter"/>
    </g>
   </g>
  </g>
  <g id="axes_2">
   <g id="patch_6">
    <path d="M 654.34272 287.65 
L 1064.301904 287.65 
L 1064.301904 38.17 
L 654.34272 38.17 
z
" style="fill: #ffffff"/>
   </g>
   <g id="matplotlib.axis_3">
    <g id="xtick_6">
     <g id="line2d_18">
      <g>
       <use xlink:href="#m66f4d6ada8" x="654.34272" y="287.65" style="stroke: #000000; stroke-width: 0.8"/>
      </g>
     </g>
     <g id="text_14">
      <!-- 0 -->
      <g transform="translate(645.753345 315.165781) scale(0.27 -0.27)">
       <use xlink:href="#DejaVuSans-30"/>
      </g>
     </g>
    </g>
    <g id="xtick_7">
     <g id="line2d_19">
      <g>
       <use xlink:href="#m66f4d6ada8" x="747.515262" y="287.65" style="stroke: #000000; stroke-width: 0.8"/>
      </g>
     </g>
     <g id="text_15">
      <!-- 25 -->
      <g transform="translate(730.336512 315.165781) scale(0.27 -0.27)">
       <use xlink:href="#DejaVuSans-32"/>
       <use xlink:href="#DejaVuSans-35" x="63.623047"/>
      </g>
     </g>
    </g>
    <g id="xtick_8">
     <g id="line2d_20">
      <g>
       <use xlink:href="#m66f4d6ada8" x="840.687804" y="287.65" style="stroke: #000000; stroke-width: 0.8"/>
      </g>
     </g>
     <g id="text_16">
      <!-- 50 -->
      <g transform="translate(823.509054 315.165781) scale(0.27 -0.27)">
       <use xlink:href="#DejaVuSans-35"/>
       <use xlink:href="#DejaVuSans-30" x="63.623047"/>
      </g>
     </g>
    </g>
    <g id="xtick_9">
     <g id="line2d_21">
      <g>
       <use xlink:href="#m66f4d6ada8" x="933.860345" y="287.65" style="stroke: #000000; stroke-width: 0.8"/>
      </g>
     </g>
     <g id="text_17">
      <!-- 75 -->
      <g transform="translate(916.681595 315.165781) scale(0.27 -0.27)">
       <use xlink:href="#DejaVuSans-37"/>
       <use xlink:href="#DejaVuSans-35" x="63.623047"/>
      </g>
     </g>
    </g>
    <g id="xtick_10">
     <g id="line2d_22">
      <g>
       <use xlink:href="#m66f4d6ada8" x="1027.032887" y="287.65" style="stroke: #000000; stroke-width: 0.8"/>
      </g>
     </g>
     <g id="text_18">
      <!-- 100 -->
      <g transform="translate(1001.264762 315.165781) scale(0.27 -0.27)">
       <use xlink:href="#DejaVuSans-31"/>
       <use xlink:href="#DejaVuSans-30" x="63.623047"/>
       <use xlink:href="#DejaVuSans-30" x="127.246094"/>
      </g>
     </g>
    </g>
    <g id="text_19">
     <!-- Time [ms] -->
     <g transform="translate(783.724656 347.57625) scale(0.3 -0.3)">
      <use xlink:href="#DejaVuSans-54"/>
      <use xlink:href="#DejaVuSans-69" x="57.958984"/>
      <use xlink:href="#DejaVuSans-6d" x="85.742188"/>
      <use xlink:href="#DejaVuSans-65" x="183.154297"/>
      <use xlink:href="#DejaVuSans-20" x="244.677734"/>
      <use xlink:href="#DejaVuSans-5b" x="276.464844"/>
      <use xlink:href="#DejaVuSans-6d" x="315.478516"/>
      <use xlink:href="#DejaVuSans-73" x="412.890625"/>
      <use xlink:href="#DejaVuSans-5d" x="464.990234"/>
     </g>
    </g>
   </g>
   <g id="matplotlib.axis_4">
    <g id="ytick_6">
     <g id="line2d_23">
      <g>
       <use xlink:href="#m512922a6c4" x="654.34272" y="287.029403" style="stroke: #000000; stroke-width: 0.8"/>
      </g>
     </g>
     <g id="text_20">
      <!-- −200 -->
      <g transform="translate(573.181314 297.287294) scale(0.27 -0.27)">
       <use xlink:href="#DejaVuSans-2212"/>
       <use xlink:href="#DejaVuSans-32" x="83.789062"/>
       <use xlink:href="#DejaVuSans-30" x="147.412109"/>
       <use xlink:href="#DejaVuSans-30" x="211.035156"/>
      </g>
     </g>
    </g>
    <g id="ytick_7">
     <g id="line2d_24">
      <g>
       <use xlink:href="#m512922a6c4" x="654.34272" y="224.969701" style="stroke: #000000; stroke-width: 0.8"/>
      </g>
     </g>
     <g id="text_21">
      <!-- −100 -->
      <g transform="translate(573.181314 235.227592) scale(0.27 -0.27)">
       <use xlink:href="#DejaVuSans-2212"/>
       <use xlink:href="#DejaVuSans-31" x="83.789062"/>
       <use xlink:href="#DejaVuSans-30" x="147.412109"/>
       <use xlink:href="#DejaVuSans-30" x="211.035156"/>
      </g>
     </g>
    </g>
    <g id="ytick_8">
     <g id="line2d_25">
      <g>
       <use xlink:href="#m512922a6c4" x="654.34272" y="162.91" style="stroke: #000000; stroke-width: 0.8"/>
      </g>
     </g>
     <g id="text_22">
      <!-- 0 -->
      <g transform="translate(630.16397 173.167891) scale(0.27 -0.27)">
       <use xlink:href="#DejaVuSans-30"/>
      </g>
     </g>
    </g>
    <g id="ytick_9">
     <g id="line2d_26">
      <g>
       <use xlink:href="#m512922a6c4" x="654.34272" y="100.850299" style="stroke: #000000; stroke-width: 0.8"/>
      </g>
     </g>
     <g id="text_23">
      <!-- 100 -->
      <g transform="translate(595.80647 111.108189) scale(0.27 -0.27)">
       <use xlink:href="#DejaVuSans-31"/>
       <use xlink:href="#DejaVuSans-30" x="63.623047"/>
       <use xlink:href="#DejaVuSans-30" x="127.246094"/>
      </g>
     </g>
    </g>
    <g id="ytick_10">
     <g id="line2d_27">
      <g>
       <use xlink:href="#m512922a6c4" x="654.34272" y="38.790597" style="stroke: #000000; stroke-width: 0.8"/>
      </g>
     </g>
     <g id="text_24">
      <!-- 200 -->
      <g transform="translate(595.80647 49.048488) scale(0.27 -0.27)">
       <use xlink:href="#DejaVuSans-32"/>
       <use xlink:href="#DejaVuSans-30" x="63.623047"/>
       <use xlink:href="#DejaVuSans-30" x="127.246094"/>
      </g>
     </g>
    </g>
    <g id="text_25">
     <!-- T/m/s -->
     <g transform="translate(562.942251 204.602969) rotate(-90) scale(0.3 -0.3)">
      <use xlink:href="#DejaVuSans-54"/>
      <use xlink:href="#DejaVuSans-2f" x="61.083984"/>
      <use xlink:href="#DejaVuSans-6d" x="94.775391"/>
      <use xlink:href="#DejaVuSans-2f" x="192.1875"/>
      <use xlink:href="#DejaVuSans-73" x="225.878906"/>
     </g>
    </g>
   </g>
   <g id="line2d_28">
    <path d="M 654.34272 162.91 
L 1064.301904 162.91 
" clip-path="url(#p2464787594)" style="fill: none; stroke: #d3d3d3; stroke-opacity: 0.8; stroke-width: 1.5; stroke-linecap: square"/>
   </g>
   <g id="line2d_29">
    <path d="M 654.34272 162.91 
L 664.778045 162.91 
L 665.523425 40.031905 
L 666.268805 55.214351 
L 667.759566 122.664527 
L 668.504946 134.36125 
L 671.486468 134.889745 
L 673.722609 135.169071 
L 674.467989 147.369887 
L 675.213369 162.909024 
L 681.921792 162.910125 
L 682.667173 163.056398 
L 683.412553 162.910094 
L 684.157933 163.147563 
L 684.903314 162.946739 
L 685.648694 163.170058 
L 686.394074 163.027904 
L 687.139455 163.200515 
L 687.884835 163.053371 
L 689.375596 163.184336 
L 690.120976 163.073591 
L 690.866356 163.25622 
L 691.611737 163.086043 
L 692.357117 163.264765 
L 693.102497 163.103044 
L 693.847878 163.278526 
L 694.593258 163.12979 
L 695.338638 163.288494 
L 696.084019 163.15808 
L 696.829399 163.239067 
L 699.06554 163.22423 
L 699.81092 162.943151 
L 701.301681 232.228785 
L 702.047061 246.70448 
L 702.792442 248.13828 
L 703.537822 228.121361 
L 704.283202 224.303698 
L 705.028583 203.771866 
L 705.773963 190.143155 
L 707.264724 190.169 
L 713.227766 189.88718 
L 715.463907 189.851184 
L 717.700048 189.746012 
L 719.190809 189.723412 
L 721.42695 189.72163 
L 722.17233 189.672467 
L 723.663091 189.937291 
L 724.408471 164.635773 
L 725.153852 163.123115 
L 728.135373 162.909989 
L 728.880753 124.712718 
L 729.626134 54.053882 
L 730.371514 93.541407 
L 731.116894 105.036435 
L 731.862275 107.248417 
L 732.607655 108.399978 
L 733.353035 109.156594 
L 734.098416 110.785965 
L 734.843796 112.048027 
L 735.589176 162.91 
L 762.422868 162.91 
L 763.168249 40.032007 
L 763.913629 98.810799 
L 764.659009 105.556978 
L 765.40439 108.000934 
L 766.14977 111.08664 
L 766.89515 134.910958 
L 770.622052 135.326613 
L 772.112813 135.438632 
L 772.858193 151.962096 
L 773.603573 162.908058 
L 784.038898 162.914911 
L 784.784278 225.792045 
L 785.529659 267.321952 
L 786.275039 220.214572 
L 787.020419 218.562468 
L 787.7658 216.623105 
L 789.25656 214.098123 
L 790.001941 213.364486 
L 790.747321 201.424757 
L 791.492701 192.188879 
L 792.238082 190.68752 
L 792.238082 190.68752 
" clip-path="url(#p2464787594)" style="fill: none; stroke: #000000; stroke-width: 5; stroke-linecap: square"/>
   </g>
   <g id="line2d_30">
    <path d="M 654.34272 38.790597 
L 1064.301904 38.790597 
" clip-path="url(#p2464787594)" style="fill: none; stroke-dasharray: 18.5,8; stroke-dashoffset: 0; stroke: #000000; stroke-opacity: 0.2; stroke-width: 5"/>
   </g>
   <g id="line2d_31">
    <path d="M 654.34272 287.029403 
L 1064.301904 287.029403 
" clip-path="url(#p2464787594)" style="fill: none; stroke-dasharray: 18.5,8; stroke-dashoffset: 0; stroke: #000000; stroke-opacity: 0.2; stroke-width: 5"/>
   </g>
   <g id="line2d_32">
    <path d="M 654.34272 162.91 
L 1064.301904 162.91 
" clip-path="url(#p2464787594)" style="fill: none; stroke: #000000; stroke-width: 5; stroke-linecap: square"/>
   </g>
   <g id="patch_7">
    <path d="M 654.34272 287.65 
L 654.34272 38.17 
" style="fill: none; stroke: #000000; stroke-width: 0.8; stroke-linejoin: miter; stroke-linecap: square"/>
   </g>
   <g id="patch_8">
    <path d="M 654.34272 287.65 
L 1064.301904 287.65 
" style="fill: none; stroke: #000000; stroke-width: 0.8; stroke-linejoin: miter; stroke-linecap: square"/>
   </g>
   <g id="text_26">
    <!-- $S(t)$ -->
    <g transform="translate(830.362312 31.515) scale(0.32 -0.32)">
     <defs>
      <path id="DejaVuSans-Oblique-53" d="M 3859 4513 
L 3738 3897 
Q 3422 4066 3111 4152 
Q 2800 4238 2509 4238 
Q 1944 4238 1609 3991 
Q 1275 3744 1275 3334 
Q 1275 3109 1398 2989 
Q 1522 2869 2034 2731 
L 2413 2638 
Q 3053 2472 3303 2217 
Q 3553 1963 3553 1503 
Q 3553 797 2998 353 
Q 2444 -91 1538 -91 
Q 1166 -91 791 -17 
Q 416 56 38 206 
L 166 856 
Q 513 641 861 531 
Q 1209 422 1556 422 
Q 2147 422 2503 684 
Q 2859 947 2859 1369 
Q 2859 1650 2717 1795 
Q 2575 1941 2106 2059 
L 1728 2156 
Q 1081 2325 845 2545 
Q 609 2766 609 3163 
Q 609 3859 1145 4304 
Q 1681 4750 2541 4750 
Q 2875 4750 3203 4690 
Q 3531 4631 3859 4513 
z
" transform="scale(0.015625)"/>
     </defs>
     <use xlink:href="#DejaVuSans-Oblique-53" transform="translate(0 0.125)"/>
     <use xlink:href="#DejaVuSans-28" transform="translate(63.476562 0.125)"/>
     <use xlink:href="#DejaVuSans-Oblique-74" transform="translate(102.490234 0.125)"/>
     <use xlink:href="#DejaVuSans-29" transform="translate(141.699219 0.125)"/>
    </g>
   </g>
  </g>
  <g id="axes_3">
   <g id="patch_9">
    <path d="M 1187.289659 287.65 
L 1597.248842 287.65 
L 1597.248842 38.17 
L 1187.289659 38.17 
z
" style="fill: #ffffff"/>
   </g>
   <g id="line2d_33">
    <path d="M 1187.289659 83.319669 
L 1188.780419 82.563965 
L 1190.27118 82.031061 
L 1192.507321 81.47133 
L 1196.234223 80.846954 
L 1202.197265 80.139099 
L 1211.88721 79.246235 
L 1223.067915 78.437928 
L 1236.484761 77.700572 
L 1252.137748 77.078102 
L 1268.536115 76.622086 
L 1269.281496 100.459658 
L 1270.026876 159.197219 
L 1270.772256 121.374378 
L 1271.517637 165.209837 
L 1272.263017 121.49527 
L 1273.008397 101.709169 
L 1273.753778 93.725546 
L 1274.499158 90.202934 
L 1275.244538 88.423825 
L 1275.989919 87.369666 
L 1276.735299 86.648938 
L 1278.22606 85.664761 
L 1279.71682 84.983416 
L 1281.952961 84.246739 
L 1284.934483 83.532415 
L 1289.406765 82.707519 
L 1292.388286 82.23577 
L 1293.133666 110.251249 
L 1293.879047 198.451138 
L 1294.624427 108.331172 
L 1295.369807 157.063679 
L 1296.115188 122.784184 
L 1296.860568 105.237176 
L 1297.605948 98.043646 
L 1298.351329 94.77668 
L 1299.096709 93.054552 
L 1299.842089 91.982441 
L 1300.58747 91.214768 
L 1302.07823 90.108439 
L 1303.568991 89.29479 
L 1305.805132 88.358057 
L 1308.786653 87.384317 
L 1313.258935 86.195511 
L 1319.221978 84.856021 
L 1325.930401 83.56382 
L 1325.930401 83.56382 
" clip-path="url(#p2f6739b71d)" style="fill: none; stroke: #ff0000; stroke-width: 3; stroke-linecap: square"/>
   </g>
   <g id="matplotlib.axis_5">
    <g id="xtick_11">
     <g id="line2d_34">
      <g>
       <use xlink:href="#m66f4d6ada8" x="1187.289659" y="287.65" style="stroke: #000000; stroke-width: 0.8"/>
      </g>
     </g>
     <g id="text_27">
      <!-- 0 -->
      <g transform="translate(1178.700284 315.165781) scale(0.27 -0.27)">
       <use xlink:href="#DejaVuSans-30"/>
      </g>
     </g>
    </g>
    <g id="xtick_12">
     <g id="line2d_35">
      <g>
       <use xlink:href="#m66f4d6ada8" x="1280.462201" y="287.65" style="stroke: #000000; stroke-width: 0.8"/>
      </g>
     </g>
     <g id="text_28">
      <!-- 25 -->
      <g transform="translate(1263.283451 315.165781) scale(0.27 -0.27)">
       <use xlink:href="#DejaVuSans-32"/>
       <use xlink:href="#DejaVuSans-35" x="63.623047"/>
      </g>
     </g>
    </g>
    <g id="xtick_13">
     <g id="line2d_36">
      <g>
       <use xlink:href="#m66f4d6ada8" x="1373.634742" y="287.65" style="stroke: #000000; stroke-width: 0.8"/>
      </g>
     </g>
     <g id="text_29">
      <!-- 50 -->
      <g transform="translate(1356.455992 315.165781) scale(0.27 -0.27)">
       <use xlink:href="#DejaVuSans-35"/>
       <use xlink:href="#DejaVuSans-30" x="63.623047"/>
      </g>
     </g>
    </g>
    <g id="xtick_14">
     <g id="line2d_37">
      <g>
       <use xlink:href="#m66f4d6ada8" x="1466.807284" y="287.65" style="stroke: #000000; stroke-width: 0.8"/>
      </g>
     </g>
     <g id="text_30">
      <!-- 75 -->
      <g transform="translate(1449.628534 315.165781) scale(0.27 -0.27)">
       <use xlink:href="#DejaVuSans-37"/>
       <use xlink:href="#DejaVuSans-35" x="63.623047"/>
      </g>
     </g>
    </g>
    <g id="xtick_15">
     <g id="line2d_38">
      <g>
       <use xlink:href="#m66f4d6ada8" x="1559.979826" y="287.65" style="stroke: #000000; stroke-width: 0.8"/>
      </g>
     </g>
     <g id="text_31">
      <!-- 100 -->
      <g transform="translate(1534.211701 315.165781) scale(0.27 -0.27)">
       <use xlink:href="#DejaVuSans-31"/>
       <use xlink:href="#DejaVuSans-30" x="63.623047"/>
       <use xlink:href="#DejaVuSans-30" x="127.246094"/>
      </g>
     </g>
    </g>
    <g id="text_32">
     <!-- Time [ms] -->
     <g transform="translate(1316.671594 347.57625) scale(0.3 -0.3)">
      <use xlink:href="#DejaVuSans-54"/>
      <use xlink:href="#DejaVuSans-69" x="57.958984"/>
      <use xlink:href="#DejaVuSans-6d" x="85.742188"/>
      <use xlink:href="#DejaVuSans-65" x="183.154297"/>
      <use xlink:href="#DejaVuSans-20" x="244.677734"/>
      <use xlink:href="#DejaVuSans-5b" x="276.464844"/>
      <use xlink:href="#DejaVuSans-6d" x="315.478516"/>
      <use xlink:href="#DejaVuSans-73" x="412.890625"/>
      <use xlink:href="#DejaVuSans-5d" x="464.990234"/>
     </g>
    </g>
   </g>
   <g id="matplotlib.axis_6">
    <g id="ytick_11">
     <g id="line2d_39">
      <g>
       <use xlink:href="#m512922a6c4" x="1187.289659" y="287.65" style="stroke: #000000; stroke-width: 0.8"/>
      </g>
     </g>
     <g id="text_33">
      <!-- 0.00 -->
      <g transform="translate(1120.172471 297.907891) scale(0.27 -0.27)">
       <defs>
        <path id="DejaVuSans-2e" d="M 684 794 
L 1344 794 
L 1344 0 
L 684 0 
L 684 794 
z
" transform="scale(0.015625)"/>
       </defs>
       <use xlink:href="#DejaVuSans-30"/>
       <use xlink:href="#DejaVuSans-2e" x="63.623047"/>
       <use xlink:href="#DejaVuSans-30" x="95.410156"/>
       <use xlink:href="#DejaVuSans-30" x="159.033203"/>
      </g>
     </g>
    </g>
    <g id="ytick_12">
     <g id="line2d_40">
      <g>
       <use xlink:href="#m512922a6c4" x="1187.289659" y="225.28" style="stroke: #000000; stroke-width: 0.8"/>
      </g>
     </g>
     <g id="text_34">
      <!-- 0.25 -->
      <g transform="translate(1120.172471 235.537891) scale(0.27 -0.27)">
       <use xlink:href="#DejaVuSans-30"/>
       <use xlink:href="#DejaVuSans-2e" x="63.623047"/>
       <use xlink:href="#DejaVuSans-32" x="95.410156"/>
       <use xlink:href="#DejaVuSans-35" x="159.033203"/>
      </g>
     </g>
    </g>
    <g id="ytick_13">
     <g id="line2d_41">
      <g>
       <use xlink:href="#m512922a6c4" x="1187.289659" y="162.91" style="stroke: #000000; stroke-width: 0.8"/>
      </g>
     </g>
     <g id="text_35">
      <!-- 0.50 -->
      <g transform="translate(1120.172471 173.167891) scale(0.27 -0.27)">
       <use xlink:href="#DejaVuSans-30"/>
       <use xlink:href="#DejaVuSans-2e" x="63.623047"/>
       <use xlink:href="#DejaVuSans-35" x="95.410156"/>
       <use xlink:href="#DejaVuSans-30" x="159.033203"/>
      </g>
     </g>
    </g>
    <g id="ytick_14">
     <g id="line2d_42">
      <g>
       <use xlink:href="#m512922a6c4" x="1187.289659" y="100.54" style="stroke: #000000; stroke-width: 0.8"/>
      </g>
     </g>
     <g id="text_36">
      <!-- 0.75 -->
      <g transform="translate(1120.172471 110.797891) scale(0.27 -0.27)">
       <use xlink:href="#DejaVuSans-30"/>
       <use xlink:href="#DejaVuSans-2e" x="63.623047"/>
       <use xlink:href="#DejaVuSans-37" x="95.410156"/>
       <use xlink:href="#DejaVuSans-35" x="159.033203"/>
      </g>
     </g>
    </g>
    <g id="ytick_15">
     <g id="line2d_43">
      <g>
       <use xlink:href="#m512922a6c4" x="1187.289659" y="38.17" style="stroke: #000000; stroke-width: 0.8"/>
      </g>
     </g>
     <g id="text_37">
      <!-- 1.00 -->
      <g transform="translate(1120.172471 48.427891) scale(0.27 -0.27)">
       <use xlink:href="#DejaVuSans-31"/>
       <use xlink:href="#DejaVuSans-2e" x="63.623047"/>
       <use xlink:href="#DejaVuSans-30" x="95.410156"/>
       <use xlink:href="#DejaVuSans-30" x="159.033203"/>
      </g>
     </g>
    </g>
    <g id="text_38">
     <!-- Threshold [a.u.] -->
     <g transform="translate(1109.933409 281.529531) rotate(-90) scale(0.3 -0.3)">
      <defs>
       <path id="DejaVuSans-68" d="M 3513 2113 
L 3513 0 
L 2938 0 
L 2938 2094 
Q 2938 2591 2744 2837 
Q 2550 3084 2163 3084 
Q 1697 3084 1428 2787 
Q 1159 2491 1159 1978 
L 1159 0 
L 581 0 
L 581 4863 
L 1159 4863 
L 1159 2956 
Q 1366 3272 1645 3428 
Q 1925 3584 2291 3584 
Q 2894 3584 3203 3211 
Q 3513 2838 3513 2113 
z
" transform="scale(0.015625)"/>
       <path id="DejaVuSans-72" d="M 2631 2963 
Q 2534 3019 2420 3045 
Q 2306 3072 2169 3072 
Q 1681 3072 1420 2755 
Q 1159 2438 1159 1844 
L 1159 0 
L 581 0 
L 581 3500 
L 1159 3500 
L 1159 2956 
Q 1341 3275 1631 3429 
Q 1922 3584 2338 3584 
Q 2397 3584 2469 3576 
Q 2541 3569 2628 3553 
L 2631 2963 
z
" transform="scale(0.015625)"/>
       <path id="DejaVuSans-6f" d="M 1959 3097 
Q 1497 3097 1228 2736 
Q 959 2375 959 1747 
Q 959 1119 1226 758 
Q 1494 397 1959 397 
Q 2419 397 2687 759 
Q 2956 1122 2956 1747 
Q 2956 2369 2687 2733 
Q 2419 3097 1959 3097 
z
M 1959 3584 
Q 2709 3584 3137 3096 
Q 3566 2609 3566 1747 
Q 3566 888 3137 398 
Q 2709 -91 1959 -91 
Q 1206 -91 779 398 
Q 353 888 353 1747 
Q 353 2609 779 3096 
Q 1206 3584 1959 3584 
z
" transform="scale(0.015625)"/>
       <path id="DejaVuSans-6c" d="M 603 4863 
L 1178 4863 
L 1178 0 
L 603 0 
L 603 4863 
z
" transform="scale(0.015625)"/>
       <path id="DejaVuSans-64" d="M 2906 2969 
L 2906 4863 
L 3481 4863 
L 3481 0 
L 2906 0 
L 2906 525 
Q 2725 213 2448 61 
Q 2172 -91 1784 -91 
Q 1150 -91 751 415 
Q 353 922 353 1747 
Q 353 2572 751 3078 
Q 1150 3584 1784 3584 
Q 2172 3584 2448 3432 
Q 2725 3281 2906 2969 
z
M 947 1747 
Q 947 1113 1208 752 
Q 1469 391 1925 391 
Q 2381 391 2643 752 
Q 2906 1113 2906 1747 
Q 2906 2381 2643 2742 
Q 2381 3103 1925 3103 
Q 1469 3103 1208 2742 
Q 947 2381 947 1747 
z
" transform="scale(0.015625)"/>
       <path id="DejaVuSans-61" d="M 2194 1759 
Q 1497 1759 1228 1600 
Q 959 1441 959 1056 
Q 959 750 1161 570 
Q 1363 391 1709 391 
Q 2188 391 2477 730 
Q 2766 1069 2766 1631 
L 2766 1759 
L 2194 1759 
z
M 3341 1997 
L 3341 0 
L 2766 0 
L 2766 531 
Q 2569 213 2275 61 
Q 1981 -91 1556 -91 
Q 1019 -91 701 211 
Q 384 513 384 1019 
Q 384 1609 779 1909 
Q 1175 2209 1959 2209 
L 2766 2209 
L 2766 2266 
Q 2766 2663 2505 2880 
Q 2244 3097 1772 3097 
Q 1472 3097 1187 3025 
Q 903 2953 641 2809 
L 641 3341 
Q 956 3463 1253 3523 
Q 1550 3584 1831 3584 
Q 2591 3584 2966 3190 
Q 3341 2797 3341 1997 
z
" transform="scale(0.015625)"/>
       <path id="DejaVuSans-75" d="M 544 1381 
L 544 3500 
L 1119 3500 
L 1119 1403 
Q 1119 906 1312 657 
Q 1506 409 1894 409 
Q 2359 409 2629 706 
Q 2900 1003 2900 1516 
L 2900 3500 
L 3475 3500 
L 3475 0 
L 2900 0 
L 2900 538 
Q 2691 219 2414 64 
Q 2138 -91 1772 -91 
Q 1169 -91 856 284 
Q 544 659 544 1381 
z
M 1991 3584 
L 1991 3584 
z
" transform="scale(0.015625)"/>
      </defs>
      <use xlink:href="#DejaVuSans-54"/>
      <use xlink:href="#DejaVuSans-68" x="61.083984"/>
      <use xlink:href="#DejaVuSans-72" x="124.462891"/>
      <use xlink:href="#DejaVuSans-65" x="163.326172"/>
      <use xlink:href="#DejaVuSans-73" x="224.849609"/>
      <use xlink:href="#DejaVuSans-68" x="276.949219"/>
      <use xlink:href="#DejaVuSans-6f" x="340.328125"/>
      <use xlink:href="#DejaVuSans-6c" x="401.509766"/>
      <use xlink:href="#DejaVuSans-64" x="429.292969"/>
      <use xlink:href="#DejaVuSans-20" x="492.769531"/>
      <use xlink:href="#DejaVuSans-5b" x="524.556641"/>
      <use xlink:href="#DejaVuSans-61" x="563.570312"/>
      <use xlink:href="#DejaVuSans-2e" x="624.849609"/>
      <use xlink:href="#DejaVuSans-75" x="656.636719"/>
      <use xlink:href="#DejaVuSans-2e" x="720.015625"/>
      <use xlink:href="#DejaVuSans-5d" x="751.802734"/>
     </g>
    </g>
   </g>
   <g id="line2d_44">
    <path d="M 1187.289659 287.65 
L 1597.248842 287.65 
" clip-path="url(#p2f6739b71d)" style="fill: none; stroke: #d3d3d3; stroke-opacity: 0.8; stroke-width: 1.5; stroke-linecap: square"/>
   </g>
   <g id="line2d_45">
    <path d="M 1187.289659 287.65 
L 1198.470364 287.65 
L 1199.215744 146.721483 
L 1199.961124 82.455787 
L 1200.706505 82.372852 
L 1202.197265 144.619549 
L 1202.942646 160.031983 
L 1203.688026 168.330689 
L 1204.433406 172.915694 
L 1205.178787 175.505844 
L 1205.924167 176.979842 
L 1206.669547 177.793381 
L 1207.414928 178.198209 
L 1208.160308 192.237213 
L 1208.905688 217.983427 
L 1209.651069 232.993417 
L 1210.396449 242.286222 
L 1211.141829 248.418321 
L 1211.88721 252.718563 
L 1212.63259 255.894444 
L 1213.37797 258.339577 
L 1214.123351 260.280909 
L 1214.868731 261.860324 
L 1215.614111 263.16874 
L 1217.104872 265.182586 
L 1220.086393 267.753413 
L 1223.813295 269.848713 
L 1226.794817 270.790487 
L 1227.540197 270.870594 
L 1228.285577 271.184389 
L 1229.030958 271.277281 
L 1229.776338 271.575831 
L 1231.267099 271.977254 
L 1232.757859 272.425869 
L 1233.50324 272.943042 
L 1234.24862 231.277902 
L 1235.739381 116.716359 
L 1236.484761 82.220199 
L 1237.230141 82.348752 
L 1237.975522 83.782812 
L 1238.720902 105.76967 
L 1239.466282 132.243496 
L 1240.211663 146.470657 
L 1240.957043 154.424165 
L 1241.702423 159.066334 
L 1242.447804 161.858805 
L 1243.193184 163.633548 
L 1243.938564 164.707747 
L 1244.683945 165.38164 
L 1245.429325 165.754226 
L 1246.174705 165.931658 
L 1246.920086 165.969107 
L 1248.410846 165.698852 
L 1250.646987 164.784623 
L 1252.137748 164.032418 
L 1254.373889 162.823487 
L 1256.61003 161.416126 
L 1257.35541 160.709555 
L 1258.100791 189.123223 
L 1258.846171 207.12732 
L 1259.591551 218.103697 
L 1260.336932 225.276958 
L 1261.082312 230.356753 
L 1261.827692 234.086937 
L 1262.573073 208.258694 
L 1263.318453 100.917134 
L 1264.063833 82.970961 
L 1264.809214 82.558748 
L 1265.554594 82.008371 
L 1266.299974 80.798876 
L 1267.045355 79.218305 
L 1267.790735 78.749234 
L 1268.536115 78.733828 
L 1269.281496 136.062619 
L 1270.026876 168.448747 
L 1270.772256 187.813383 
L 1271.517637 200.172857 
L 1272.263017 208.60676 
L 1273.008397 214.725253 
L 1273.753778 219.39623 
L 1274.499158 223.107114 
L 1275.244538 226.145993 
L 1276.735299 230.868391 
L 1278.22606 234.414253 
L 1279.71682 237.222614 
L 1281.207581 239.549326 
L 1283.443722 242.465631 
L 1285.679863 244.953119 
L 1288.661384 247.869661 
L 1291.642906 250.490471 
L 1295.369807 253.473026 
L 1296.115188 254.036848 
L 1296.860568 113.662319 
L 1297.605948 99.941432 
L 1298.351329 96.707102 
L 1299.096709 95.000636 
L 1299.842089 95.423905 
L 1300.58747 121.27178 
L 1301.33285 134.99752 
L 1302.07823 142.514497 
L 1302.823611 146.804112 
L 1303.568991 149.341642 
L 1304.314371 150.914077 
L 1305.059752 151.909724 
L 1305.805132 152.541577 
L 1306.550512 171.830027 
L 1307.295893 195.511364 
L 1308.041273 209.602378 
L 1308.786653 218.555718 
L 1309.532034 224.653272 
L 1310.277414 229.077528 
L 1311.022794 232.463838 
L 1311.768175 235.174745 
L 1313.258935 239.295911 
L 1314.749696 242.34449 
L 1316.240457 244.756187 
L 1317.731217 246.737655 
L 1318.476598 177.34465 
L 1319.221978 88.374264 
L 1319.967358 89.397631 
L 1323.69426 86.30717 
L 1324.43964 98.575233 
L 1325.185021 115.391659 
L 1325.930401 126.381544 
L 1325.930401 126.381544 
" clip-path="url(#p2f6739b71d)" style="fill: none; stroke: #000000; stroke-width: 5; stroke-linecap: square"/>
   </g>
   <g id="line2d_46">
    <path d="M 1187.289659 287.65 
L 1597.248842 287.65 
" clip-path="url(#p2f6739b71d)" style="fill: none; stroke: #000000; stroke-width: 5; stroke-linecap: square"/>
   </g>
   <g id="line2d_47">
    <path clip-path="url(#p2f6739b71d)" style="fill: none; stroke-dasharray: 11.1,4.8; stroke-dashoffset: 0; stroke: #ff0000; stroke-width: 3"/>
   </g>
   <g id="patch_10">
    <path d="M 1187.289659 287.65 
L 1187.289659 38.17 
" style="fill: none; stroke: #000000; stroke-width: 0.8; stroke-linejoin: miter; stroke-linecap: square"/>
   </g>
   <g id="patch_11">
    <path d="M 1187.289659 287.65 
L 1597.248842 287.65 
" style="fill: none; stroke: #000000; stroke-width: 0.8; stroke-linejoin: miter; stroke-linecap: square"/>
   </g>
   <g id="text_39">
    <!-- SAFE-PNS -->
    <g transform="translate(1314.006751 31.515) scale(0.32 -0.32)">
     <defs>
      <path id="DejaVuSans-53" d="M 3425 4513 
L 3425 3897 
Q 3066 4069 2747 4153 
Q 2428 4238 2131 4238 
Q 1616 4238 1336 4038 
Q 1056 3838 1056 3469 
Q 1056 3159 1242 3001 
Q 1428 2844 1947 2747 
L 2328 2669 
Q 3034 2534 3370 2195 
Q 3706 1856 3706 1288 
Q 3706 609 3251 259 
Q 2797 -91 1919 -91 
Q 1588 -91 1214 -16 
Q 841 59 441 206 
L 441 856 
Q 825 641 1194 531 
Q 1563 422 1919 422 
Q 2459 422 2753 634 
Q 3047 847 3047 1241 
Q 3047 1584 2836 1778 
Q 2625 1972 2144 2069 
L 1759 2144 
Q 1053 2284 737 2584 
Q 422 2884 422 3419 
Q 422 4038 858 4394 
Q 1294 4750 2059 4750 
Q 2388 4750 2728 4690 
Q 3069 4631 3425 4513 
z
" transform="scale(0.015625)"/>
      <path id="DejaVuSans-41" d="M 2188 4044 
L 1331 1722 
L 3047 1722 
L 2188 4044 
z
M 1831 4666 
L 2547 4666 
L 4325 0 
L 3669 0 
L 3244 1197 
L 1141 1197 
L 716 0 
L 50 0 
L 1831 4666 
z
" transform="scale(0.015625)"/>
      <path id="DejaVuSans-46" d="M 628 4666 
L 3309 4666 
L 3309 4134 
L 1259 4134 
L 1259 2759 
L 3109 2759 
L 3109 2228 
L 1259 2228 
L 1259 0 
L 628 0 
L 628 4666 
z
" transform="scale(0.015625)"/>
      <path id="DejaVuSans-45" d="M 628 4666 
L 3578 4666 
L 3578 4134 
L 1259 4134 
L 1259 2753 
L 3481 2753 
L 3481 2222 
L 1259 2222 
L 1259 531 
L 3634 531 
L 3634 0 
L 628 0 
L 628 4666 
z
" transform="scale(0.015625)"/>
      <path id="DejaVuSans-2d" d="M 313 2009 
L 1997 2009 
L 1997 1497 
L 313 1497 
L 313 2009 
z
" transform="scale(0.015625)"/>
      <path id="DejaVuSans-50" d="M 1259 4147 
L 1259 2394 
L 2053 2394 
Q 2494 2394 2734 2622 
Q 2975 2850 2975 3272 
Q 2975 3691 2734 3919 
Q 2494 4147 2053 4147 
L 1259 4147 
z
M 628 4666 
L 2053 4666 
Q 2838 4666 3239 4311 
Q 3641 3956 3641 3272 
Q 3641 2581 3239 2228 
Q 2838 1875 2053 1875 
L 1259 1875 
L 1259 0 
L 628 0 
L 628 4666 
z
" transform="scale(0.015625)"/>
      <path id="DejaVuSans-4e" d="M 628 4666 
L 1478 4666 
L 3547 763 
L 3547 4666 
L 4159 4666 
L 4159 0 
L 3309 0 
L 1241 3903 
L 1241 0 
L 628 0 
L 628 4666 
z
" transform="scale(0.015625)"/>
     </defs>
     <use xlink:href="#DejaVuSans-53"/>
     <use xlink:href="#DejaVuSans-41" x="65.351562"/>
     <use xlink:href="#DejaVuSans-46" x="133.759766"/>
     <use xlink:href="#DejaVuSans-45" x="191.279297"/>
     <use xlink:href="#DejaVuSans-2d" x="254.462891"/>
     <use xlink:href="#DejaVuSans-50" x="290.546875"/>
     <use xlink:href="#DejaVuSans-4e" x="350.849609"/>
     <use xlink:href="#DejaVuSans-53" x="425.654297"/>
    </g>
   </g>
   <g id="legend_2">
    <g id="patch_12">
     <path d="M 1448.611342 276.65 
L 1581.848842 276.65 
Q 1586.248842 276.65 1586.248842 272.25 
L 1586.248842 242.158125 
Q 1586.248842 237.758125 1581.848842 237.758125 
L 1448.611342 237.758125 
Q 1444.211342 237.758125 1444.211342 242.158125 
L 1444.211342 272.25 
Q 1444.211342 276.65 1448.611342 276.65 
z
" style="fill: #ffffff; opacity: 0.2; stroke: #cccccc; stroke-linejoin: miter"/>
    </g>
    <g id="line2d_48">
     <path d="M 1453.011342 255.574688 
L 1475.011342 255.574688 
L 1497.011342 255.574688 
" style="fill: none; stroke: #000000; stroke-width: 5; stroke-linecap: square"/>
    </g>
    <g id="text_40">
     <!-- Y-axis -->
     <g transform="translate(1514.611342 263.274688) scale(0.22 -0.22)">
      <defs>
       <path id="DejaVuSans-59" d="M -13 4666 
L 666 4666 
L 1959 2747 
L 3244 4666 
L 3922 4666 
L 2272 2222 
L 2272 0 
L 1638 0 
L 1638 2222 
L -13 4666 
z
" transform="scale(0.015625)"/>
       <path id="DejaVuSans-78" d="M 3513 3500 
L 2247 1797 
L 3578 0 
L 2900 0 
L 1881 1375 
L 863 0 
L 184 0 
L 1544 1831 
L 300 3500 
L 978 3500 
L 1906 2253 
L 2834 3500 
L 3513 3500 
z
" transform="scale(0.015625)"/>
      </defs>
      <use xlink:href="#DejaVuSans-59"/>
      <use xlink:href="#DejaVuSans-2d" x="49.208984"/>
      <use xlink:href="#DejaVuSans-61" x="85.292969"/>
      <use xlink:href="#DejaVuSans-78" x="146.572266"/>
      <use xlink:href="#DejaVuSans-69" x="205.751953"/>
      <use xlink:href="#DejaVuSans-73" x="233.535156"/>
     </g>
    </g>
   </g>
  </g>
  <g id="axes_4">
   <g id="patch_13">
    <path d="M 1720.236598 287.65 
L 2130.195781 287.65 
L 2130.195781 38.17 
L 1720.236598 38.17 
z
" style="fill: #ffffff"/>
   </g>
   <g id="line2d_49">
    <path d="M 1720.236598 89.22419 
L 1721.727358 86.990958 
L 1723.218119 85.133808 
L 1724.70888 83.587639 
L 1726.19964 82.298918 
L 1727.690401 81.223571 
L 1729.926542 79.932943 
L 1732.162683 78.945181 
L 1734.398824 78.187414 
L 1737.380345 77.441958 
L 1740.361867 76.914803 
L 1744.088768 76.46535 
L 1749.306431 76.083718 
L 1756.014854 75.829283 
L 1767.195559 75.663797 
L 1791.047729 75.597879 
L 1801.483054 75.593989 
L 1802.228434 84.152572 
L 1802.973815 116.565511 
L 1803.719195 131.028178 
L 1804.464575 116.666307 
L 1805.209956 114.758445 
L 1806.700716 107.239229 
L 1808.191477 101.176759 
L 1809.682238 96.286865 
L 1811.172998 92.341094 
L 1812.663759 89.155747 
L 1814.15452 86.583072 
L 1815.64528 84.504204 
L 1817.136041 82.823489 
L 1818.626802 81.463929 
L 1820.117562 80.363529 
L 1821.608323 79.472353 
L 1823.844464 78.442046 
L 1825.335225 77.914549 
L 1826.080605 86.503014 
L 1826.825985 133.406362 
L 1827.571366 125.776075 
L 1828.316746 116.136576 
L 1829.062126 115.165416 
L 1830.552887 107.585128 
L 1832.043648 101.470904 
L 1833.534408 96.537122 
L 1835.025169 92.554113 
L 1836.51593 89.337149 
L 1838.00669 86.737615 
L 1839.497451 84.635917 
L 1840.988212 82.935787 
L 1842.478972 81.559709 
L 1843.969733 80.445248 
L 1845.460494 79.542096 
L 1847.696635 78.497066 
L 1849.932776 77.732749 
L 1852.914297 77.021522 
L 1855.895818 76.550333 
L 1858.87734 76.237102 
L 1858.87734 76.237102 
" clip-path="url(#p5c6777fe73)" style="fill: none; stroke: #ff0000; stroke-width: 3; stroke-linecap: square"/>
   </g>
   <g id="matplotlib.axis_7">
    <g id="xtick_16">
     <g id="line2d_50">
      <g>
       <use xlink:href="#m66f4d6ada8" x="1720.236598" y="287.65" style="stroke: #000000; stroke-width: 0.8"/>
      </g>
     </g>
     <g id="text_41">
      <!-- 0 -->
      <g transform="translate(1711.647223 315.165781) scale(0.27 -0.27)">
       <use xlink:href="#DejaVuSans-30"/>
      </g>
     </g>
    </g>
    <g id="xtick_17">
     <g id="line2d_51">
      <g>
       <use xlink:href="#m66f4d6ada8" x="1813.409139" y="287.65" style="stroke: #000000; stroke-width: 0.8"/>
      </g>
     </g>
     <g id="text_42">
      <!-- 25 -->
      <g transform="translate(1796.230389 315.165781) scale(0.27 -0.27)">
       <use xlink:href="#DejaVuSans-32"/>
       <use xlink:href="#DejaVuSans-35" x="63.623047"/>
      </g>
     </g>
    </g>
    <g id="xtick_18">
     <g id="line2d_52">
      <g>
       <use xlink:href="#m66f4d6ada8" x="1906.581681" y="287.65" style="stroke: #000000; stroke-width: 0.8"/>
      </g>
     </g>
     <g id="text_43">
      <!-- 50 -->
      <g transform="translate(1889.402931 315.165781) scale(0.27 -0.27)">
       <use xlink:href="#DejaVuSans-35"/>
       <use xlink:href="#DejaVuSans-30" x="63.623047"/>
      </g>
     </g>
    </g>
    <g id="xtick_19">
     <g id="line2d_53">
      <g>
       <use xlink:href="#m66f4d6ada8" x="1999.754223" y="287.65" style="stroke: #000000; stroke-width: 0.8"/>
      </g>
     </g>
     <g id="text_44">
      <!-- 75 -->
      <g transform="translate(1982.575473 315.165781) scale(0.27 -0.27)">
       <use xlink:href="#DejaVuSans-37"/>
       <use xlink:href="#DejaVuSans-35" x="63.623047"/>
      </g>
     </g>
    </g>
    <g id="xtick_20">
     <g id="line2d_54">
      <g>
       <use xlink:href="#m66f4d6ada8" x="2092.926765" y="287.65" style="stroke: #000000; stroke-width: 0.8"/>
      </g>
     </g>
     <g id="text_45">
      <!-- 100 -->
      <g transform="translate(2067.15864 315.165781) scale(0.27 -0.27)">
       <use xlink:href="#DejaVuSans-31"/>
       <use xlink:href="#DejaVuSans-30" x="63.623047"/>
       <use xlink:href="#DejaVuSans-30" x="127.246094"/>
      </g>
     </g>
    </g>
    <g id="text_46">
     <!-- Time [ms] -->
     <g transform="translate(1849.618533 347.57625) scale(0.3 -0.3)">
      <use xlink:href="#DejaVuSans-54"/>
      <use xlink:href="#DejaVuSans-69" x="57.958984"/>
      <use xlink:href="#DejaVuSans-6d" x="85.742188"/>
      <use xlink:href="#DejaVuSans-65" x="183.154297"/>
      <use xlink:href="#DejaVuSans-20" x="244.677734"/>
      <use xlink:href="#DejaVuSans-5b" x="276.464844"/>
      <use xlink:href="#DejaVuSans-6d" x="315.478516"/>
      <use xlink:href="#DejaVuSans-73" x="412.890625"/>
      <use xlink:href="#DejaVuSans-5d" x="464.990234"/>
     </g>
    </g>
   </g>
   <g id="matplotlib.axis_8">
    <g id="ytick_16">
     <g id="line2d_55">
      <g>
       <use xlink:href="#m512922a6c4" x="1720.236598" y="287.65" style="stroke: #000000; stroke-width: 0.8"/>
      </g>
     </g>
     <g id="text_47">
      <!-- 0.00 -->
      <g transform="translate(1653.11941 297.907891) scale(0.27 -0.27)">
       <use xlink:href="#DejaVuSans-30"/>
       <use xlink:href="#DejaVuSans-2e" x="63.623047"/>
       <use xlink:href="#DejaVuSans-30" x="95.410156"/>
       <use xlink:href="#DejaVuSans-30" x="159.033203"/>
      </g>
     </g>
    </g>
    <g id="ytick_17">
     <g id="line2d_56">
      <g>
       <use xlink:href="#m512922a6c4" x="1720.236598" y="225.28" style="stroke: #000000; stroke-width: 0.8"/>
      </g>
     </g>
     <g id="text_48">
      <!-- 0.25 -->
      <g transform="translate(1653.11941 235.537891) scale(0.27 -0.27)">
       <use xlink:href="#DejaVuSans-30"/>
       <use xlink:href="#DejaVuSans-2e" x="63.623047"/>
       <use xlink:href="#DejaVuSans-32" x="95.410156"/>
       <use xlink:href="#DejaVuSans-35" x="159.033203"/>
      </g>
     </g>
    </g>
    <g id="ytick_18">
     <g id="line2d_57">
      <g>
       <use xlink:href="#m512922a6c4" x="1720.236598" y="162.91" style="stroke: #000000; stroke-width: 0.8"/>
      </g>
     </g>
     <g id="text_49">
      <!-- 0.50 -->
      <g transform="translate(1653.11941 173.167891) scale(0.27 -0.27)">
       <use xlink:href="#DejaVuSans-30"/>
       <use xlink:href="#DejaVuSans-2e" x="63.623047"/>
       <use xlink:href="#DejaVuSans-35" x="95.410156"/>
       <use xlink:href="#DejaVuSans-30" x="159.033203"/>
      </g>
     </g>
    </g>
    <g id="ytick_19">
     <g id="line2d_58">
      <g>
       <use xlink:href="#m512922a6c4" x="1720.236598" y="100.54" style="stroke: #000000; stroke-width: 0.8"/>
      </g>
     </g>
     <g id="text_50">
      <!-- 0.75 -->
      <g transform="translate(1653.11941 110.797891) scale(0.27 -0.27)">
       <use xlink:href="#DejaVuSans-30"/>
       <use xlink:href="#DejaVuSans-2e" x="63.623047"/>
       <use xlink:href="#DejaVuSans-37" x="95.410156"/>
       <use xlink:href="#DejaVuSans-35" x="159.033203"/>
      </g>
     </g>
    </g>
    <g id="ytick_20">
     <g id="line2d_59">
      <g>
       <use xlink:href="#m512922a6c4" x="1720.236598" y="38.17" style="stroke: #000000; stroke-width: 0.8"/>
      </g>
     </g>
     <g id="text_51">
      <!-- 1.00 -->
      <g transform="translate(1653.11941 48.427891) scale(0.27 -0.27)">
       <use xlink:href="#DejaVuSans-31"/>
       <use xlink:href="#DejaVuSans-2e" x="63.623047"/>
       <use xlink:href="#DejaVuSans-30" x="95.410156"/>
       <use xlink:href="#DejaVuSans-30" x="159.033203"/>
      </g>
     </g>
    </g>
    <g id="text_52">
     <!-- Threshold [a.u.] -->
     <g transform="translate(1642.880348 281.529531) rotate(-90) scale(0.3 -0.3)">
      <use xlink:href="#DejaVuSans-54"/>
      <use xlink:href="#DejaVuSans-68" x="61.083984"/>
      <use xlink:href="#DejaVuSans-72" x="124.462891"/>
      <use xlink:href="#DejaVuSans-65" x="163.326172"/>
      <use xlink:href="#DejaVuSans-73" x="224.849609"/>
      <use xlink:href="#DejaVuSans-68" x="276.949219"/>
      <use xlink:href="#DejaVuSans-6f" x="340.328125"/>
      <use xlink:href="#DejaVuSans-6c" x="401.509766"/>
      <use xlink:href="#DejaVuSans-64" x="429.292969"/>
      <use xlink:href="#DejaVuSans-20" x="492.769531"/>
      <use xlink:href="#DejaVuSans-5b" x="524.556641"/>
      <use xlink:href="#DejaVuSans-61" x="563.570312"/>
      <use xlink:href="#DejaVuSans-2e" x="624.849609"/>
      <use xlink:href="#DejaVuSans-75" x="656.636719"/>
      <use xlink:href="#DejaVuSans-2e" x="720.015625"/>
      <use xlink:href="#DejaVuSans-5d" x="751.802734"/>
     </g>
    </g>
   </g>
   <g id="line2d_60">
    <path d="M 1720.236598 287.65 
L 2130.195781 287.65 
" clip-path="url(#p5c6777fe73)" style="fill: none; stroke: #d3d3d3; stroke-opacity: 0.8; stroke-width: 1.5; stroke-linecap: square"/>
   </g>
   <g id="line2d_61">
    <path d="M 1720.236598 287.65 
L 1731.417303 287.65 
L 1732.162683 212.224103 
L 1732.908063 152.208266 
L 1733.653444 118.648839 
L 1734.398824 107.555363 
L 1735.889585 101.777777 
L 1737.380345 97.126831 
L 1738.871106 93.382109 
L 1740.361867 90.365106 
L 1741.107247 96.527099 
L 1742.598008 125.665474 
L 1744.088768 150.25638 
L 1745.579529 171.027177 
L 1747.07029 188.586254 
L 1748.56105 203.442816 
L 1750.051811 216.052722 
L 1751.542572 226.767106 
L 1753.033332 235.878949 
L 1754.524093 243.628024 
L 1756.014854 250.232656 
L 1757.505614 255.849031 
L 1758.996375 260.63384 
L 1760.487136 264.715708 
L 1761.977896 268.202488 
L 1763.468657 271.171829 
L 1764.959418 273.700228 
L 1766.450178 275.814428 
L 1767.195559 272.554206 
L 1768.686319 184.560068 
L 1769.4317 140.655281 
L 1770.17708 112.55644 
L 1770.92246 89.038174 
L 1771.667841 79.988053 
L 1773.158601 79.946883 
L 1778.376264 79.585369 
L 1783.593926 79.414213 
L 1789.556969 79.400103 
L 1790.302349 79.252232 
L 1792.53849 123.613152 
L 1794.029251 148.260765 
L 1794.774631 159.149895 
L 1795.520011 177.315131 
L 1796.265392 209.388435 
L 1797.010772 221.769913 
L 1798.501533 167.216522 
L 1799.992293 123.767914 
L 1801.483054 89.795754 
L 1802.973815 121.382409 
L 1804.464575 147.794908 
L 1805.955336 169.902376 
L 1807.446097 188.424502 
L 1808.936857 203.95777 
L 1810.427618 216.997006 
L 1811.918379 227.953081 
L 1813.409139 237.167481 
L 1814.8999 244.92429 
L 1816.390661 251.460068 
L 1817.881421 256.971992 
L 1819.372182 261.62457 
L 1820.862943 265.555192 
L 1822.353703 268.878708 
L 1823.844464 271.691223 
L 1825.335225 274.073232 
L 1826.825985 276.092221 
L 1828.316746 277.804828 
L 1829.062126 278.561416 
L 1829.807507 203.832792 
L 1830.552887 171.220234 
L 1832.043648 123.091224 
L 1832.789028 104.485535 
L 1834.279789 99.726231 
L 1835.770549 95.834025 
L 1837.26131 92.64484 
L 1838.752071 90.032469 
L 1839.497451 99.019175 
L 1840.988212 127.736548 
L 1842.478972 151.979132 
L 1843.969733 172.459784 
L 1845.460494 189.7813 
L 1846.951254 204.43993 
L 1848.442015 216.853965 
L 1849.932776 227.380028 
L 1850.678156 232.02816 
L 1851.423536 249.721298 
L 1852.914297 188.985073 
L 1854.405058 140.729794 
L 1855.895818 103.068903 
L 1856.641199 87.233572 
L 1857.386579 79.951898 
L 1858.131959 78.875527 
L 1858.87734 78.759125 
L 1858.87734 78.759125 
" clip-path="url(#p5c6777fe73)" style="fill: none; stroke: #000000; stroke-width: 5; stroke-linecap: square"/>
   </g>
   <g id="line2d_62">
    <path d="M 1720.236598 287.65 
L 2130.195781 287.65 
" clip-path="url(#p5c6777fe73)" style="fill: none; stroke: #000000; stroke-width: 5; stroke-linecap: square"/>
   </g>
   <g id="line2d_63">
    <path clip-path="url(#p5c6777fe73)" style="fill: none; stroke-dasharray: 11.1,4.8; stroke-dashoffset: 0; stroke: #ff0000; stroke-width: 3"/>
   </g>
   <g id="patch_14">
    <path d="M 1720.236598 287.65 
L 1720.236598 38.17 
" style="fill: none; stroke: #000000; stroke-width: 0.8; stroke-linejoin: miter; stroke-linecap: square"/>
   </g>
   <g id="patch_15">
    <path d="M 1720.236598 287.65 
L 2130.195781 287.65 
" style="fill: none; stroke: #000000; stroke-width: 0.8; stroke-linejoin: miter; stroke-linecap: square"/>
   </g>
   <g id="text_53">
    <!-- SAFE-CNS -->
    <g transform="translate(1845.428689 31.515) scale(0.32 -0.32)">
     <defs>
      <path id="DejaVuSans-43" d="M 4122 4306 
L 4122 3641 
Q 3803 3938 3442 4084 
Q 3081 4231 2675 4231 
Q 1875 4231 1450 3742 
Q 1025 3253 1025 2328 
Q 1025 1406 1450 917 
Q 1875 428 2675 428 
Q 3081 428 3442 575 
Q 3803 722 4122 1019 
L 4122 359 
Q 3791 134 3420 21 
Q 3050 -91 2638 -91 
Q 1578 -91 968 557 
Q 359 1206 359 2328 
Q 359 3453 968 4101 
Q 1578 4750 2638 4750 
Q 3056 4750 3426 4639 
Q 3797 4528 4122 4306 
z
" transform="scale(0.015625)"/>
     </defs>
     <use xlink:href="#DejaVuSans-53"/>
     <use xlink:href="#DejaVuSans-41" x="65.351562"/>
     <use xlink:href="#DejaVuSans-46" x="133.759766"/>
     <use xlink:href="#DejaVuSans-45" x="191.279297"/>
     <use xlink:href="#DejaVuSans-2d" x="254.462891"/>
     <use xlink:href="#DejaVuSans-43" x="290.546875"/>
     <use xlink:href="#DejaVuSans-4e" x="360.371094"/>
     <use xlink:href="#DejaVuSans-53" x="435.175781"/>
    </g>
   </g>
   <g id="legend_3">
    <g id="patch_16">
     <path d="M 1981.558281 276.65 
L 2114.795781 276.65 
Q 2119.195781 276.65 2119.195781 272.25 
L 2119.195781 242.158125 
Q 2119.195781 237.758125 2114.795781 237.758125 
L 1981.558281 237.758125 
Q 1977.158281 237.758125 1977.158281 242.158125 
L 1977.158281 272.25 
Q 1977.158281 276.65 1981.558281 276.65 
z
" style="fill: #ffffff; opacity: 0.2; stroke: #cccccc; stroke-linejoin: miter"/>
    </g>
    <g id="line2d_64">
     <path d="M 1985.958281 255.574688 
L 2007.958281 255.574688 
L 2029.958281 255.574688 
" style="fill: none; stroke: #000000; stroke-width: 5; stroke-linecap: square"/>
    </g>
    <g id="text_54">
     <!-- Y-axis -->
     <g transform="translate(2047.558281 263.274688) scale(0.22 -0.22)">
      <use xlink:href="#DejaVuSans-59"/>
      <use xlink:href="#DejaVuSans-2d" x="49.208984"/>
      <use xlink:href="#DejaVuSans-61" x="85.292969"/>
      <use xlink:href="#DejaVuSans-78" x="146.572266"/>
      <use xlink:href="#DejaVuSans-69" x="205.751953"/>
      <use xlink:href="#DejaVuSans-73" x="233.535156"/>
     </g>
    </g>
   </g>
  </g>
 </g>
 <defs>
  <clipPath id="p2137cdd9c8">
   <rect x="121.395781" y="38.17" width="409.959184" height="249.48"/>
  </clipPath>
  <clipPath id="p2464787594">
   <rect x="654.34272" y="38.17" width="409.959184" height="249.48"/>
  </clipPath>
  <clipPath id="p2f6739b71d">
   <rect x="1187.289659" y="38.17" width="409.959184" height="249.48"/>
  </clipPath>
  <clipPath id="p5c6777fe73">
   <rect x="1720.236598" y="38.17" width="409.959184" height="249.48"/>
  </clipPath>
 </defs>
</svg>
