<?xml version="1.0" encoding="utf-8" standalone="no"?>
<!DOCTYPE svg PUBLIC "-//W3C//DTD SVG 1.1//EN"
  "http://www.w3.org/Graphics/SVG/1.1/DTD/svg11.dtd">
<svg xmlns:xlink="http://www.w3.org/1999/xlink" width="2137.395781pt" height="361.015312pt" viewBox="0 0 2137.395781 361.015312" xmlns="http://www.w3.org/2000/svg" version="1.1">
 <metadata>
  <rdf:RDF xmlns:dc="http://purl.org/dc/elements/1.1/" xmlns:cc="http://creativecommons.org/ns#" xmlns:rdf="http://www.w3.org/1999/02/22-rdf-syntax-ns#">
   <cc:Work>
    <dc:type rdf:resource="http://purl.org/dc/dcmitype/StillImage"/>
    <dc:date>2026-01-09T12:19:41.530805</dc:date>
    <dc:format>image/svg+xml</dc:format>
    <dc:creator>
     <cc:Agent>
      <dc:title>Matplotlib v3.9.0, https://matplotlib.org/</dc:title>
     </cc:Agent>
    </dc:creator>
   </cc:Work>
  </rdf:RDF>
 </metadata>
 <defs>
  <style type="text/css">*{stroke-linejoin: round; stroke-linecap: butt}</style>
 </defs>
 <g id="figure_1">
  <g id="patch_1">
   <path d="M 0 361.015312 
L 2137.395781 361.015312 
L 2137.395781 0 
L 0 0 
z
" style="fill: #ffffff"/>
  </g>
  <g id="axes_1">
   <g id="patch_2">
    <path d="M 121.395781 287.65 
L 531.354965 287.65 
L 531.354965 38.17 
L 121.395781 38.17 
z
" style="fill: #ffffff"/>
   </g>
   <g id="PolyCollection_1">
    <defs>
     <path id="m4a4b0e5360" d="M 121.395781 -198.105312 
L 121.395781 -198.105312 
L 122.2157 -198.105312 
L 123.035618 -198.105312 
L 123.855536 -198.105312 
L 124.675455 -198.105312 
L 125.495373 -198.105312 
L 126.315291 -198.105312 
L 127.13521 -198.105312 
L 127.955128 -198.105312 
L 128.775047 -198.105312 
L 129.594965 -198.105312 
L 130.414883 -198.105312 
L 131.234802 -198.105312 
L 132.05472 -198.105312 
L 132.874638 -198.105312 
L 133.694557 -198.105312 
L 134.514475 -198.105312 
L 135.334393 -198.105312 
L 136.154312 -198.105312 
L 136.97423 -198.105312 
L 137.794149 -198.105312 
L 138.614067 -198.105312 
L 139.433985 -198.105312 
L 140.253904 -198.105312 
L 141.073822 -198.105312 
L 141.89374 -198.105312 
L 142.713659 -198.105312 
L 143.533577 -198.105312 
L 144.353496 -198.105312 
L 145.173414 -198.105312 
L 145.993332 -198.105312 
L 146.813251 -198.105312 
L 147.633169 -198.105312 
L 148.453087 -198.105312 
L 149.273006 -198.105312 
L 150.092924 -198.105312 
L 150.912842 -198.105312 
L 151.732761 -198.105312 
L 152.552679 -198.105312 
L 153.372598 -198.105312 
L 154.192516 -198.105312 
L 155.012434 -198.105312 
L 155.832353 -198.105312 
L 156.652271 -198.105312 
L 157.472189 -198.105312 
L 158.292108 -198.105312 
L 159.112026 -198.105312 
L 159.931945 -198.105312 
L 160.751863 -198.105312 
L 161.571781 -198.105312 
L 162.3917 -198.105312 
L 163.211618 -198.105312 
L 164.031536 -198.105312 
L 164.851455 -198.105312 
L 165.671373 -198.105312 
L 166.491291 -198.105312 
L 167.31121 -198.105312 
L 168.131128 -198.105312 
L 168.951047 -198.105312 
L 169.770965 -198.105312 
L 170.590883 -198.105312 
L 171.410802 -198.105312 
L 172.23072 -198.105312 
L 173.050638 -198.105312 
L 173.870557 -198.105312 
L 174.690475 -198.105312 
L 175.510393 -198.105312 
L 176.330312 -198.105312 
L 177.15023 -198.105312 
L 177.970149 -198.105312 
L 178.790067 -198.105312 
L 179.609985 -198.105312 
L 180.429904 -198.105312 
L 181.249822 -198.105312 
L 182.06974 -198.105312 
L 182.889659 -198.105312 
L 183.709577 -198.105312 
L 184.529496 -198.105312 
L 185.349414 -198.105312 
L 186.169332 -198.105312 
L 186.989251 -198.105312 
L 187.809169 -198.105312 
L 188.629087 -198.105312 
L 189.449006 -198.105312 
L 190.268924 -198.105312 
L 191.088842 -198.105312 
L 191.908761 -198.105312 
L 192.728679 -198.105312 
L 193.548598 -198.105312 
L 194.368516 -198.105312 
L 195.188434 -198.105312 
L 196.008353 -198.105312 
L 196.828271 -198.105312 
L 197.648189 -198.105312 
L 198.468108 -198.105312 
L 199.288026 -198.105312 
L 200.107945 -198.105312 
L 200.927863 -198.105312 
L 201.747781 -198.105312 
L 202.5677 -198.105312 
L 203.387618 -198.105312 
L 204.207536 -198.105312 
L 205.027455 -198.105312 
L 205.847373 -198.105312 
L 206.667291 -198.105312 
L 207.48721 -198.105312 
L 208.307128 -198.105312 
L 209.127047 -198.105312 
L 209.946965 -198.105312 
L 210.766883 -198.105312 
L 211.586802 -198.105312 
L 212.40672 -198.105312 
L 213.226638 -198.105312 
L 214.046557 -198.105312 
L 214.866475 -198.105312 
L 215.686393 -198.105312 
L 216.506312 -198.105312 
L 217.32623 -198.105312 
L 218.146149 -198.105312 
L 218.966067 -198.105312 
L 219.785985 -198.105312 
L 220.605904 -198.105312 
L 221.425822 -198.105312 
L 222.24574 -198.105312 
L 223.065659 -198.105312 
L 223.885577 -198.105312 
L 224.705496 -198.105312 
L 225.525414 -198.105312 
L 226.345332 -198.105312 
L 227.165251 -198.105312 
L 227.985169 -198.105312 
L 228.805087 -198.105312 
L 229.625006 -198.105312 
L 230.444924 -198.105312 
L 231.264842 -198.105312 
L 232.084761 -198.105312 
L 232.904679 -198.105312 
L 233.724598 -198.105312 
L 234.544516 -198.105312 
L 235.364434 -198.105312 
L 236.184353 -198.105312 
L 237.004271 -198.105312 
L 237.824189 -198.105312 
L 238.644108 -198.105312 
L 239.464026 -198.105312 
L 240.283945 -198.105312 
L 241.103863 -198.105312 
L 241.923781 -198.105312 
L 242.7437 -198.105312 
L 243.563618 -198.105312 
L 244.383536 -198.105312 
L 245.203455 -198.105312 
L 246.023373 -198.105312 
L 246.843291 -198.105312 
L 247.66321 -198.105312 
L 248.483128 -198.105312 
L 249.303047 -198.105312 
L 250.122965 -198.105312 
L 250.122965 -198.105312 
L 250.122965 -198.105312 
L 249.303047 -206.773328 
L 248.483128 -215.572276 
L 247.66321 -224.532581 
L 246.843291 -233.6955 
L 246.023373 -243.117123 
L 245.203455 -252.873916 
L 244.383536 -263.070318 
L 243.563618 -273.875782 
L 242.7437 -294.646199 
L 241.923781 -305.428608 
L 241.103863 -305.428625 
L 240.283945 -305.428618 
L 239.464026 -305.416289 
L 238.644108 -300.242408 
L 237.824189 -295.057979 
L 237.004271 -289.861748 
L 236.184353 -284.652613 
L 235.364434 -279.429155 
L 234.544516 -274.189923 
L 233.724598 -268.933205 
L 232.904679 -263.657245 
L 232.084761 -254.028906 
L 231.264842 -243.676492 
L 230.444924 -232.830356 
L 229.625006 -221.216527 
L 228.805087 -198.105312 
L 227.985169 -198.105312 
L 227.165251 -198.105312 
L 226.345332 -198.105312 
L 225.525414 -198.105312 
L 224.705496 -198.105312 
L 223.885577 -198.105312 
L 223.065659 -198.105312 
L 222.24574 -198.105312 
L 221.425822 -198.105312 
L 220.605904 -198.105312 
L 219.785985 -198.105312 
L 218.966067 -198.105312 
L 218.146149 -198.105312 
L 217.32623 -198.105312 
L 216.506312 -198.105312 
L 215.686393 -198.105312 
L 214.866475 -198.105312 
L 214.046557 -198.105312 
L 213.226638 -198.105312 
L 212.40672 -198.105312 
L 211.586802 -198.105312 
L 210.766883 -198.105312 
L 209.946965 -198.105312 
L 209.127047 -198.105312 
L 208.307128 -198.105312 
L 207.48721 -198.105312 
L 206.667291 -198.105312 
L 205.847373 -198.105312 
L 205.027455 -198.105312 
L 204.207536 -198.105312 
L 203.387618 -198.105312 
L 202.5677 -198.105312 
L 201.747781 -198.105312 
L 200.927863 -198.105312 
L 200.107945 -198.105312 
L 199.288026 -198.105312 
L 198.468108 -193.463819 
L 197.648189 -183.854706 
L 196.828271 -173.891237 
L 196.008353 -163.666508 
L 195.188434 -152.972346 
L 194.368516 -141.982654 
L 193.548598 -125.072888 
L 192.728679 -109.992799 
L 191.908761 -105.237882 
L 191.088842 -105.237874 
L 190.268924 -105.2379 
L 189.449006 -105.237879 
L 188.629087 -105.237901 
L 187.809169 -105.237963 
L 186.989251 -105.238036 
L 186.169332 -105.238054 
L 185.349414 -105.238104 
L 184.529496 -107.181633 
L 183.709577 -112.615626 
L 182.889659 -118.409853 
L 182.06974 -122.755953 
L 181.249822 -128.764849 
L 180.429904 -132.512072 
L 179.609985 -137.507738 
L 178.790067 -142.350077 
L 177.970149 -147.543763 
L 177.15023 -153.114408 
L 176.330312 -157.90443 
L 175.510393 -162.785333 
L 174.690475 -167.880603 
L 173.870557 -173.058014 
L 173.050638 -178.163264 
L 172.23072 -183.343776 
L 171.410802 -188.478864 
L 170.590883 -193.672004 
L 169.770965 -198.832493 
L 168.951047 -204.048993 
L 168.131128 -209.228347 
L 167.31121 -214.474003 
L 166.491291 -219.913083 
L 165.671373 -226.789365 
L 164.851455 -238.054902 
L 164.031536 -249.760813 
L 163.211618 -261.546898 
L 162.3917 -273.804392 
L 161.571781 -285.639513 
L 160.751863 -295.910723 
L 159.931945 -305.270694 
L 159.112026 -311.9506 
L 158.292108 -314.708785 
L 157.472189 -314.716606 
L 156.652271 -314.730209 
L 155.832353 -314.745693 
L 155.012434 -314.760281 
L 154.192516 -314.774744 
L 153.372598 -314.788661 
L 152.552679 -314.801767 
L 151.732761 -314.813861 
L 150.912842 -314.823956 
L 150.092924 -314.829252 
L 149.273006 -314.830814 
L 148.453087 -314.830818 
L 147.633169 -314.830897 
L 146.813251 -314.830919 
L 145.993332 -314.830946 
L 145.173414 -314.83093 
L 144.353496 -310.442217 
L 143.533577 -305.234827 
L 142.713659 -300.013163 
L 141.89374 -294.775695 
L 141.073822 -289.520846 
L 140.253904 -284.246727 
L 139.433985 -278.951295 
L 138.614067 -273.632422 
L 137.794149 -268.287419 
L 136.97423 -262.913773 
L 136.154312 -255.723139 
L 135.334393 -242.115351 
L 134.514475 -222.680955 
L 133.694557 -198.105312 
L 132.874638 -198.105312 
L 132.05472 -198.105312 
L 131.234802 -198.105312 
L 130.414883 -198.105312 
L 129.594965 -198.105312 
L 128.775047 -198.105312 
L 127.955128 -198.105312 
L 127.13521 -198.105312 
L 126.315291 -198.105312 
L 125.495373 -198.105312 
L 124.675455 -198.105312 
L 123.855536 -198.105312 
L 123.035618 -198.105312 
L 122.2157 -198.105312 
L 121.395781 -198.105312 
z
" style="stroke: #0173b2; stroke-opacity: 0.75"/>
    </defs>
    <g clip-path="url(#p74bcc1338e)">
     <use xlink:href="#m4a4b0e5360" x="0" y="361.015312" style="fill: #0173b2; fill-opacity: 0.75; stroke: #0173b2; stroke-opacity: 0.75"/>
    </g>
   </g>
   <g id="matplotlib.axis_1">
    <g id="xtick_1">
     <g id="line2d_1">
      <defs>
       <path id="m246cd629e1" d="M 0 0 
L 0 3.5 
" style="stroke: #000000; stroke-width: 0.8"/>
      </defs>
      <g>
       <use xlink:href="#m246cd629e1" x="121.395781" y="287.65" style="stroke: #000000; stroke-width: 0.8"/>
      </g>
     </g>
     <g id="text_1">
      <!-- 0 -->
      <g transform="translate(112.806406 315.165781) scale(0.27 -0.27)">
       <defs>
        <path id="DejaVuSans-30" d="M 2034 4250 
Q 1547 4250 1301 3770 
Q 1056 3291 1056 2328 
Q 1056 1369 1301 889 
Q 1547 409 2034 409 
Q 2525 409 2770 889 
Q 3016 1369 3016 2328 
Q 3016 3291 2770 3770 
Q 2525 4250 2034 4250 
z
M 2034 4750 
Q 2819 4750 3233 4129 
Q 3647 3509 3647 2328 
Q 3647 1150 3233 529 
Q 2819 -91 2034 -91 
Q 1250 -91 836 529 
Q 422 1150 422 2328 
Q 422 3509 836 4129 
Q 1250 4750 2034 4750 
z
" transform="scale(0.015625)"/>
       </defs>
       <use xlink:href="#DejaVuSans-30"/>
      </g>
     </g>
    </g>
    <g id="xtick_2">
     <g id="line2d_2">
      <g>
       <use xlink:href="#m246cd629e1" x="223.885577" y="287.65" style="stroke: #000000; stroke-width: 0.8"/>
      </g>
     </g>
     <g id="text_2">
      <!-- 25 -->
      <g transform="translate(206.706827 315.165781) scale(0.27 -0.27)">
       <defs>
        <path id="DejaVuSans-32" d="M 1228 531 
L 3431 531 
L 3431 0 
L 469 0 
L 469 531 
Q 828 903 1448 1529 
Q 2069 2156 2228 2338 
Q 2531 2678 2651 2914 
Q 2772 3150 2772 3378 
Q 2772 3750 2511 3984 
Q 2250 4219 1831 4219 
Q 1534 4219 1204 4116 
Q 875 4013 500 3803 
L 500 4441 
Q 881 4594 1212 4672 
Q 1544 4750 1819 4750 
Q 2544 4750 2975 4387 
Q 3406 4025 3406 3419 
Q 3406 3131 3298 2873 
Q 3191 2616 2906 2266 
Q 2828 2175 2409 1742 
Q 1991 1309 1228 531 
z
" transform="scale(0.015625)"/>
        <path id="DejaVuSans-35" d="M 691 4666 
L 3169 4666 
L 3169 4134 
L 1269 4134 
L 1269 2991 
Q 1406 3038 1543 3061 
Q 1681 3084 1819 3084 
Q 2600 3084 3056 2656 
Q 3513 2228 3513 1497 
Q 3513 744 3044 326 
Q 2575 -91 1722 -91 
Q 1428 -91 1123 -41 
Q 819 9 494 109 
L 494 744 
Q 775 591 1075 516 
Q 1375 441 1709 441 
Q 2250 441 2565 725 
Q 2881 1009 2881 1497 
Q 2881 1984 2565 2268 
Q 2250 2553 1709 2553 
Q 1456 2553 1204 2497 
Q 953 2441 691 2322 
L 691 4666 
z
" transform="scale(0.015625)"/>
       </defs>
       <use xlink:href="#DejaVuSans-32"/>
       <use xlink:href="#DejaVuSans-35" x="63.623047"/>
      </g>
     </g>
    </g>
    <g id="xtick_3">
     <g id="line2d_3">
      <g>
       <use xlink:href="#m246cd629e1" x="326.375373" y="287.65" style="stroke: #000000; stroke-width: 0.8"/>
      </g>
     </g>
     <g id="text_3">
      <!-- 50 -->
      <g transform="translate(309.196623 315.165781) scale(0.27 -0.27)">
       <use xlink:href="#DejaVuSans-35"/>
       <use xlink:href="#DejaVuSans-30" x="63.623047"/>
      </g>
     </g>
    </g>
    <g id="xtick_4">
     <g id="line2d_4">
      <g>
       <use xlink:href="#m246cd629e1" x="428.865169" y="287.65" style="stroke: #000000; stroke-width: 0.8"/>
      </g>
     </g>
     <g id="text_4">
      <!-- 75 -->
      <g transform="translate(411.686419 315.165781) scale(0.27 -0.27)">
       <defs>
        <path id="DejaVuSans-37" d="M 525 4666 
L 3525 4666 
L 3525 4397 
L 1831 0 
L 1172 0 
L 2766 4134 
L 525 4134 
L 525 4666 
z
" transform="scale(0.015625)"/>
       </defs>
       <use xlink:href="#DejaVuSans-37"/>
       <use xlink:href="#DejaVuSans-35" x="63.623047"/>
      </g>
     </g>
    </g>
    <g id="text_5">
     <!-- Time [ms] -->
     <g transform="translate(250.777717 347.57625) scale(0.3 -0.3)">
      <defs>
       <path id="DejaVuSans-54" d="M -19 4666 
L 3928 4666 
L 3928 4134 
L 2272 4134 
L 2272 0 
L 1638 0 
L 1638 4134 
L -19 4134 
L -19 4666 
z
" transform="scale(0.015625)"/>
       <path id="DejaVuSans-69" d="M 603 3500 
L 1178 3500 
L 1178 0 
L 603 0 
L 603 3500 
z
M 603 4863 
L 1178 4863 
L 1178 4134 
L 603 4134 
L 603 4863 
z
" transform="scale(0.015625)"/>
       <path id="DejaVuSans-6d" d="M 3328 2828 
Q 3544 3216 3844 3400 
Q 4144 3584 4550 3584 
Q 5097 3584 5394 3201 
Q 5691 2819 5691 2113 
L 5691 0 
L 5113 0 
L 5113 2094 
Q 5113 2597 4934 2840 
Q 4756 3084 4391 3084 
Q 3944 3084 3684 2787 
Q 3425 2491 3425 1978 
L 3425 0 
L 2847 0 
L 2847 2094 
Q 2847 2600 2669 2842 
Q 2491 3084 2119 3084 
Q 1678 3084 1418 2786 
Q 1159 2488 1159 1978 
L 1159 0 
L 581 0 
L 581 3500 
L 1159 3500 
L 1159 2956 
Q 1356 3278 1631 3431 
Q 1906 3584 2284 3584 
Q 2666 3584 2933 3390 
Q 3200 3197 3328 2828 
z
" transform="scale(0.015625)"/>
       <path id="DejaVuSans-65" d="M 3597 1894 
L 3597 1613 
L 953 1613 
Q 991 1019 1311 708 
Q 1631 397 2203 397 
Q 2534 397 2845 478 
Q 3156 559 3463 722 
L 3463 178 
Q 3153 47 2828 -22 
Q 2503 -91 2169 -91 
Q 1331 -91 842 396 
Q 353 884 353 1716 
Q 353 2575 817 3079 
Q 1281 3584 2069 3584 
Q 2775 3584 3186 3129 
Q 3597 2675 3597 1894 
z
M 3022 2063 
Q 3016 2534 2758 2815 
Q 2500 3097 2075 3097 
Q 1594 3097 1305 2825 
Q 1016 2553 972 2059 
L 3022 2063 
z
" transform="scale(0.015625)"/>
       <path id="DejaVuSans-20" transform="scale(0.015625)"/>
       <path id="DejaVuSans-5b" d="M 550 4863 
L 1875 4863 
L 1875 4416 
L 1125 4416 
L 1125 -397 
L 1875 -397 
L 1875 -844 
L 550 -844 
L 550 4863 
z
" transform="scale(0.015625)"/>
       <path id="DejaVuSans-73" d="M 2834 3397 
L 2834 2853 
Q 2591 2978 2328 3040 
Q 2066 3103 1784 3103 
Q 1356 3103 1142 2972 
Q 928 2841 928 2578 
Q 928 2378 1081 2264 
Q 1234 2150 1697 2047 
L 1894 2003 
Q 2506 1872 2764 1633 
Q 3022 1394 3022 966 
Q 3022 478 2636 193 
Q 2250 -91 1575 -91 
Q 1294 -91 989 -36 
Q 684 19 347 128 
L 347 722 
Q 666 556 975 473 
Q 1284 391 1588 391 
Q 1994 391 2212 530 
Q 2431 669 2431 922 
Q 2431 1156 2273 1281 
Q 2116 1406 1581 1522 
L 1381 1569 
Q 847 1681 609 1914 
Q 372 2147 372 2553 
Q 372 3047 722 3315 
Q 1072 3584 1716 3584 
Q 2034 3584 2315 3537 
Q 2597 3491 2834 3397 
z
" transform="scale(0.015625)"/>
       <path id="DejaVuSans-5d" d="M 1947 4863 
L 1947 -844 
L 622 -844 
L 622 -397 
L 1369 -397 
L 1369 4416 
L 622 4416 
L 622 4863 
L 1947 4863 
z
" transform="scale(0.015625)"/>
      </defs>
      <use xlink:href="#DejaVuSans-54"/>
      <use xlink:href="#DejaVuSans-69" x="57.958984"/>
      <use xlink:href="#DejaVuSans-6d" x="85.742188"/>
      <use xlink:href="#DejaVuSans-65" x="183.154297"/>
      <use xlink:href="#DejaVuSans-20" x="244.677734"/>
      <use xlink:href="#DejaVuSans-5b" x="276.464844"/>
      <use xlink:href="#DejaVuSans-6d" x="315.478516"/>
      <use xlink:href="#DejaVuSans-73" x="412.890625"/>
      <use xlink:href="#DejaVuSans-5d" x="464.990234"/>
     </g>
    </g>
   </g>
   <g id="matplotlib.axis_2">
    <g id="ytick_1">
     <g id="line2d_5">
      <defs>
       <path id="m9d40752e55" d="M 0 0 
L -3.5 0 
" style="stroke: #000000; stroke-width: 0.8"/>
      </defs>
      <g>
       <use xlink:href="#m9d40752e55" x="121.395781" y="287.029403" style="stroke: #000000; stroke-width: 0.8"/>
      </g>
     </g>
     <g id="text_6">
      <!-- −200 -->
      <g transform="translate(40.234375 297.287294) scale(0.27 -0.27)">
       <defs>
        <path id="DejaVuSans-2212" d="M 678 2272 
L 4684 2272 
L 4684 1741 
L 678 1741 
L 678 2272 
z
" transform="scale(0.015625)"/>
       </defs>
       <use xlink:href="#DejaVuSans-2212"/>
       <use xlink:href="#DejaVuSans-32" x="83.789062"/>
       <use xlink:href="#DejaVuSans-30" x="147.412109"/>
       <use xlink:href="#DejaVuSans-30" x="211.035156"/>
      </g>
     </g>
    </g>
    <g id="ytick_2">
     <g id="line2d_6">
      <g>
       <use xlink:href="#m9d40752e55" x="121.395781" y="224.969701" style="stroke: #000000; stroke-width: 0.8"/>
      </g>
     </g>
     <g id="text_7">
      <!-- −100 -->
      <g transform="translate(40.234375 235.227592) scale(0.27 -0.27)">
       <defs>
        <path id="DejaVuSans-31" d="M 794 531 
L 1825 531 
L 1825 4091 
L 703 3866 
L 703 4441 
L 1819 4666 
L 2450 4666 
L 2450 531 
L 3481 531 
L 3481 0 
L 794 0 
L 794 531 
z
" transform="scale(0.015625)"/>
       </defs>
       <use xlink:href="#DejaVuSans-2212"/>
       <use xlink:href="#DejaVuSans-31" x="83.789062"/>
       <use xlink:href="#DejaVuSans-30" x="147.412109"/>
       <use xlink:href="#DejaVuSans-30" x="211.035156"/>
      </g>
     </g>
    </g>
    <g id="ytick_3">
     <g id="line2d_7">
      <g>
       <use xlink:href="#m9d40752e55" x="121.395781" y="162.91" style="stroke: #000000; stroke-width: 0.8"/>
      </g>
     </g>
     <g id="text_8">
      <!-- 0 -->
      <g transform="translate(97.217031 173.167891) scale(0.27 -0.27)">
       <use xlink:href="#DejaVuSans-30"/>
      </g>
     </g>
    </g>
    <g id="ytick_4">
     <g id="line2d_8">
      <g>
       <use xlink:href="#m9d40752e55" x="121.395781" y="100.850299" style="stroke: #000000; stroke-width: 0.8"/>
      </g>
     </g>
     <g id="text_9">
      <!-- 100 -->
      <g transform="translate(62.859531 111.108189) scale(0.27 -0.27)">
       <use xlink:href="#DejaVuSans-31"/>
       <use xlink:href="#DejaVuSans-30" x="63.623047"/>
       <use xlink:href="#DejaVuSans-30" x="127.246094"/>
      </g>
     </g>
    </g>
    <g id="ytick_5">
     <g id="line2d_9">
      <g>
       <use xlink:href="#m9d40752e55" x="121.395781" y="38.790597" style="stroke: #000000; stroke-width: 0.8"/>
      </g>
     </g>
     <g id="text_10">
      <!-- 200 -->
      <g transform="translate(62.859531 49.048488) scale(0.27 -0.27)">
       <use xlink:href="#DejaVuSans-32"/>
       <use xlink:href="#DejaVuSans-30" x="63.623047"/>
       <use xlink:href="#DejaVuSans-30" x="127.246094"/>
      </g>
     </g>
    </g>
    <g id="text_11">
     <!-- mT/m -->
     <g transform="translate(29.995313 206.346719) rotate(-90) scale(0.3 -0.3)">
      <defs>
       <path id="DejaVuSans-2f" d="M 1625 4666 
L 2156 4666 
L 531 -594 
L 0 -594 
L 1625 4666 
z
" transform="scale(0.015625)"/>
      </defs>
      <use xlink:href="#DejaVuSans-6d"/>
      <use xlink:href="#DejaVuSans-54" x="97.412109"/>
      <use xlink:href="#DejaVuSans-2f" x="158.496094"/>
      <use xlink:href="#DejaVuSans-6d" x="192.1875"/>
     </g>
    </g>
   </g>
   <g id="line2d_10">
    <path d="M 121.395781 162.91 
L 531.354965 162.91 
" clip-path="url(#p74bcc1338e)" style="fill: none; stroke: #d3d3d3; stroke-opacity: 0.8; stroke-width: 1.5; stroke-linecap: square"/>
   </g>
   <g id="line2d_11">
    <path d="M 121.395781 162.91 
L 133.694557 162.91 
L 134.514475 138.334358 
L 135.334393 118.899962 
L 136.154312 105.292174 
L 136.97423 98.10154 
L 143.533577 55.780485 
L 144.353496 50.573096 
L 145.173414 46.184382 
L 156.652271 46.285103 
L 158.292108 46.306528 
L 159.112026 49.064713 
L 159.931945 55.744618 
L 161.571781 75.3758 
L 165.671373 134.225947 
L 166.491291 141.102229 
L 169.770965 162.18282 
L 176.330312 203.110883 
L 177.15023 207.900904 
L 178.790067 218.665235 
L 180.429904 228.503241 
L 181.249822 232.250464 
L 182.06974 238.259359 
L 182.889659 242.605459 
L 184.529496 253.833679 
L 185.349414 255.777209 
L 191.908761 255.777431 
L 192.728679 251.022513 
L 194.368516 219.032659 
L 196.828271 187.124076 
L 198.468108 167.551494 
L 199.288026 162.91 
L 228.805087 162.91 
L 229.625006 139.798785 
L 231.264842 117.338821 
L 232.904679 97.358067 
L 239.464026 55.599023 
L 241.923781 55.586705 
L 242.7437 66.369113 
L 243.563618 87.13953 
L 245.203455 108.141396 
L 247.66321 136.482731 
L 250.122965 162.91 
L 250.122965 162.91 
" clip-path="url(#p74bcc1338e)" style="fill: none; stroke: #000000; stroke-width: 5; stroke-linecap: square"/>
   </g>
   <g id="line2d_12">
    <path d="M 250.122965 162.91 
L 252.213757 162.91 
L 253.156663 184.261831 
L 253.197659 183.33349 
L 255.124467 141.558169 
L 255.985381 141.558169 
L 257.953185 184.261831 
L 258.8141 184.261831 
L 260.781904 141.558169 
L 261.642818 141.558169 
L 263.610622 184.261831 
L 264.471536 184.261831 
L 266.43934 141.558169 
L 267.300255 141.558169 
L 269.268059 184.261831 
L 270.128973 184.261831 
L 272.096777 141.558169 
L 272.957691 141.558169 
L 274.925496 184.261831 
L 275.78641 184.261831 
L 277.754214 141.558169 
L 278.615128 141.558169 
L 280.582932 184.261831 
L 281.443847 184.261831 
L 283.411651 141.558169 
L 284.272565 141.558169 
L 286.240369 184.261831 
L 287.101283 184.261831 
L 289.069087 141.558169 
L 289.930002 141.558169 
L 291.897806 184.261831 
L 292.75872 184.261831 
L 294.726524 141.558169 
L 295.587438 141.558169 
L 297.555242 184.261831 
L 298.416157 184.261831 
L 300.383961 141.558169 
L 301.244875 141.558169 
L 303.212679 184.261831 
L 304.073593 184.261831 
L 306.041398 141.558169 
L 306.902312 141.558169 
L 308.870116 184.261831 
L 309.73103 184.261831 
L 311.698834 141.558169 
L 312.559749 141.558169 
L 314.527553 184.261831 
L 315.388467 184.261831 
L 317.356271 141.558169 
L 318.217185 141.558169 
L 320.184989 184.261831 
L 321.045904 184.261831 
L 323.013708 141.558169 
L 323.874622 141.558169 
L 325.842426 184.261831 
L 326.70334 184.261831 
L 328.671145 141.558169 
L 329.532059 141.558169 
L 331.499863 184.261831 
L 332.360777 184.261831 
L 334.328581 141.558169 
L 335.189496 141.558169 
L 337.1573 184.261831 
L 338.018214 184.261831 
L 339.986018 141.558169 
L 340.846932 141.558169 
L 342.814736 184.261831 
L 343.675651 184.261831 
L 345.643455 141.558169 
L 346.504369 141.558169 
L 348.472173 184.261831 
L 349.333087 184.261831 
L 351.300891 141.558169 
L 352.161806 141.558169 
L 354.12961 184.261831 
L 354.990524 184.261831 
L 356.958328 141.558169 
L 357.819242 141.558169 
L 359.787047 184.261831 
L 360.647961 184.261831 
L 362.615765 141.558169 
L 363.476679 141.558169 
L 365.444483 184.261831 
L 366.305398 184.261831 
L 368.273202 141.558169 
L 369.134116 141.558169 
L 371.10192 184.261831 
L 371.962834 184.261831 
L 373.930638 141.558169 
L 374.791553 141.558169 
L 376.759357 184.261831 
L 377.620271 184.261831 
L 379.588075 141.558169 
L 380.448989 141.558169 
L 382.416793 184.261831 
L 383.277708 184.261831 
L 385.245512 141.558169 
L 386.106426 141.558169 
L 388.07423 184.261831 
L 388.935145 184.261831 
L 390.902949 141.558169 
L 391.763863 141.558169 
L 393.731667 184.261831 
L 394.592581 184.261831 
L 396.560385 141.558169 
L 397.4213 141.558169 
L 399.389104 184.261831 
L 400.250018 184.261831 
L 402.217822 141.558169 
L 403.078736 141.558169 
L 405.04654 184.261831 
L 405.907455 184.261831 
L 407.875259 141.558169 
L 408.736173 141.558169 
L 409.720075 162.91 
L 409.720075 162.91 
" clip-path="url(#p74bcc1338e)" style="fill: none; stroke: #000000; stroke-opacity: 0.7; stroke-width: 5; stroke-linecap: square"/>
   </g>
   <g id="line2d_13">
    <path d="M 306.426759 287.65 
L 306.426759 38.17 
" clip-path="url(#p74bcc1338e)" style="fill: none; stroke-dasharray: 18.5,8; stroke-dashoffset: 0; stroke: #000000; stroke-width: 5"/>
   </g>
   <g id="line2d_14">
    <path d="M 121.395781 38.790597 
L 531.354965 38.790597 
" clip-path="url(#p74bcc1338e)" style="fill: none; stroke-dasharray: 18.5,8; stroke-dashoffset: 0; stroke: #000000; stroke-opacity: 0.2; stroke-width: 5"/>
   </g>
   <g id="line2d_15">
    <path d="M 121.395781 287.029403 
L 531.354965 287.029403 
" clip-path="url(#p74bcc1338e)" style="fill: none; stroke-dasharray: 18.5,8; stroke-dashoffset: 0; stroke: #000000; stroke-opacity: 0.2; stroke-width: 5"/>
   </g>
   <g id="line2d_16">
    <path d="M 121.395781 162.91 
L 531.354965 162.91 
" clip-path="url(#p74bcc1338e)" style="fill: none; stroke: #000000; stroke-width: 5; stroke-linecap: square"/>
   </g>
   <g id="patch_3">
    <path d="M 121.395781 287.65 
L 121.395781 38.17 
" style="fill: none; stroke: #000000; stroke-width: 0.8; stroke-linejoin: miter; stroke-linecap: square"/>
   </g>
   <g id="patch_4">
    <path d="M 121.395781 287.65 
L 531.354965 287.65 
" style="fill: none; stroke: #000000; stroke-width: 0.8; stroke-linejoin: miter; stroke-linecap: square"/>
   </g>
   <g id="text_12">
    <!-- $G(t)$ -->
    <g transform="translate(295.175373 31.515) scale(0.32 -0.32)">
     <defs>
      <path id="DejaVuSans-Oblique-47" d="M 3494 697 
L 3738 1919 
L 2700 1919 
L 2797 2438 
L 4453 2438 
L 4050 384 
Q 3634 156 3143 32 
Q 2653 -91 2156 -91 
Q 1278 -91 783 396 
Q 288 884 288 1753 
Q 288 2475 589 3126 
Q 891 3778 1422 4213 
Q 1756 4484 2153 4617 
Q 2550 4750 3034 4750 
Q 3472 4750 3873 4639 
Q 4275 4528 4641 4306 
L 4513 3634 
Q 4231 3928 3853 4083 
Q 3475 4238 3047 4238 
Q 2550 4238 2172 4048 
Q 1794 3859 1497 3463 
Q 1244 3125 1098 2667 
Q 953 2209 953 1734 
Q 953 1081 1287 751 
Q 1622 422 2284 422 
Q 2616 422 2925 492 
Q 3234 563 3494 697 
z
" transform="scale(0.015625)"/>
      <path id="DejaVuSans-28" d="M 1984 4856 
Q 1566 4138 1362 3434 
Q 1159 2731 1159 2009 
Q 1159 1288 1364 580 
Q 1569 -128 1984 -844 
L 1484 -844 
Q 1016 -109 783 600 
Q 550 1309 550 2009 
Q 550 2706 781 3412 
Q 1013 4119 1484 4856 
L 1984 4856 
z
" transform="scale(0.015625)"/>
      <path id="DejaVuSans-Oblique-74" d="M 2706 3500 
L 2619 3053 
L 1472 3053 
L 1100 1153 
Q 1081 1047 1072 975 
Q 1063 903 1063 863 
Q 1063 663 1183 572 
Q 1303 481 1569 481 
L 2150 481 
L 2053 0 
L 1503 0 
Q 991 0 739 200 
Q 488 400 488 806 
Q 488 878 497 964 
Q 506 1050 525 1153 
L 897 3053 
L 409 3053 
L 500 3500 
L 978 3500 
L 1172 4494 
L 1747 4494 
L 1556 3500 
L 2706 3500 
z
" transform="scale(0.015625)"/>
      <path id="DejaVuSans-29" d="M 513 4856 
L 1013 4856 
Q 1481 4119 1714 3412 
Q 1947 2706 1947 2009 
Q 1947 1309 1714 600 
Q 1481 -109 1013 -844 
L 513 -844 
Q 928 -128 1133 580 
Q 1338 1288 1338 2009 
Q 1338 2731 1133 3434 
Q 928 4138 513 4856 
z
" transform="scale(0.015625)"/>
     </defs>
     <use xlink:href="#DejaVuSans-Oblique-47" transform="translate(0 0.125)"/>
     <use xlink:href="#DejaVuSans-28" transform="translate(77.490234 0.125)"/>
     <use xlink:href="#DejaVuSans-Oblique-74" transform="translate(116.503906 0.125)"/>
     <use xlink:href="#DejaVuSans-29" transform="translate(155.712891 0.125)"/>
    </g>
   </g>
   <g id="legend_1">
    <g id="patch_5">
     <path d="M 507.154965 66.77 
L 515.954965 66.77 
Q 520.354965 66.77 520.354965 62.37 
L 520.354965 53.57 
Q 520.354965 49.17 515.954965 49.17 
L 507.154965 49.17 
Q 502.754965 49.17 502.754965 53.57 
L 502.754965 62.37 
Q 502.754965 66.77 507.154965 66.77 
z
" style="fill: #ffffff; opacity: 0.8; stroke: #cccccc; stroke-linejoin: miter"/>
    </g>
   </g>
  </g>
  <g id="axes_2">
   <g id="patch_6">
    <path d="M 654.34272 287.65 
L 1064.301904 287.65 
L 1064.301904 38.17 
L 654.34272 38.17 
z
" style="fill: #ffffff"/>
   </g>
   <g id="matplotlib.axis_3">
    <g id="xtick_5">
     <g id="line2d_17">
      <g>
       <use xlink:href="#m246cd629e1" x="654.34272" y="287.65" style="stroke: #000000; stroke-width: 0.8"/>
      </g>
     </g>
     <g id="text_13">
      <!-- 0 -->
      <g transform="translate(645.753345 315.165781) scale(0.27 -0.27)">
       <use xlink:href="#DejaVuSans-30"/>
      </g>
     </g>
    </g>
    <g id="xtick_6">
     <g id="line2d_18">
      <g>
       <use xlink:href="#m246cd629e1" x="756.832516" y="287.65" style="stroke: #000000; stroke-width: 0.8"/>
      </g>
     </g>
     <g id="text_14">
      <!-- 25 -->
      <g transform="translate(739.653766 315.165781) scale(0.27 -0.27)">
       <use xlink:href="#DejaVuSans-32"/>
       <use xlink:href="#DejaVuSans-35" x="63.623047"/>
      </g>
     </g>
    </g>
    <g id="xtick_7">
     <g id="line2d_19">
      <g>
       <use xlink:href="#m246cd629e1" x="859.322312" y="287.65" style="stroke: #000000; stroke-width: 0.8"/>
      </g>
     </g>
     <g id="text_15">
      <!-- 50 -->
      <g transform="translate(842.143562 315.165781) scale(0.27 -0.27)">
       <use xlink:href="#DejaVuSans-35"/>
       <use xlink:href="#DejaVuSans-30" x="63.623047"/>
      </g>
     </g>
    </g>
    <g id="xtick_8">
     <g id="line2d_20">
      <g>
       <use xlink:href="#m246cd629e1" x="961.812108" y="287.65" style="stroke: #000000; stroke-width: 0.8"/>
      </g>
     </g>
     <g id="text_16">
      <!-- 75 -->
      <g transform="translate(944.633358 315.165781) scale(0.27 -0.27)">
       <use xlink:href="#DejaVuSans-37"/>
       <use xlink:href="#DejaVuSans-35" x="63.623047"/>
      </g>
     </g>
    </g>
    <g id="text_17">
     <!-- Time [ms] -->
     <g transform="translate(783.724656 347.57625) scale(0.3 -0.3)">
      <use xlink:href="#DejaVuSans-54"/>
      <use xlink:href="#DejaVuSans-69" x="57.958984"/>
      <use xlink:href="#DejaVuSans-6d" x="85.742188"/>
      <use xlink:href="#DejaVuSans-65" x="183.154297"/>
      <use xlink:href="#DejaVuSans-20" x="244.677734"/>
      <use xlink:href="#DejaVuSans-5b" x="276.464844"/>
      <use xlink:href="#DejaVuSans-6d" x="315.478516"/>
      <use xlink:href="#DejaVuSans-73" x="412.890625"/>
      <use xlink:href="#DejaVuSans-5d" x="464.990234"/>
     </g>
    </g>
   </g>
   <g id="matplotlib.axis_4">
    <g id="ytick_6">
     <g id="line2d_21">
      <g>
       <use xlink:href="#m9d40752e55" x="654.34272" y="287.029403" style="stroke: #000000; stroke-width: 0.8"/>
      </g>
     </g>
     <g id="text_18">
      <!-- −200 -->
      <g transform="translate(573.181314 297.287294) scale(0.27 -0.27)">
       <use xlink:href="#DejaVuSans-2212"/>
       <use xlink:href="#DejaVuSans-32" x="83.789062"/>
       <use xlink:href="#DejaVuSans-30" x="147.412109"/>
       <use xlink:href="#DejaVuSans-30" x="211.035156"/>
      </g>
     </g>
    </g>
    <g id="ytick_7">
     <g id="line2d_22">
      <g>
       <use xlink:href="#m9d40752e55" x="654.34272" y="224.969701" style="stroke: #000000; stroke-width: 0.8"/>
      </g>
     </g>
     <g id="text_19">
      <!-- −100 -->
      <g transform="translate(573.181314 235.227592) scale(0.27 -0.27)">
       <use xlink:href="#DejaVuSans-2212"/>
       <use xlink:href="#DejaVuSans-31" x="83.789062"/>
       <use xlink:href="#DejaVuSans-30" x="147.412109"/>
       <use xlink:href="#DejaVuSans-30" x="211.035156"/>
      </g>
     </g>
    </g>
    <g id="ytick_8">
     <g id="line2d_23">
      <g>
       <use xlink:href="#m9d40752e55" x="654.34272" y="162.91" style="stroke: #000000; stroke-width: 0.8"/>
      </g>
     </g>
     <g id="text_20">
      <!-- 0 -->
      <g transform="translate(630.16397 173.167891) scale(0.27 -0.27)">
       <use xlink:href="#DejaVuSans-30"/>
      </g>
     </g>
    </g>
    <g id="ytick_9">
     <g id="line2d_24">
      <g>
       <use xlink:href="#m9d40752e55" x="654.34272" y="100.850299" style="stroke: #000000; stroke-width: 0.8"/>
      </g>
     </g>
     <g id="text_21">
      <!-- 100 -->
      <g transform="translate(595.80647 111.108189) scale(0.27 -0.27)">
       <use xlink:href="#DejaVuSans-31"/>
       <use xlink:href="#DejaVuSans-30" x="63.623047"/>
       <use xlink:href="#DejaVuSans-30" x="127.246094"/>
      </g>
     </g>
    </g>
    <g id="ytick_10">
     <g id="line2d_25">
      <g>
       <use xlink:href="#m9d40752e55" x="654.34272" y="38.790597" style="stroke: #000000; stroke-width: 0.8"/>
      </g>
     </g>
     <g id="text_22">
      <!-- 200 -->
      <g transform="translate(595.80647 49.048488) scale(0.27 -0.27)">
       <use xlink:href="#DejaVuSans-32"/>
       <use xlink:href="#DejaVuSans-30" x="63.623047"/>
       <use xlink:href="#DejaVuSans-30" x="127.246094"/>
      </g>
     </g>
    </g>
    <g id="text_23">
     <!-- T/m/s -->
     <g transform="translate(562.942251 204.602969) rotate(-90) scale(0.3 -0.3)">
      <use xlink:href="#DejaVuSans-54"/>
      <use xlink:href="#DejaVuSans-2f" x="61.083984"/>
      <use xlink:href="#DejaVuSans-6d" x="94.775391"/>
      <use xlink:href="#DejaVuSans-2f" x="192.1875"/>
      <use xlink:href="#DejaVuSans-73" x="225.878906"/>
     </g>
    </g>
   </g>
   <g id="line2d_26">
    <path d="M 654.34272 162.91 
L 1064.301904 162.91 
" clip-path="url(#p33be4a3d28)" style="fill: none; stroke: #d3d3d3; stroke-opacity: 0.8; stroke-width: 1.5; stroke-linecap: square"/>
   </g>
   <g id="line2d_27">
    <path d="M 654.34272 162.91 
L 665.821577 162.91 
L 666.641496 40.031788 
L 668.281332 94.871059 
L 669.101251 126.95683 
L 669.921169 136.041769 
L 673.200842 136.539402 
L 676.480516 136.873053 
L 677.300434 140.966433 
L 678.120353 162.909921 
L 690.419128 162.949105 
L 691.239047 176.700927 
L 692.058965 196.309526 
L 692.878883 209.709858 
L 693.698802 214.26605 
L 694.51872 222.085603 
L 695.338638 224.197469 
L 696.158557 221.840429 
L 696.978475 221.439553 
L 697.798393 219.237684 
L 698.618312 197.291411 
L 699.43823 190.105401 
L 700.258149 189.13828 
L 701.078067 188.806773 
L 701.897985 188.9925 
L 702.717904 188.712442 
L 703.537822 188.8757 
L 704.35774 188.58544 
L 705.177659 188.81256 
L 705.997577 188.436249 
L 706.817496 188.797057 
L 707.637414 188.386347 
L 708.457332 187.314518 
L 709.277251 186.860108 
L 710.097169 190.763224 
L 711.737006 187.121695 
L 712.556924 187.88833 
L 713.376842 181.646115 
L 714.196761 192.954478 
L 715.016679 184.640502 
L 715.836598 191.881137 
L 716.656516 190.079962 
L 717.476434 172.627648 
L 718.296353 162.910247 
L 724.035781 162.90996 
L 724.8557 139.135412 
L 725.675618 87.509556 
L 726.495536 78.361171 
L 727.315455 107.961539 
L 728.135373 109.439191 
L 728.955291 111.786355 
L 729.77521 113.092656 
L 730.595128 114.864434 
L 732.234965 162.91 
L 760.932108 162.91 
L 761.752026 47.353926 
L 762.571945 104.840857 
L 763.391863 108.679321 
L 764.211781 111.14793 
L 765.0317 114.768303 
L 765.851618 136.530203 
L 769.95121 136.928845 
L 771.591047 137.04059 
L 772.410965 162.848359 
L 774.050802 162.910087 
L 775.690638 266.762086 
L 776.510557 216.937321 
L 777.330475 213.892007 
L 778.150393 211.693967 
L 778.970312 210.018115 
L 779.79023 208.724593 
L 780.610149 207.711526 
L 782.249985 206.250076 
L 782.249985 206.250076 
" clip-path="url(#p33be4a3d28)" style="fill: none; stroke: #000000; stroke-width: 5; stroke-linecap: square"/>
   </g>
   <g id="line2d_28">
    <path d="M 654.34272 38.790597 
L 1064.301904 38.790597 
" clip-path="url(#p33be4a3d28)" style="fill: none; stroke-dasharray: 18.5,8; stroke-dashoffset: 0; stroke: #000000; stroke-opacity: 0.2; stroke-width: 5"/>
   </g>
   <g id="line2d_29">
    <path d="M 654.34272 287.029403 
L 1064.301904 287.029403 
" clip-path="url(#p33be4a3d28)" style="fill: none; stroke-dasharray: 18.5,8; stroke-dashoffset: 0; stroke: #000000; stroke-opacity: 0.2; stroke-width: 5"/>
   </g>
   <g id="line2d_30">
    <path d="M 654.34272 162.91 
L 1064.301904 162.91 
" clip-path="url(#p33be4a3d28)" style="fill: none; stroke: #000000; stroke-width: 5; stroke-linecap: square"/>
   </g>
   <g id="patch_7">
    <path d="M 654.34272 287.65 
L 654.34272 38.17 
" style="fill: none; stroke: #000000; stroke-width: 0.8; stroke-linejoin: miter; stroke-linecap: square"/>
   </g>
   <g id="patch_8">
    <path d="M 654.34272 287.65 
L 1064.301904 287.65 
" style="fill: none; stroke: #000000; stroke-width: 0.8; stroke-linejoin: miter; stroke-linecap: square"/>
   </g>
   <g id="text_24">
    <!-- $S(t)$ -->
    <g transform="translate(830.362312 31.515) scale(0.32 -0.32)">
     <defs>
      <path id="DejaVuSans-Oblique-53" d="M 3859 4513 
L 3738 3897 
Q 3422 4066 3111 4152 
Q 2800 4238 2509 4238 
Q 1944 4238 1609 3991 
Q 1275 3744 1275 3334 
Q 1275 3109 1398 2989 
Q 1522 2869 2034 2731 
L 2413 2638 
Q 3053 2472 3303 2217 
Q 3553 1963 3553 1503 
Q 3553 797 2998 353 
Q 2444 -91 1538 -91 
Q 1166 -91 791 -17 
Q 416 56 38 206 
L 166 856 
Q 513 641 861 531 
Q 1209 422 1556 422 
Q 2147 422 2503 684 
Q 2859 947 2859 1369 
Q 2859 1650 2717 1795 
Q 2575 1941 2106 2059 
L 1728 2156 
Q 1081 2325 845 2545 
Q 609 2766 609 3163 
Q 609 3859 1145 4304 
Q 1681 4750 2541 4750 
Q 2875 4750 3203 4690 
Q 3531 4631 3859 4513 
z
" transform="scale(0.015625)"/>
     </defs>
     <use xlink:href="#DejaVuSans-Oblique-53" transform="translate(0 0.125)"/>
     <use xlink:href="#DejaVuSans-28" transform="translate(63.476562 0.125)"/>
     <use xlink:href="#DejaVuSans-Oblique-74" transform="translate(102.490234 0.125)"/>
     <use xlink:href="#DejaVuSans-29" transform="translate(141.699219 0.125)"/>
    </g>
   </g>
  </g>
  <g id="axes_3">
   <g id="patch_9">
    <path d="M 1187.289659 287.65 
L 1597.248842 287.65 
L 1597.248842 38.17 
L 1187.289659 38.17 
z
" style="fill: #ffffff"/>
   </g>
   <g id="matplotlib.axis_5">
    <g id="xtick_9">
     <g id="line2d_31">
      <g>
       <use xlink:href="#m246cd629e1" x="1187.289659" y="287.65" style="stroke: #000000; stroke-width: 0.8"/>
      </g>
     </g>
     <g id="text_25">
      <!-- 0 -->
      <g transform="translate(1178.700284 315.165781) scale(0.27 -0.27)">
       <use xlink:href="#DejaVuSans-30"/>
      </g>
     </g>
    </g>
    <g id="xtick_10">
     <g id="line2d_32">
      <g>
       <use xlink:href="#m246cd629e1" x="1289.779455" y="287.65" style="stroke: #000000; stroke-width: 0.8"/>
      </g>
     </g>
     <g id="text_26">
      <!-- 25 -->
      <g transform="translate(1272.600705 315.165781) scale(0.27 -0.27)">
       <use xlink:href="#DejaVuSans-32"/>
       <use xlink:href="#DejaVuSans-35" x="63.623047"/>
      </g>
     </g>
    </g>
    <g id="xtick_11">
     <g id="line2d_33">
      <g>
       <use xlink:href="#m246cd629e1" x="1392.269251" y="287.65" style="stroke: #000000; stroke-width: 0.8"/>
      </g>
     </g>
     <g id="text_27">
      <!-- 50 -->
      <g transform="translate(1375.090501 315.165781) scale(0.27 -0.27)">
       <use xlink:href="#DejaVuSans-35"/>
       <use xlink:href="#DejaVuSans-30" x="63.623047"/>
      </g>
     </g>
    </g>
    <g id="xtick_12">
     <g id="line2d_34">
      <g>
       <use xlink:href="#m246cd629e1" x="1494.759047" y="287.65" style="stroke: #000000; stroke-width: 0.8"/>
      </g>
     </g>
     <g id="text_28">
      <!-- 75 -->
      <g transform="translate(1477.580297 315.165781) scale(0.27 -0.27)">
       <use xlink:href="#DejaVuSans-37"/>
       <use xlink:href="#DejaVuSans-35" x="63.623047"/>
      </g>
     </g>
    </g>
    <g id="text_29">
     <!-- Time [ms] -->
     <g transform="translate(1316.671594 347.57625) scale(0.3 -0.3)">
      <use xlink:href="#DejaVuSans-54"/>
      <use xlink:href="#DejaVuSans-69" x="57.958984"/>
      <use xlink:href="#DejaVuSans-6d" x="85.742188"/>
      <use xlink:href="#DejaVuSans-65" x="183.154297"/>
      <use xlink:href="#DejaVuSans-20" x="244.677734"/>
      <use xlink:href="#DejaVuSans-5b" x="276.464844"/>
      <use xlink:href="#DejaVuSans-6d" x="315.478516"/>
      <use xlink:href="#DejaVuSans-73" x="412.890625"/>
      <use xlink:href="#DejaVuSans-5d" x="464.990234"/>
     </g>
    </g>
   </g>
   <g id="matplotlib.axis_6">
    <g id="ytick_11">
     <g id="line2d_35">
      <g>
       <use xlink:href="#m9d40752e55" x="1187.289659" y="287.65" style="stroke: #000000; stroke-width: 0.8"/>
      </g>
     </g>
     <g id="text_30">
      <!-- 0.00 -->
      <g transform="translate(1120.172471 297.907891) scale(0.27 -0.27)">
       <defs>
        <path id="DejaVuSans-2e" d="M 684 794 
L 1344 794 
L 1344 0 
L 684 0 
L 684 794 
z
" transform="scale(0.015625)"/>
       </defs>
       <use xlink:href="#DejaVuSans-30"/>
       <use xlink:href="#DejaVuSans-2e" x="63.623047"/>
       <use xlink:href="#DejaVuSans-30" x="95.410156"/>
       <use xlink:href="#DejaVuSans-30" x="159.033203"/>
      </g>
     </g>
    </g>
    <g id="ytick_12">
     <g id="line2d_36">
      <g>
       <use xlink:href="#m9d40752e55" x="1187.289659" y="225.28" style="stroke: #000000; stroke-width: 0.8"/>
      </g>
     </g>
     <g id="text_31">
      <!-- 0.25 -->
      <g transform="translate(1120.172471 235.537891) scale(0.27 -0.27)">
       <use xlink:href="#DejaVuSans-30"/>
       <use xlink:href="#DejaVuSans-2e" x="63.623047"/>
       <use xlink:href="#DejaVuSans-32" x="95.410156"/>
       <use xlink:href="#DejaVuSans-35" x="159.033203"/>
      </g>
     </g>
    </g>
    <g id="ytick_13">
     <g id="line2d_37">
      <g>
       <use xlink:href="#m9d40752e55" x="1187.289659" y="162.91" style="stroke: #000000; stroke-width: 0.8"/>
      </g>
     </g>
     <g id="text_32">
      <!-- 0.50 -->
      <g transform="translate(1120.172471 173.167891) scale(0.27 -0.27)">
       <use xlink:href="#DejaVuSans-30"/>
       <use xlink:href="#DejaVuSans-2e" x="63.623047"/>
       <use xlink:href="#DejaVuSans-35" x="95.410156"/>
       <use xlink:href="#DejaVuSans-30" x="159.033203"/>
      </g>
     </g>
    </g>
    <g id="ytick_14">
     <g id="line2d_38">
      <g>
       <use xlink:href="#m9d40752e55" x="1187.289659" y="100.54" style="stroke: #000000; stroke-width: 0.8"/>
      </g>
     </g>
     <g id="text_33">
      <!-- 0.75 -->
      <g transform="translate(1120.172471 110.797891) scale(0.27 -0.27)">
       <use xlink:href="#DejaVuSans-30"/>
       <use xlink:href="#DejaVuSans-2e" x="63.623047"/>
       <use xlink:href="#DejaVuSans-37" x="95.410156"/>
       <use xlink:href="#DejaVuSans-35" x="159.033203"/>
      </g>
     </g>
    </g>
    <g id="ytick_15">
     <g id="line2d_39">
      <g>
       <use xlink:href="#m9d40752e55" x="1187.289659" y="38.17" style="stroke: #000000; stroke-width: 0.8"/>
      </g>
     </g>
     <g id="text_34">
      <!-- 1.00 -->
      <g transform="translate(1120.172471 48.427891) scale(0.27 -0.27)">
       <use xlink:href="#DejaVuSans-31"/>
       <use xlink:href="#DejaVuSans-2e" x="63.623047"/>
       <use xlink:href="#DejaVuSans-30" x="95.410156"/>
       <use xlink:href="#DejaVuSans-30" x="159.033203"/>
      </g>
     </g>
    </g>
    <g id="text_35">
     <!-- unitless -->
     <g transform="translate(1109.933409 220.995156) rotate(-90) scale(0.3 -0.3)">
      <defs>
       <path id="DejaVuSans-75" d="M 544 1381 
L 544 3500 
L 1119 3500 
L 1119 1403 
Q 1119 906 1312 657 
Q 1506 409 1894 409 
Q 2359 409 2629 706 
Q 2900 1003 2900 1516 
L 2900 3500 
L 3475 3500 
L 3475 0 
L 2900 0 
L 2900 538 
Q 2691 219 2414 64 
Q 2138 -91 1772 -91 
Q 1169 -91 856 284 
Q 544 659 544 1381 
z
M 1991 3584 
L 1991 3584 
z
" transform="scale(0.015625)"/>
       <path id="DejaVuSans-6e" d="M 3513 2113 
L 3513 0 
L 2938 0 
L 2938 2094 
Q 2938 2591 2744 2837 
Q 2550 3084 2163 3084 
Q 1697 3084 1428 2787 
Q 1159 2491 1159 1978 
L 1159 0 
L 581 0 
L 581 3500 
L 1159 3500 
L 1159 2956 
Q 1366 3272 1645 3428 
Q 1925 3584 2291 3584 
Q 2894 3584 3203 3211 
Q 3513 2838 3513 2113 
z
" transform="scale(0.015625)"/>
       <path id="DejaVuSans-74" d="M 1172 4494 
L 1172 3500 
L 2356 3500 
L 2356 3053 
L 1172 3053 
L 1172 1153 
Q 1172 725 1289 603 
Q 1406 481 1766 481 
L 2356 481 
L 2356 0 
L 1766 0 
Q 1100 0 847 248 
Q 594 497 594 1153 
L 594 3053 
L 172 3053 
L 172 3500 
L 594 3500 
L 594 4494 
L 1172 4494 
z
" transform="scale(0.015625)"/>
       <path id="DejaVuSans-6c" d="M 603 4863 
L 1178 4863 
L 1178 0 
L 603 0 
L 603 4863 
z
" transform="scale(0.015625)"/>
      </defs>
      <use xlink:href="#DejaVuSans-75"/>
      <use xlink:href="#DejaVuSans-6e" x="63.378906"/>
      <use xlink:href="#DejaVuSans-69" x="126.757812"/>
      <use xlink:href="#DejaVuSans-74" x="154.541016"/>
      <use xlink:href="#DejaVuSans-6c" x="193.75"/>
      <use xlink:href="#DejaVuSans-65" x="221.533203"/>
      <use xlink:href="#DejaVuSans-73" x="283.056641"/>
      <use xlink:href="#DejaVuSans-73" x="335.15625"/>
     </g>
    </g>
   </g>
   <g id="line2d_40">
    <path d="M 1187.289659 287.65 
L 1597.248842 287.65 
" clip-path="url(#p16ede20c51)" style="fill: none; stroke: #d3d3d3; stroke-opacity: 0.8; stroke-width: 1.5; stroke-linecap: square"/>
   </g>
   <g id="line2d_41">
    <path d="M 1187.289659 287.65 
L 1199.588434 287.65 
L 1200.408353 146.721349 
L 1201.228271 94.525276 
L 1202.048189 94.44774 
L 1202.868108 127.479548 
L 1203.688026 154.110393 
L 1204.507945 168.118155 
L 1205.327863 175.670485 
L 1206.147781 179.849255 
L 1206.9677 182.211784 
L 1207.787618 183.554875 
L 1208.607536 184.295281 
L 1209.427455 184.658869 
L 1210.247373 184.772285 
L 1211.067291 189.331579 
L 1211.88721 216.920988 
L 1212.707128 232.782321 
L 1213.527047 242.449232 
L 1214.346965 248.730286 
L 1215.166883 253.074014 
L 1215.986802 256.256235 
L 1216.80672 258.70491 
L 1217.626638 260.659522 
L 1218.446557 262.224308 
L 1220.086393 264.472867 
L 1221.72623 266.159793 
L 1223.366067 267.464309 
L 1224.185985 268.032758 
L 1225.005904 254.158495 
L 1227.465659 163.017377 
L 1228.285577 137.629894 
L 1229.105496 118.756858 
L 1229.925414 108.576289 
L 1230.745332 101.161177 
L 1231.565251 97.574688 
L 1233.205087 138.265802 
L 1234.025006 149.822919 
L 1234.844924 156.706837 
L 1235.664842 160.509636 
L 1236.484761 163.130686 
L 1238.124598 165.763127 
L 1238.944516 166.223099 
L 1239.764434 166.90603 
L 1240.584353 166.835305 
L 1241.404271 167.192656 
L 1243.044108 169.708875 
L 1243.864026 165.821941 
L 1244.683945 165.647049 
L 1245.503863 167.371428 
L 1246.323781 167.307862 
L 1247.1437 174.295113 
L 1247.963618 165.237732 
L 1248.783536 169.547504 
L 1249.603455 163.523077 
L 1250.423373 162.000589 
L 1251.243291 180.894582 
L 1252.06321 202.74356 
L 1252.883128 215.624147 
L 1253.703047 223.735127 
L 1254.522965 229.214243 
L 1255.342883 233.169496 
L 1256.162802 236.19081 
L 1256.98272 238.603752 
L 1257.802638 240.598064 
L 1258.622557 222.69284 
L 1259.442475 147.577865 
L 1260.262393 93.034891 
L 1261.082312 93.298053 
L 1261.90223 92.321384 
L 1262.722149 92.274568 
L 1263.542067 92.022334 
L 1264.361985 92.535808 
L 1265.181904 120.201926 
L 1266.001822 161.940576 
L 1266.82174 185.996443 
L 1267.641659 200.729077 
L 1268.461577 210.376516 
L 1269.281496 217.123063 
L 1270.101414 222.122301 
L 1270.921332 226.004711 
L 1271.741251 229.130736 
L 1272.561169 231.717871 
L 1274.201006 235.787026 
L 1275.840842 238.883881 
L 1277.480679 241.365062 
L 1279.120516 243.441461 
L 1281.580271 246.070417 
L 1284.040026 248.332847 
L 1287.3197 251.002103 
L 1291.419291 253.980098 
L 1294.698965 256.154901 
L 1295.518883 124.14325 
L 1296.338802 113.773626 
L 1297.15872 109.325949 
L 1297.978638 107.159101 
L 1298.798557 108.067885 
L 1299.618475 131.931556 
L 1300.438393 144.589153 
L 1301.258312 151.520465 
L 1302.07823 155.463943 
L 1302.898149 157.801459 
L 1303.718067 159.239275 
L 1304.537985 160.147469 
L 1305.357904 160.723896 
L 1306.177822 190.624636 
L 1306.99774 207.97179 
L 1307.817659 218.63336 
L 1308.637577 195.764062 
L 1309.457496 101.331392 
L 1310.277414 100.856055 
L 1316.016842 99.622744 
L 1316.016842 99.622744 
" clip-path="url(#p16ede20c51)" style="fill: none; stroke: #000000; stroke-width: 5; stroke-linecap: square"/>
   </g>
   <g id="line2d_42">
    <path d="M 1187.289659 287.65 
L 1597.248842 287.65 
" clip-path="url(#p16ede20c51)" style="fill: none; stroke: #000000; stroke-width: 5; stroke-linecap: square"/>
   </g>
   <g id="line2d_43">
    <path d="M 1187.289659 95.3391 
L 1188.929496 94.62785 
L 1191.389251 93.927398 
L 1194.668924 93.33552 
L 1199.588434 92.73903 
L 1207.787618 91.997827 
L 1220.086393 91.126443 
L 1234.025006 90.371561 
L 1250.423373 89.718236 
L 1265.181904 89.290159 
L 1266.001822 144.735425 
L 1266.82174 182.571886 
L 1267.641659 133.643735 
L 1268.461577 149.99007 
L 1269.281496 120.06055 
L 1270.101414 108.32596 
L 1270.921332 103.400897 
L 1271.741251 101.085923 
L 1272.561169 99.818581 
L 1273.381087 99.007076 
L 1275.020924 97.957891 
L 1276.660761 97.255662 
L 1279.120516 96.509966 
L 1282.400189 95.798934 
L 1287.3197 94.989206 
L 1291.419291 94.42037 
L 1292.23921 170.470343 
L 1293.879047 140.524858 
L 1294.698965 148.911703 
L 1295.518883 122.491658 
L 1296.338802 112.017268 
L 1297.15872 107.524699 
L 1297.978638 105.335914 
L 1298.798557 104.080177 
L 1299.618475 103.23656 
L 1301.258312 102.081559 
L 1302.898149 101.258856 
L 1305.357904 100.328862 
L 1308.637577 99.377639 
L 1313.557087 98.230154 
L 1316.016842 97.723355 
L 1316.016842 97.723355 
" clip-path="url(#p16ede20c51)" style="fill: none; stroke-dasharray: 22.2,9.6; stroke-dashoffset: 0; stroke: #ff0000; stroke-width: 6"/>
   </g>
   <g id="line2d_44">
    <path d="M 1187.289659 75.592 
L 1597.248842 75.592 
" clip-path="url(#p16ede20c51)" style="fill: none; stroke-dasharray: 5,8.25; stroke-dashoffset: 0; stroke: #ff0000; stroke-opacity: 0.5; stroke-width: 5"/>
   </g>
   <g id="patch_10">
    <path d="M 1187.289659 287.65 
L 1187.289659 38.17 
" style="fill: none; stroke: #000000; stroke-width: 0.8; stroke-linejoin: miter; stroke-linecap: square"/>
   </g>
   <g id="patch_11">
    <path d="M 1187.289659 287.65 
L 1597.248842 287.65 
" style="fill: none; stroke: #000000; stroke-width: 0.8; stroke-linejoin: miter; stroke-linecap: square"/>
   </g>
   <g id="text_36">
    <!-- SAFE-PNS -->
    <g transform="translate(1314.006751 31.515) scale(0.32 -0.32)">
     <defs>
      <path id="DejaVuSans-53" d="M 3425 4513 
L 3425 3897 
Q 3066 4069 2747 4153 
Q 2428 4238 2131 4238 
Q 1616 4238 1336 4038 
Q 1056 3838 1056 3469 
Q 1056 3159 1242 3001 
Q 1428 2844 1947 2747 
L 2328 2669 
Q 3034 2534 3370 2195 
Q 3706 1856 3706 1288 
Q 3706 609 3251 259 
Q 2797 -91 1919 -91 
Q 1588 -91 1214 -16 
Q 841 59 441 206 
L 441 856 
Q 825 641 1194 531 
Q 1563 422 1919 422 
Q 2459 422 2753 634 
Q 3047 847 3047 1241 
Q 3047 1584 2836 1778 
Q 2625 1972 2144 2069 
L 1759 2144 
Q 1053 2284 737 2584 
Q 422 2884 422 3419 
Q 422 4038 858 4394 
Q 1294 4750 2059 4750 
Q 2388 4750 2728 4690 
Q 3069 4631 3425 4513 
z
" transform="scale(0.015625)"/>
      <path id="DejaVuSans-41" d="M 2188 4044 
L 1331 1722 
L 3047 1722 
L 2188 4044 
z
M 1831 4666 
L 2547 4666 
L 4325 0 
L 3669 0 
L 3244 1197 
L 1141 1197 
L 716 0 
L 50 0 
L 1831 4666 
z
" transform="scale(0.015625)"/>
      <path id="DejaVuSans-46" d="M 628 4666 
L 3309 4666 
L 3309 4134 
L 1259 4134 
L 1259 2759 
L 3109 2759 
L 3109 2228 
L 1259 2228 
L 1259 0 
L 628 0 
L 628 4666 
z
" transform="scale(0.015625)"/>
      <path id="DejaVuSans-45" d="M 628 4666 
L 3578 4666 
L 3578 4134 
L 1259 4134 
L 1259 2753 
L 3481 2753 
L 3481 2222 
L 1259 2222 
L 1259 531 
L 3634 531 
L 3634 0 
L 628 0 
L 628 4666 
z
" transform="scale(0.015625)"/>
      <path id="DejaVuSans-2d" d="M 313 2009 
L 1997 2009 
L 1997 1497 
L 313 1497 
L 313 2009 
z
" transform="scale(0.015625)"/>
      <path id="DejaVuSans-50" d="M 1259 4147 
L 1259 2394 
L 2053 2394 
Q 2494 2394 2734 2622 
Q 2975 2850 2975 3272 
Q 2975 3691 2734 3919 
Q 2494 4147 2053 4147 
L 1259 4147 
z
M 628 4666 
L 2053 4666 
Q 2838 4666 3239 4311 
Q 3641 3956 3641 3272 
Q 3641 2581 3239 2228 
Q 2838 1875 2053 1875 
L 1259 1875 
L 1259 0 
L 628 0 
L 628 4666 
z
" transform="scale(0.015625)"/>
      <path id="DejaVuSans-4e" d="M 628 4666 
L 1478 4666 
L 3547 763 
L 3547 4666 
L 4159 4666 
L 4159 0 
L 3309 0 
L 1241 3903 
L 1241 0 
L 628 0 
L 628 4666 
z
" transform="scale(0.015625)"/>
     </defs>
     <use xlink:href="#DejaVuSans-53"/>
     <use xlink:href="#DejaVuSans-41" x="65.351562"/>
     <use xlink:href="#DejaVuSans-46" x="133.759766"/>
     <use xlink:href="#DejaVuSans-45" x="191.279297"/>
     <use xlink:href="#DejaVuSans-2d" x="254.462891"/>
     <use xlink:href="#DejaVuSans-50" x="290.546875"/>
     <use xlink:href="#DejaVuSans-4e" x="350.849609"/>
     <use xlink:href="#DejaVuSans-53" x="425.654297"/>
    </g>
   </g>
   <g id="legend_2">
    <g id="patch_12">
     <path d="M 1448.611342 276.65 
L 1581.848842 276.65 
Q 1586.248842 276.65 1586.248842 272.25 
L 1586.248842 242.158125 
Q 1586.248842 237.758125 1581.848842 237.758125 
L 1448.611342 237.758125 
Q 1444.211342 237.758125 1444.211342 242.158125 
L 1444.211342 272.25 
Q 1444.211342 276.65 1448.611342 276.65 
z
" style="fill: #ffffff; opacity: 0.2; stroke: #cccccc; stroke-linejoin: miter"/>
    </g>
    <g id="line2d_45">
     <path d="M 1453.011342 255.574688 
L 1475.011342 255.574688 
L 1497.011342 255.574688 
" style="fill: none; stroke: #000000; stroke-width: 5; stroke-linecap: square"/>
    </g>
    <g id="text_37">
     <!-- Y-axis -->
     <g transform="translate(1514.611342 263.274688) scale(0.22 -0.22)">
      <defs>
       <path id="DejaVuSans-59" d="M -13 4666 
L 666 4666 
L 1959 2747 
L 3244 4666 
L 3922 4666 
L 2272 2222 
L 2272 0 
L 1638 0 
L 1638 2222 
L -13 4666 
z
" transform="scale(0.015625)"/>
       <path id="DejaVuSans-61" d="M 2194 1759 
Q 1497 1759 1228 1600 
Q 959 1441 959 1056 
Q 959 750 1161 570 
Q 1363 391 1709 391 
Q 2188 391 2477 730 
Q 2766 1069 2766 1631 
L 2766 1759 
L 2194 1759 
z
M 3341 1997 
L 3341 0 
L 2766 0 
L 2766 531 
Q 2569 213 2275 61 
Q 1981 -91 1556 -91 
Q 1019 -91 701 211 
Q 384 513 384 1019 
Q 384 1609 779 1909 
Q 1175 2209 1959 2209 
L 2766 2209 
L 2766 2266 
Q 2766 2663 2505 2880 
Q 2244 3097 1772 3097 
Q 1472 3097 1187 3025 
Q 903 2953 641 2809 
L 641 3341 
Q 956 3463 1253 3523 
Q 1550 3584 1831 3584 
Q 2591 3584 2966 3190 
Q 3341 2797 3341 1997 
z
" transform="scale(0.015625)"/>
       <path id="DejaVuSans-78" d="M 3513 3500 
L 2247 1797 
L 3578 0 
L 2900 0 
L 1881 1375 
L 863 0 
L 184 0 
L 1544 1831 
L 300 3500 
L 978 3500 
L 1906 2253 
L 2834 3500 
L 3513 3500 
z
" transform="scale(0.015625)"/>
      </defs>
      <use xlink:href="#DejaVuSans-59"/>
      <use xlink:href="#DejaVuSans-2d" x="49.208984"/>
      <use xlink:href="#DejaVuSans-61" x="85.292969"/>
      <use xlink:href="#DejaVuSans-78" x="146.572266"/>
      <use xlink:href="#DejaVuSans-69" x="205.751953"/>
      <use xlink:href="#DejaVuSans-73" x="233.535156"/>
     </g>
    </g>
   </g>
  </g>
  <g id="axes_4">
   <g id="patch_13">
    <path d="M 1720.236598 287.65 
L 2130.195781 287.65 
L 2130.195781 38.17 
L 1720.236598 38.17 
z
" style="fill: #ffffff"/>
   </g>
   <g id="matplotlib.axis_7">
    <g id="xtick_13">
     <g id="line2d_46">
      <g>
       <use xlink:href="#m246cd629e1" x="1720.236598" y="287.65" style="stroke: #000000; stroke-width: 0.8"/>
      </g>
     </g>
     <g id="text_38">
      <!-- 0 -->
      <g transform="translate(1711.647223 315.165781) scale(0.27 -0.27)">
       <use xlink:href="#DejaVuSans-30"/>
      </g>
     </g>
    </g>
    <g id="xtick_14">
     <g id="line2d_47">
      <g>
       <use xlink:href="#m246cd629e1" x="1822.726393" y="287.65" style="stroke: #000000; stroke-width: 0.8"/>
      </g>
     </g>
     <g id="text_39">
      <!-- 25 -->
      <g transform="translate(1805.547643 315.165781) scale(0.27 -0.27)">
       <use xlink:href="#DejaVuSans-32"/>
       <use xlink:href="#DejaVuSans-35" x="63.623047"/>
      </g>
     </g>
    </g>
    <g id="xtick_15">
     <g id="line2d_48">
      <g>
       <use xlink:href="#m246cd629e1" x="1925.216189" y="287.65" style="stroke: #000000; stroke-width: 0.8"/>
      </g>
     </g>
     <g id="text_40">
      <!-- 50 -->
      <g transform="translate(1908.037439 315.165781) scale(0.27 -0.27)">
       <use xlink:href="#DejaVuSans-35"/>
       <use xlink:href="#DejaVuSans-30" x="63.623047"/>
      </g>
     </g>
    </g>
    <g id="xtick_16">
     <g id="line2d_49">
      <g>
       <use xlink:href="#m246cd629e1" x="2027.705985" y="287.65" style="stroke: #000000; stroke-width: 0.8"/>
      </g>
     </g>
     <g id="text_41">
      <!-- 75 -->
      <g transform="translate(2010.527235 315.165781) scale(0.27 -0.27)">
       <use xlink:href="#DejaVuSans-37"/>
       <use xlink:href="#DejaVuSans-35" x="63.623047"/>
      </g>
     </g>
    </g>
    <g id="text_42">
     <!-- Time [ms] -->
     <g transform="translate(1849.618533 347.57625) scale(0.3 -0.3)">
      <use xlink:href="#DejaVuSans-54"/>
      <use xlink:href="#DejaVuSans-69" x="57.958984"/>
      <use xlink:href="#DejaVuSans-6d" x="85.742188"/>
      <use xlink:href="#DejaVuSans-65" x="183.154297"/>
      <use xlink:href="#DejaVuSans-20" x="244.677734"/>
      <use xlink:href="#DejaVuSans-5b" x="276.464844"/>
      <use xlink:href="#DejaVuSans-6d" x="315.478516"/>
      <use xlink:href="#DejaVuSans-73" x="412.890625"/>
      <use xlink:href="#DejaVuSans-5d" x="464.990234"/>
     </g>
    </g>
   </g>
   <g id="matplotlib.axis_8">
    <g id="ytick_16">
     <g id="line2d_50">
      <g>
       <use xlink:href="#m9d40752e55" x="1720.236598" y="287.65" style="stroke: #000000; stroke-width: 0.8"/>
      </g>
     </g>
     <g id="text_43">
      <!-- 0.00 -->
      <g transform="translate(1653.11941 297.907891) scale(0.27 -0.27)">
       <use xlink:href="#DejaVuSans-30"/>
       <use xlink:href="#DejaVuSans-2e" x="63.623047"/>
       <use xlink:href="#DejaVuSans-30" x="95.410156"/>
       <use xlink:href="#DejaVuSans-30" x="159.033203"/>
      </g>
     </g>
    </g>
    <g id="ytick_17">
     <g id="line2d_51">
      <g>
       <use xlink:href="#m9d40752e55" x="1720.236598" y="225.28" style="stroke: #000000; stroke-width: 0.8"/>
      </g>
     </g>
     <g id="text_44">
      <!-- 0.25 -->
      <g transform="translate(1653.11941 235.537891) scale(0.27 -0.27)">
       <use xlink:href="#DejaVuSans-30"/>
       <use xlink:href="#DejaVuSans-2e" x="63.623047"/>
       <use xlink:href="#DejaVuSans-32" x="95.410156"/>
       <use xlink:href="#DejaVuSans-35" x="159.033203"/>
      </g>
     </g>
    </g>
    <g id="ytick_18">
     <g id="line2d_52">
      <g>
       <use xlink:href="#m9d40752e55" x="1720.236598" y="162.91" style="stroke: #000000; stroke-width: 0.8"/>
      </g>
     </g>
     <g id="text_45">
      <!-- 0.50 -->
      <g transform="translate(1653.11941 173.167891) scale(0.27 -0.27)">
       <use xlink:href="#DejaVuSans-30"/>
       <use xlink:href="#DejaVuSans-2e" x="63.623047"/>
       <use xlink:href="#DejaVuSans-35" x="95.410156"/>
       <use xlink:href="#DejaVuSans-30" x="159.033203"/>
      </g>
     </g>
    </g>
    <g id="ytick_19">
     <g id="line2d_53">
      <g>
       <use xlink:href="#m9d40752e55" x="1720.236598" y="100.54" style="stroke: #000000; stroke-width: 0.8"/>
      </g>
     </g>
     <g id="text_46">
      <!-- 0.75 -->
      <g transform="translate(1653.11941 110.797891) scale(0.27 -0.27)">
       <use xlink:href="#DejaVuSans-30"/>
       <use xlink:href="#DejaVuSans-2e" x="63.623047"/>
       <use xlink:href="#DejaVuSans-37" x="95.410156"/>
       <use xlink:href="#DejaVuSans-35" x="159.033203"/>
      </g>
     </g>
    </g>
    <g id="ytick_20">
     <g id="line2d_54">
      <g>
       <use xlink:href="#m9d40752e55" x="1720.236598" y="38.17" style="stroke: #000000; stroke-width: 0.8"/>
      </g>
     </g>
     <g id="text_47">
      <!-- 1.00 -->
      <g transform="translate(1653.11941 48.427891) scale(0.27 -0.27)">
       <use xlink:href="#DejaVuSans-31"/>
       <use xlink:href="#DejaVuSans-2e" x="63.623047"/>
       <use xlink:href="#DejaVuSans-30" x="95.410156"/>
       <use xlink:href="#DejaVuSans-30" x="159.033203"/>
      </g>
     </g>
    </g>
    <g id="text_48">
     <!-- unitless -->
     <g transform="translate(1642.880348 220.995156) rotate(-90) scale(0.3 -0.3)">
      <use xlink:href="#DejaVuSans-75"/>
      <use xlink:href="#DejaVuSans-6e" x="63.378906"/>
      <use xlink:href="#DejaVuSans-69" x="126.757812"/>
      <use xlink:href="#DejaVuSans-74" x="154.541016"/>
      <use xlink:href="#DejaVuSans-6c" x="193.75"/>
      <use xlink:href="#DejaVuSans-65" x="221.533203"/>
      <use xlink:href="#DejaVuSans-73" x="283.056641"/>
      <use xlink:href="#DejaVuSans-73" x="335.15625"/>
     </g>
    </g>
   </g>
   <g id="line2d_55">
    <path d="M 1720.236598 287.65 
L 2130.195781 287.65 
" clip-path="url(#p572ef11268)" style="fill: none; stroke: #d3d3d3; stroke-opacity: 0.8; stroke-width: 1.5; stroke-linecap: square"/>
   </g>
   <g id="line2d_56">
    <path d="M 1720.236598 287.65 
L 1732.535373 287.65 
L 1733.355291 212.224031 
L 1734.17521 158.667913 
L 1734.995128 127.305579 
L 1735.815047 118.148959 
L 1737.454883 112.711039 
L 1739.09472 108.333769 
L 1740.734557 104.809087 
L 1742.374393 101.969977 
L 1743.194312 100.764624 
L 1744.01423 102.155579 
L 1745.654067 130.425549 
L 1747.293904 154.285046 
L 1748.93374 174.441168 
L 1750.573577 191.496534 
L 1752.213414 205.93897 
L 1753.853251 218.17405 
L 1755.493087 228.546491 
L 1757.132924 237.336021 
L 1757.952842 244.149031 
L 1758.772761 254.708902 
L 1759.592679 258.341009 
L 1763.692271 118.137203 
L 1764.512189 97.448827 
L 1765.332108 91.853808 
L 1766.152026 91.073786 
L 1766.971945 90.905954 
L 1767.791863 90.914611 
L 1768.611781 90.77166 
L 1769.4317 90.778602 
L 1770.251618 90.654232 
L 1771.071536 90.690305 
L 1771.891455 90.55878 
L 1772.711373 90.64589 
L 1773.531291 90.483576 
L 1774.35121 90.567472 
L 1775.171128 91.285201 
L 1775.991047 92.208178 
L 1776.810965 90.646617 
L 1777.630883 90.355369 
L 1778.450802 91.154126 
L 1779.27072 91.406977 
L 1780.090638 95.461351 
L 1780.910557 92.238181 
L 1781.730475 94.371374 
L 1782.550393 91.880641 
L 1783.370312 90.690507 
L 1784.19023 100.303149 
L 1785.830067 128.6961 
L 1787.469904 152.686396 
L 1789.10974 172.974415 
L 1790.749577 190.145365 
L 1791.569496 202.789496 
L 1792.389414 225.61704 
L 1793.209332 226.357169 
L 1794.849169 173.580903 
L 1796.489006 133.057111 
L 1797.308924 116.568694 
L 1798.128842 116.58314 
L 1799.768679 143.748095 
L 1801.408516 166.487011 
L 1803.048353 185.539543 
L 1804.688189 201.518766 
L 1806.328026 214.933302 
L 1807.967863 226.205509 
L 1809.6077 235.686441 
L 1811.247536 243.668164 
L 1812.887373 250.393904 
L 1814.52721 256.066405 
L 1816.167047 260.854836 
L 1817.806883 264.900487 
L 1819.44672 268.321478 
L 1821.086557 271.216655 
L 1822.726393 273.668817 
L 1824.36623 275.747389 
L 1826.006067 277.510634 
L 1827.645904 279.007499 
L 1828.465822 208.737726 
L 1829.28574 179.431024 
L 1830.105659 154.835966 
L 1830.925577 133.726974 
L 1831.745496 116.526504 
L 1833.385332 111.815792 
L 1835.025169 107.963504 
L 1836.665006 104.809974 
L 1838.304842 102.225996 
L 1839.944679 130.464461 
L 1840.764598 142.901714 
L 1841.584516 165.828616 
L 1842.404434 197.969308 
L 1843.224353 217.652407 
L 1844.044271 200.55347 
L 1845.684108 159.748082 
L 1847.323945 127.915918 
L 1848.963781 102.551837 
L 1848.963781 102.551837 
" clip-path="url(#p572ef11268)" style="fill: none; stroke: #000000; stroke-width: 5; stroke-linecap: square"/>
   </g>
   <g id="line2d_57">
    <path d="M 1720.236598 287.65 
L 2130.195781 287.65 
" clip-path="url(#p572ef11268)" style="fill: none; stroke: #000000; stroke-width: 5; stroke-linecap: square"/>
   </g>
   <g id="line2d_58">
    <path d="M 1720.236598 100.896296 
L 1721.876434 98.794431 
L 1723.516271 97.046525 
L 1725.156108 95.591308 
L 1726.795945 94.378393 
L 1728.435781 93.366302 
L 1730.895536 92.151594 
L 1733.355291 91.221935 
L 1735.815047 90.508742 
L 1739.09472 89.807137 
L 1743.194312 89.211387 
L 1748.113822 88.763025 
L 1754.673169 88.428585 
L 1763.692271 88.215582 
L 1780.090638 88.09675 
L 1798.128842 88.071533 
L 1798.948761 111.7148 
L 1799.768679 140.909814 
L 1800.588598 130.130411 
L 1801.408516 126.946736 
L 1803.048353 119.478312 
L 1804.688189 113.457392 
L 1806.328026 108.601522 
L 1807.967863 104.68364 
L 1809.6077 101.521176 
L 1811.247536 98.967298 
L 1812.887373 96.903887 
L 1814.52721 95.235896 
L 1816.167047 93.886824 
L 1817.806883 92.795076 
L 1819.44672 91.911046 
L 1821.906475 90.889211 
L 1824.36623 90.142868 
L 1825.186149 120.892263 
L 1826.006067 143.142561 
L 1826.825985 127.684729 
L 1827.645904 127.348066 
L 1829.28574 119.819393 
L 1830.925577 113.747421 
L 1832.565414 108.848262 
L 1834.205251 104.893652 
L 1835.845087 101.700008 
L 1837.484924 99.119643 
L 1839.124761 97.033721 
L 1840.764598 95.346587 
L 1842.404434 93.981228 
L 1844.044271 92.875618 
L 1845.684108 91.979783 
L 1848.143863 90.943434 
L 1848.963781 90.66414 
L 1848.963781 90.66414 
" clip-path="url(#p572ef11268)" style="fill: none; stroke-dasharray: 22.2,9.6; stroke-dashoffset: 0; stroke: #800080; stroke-width: 6"/>
   </g>
   <g id="line2d_59">
    <path clip-path="url(#p572ef11268)" style="fill: none; stroke-dasharray: 11.1,4.8; stroke-dashoffset: 0; stroke: #800080; stroke-width: 3"/>
   </g>
   <g id="line2d_60">
    <path d="M 1720.236598 75.592 
L 2130.195781 75.592 
" clip-path="url(#p572ef11268)" style="fill: none; stroke-dasharray: 5,8.25; stroke-dashoffset: 0; stroke: #800080; stroke-opacity: 0.5; stroke-width: 5"/>
   </g>
   <g id="patch_14">
    <path d="M 1720.236598 287.65 
L 1720.236598 38.17 
" style="fill: none; stroke: #000000; stroke-width: 0.8; stroke-linejoin: miter; stroke-linecap: square"/>
   </g>
   <g id="patch_15">
    <path d="M 1720.236598 287.65 
L 2130.195781 287.65 
" style="fill: none; stroke: #000000; stroke-width: 0.8; stroke-linejoin: miter; stroke-linecap: square"/>
   </g>
   <g id="text_49">
    <!-- SAFE-CNS -->
    <g transform="translate(1845.428689 31.515) scale(0.32 -0.32)">
     <defs>
      <path id="DejaVuSans-43" d="M 4122 4306 
L 4122 3641 
Q 3803 3938 3442 4084 
Q 3081 4231 2675 4231 
Q 1875 4231 1450 3742 
Q 1025 3253 1025 2328 
Q 1025 1406 1450 917 
Q 1875 428 2675 428 
Q 3081 428 3442 575 
Q 3803 722 4122 1019 
L 4122 359 
Q 3791 134 3420 21 
Q 3050 -91 2638 -91 
Q 1578 -91 968 557 
Q 359 1206 359 2328 
Q 359 3453 968 4101 
Q 1578 4750 2638 4750 
Q 3056 4750 3426 4639 
Q 3797 4528 4122 4306 
z
" transform="scale(0.015625)"/>
     </defs>
     <use xlink:href="#DejaVuSans-53"/>
     <use xlink:href="#DejaVuSans-41" x="65.351562"/>
     <use xlink:href="#DejaVuSans-46" x="133.759766"/>
     <use xlink:href="#DejaVuSans-45" x="191.279297"/>
     <use xlink:href="#DejaVuSans-2d" x="254.462891"/>
     <use xlink:href="#DejaVuSans-43" x="290.546875"/>
     <use xlink:href="#DejaVuSans-4e" x="360.371094"/>
     <use xlink:href="#DejaVuSans-53" x="435.175781"/>
    </g>
   </g>
   <g id="legend_3">
    <g id="patch_16">
     <path d="M 1981.558281 276.65 
L 2114.795781 276.65 
Q 2119.195781 276.65 2119.195781 272.25 
L 2119.195781 242.158125 
Q 2119.195781 237.758125 2114.795781 237.758125 
L 1981.558281 237.758125 
Q 1977.158281 237.758125 1977.158281 242.158125 
L 1977.158281 272.25 
Q 1977.158281 276.65 1981.558281 276.65 
z
" style="fill: #ffffff; opacity: 0.2; stroke: #cccccc; stroke-linejoin: miter"/>
    </g>
    <g id="line2d_61">
     <path d="M 1985.958281 255.574688 
L 2007.958281 255.574688 
L 2029.958281 255.574688 
" style="fill: none; stroke: #000000; stroke-width: 5; stroke-linecap: square"/>
    </g>
    <g id="text_50">
     <!-- Y-axis -->
     <g transform="translate(2047.558281 263.274688) scale(0.22 -0.22)">
      <use xlink:href="#DejaVuSans-59"/>
      <use xlink:href="#DejaVuSans-2d" x="49.208984"/>
      <use xlink:href="#DejaVuSans-61" x="85.292969"/>
      <use xlink:href="#DejaVuSans-78" x="146.572266"/>
      <use xlink:href="#DejaVuSans-69" x="205.751953"/>
      <use xlink:href="#DejaVuSans-73" x="233.535156"/>
     </g>
    </g>
   </g>
  </g>
 </g>
 <defs>
  <clipPath id="p74bcc1338e">
   <rect x="121.395781" y="38.17" width="409.959184" height="249.48"/>
  </clipPath>
  <clipPath id="p33be4a3d28">
   <rect x="654.34272" y="38.17" width="409.959184" height="249.48"/>
  </clipPath>
  <clipPath id="p16ede20c51">
   <rect x="1187.289659" y="38.17" width="409.959184" height="249.48"/>
  </clipPath>
  <clipPath id="p572ef11268">
   <rect x="1720.236598" y="38.17" width="409.959184" height="249.48"/>
  </clipPath>
 </defs>
</svg>
