<?xml version="1.0" encoding="utf-8" standalone="no"?>
<!DOCTYPE svg PUBLIC "-//W3C//DTD SVG 1.1//EN"
  "http://www.w3.org/Graphics/SVG/1.1/DTD/svg11.dtd">
<svg xmlns:xlink="http://www.w3.org/1999/xlink" width="2639.595781pt" height="361.015312pt" viewBox="0 0 2639.595781 361.015312" xmlns="http://www.w3.org/2000/svg" version="1.1">
 <metadata>
  <rdf:RDF xmlns:dc="http://purl.org/dc/elements/1.1/" xmlns:cc="http://creativecommons.org/ns#" xmlns:rdf="http://www.w3.org/1999/02/22-rdf-syntax-ns#">
   <cc:Work>
    <dc:type rdf:resource="http://purl.org/dc/dcmitype/StillImage"/>
    <dc:date>2026-02-06T08:58:24.985257</dc:date>
    <dc:format>image/svg+xml</dc:format>
    <dc:creator>
     <cc:Agent>
      <dc:title>Matplotlib v3.9.0, https://matplotlib.org/</dc:title>
     </cc:Agent>
    </dc:creator>
   </cc:Work>
  </rdf:RDF>
 </metadata>
 <defs>
  <style type="text/css">*{stroke-linejoin: round; stroke-linecap: butt}</style>
 </defs>
 <g id="figure_1">
  <g id="patch_1">
   <path d="M 0 361.015312 
L 2639.595781 361.015312 
L 2639.595781 0 
L 0 0 
z
" style="fill: #ffffff"/>
  </g>
  <g id="axes_1">
   <g id="patch_2">
    <path d="M 121.395781 287.65 
L 526.395781 287.65 
L 526.395781 38.17 
L 121.395781 38.17 
z
" style="fill: #ffffff"/>
   </g>
   <g id="PolyCollection_1">
    <defs>
     <path id="mfacbd5dc46" d="M 121.395781 -198.105312 
L 121.395781 -198.105312 
L 122.408281 -198.105312 
L 123.420781 -198.105312 
L 124.433281 -198.105312 
L 125.445781 -198.105312 
L 126.458281 -198.105312 
L 127.470781 -198.105312 
L 128.483281 -198.105312 
L 129.495781 -198.105312 
L 130.508281 -198.105312 
L 131.520781 -198.105312 
L 132.533281 -198.105312 
L 133.545781 -198.105312 
L 134.558281 -198.105312 
L 135.570781 -198.105312 
L 136.583281 -198.105312 
L 137.595781 -198.105312 
L 138.608281 -198.105312 
L 139.620781 -198.105312 
L 140.633281 -198.105312 
L 141.645781 -198.105312 
L 142.658281 -198.105312 
L 143.670781 -198.105312 
L 144.683281 -198.105312 
L 145.695781 -198.105312 
L 146.708281 -198.105312 
L 147.720781 -198.105312 
L 148.733281 -198.105312 
L 149.745781 -198.105312 
L 150.758281 -198.105312 
L 151.770781 -198.105312 
L 152.783281 -198.105312 
L 153.795781 -198.105312 
L 154.808281 -198.105312 
L 155.820781 -198.105312 
L 156.833281 -198.105312 
L 157.845781 -198.105312 
L 158.858281 -198.105312 
L 159.870781 -198.105312 
L 160.883281 -198.105312 
L 161.895781 -198.105312 
L 162.908281 -198.105312 
L 163.920781 -198.105312 
L 164.933281 -198.105312 
L 165.945781 -198.105312 
L 166.958281 -198.105312 
L 167.970781 -198.105312 
L 168.983281 -198.105312 
L 169.995781 -198.105312 
L 171.008281 -198.105312 
L 172.020781 -198.105312 
L 173.033281 -198.105312 
L 174.045781 -198.105312 
L 175.058281 -198.105312 
L 176.070781 -198.105312 
L 177.083281 -198.105312 
L 178.095781 -198.105312 
L 179.108281 -198.105312 
L 180.120781 -198.105312 
L 181.133281 -198.105312 
L 182.145781 -198.105312 
L 183.158281 -198.105312 
L 184.170781 -198.105312 
L 185.183281 -198.105312 
L 186.195781 -198.105312 
L 187.208281 -198.105312 
L 188.220781 -198.105312 
L 189.233281 -198.105312 
L 190.245781 -198.105312 
L 191.258281 -198.105312 
L 192.270781 -198.105312 
L 193.283281 -198.105312 
L 194.295781 -198.105312 
L 195.308281 -198.105312 
L 196.320781 -198.105312 
L 197.333281 -198.105312 
L 198.345781 -198.105312 
L 199.358281 -198.105312 
L 200.370781 -198.105312 
L 201.383281 -198.105312 
L 202.395781 -198.105312 
L 203.408281 -198.105312 
L 204.420781 -198.105312 
L 205.433281 -198.105312 
L 206.445781 -198.105312 
L 207.458281 -198.105312 
L 208.470781 -198.105312 
L 209.483281 -198.105312 
L 210.495781 -198.105312 
L 211.508281 -198.105312 
L 212.520781 -198.105312 
L 213.533281 -198.105312 
L 214.545781 -198.105312 
L 215.558281 -198.105312 
L 216.570781 -198.105312 
L 217.583281 -198.105312 
L 218.595781 -198.105312 
L 219.608281 -198.105312 
L 220.620781 -198.105312 
L 221.633281 -198.105312 
L 222.645781 -198.105312 
L 223.658281 -198.105312 
L 224.670781 -198.105312 
L 225.683281 -198.105312 
L 226.695781 -198.105312 
L 227.708281 -198.105312 
L 228.720781 -198.105312 
L 229.733281 -198.105312 
L 230.745781 -198.105312 
L 231.758281 -198.105312 
L 232.770781 -198.105312 
L 233.783281 -198.105312 
L 234.795781 -198.105312 
L 235.808281 -198.105312 
L 236.820781 -198.105312 
L 237.833281 -198.105312 
L 238.845781 -198.105312 
L 239.858281 -198.105312 
L 240.870781 -198.105312 
L 241.883281 -198.105312 
L 242.895781 -198.105312 
L 243.908281 -198.105312 
L 244.920781 -198.105312 
L 245.933281 -198.105312 
L 246.945781 -198.105312 
L 247.958281 -198.105312 
L 248.970781 -198.105312 
L 249.983281 -198.105312 
L 250.995781 -198.105312 
L 252.008281 -198.105312 
L 253.020781 -198.105312 
L 254.033281 -198.105312 
L 255.045781 -198.105312 
L 256.058281 -198.105312 
L 257.070781 -198.105312 
L 258.083281 -198.105312 
L 259.095781 -198.105312 
L 260.108281 -198.105312 
L 261.120781 -198.105312 
L 262.133281 -198.105312 
L 263.145781 -198.105312 
L 264.158281 -198.105312 
L 265.170781 -198.105312 
L 266.183281 -198.105312 
L 267.195781 -198.105312 
L 268.208281 -198.105312 
L 269.220781 -198.105312 
L 270.233281 -198.105312 
L 271.245781 -198.105312 
L 272.258281 -198.105312 
L 273.270781 -198.105312 
L 274.283281 -198.105312 
L 275.295781 -198.105312 
L 276.308281 -198.105312 
L 277.320781 -198.105312 
L 278.333281 -198.105312 
L 279.345781 -198.105312 
L 280.358281 -198.105312 
L 281.370781 -198.105312 
L 282.383281 -198.105312 
L 283.395781 -198.105312 
L 284.408281 -198.105312 
L 285.420781 -198.105312 
L 286.433281 -198.105312 
L 287.445781 -198.105312 
L 288.458281 -198.105312 
L 289.470781 -198.105312 
L 290.483281 -198.105312 
L 291.495781 -198.105312 
L 292.508281 -198.105312 
L 293.520781 -198.105312 
L 294.533281 -198.105312 
L 295.545781 -198.105312 
L 296.558281 -198.105312 
L 297.570781 -198.105312 
L 298.583281 -198.105312 
L 299.595781 -198.105312 
L 300.608281 -198.105312 
L 301.620781 -198.105312 
L 302.633281 -198.105312 
L 303.645781 -198.105312 
L 304.658281 -198.105312 
L 305.670781 -198.105312 
L 306.683281 -198.105312 
L 307.695781 -198.105312 
L 308.708281 -198.105312 
L 309.720781 -198.105312 
L 310.733281 -198.105312 
L 311.745781 -198.105312 
L 312.758281 -198.105312 
L 313.770781 -198.105312 
L 314.783281 -198.105312 
L 315.795781 -198.105312 
L 316.808281 -198.105312 
L 317.820781 -198.105312 
L 318.833281 -198.105312 
L 319.845781 -198.105312 
L 320.858281 -198.105312 
L 321.870781 -198.105312 
L 322.883281 -198.105312 
L 323.895781 -198.105312 
L 324.908281 -198.105312 
L 325.920781 -198.105312 
L 326.933281 -198.105312 
L 327.945781 -198.105312 
L 328.958281 -198.105312 
L 329.970781 -198.105312 
L 330.983281 -198.105312 
L 331.995781 -198.105312 
L 333.008281 -198.105312 
L 334.020781 -198.105312 
L 335.033281 -198.105312 
L 336.045781 -198.105312 
L 337.058281 -198.105312 
L 338.070781 -198.105312 
L 339.083281 -198.105312 
L 339.083281 -198.105312 
L 339.083281 -198.105312 
L 338.070781 -189.230987 
L 337.058281 -180.186452 
L 336.045781 -170.919258 
L 335.033281 -161.368654 
L 334.020781 -150.756102 
L 333.008281 -138.322009 
L 331.995781 -128.562384 
L 330.983281 -116.519828 
L 329.970781 -107.549164 
L 328.958281 -107.548474 
L 327.945781 -107.550945 
L 326.933281 -107.551337 
L 325.920781 -109.904168 
L 324.908281 -115.36934 
L 323.895781 -120.84278 
L 322.883281 -126.324438 
L 321.870781 -131.815414 
L 320.858281 -137.316585 
L 319.845781 -142.829291 
L 318.833281 -148.677651 
L 317.820781 -154.494987 
L 316.808281 -160.456811 
L 315.795781 -166.456261 
L 314.783281 -172.492361 
L 313.770781 -178.645093 
L 312.758281 -184.598215 
L 311.745781 -190.874103 
L 310.733281 -199.39138 
L 309.720781 -208.050396 
L 308.708281 -216.887228 
L 307.695781 -225.496605 
L 306.683281 -234.336141 
L 305.670781 -243.734489 
L 304.658281 -252.498142 
L 303.645781 -261.960132 
L 302.633281 -271.926564 
L 301.620781 -285.870806 
L 300.608281 -300.682962 
L 299.595781 -302.625089 
L 298.583281 -302.627325 
L 297.570781 -302.62789 
L 296.558281 -302.627721 
L 295.545781 -302.629435 
L 294.533281 -300.414741 
L 293.520781 -294.897133 
L 292.508281 -289.363497 
L 291.495781 -283.816956 
L 290.483281 -278.253972 
L 289.470781 -272.672632 
L 288.458281 -264.865362 
L 287.445781 -254.577971 
L 286.433281 -243.92539 
L 285.420781 -232.737992 
L 284.408281 -220.677721 
L 283.395781 -198.105312 
L 282.383281 -198.105312 
L 281.370781 -198.105312 
L 280.358281 -198.105312 
L 279.345781 -198.105312 
L 278.333281 -198.105312 
L 277.320781 -198.105312 
L 276.308281 -198.105312 
L 275.295781 -198.105312 
L 274.283281 -198.105312 
L 273.270781 -198.105312 
L 272.258281 -198.105312 
L 271.245781 -198.105312 
L 270.233281 -198.105312 
L 269.220781 -198.105312 
L 268.208281 -198.105312 
L 267.195781 -198.105312 
L 266.183281 -198.105312 
L 265.170781 -198.105312 
L 264.158281 -198.105312 
L 263.145781 -198.105312 
L 262.133281 -198.105312 
L 261.120781 -198.105312 
L 260.108281 -198.105312 
L 259.095781 -198.105312 
L 258.083281 -198.105312 
L 257.070781 -198.105312 
L 256.058281 -198.105312 
L 255.045781 -198.105312 
L 254.033281 -198.105312 
L 253.020781 -198.105312 
L 252.008281 -198.105312 
L 250.995781 -198.105312 
L 249.983281 -198.105312 
L 248.970781 -198.105312 
L 247.958281 -198.105312 
L 246.945781 -188.665002 
L 245.933281 -179.045757 
L 244.920781 -169.204339 
L 243.908281 -159.079957 
L 242.895781 -148.592758 
L 241.883281 -135.810611 
L 240.870781 -123.687862 
L 239.858281 -111.968537 
L 238.845781 -96.719214 
L 237.833281 -96.71757 
L 236.820781 -96.718738 
L 235.808281 -96.716696 
L 234.795781 -96.717656 
L 233.783281 -96.740184 
L 232.770781 -102.151447 
L 231.758281 -107.565068 
L 230.745781 -112.981408 
L 229.733281 -118.400283 
L 228.720781 -123.823613 
L 227.708281 -129.249342 
L 226.695781 -134.679371 
L 225.683281 -140.113284 
L 224.670781 -145.551009 
L 223.658281 -150.994479 
L 222.645781 -156.443022 
L 221.633281 -161.898205 
L 220.620781 -167.359989 
L 219.608281 -172.829156 
L 218.595781 -178.306587 
L 217.583281 -183.792103 
L 216.570781 -189.826661 
L 215.558281 -195.571388 
L 214.545781 -201.890544 
L 213.533281 -207.887736 
L 212.520781 -214.312399 
L 211.508281 -220.645054 
L 210.495781 -230.66306 
L 209.483281 -240.905712 
L 208.470781 -250.383036 
L 207.458281 -261.11842 
L 206.445781 -271.858553 
L 205.433281 -283.269104 
L 204.420781 -299.804283 
L 203.408281 -308.324514 
L 202.395781 -309.979707 
L 201.383281 -311.526379 
L 200.370781 -312.810901 
L 199.358281 -313.868227 
L 198.345781 -314.8533 
L 197.333281 -315.570112 
L 196.320781 -315.767046 
L 195.308281 -315.768579 
L 194.295781 -315.771449 
L 193.283281 -315.772649 
L 192.270781 -315.773888 
L 191.258281 -315.774918 
L 190.245781 -315.774072 
L 189.233281 -315.776222 
L 188.220781 -315.773446 
L 187.208281 -315.772955 
L 186.195781 -315.771264 
L 185.183281 -315.769274 
L 184.170781 -315.627877 
L 183.158281 -312.142458 
L 182.145781 -306.703064 
L 181.133281 -301.258353 
L 180.120781 -295.807993 
L 179.108281 -290.351256 
L 178.095781 -284.887014 
L 177.083281 -279.415924 
L 176.070781 -273.936443 
L 175.058281 -268.447874 
L 174.045781 -262.94935 
L 173.033281 -257.439118 
L 172.020781 -251.917645 
L 171.008281 -246.38231 
L 169.995781 -240.83181 
L 168.983281 -235.265093 
L 167.970781 -229.552197 
L 166.958281 -223.107964 
L 165.945781 -217.063214 
L 164.933281 -210.744026 
L 163.920781 -204.24432 
L 162.908281 -197.898105 
L 161.895781 -191.402682 
L 160.883281 -184.37877 
L 159.870781 -173.902232 
L 158.858281 -162.930175 
L 157.845781 -151.895622 
L 156.833281 -140.631395 
L 155.820781 -129.195677 
L 154.808281 -114.183794 
L 153.795781 -94.722738 
L 152.783281 -88.114027 
L 151.770781 -87.019323 
L 150.758281 -87.017155 
L 149.745781 -87.017129 
L 148.733281 -87.016271 
L 147.720781 -90.104059 
L 146.708281 -95.668679 
L 145.695781 -101.253865 
L 144.683281 -106.858888 
L 143.670781 -112.485892 
L 142.658281 -118.138024 
L 141.645781 -123.817914 
L 140.633281 -129.528471 
L 139.620781 -137.495993 
L 138.608281 -151.989774 
L 137.595781 -173.530894 
L 136.583281 -198.105312 
L 135.570781 -198.105312 
L 134.558281 -198.105312 
L 133.545781 -198.105312 
L 132.533281 -198.105312 
L 131.520781 -198.105312 
L 130.508281 -198.105312 
L 129.495781 -198.105312 
L 128.483281 -198.105312 
L 127.470781 -198.105312 
L 126.458281 -198.105312 
L 125.445781 -198.105312 
L 124.433281 -198.105312 
L 123.420781 -198.105312 
L 122.408281 -198.105312 
L 121.395781 -198.105312 
z
" style="stroke: #0173b2; stroke-opacity: 0.75"/>
    </defs>
    <g clip-path="url(#pa40150165f)">
     <use xlink:href="#mfacbd5dc46" x="0" y="361.015312" style="fill: #0173b2; fill-opacity: 0.75; stroke: #0173b2; stroke-opacity: 0.75"/>
    </g>
   </g>
   <g id="matplotlib.axis_1">
    <g id="xtick_1">
     <g id="line2d_1">
      <defs>
       <path id="mdaf0a9001d" d="M 0 0 
L 0 3.5 
" style="stroke: #000000; stroke-width: 0.8"/>
      </defs>
      <g>
       <use xlink:href="#mdaf0a9001d" x="121.395781" y="287.65" style="stroke: #000000; stroke-width: 0.8"/>
      </g>
     </g>
     <g id="text_1">
      <!-- 0 -->
      <g transform="translate(112.806406 315.165781) scale(0.27 -0.27)">
       <defs>
        <path id="DejaVuSans-30" d="M 2034 4250 
Q 1547 4250 1301 3770 
Q 1056 3291 1056 2328 
Q 1056 1369 1301 889 
Q 1547 409 2034 409 
Q 2525 409 2770 889 
Q 3016 1369 3016 2328 
Q 3016 3291 2770 3770 
Q 2525 4250 2034 4250 
z
M 2034 4750 
Q 2819 4750 3233 4129 
Q 3647 3509 3647 2328 
Q 3647 1150 3233 529 
Q 2819 -91 2034 -91 
Q 1250 -91 836 529 
Q 422 1150 422 2328 
Q 422 3509 836 4129 
Q 1250 4750 2034 4750 
z
" transform="scale(0.015625)"/>
       </defs>
       <use xlink:href="#DejaVuSans-30"/>
      </g>
     </g>
    </g>
    <g id="xtick_2">
     <g id="line2d_2">
      <g>
       <use xlink:href="#mdaf0a9001d" x="247.958281" y="287.65" style="stroke: #000000; stroke-width: 0.8"/>
      </g>
     </g>
     <g id="text_2">
      <!-- 25 -->
      <g transform="translate(230.779531 315.165781) scale(0.27 -0.27)">
       <defs>
        <path id="DejaVuSans-32" d="M 1228 531 
L 3431 531 
L 3431 0 
L 469 0 
L 469 531 
Q 828 903 1448 1529 
Q 2069 2156 2228 2338 
Q 2531 2678 2651 2914 
Q 2772 3150 2772 3378 
Q 2772 3750 2511 3984 
Q 2250 4219 1831 4219 
Q 1534 4219 1204 4116 
Q 875 4013 500 3803 
L 500 4441 
Q 881 4594 1212 4672 
Q 1544 4750 1819 4750 
Q 2544 4750 2975 4387 
Q 3406 4025 3406 3419 
Q 3406 3131 3298 2873 
Q 3191 2616 2906 2266 
Q 2828 2175 2409 1742 
Q 1991 1309 1228 531 
z
" transform="scale(0.015625)"/>
        <path id="DejaVuSans-35" d="M 691 4666 
L 3169 4666 
L 3169 4134 
L 1269 4134 
L 1269 2991 
Q 1406 3038 1543 3061 
Q 1681 3084 1819 3084 
Q 2600 3084 3056 2656 
Q 3513 2228 3513 1497 
Q 3513 744 3044 326 
Q 2575 -91 1722 -91 
Q 1428 -91 1123 -41 
Q 819 9 494 109 
L 494 744 
Q 775 591 1075 516 
Q 1375 441 1709 441 
Q 2250 441 2565 725 
Q 2881 1009 2881 1497 
Q 2881 1984 2565 2268 
Q 2250 2553 1709 2553 
Q 1456 2553 1204 2497 
Q 953 2441 691 2322 
L 691 4666 
z
" transform="scale(0.015625)"/>
       </defs>
       <use xlink:href="#DejaVuSans-32"/>
       <use xlink:href="#DejaVuSans-35" x="63.623047"/>
      </g>
     </g>
    </g>
    <g id="xtick_3">
     <g id="line2d_3">
      <g>
       <use xlink:href="#mdaf0a9001d" x="374.520781" y="287.65" style="stroke: #000000; stroke-width: 0.8"/>
      </g>
     </g>
     <g id="text_3">
      <!-- 50 -->
      <g transform="translate(357.342031 315.165781) scale(0.27 -0.27)">
       <use xlink:href="#DejaVuSans-35"/>
       <use xlink:href="#DejaVuSans-30" x="63.623047"/>
      </g>
     </g>
    </g>
    <g id="xtick_4">
     <g id="line2d_4">
      <g>
       <use xlink:href="#mdaf0a9001d" x="501.083281" y="287.65" style="stroke: #000000; stroke-width: 0.8"/>
      </g>
     </g>
     <g id="text_4">
      <!-- 75 -->
      <g transform="translate(483.904531 315.165781) scale(0.27 -0.27)">
       <defs>
        <path id="DejaVuSans-37" d="M 525 4666 
L 3525 4666 
L 3525 4397 
L 1831 0 
L 1172 0 
L 2766 4134 
L 525 4134 
L 525 4666 
z
" transform="scale(0.015625)"/>
       </defs>
       <use xlink:href="#DejaVuSans-37"/>
       <use xlink:href="#DejaVuSans-35" x="63.623047"/>
      </g>
     </g>
    </g>
    <g id="text_5">
     <!-- Time [ms] -->
     <g transform="translate(248.298125 347.57625) scale(0.3 -0.3)">
      <defs>
       <path id="DejaVuSans-54" d="M -19 4666 
L 3928 4666 
L 3928 4134 
L 2272 4134 
L 2272 0 
L 1638 0 
L 1638 4134 
L -19 4134 
L -19 4666 
z
" transform="scale(0.015625)"/>
       <path id="DejaVuSans-69" d="M 603 3500 
L 1178 3500 
L 1178 0 
L 603 0 
L 603 3500 
z
M 603 4863 
L 1178 4863 
L 1178 4134 
L 603 4134 
L 603 4863 
z
" transform="scale(0.015625)"/>
       <path id="DejaVuSans-6d" d="M 3328 2828 
Q 3544 3216 3844 3400 
Q 4144 3584 4550 3584 
Q 5097 3584 5394 3201 
Q 5691 2819 5691 2113 
L 5691 0 
L 5113 0 
L 5113 2094 
Q 5113 2597 4934 2840 
Q 4756 3084 4391 3084 
Q 3944 3084 3684 2787 
Q 3425 2491 3425 1978 
L 3425 0 
L 2847 0 
L 2847 2094 
Q 2847 2600 2669 2842 
Q 2491 3084 2119 3084 
Q 1678 3084 1418 2786 
Q 1159 2488 1159 1978 
L 1159 0 
L 581 0 
L 581 3500 
L 1159 3500 
L 1159 2956 
Q 1356 3278 1631 3431 
Q 1906 3584 2284 3584 
Q 2666 3584 2933 3390 
Q 3200 3197 3328 2828 
z
" transform="scale(0.015625)"/>
       <path id="DejaVuSans-65" d="M 3597 1894 
L 3597 1613 
L 953 1613 
Q 991 1019 1311 708 
Q 1631 397 2203 397 
Q 2534 397 2845 478 
Q 3156 559 3463 722 
L 3463 178 
Q 3153 47 2828 -22 
Q 2503 -91 2169 -91 
Q 1331 -91 842 396 
Q 353 884 353 1716 
Q 353 2575 817 3079 
Q 1281 3584 2069 3584 
Q 2775 3584 3186 3129 
Q 3597 2675 3597 1894 
z
M 3022 2063 
Q 3016 2534 2758 2815 
Q 2500 3097 2075 3097 
Q 1594 3097 1305 2825 
Q 1016 2553 972 2059 
L 3022 2063 
z
" transform="scale(0.015625)"/>
       <path id="DejaVuSans-20" transform="scale(0.015625)"/>
       <path id="DejaVuSans-5b" d="M 550 4863 
L 1875 4863 
L 1875 4416 
L 1125 4416 
L 1125 -397 
L 1875 -397 
L 1875 -844 
L 550 -844 
L 550 4863 
z
" transform="scale(0.015625)"/>
       <path id="DejaVuSans-73" d="M 2834 3397 
L 2834 2853 
Q 2591 2978 2328 3040 
Q 2066 3103 1784 3103 
Q 1356 3103 1142 2972 
Q 928 2841 928 2578 
Q 928 2378 1081 2264 
Q 1234 2150 1697 2047 
L 1894 2003 
Q 2506 1872 2764 1633 
Q 3022 1394 3022 966 
Q 3022 478 2636 193 
Q 2250 -91 1575 -91 
Q 1294 -91 989 -36 
Q 684 19 347 128 
L 347 722 
Q 666 556 975 473 
Q 1284 391 1588 391 
Q 1994 391 2212 530 
Q 2431 669 2431 922 
Q 2431 1156 2273 1281 
Q 2116 1406 1581 1522 
L 1381 1569 
Q 847 1681 609 1914 
Q 372 2147 372 2553 
Q 372 3047 722 3315 
Q 1072 3584 1716 3584 
Q 2034 3584 2315 3537 
Q 2597 3491 2834 3397 
z
" transform="scale(0.015625)"/>
       <path id="DejaVuSans-5d" d="M 1947 4863 
L 1947 -844 
L 622 -844 
L 622 -397 
L 1369 -397 
L 1369 4416 
L 622 4416 
L 622 4863 
L 1947 4863 
z
" transform="scale(0.015625)"/>
      </defs>
      <use xlink:href="#DejaVuSans-54"/>
      <use xlink:href="#DejaVuSans-69" x="57.958984"/>
      <use xlink:href="#DejaVuSans-6d" x="85.742188"/>
      <use xlink:href="#DejaVuSans-65" x="183.154297"/>
      <use xlink:href="#DejaVuSans-20" x="244.677734"/>
      <use xlink:href="#DejaVuSans-5b" x="276.464844"/>
      <use xlink:href="#DejaVuSans-6d" x="315.478516"/>
      <use xlink:href="#DejaVuSans-73" x="412.890625"/>
      <use xlink:href="#DejaVuSans-5d" x="464.990234"/>
     </g>
    </g>
   </g>
   <g id="matplotlib.axis_2">
    <g id="ytick_1">
     <g id="line2d_5">
      <defs>
       <path id="m2498f98973" d="M 0 0 
L -3.5 0 
" style="stroke: #000000; stroke-width: 0.8"/>
      </defs>
      <g>
       <use xlink:href="#m2498f98973" x="121.395781" y="287.029403" style="stroke: #000000; stroke-width: 0.8"/>
      </g>
     </g>
     <g id="text_6">
      <!-- −200 -->
      <g transform="translate(40.234375 297.287294) scale(0.27 -0.27)">
       <defs>
        <path id="DejaVuSans-2212" d="M 678 2272 
L 4684 2272 
L 4684 1741 
L 678 1741 
L 678 2272 
z
" transform="scale(0.015625)"/>
       </defs>
       <use xlink:href="#DejaVuSans-2212"/>
       <use xlink:href="#DejaVuSans-32" x="83.789062"/>
       <use xlink:href="#DejaVuSans-30" x="147.412109"/>
       <use xlink:href="#DejaVuSans-30" x="211.035156"/>
      </g>
     </g>
    </g>
    <g id="ytick_2">
     <g id="line2d_6">
      <g>
       <use xlink:href="#m2498f98973" x="121.395781" y="224.969701" style="stroke: #000000; stroke-width: 0.8"/>
      </g>
     </g>
     <g id="text_7">
      <!-- −100 -->
      <g transform="translate(40.234375 235.227592) scale(0.27 -0.27)">
       <defs>
        <path id="DejaVuSans-31" d="M 794 531 
L 1825 531 
L 1825 4091 
L 703 3866 
L 703 4441 
L 1819 4666 
L 2450 4666 
L 2450 531 
L 3481 531 
L 3481 0 
L 794 0 
L 794 531 
z
" transform="scale(0.015625)"/>
       </defs>
       <use xlink:href="#DejaVuSans-2212"/>
       <use xlink:href="#DejaVuSans-31" x="83.789062"/>
       <use xlink:href="#DejaVuSans-30" x="147.412109"/>
       <use xlink:href="#DejaVuSans-30" x="211.035156"/>
      </g>
     </g>
    </g>
    <g id="ytick_3">
     <g id="line2d_7">
      <g>
       <use xlink:href="#m2498f98973" x="121.395781" y="162.91" style="stroke: #000000; stroke-width: 0.8"/>
      </g>
     </g>
     <g id="text_8">
      <!-- 0 -->
      <g transform="translate(97.217031 173.167891) scale(0.27 -0.27)">
       <use xlink:href="#DejaVuSans-30"/>
      </g>
     </g>
    </g>
    <g id="ytick_4">
     <g id="line2d_8">
      <g>
       <use xlink:href="#m2498f98973" x="121.395781" y="100.850299" style="stroke: #000000; stroke-width: 0.8"/>
      </g>
     </g>
     <g id="text_9">
      <!-- 100 -->
      <g transform="translate(62.859531 111.108189) scale(0.27 -0.27)">
       <use xlink:href="#DejaVuSans-31"/>
       <use xlink:href="#DejaVuSans-30" x="63.623047"/>
       <use xlink:href="#DejaVuSans-30" x="127.246094"/>
      </g>
     </g>
    </g>
    <g id="ytick_5">
     <g id="line2d_9">
      <g>
       <use xlink:href="#m2498f98973" x="121.395781" y="38.790597" style="stroke: #000000; stroke-width: 0.8"/>
      </g>
     </g>
     <g id="text_10">
      <!-- 200 -->
      <g transform="translate(62.859531 49.048488) scale(0.27 -0.27)">
       <use xlink:href="#DejaVuSans-32"/>
       <use xlink:href="#DejaVuSans-30" x="63.623047"/>
       <use xlink:href="#DejaVuSans-30" x="127.246094"/>
      </g>
     </g>
    </g>
    <g id="text_11">
     <!-- mT/m -->
     <g transform="translate(29.995313 206.346719) rotate(-90) scale(0.3 -0.3)">
      <defs>
       <path id="DejaVuSans-2f" d="M 1625 4666 
L 2156 4666 
L 531 -594 
L 0 -594 
L 1625 4666 
z
" transform="scale(0.015625)"/>
      </defs>
      <use xlink:href="#DejaVuSans-6d"/>
      <use xlink:href="#DejaVuSans-54" x="97.412109"/>
      <use xlink:href="#DejaVuSans-2f" x="158.496094"/>
      <use xlink:href="#DejaVuSans-6d" x="192.1875"/>
     </g>
    </g>
   </g>
   <g id="line2d_10">
    <path d="M 121.395781 162.91 
L 526.395781 162.91 
" clip-path="url(#pa40150165f)" style="fill: none; stroke: #d3d3d3; stroke-opacity: 0.8; stroke-width: 1.5; stroke-linecap: square"/>
   </g>
   <g id="line2d_11">
    <path d="M 121.395781 162.91 
L 136.583281 162.91 
L 137.595781 187.484419 
L 138.608281 209.025538 
L 139.620781 223.51932 
L 140.633281 231.486841 
L 147.720781 270.911254 
L 148.733281 273.999041 
L 151.770781 273.995989 
L 152.783281 272.901286 
L 153.795781 266.292575 
L 154.808281 246.831519 
L 155.820781 231.819636 
L 159.870781 187.11308 
L 160.883281 176.636543 
L 162.908281 163.117207 
L 167.970781 131.463115 
L 172.020781 109.097667 
L 183.158281 48.872854 
L 184.170781 45.387435 
L 185.183281 45.246039 
L 196.320781 45.248266 
L 197.333281 45.4452 
L 198.345781 46.162013 
L 200.370781 48.204411 
L 201.383281 49.488934 
L 203.408281 52.690799 
L 204.420781 61.21103 
L 205.433281 77.746208 
L 207.458281 99.896893 
L 208.470781 110.632277 
L 210.495781 130.352252 
L 211.508281 140.370258 
L 215.558281 165.443925 
L 220.620781 193.655323 
L 233.783281 264.275128 
L 238.845781 264.296098 
L 239.858281 249.046776 
L 241.883281 225.204702 
L 242.895781 212.422555 
L 245.933281 181.969555 
L 247.958281 162.91 
L 283.395781 162.91 
L 284.408281 140.337591 
L 286.433281 117.089923 
L 288.458281 96.149951 
L 289.470781 88.342681 
L 294.533281 60.600572 
L 295.545781 58.385877 
L 299.595781 58.390223 
L 300.608281 60.332351 
L 302.633281 89.088749 
L 304.658281 108.517171 
L 311.745781 170.14121 
L 315.795781 194.559052 
L 319.845781 218.186021 
L 325.920781 251.111145 
L 326.933281 253.463975 
L 329.970781 253.466149 
L 330.983281 244.495485 
L 331.995781 232.452929 
L 333.008281 222.693303 
L 334.020781 210.25921 
L 336.045781 190.096054 
L 339.083281 162.91 
L 339.083281 162.91 
" clip-path="url(#pa40150165f)" style="fill: none; stroke: #000000; stroke-width: 5; stroke-linecap: square"/>
   </g>
   <g id="line2d_12">
    <path d="M 339.083281 162.91 
L 341.968906 162.91 
L 343.133281 184.261831 
L 343.183906 183.33349 
L 345.563281 141.558169 
L 346.626406 141.558169 
L 349.056406 184.261831 
L 350.119531 184.261831 
L 352.549531 141.558169 
L 353.612656 141.558169 
L 356.042656 184.261831 
L 357.105781 184.261831 
L 359.535781 141.558169 
L 360.598906 141.558169 
L 363.028906 184.261831 
L 364.092031 184.261831 
L 366.522031 141.558169 
L 367.585156 141.558169 
L 370.015156 184.261831 
L 371.078281 184.261831 
L 373.508281 141.558169 
L 374.571406 141.558169 
L 377.001406 184.261831 
L 378.064531 184.261831 
L 380.494531 141.558169 
L 381.557656 141.558169 
L 383.987656 184.261831 
L 385.050781 184.261831 
L 387.480781 141.558169 
L 388.543906 141.558169 
L 390.973906 184.261831 
L 392.037031 184.261831 
L 394.467031 141.558169 
L 395.530156 141.558169 
L 397.960156 184.261831 
L 399.023281 184.261831 
L 401.453281 141.558169 
L 402.516406 141.558169 
L 404.946406 184.261831 
L 406.009531 184.261831 
L 408.439531 141.558169 
L 409.502656 141.558169 
L 411.932656 184.261831 
L 412.995781 184.261831 
L 415.425781 141.558169 
L 416.488906 141.558169 
L 418.918906 184.261831 
L 419.982031 184.261831 
L 422.412031 141.558169 
L 423.475156 141.558169 
L 425.905156 184.261831 
L 426.968281 184.261831 
L 429.398281 141.558169 
L 430.461406 141.558169 
L 432.891406 184.261831 
L 433.954531 184.261831 
L 436.384531 141.558169 
L 437.447656 141.558169 
L 439.877656 184.261831 
L 440.940781 184.261831 
L 443.370781 141.558169 
L 444.433906 141.558169 
L 446.863906 184.261831 
L 447.927031 184.261831 
L 450.357031 141.558169 
L 451.420156 141.558169 
L 453.850156 184.261831 
L 454.913281 184.261831 
L 457.343281 141.558169 
L 458.406406 141.558169 
L 460.836406 184.261831 
L 461.899531 184.261831 
L 464.329531 141.558169 
L 465.392656 141.558169 
L 467.822656 184.261831 
L 468.885781 184.261831 
L 471.315781 141.558169 
L 472.378906 141.558169 
L 474.808906 184.261831 
L 475.872031 184.261831 
L 478.302031 141.558169 
L 479.365156 141.558169 
L 481.795156 184.261831 
L 482.858281 184.261831 
L 485.288281 141.558169 
L 486.351406 141.558169 
L 488.781406 184.261831 
L 489.844531 184.261831 
L 492.274531 141.558169 
L 493.337656 141.558169 
L 495.767656 184.261831 
L 496.830781 184.261831 
L 499.260781 141.558169 
L 500.323906 141.558169 
L 502.753906 184.261831 
L 503.817031 184.261831 
L 506.247031 141.558169 
L 507.310156 141.558169 
L 509.740156 184.261831 
L 510.803281 184.261831 
L 513.233281 141.558169 
L 514.296406 141.558169 
L 516.726406 184.261831 
L 517.789531 184.261831 
L 520.219531 141.558169 
L 521.282656 141.558169 
L 523.712656 184.261831 
L 524.775781 184.261831 
L 526.446406 153.626595 
L 526.446406 153.626595 
" clip-path="url(#pa40150165f)" style="fill: none; stroke: #000000; stroke-opacity: 0.7; stroke-width: 5; stroke-linecap: square"/>
   </g>
   <g id="line2d_13">
    <path d="M 408.915406 287.65 
L 408.915406 38.17 
" clip-path="url(#pa40150165f)" style="fill: none; stroke-dasharray: 18.5,8; stroke-dashoffset: 0; stroke: #000000; stroke-width: 5"/>
   </g>
   <g id="line2d_14">
    <path d="M 121.395781 38.790597 
L 526.395781 38.790597 
" clip-path="url(#pa40150165f)" style="fill: none; stroke-dasharray: 18.5,8; stroke-dashoffset: 0; stroke: #000000; stroke-opacity: 0.2; stroke-width: 5"/>
   </g>
   <g id="line2d_15">
    <path d="M 121.395781 287.029403 
L 526.395781 287.029403 
" clip-path="url(#pa40150165f)" style="fill: none; stroke-dasharray: 18.5,8; stroke-dashoffset: 0; stroke: #000000; stroke-opacity: 0.2; stroke-width: 5"/>
   </g>
   <g id="line2d_16">
    <path d="M 121.395781 162.91 
L 526.395781 162.91 
" clip-path="url(#pa40150165f)" style="fill: none; stroke: #000000; stroke-width: 5; stroke-linecap: square"/>
   </g>
   <g id="patch_3">
    <path d="M 121.395781 287.65 
L 121.395781 38.17 
" style="fill: none; stroke: #000000; stroke-width: 0.8; stroke-linejoin: miter; stroke-linecap: square"/>
   </g>
   <g id="patch_4">
    <path d="M 121.395781 287.65 
L 526.395781 287.65 
" style="fill: none; stroke: #000000; stroke-width: 0.8; stroke-linejoin: miter; stroke-linecap: square"/>
   </g>
   <g id="text_12">
    <!-- $G(t)$ -->
    <g transform="translate(292.695781 31.515) scale(0.32 -0.32)">
     <defs>
      <path id="DejaVuSans-Oblique-47" d="M 3494 697 
L 3738 1919 
L 2700 1919 
L 2797 2438 
L 4453 2438 
L 4050 384 
Q 3634 156 3143 32 
Q 2653 -91 2156 -91 
Q 1278 -91 783 396 
Q 288 884 288 1753 
Q 288 2475 589 3126 
Q 891 3778 1422 4213 
Q 1756 4484 2153 4617 
Q 2550 4750 3034 4750 
Q 3472 4750 3873 4639 
Q 4275 4528 4641 4306 
L 4513 3634 
Q 4231 3928 3853 4083 
Q 3475 4238 3047 4238 
Q 2550 4238 2172 4048 
Q 1794 3859 1497 3463 
Q 1244 3125 1098 2667 
Q 953 2209 953 1734 
Q 953 1081 1287 751 
Q 1622 422 2284 422 
Q 2616 422 2925 492 
Q 3234 563 3494 697 
z
" transform="scale(0.015625)"/>
      <path id="DejaVuSans-28" d="M 1984 4856 
Q 1566 4138 1362 3434 
Q 1159 2731 1159 2009 
Q 1159 1288 1364 580 
Q 1569 -128 1984 -844 
L 1484 -844 
Q 1016 -109 783 600 
Q 550 1309 550 2009 
Q 550 2706 781 3412 
Q 1013 4119 1484 4856 
L 1984 4856 
z
" transform="scale(0.015625)"/>
      <path id="DejaVuSans-Oblique-74" d="M 2706 3500 
L 2619 3053 
L 1472 3053 
L 1100 1153 
Q 1081 1047 1072 975 
Q 1063 903 1063 863 
Q 1063 663 1183 572 
Q 1303 481 1569 481 
L 2150 481 
L 2053 0 
L 1503 0 
Q 991 0 739 200 
Q 488 400 488 806 
Q 488 878 497 964 
Q 506 1050 525 1153 
L 897 3053 
L 409 3053 
L 500 3500 
L 978 3500 
L 1172 4494 
L 1747 4494 
L 1556 3500 
L 2706 3500 
z
" transform="scale(0.015625)"/>
      <path id="DejaVuSans-29" d="M 513 4856 
L 1013 4856 
Q 1481 4119 1714 3412 
Q 1947 2706 1947 2009 
Q 1947 1309 1714 600 
Q 1481 -109 1013 -844 
L 513 -844 
Q 928 -128 1133 580 
Q 1338 1288 1338 2009 
Q 1338 2731 1133 3434 
Q 928 4138 513 4856 
z
" transform="scale(0.015625)"/>
     </defs>
     <use xlink:href="#DejaVuSans-Oblique-47" transform="translate(0 0.125)"/>
     <use xlink:href="#DejaVuSans-28" transform="translate(77.490234 0.125)"/>
     <use xlink:href="#DejaVuSans-Oblique-74" transform="translate(116.503906 0.125)"/>
     <use xlink:href="#DejaVuSans-29" transform="translate(155.712891 0.125)"/>
    </g>
   </g>
   <g id="legend_1">
    <g id="patch_5">
     <path d="M 502.195781 66.77 
L 510.995781 66.77 
Q 515.395781 66.77 515.395781 62.37 
L 515.395781 53.57 
Q 515.395781 49.17 510.995781 49.17 
L 502.195781 49.17 
Q 497.795781 49.17 497.795781 53.57 
L 497.795781 62.37 
Q 497.795781 66.77 502.195781 66.77 
z
" style="fill: #ffffff; opacity: 0.8; stroke: #cccccc; stroke-linejoin: miter"/>
    </g>
   </g>
  </g>
  <g id="axes_2">
   <g id="patch_6">
    <path d="M 647.895781 287.65 
L 1052.895781 287.65 
L 1052.895781 38.17 
L 647.895781 38.17 
z
" style="fill: #ffffff"/>
   </g>
   <g id="matplotlib.axis_3">
    <g id="xtick_5">
     <g id="line2d_17">
      <g>
       <use xlink:href="#mdaf0a9001d" x="647.895781" y="287.65" style="stroke: #000000; stroke-width: 0.8"/>
      </g>
     </g>
     <g id="text_13">
      <!-- 0 -->
      <g transform="translate(639.306406 315.165781) scale(0.27 -0.27)">
       <use xlink:href="#DejaVuSans-30"/>
      </g>
     </g>
    </g>
    <g id="xtick_6">
     <g id="line2d_18">
      <g>
       <use xlink:href="#mdaf0a9001d" x="774.458281" y="287.65" style="stroke: #000000; stroke-width: 0.8"/>
      </g>
     </g>
     <g id="text_14">
      <!-- 25 -->
      <g transform="translate(757.279531 315.165781) scale(0.27 -0.27)">
       <use xlink:href="#DejaVuSans-32"/>
       <use xlink:href="#DejaVuSans-35" x="63.623047"/>
      </g>
     </g>
    </g>
    <g id="xtick_7">
     <g id="line2d_19">
      <g>
       <use xlink:href="#mdaf0a9001d" x="901.020781" y="287.65" style="stroke: #000000; stroke-width: 0.8"/>
      </g>
     </g>
     <g id="text_15">
      <!-- 50 -->
      <g transform="translate(883.842031 315.165781) scale(0.27 -0.27)">
       <use xlink:href="#DejaVuSans-35"/>
       <use xlink:href="#DejaVuSans-30" x="63.623047"/>
      </g>
     </g>
    </g>
    <g id="xtick_8">
     <g id="line2d_20">
      <g>
       <use xlink:href="#mdaf0a9001d" x="1027.583281" y="287.65" style="stroke: #000000; stroke-width: 0.8"/>
      </g>
     </g>
     <g id="text_16">
      <!-- 75 -->
      <g transform="translate(1010.404531 315.165781) scale(0.27 -0.27)">
       <use xlink:href="#DejaVuSans-37"/>
       <use xlink:href="#DejaVuSans-35" x="63.623047"/>
      </g>
     </g>
    </g>
    <g id="text_17">
     <!-- Time [ms] -->
     <g transform="translate(774.798125 347.57625) scale(0.3 -0.3)">
      <use xlink:href="#DejaVuSans-54"/>
      <use xlink:href="#DejaVuSans-69" x="57.958984"/>
      <use xlink:href="#DejaVuSans-6d" x="85.742188"/>
      <use xlink:href="#DejaVuSans-65" x="183.154297"/>
      <use xlink:href="#DejaVuSans-20" x="244.677734"/>
      <use xlink:href="#DejaVuSans-5b" x="276.464844"/>
      <use xlink:href="#DejaVuSans-6d" x="315.478516"/>
      <use xlink:href="#DejaVuSans-73" x="412.890625"/>
      <use xlink:href="#DejaVuSans-5d" x="464.990234"/>
     </g>
    </g>
   </g>
   <g id="matplotlib.axis_4">
    <g id="ytick_6">
     <g id="line2d_21">
      <g>
       <use xlink:href="#m2498f98973" x="647.895781" y="287.029403" style="stroke: #000000; stroke-width: 0.8"/>
      </g>
     </g>
     <g id="text_18">
      <!-- −200 -->
      <g transform="translate(566.734375 297.287294) scale(0.27 -0.27)">
       <use xlink:href="#DejaVuSans-2212"/>
       <use xlink:href="#DejaVuSans-32" x="83.789062"/>
       <use xlink:href="#DejaVuSans-30" x="147.412109"/>
       <use xlink:href="#DejaVuSans-30" x="211.035156"/>
      </g>
     </g>
    </g>
    <g id="ytick_7">
     <g id="line2d_22">
      <g>
       <use xlink:href="#m2498f98973" x="647.895781" y="224.969701" style="stroke: #000000; stroke-width: 0.8"/>
      </g>
     </g>
     <g id="text_19">
      <!-- −100 -->
      <g transform="translate(566.734375 235.227592) scale(0.27 -0.27)">
       <use xlink:href="#DejaVuSans-2212"/>
       <use xlink:href="#DejaVuSans-31" x="83.789062"/>
       <use xlink:href="#DejaVuSans-30" x="147.412109"/>
       <use xlink:href="#DejaVuSans-30" x="211.035156"/>
      </g>
     </g>
    </g>
    <g id="ytick_8">
     <g id="line2d_23">
      <g>
       <use xlink:href="#m2498f98973" x="647.895781" y="162.91" style="stroke: #000000; stroke-width: 0.8"/>
      </g>
     </g>
     <g id="text_20">
      <!-- 0 -->
      <g transform="translate(623.717031 173.167891) scale(0.27 -0.27)">
       <use xlink:href="#DejaVuSans-30"/>
      </g>
     </g>
    </g>
    <g id="ytick_9">
     <g id="line2d_24">
      <g>
       <use xlink:href="#m2498f98973" x="647.895781" y="100.850299" style="stroke: #000000; stroke-width: 0.8"/>
      </g>
     </g>
     <g id="text_21">
      <!-- 100 -->
      <g transform="translate(589.359531 111.108189) scale(0.27 -0.27)">
       <use xlink:href="#DejaVuSans-31"/>
       <use xlink:href="#DejaVuSans-30" x="63.623047"/>
       <use xlink:href="#DejaVuSans-30" x="127.246094"/>
      </g>
     </g>
    </g>
    <g id="ytick_10">
     <g id="line2d_25">
      <g>
       <use xlink:href="#m2498f98973" x="647.895781" y="38.790597" style="stroke: #000000; stroke-width: 0.8"/>
      </g>
     </g>
     <g id="text_22">
      <!-- 200 -->
      <g transform="translate(589.359531 49.048488) scale(0.27 -0.27)">
       <use xlink:href="#DejaVuSans-32"/>
       <use xlink:href="#DejaVuSans-30" x="63.623047"/>
       <use xlink:href="#DejaVuSans-30" x="127.246094"/>
      </g>
     </g>
    </g>
    <g id="text_23">
     <!-- T/m/s -->
     <g transform="translate(556.495312 204.602969) rotate(-90) scale(0.3 -0.3)">
      <use xlink:href="#DejaVuSans-54"/>
      <use xlink:href="#DejaVuSans-2f" x="61.083984"/>
      <use xlink:href="#DejaVuSans-6d" x="94.775391"/>
      <use xlink:href="#DejaVuSans-2f" x="192.1875"/>
      <use xlink:href="#DejaVuSans-73" x="225.878906"/>
     </g>
    </g>
   </g>
   <g id="line2d_26">
    <path d="M 647.895781 162.91 
L 1052.895781 162.91 
" clip-path="url(#paf931d921e)" style="fill: none; stroke: #d3d3d3; stroke-opacity: 0.8; stroke-width: 1.5; stroke-linecap: square"/>
   </g>
   <g id="line2d_27">
    <path d="M 647.895781 162.91 
L 662.070781 162.91 
L 663.083281 285.782093 
L 664.095781 270.615598 
L 666.120781 202.747608 
L 667.133281 191.462788 
L 671.183281 190.935114 
L 673.208281 190.733101 
L 674.220781 178.348937 
L 675.233281 162.905713 
L 677.258281 162.89916 
L 678.270781 157.436484 
L 679.283281 129.866445 
L 680.295781 65.604721 
L 681.308281 87.850583 
L 682.320781 105.731411 
L 683.333281 106.588861 
L 684.345781 107.737238 
L 685.358281 108.049711 
L 686.370781 110.527312 
L 687.383281 127.79044 
L 688.395781 130.432882 
L 689.408281 131.178928 
L 690.420781 130.41147 
L 691.433281 131.314056 
L 692.445781 132.68625 
L 693.458281 130.688835 
L 694.470781 134.345519 
L 695.483281 135.076417 
L 701.558281 135.467153 
L 708.645781 135.71303 
L 709.658281 145.482905 
L 710.670781 162.203015 
L 711.683281 162.900052 
L 721.808281 162.917665 
L 722.820781 163.894671 
L 723.833281 166.494062 
L 724.845781 167.835363 
L 725.858281 168.196631 
L 726.870781 169.332611 
L 727.883281 170.643361 
L 728.895781 171.185963 
L 729.908281 205.511156 
L 730.920781 245.585894 
L 731.933281 219.962757 
L 732.945781 216.610663 
L 733.958281 216.586922 
L 734.970781 210.296616 
L 735.983281 214.12326 
L 736.995781 213.000031 
L 738.008281 194.573279 
L 739.020781 195.033315 
L 740.033281 192.895958 
L 741.045781 194.505781 
L 742.058281 191.633633 
L 743.070781 193.082789 
L 744.083281 190.337583 
L 754.208281 190.038646 
L 759.270781 189.966315 
L 760.283281 163.022642 
L 762.308281 162.89979 
L 764.333281 162.901779 
L 765.345781 86.663387 
L 766.358281 104.313372 
L 767.370781 102.296258 
L 768.383281 98.999264 
L 769.395781 110.474004 
L 770.408281 112.288092 
L 771.420781 113.702907 
L 772.433281 114.813776 
L 773.445781 115.708448 
L 774.458281 162.91 
L 808.883281 162.91 
L 809.895781 50.047955 
L 810.908281 102.608647 
L 811.920781 106.973013 
L 812.933281 109.647092 
L 813.945781 111.473048 
L 815.970781 135.003297 
L 820.020781 135.321961 
L 821.033281 151.836527 
L 822.045781 162.918572 
L 825.083281 162.92118 
L 826.095781 172.620636 
L 827.108281 236.970782 
L 828.120781 232.631208 
L 829.133281 212.742158 
L 830.145781 210.219952 
L 831.158281 206.728267 
L 832.170781 209.901737 
L 833.183281 207.10768 
L 834.195781 205.956884 
L 835.208281 207.09416 
L 836.220781 206.205082 
L 837.233281 205.496385 
L 838.245781 194.289438 
L 839.258281 192.675614 
L 840.270781 193.673659 
L 841.283281 193.090501 
L 843.308281 192.719124 
L 844.320781 191.996675 
L 845.333281 192.151802 
L 846.345781 190.473533 
L 851.408281 190.235865 
L 852.420781 174.674151 
L 853.433281 162.911959 
L 855.458281 162.906552 
L 856.470781 118.056679 
L 857.483281 102.69722 
L 858.495781 114.111873 
L 859.508281 100.739535 
L 860.520781 109.847239 
L 861.533281 115.15698 
L 862.545781 116.574031 
L 863.558281 117.687325 
L 864.570781 118.538374 
L 864.570781 118.538374 
" clip-path="url(#paf931d921e)" style="fill: none; stroke: #000000; stroke-width: 5; stroke-linecap: square"/>
   </g>
   <g id="line2d_28">
    <path d="M 647.895781 38.790597 
L 1052.895781 38.790597 
" clip-path="url(#paf931d921e)" style="fill: none; stroke-dasharray: 18.5,8; stroke-dashoffset: 0; stroke: #000000; stroke-opacity: 0.2; stroke-width: 5"/>
   </g>
   <g id="line2d_29">
    <path d="M 647.895781 287.029403 
L 1052.895781 287.029403 
" clip-path="url(#paf931d921e)" style="fill: none; stroke-dasharray: 18.5,8; stroke-dashoffset: 0; stroke: #000000; stroke-opacity: 0.2; stroke-width: 5"/>
   </g>
   <g id="line2d_30">
    <path d="M 647.895781 162.91 
L 1052.895781 162.91 
" clip-path="url(#paf931d921e)" style="fill: none; stroke: #000000; stroke-width: 5; stroke-linecap: square"/>
   </g>
   <g id="patch_7">
    <path d="M 647.895781 287.65 
L 647.895781 38.17 
" style="fill: none; stroke: #000000; stroke-width: 0.8; stroke-linejoin: miter; stroke-linecap: square"/>
   </g>
   <g id="patch_8">
    <path d="M 647.895781 287.65 
L 1052.895781 287.65 
" style="fill: none; stroke: #000000; stroke-width: 0.8; stroke-linejoin: miter; stroke-linecap: square"/>
   </g>
   <g id="text_24">
    <!-- $S(t)$ -->
    <g transform="translate(821.435781 31.515) scale(0.32 -0.32)">
     <defs>
      <path id="DejaVuSans-Oblique-53" d="M 3859 4513 
L 3738 3897 
Q 3422 4066 3111 4152 
Q 2800 4238 2509 4238 
Q 1944 4238 1609 3991 
Q 1275 3744 1275 3334 
Q 1275 3109 1398 2989 
Q 1522 2869 2034 2731 
L 2413 2638 
Q 3053 2472 3303 2217 
Q 3553 1963 3553 1503 
Q 3553 797 2998 353 
Q 2444 -91 1538 -91 
Q 1166 -91 791 -17 
Q 416 56 38 206 
L 166 856 
Q 513 641 861 531 
Q 1209 422 1556 422 
Q 2147 422 2503 684 
Q 2859 947 2859 1369 
Q 2859 1650 2717 1795 
Q 2575 1941 2106 2059 
L 1728 2156 
Q 1081 2325 845 2545 
Q 609 2766 609 3163 
Q 609 3859 1145 4304 
Q 1681 4750 2541 4750 
Q 2875 4750 3203 4690 
Q 3531 4631 3859 4513 
z
" transform="scale(0.015625)"/>
     </defs>
     <use xlink:href="#DejaVuSans-Oblique-53" transform="translate(0 0.125)"/>
     <use xlink:href="#DejaVuSans-28" transform="translate(63.476562 0.125)"/>
     <use xlink:href="#DejaVuSans-Oblique-74" transform="translate(102.490234 0.125)"/>
     <use xlink:href="#DejaVuSans-29" transform="translate(141.699219 0.125)"/>
    </g>
   </g>
  </g>
  <g id="axes_3">
   <g id="patch_9">
    <path d="M 1174.395781 287.65 
L 1579.395781 287.65 
L 1579.395781 38.17 
L 1174.395781 38.17 
z
" style="fill: #ffffff"/>
   </g>
   <g id="matplotlib.axis_5">
    <g id="xtick_9">
     <g id="line2d_31">
      <g>
       <use xlink:href="#mdaf0a9001d" x="1174.395781" y="287.65" style="stroke: #000000; stroke-width: 0.8"/>
      </g>
     </g>
     <g id="text_25">
      <!-- 0 -->
      <g transform="translate(1165.806406 315.165781) scale(0.27 -0.27)">
       <use xlink:href="#DejaVuSans-30"/>
      </g>
     </g>
    </g>
    <g id="xtick_10">
     <g id="line2d_32">
      <g>
       <use xlink:href="#mdaf0a9001d" x="1300.958281" y="287.65" style="stroke: #000000; stroke-width: 0.8"/>
      </g>
     </g>
     <g id="text_26">
      <!-- 25 -->
      <g transform="translate(1283.779531 315.165781) scale(0.27 -0.27)">
       <use xlink:href="#DejaVuSans-32"/>
       <use xlink:href="#DejaVuSans-35" x="63.623047"/>
      </g>
     </g>
    </g>
    <g id="xtick_11">
     <g id="line2d_33">
      <g>
       <use xlink:href="#mdaf0a9001d" x="1427.520781" y="287.65" style="stroke: #000000; stroke-width: 0.8"/>
      </g>
     </g>
     <g id="text_27">
      <!-- 50 -->
      <g transform="translate(1410.342031 315.165781) scale(0.27 -0.27)">
       <use xlink:href="#DejaVuSans-35"/>
       <use xlink:href="#DejaVuSans-30" x="63.623047"/>
      </g>
     </g>
    </g>
    <g id="xtick_12">
     <g id="line2d_34">
      <g>
       <use xlink:href="#mdaf0a9001d" x="1554.083281" y="287.65" style="stroke: #000000; stroke-width: 0.8"/>
      </g>
     </g>
     <g id="text_28">
      <!-- 75 -->
      <g transform="translate(1536.904531 315.165781) scale(0.27 -0.27)">
       <use xlink:href="#DejaVuSans-37"/>
       <use xlink:href="#DejaVuSans-35" x="63.623047"/>
      </g>
     </g>
    </g>
    <g id="text_29">
     <!-- Time [ms] -->
     <g transform="translate(1301.298125 347.57625) scale(0.3 -0.3)">
      <use xlink:href="#DejaVuSans-54"/>
      <use xlink:href="#DejaVuSans-69" x="57.958984"/>
      <use xlink:href="#DejaVuSans-6d" x="85.742188"/>
      <use xlink:href="#DejaVuSans-65" x="183.154297"/>
      <use xlink:href="#DejaVuSans-20" x="244.677734"/>
      <use xlink:href="#DejaVuSans-5b" x="276.464844"/>
      <use xlink:href="#DejaVuSans-6d" x="315.478516"/>
      <use xlink:href="#DejaVuSans-73" x="412.890625"/>
      <use xlink:href="#DejaVuSans-5d" x="464.990234"/>
     </g>
    </g>
   </g>
   <g id="matplotlib.axis_6">
    <g id="ytick_11">
     <g id="line2d_35">
      <g>
       <use xlink:href="#m2498f98973" x="1174.395781" y="287.65" style="stroke: #000000; stroke-width: 0.8"/>
      </g>
     </g>
     <g id="text_30">
      <!-- 0.00 -->
      <g transform="translate(1107.278594 297.907891) scale(0.27 -0.27)">
       <defs>
        <path id="DejaVuSans-2e" d="M 684 794 
L 1344 794 
L 1344 0 
L 684 0 
L 684 794 
z
" transform="scale(0.015625)"/>
       </defs>
       <use xlink:href="#DejaVuSans-30"/>
       <use xlink:href="#DejaVuSans-2e" x="63.623047"/>
       <use xlink:href="#DejaVuSans-30" x="95.410156"/>
       <use xlink:href="#DejaVuSans-30" x="159.033203"/>
      </g>
     </g>
    </g>
    <g id="ytick_12">
     <g id="line2d_36">
      <g>
       <use xlink:href="#m2498f98973" x="1174.395781" y="225.28" style="stroke: #000000; stroke-width: 0.8"/>
      </g>
     </g>
     <g id="text_31">
      <!-- 0.25 -->
      <g transform="translate(1107.278594 235.537891) scale(0.27 -0.27)">
       <use xlink:href="#DejaVuSans-30"/>
       <use xlink:href="#DejaVuSans-2e" x="63.623047"/>
       <use xlink:href="#DejaVuSans-32" x="95.410156"/>
       <use xlink:href="#DejaVuSans-35" x="159.033203"/>
      </g>
     </g>
    </g>
    <g id="ytick_13">
     <g id="line2d_37">
      <g>
       <use xlink:href="#m2498f98973" x="1174.395781" y="162.91" style="stroke: #000000; stroke-width: 0.8"/>
      </g>
     </g>
     <g id="text_32">
      <!-- 0.50 -->
      <g transform="translate(1107.278594 173.167891) scale(0.27 -0.27)">
       <use xlink:href="#DejaVuSans-30"/>
       <use xlink:href="#DejaVuSans-2e" x="63.623047"/>
       <use xlink:href="#DejaVuSans-35" x="95.410156"/>
       <use xlink:href="#DejaVuSans-30" x="159.033203"/>
      </g>
     </g>
    </g>
    <g id="ytick_14">
     <g id="line2d_38">
      <g>
       <use xlink:href="#m2498f98973" x="1174.395781" y="100.54" style="stroke: #000000; stroke-width: 0.8"/>
      </g>
     </g>
     <g id="text_33">
      <!-- 0.75 -->
      <g transform="translate(1107.278594 110.797891) scale(0.27 -0.27)">
       <use xlink:href="#DejaVuSans-30"/>
       <use xlink:href="#DejaVuSans-2e" x="63.623047"/>
       <use xlink:href="#DejaVuSans-37" x="95.410156"/>
       <use xlink:href="#DejaVuSans-35" x="159.033203"/>
      </g>
     </g>
    </g>
    <g id="ytick_15">
     <g id="line2d_39">
      <g>
       <use xlink:href="#m2498f98973" x="1174.395781" y="38.17" style="stroke: #000000; stroke-width: 0.8"/>
      </g>
     </g>
     <g id="text_34">
      <!-- 1.00 -->
      <g transform="translate(1107.278594 48.427891) scale(0.27 -0.27)">
       <use xlink:href="#DejaVuSans-31"/>
       <use xlink:href="#DejaVuSans-2e" x="63.623047"/>
       <use xlink:href="#DejaVuSans-30" x="95.410156"/>
       <use xlink:href="#DejaVuSans-30" x="159.033203"/>
      </g>
     </g>
    </g>
    <g id="text_35">
     <!-- unitless -->
     <g transform="translate(1097.039531 220.995156) rotate(-90) scale(0.3 -0.3)">
      <defs>
       <path id="DejaVuSans-75" d="M 544 1381 
L 544 3500 
L 1119 3500 
L 1119 1403 
Q 1119 906 1312 657 
Q 1506 409 1894 409 
Q 2359 409 2629 706 
Q 2900 1003 2900 1516 
L 2900 3500 
L 3475 3500 
L 3475 0 
L 2900 0 
L 2900 538 
Q 2691 219 2414 64 
Q 2138 -91 1772 -91 
Q 1169 -91 856 284 
Q 544 659 544 1381 
z
M 1991 3584 
L 1991 3584 
z
" transform="scale(0.015625)"/>
       <path id="DejaVuSans-6e" d="M 3513 2113 
L 3513 0 
L 2938 0 
L 2938 2094 
Q 2938 2591 2744 2837 
Q 2550 3084 2163 3084 
Q 1697 3084 1428 2787 
Q 1159 2491 1159 1978 
L 1159 0 
L 581 0 
L 581 3500 
L 1159 3500 
L 1159 2956 
Q 1366 3272 1645 3428 
Q 1925 3584 2291 3584 
Q 2894 3584 3203 3211 
Q 3513 2838 3513 2113 
z
" transform="scale(0.015625)"/>
       <path id="DejaVuSans-74" d="M 1172 4494 
L 1172 3500 
L 2356 3500 
L 2356 3053 
L 1172 3053 
L 1172 1153 
Q 1172 725 1289 603 
Q 1406 481 1766 481 
L 2356 481 
L 2356 0 
L 1766 0 
Q 1100 0 847 248 
Q 594 497 594 1153 
L 594 3053 
L 172 3053 
L 172 3500 
L 594 3500 
L 594 4494 
L 1172 4494 
z
" transform="scale(0.015625)"/>
       <path id="DejaVuSans-6c" d="M 603 4863 
L 1178 4863 
L 1178 0 
L 603 0 
L 603 4863 
z
" transform="scale(0.015625)"/>
      </defs>
      <use xlink:href="#DejaVuSans-75"/>
      <use xlink:href="#DejaVuSans-6e" x="63.378906"/>
      <use xlink:href="#DejaVuSans-69" x="126.757812"/>
      <use xlink:href="#DejaVuSans-74" x="154.541016"/>
      <use xlink:href="#DejaVuSans-6c" x="193.75"/>
      <use xlink:href="#DejaVuSans-65" x="221.533203"/>
      <use xlink:href="#DejaVuSans-73" x="283.056641"/>
      <use xlink:href="#DejaVuSans-73" x="335.15625"/>
     </g>
    </g>
   </g>
   <g id="line2d_40">
    <path d="M 1174.395781 287.65 
L 1579.395781 287.65 
" clip-path="url(#p765ee0521d)" style="fill: none; stroke: #d3d3d3; stroke-opacity: 0.8; stroke-width: 1.5; stroke-linecap: square"/>
   </g>
   <g id="line2d_41">
    <path d="M 1174.395781 287.65 
L 1189.583281 287.65 
L 1190.595781 146.728367 
L 1191.608281 82.448366 
L 1192.620781 82.367733 
L 1193.633281 115.745835 
L 1194.645781 144.88413 
L 1195.658281 160.193519 
L 1196.670781 168.435434 
L 1197.683281 172.989893 
L 1198.695781 175.557569 
L 1199.708281 177.012746 
L 1200.720781 177.827703 
L 1201.733281 192.337838 
L 1202.745781 218.269272 
L 1203.758281 233.405182 
L 1204.770781 242.801253 
L 1205.783281 249.703366 
L 1206.795781 232.518515 
L 1207.808281 140.369311 
L 1208.820781 108.544831 
L 1209.833281 107.474802 
L 1211.858281 101.974208 
L 1212.870781 98.752386 
L 1213.883281 98.066508 
L 1214.895781 116.041172 
L 1215.908281 128.291274 
L 1216.920781 135.6475 
L 1217.933281 138.761306 
L 1218.945781 141.477196 
L 1219.958281 144.521133 
L 1220.970781 143.902396 
L 1221.983281 147.667325 
L 1222.995781 150.554887 
L 1224.008281 152.245356 
L 1225.020781 153.263554 
L 1226.033281 153.882476 
L 1227.045781 154.241598 
L 1228.058281 154.436712 
L 1230.083281 154.497713 
L 1232.108281 154.283618 
L 1235.145781 153.686392 
L 1236.158281 153.440811 
L 1237.170781 164.357564 
L 1238.183281 189.714398 
L 1239.195781 205.320439 
L 1240.208281 215.010195 
L 1241.220781 221.470286 
L 1242.233281 226.061919 
L 1243.245781 229.564312 
L 1244.258281 232.321139 
L 1245.270781 234.600432 
L 1246.283281 236.526448 
L 1248.308281 239.655411 
L 1249.320781 240.941212 
L 1250.333281 241.473284 
L 1251.345781 240.592301 
L 1252.358281 237.97974 
L 1253.370781 235.803945 
L 1254.383281 233.305608 
L 1255.395781 230.399727 
L 1256.408281 228.112495 
L 1257.420781 187.405973 
L 1258.433281 117.824296 
L 1259.445781 105.959003 
L 1261.470781 95.540692 
L 1262.483281 98.08527 
L 1263.495781 93.69189 
L 1264.508281 91.29986 
L 1265.520781 110.011586 
L 1266.533281 119.409123 
L 1267.545781 126.95724 
L 1268.558281 129.361972 
L 1269.570781 134.061856 
L 1270.583281 135.127571 
L 1271.595781 138.948953 
L 1272.608281 141.22653 
L 1273.620781 142.648229 
L 1274.633281 143.566819 
L 1275.645781 144.17214 
L 1276.658281 144.574818 
L 1278.683281 144.986853 
L 1280.708281 145.07199 
L 1283.745781 144.878245 
L 1286.783281 144.476441 
L 1287.795781 175.205653 
L 1288.808281 193.052333 
L 1289.820781 204.034642 
L 1290.833281 211.261528 
L 1291.845781 216.394907 
L 1292.858281 151.917716 
L 1293.870781 120.316763 
L 1294.883281 97.697548 
L 1295.895781 78.618463 
L 1298.933281 78.498969 
L 1300.958281 78.50053 
L 1301.970781 131.814488 
L 1302.983281 162.028332 
L 1303.995781 180.18377 
L 1305.008281 191.852657 
L 1306.020781 199.88658 
L 1307.033281 205.776116 
L 1308.045781 210.324433 
L 1309.058281 213.982407 
L 1310.070781 217.016396 
L 1311.083281 219.593063 
L 1312.095781 221.822904 
L 1314.120781 225.529896 
L 1316.145781 228.542796 
L 1318.170781 231.097952 
L 1320.195781 233.341537 
L 1323.233281 236.316328 
L 1326.270781 238.97762 
L 1330.320781 242.200653 
L 1334.370781 245.153108 
L 1336.395781 246.546407 
L 1337.408281 117.78318 
L 1338.420781 103.710241 
L 1339.433281 97.85316 
L 1340.445781 95.133442 
L 1341.458281 93.663237 
L 1342.470781 105.407775 
L 1343.483281 123.646439 
L 1344.495781 133.508259 
L 1345.508281 139.048102 
L 1346.520781 142.290586 
L 1347.533281 144.299825 
L 1348.545781 164.456924 
L 1349.558281 188.887925 
L 1350.570781 203.488054 
L 1351.583281 212.827485 
L 1352.595781 219.233683 
L 1353.608281 219.467533 
L 1354.620781 155.161211 
L 1355.633281 112.147589 
L 1356.645781 107.940807 
L 1357.658281 105.860331 
L 1358.670781 106.640625 
L 1359.683281 101.856778 
L 1360.695781 101.06508 
L 1361.708281 100.849259 
L 1362.720781 98.538277 
L 1363.733281 97.493848 
L 1364.745781 97.044734 
L 1365.758281 109.059368 
L 1366.770781 117.367133 
L 1367.783281 120.871427 
L 1368.795781 123.584244 
L 1369.808281 125.411135 
L 1370.820781 126.740395 
L 1371.833281 128.385605 
L 1372.845781 129.193119 
L 1373.858281 131.617261 
L 1374.870781 133.102899 
L 1375.883281 134.06363 
L 1376.895781 134.716624 
L 1377.908281 135.176412 
L 1378.920781 135.51294 
L 1379.933281 153.566766 
L 1380.945781 177.521214 
L 1381.958281 191.794167 
L 1382.970781 200.934538 
L 1383.983281 181.910346 
L 1384.995781 135.348618 
L 1386.008281 118.297986 
L 1387.020781 91.086118 
L 1388.033281 83.904423 
L 1392.083281 83.514635 
L 1392.083281 83.514635 
" clip-path="url(#p765ee0521d)" style="fill: none; stroke: #000000; stroke-width: 5; stroke-linecap: square"/>
   </g>
   <g id="line2d_42">
    <path d="M 1174.395781 287.65 
L 1579.395781 287.65 
" clip-path="url(#p765ee0521d)" style="fill: none; stroke: #000000; stroke-width: 5; stroke-linecap: square"/>
   </g>
   <g id="line2d_43">
    <path d="M 1174.395781 83.297043 
L 1176.420781 82.548383 
L 1178.445781 82.019761 
L 1181.483281 81.463618 
L 1186.545781 80.841765 
L 1194.645781 80.135201 
L 1207.808281 79.243187 
L 1222.995781 78.435558 
L 1241.220781 77.698816 
L 1262.483281 77.076865 
L 1287.795781 76.571053 
L 1300.958281 76.380403 
L 1301.970781 97.945426 
L 1302.983281 151.079749 
L 1303.995781 130.576257 
L 1305.008281 152.59478 
L 1306.020781 121.730477 
L 1307.033281 101.199334 
L 1308.045781 92.96154 
L 1309.058281 89.362187 
L 1310.070781 87.56952 
L 1311.083281 86.523529 
L 1312.095781 85.8178 
L 1314.120781 84.866674 
L 1316.145781 84.216192 
L 1319.183281 83.520943 
L 1323.233281 82.8557 
L 1330.320781 81.984115 
L 1332.345781 81.768285 
L 1334.370781 183.955988 
L 1335.383281 116.273709 
L 1336.395781 152.510828 
L 1337.408281 116.065492 
L 1338.420781 101.853755 
L 1339.433281 95.940564 
L 1340.445781 93.191142 
L 1341.458281 91.698963 
L 1342.470781 90.744929 
L 1343.483281 90.049187 
L 1345.508281 89.033835 
L 1347.533281 88.28272 
L 1350.570781 87.416509 
L 1354.620781 86.515291 
L 1360.695781 85.414408 
L 1368.795781 84.173668 
L 1378.920781 82.854588 
L 1390.058281 81.638318 
L 1392.083281 81.440172 
L 1392.083281 81.440172 
" clip-path="url(#p765ee0521d)" style="fill: none; stroke-dasharray: 22.2,9.6; stroke-dashoffset: 0; stroke: #ff0000; stroke-width: 6"/>
   </g>
   <g id="line2d_44">
    <path d="M 1174.395781 113.014 
L 1579.395781 113.014 
" clip-path="url(#p765ee0521d)" style="fill: none; stroke-dasharray: 5,8.25; stroke-dashoffset: 0; stroke: #ff0000; stroke-opacity: 0.5; stroke-width: 5"/>
   </g>
   <g id="patch_10">
    <path d="M 1174.395781 287.65 
L 1174.395781 38.17 
" style="fill: none; stroke: #000000; stroke-width: 0.8; stroke-linejoin: miter; stroke-linecap: square"/>
   </g>
   <g id="patch_11">
    <path d="M 1174.395781 287.65 
L 1579.395781 287.65 
" style="fill: none; stroke: #000000; stroke-width: 0.8; stroke-linejoin: miter; stroke-linecap: square"/>
   </g>
   <g id="text_36">
    <!-- SAFE-PNS -->
    <g transform="translate(1298.633281 31.515) scale(0.32 -0.32)">
     <defs>
      <path id="DejaVuSans-53" d="M 3425 4513 
L 3425 3897 
Q 3066 4069 2747 4153 
Q 2428 4238 2131 4238 
Q 1616 4238 1336 4038 
Q 1056 3838 1056 3469 
Q 1056 3159 1242 3001 
Q 1428 2844 1947 2747 
L 2328 2669 
Q 3034 2534 3370 2195 
Q 3706 1856 3706 1288 
Q 3706 609 3251 259 
Q 2797 -91 1919 -91 
Q 1588 -91 1214 -16 
Q 841 59 441 206 
L 441 856 
Q 825 641 1194 531 
Q 1563 422 1919 422 
Q 2459 422 2753 634 
Q 3047 847 3047 1241 
Q 3047 1584 2836 1778 
Q 2625 1972 2144 2069 
L 1759 2144 
Q 1053 2284 737 2584 
Q 422 2884 422 3419 
Q 422 4038 858 4394 
Q 1294 4750 2059 4750 
Q 2388 4750 2728 4690 
Q 3069 4631 3425 4513 
z
" transform="scale(0.015625)"/>
      <path id="DejaVuSans-41" d="M 2188 4044 
L 1331 1722 
L 3047 1722 
L 2188 4044 
z
M 1831 4666 
L 2547 4666 
L 4325 0 
L 3669 0 
L 3244 1197 
L 1141 1197 
L 716 0 
L 50 0 
L 1831 4666 
z
" transform="scale(0.015625)"/>
      <path id="DejaVuSans-46" d="M 628 4666 
L 3309 4666 
L 3309 4134 
L 1259 4134 
L 1259 2759 
L 3109 2759 
L 3109 2228 
L 1259 2228 
L 1259 0 
L 628 0 
L 628 4666 
z
" transform="scale(0.015625)"/>
      <path id="DejaVuSans-45" d="M 628 4666 
L 3578 4666 
L 3578 4134 
L 1259 4134 
L 1259 2753 
L 3481 2753 
L 3481 2222 
L 1259 2222 
L 1259 531 
L 3634 531 
L 3634 0 
L 628 0 
L 628 4666 
z
" transform="scale(0.015625)"/>
      <path id="DejaVuSans-2d" d="M 313 2009 
L 1997 2009 
L 1997 1497 
L 313 1497 
L 313 2009 
z
" transform="scale(0.015625)"/>
      <path id="DejaVuSans-50" d="M 1259 4147 
L 1259 2394 
L 2053 2394 
Q 2494 2394 2734 2622 
Q 2975 2850 2975 3272 
Q 2975 3691 2734 3919 
Q 2494 4147 2053 4147 
L 1259 4147 
z
M 628 4666 
L 2053 4666 
Q 2838 4666 3239 4311 
Q 3641 3956 3641 3272 
Q 3641 2581 3239 2228 
Q 2838 1875 2053 1875 
L 1259 1875 
L 1259 0 
L 628 0 
L 628 4666 
z
" transform="scale(0.015625)"/>
      <path id="DejaVuSans-4e" d="M 628 4666 
L 1478 4666 
L 3547 763 
L 3547 4666 
L 4159 4666 
L 4159 0 
L 3309 0 
L 1241 3903 
L 1241 0 
L 628 0 
L 628 4666 
z
" transform="scale(0.015625)"/>
     </defs>
     <use xlink:href="#DejaVuSans-53"/>
     <use xlink:href="#DejaVuSans-41" x="65.351562"/>
     <use xlink:href="#DejaVuSans-46" x="133.759766"/>
     <use xlink:href="#DejaVuSans-45" x="191.279297"/>
     <use xlink:href="#DejaVuSans-2d" x="254.462891"/>
     <use xlink:href="#DejaVuSans-50" x="290.546875"/>
     <use xlink:href="#DejaVuSans-4e" x="350.849609"/>
     <use xlink:href="#DejaVuSans-53" x="425.654297"/>
    </g>
   </g>
   <g id="legend_2">
    <g id="patch_12">
     <path d="M 1430.758281 276.65 
L 1563.995781 276.65 
Q 1568.395781 276.65 1568.395781 272.25 
L 1568.395781 242.158125 
Q 1568.395781 237.758125 1563.995781 237.758125 
L 1430.758281 237.758125 
Q 1426.358281 237.758125 1426.358281 242.158125 
L 1426.358281 272.25 
Q 1426.358281 276.65 1430.758281 276.65 
z
" style="fill: #ffffff; opacity: 0.2; stroke: #cccccc; stroke-linejoin: miter"/>
    </g>
    <g id="line2d_45">
     <path d="M 1435.158281 255.574688 
L 1457.158281 255.574688 
L 1479.158281 255.574688 
" style="fill: none; stroke: #000000; stroke-width: 5; stroke-linecap: square"/>
    </g>
    <g id="text_37">
     <!-- Y-axis -->
     <g transform="translate(1496.758281 263.274688) scale(0.22 -0.22)">
      <defs>
       <path id="DejaVuSans-59" d="M -13 4666 
L 666 4666 
L 1959 2747 
L 3244 4666 
L 3922 4666 
L 2272 2222 
L 2272 0 
L 1638 0 
L 1638 2222 
L -13 4666 
z
" transform="scale(0.015625)"/>
       <path id="DejaVuSans-61" d="M 2194 1759 
Q 1497 1759 1228 1600 
Q 959 1441 959 1056 
Q 959 750 1161 570 
Q 1363 391 1709 391 
Q 2188 391 2477 730 
Q 2766 1069 2766 1631 
L 2766 1759 
L 2194 1759 
z
M 3341 1997 
L 3341 0 
L 2766 0 
L 2766 531 
Q 2569 213 2275 61 
Q 1981 -91 1556 -91 
Q 1019 -91 701 211 
Q 384 513 384 1019 
Q 384 1609 779 1909 
Q 1175 2209 1959 2209 
L 2766 2209 
L 2766 2266 
Q 2766 2663 2505 2880 
Q 2244 3097 1772 3097 
Q 1472 3097 1187 3025 
Q 903 2953 641 2809 
L 641 3341 
Q 956 3463 1253 3523 
Q 1550 3584 1831 3584 
Q 2591 3584 2966 3190 
Q 3341 2797 3341 1997 
z
" transform="scale(0.015625)"/>
       <path id="DejaVuSans-78" d="M 3513 3500 
L 2247 1797 
L 3578 0 
L 2900 0 
L 1881 1375 
L 863 0 
L 184 0 
L 1544 1831 
L 300 3500 
L 978 3500 
L 1906 2253 
L 2834 3500 
L 3513 3500 
z
" transform="scale(0.015625)"/>
      </defs>
      <use xlink:href="#DejaVuSans-59"/>
      <use xlink:href="#DejaVuSans-2d" x="49.208984"/>
      <use xlink:href="#DejaVuSans-61" x="85.292969"/>
      <use xlink:href="#DejaVuSans-78" x="146.572266"/>
      <use xlink:href="#DejaVuSans-69" x="205.751953"/>
      <use xlink:href="#DejaVuSans-73" x="233.535156"/>
     </g>
    </g>
   </g>
  </g>
  <g id="axes_4">
   <g id="patch_13">
    <path d="M 1700.895781 287.65 
L 2105.895781 287.65 
L 2105.895781 38.17 
L 1700.895781 38.17 
z
" style="fill: #ffffff"/>
   </g>
   <g id="matplotlib.axis_7">
    <g id="xtick_13">
     <g id="line2d_46">
      <g>
       <use xlink:href="#mdaf0a9001d" x="1700.895781" y="287.65" style="stroke: #000000; stroke-width: 0.8"/>
      </g>
     </g>
     <g id="text_38">
      <!-- 0 -->
      <g transform="translate(1692.306406 315.165781) scale(0.27 -0.27)">
       <use xlink:href="#DejaVuSans-30"/>
      </g>
     </g>
    </g>
    <g id="xtick_14">
     <g id="line2d_47">
      <g>
       <use xlink:href="#mdaf0a9001d" x="1827.458281" y="287.65" style="stroke: #000000; stroke-width: 0.8"/>
      </g>
     </g>
     <g id="text_39">
      <!-- 25 -->
      <g transform="translate(1810.279531 315.165781) scale(0.27 -0.27)">
       <use xlink:href="#DejaVuSans-32"/>
       <use xlink:href="#DejaVuSans-35" x="63.623047"/>
      </g>
     </g>
    </g>
    <g id="xtick_15">
     <g id="line2d_48">
      <g>
       <use xlink:href="#mdaf0a9001d" x="1954.020781" y="287.65" style="stroke: #000000; stroke-width: 0.8"/>
      </g>
     </g>
     <g id="text_40">
      <!-- 50 -->
      <g transform="translate(1936.842031 315.165781) scale(0.27 -0.27)">
       <use xlink:href="#DejaVuSans-35"/>
       <use xlink:href="#DejaVuSans-30" x="63.623047"/>
      </g>
     </g>
    </g>
    <g id="xtick_16">
     <g id="line2d_49">
      <g>
       <use xlink:href="#mdaf0a9001d" x="2080.583281" y="287.65" style="stroke: #000000; stroke-width: 0.8"/>
      </g>
     </g>
     <g id="text_41">
      <!-- 75 -->
      <g transform="translate(2063.404531 315.165781) scale(0.27 -0.27)">
       <use xlink:href="#DejaVuSans-37"/>
       <use xlink:href="#DejaVuSans-35" x="63.623047"/>
      </g>
     </g>
    </g>
    <g id="text_42">
     <!-- Time [ms] -->
     <g transform="translate(1827.798125 347.57625) scale(0.3 -0.3)">
      <use xlink:href="#DejaVuSans-54"/>
      <use xlink:href="#DejaVuSans-69" x="57.958984"/>
      <use xlink:href="#DejaVuSans-6d" x="85.742188"/>
      <use xlink:href="#DejaVuSans-65" x="183.154297"/>
      <use xlink:href="#DejaVuSans-20" x="244.677734"/>
      <use xlink:href="#DejaVuSans-5b" x="276.464844"/>
      <use xlink:href="#DejaVuSans-6d" x="315.478516"/>
      <use xlink:href="#DejaVuSans-73" x="412.890625"/>
      <use xlink:href="#DejaVuSans-5d" x="464.990234"/>
     </g>
    </g>
   </g>
   <g id="matplotlib.axis_8">
    <g id="ytick_16">
     <g id="line2d_50">
      <g>
       <use xlink:href="#m2498f98973" x="1700.895781" y="287.65" style="stroke: #000000; stroke-width: 0.8"/>
      </g>
     </g>
     <g id="text_43">
      <!-- 0.00 -->
      <g transform="translate(1633.778594 297.907891) scale(0.27 -0.27)">
       <use xlink:href="#DejaVuSans-30"/>
       <use xlink:href="#DejaVuSans-2e" x="63.623047"/>
       <use xlink:href="#DejaVuSans-30" x="95.410156"/>
       <use xlink:href="#DejaVuSans-30" x="159.033203"/>
      </g>
     </g>
    </g>
    <g id="ytick_17">
     <g id="line2d_51">
      <g>
       <use xlink:href="#m2498f98973" x="1700.895781" y="225.28" style="stroke: #000000; stroke-width: 0.8"/>
      </g>
     </g>
     <g id="text_44">
      <!-- 0.25 -->
      <g transform="translate(1633.778594 235.537891) scale(0.27 -0.27)">
       <use xlink:href="#DejaVuSans-30"/>
       <use xlink:href="#DejaVuSans-2e" x="63.623047"/>
       <use xlink:href="#DejaVuSans-32" x="95.410156"/>
       <use xlink:href="#DejaVuSans-35" x="159.033203"/>
      </g>
     </g>
    </g>
    <g id="ytick_18">
     <g id="line2d_52">
      <g>
       <use xlink:href="#m2498f98973" x="1700.895781" y="162.91" style="stroke: #000000; stroke-width: 0.8"/>
      </g>
     </g>
     <g id="text_45">
      <!-- 0.50 -->
      <g transform="translate(1633.778594 173.167891) scale(0.27 -0.27)">
       <use xlink:href="#DejaVuSans-30"/>
       <use xlink:href="#DejaVuSans-2e" x="63.623047"/>
       <use xlink:href="#DejaVuSans-35" x="95.410156"/>
       <use xlink:href="#DejaVuSans-30" x="159.033203"/>
      </g>
     </g>
    </g>
    <g id="ytick_19">
     <g id="line2d_53">
      <g>
       <use xlink:href="#m2498f98973" x="1700.895781" y="100.54" style="stroke: #000000; stroke-width: 0.8"/>
      </g>
     </g>
     <g id="text_46">
      <!-- 0.75 -->
      <g transform="translate(1633.778594 110.797891) scale(0.27 -0.27)">
       <use xlink:href="#DejaVuSans-30"/>
       <use xlink:href="#DejaVuSans-2e" x="63.623047"/>
       <use xlink:href="#DejaVuSans-37" x="95.410156"/>
       <use xlink:href="#DejaVuSans-35" x="159.033203"/>
      </g>
     </g>
    </g>
    <g id="ytick_20">
     <g id="line2d_54">
      <g>
       <use xlink:href="#m2498f98973" x="1700.895781" y="38.17" style="stroke: #000000; stroke-width: 0.8"/>
      </g>
     </g>
     <g id="text_47">
      <!-- 1.00 -->
      <g transform="translate(1633.778594 48.427891) scale(0.27 -0.27)">
       <use xlink:href="#DejaVuSans-31"/>
       <use xlink:href="#DejaVuSans-2e" x="63.623047"/>
       <use xlink:href="#DejaVuSans-30" x="95.410156"/>
       <use xlink:href="#DejaVuSans-30" x="159.033203"/>
      </g>
     </g>
    </g>
    <g id="text_48">
     <!-- unitless -->
     <g transform="translate(1623.539531 220.995156) rotate(-90) scale(0.3 -0.3)">
      <use xlink:href="#DejaVuSans-75"/>
      <use xlink:href="#DejaVuSans-6e" x="63.378906"/>
      <use xlink:href="#DejaVuSans-69" x="126.757812"/>
      <use xlink:href="#DejaVuSans-74" x="154.541016"/>
      <use xlink:href="#DejaVuSans-6c" x="193.75"/>
      <use xlink:href="#DejaVuSans-65" x="221.533203"/>
      <use xlink:href="#DejaVuSans-73" x="283.056641"/>
      <use xlink:href="#DejaVuSans-73" x="335.15625"/>
     </g>
    </g>
   </g>
   <g id="line2d_55">
    <path d="M 1700.895781 287.65 
L 2105.895781 287.65 
" clip-path="url(#p6149fad6a1)" style="fill: none; stroke: #d3d3d3; stroke-opacity: 0.8; stroke-width: 1.5; stroke-linecap: square"/>
   </g>
   <g id="line2d_56">
    <path d="M 1700.895781 287.65 
L 1716.083281 287.65 
L 1717.095781 212.227787 
L 1718.108281 152.205545 
L 1719.120781 118.645817 
L 1720.133281 107.802944 
L 1722.158281 101.983484 
L 1724.183281 97.298489 
L 1726.208281 93.519197 
L 1727.220781 91.919738 
L 1728.233281 98.0342 
L 1730.258281 126.967715 
L 1732.283281 152.550003 
L 1733.295781 170.288309 
L 1734.308281 200.551145 
L 1735.320781 221.99676 
L 1737.345781 167.574312 
L 1739.370781 123.165048 
L 1740.383281 105.066282 
L 1741.395781 98.925968 
L 1742.408281 94.809669 
L 1745.445781 84.801872 
L 1746.458281 82.904007 
L 1747.470781 79.87206 
L 1748.483281 79.273464 
L 1752.533281 78.750038 
L 1757.595781 78.339243 
L 1762.658281 78.094334 
L 1763.670781 84.042093 
L 1765.695781 114.626829 
L 1767.720781 140.844945 
L 1769.745781 162.998207 
L 1771.770781 181.736463 
L 1773.795781 197.599411 
L 1775.820781 211.037942 
L 1779.870781 235.095951 
L 1782.908281 251.103457 
L 1783.920781 263.191088 
L 1784.933281 221.509669 
L 1785.945781 192.222349 
L 1787.970781 144.37579 
L 1791.008281 92.679529 
L 1793.033281 85.472135 
L 1794.045781 83.412855 
L 1795.058281 80.493528 
L 1796.070781 79.53785 
L 1797.083281 77.737381 
L 1813.283281 77.727329 
L 1815.308281 109.517652 
L 1817.333281 136.436416 
L 1818.345781 148.294212 
L 1819.358281 175.460609 
L 1821.383281 218.145012 
L 1822.395781 204.529045 
L 1823.408281 180.17013 
L 1824.420781 158.775658 
L 1825.433281 139.86732 
L 1827.458281 108.068792 
L 1829.483281 136.95818 
L 1831.508281 161.079188 
L 1833.533281 181.238539 
L 1835.558281 198.103358 
L 1837.583281 212.225803 
L 1839.608281 224.063291 
L 1841.633281 233.995095 
L 1843.658281 242.335985 
L 1845.683281 249.34744 
L 1847.708281 255.24688 
L 1849.733281 260.215259 
L 1851.758281 264.403329 
L 1853.783281 267.9368 
L 1855.808281 270.920604 
L 1857.833281 273.442413 
L 1859.858281 275.575553 
L 1861.883281 277.381408 
L 1862.895781 278.178018 
L 1863.908281 209.63364 
L 1864.920781 178.888568 
L 1865.933281 153.293885 
L 1866.945781 131.391655 
L 1867.958281 112.359946 
L 1868.970781 102.455751 
L 1870.995781 98.084337 
L 1873.020781 94.499085 
L 1874.033281 92.961676 
L 1875.045781 101.668988 
L 1877.070781 130.036089 
L 1880.108281 166.58034 
L 1882.133281 214.944615 
L 1883.145781 225.776759 
L 1884.158281 202.830618 
L 1886.183281 164.195913 
L 1887.195781 147.818826 
L 1889.220781 119.316266 
L 1891.245781 95.755691 
L 1892.258281 92.360083 
L 1893.270781 90.161258 
L 1894.283281 87.464898 
L 1896.308281 83.345028 
L 1897.320781 81.627192 
L 1899.345781 79.227284 
L 1904.408281 78.68871 
L 1905.420781 78.608355 
L 1906.433281 88.065578 
L 1908.458281 118.548532 
L 1909.470781 131.955988 
L 1913.520781 218.7633 
L 1914.533281 200.170619 
L 1915.545781 179.082342 
L 1916.558281 160.445905 
L 1918.583281 129.075225 
L 1918.583281 129.075225 
" clip-path="url(#p6149fad6a1)" style="fill: none; stroke: #000000; stroke-width: 5; stroke-linecap: square"/>
   </g>
   <g id="line2d_57">
    <path d="M 1700.895781 287.65 
L 2105.895781 287.65 
" clip-path="url(#p6149fad6a1)" style="fill: none; stroke: #000000; stroke-width: 5; stroke-linecap: square"/>
   </g>
   <g id="line2d_58">
    <path d="M 1700.895781 89.163172 
L 1702.920781 86.940244 
L 1704.945781 85.091609 
L 1706.970781 83.552485 
L 1708.995781 82.269599 
L 1711.020781 81.199093 
L 1714.058281 79.91423 
L 1717.095781 78.930841 
L 1720.133281 78.176399 
L 1724.183281 77.434183 
L 1728.233281 76.909293 
L 1733.295781 76.461751 
L 1740.383281 76.081717 
L 1749.495781 75.82833 
L 1764.683281 75.663514 
L 1797.083281 75.597856 
L 1827.458281 75.592576 
L 1828.470781 83.33447 
L 1829.483281 112.654192 
L 1830.495781 128.682128 
L 1831.508281 109.521891 
L 1832.520781 112.386142 
L 1834.545781 105.331736 
L 1836.570781 99.642644 
L 1838.595781 95.052733 
L 1840.620781 91.348023 
L 1842.645781 88.356425 
L 1844.670781 85.939507 
L 1846.695781 83.98588 
L 1848.720781 82.405894 
L 1850.745781 81.127369 
L 1852.770781 80.092176 
L 1854.795781 79.253487 
L 1857.833281 78.283378 
L 1858.845781 78.021967 
L 1859.858281 97.095823 
L 1860.870781 134.508267 
L 1861.883281 119.26569 
L 1862.895781 115.957978 
L 1864.920781 108.231328 
L 1866.945781 101.998243 
L 1868.970781 96.967863 
L 1870.995781 92.906285 
L 1873.020781 89.625366 
L 1875.045781 86.973729 
L 1877.070781 84.829547 
L 1879.095781 83.094744 
L 1881.120781 81.690342 
L 1883.145781 80.552721 
L 1885.170781 79.630613 
L 1888.208281 78.56337 
L 1891.245781 77.78254 
L 1894.283281 77.210295 
L 1898.333281 76.676477 
L 1903.395781 76.253354 
L 1910.483281 75.926713 
L 1918.583281 75.748326 
L 1918.583281 75.748326 
" clip-path="url(#p6149fad6a1)" style="fill: none; stroke-dasharray: 22.2,9.6; stroke-dashoffset: 0; stroke: #800080; stroke-width: 6"/>
   </g>
   <g id="line2d_59">
    <path clip-path="url(#p6149fad6a1)" style="fill: none; stroke-dasharray: 11.1,4.8; stroke-dashoffset: 0; stroke: #800080; stroke-width: 3"/>
   </g>
   <g id="line2d_60">
    <path d="M 1700.895781 113.014 
L 2105.895781 113.014 
" clip-path="url(#p6149fad6a1)" style="fill: none; stroke-dasharray: 5,8.25; stroke-dashoffset: 0; stroke: #800080; stroke-opacity: 0.5; stroke-width: 5"/>
   </g>
   <g id="patch_14">
    <path d="M 1700.895781 287.65 
L 1700.895781 38.17 
" style="fill: none; stroke: #000000; stroke-width: 0.8; stroke-linejoin: miter; stroke-linecap: square"/>
   </g>
   <g id="patch_15">
    <path d="M 1700.895781 287.65 
L 2105.895781 287.65 
" style="fill: none; stroke: #000000; stroke-width: 0.8; stroke-linejoin: miter; stroke-linecap: square"/>
   </g>
   <g id="text_49">
    <!-- SAFE-CNS -->
    <g transform="translate(1823.608281 31.515) scale(0.32 -0.32)">
     <defs>
      <path id="DejaVuSans-43" d="M 4122 4306 
L 4122 3641 
Q 3803 3938 3442 4084 
Q 3081 4231 2675 4231 
Q 1875 4231 1450 3742 
Q 1025 3253 1025 2328 
Q 1025 1406 1450 917 
Q 1875 428 2675 428 
Q 3081 428 3442 575 
Q 3803 722 4122 1019 
L 4122 359 
Q 3791 134 3420 21 
Q 3050 -91 2638 -91 
Q 1578 -91 968 557 
Q 359 1206 359 2328 
Q 359 3453 968 4101 
Q 1578 4750 2638 4750 
Q 3056 4750 3426 4639 
Q 3797 4528 4122 4306 
z
" transform="scale(0.015625)"/>
     </defs>
     <use xlink:href="#DejaVuSans-53"/>
     <use xlink:href="#DejaVuSans-41" x="65.351562"/>
     <use xlink:href="#DejaVuSans-46" x="133.759766"/>
     <use xlink:href="#DejaVuSans-45" x="191.279297"/>
     <use xlink:href="#DejaVuSans-2d" x="254.462891"/>
     <use xlink:href="#DejaVuSans-43" x="290.546875"/>
     <use xlink:href="#DejaVuSans-4e" x="360.371094"/>
     <use xlink:href="#DejaVuSans-53" x="435.175781"/>
    </g>
   </g>
   <g id="legend_3">
    <g id="patch_16">
     <path d="M 1957.258281 276.65 
L 2090.495781 276.65 
Q 2094.895781 276.65 2094.895781 272.25 
L 2094.895781 242.158125 
Q 2094.895781 237.758125 2090.495781 237.758125 
L 1957.258281 237.758125 
Q 1952.858281 237.758125 1952.858281 242.158125 
L 1952.858281 272.25 
Q 1952.858281 276.65 1957.258281 276.65 
z
" style="fill: #ffffff; opacity: 0.2; stroke: #cccccc; stroke-linejoin: miter"/>
    </g>
    <g id="line2d_61">
     <path d="M 1961.658281 255.574688 
L 1983.658281 255.574688 
L 2005.658281 255.574688 
" style="fill: none; stroke: #000000; stroke-width: 5; stroke-linecap: square"/>
    </g>
    <g id="text_50">
     <!-- Y-axis -->
     <g transform="translate(2023.258281 263.274688) scale(0.22 -0.22)">
      <use xlink:href="#DejaVuSans-59"/>
      <use xlink:href="#DejaVuSans-2d" x="49.208984"/>
      <use xlink:href="#DejaVuSans-61" x="85.292969"/>
      <use xlink:href="#DejaVuSans-78" x="146.572266"/>
      <use xlink:href="#DejaVuSans-69" x="205.751953"/>
      <use xlink:href="#DejaVuSans-73" x="233.535156"/>
     </g>
    </g>
   </g>
  </g>
  <g id="axes_5">
   <g id="patch_17">
    <path d="M 2227.395781 287.65 
L 2632.395781 287.65 
L 2632.395781 38.17 
L 2227.395781 38.17 
z
" style="fill: #ffffff"/>
   </g>
   <g id="matplotlib.axis_9">
    <g id="xtick_17">
     <g id="line2d_62">
      <g>
       <use xlink:href="#mdaf0a9001d" x="2227.395781" y="287.65" style="stroke: #000000; stroke-width: 0.8"/>
      </g>
     </g>
     <g id="text_51">
      <!-- 0 -->
      <g transform="translate(2218.806406 315.165781) scale(0.27 -0.27)">
       <use xlink:href="#DejaVuSans-30"/>
      </g>
     </g>
    </g>
    <g id="xtick_18">
     <g id="line2d_63">
      <g>
       <use xlink:href="#mdaf0a9001d" x="2353.958281" y="287.65" style="stroke: #000000; stroke-width: 0.8"/>
      </g>
     </g>
     <g id="text_52">
      <!-- 25 -->
      <g transform="translate(2336.779531 315.165781) scale(0.27 -0.27)">
       <use xlink:href="#DejaVuSans-32"/>
       <use xlink:href="#DejaVuSans-35" x="63.623047"/>
      </g>
     </g>
    </g>
    <g id="xtick_19">
     <g id="line2d_64">
      <g>
       <use xlink:href="#mdaf0a9001d" x="2480.520781" y="287.65" style="stroke: #000000; stroke-width: 0.8"/>
      </g>
     </g>
     <g id="text_53">
      <!-- 50 -->
      <g transform="translate(2463.342031 315.165781) scale(0.27 -0.27)">
       <use xlink:href="#DejaVuSans-35"/>
       <use xlink:href="#DejaVuSans-30" x="63.623047"/>
      </g>
     </g>
    </g>
    <g id="xtick_20">
     <g id="line2d_65">
      <g>
       <use xlink:href="#mdaf0a9001d" x="2607.083281" y="287.65" style="stroke: #000000; stroke-width: 0.8"/>
      </g>
     </g>
     <g id="text_54">
      <!-- 75 -->
      <g transform="translate(2589.904531 315.165781) scale(0.27 -0.27)">
       <use xlink:href="#DejaVuSans-37"/>
       <use xlink:href="#DejaVuSans-35" x="63.623047"/>
      </g>
     </g>
    </g>
    <g id="text_55">
     <!-- Time [ms] -->
     <g transform="translate(2354.298125 347.57625) scale(0.3 -0.3)">
      <use xlink:href="#DejaVuSans-54"/>
      <use xlink:href="#DejaVuSans-69" x="57.958984"/>
      <use xlink:href="#DejaVuSans-6d" x="85.742188"/>
      <use xlink:href="#DejaVuSans-65" x="183.154297"/>
      <use xlink:href="#DejaVuSans-20" x="244.677734"/>
      <use xlink:href="#DejaVuSans-5b" x="276.464844"/>
      <use xlink:href="#DejaVuSans-6d" x="315.478516"/>
      <use xlink:href="#DejaVuSans-73" x="412.890625"/>
      <use xlink:href="#DejaVuSans-5d" x="464.990234"/>
     </g>
    </g>
   </g>
   <g id="matplotlib.axis_10">
    <g id="ytick_21">
     <g id="line2d_66">
      <g>
       <use xlink:href="#m2498f98973" x="2227.395781" y="174.032219" style="stroke: #000000; stroke-width: 0.8"/>
      </g>
     </g>
     <g id="text_56">
      <!-- 0 -->
      <g transform="translate(2203.217031 184.290109) scale(0.27 -0.27)">
       <use xlink:href="#DejaVuSans-30"/>
      </g>
     </g>
    </g>
    <g id="ytick_22">
     <g id="line2d_67">
      <g>
       <use xlink:href="#m2498f98973" x="2227.395781" y="49.51" style="stroke: #000000; stroke-width: 0.8"/>
      </g>
     </g>
     <g id="text_57">
      <!-- 1 -->
      <g transform="translate(2203.217031 59.767891) scale(0.27 -0.27)">
       <use xlink:href="#DejaVuSans-31"/>
      </g>
     </g>
    </g>
    <g id="text_58">
     <!-- Normalized -->
     <g transform="translate(2192.977969 247.976406) rotate(-90) scale(0.3 -0.3)">
      <defs>
       <path id="DejaVuSans-6f" d="M 1959 3097 
Q 1497 3097 1228 2736 
Q 959 2375 959 1747 
Q 959 1119 1226 758 
Q 1494 397 1959 397 
Q 2419 397 2687 759 
Q 2956 1122 2956 1747 
Q 2956 2369 2687 2733 
Q 2419 3097 1959 3097 
z
M 1959 3584 
Q 2709 3584 3137 3096 
Q 3566 2609 3566 1747 
Q 3566 888 3137 398 
Q 2709 -91 1959 -91 
Q 1206 -91 779 398 
Q 353 888 353 1747 
Q 353 2609 779 3096 
Q 1206 3584 1959 3584 
z
" transform="scale(0.015625)"/>
       <path id="DejaVuSans-72" d="M 2631 2963 
Q 2534 3019 2420 3045 
Q 2306 3072 2169 3072 
Q 1681 3072 1420 2755 
Q 1159 2438 1159 1844 
L 1159 0 
L 581 0 
L 581 3500 
L 1159 3500 
L 1159 2956 
Q 1341 3275 1631 3429 
Q 1922 3584 2338 3584 
Q 2397 3584 2469 3576 
Q 2541 3569 2628 3553 
L 2631 2963 
z
" transform="scale(0.015625)"/>
       <path id="DejaVuSans-7a" d="M 353 3500 
L 3084 3500 
L 3084 2975 
L 922 459 
L 3084 459 
L 3084 0 
L 275 0 
L 275 525 
L 2438 3041 
L 353 3041 
L 353 3500 
z
" transform="scale(0.015625)"/>
       <path id="DejaVuSans-64" d="M 2906 2969 
L 2906 4863 
L 3481 4863 
L 3481 0 
L 2906 0 
L 2906 525 
Q 2725 213 2448 61 
Q 2172 -91 1784 -91 
Q 1150 -91 751 415 
Q 353 922 353 1747 
Q 353 2572 751 3078 
Q 1150 3584 1784 3584 
Q 2172 3584 2448 3432 
Q 2725 3281 2906 2969 
z
M 947 1747 
Q 947 1113 1208 752 
Q 1469 391 1925 391 
Q 2381 391 2643 752 
Q 2906 1113 2906 1747 
Q 2906 2381 2643 2742 
Q 2381 3103 1925 3103 
Q 1469 3103 1208 2742 
Q 947 2381 947 1747 
z
" transform="scale(0.015625)"/>
      </defs>
      <use xlink:href="#DejaVuSans-4e"/>
      <use xlink:href="#DejaVuSans-6f" x="74.804688"/>
      <use xlink:href="#DejaVuSans-72" x="135.986328"/>
      <use xlink:href="#DejaVuSans-6d" x="175.349609"/>
      <use xlink:href="#DejaVuSans-61" x="272.761719"/>
      <use xlink:href="#DejaVuSans-6c" x="334.041016"/>
      <use xlink:href="#DejaVuSans-69" x="361.824219"/>
      <use xlink:href="#DejaVuSans-7a" x="389.607422"/>
      <use xlink:href="#DejaVuSans-65" x="442.097656"/>
      <use xlink:href="#DejaVuSans-64" x="503.621094"/>
     </g>
    </g>
   </g>
   <g id="line2d_68">
    <path d="M 2227.395781 174.032219 
L 2632.395781 174.032219 
" clip-path="url(#pfa1819e9ff)" style="fill: none; stroke: #d3d3d3; stroke-opacity: 0.8; stroke-width: 1.5; stroke-linecap: square"/>
   </g>
   <g id="line2d_69">
    <path d="M 2227.395781 174.032219 
L 2242.583281 174.032219 
L 2243.595781 175.403766 
L 2244.608281 177.977568 
L 2245.620781 181.360296 
L 2247.645781 189.333837 
L 2249.670781 198.575565 
L 2251.695781 209.073686 
L 2253.720781 220.818648 
L 2259.795781 257.527618 
L 2260.808281 262.211447 
L 2261.820781 266.057433 
L 2262.833281 269.265168 
L 2263.845781 271.844224 
L 2264.858281 273.807419 
L 2265.870781 275.158242 
L 2266.883281 275.924348 
L 2267.895781 276.298435 
L 2268.908281 276.31 
L 2269.920781 275.96737 
L 2270.933281 275.261978 
L 2271.945781 274.203899 
L 2272.958281 272.808451 
L 2273.970781 271.053337 
L 2274.983281 268.979374 
L 2275.995781 266.594722 
L 2278.020781 260.896911 
L 2280.045781 253.966296 
L 2282.070781 245.808047 
L 2284.095781 236.426477 
L 2286.120781 225.825061 
L 2288.145781 214.006823 
L 2292.195781 187.948773 
L 2307.383281 90.011275 
L 2310.420781 71.93976 
L 2311.433281 67.186597 
L 2312.445781 63.07028 
L 2313.458281 59.553392 
L 2314.470781 56.635667 
L 2315.483281 54.24689 
L 2316.495781 52.429777 
L 2317.508281 51.171788 
L 2318.520781 50.267238 
L 2319.533281 49.721261 
L 2320.545781 49.51 
L 2321.558281 49.651423 
L 2322.570781 50.113472 
L 2323.583281 50.912321 
L 2324.595781 52.017327 
L 2325.608281 53.428041 
L 2326.620781 55.143999 
L 2327.633281 57.164791 
L 2328.645781 59.490047 
L 2330.670781 65.052559 
L 2332.695781 71.829141 
L 2334.720781 79.817942 
L 2336.745781 89.017377 
L 2338.770781 99.425989 
L 2344.845781 133.376539 
L 2345.858281 138.184006 
L 2346.870781 142.337394 
L 2347.883281 145.814187 
L 2348.895781 148.577582 
L 2349.908281 150.755666 
L 2350.920781 152.368687 
L 2351.933281 153.43244 
L 2352.945781 153.959322 
L 2389.395781 153.959322 
L 2390.408281 152.699511 
L 2391.420781 150.766591 
L 2392.433281 148.20928 
L 2393.445781 145.057427 
L 2394.458281 141.331415 
L 2396.483281 132.696404 
L 2398.508281 122.819361 
L 2400.533281 111.70712 
L 2406.608281 76.814087 
L 2407.620781 71.915718 
L 2408.633281 67.795606 
L 2409.645781 64.231739 
L 2410.658281 61.195966 
L 2411.670781 58.64931 
L 2412.683281 56.627194 
L 2413.695781 55.098431 
L 2414.708281 54.050175 
L 2415.720781 53.495119 
L 2416.733281 53.423341 
L 2417.745781 53.82693 
L 2418.758281 54.580788 
L 2419.770781 55.666902 
L 2420.783281 57.096413 
L 2421.795781 58.86281 
L 2422.808281 60.964049 
L 2423.820781 63.398029 
L 2424.833281 66.156686 
L 2426.858281 72.634494 
L 2428.883281 80.340502 
L 2430.908281 89.27034 
L 2436.983281 118.962776 
L 2437.995781 122.844107 
L 2439.008281 126.180734 
L 2440.020781 128.823389 
L 2441.033281 130.873736 
L 2442.045781 132.391044 
L 2443.058281 133.391132 
L 2444.070781 133.886426 
L 2445.083281 133.886426 
L 2445.083281 133.886426 
" clip-path="url(#pfa1819e9ff)" style="fill: none; stroke: #e41a1c; stroke-width: 5; stroke-linecap: square"/>
   </g>
   <g id="line2d_70">
    <path d="M 2227.395781 174.032219 
L 2242.583281 174.032219 
L 2243.595781 174.179913 
L 2245.620781 174.884192 
L 2247.645781 175.931712 
L 2249.670781 177.270057 
L 2251.695781 178.931504 
L 2253.720781 180.948239 
L 2256.758281 184.453397 
L 2259.795781 188.228679 
L 2260.808281 189.268951 
L 2262.833281 190.904634 
L 2263.845781 191.529512 
L 2264.858281 192.018386 
L 2265.870781 192.363858 
L 2267.895781 192.665654 
L 2269.920781 192.571994 
L 2271.945781 192.054522 
L 2272.958281 191.631894 
L 2274.983281 190.432485 
L 2277.008281 188.773539 
L 2279.033281 186.626201 
L 2281.058281 183.959216 
L 2283.083281 180.741213 
L 2285.108281 176.940673 
L 2287.133281 172.525982 
L 2289.158281 167.465455 
L 2293.208281 156.24231 
L 2297.258281 144.308294 
L 2301.308281 131.667406 
L 2307.383281 111.6799 
L 2310.420781 101.832018 
L 2311.433281 99.176847 
L 2312.445781 96.849721 
L 2313.458281 94.837807 
L 2314.470781 93.149022 
L 2315.483281 91.750315 
L 2316.495781 90.674107 
L 2317.508281 89.92058 
L 2318.520781 89.372673 
L 2319.533281 89.038288 
L 2320.545781 88.907478 
L 2321.558281 88.995997 
L 2322.570781 89.288309 
L 2323.583281 89.799073 
L 2324.595781 90.513023 
L 2325.608281 91.433986 
L 2326.620781 92.565773 
L 2327.633281 93.912218 
L 2328.645781 95.477176 
L 2329.658281 97.264493 
L 2331.683281 101.521769 
L 2333.708281 106.715286 
L 2335.733281 112.87647 
L 2337.758281 120.036816 
L 2339.783281 128.22796 
L 2345.858281 153.721463 
L 2346.870781 157.019961 
L 2347.883281 159.804528 
L 2348.895781 162.036332 
L 2349.908281 163.810079 
L 2350.920781 165.134517 
L 2351.933281 166.015114 
L 2352.945781 166.454826 
L 2389.395781 166.454826 
L 2390.408281 165.089729 
L 2391.420781 162.982263 
L 2392.433281 160.176811 
L 2393.445781 156.697914 
L 2394.458281 152.560204 
L 2396.483281 142.882866 
L 2398.508281 131.680777 
L 2400.533281 118.928342 
L 2407.620781 72.082563 
L 2408.633281 67.118996 
L 2409.645781 62.801563 
L 2410.658281 59.103454 
L 2411.670781 55.984037 
L 2412.683281 53.493523 
L 2413.695781 51.600353 
L 2414.708281 50.29517 
L 2415.720781 49.600337 
L 2416.733281 49.51 
L 2417.745781 50.020656 
L 2418.758281 50.979578 
L 2419.770781 52.368445 
L 2420.783281 54.206052 
L 2421.795781 56.488607 
L 2422.808281 59.21799 
L 2423.820781 62.395966 
L 2424.833281 66.016429 
L 2426.858281 74.584338 
L 2428.883281 84.88026 
L 2430.908281 96.931364 
L 2434.958281 124.441076 
L 2436.983281 137.791979 
L 2437.995781 143.22543 
L 2439.008281 147.91881 
L 2440.020781 151.653817 
L 2441.033281 154.565484 
L 2442.045781 156.730402 
L 2443.058281 158.164073 
L 2444.070781 158.877432 
L 2445.083281 158.877432 
L 2445.083281 158.877432 
" clip-path="url(#pfa1819e9ff)" style="fill: none; stroke: #377eb8; stroke-width: 5; stroke-linecap: square"/>
   </g>
   <g id="line2d_71">
    <path d="M 2227.395781 174.032219 
L 2245.620781 174.132202 
L 2249.670781 174.466303 
L 2252.708281 174.894393 
L 2256.758281 175.74638 
L 2261.820781 176.975525 
L 2264.858281 177.430025 
L 2267.895781 177.599529 
L 2270.933281 177.513315 
L 2273.970781 177.121403 
L 2275.995781 176.661605 
L 2278.020781 176.023735 
L 2280.045781 175.184089 
L 2282.070781 174.117637 
L 2284.095781 172.798026 
L 2286.120781 171.197569 
L 2288.145781 169.287278 
L 2290.170781 167.055914 
L 2293.208281 163.372718 
L 2296.245781 159.336072 
L 2299.283281 154.929926 
L 2302.320781 150.138266 
L 2306.370781 143.212308 
L 2310.420781 136.002297 
L 2312.445781 133.182566 
L 2313.458281 132.023012 
L 2314.470781 131.038239 
L 2315.483281 130.213136 
L 2316.495781 129.570977 
L 2318.520781 128.781891 
L 2319.533281 128.575567 
L 2320.545781 128.493967 
L 2321.558281 128.549786 
L 2322.570781 128.736096 
L 2323.583281 129.065104 
L 2324.595781 129.529836 
L 2325.608281 130.135562 
L 2326.620781 130.887624 
L 2327.633281 131.791454 
L 2328.645781 132.852576 
L 2330.670781 135.469203 
L 2332.695781 138.783442 
L 2334.720781 142.842702 
L 2336.745781 147.695753 
L 2338.770781 153.392669 
L 2342.820781 166.466163 
L 2345.858281 176.359146 
L 2346.870781 178.998278 
L 2347.883281 181.245093 
L 2348.895781 183.061027 
L 2349.908281 184.516285 
L 2350.920781 185.611891 
L 2351.933281 186.346312 
L 2352.945781 186.716014 
L 2389.395781 186.716014 
L 2390.408281 185.225789 
L 2391.420781 182.910856 
L 2392.433281 179.810202 
L 2393.445781 175.941652 
L 2394.458281 171.312443 
L 2396.483281 160.385871 
L 2398.508281 147.58599 
L 2400.533281 132.841853 
L 2404.583281 100.78579 
L 2406.608281 84.354684 
L 2407.620781 77.272192 
L 2408.633281 71.247848 
L 2409.645781 65.97845 
L 2410.658281 61.439859 
L 2411.670781 57.590329 
L 2412.683281 54.500014 
L 2413.695781 52.138066 
L 2414.708281 50.500851 
L 2415.720781 49.624543 
L 2416.733281 49.51 
L 2417.745781 50.160952 
L 2418.758281 51.389828 
L 2419.770781 53.179103 
L 2420.783281 55.558948 
L 2421.795781 58.530514 
L 2422.808281 62.102294 
L 2423.820781 66.282667 
L 2424.833281 71.069646 
L 2426.858281 82.486739 
L 2428.883281 96.345832 
L 2430.908281 112.73073 
L 2433.945781 140.999727 
L 2436.983281 169.383947 
L 2437.995781 177.047002 
L 2439.008281 183.698121 
L 2440.020781 189.016431 
L 2441.033281 193.18212 
L 2442.045781 196.294124 
L 2443.058281 198.364703 
L 2444.070781 199.39981 
L 2445.083281 199.39981 
L 2445.083281 199.39981 
" clip-path="url(#pfa1819e9ff)" style="fill: none; stroke: #4daf4a; stroke-width: 5; stroke-linecap: square"/>
   </g>
   <g id="line2d_72">
    <path d="M 2227.395781 174.032219 
L 2632.395781 174.032219 
" clip-path="url(#pfa1819e9ff)" style="fill: none; stroke: #000000; stroke-opacity: 0.5; stroke-linecap: square"/>
   </g>
   <g id="line2d_73">
    <path d="M 2227.395781 174.032219 
L 2632.395781 174.032219 
" clip-path="url(#pfa1819e9ff)" style="fill: none; stroke: #000000; stroke-width: 5; stroke-linecap: square"/>
   </g>
   <g id="patch_18">
    <path d="M 2227.395781 287.65 
L 2227.395781 38.17 
" style="fill: none; stroke: #000000; stroke-width: 0.8; stroke-linejoin: miter; stroke-linecap: square"/>
   </g>
   <g id="patch_19">
    <path d="M 2227.395781 287.65 
L 2632.395781 287.65 
" style="fill: none; stroke: #000000; stroke-width: 0.8; stroke-linejoin: miter; stroke-linecap: square"/>
   </g>
   <g id="text_59">
    <!-- Moments -->
    <g transform="translate(2356.123281 31.515) scale(0.32 -0.32)">
     <defs>
      <path id="DejaVuSans-4d" d="M 628 4666 
L 1569 4666 
L 2759 1491 
L 3956 4666 
L 4897 4666 
L 4897 0 
L 4281 0 
L 4281 4097 
L 3078 897 
L 2444 897 
L 1241 4097 
L 1241 0 
L 628 0 
L 628 4666 
z
" transform="scale(0.015625)"/>
     </defs>
     <use xlink:href="#DejaVuSans-4d"/>
     <use xlink:href="#DejaVuSans-6f" x="86.279297"/>
     <use xlink:href="#DejaVuSans-6d" x="147.460938"/>
     <use xlink:href="#DejaVuSans-65" x="244.873047"/>
     <use xlink:href="#DejaVuSans-6e" x="306.396484"/>
     <use xlink:href="#DejaVuSans-74" x="369.775391"/>
     <use xlink:href="#DejaVuSans-73" x="408.984375"/>
    </g>
   </g>
   <g id="legend_4">
    <g id="patch_20">
     <path d="M 2513.616406 276.65 
L 2616.995781 276.65 
Q 2621.395781 276.65 2621.395781 272.25 
L 2621.395781 177.574375 
Q 2621.395781 173.174375 2616.995781 173.174375 
L 2513.616406 173.174375 
Q 2509.216406 173.174375 2509.216406 177.574375 
L 2509.216406 272.25 
Q 2509.216406 276.65 2513.616406 276.65 
z
" style="fill: #ffffff; opacity: 0.2; stroke: #cccccc; stroke-linejoin: miter"/>
    </g>
    <g id="line2d_74">
     <path d="M 2518.016406 190.990938 
L 2540.016406 190.990938 
L 2562.016406 190.990938 
" style="fill: none; stroke: #e41a1c; stroke-width: 5; stroke-linecap: square"/>
    </g>
    <g id="text_60">
     <!-- M0 -->
     <g transform="translate(2579.616406 198.690938) scale(0.22 -0.22)">
      <use xlink:href="#DejaVuSans-4d"/>
      <use xlink:href="#DejaVuSans-30" x="86.279297"/>
     </g>
    </g>
    <g id="line2d_75">
     <path d="M 2518.016406 223.282813 
L 2540.016406 223.282813 
L 2562.016406 223.282813 
" style="fill: none; stroke: #377eb8; stroke-width: 5; stroke-linecap: square"/>
    </g>
    <g id="text_61">
     <!-- M1 -->
     <g transform="translate(2579.616406 230.982813) scale(0.22 -0.22)">
      <use xlink:href="#DejaVuSans-4d"/>
      <use xlink:href="#DejaVuSans-31" x="86.279297"/>
     </g>
    </g>
    <g id="line2d_76">
     <path d="M 2518.016406 255.574688 
L 2540.016406 255.574688 
L 2562.016406 255.574688 
" style="fill: none; stroke: #4daf4a; stroke-width: 5; stroke-linecap: square"/>
    </g>
    <g id="text_62">
     <!-- M2 -->
     <g transform="translate(2579.616406 263.274688) scale(0.22 -0.22)">
      <use xlink:href="#DejaVuSans-4d"/>
      <use xlink:href="#DejaVuSans-32" x="86.279297"/>
     </g>
    </g>
   </g>
  </g>
 </g>
 <defs>
  <clipPath id="pa40150165f">
   <rect x="121.395781" y="38.17" width="405" height="249.48"/>
  </clipPath>
  <clipPath id="paf931d921e">
   <rect x="647.895781" y="38.17" width="405" height="249.48"/>
  </clipPath>
  <clipPath id="p765ee0521d">
   <rect x="1174.395781" y="38.17" width="405" height="249.48"/>
  </clipPath>
  <clipPath id="p6149fad6a1">
   <rect x="1700.895781" y="38.17" width="405" height="249.48"/>
  </clipPath>
  <clipPath id="pfa1819e9ff">
   <rect x="2227.395781" y="38.17" width="405" height="249.48"/>
  </clipPath>
 </defs>
</svg>
