<?xml version="1.0" encoding="utf-8" standalone="no"?>
<!DOCTYPE svg PUBLIC "-//W3C//DTD SVG 1.1//EN"
  "http://www.w3.org/Graphics/SVG/1.1/DTD/svg11.dtd">
<svg xmlns:xlink="http://www.w3.org/1999/xlink" width="2137.395781pt" height="361.015312pt" viewBox="0 0 2137.395781 361.015312" xmlns="http://www.w3.org/2000/svg" version="1.1">
 <metadata>
  <rdf:RDF xmlns:dc="http://purl.org/dc/elements/1.1/" xmlns:cc="http://creativecommons.org/ns#" xmlns:rdf="http://www.w3.org/1999/02/22-rdf-syntax-ns#">
   <cc:Work>
    <dc:type rdf:resource="http://purl.org/dc/dcmitype/StillImage"/>
    <dc:date>2026-01-23T14:19:19.098177</dc:date>
    <dc:format>image/svg+xml</dc:format>
    <dc:creator>
     <cc:Agent>
      <dc:title>Matplotlib v3.9.0, https://matplotlib.org/</dc:title>
     </cc:Agent>
    </dc:creator>
   </cc:Work>
  </rdf:RDF>
 </metadata>
 <defs>
  <style type="text/css">*{stroke-linejoin: round; stroke-linecap: butt}</style>
 </defs>
 <g id="figure_1">
  <g id="patch_1">
   <path d="M 0 361.015312 
L 2137.395781 361.015312 
L 2137.395781 0 
L 0 0 
z
" style="fill: #ffffff"/>
  </g>
  <g id="axes_1">
   <g id="patch_2">
    <path d="M 121.395781 287.65 
L 531.354965 287.65 
L 531.354965 38.17 
L 121.395781 38.17 
z
" style="fill: #ffffff"/>
   </g>
   <g id="PolyCollection_1">
    <defs>
     <path id="m6f5ffe6a9e" d="M 121.395781 -198.105312 
L 121.395781 -198.105312 
L 122.141162 -198.105312 
L 122.886542 -198.105312 
L 123.631922 -198.105312 
L 124.377303 -198.105312 
L 125.122683 -198.105312 
L 125.868063 -198.105312 
L 126.613444 -198.105312 
L 127.358824 -198.105312 
L 128.104204 -198.105312 
L 128.849585 -198.105312 
L 129.594965 -198.105312 
L 130.340345 -198.105312 
L 131.085726 -198.105312 
L 131.831106 -198.105312 
L 132.576486 -198.105312 
L 133.321867 -198.105312 
L 134.067247 -198.105312 
L 134.812627 -198.105312 
L 135.558008 -198.105312 
L 136.303388 -198.105312 
L 137.048768 -198.105312 
L 137.794149 -198.105312 
L 138.539529 -198.105312 
L 139.284909 -198.105312 
L 140.03029 -198.105312 
L 140.77567 -198.105312 
L 141.52105 -198.105312 
L 142.266431 -198.105312 
L 143.011811 -198.105312 
L 143.757191 -198.105312 
L 144.502572 -198.105312 
L 145.247952 -198.105312 
L 145.993332 -198.105312 
L 146.738713 -198.105312 
L 147.484093 -198.105312 
L 148.229473 -198.105312 
L 148.974854 -198.105312 
L 149.720234 -198.105312 
L 150.465614 -198.105312 
L 151.210995 -198.105312 
L 151.956375 -198.105312 
L 152.701755 -198.105312 
L 153.447136 -198.105312 
L 154.192516 -198.105312 
L 154.937896 -198.105312 
L 155.683277 -198.105312 
L 156.428657 -198.105312 
L 157.174037 -198.105312 
L 157.919418 -198.105312 
L 158.664798 -198.105312 
L 159.410178 -198.105312 
L 160.155559 -198.105312 
L 160.900939 -198.105312 
L 161.646319 -198.105312 
L 162.3917 -198.105312 
L 163.13708 -198.105312 
L 163.88246 -198.105312 
L 164.627841 -198.105312 
L 165.373221 -198.105312 
L 166.118601 -198.105312 
L 166.863982 -198.105312 
L 167.609362 -198.105312 
L 168.354742 -198.105312 
L 169.100123 -198.105312 
L 169.845503 -198.105312 
L 170.590883 -198.105312 
L 171.336264 -198.105312 
L 172.081644 -198.105312 
L 172.827024 -198.105312 
L 173.572405 -198.105312 
L 174.317785 -198.105312 
L 175.063165 -198.105312 
L 175.808546 -198.105312 
L 176.553926 -198.105312 
L 177.299306 -198.105312 
L 178.044687 -198.105312 
L 178.790067 -198.105312 
L 179.535447 -198.105312 
L 180.280828 -198.105312 
L 181.026208 -198.105312 
L 181.771588 -198.105312 
L 182.516969 -198.105312 
L 183.262349 -198.105312 
L 184.007729 -198.105312 
L 184.75311 -198.105312 
L 185.49849 -198.105312 
L 186.24387 -198.105312 
L 186.989251 -198.105312 
L 187.734631 -198.105312 
L 188.480011 -198.105312 
L 189.225392 -198.105312 
L 189.970772 -198.105312 
L 190.716152 -198.105312 
L 191.461533 -198.105312 
L 192.206913 -198.105312 
L 192.952293 -198.105312 
L 193.697674 -198.105312 
L 194.443054 -198.105312 
L 195.188434 -198.105312 
L 195.933815 -198.105312 
L 196.679195 -198.105312 
L 197.424575 -198.105312 
L 198.169956 -198.105312 
L 198.915336 -198.105312 
L 199.660716 -198.105312 
L 200.406097 -198.105312 
L 201.151477 -198.105312 
L 201.896857 -198.105312 
L 202.642238 -198.105312 
L 203.387618 -198.105312 
L 204.132998 -198.105312 
L 204.878379 -198.105312 
L 205.623759 -198.105312 
L 206.369139 -198.105312 
L 207.11452 -198.105312 
L 207.8599 -198.105312 
L 208.60528 -198.105312 
L 209.350661 -198.105312 
L 210.096041 -198.105312 
L 210.841421 -198.105312 
L 211.586802 -198.105312 
L 212.332182 -198.105312 
L 213.077562 -198.105312 
L 213.822943 -198.105312 
L 214.568323 -198.105312 
L 215.313703 -198.105312 
L 216.059084 -198.105312 
L 216.804464 -198.105312 
L 217.549844 -198.105312 
L 218.295225 -198.105312 
L 219.040605 -198.105312 
L 219.785985 -198.105312 
L 220.531366 -198.105312 
L 221.276746 -198.105312 
L 222.022126 -198.105312 
L 222.767507 -198.105312 
L 223.512887 -198.105312 
L 224.258267 -198.105312 
L 225.003648 -198.105312 
L 225.749028 -198.105312 
L 226.494408 -198.105312 
L 227.239789 -198.105312 
L 227.985169 -198.105312 
L 228.730549 -198.105312 
L 229.47593 -198.105312 
L 230.22131 -198.105312 
L 230.96669 -198.105312 
L 231.712071 -198.105312 
L 232.457451 -198.105312 
L 233.202831 -198.105312 
L 233.948212 -198.105312 
L 234.693592 -198.105312 
L 235.438972 -198.105312 
L 236.184353 -198.105312 
L 236.929733 -198.105312 
L 237.675113 -198.105312 
L 238.420494 -198.105312 
L 239.165874 -198.105312 
L 239.911254 -198.105312 
L 240.656635 -198.105312 
L 241.402015 -198.105312 
L 242.147395 -198.105312 
L 242.892776 -198.105312 
L 243.638156 -198.105312 
L 244.383536 -198.105312 
L 245.128917 -198.105312 
L 245.874297 -198.105312 
L 246.619677 -198.105312 
L 247.365058 -198.105312 
L 248.110438 -198.105312 
L 248.855818 -198.105312 
L 249.601199 -198.105312 
L 250.346579 -198.105312 
L 251.091959 -198.105312 
L 251.83734 -198.105312 
L 252.58272 -198.105312 
L 253.3281 -198.105312 
L 254.073481 -198.105312 
L 254.818861 -198.105312 
L 255.564241 -198.105312 
L 256.309622 -198.105312 
L 257.055002 -198.105312 
L 257.800382 -198.105312 
L 258.545763 -198.105312 
L 259.291143 -198.105312 
L 260.036523 -198.105312 
L 260.781904 -198.105312 
L 261.527284 -198.105312 
L 262.272664 -198.105312 
L 263.018045 -198.105312 
L 263.763425 -198.105312 
L 264.508805 -198.105312 
L 265.254186 -198.105312 
L 265.999566 -198.105312 
L 266.744946 -198.105312 
L 267.490327 -198.105312 
L 268.235707 -198.105312 
L 268.981087 -198.105312 
L 269.726468 -198.105312 
L 269.726468 -198.105312 
L 269.726468 -198.105312 
L 268.981087 -202.336402 
L 268.235707 -206.707403 
L 267.490327 -211.155709 
L 266.744946 -215.615906 
L 265.999566 -220.04649 
L 265.254186 -224.450504 
L 264.508805 -228.830397 
L 263.763425 -234.949641 
L 263.018045 -242.154888 
L 262.272664 -249.390703 
L 261.527284 -256.744452 
L 260.781904 -264.257691 
L 260.036523 -271.944587 
L 259.291143 -279.908322 
L 258.545763 -288.050772 
L 257.800382 -300.097967 
L 257.055002 -314.161384 
L 256.309622 -314.72979 
L 255.564241 -314.777479 
L 254.818861 -314.782899 
L 254.073481 -314.785432 
L 253.3281 -314.788115 
L 252.58272 -314.786763 
L 251.83734 -314.789123 
L 251.091959 -314.795433 
L 250.346579 -314.790066 
L 249.601199 -314.515672 
L 248.855818 -310.348005 
L 248.110438 -306.181992 
L 247.365058 -302.013877 
L 246.619677 -297.837937 
L 245.874297 -293.654882 
L 245.128917 -289.46615 
L 244.383536 -285.269509 
L 243.638156 -281.066911 
L 242.892776 -276.85374 
L 242.147395 -272.632866 
L 241.402015 -268.399659 
L 240.656635 -264.156606 
L 239.911254 -259.898996 
L 239.165874 -255.628895 
L 238.420494 -251.341562 
L 237.675113 -243.406946 
L 236.929733 -235.018258 
L 236.184353 -226.230177 
L 235.438972 -216.819582 
L 234.693592 -198.105312 
L 233.948212 -198.105312 
L 233.202831 -198.105312 
L 232.457451 -198.105312 
L 231.712071 -198.105312 
L 230.96669 -198.105312 
L 230.22131 -198.105312 
L 229.47593 -198.105312 
L 228.730549 -198.105312 
L 227.985169 -198.105312 
L 227.239789 -198.105312 
L 226.494408 -198.105312 
L 225.749028 -198.105312 
L 225.003648 -198.105312 
L 224.258267 -198.105312 
L 223.512887 -198.105312 
L 222.767507 -198.105312 
L 222.022126 -198.105312 
L 221.276746 -198.105312 
L 220.531366 -198.105312 
L 219.785985 -198.105312 
L 219.040605 -198.105312 
L 218.295225 -198.105312 
L 217.549844 -198.105312 
L 216.804464 -198.105312 
L 216.059084 -198.105312 
L 215.313703 -198.105312 
L 214.568323 -198.105312 
L 213.822943 -198.105312 
L 213.077562 -198.105312 
L 212.332182 -198.105312 
L 211.586802 -198.105312 
L 210.841421 -198.105312 
L 210.096041 -198.105312 
L 209.350661 -198.105312 
L 208.60528 -198.105312 
L 207.8599 -198.105312 
L 207.11452 -196.497949 
L 206.369139 -189.175821 
L 205.623759 -181.71602 
L 204.878379 -174.171126 
L 204.132998 -166.429844 
L 203.387618 -158.426832 
L 202.642238 -150.092113 
L 201.896857 -138.177695 
L 201.151477 -126.663625 
L 200.406097 -120.03871 
L 199.660716 -120.11324 
L 198.915336 -120.115825 
L 198.169956 -120.185996 
L 197.424575 -120.250803 
L 196.679195 -120.324585 
L 195.933815 -120.402781 
L 195.188434 -120.485789 
L 194.443054 -120.539367 
L 193.697674 -120.587586 
L 192.952293 -124.67745 
L 192.206913 -128.645674 
L 191.461533 -132.677686 
L 190.716152 -136.693859 
L 189.970772 -140.744837 
L 189.225392 -144.757371 
L 188.480011 -148.818791 
L 187.734631 -152.832616 
L 186.989251 -156.881744 
L 186.24387 -160.928217 
L 185.49849 -164.969497 
L 184.75311 -169.03326 
L 184.007729 -173.074036 
L 183.262349 -177.152083 
L 182.516969 -181.202448 
L 181.771588 -185.275475 
L 181.026208 -189.333676 
L 180.280828 -193.405263 
L 179.535447 -197.475004 
L 178.790067 -201.558343 
L 178.044687 -205.632034 
L 177.299306 -209.719336 
L 176.553926 -213.815475 
L 175.808546 -217.908344 
L 175.063165 -222.006532 
L 174.317785 -226.114812 
L 173.572405 -230.223157 
L 172.827024 -234.314412 
L 172.081644 -240.598159 
L 171.336264 -246.627141 
L 170.590883 -254.294806 
L 169.845503 -261.546484 
L 169.100123 -269.653513 
L 168.354742 -276.927396 
L 167.609362 -284.576319 
L 166.863982 -291.564477 
L 166.118601 -298.883309 
L 165.373221 -305.037179 
L 164.627841 -310.150129 
L 163.88246 -312.703294 
L 163.13708 -312.716692 
L 162.3917 -312.791576 
L 161.646319 -312.873493 
L 160.900939 -312.938421 
L 160.155559 -313.026563 
L 159.410178 -313.119276 
L 158.664798 -313.164576 
L 157.919418 -313.257471 
L 157.174037 -313.314631 
L 156.428657 -313.322147 
L 155.683277 -313.487834 
L 154.937896 -313.48704 
L 154.192516 -313.659756 
L 153.447136 -313.613242 
L 152.701755 -313.817967 
L 151.956375 -313.741899 
L 151.210995 -313.844646 
L 150.465614 -313.982627 
L 149.720234 -313.845055 
L 148.974854 -313.990125 
L 148.229473 -314.147231 
L 147.484093 -313.945879 
L 146.738713 -314.321915 
L 145.993332 -310.556477 
L 145.247952 -306.514742 
L 144.502572 -302.493321 
L 143.757191 -298.400996 
L 143.011811 -294.124408 
L 142.266431 -289.975934 
L 141.52105 -285.7158 
L 140.77567 -281.504197 
L 140.03029 -277.250701 
L 139.284909 -272.980335 
L 138.539529 -268.695716 
L 137.794149 -264.39473 
L 137.048768 -260.075046 
L 136.303388 -255.732631 
L 135.558008 -251.368994 
L 134.812627 -246.752372 
L 134.067247 -235.800421 
L 133.321867 -222.68119 
L 132.576486 -198.105312 
L 131.831106 -198.105312 
L 131.085726 -198.105312 
L 130.340345 -198.105312 
L 129.594965 -198.105312 
L 128.849585 -198.105312 
L 128.104204 -198.105312 
L 127.358824 -198.105312 
L 126.613444 -198.105312 
L 125.868063 -198.105312 
L 125.122683 -198.105312 
L 124.377303 -198.105312 
L 123.631922 -198.105312 
L 122.886542 -198.105312 
L 122.141162 -198.105312 
L 121.395781 -198.105312 
z
" style="stroke: #0173b2; stroke-opacity: 0.75"/>
    </defs>
    <g clip-path="url(#p78d5b3b3d2)">
     <use xlink:href="#m6f5ffe6a9e" x="0" y="361.015312" style="fill: #0173b2; fill-opacity: 0.75; stroke: #0173b2; stroke-opacity: 0.75"/>
    </g>
   </g>
   <g id="matplotlib.axis_1">
    <g id="xtick_1">
     <g id="line2d_1">
      <defs>
       <path id="mbe5be9273e" d="M 0 0 
L 0 3.5 
" style="stroke: #000000; stroke-width: 0.8"/>
      </defs>
      <g>
       <use xlink:href="#mbe5be9273e" x="121.395781" y="287.65" style="stroke: #000000; stroke-width: 0.8"/>
      </g>
     </g>
     <g id="text_1">
      <!-- 0 -->
      <g transform="translate(112.806406 315.165781) scale(0.27 -0.27)">
       <defs>
        <path id="DejaVuSans-30" d="M 2034 4250 
Q 1547 4250 1301 3770 
Q 1056 3291 1056 2328 
Q 1056 1369 1301 889 
Q 1547 409 2034 409 
Q 2525 409 2770 889 
Q 3016 1369 3016 2328 
Q 3016 3291 2770 3770 
Q 2525 4250 2034 4250 
z
M 2034 4750 
Q 2819 4750 3233 4129 
Q 3647 3509 3647 2328 
Q 3647 1150 3233 529 
Q 2819 -91 2034 -91 
Q 1250 -91 836 529 
Q 422 1150 422 2328 
Q 422 3509 836 4129 
Q 1250 4750 2034 4750 
z
" transform="scale(0.015625)"/>
       </defs>
       <use xlink:href="#DejaVuSans-30"/>
      </g>
     </g>
    </g>
    <g id="xtick_2">
     <g id="line2d_2">
      <g>
       <use xlink:href="#mbe5be9273e" x="214.568323" y="287.65" style="stroke: #000000; stroke-width: 0.8"/>
      </g>
     </g>
     <g id="text_2">
      <!-- 25 -->
      <g transform="translate(197.389573 315.165781) scale(0.27 -0.27)">
       <defs>
        <path id="DejaVuSans-32" d="M 1228 531 
L 3431 531 
L 3431 0 
L 469 0 
L 469 531 
Q 828 903 1448 1529 
Q 2069 2156 2228 2338 
Q 2531 2678 2651 2914 
Q 2772 3150 2772 3378 
Q 2772 3750 2511 3984 
Q 2250 4219 1831 4219 
Q 1534 4219 1204 4116 
Q 875 4013 500 3803 
L 500 4441 
Q 881 4594 1212 4672 
Q 1544 4750 1819 4750 
Q 2544 4750 2975 4387 
Q 3406 4025 3406 3419 
Q 3406 3131 3298 2873 
Q 3191 2616 2906 2266 
Q 2828 2175 2409 1742 
Q 1991 1309 1228 531 
z
" transform="scale(0.015625)"/>
        <path id="DejaVuSans-35" d="M 691 4666 
L 3169 4666 
L 3169 4134 
L 1269 4134 
L 1269 2991 
Q 1406 3038 1543 3061 
Q 1681 3084 1819 3084 
Q 2600 3084 3056 2656 
Q 3513 2228 3513 1497 
Q 3513 744 3044 326 
Q 2575 -91 1722 -91 
Q 1428 -91 1123 -41 
Q 819 9 494 109 
L 494 744 
Q 775 591 1075 516 
Q 1375 441 1709 441 
Q 2250 441 2565 725 
Q 2881 1009 2881 1497 
Q 2881 1984 2565 2268 
Q 2250 2553 1709 2553 
Q 1456 2553 1204 2497 
Q 953 2441 691 2322 
L 691 4666 
z
" transform="scale(0.015625)"/>
       </defs>
       <use xlink:href="#DejaVuSans-32"/>
       <use xlink:href="#DejaVuSans-35" x="63.623047"/>
      </g>
     </g>
    </g>
    <g id="xtick_3">
     <g id="line2d_3">
      <g>
       <use xlink:href="#mbe5be9273e" x="307.740865" y="287.65" style="stroke: #000000; stroke-width: 0.8"/>
      </g>
     </g>
     <g id="text_3">
      <!-- 50 -->
      <g transform="translate(290.562115 315.165781) scale(0.27 -0.27)">
       <use xlink:href="#DejaVuSans-35"/>
       <use xlink:href="#DejaVuSans-30" x="63.623047"/>
      </g>
     </g>
    </g>
    <g id="xtick_4">
     <g id="line2d_4">
      <g>
       <use xlink:href="#mbe5be9273e" x="400.913406" y="287.65" style="stroke: #000000; stroke-width: 0.8"/>
      </g>
     </g>
     <g id="text_4">
      <!-- 75 -->
      <g transform="translate(383.734656 315.165781) scale(0.27 -0.27)">
       <defs>
        <path id="DejaVuSans-37" d="M 525 4666 
L 3525 4666 
L 3525 4397 
L 1831 0 
L 1172 0 
L 2766 4134 
L 525 4134 
L 525 4666 
z
" transform="scale(0.015625)"/>
       </defs>
       <use xlink:href="#DejaVuSans-37"/>
       <use xlink:href="#DejaVuSans-35" x="63.623047"/>
      </g>
     </g>
    </g>
    <g id="xtick_5">
     <g id="line2d_5">
      <g>
       <use xlink:href="#mbe5be9273e" x="494.085948" y="287.65" style="stroke: #000000; stroke-width: 0.8"/>
      </g>
     </g>
     <g id="text_5">
      <!-- 100 -->
      <g transform="translate(468.317823 315.165781) scale(0.27 -0.27)">
       <defs>
        <path id="DejaVuSans-31" d="M 794 531 
L 1825 531 
L 1825 4091 
L 703 3866 
L 703 4441 
L 1819 4666 
L 2450 4666 
L 2450 531 
L 3481 531 
L 3481 0 
L 794 0 
L 794 531 
z
" transform="scale(0.015625)"/>
       </defs>
       <use xlink:href="#DejaVuSans-31"/>
       <use xlink:href="#DejaVuSans-30" x="63.623047"/>
       <use xlink:href="#DejaVuSans-30" x="127.246094"/>
      </g>
     </g>
    </g>
    <g id="text_6">
     <!-- Time [ms] -->
     <g transform="translate(250.777717 347.57625) scale(0.3 -0.3)">
      <defs>
       <path id="DejaVuSans-54" d="M -19 4666 
L 3928 4666 
L 3928 4134 
L 2272 4134 
L 2272 0 
L 1638 0 
L 1638 4134 
L -19 4134 
L -19 4666 
z
" transform="scale(0.015625)"/>
       <path id="DejaVuSans-69" d="M 603 3500 
L 1178 3500 
L 1178 0 
L 603 0 
L 603 3500 
z
M 603 4863 
L 1178 4863 
L 1178 4134 
L 603 4134 
L 603 4863 
z
" transform="scale(0.015625)"/>
       <path id="DejaVuSans-6d" d="M 3328 2828 
Q 3544 3216 3844 3400 
Q 4144 3584 4550 3584 
Q 5097 3584 5394 3201 
Q 5691 2819 5691 2113 
L 5691 0 
L 5113 0 
L 5113 2094 
Q 5113 2597 4934 2840 
Q 4756 3084 4391 3084 
Q 3944 3084 3684 2787 
Q 3425 2491 3425 1978 
L 3425 0 
L 2847 0 
L 2847 2094 
Q 2847 2600 2669 2842 
Q 2491 3084 2119 3084 
Q 1678 3084 1418 2786 
Q 1159 2488 1159 1978 
L 1159 0 
L 581 0 
L 581 3500 
L 1159 3500 
L 1159 2956 
Q 1356 3278 1631 3431 
Q 1906 3584 2284 3584 
Q 2666 3584 2933 3390 
Q 3200 3197 3328 2828 
z
" transform="scale(0.015625)"/>
       <path id="DejaVuSans-65" d="M 3597 1894 
L 3597 1613 
L 953 1613 
Q 991 1019 1311 708 
Q 1631 397 2203 397 
Q 2534 397 2845 478 
Q 3156 559 3463 722 
L 3463 178 
Q 3153 47 2828 -22 
Q 2503 -91 2169 -91 
Q 1331 -91 842 396 
Q 353 884 353 1716 
Q 353 2575 817 3079 
Q 1281 3584 2069 3584 
Q 2775 3584 3186 3129 
Q 3597 2675 3597 1894 
z
M 3022 2063 
Q 3016 2534 2758 2815 
Q 2500 3097 2075 3097 
Q 1594 3097 1305 2825 
Q 1016 2553 972 2059 
L 3022 2063 
z
" transform="scale(0.015625)"/>
       <path id="DejaVuSans-20" transform="scale(0.015625)"/>
       <path id="DejaVuSans-5b" d="M 550 4863 
L 1875 4863 
L 1875 4416 
L 1125 4416 
L 1125 -397 
L 1875 -397 
L 1875 -844 
L 550 -844 
L 550 4863 
z
" transform="scale(0.015625)"/>
       <path id="DejaVuSans-73" d="M 2834 3397 
L 2834 2853 
Q 2591 2978 2328 3040 
Q 2066 3103 1784 3103 
Q 1356 3103 1142 2972 
Q 928 2841 928 2578 
Q 928 2378 1081 2264 
Q 1234 2150 1697 2047 
L 1894 2003 
Q 2506 1872 2764 1633 
Q 3022 1394 3022 966 
Q 3022 478 2636 193 
Q 2250 -91 1575 -91 
Q 1294 -91 989 -36 
Q 684 19 347 128 
L 347 722 
Q 666 556 975 473 
Q 1284 391 1588 391 
Q 1994 391 2212 530 
Q 2431 669 2431 922 
Q 2431 1156 2273 1281 
Q 2116 1406 1581 1522 
L 1381 1569 
Q 847 1681 609 1914 
Q 372 2147 372 2553 
Q 372 3047 722 3315 
Q 1072 3584 1716 3584 
Q 2034 3584 2315 3537 
Q 2597 3491 2834 3397 
z
" transform="scale(0.015625)"/>
       <path id="DejaVuSans-5d" d="M 1947 4863 
L 1947 -844 
L 622 -844 
L 622 -397 
L 1369 -397 
L 1369 4416 
L 622 4416 
L 622 4863 
L 1947 4863 
z
" transform="scale(0.015625)"/>
      </defs>
      <use xlink:href="#DejaVuSans-54"/>
      <use xlink:href="#DejaVuSans-69" x="57.958984"/>
      <use xlink:href="#DejaVuSans-6d" x="85.742188"/>
      <use xlink:href="#DejaVuSans-65" x="183.154297"/>
      <use xlink:href="#DejaVuSans-20" x="244.677734"/>
      <use xlink:href="#DejaVuSans-5b" x="276.464844"/>
      <use xlink:href="#DejaVuSans-6d" x="315.478516"/>
      <use xlink:href="#DejaVuSans-73" x="412.890625"/>
      <use xlink:href="#DejaVuSans-5d" x="464.990234"/>
     </g>
    </g>
   </g>
   <g id="matplotlib.axis_2">
    <g id="ytick_1">
     <g id="line2d_6">
      <defs>
       <path id="mb297eb571a" d="M 0 0 
L -3.5 0 
" style="stroke: #000000; stroke-width: 0.8"/>
      </defs>
      <g>
       <use xlink:href="#mb297eb571a" x="121.395781" y="287.029403" style="stroke: #000000; stroke-width: 0.8"/>
      </g>
     </g>
     <g id="text_7">
      <!-- −200 -->
      <g transform="translate(40.234375 297.287294) scale(0.27 -0.27)">
       <defs>
        <path id="DejaVuSans-2212" d="M 678 2272 
L 4684 2272 
L 4684 1741 
L 678 1741 
L 678 2272 
z
" transform="scale(0.015625)"/>
       </defs>
       <use xlink:href="#DejaVuSans-2212"/>
       <use xlink:href="#DejaVuSans-32" x="83.789062"/>
       <use xlink:href="#DejaVuSans-30" x="147.412109"/>
       <use xlink:href="#DejaVuSans-30" x="211.035156"/>
      </g>
     </g>
    </g>
    <g id="ytick_2">
     <g id="line2d_7">
      <g>
       <use xlink:href="#mb297eb571a" x="121.395781" y="224.969701" style="stroke: #000000; stroke-width: 0.8"/>
      </g>
     </g>
     <g id="text_8">
      <!-- −100 -->
      <g transform="translate(40.234375 235.227592) scale(0.27 -0.27)">
       <use xlink:href="#DejaVuSans-2212"/>
       <use xlink:href="#DejaVuSans-31" x="83.789062"/>
       <use xlink:href="#DejaVuSans-30" x="147.412109"/>
       <use xlink:href="#DejaVuSans-30" x="211.035156"/>
      </g>
     </g>
    </g>
    <g id="ytick_3">
     <g id="line2d_8">
      <g>
       <use xlink:href="#mb297eb571a" x="121.395781" y="162.91" style="stroke: #000000; stroke-width: 0.8"/>
      </g>
     </g>
     <g id="text_9">
      <!-- 0 -->
      <g transform="translate(97.217031 173.167891) scale(0.27 -0.27)">
       <use xlink:href="#DejaVuSans-30"/>
      </g>
     </g>
    </g>
    <g id="ytick_4">
     <g id="line2d_9">
      <g>
       <use xlink:href="#mb297eb571a" x="121.395781" y="100.850299" style="stroke: #000000; stroke-width: 0.8"/>
      </g>
     </g>
     <g id="text_10">
      <!-- 100 -->
      <g transform="translate(62.859531 111.108189) scale(0.27 -0.27)">
       <use xlink:href="#DejaVuSans-31"/>
       <use xlink:href="#DejaVuSans-30" x="63.623047"/>
       <use xlink:href="#DejaVuSans-30" x="127.246094"/>
      </g>
     </g>
    </g>
    <g id="ytick_5">
     <g id="line2d_10">
      <g>
       <use xlink:href="#mb297eb571a" x="121.395781" y="38.790597" style="stroke: #000000; stroke-width: 0.8"/>
      </g>
     </g>
     <g id="text_11">
      <!-- 200 -->
      <g transform="translate(62.859531 49.048488) scale(0.27 -0.27)">
       <use xlink:href="#DejaVuSans-32"/>
       <use xlink:href="#DejaVuSans-30" x="63.623047"/>
       <use xlink:href="#DejaVuSans-30" x="127.246094"/>
      </g>
     </g>
    </g>
    <g id="text_12">
     <!-- mT/m -->
     <g transform="translate(29.995313 206.346719) rotate(-90) scale(0.3 -0.3)">
      <defs>
       <path id="DejaVuSans-2f" d="M 1625 4666 
L 2156 4666 
L 531 -594 
L 0 -594 
L 1625 4666 
z
" transform="scale(0.015625)"/>
      </defs>
      <use xlink:href="#DejaVuSans-6d"/>
      <use xlink:href="#DejaVuSans-54" x="97.412109"/>
      <use xlink:href="#DejaVuSans-2f" x="158.496094"/>
      <use xlink:href="#DejaVuSans-6d" x="192.1875"/>
     </g>
    </g>
   </g>
   <g id="line2d_11">
    <path d="M 121.395781 162.91 
L 531.354965 162.91 
" clip-path="url(#p78d5b3b3d2)" style="fill: none; stroke: #d3d3d3; stroke-opacity: 0.8; stroke-width: 1.5; stroke-linecap: square"/>
   </g>
   <g id="line2d_12">
    <path d="M 121.395781 162.91 
L 132.576486 162.91 
L 133.321867 138.334122 
L 134.067247 125.214892 
L 134.812627 114.262941 
L 137.048768 100.940267 
L 143.757191 62.614317 
L 146.738713 46.693397 
L 147.484093 47.069433 
L 148.229473 46.868081 
L 149.720234 47.170257 
L 150.465614 47.032686 
L 151.956375 47.273414 
L 152.701755 47.197345 
L 153.447136 47.40207 
L 154.192516 47.355556 
L 154.937896 47.528272 
L 155.683277 47.527479 
L 156.428657 47.693165 
L 157.919418 47.757841 
L 163.13708 48.29862 
L 163.88246 48.312019 
L 164.627841 50.865183 
L 165.373221 55.978133 
L 166.118601 62.132004 
L 172.081644 120.417153 
L 172.827024 126.700901 
L 190.716152 224.321453 
L 193.697674 240.427726 
L 197.424575 240.76451 
L 200.406097 240.976602 
L 201.151477 234.351687 
L 202.642238 210.923199 
L 204.878379 186.844186 
L 207.11452 164.517364 
L 207.8599 162.91 
L 234.693592 162.91 
L 235.438972 144.19573 
L 236.929733 125.997054 
L 238.420494 109.673751 
L 245.874297 67.36043 
L 249.601199 46.499641 
L 250.346579 46.225247 
L 256.309622 46.285523 
L 257.055002 46.853928 
L 258.545763 72.96454 
L 260.781904 96.757621 
L 263.763425 126.065671 
L 264.508805 132.184915 
L 269.726468 162.91 
L 269.726468 162.91 
" clip-path="url(#p78d5b3b3d2)" style="fill: none; stroke: #000000; stroke-width: 5; stroke-linecap: square"/>
   </g>
   <g id="line2d_13">
    <path d="M 269.726468 162.91 
L 271.627188 162.91 
L 272.484375 184.261831 
L 272.521644 183.33349 
L 274.273288 141.558169 
L 275.055937 141.558169 
L 276.84485 184.261831 
L 277.627499 184.261831 
L 279.416412 141.558169 
L 280.199061 141.558169 
L 281.987974 184.261831 
L 282.770624 184.261831 
L 284.559536 141.558169 
L 285.342186 141.558169 
L 287.131099 184.261831 
L 287.913748 184.261831 
L 289.702661 141.558169 
L 290.48531 141.558169 
L 292.274223 184.261831 
L 293.056872 184.261831 
L 294.845785 141.558169 
L 295.628434 141.558169 
L 297.417347 184.261831 
L 298.199996 184.261831 
L 299.988909 141.558169 
L 300.771559 141.558169 
L 302.560471 184.261831 
L 303.343121 184.261831 
L 305.132034 141.558169 
L 305.914683 141.558169 
L 307.703596 184.261831 
L 308.486245 184.261831 
L 310.275158 141.558169 
L 311.057807 141.558169 
L 312.84672 184.261831 
L 313.629369 184.261831 
L 315.418282 141.558169 
L 316.200932 141.558169 
L 317.989844 184.261831 
L 318.772494 184.261831 
L 320.561406 141.558169 
L 321.344056 141.558169 
L 323.132969 184.261831 
L 323.915618 184.261831 
L 325.704531 141.558169 
L 326.48718 141.558169 
L 328.276093 184.261831 
L 329.058742 184.261831 
L 330.847655 141.558169 
L 331.630304 141.558169 
L 333.419217 184.261831 
L 334.201867 184.261831 
L 335.990779 141.558169 
L 336.773429 141.558169 
L 338.562342 184.261831 
L 339.344991 184.261831 
L 341.133904 141.558169 
L 341.916553 141.558169 
L 343.705466 184.261831 
L 344.488115 184.261831 
L 346.277028 141.558169 
L 347.059677 141.558169 
L 348.84859 184.261831 
L 349.63124 184.261831 
L 351.420152 141.558169 
L 352.202802 141.558169 
L 353.991714 184.261831 
L 354.774364 184.261831 
L 356.563277 141.558169 
L 357.345926 141.558169 
L 359.134839 184.261831 
L 359.917488 184.261831 
L 361.706401 141.558169 
L 362.48905 141.558169 
L 364.277963 184.261831 
L 365.060612 184.261831 
L 366.849525 141.558169 
L 367.632175 141.558169 
L 369.421087 184.261831 
L 370.203737 184.261831 
L 371.99265 141.558169 
L 372.775299 141.558169 
L 374.564212 184.261831 
L 375.346861 184.261831 
L 377.135774 141.558169 
L 377.918423 141.558169 
L 379.707336 184.261831 
L 380.489985 184.261831 
L 382.278898 141.558169 
L 383.061547 141.558169 
L 384.85046 184.261831 
L 385.63311 184.261831 
L 387.422022 141.558169 
L 388.204672 141.558169 
L 389.993585 184.261831 
L 390.776234 184.261831 
L 392.565147 141.558169 
L 393.347796 141.558169 
L 395.136709 184.261831 
L 395.919358 184.261831 
L 397.708271 141.558169 
L 398.49092 141.558169 
L 400.279833 184.261831 
L 401.062483 184.261831 
L 402.851395 141.558169 
L 403.634045 141.558169 
L 405.422958 184.261831 
L 406.205607 184.261831 
L 407.99452 141.558169 
L 408.777169 141.558169 
L 410.566082 184.261831 
L 411.348731 184.261831 
L 413.137644 141.558169 
L 413.920293 141.558169 
L 414.81475 162.91 
L 414.81475 162.91 
" clip-path="url(#p78d5b3b3d2)" style="fill: none; stroke: #000000; stroke-opacity: 0.7; stroke-width: 5; stroke-linecap: square"/>
   </g>
   <g id="line2d_14">
    <path d="M 320.911735 287.65 
L 320.911735 38.17 
" clip-path="url(#p78d5b3b3d2)" style="fill: none; stroke-dasharray: 18.5,8; stroke-dashoffset: 0; stroke: #000000; stroke-width: 5"/>
   </g>
   <g id="line2d_15">
    <path d="M 121.395781 38.790597 
L 531.354965 38.790597 
" clip-path="url(#p78d5b3b3d2)" style="fill: none; stroke-dasharray: 18.5,8; stroke-dashoffset: 0; stroke: #000000; stroke-opacity: 0.2; stroke-width: 5"/>
   </g>
   <g id="line2d_16">
    <path d="M 121.395781 287.029403 
L 531.354965 287.029403 
" clip-path="url(#p78d5b3b3d2)" style="fill: none; stroke-dasharray: 18.5,8; stroke-dashoffset: 0; stroke: #000000; stroke-opacity: 0.2; stroke-width: 5"/>
   </g>
   <g id="line2d_17">
    <path d="M 121.395781 162.91 
L 531.354965 162.91 
" clip-path="url(#p78d5b3b3d2)" style="fill: none; stroke: #000000; stroke-width: 5; stroke-linecap: square"/>
   </g>
   <g id="patch_3">
    <path d="M 121.395781 287.65 
L 121.395781 38.17 
" style="fill: none; stroke: #000000; stroke-width: 0.8; stroke-linejoin: miter; stroke-linecap: square"/>
   </g>
   <g id="patch_4">
    <path d="M 121.395781 287.65 
L 531.354965 287.65 
" style="fill: none; stroke: #000000; stroke-width: 0.8; stroke-linejoin: miter; stroke-linecap: square"/>
   </g>
   <g id="text_13">
    <!-- $G(t)$ -->
    <g transform="translate(295.175373 31.515) scale(0.32 -0.32)">
     <defs>
      <path id="DejaVuSans-Oblique-47" d="M 3494 697 
L 3738 1919 
L 2700 1919 
L 2797 2438 
L 4453 2438 
L 4050 384 
Q 3634 156 3143 32 
Q 2653 -91 2156 -91 
Q 1278 -91 783 396 
Q 288 884 288 1753 
Q 288 2475 589 3126 
Q 891 3778 1422 4213 
Q 1756 4484 2153 4617 
Q 2550 4750 3034 4750 
Q 3472 4750 3873 4639 
Q 4275 4528 4641 4306 
L 4513 3634 
Q 4231 3928 3853 4083 
Q 3475 4238 3047 4238 
Q 2550 4238 2172 4048 
Q 1794 3859 1497 3463 
Q 1244 3125 1098 2667 
Q 953 2209 953 1734 
Q 953 1081 1287 751 
Q 1622 422 2284 422 
Q 2616 422 2925 492 
Q 3234 563 3494 697 
z
" transform="scale(0.015625)"/>
      <path id="DejaVuSans-28" d="M 1984 4856 
Q 1566 4138 1362 3434 
Q 1159 2731 1159 2009 
Q 1159 1288 1364 580 
Q 1569 -128 1984 -844 
L 1484 -844 
Q 1016 -109 783 600 
Q 550 1309 550 2009 
Q 550 2706 781 3412 
Q 1013 4119 1484 4856 
L 1984 4856 
z
" transform="scale(0.015625)"/>
      <path id="DejaVuSans-Oblique-74" d="M 2706 3500 
L 2619 3053 
L 1472 3053 
L 1100 1153 
Q 1081 1047 1072 975 
Q 1063 903 1063 863 
Q 1063 663 1183 572 
Q 1303 481 1569 481 
L 2150 481 
L 2053 0 
L 1503 0 
Q 991 0 739 200 
Q 488 400 488 806 
Q 488 878 497 964 
Q 506 1050 525 1153 
L 897 3053 
L 409 3053 
L 500 3500 
L 978 3500 
L 1172 4494 
L 1747 4494 
L 1556 3500 
L 2706 3500 
z
" transform="scale(0.015625)"/>
      <path id="DejaVuSans-29" d="M 513 4856 
L 1013 4856 
Q 1481 4119 1714 3412 
Q 1947 2706 1947 2009 
Q 1947 1309 1714 600 
Q 1481 -109 1013 -844 
L 513 -844 
Q 928 -128 1133 580 
Q 1338 1288 1338 2009 
Q 1338 2731 1133 3434 
Q 928 4138 513 4856 
z
" transform="scale(0.015625)"/>
     </defs>
     <use xlink:href="#DejaVuSans-Oblique-47" transform="translate(0 0.125)"/>
     <use xlink:href="#DejaVuSans-28" transform="translate(77.490234 0.125)"/>
     <use xlink:href="#DejaVuSans-Oblique-74" transform="translate(116.503906 0.125)"/>
     <use xlink:href="#DejaVuSans-29" transform="translate(155.712891 0.125)"/>
    </g>
   </g>
   <g id="legend_1">
    <g id="patch_5">
     <path d="M 507.154965 66.77 
L 515.954965 66.77 
Q 520.354965 66.77 520.354965 62.37 
L 520.354965 53.57 
Q 520.354965 49.17 515.954965 49.17 
L 507.154965 49.17 
Q 502.754965 49.17 502.754965 53.57 
L 502.754965 62.37 
Q 502.754965 66.77 507.154965 66.77 
z
" style="fill: #ffffff; opacity: 0.8; stroke: #cccccc; stroke-linejoin: miter"/>
    </g>
   </g>
  </g>
  <g id="axes_2">
   <g id="patch_6">
    <path d="M 654.34272 287.65 
L 1064.301904 287.65 
L 1064.301904 38.17 
L 654.34272 38.17 
z
" style="fill: #ffffff"/>
   </g>
   <g id="matplotlib.axis_3">
    <g id="xtick_6">
     <g id="line2d_18">
      <g>
       <use xlink:href="#mbe5be9273e" x="654.34272" y="287.65" style="stroke: #000000; stroke-width: 0.8"/>
      </g>
     </g>
     <g id="text_14">
      <!-- 0 -->
      <g transform="translate(645.753345 315.165781) scale(0.27 -0.27)">
       <use xlink:href="#DejaVuSans-30"/>
      </g>
     </g>
    </g>
    <g id="xtick_7">
     <g id="line2d_19">
      <g>
       <use xlink:href="#mbe5be9273e" x="747.515262" y="287.65" style="stroke: #000000; stroke-width: 0.8"/>
      </g>
     </g>
     <g id="text_15">
      <!-- 25 -->
      <g transform="translate(730.336512 315.165781) scale(0.27 -0.27)">
       <use xlink:href="#DejaVuSans-32"/>
       <use xlink:href="#DejaVuSans-35" x="63.623047"/>
      </g>
     </g>
    </g>
    <g id="xtick_8">
     <g id="line2d_20">
      <g>
       <use xlink:href="#mbe5be9273e" x="840.687804" y="287.65" style="stroke: #000000; stroke-width: 0.8"/>
      </g>
     </g>
     <g id="text_16">
      <!-- 50 -->
      <g transform="translate(823.509054 315.165781) scale(0.27 -0.27)">
       <use xlink:href="#DejaVuSans-35"/>
       <use xlink:href="#DejaVuSans-30" x="63.623047"/>
      </g>
     </g>
    </g>
    <g id="xtick_9">
     <g id="line2d_21">
      <g>
       <use xlink:href="#mbe5be9273e" x="933.860345" y="287.65" style="stroke: #000000; stroke-width: 0.8"/>
      </g>
     </g>
     <g id="text_17">
      <!-- 75 -->
      <g transform="translate(916.681595 315.165781) scale(0.27 -0.27)">
       <use xlink:href="#DejaVuSans-37"/>
       <use xlink:href="#DejaVuSans-35" x="63.623047"/>
      </g>
     </g>
    </g>
    <g id="xtick_10">
     <g id="line2d_22">
      <g>
       <use xlink:href="#mbe5be9273e" x="1027.032887" y="287.65" style="stroke: #000000; stroke-width: 0.8"/>
      </g>
     </g>
     <g id="text_18">
      <!-- 100 -->
      <g transform="translate(1001.264762 315.165781) scale(0.27 -0.27)">
       <use xlink:href="#DejaVuSans-31"/>
       <use xlink:href="#DejaVuSans-30" x="63.623047"/>
       <use xlink:href="#DejaVuSans-30" x="127.246094"/>
      </g>
     </g>
    </g>
    <g id="text_19">
     <!-- Time [ms] -->
     <g transform="translate(783.724656 347.57625) scale(0.3 -0.3)">
      <use xlink:href="#DejaVuSans-54"/>
      <use xlink:href="#DejaVuSans-69" x="57.958984"/>
      <use xlink:href="#DejaVuSans-6d" x="85.742188"/>
      <use xlink:href="#DejaVuSans-65" x="183.154297"/>
      <use xlink:href="#DejaVuSans-20" x="244.677734"/>
      <use xlink:href="#DejaVuSans-5b" x="276.464844"/>
      <use xlink:href="#DejaVuSans-6d" x="315.478516"/>
      <use xlink:href="#DejaVuSans-73" x="412.890625"/>
      <use xlink:href="#DejaVuSans-5d" x="464.990234"/>
     </g>
    </g>
   </g>
   <g id="matplotlib.axis_4">
    <g id="ytick_6">
     <g id="line2d_23">
      <g>
       <use xlink:href="#mb297eb571a" x="654.34272" y="287.029403" style="stroke: #000000; stroke-width: 0.8"/>
      </g>
     </g>
     <g id="text_20">
      <!-- −200 -->
      <g transform="translate(573.181314 297.287294) scale(0.27 -0.27)">
       <use xlink:href="#DejaVuSans-2212"/>
       <use xlink:href="#DejaVuSans-32" x="83.789062"/>
       <use xlink:href="#DejaVuSans-30" x="147.412109"/>
       <use xlink:href="#DejaVuSans-30" x="211.035156"/>
      </g>
     </g>
    </g>
    <g id="ytick_7">
     <g id="line2d_24">
      <g>
       <use xlink:href="#mb297eb571a" x="654.34272" y="224.969701" style="stroke: #000000; stroke-width: 0.8"/>
      </g>
     </g>
     <g id="text_21">
      <!-- −100 -->
      <g transform="translate(573.181314 235.227592) scale(0.27 -0.27)">
       <use xlink:href="#DejaVuSans-2212"/>
       <use xlink:href="#DejaVuSans-31" x="83.789062"/>
       <use xlink:href="#DejaVuSans-30" x="147.412109"/>
       <use xlink:href="#DejaVuSans-30" x="211.035156"/>
      </g>
     </g>
    </g>
    <g id="ytick_8">
     <g id="line2d_25">
      <g>
       <use xlink:href="#mb297eb571a" x="654.34272" y="162.91" style="stroke: #000000; stroke-width: 0.8"/>
      </g>
     </g>
     <g id="text_22">
      <!-- 0 -->
      <g transform="translate(630.16397 173.167891) scale(0.27 -0.27)">
       <use xlink:href="#DejaVuSans-30"/>
      </g>
     </g>
    </g>
    <g id="ytick_9">
     <g id="line2d_26">
      <g>
       <use xlink:href="#mb297eb571a" x="654.34272" y="100.850299" style="stroke: #000000; stroke-width: 0.8"/>
      </g>
     </g>
     <g id="text_23">
      <!-- 100 -->
      <g transform="translate(595.80647 111.108189) scale(0.27 -0.27)">
       <use xlink:href="#DejaVuSans-31"/>
       <use xlink:href="#DejaVuSans-30" x="63.623047"/>
       <use xlink:href="#DejaVuSans-30" x="127.246094"/>
      </g>
     </g>
    </g>
    <g id="ytick_10">
     <g id="line2d_27">
      <g>
       <use xlink:href="#mb297eb571a" x="654.34272" y="38.790597" style="stroke: #000000; stroke-width: 0.8"/>
      </g>
     </g>
     <g id="text_24">
      <!-- 200 -->
      <g transform="translate(595.80647 49.048488) scale(0.27 -0.27)">
       <use xlink:href="#DejaVuSans-32"/>
       <use xlink:href="#DejaVuSans-30" x="63.623047"/>
       <use xlink:href="#DejaVuSans-30" x="127.246094"/>
      </g>
     </g>
    </g>
    <g id="text_25">
     <!-- T/m/s -->
     <g transform="translate(562.942251 204.602969) rotate(-90) scale(0.3 -0.3)">
      <use xlink:href="#DejaVuSans-54"/>
      <use xlink:href="#DejaVuSans-2f" x="61.083984"/>
      <use xlink:href="#DejaVuSans-6d" x="94.775391"/>
      <use xlink:href="#DejaVuSans-2f" x="192.1875"/>
      <use xlink:href="#DejaVuSans-73" x="225.878906"/>
     </g>
    </g>
   </g>
   <g id="line2d_28">
    <path d="M 654.34272 162.91 
L 1064.301904 162.91 
" clip-path="url(#pe58250b99e)" style="fill: none; stroke: #d3d3d3; stroke-opacity: 0.8; stroke-width: 1.5; stroke-linecap: square"/>
   </g>
   <g id="line2d_29">
    <path d="M 654.34272 162.91 
L 664.778045 162.91 
L 665.523425 40.03061 
L 666.268805 97.313848 
L 667.014186 108.150246 
L 667.759566 139.826889 
L 668.504946 141.091815 
L 673.722609 141.851984 
L 674.467989 141.609331 
L 675.213369 142.167632 
L 675.95875 141.527059 
L 676.70413 142.448371 
L 677.44951 142.802896 
L 678.194891 142.701325 
L 678.940271 144.082811 
L 679.685651 164.790179 
L 680.431032 161.903241 
L 681.176412 163.695533 
L 681.921792 163.635347 
L 682.667173 162.222142 
L 683.412553 163.599904 
L 684.157933 163.423735 
L 684.903314 162.529657 
L 685.648694 163.933626 
L 686.394074 162.677429 
L 687.139455 163.773581 
L 687.884835 162.906033 
L 688.630215 163.738432 
L 689.375596 162.947582 
L 690.866356 163.374476 
L 691.611737 163.136501 
L 692.357117 163.373566 
L 695.338638 163.28442 
L 696.084019 162.976992 
L 697.574779 188.474751 
L 699.06554 199.50416 
L 699.81092 197.850786 
L 700.556301 201.154615 
L 701.301681 199.279415 
L 702.047061 203.445148 
L 702.792442 199.168389 
L 703.537822 201.248325 
L 704.283202 193.054909 
L 705.028583 194.328737 
L 705.773963 183.366276 
L 707.264724 183.4514 
L 710.991625 183.278458 
L 711.737006 183.326696 
L 713.973147 183.201006 
L 714.718527 183.275134 
L 715.463907 183.161827 
L 716.209288 183.300236 
L 716.954668 183.113879 
L 717.700048 183.228814 
L 718.445429 183.116404 
L 719.936189 183.15564 
L 720.68157 182.979125 
L 721.42695 183.217098 
L 722.17233 182.972672 
L 722.917711 183.164888 
L 723.663091 182.990865 
L 724.408471 183.070063 
L 725.153852 182.751116 
L 725.899232 183.35932 
L 726.644612 163.151094 
L 727.389993 163.177893 
L 728.135373 163.325039 
L 731.116894 163.260851 
L 731.862275 162.922928 
L 732.607655 163.282647 
L 733.353035 129.785426 
L 734.098416 105.339653 
L 734.843796 103.337906 
L 735.589176 121.236408 
L 736.334557 122.89494 
L 737.079937 124.203586 
L 737.825317 125.185533 
L 738.570698 125.610993 
L 739.316078 126.299363 
L 740.061458 154.873181 
L 740.806839 162.91 
L 766.89515 162.91 
L 767.640531 69.338652 
L 768.385911 115.857025 
L 769.131291 118.969594 
L 770.622052 123.23692 
L 771.367432 141.473335 
L 775.094334 141.80563 
L 781.802757 142.071663 
L 782.548137 161.538031 
L 783.293518 162.883166 
L 784.784278 162.921797 
L 787.7658 162.937098 
L 788.51118 163.148449 
L 789.25656 165.752026 
L 790.001941 233.227087 
L 790.747321 223.145973 
L 791.492701 203.622252 
L 792.238082 202.728676 
L 792.983462 201.344479 
L 794.474223 199.678746 
L 795.219603 199.089073 
L 795.964983 198.936236 
L 796.710364 193.506219 
L 797.455744 184.809466 
L 799.691885 185.210986 
L 800.437265 185.151528 
L 801.182646 184.765005 
L 801.928026 184.065449 
L 801.928026 184.065449 
" clip-path="url(#pe58250b99e)" style="fill: none; stroke: #000000; stroke-width: 5; stroke-linecap: square"/>
   </g>
   <g id="line2d_30">
    <path d="M 654.34272 38.790597 
L 1064.301904 38.790597 
" clip-path="url(#pe58250b99e)" style="fill: none; stroke-dasharray: 18.5,8; stroke-dashoffset: 0; stroke: #000000; stroke-opacity: 0.2; stroke-width: 5"/>
   </g>
   <g id="line2d_31">
    <path d="M 654.34272 287.029403 
L 1064.301904 287.029403 
" clip-path="url(#pe58250b99e)" style="fill: none; stroke-dasharray: 18.5,8; stroke-dashoffset: 0; stroke: #000000; stroke-opacity: 0.2; stroke-width: 5"/>
   </g>
   <g id="line2d_32">
    <path d="M 654.34272 162.91 
L 1064.301904 162.91 
" clip-path="url(#pe58250b99e)" style="fill: none; stroke: #000000; stroke-width: 5; stroke-linecap: square"/>
   </g>
   <g id="patch_7">
    <path d="M 654.34272 287.65 
L 654.34272 38.17 
" style="fill: none; stroke: #000000; stroke-width: 0.8; stroke-linejoin: miter; stroke-linecap: square"/>
   </g>
   <g id="patch_8">
    <path d="M 654.34272 287.65 
L 1064.301904 287.65 
" style="fill: none; stroke: #000000; stroke-width: 0.8; stroke-linejoin: miter; stroke-linecap: square"/>
   </g>
   <g id="text_26">
    <!-- $S(t)$ -->
    <g transform="translate(830.362312 31.515) scale(0.32 -0.32)">
     <defs>
      <path id="DejaVuSans-Oblique-53" d="M 3859 4513 
L 3738 3897 
Q 3422 4066 3111 4152 
Q 2800 4238 2509 4238 
Q 1944 4238 1609 3991 
Q 1275 3744 1275 3334 
Q 1275 3109 1398 2989 
Q 1522 2869 2034 2731 
L 2413 2638 
Q 3053 2472 3303 2217 
Q 3553 1963 3553 1503 
Q 3553 797 2998 353 
Q 2444 -91 1538 -91 
Q 1166 -91 791 -17 
Q 416 56 38 206 
L 166 856 
Q 513 641 861 531 
Q 1209 422 1556 422 
Q 2147 422 2503 684 
Q 2859 947 2859 1369 
Q 2859 1650 2717 1795 
Q 2575 1941 2106 2059 
L 1728 2156 
Q 1081 2325 845 2545 
Q 609 2766 609 3163 
Q 609 3859 1145 4304 
Q 1681 4750 2541 4750 
Q 2875 4750 3203 4690 
Q 3531 4631 3859 4513 
z
" transform="scale(0.015625)"/>
     </defs>
     <use xlink:href="#DejaVuSans-Oblique-53" transform="translate(0 0.125)"/>
     <use xlink:href="#DejaVuSans-28" transform="translate(63.476562 0.125)"/>
     <use xlink:href="#DejaVuSans-Oblique-74" transform="translate(102.490234 0.125)"/>
     <use xlink:href="#DejaVuSans-29" transform="translate(141.699219 0.125)"/>
    </g>
   </g>
  </g>
  <g id="axes_3">
   <g id="patch_9">
    <path d="M 1187.289659 287.65 
L 1597.248842 287.65 
L 1597.248842 38.17 
L 1187.289659 38.17 
z
" style="fill: #ffffff"/>
   </g>
   <g id="matplotlib.axis_5">
    <g id="xtick_11">
     <g id="line2d_33">
      <g>
       <use xlink:href="#mbe5be9273e" x="1187.289659" y="287.65" style="stroke: #000000; stroke-width: 0.8"/>
      </g>
     </g>
     <g id="text_27">
      <!-- 0 -->
      <g transform="translate(1178.700284 315.165781) scale(0.27 -0.27)">
       <use xlink:href="#DejaVuSans-30"/>
      </g>
     </g>
    </g>
    <g id="xtick_12">
     <g id="line2d_34">
      <g>
       <use xlink:href="#mbe5be9273e" x="1280.462201" y="287.65" style="stroke: #000000; stroke-width: 0.8"/>
      </g>
     </g>
     <g id="text_28">
      <!-- 25 -->
      <g transform="translate(1263.283451 315.165781) scale(0.27 -0.27)">
       <use xlink:href="#DejaVuSans-32"/>
       <use xlink:href="#DejaVuSans-35" x="63.623047"/>
      </g>
     </g>
    </g>
    <g id="xtick_13">
     <g id="line2d_35">
      <g>
       <use xlink:href="#mbe5be9273e" x="1373.634742" y="287.65" style="stroke: #000000; stroke-width: 0.8"/>
      </g>
     </g>
     <g id="text_29">
      <!-- 50 -->
      <g transform="translate(1356.455992 315.165781) scale(0.27 -0.27)">
       <use xlink:href="#DejaVuSans-35"/>
       <use xlink:href="#DejaVuSans-30" x="63.623047"/>
      </g>
     </g>
    </g>
    <g id="xtick_14">
     <g id="line2d_36">
      <g>
       <use xlink:href="#mbe5be9273e" x="1466.807284" y="287.65" style="stroke: #000000; stroke-width: 0.8"/>
      </g>
     </g>
     <g id="text_30">
      <!-- 75 -->
      <g transform="translate(1449.628534 315.165781) scale(0.27 -0.27)">
       <use xlink:href="#DejaVuSans-37"/>
       <use xlink:href="#DejaVuSans-35" x="63.623047"/>
      </g>
     </g>
    </g>
    <g id="xtick_15">
     <g id="line2d_37">
      <g>
       <use xlink:href="#mbe5be9273e" x="1559.979826" y="287.65" style="stroke: #000000; stroke-width: 0.8"/>
      </g>
     </g>
     <g id="text_31">
      <!-- 100 -->
      <g transform="translate(1534.211701 315.165781) scale(0.27 -0.27)">
       <use xlink:href="#DejaVuSans-31"/>
       <use xlink:href="#DejaVuSans-30" x="63.623047"/>
       <use xlink:href="#DejaVuSans-30" x="127.246094"/>
      </g>
     </g>
    </g>
    <g id="text_32">
     <!-- Time [ms] -->
     <g transform="translate(1316.671594 347.57625) scale(0.3 -0.3)">
      <use xlink:href="#DejaVuSans-54"/>
      <use xlink:href="#DejaVuSans-69" x="57.958984"/>
      <use xlink:href="#DejaVuSans-6d" x="85.742188"/>
      <use xlink:href="#DejaVuSans-65" x="183.154297"/>
      <use xlink:href="#DejaVuSans-20" x="244.677734"/>
      <use xlink:href="#DejaVuSans-5b" x="276.464844"/>
      <use xlink:href="#DejaVuSans-6d" x="315.478516"/>
      <use xlink:href="#DejaVuSans-73" x="412.890625"/>
      <use xlink:href="#DejaVuSans-5d" x="464.990234"/>
     </g>
    </g>
   </g>
   <g id="matplotlib.axis_6">
    <g id="ytick_11">
     <g id="line2d_38">
      <g>
       <use xlink:href="#mb297eb571a" x="1187.289659" y="287.65" style="stroke: #000000; stroke-width: 0.8"/>
      </g>
     </g>
     <g id="text_33">
      <!-- 0.00 -->
      <g transform="translate(1120.172471 297.907891) scale(0.27 -0.27)">
       <defs>
        <path id="DejaVuSans-2e" d="M 684 794 
L 1344 794 
L 1344 0 
L 684 0 
L 684 794 
z
" transform="scale(0.015625)"/>
       </defs>
       <use xlink:href="#DejaVuSans-30"/>
       <use xlink:href="#DejaVuSans-2e" x="63.623047"/>
       <use xlink:href="#DejaVuSans-30" x="95.410156"/>
       <use xlink:href="#DejaVuSans-30" x="159.033203"/>
      </g>
     </g>
    </g>
    <g id="ytick_12">
     <g id="line2d_39">
      <g>
       <use xlink:href="#mb297eb571a" x="1187.289659" y="225.28" style="stroke: #000000; stroke-width: 0.8"/>
      </g>
     </g>
     <g id="text_34">
      <!-- 0.25 -->
      <g transform="translate(1120.172471 235.537891) scale(0.27 -0.27)">
       <use xlink:href="#DejaVuSans-30"/>
       <use xlink:href="#DejaVuSans-2e" x="63.623047"/>
       <use xlink:href="#DejaVuSans-32" x="95.410156"/>
       <use xlink:href="#DejaVuSans-35" x="159.033203"/>
      </g>
     </g>
    </g>
    <g id="ytick_13">
     <g id="line2d_40">
      <g>
       <use xlink:href="#mb297eb571a" x="1187.289659" y="162.91" style="stroke: #000000; stroke-width: 0.8"/>
      </g>
     </g>
     <g id="text_35">
      <!-- 0.50 -->
      <g transform="translate(1120.172471 173.167891) scale(0.27 -0.27)">
       <use xlink:href="#DejaVuSans-30"/>
       <use xlink:href="#DejaVuSans-2e" x="63.623047"/>
       <use xlink:href="#DejaVuSans-35" x="95.410156"/>
       <use xlink:href="#DejaVuSans-30" x="159.033203"/>
      </g>
     </g>
    </g>
    <g id="ytick_14">
     <g id="line2d_41">
      <g>
       <use xlink:href="#mb297eb571a" x="1187.289659" y="100.54" style="stroke: #000000; stroke-width: 0.8"/>
      </g>
     </g>
     <g id="text_36">
      <!-- 0.75 -->
      <g transform="translate(1120.172471 110.797891) scale(0.27 -0.27)">
       <use xlink:href="#DejaVuSans-30"/>
       <use xlink:href="#DejaVuSans-2e" x="63.623047"/>
       <use xlink:href="#DejaVuSans-37" x="95.410156"/>
       <use xlink:href="#DejaVuSans-35" x="159.033203"/>
      </g>
     </g>
    </g>
    <g id="ytick_15">
     <g id="line2d_42">
      <g>
       <use xlink:href="#mb297eb571a" x="1187.289659" y="38.17" style="stroke: #000000; stroke-width: 0.8"/>
      </g>
     </g>
     <g id="text_37">
      <!-- 1.00 -->
      <g transform="translate(1120.172471 48.427891) scale(0.27 -0.27)">
       <use xlink:href="#DejaVuSans-31"/>
       <use xlink:href="#DejaVuSans-2e" x="63.623047"/>
       <use xlink:href="#DejaVuSans-30" x="95.410156"/>
       <use xlink:href="#DejaVuSans-30" x="159.033203"/>
      </g>
     </g>
    </g>
    <g id="text_38">
     <!-- unitless -->
     <g transform="translate(1109.933409 220.995156) rotate(-90) scale(0.3 -0.3)">
      <defs>
       <path id="DejaVuSans-75" d="M 544 1381 
L 544 3500 
L 1119 3500 
L 1119 1403 
Q 1119 906 1312 657 
Q 1506 409 1894 409 
Q 2359 409 2629 706 
Q 2900 1003 2900 1516 
L 2900 3500 
L 3475 3500 
L 3475 0 
L 2900 0 
L 2900 538 
Q 2691 219 2414 64 
Q 2138 -91 1772 -91 
Q 1169 -91 856 284 
Q 544 659 544 1381 
z
M 1991 3584 
L 1991 3584 
z
" transform="scale(0.015625)"/>
       <path id="DejaVuSans-6e" d="M 3513 2113 
L 3513 0 
L 2938 0 
L 2938 2094 
Q 2938 2591 2744 2837 
Q 2550 3084 2163 3084 
Q 1697 3084 1428 2787 
Q 1159 2491 1159 1978 
L 1159 0 
L 581 0 
L 581 3500 
L 1159 3500 
L 1159 2956 
Q 1366 3272 1645 3428 
Q 1925 3584 2291 3584 
Q 2894 3584 3203 3211 
Q 3513 2838 3513 2113 
z
" transform="scale(0.015625)"/>
       <path id="DejaVuSans-74" d="M 1172 4494 
L 1172 3500 
L 2356 3500 
L 2356 3053 
L 1172 3053 
L 1172 1153 
Q 1172 725 1289 603 
Q 1406 481 1766 481 
L 2356 481 
L 2356 0 
L 1766 0 
Q 1100 0 847 248 
Q 594 497 594 1153 
L 594 3053 
L 172 3053 
L 172 3500 
L 594 3500 
L 594 4494 
L 1172 4494 
z
" transform="scale(0.015625)"/>
       <path id="DejaVuSans-6c" d="M 603 4863 
L 1178 4863 
L 1178 0 
L 603 0 
L 603 4863 
z
" transform="scale(0.015625)"/>
      </defs>
      <use xlink:href="#DejaVuSans-75"/>
      <use xlink:href="#DejaVuSans-6e" x="63.378906"/>
      <use xlink:href="#DejaVuSans-69" x="126.757812"/>
      <use xlink:href="#DejaVuSans-74" x="154.541016"/>
      <use xlink:href="#DejaVuSans-6c" x="193.75"/>
      <use xlink:href="#DejaVuSans-65" x="221.533203"/>
      <use xlink:href="#DejaVuSans-73" x="283.056641"/>
      <use xlink:href="#DejaVuSans-73" x="335.15625"/>
     </g>
    </g>
   </g>
   <g id="line2d_43">
    <path d="M 1187.289659 287.65 
L 1597.248842 287.65 
" clip-path="url(#p13477d3f26)" style="fill: none; stroke: #d3d3d3; stroke-opacity: 0.8; stroke-width: 1.5; stroke-linecap: square"/>
   </g>
   <g id="line2d_44">
    <path d="M 1187.289659 287.65 
L 1198.470364 287.65 
L 1199.215744 146.719998 
L 1199.961124 130.738712 
L 1200.706505 130.665907 
L 1201.451885 164.063456 
L 1202.197265 182.58591 
L 1202.942646 192.373314 
L 1203.688026 197.693915 
L 1204.433406 200.654911 
L 1205.178787 202.33072 
L 1205.924167 203.274037 
L 1207.414928 204.216278 
L 1208.160308 204.027506 
L 1208.905688 204.394569 
L 1209.651069 203.687722 
L 1211.141829 204.614001 
L 1211.88721 204.569291 
L 1212.63259 205.940451 
L 1213.37797 230.115193 
L 1214.123351 240.7659 
L 1214.868731 249.319002 
L 1215.614111 254.701486 
L 1216.359492 256.814378 
L 1217.104872 259.988911 
L 1217.850252 261.32791 
L 1218.595633 262.938911 
L 1219.341013 263.579761 
L 1220.086393 265.070025 
L 1220.831774 265.441681 
L 1221.577154 266.547808 
L 1222.322534 266.819593 
L 1223.067915 267.75433 
L 1223.813295 268.266105 
L 1224.558675 268.613295 
L 1225.304056 269.143685 
L 1226.794817 269.596344 
L 1227.540197 269.874476 
L 1229.030958 270.245663 
L 1229.776338 270.817482 
L 1230.521718 256.67745 
L 1232.012479 214.506026 
L 1232.757859 195.894859 
L 1234.24862 175.35127 
L 1234.994 170.159037 
L 1235.739381 161.212971 
L 1236.484761 159.884073 
L 1237.230141 155.669803 
L 1237.975522 161.725999 
L 1238.720902 162.928484 
L 1239.466282 175.623337 
L 1240.211663 182.404371 
L 1240.957043 186.194615 
L 1241.702423 188.436833 
L 1242.447804 189.788853 
L 1243.193184 190.571333 
L 1243.938564 191.073723 
L 1244.683945 191.416955 
L 1246.174705 191.580872 
L 1247.665466 191.479084 
L 1254.373889 189.574038 
L 1255.119269 189.121654 
L 1255.86465 189.01891 
L 1256.61003 188.614108 
L 1257.35541 188.459751 
L 1258.100791 188.157861 
L 1258.846171 188.231513 
L 1259.591551 187.459898 
L 1260.336932 210.082035 
L 1261.082312 223.043288 
L 1261.827692 230.796174 
L 1262.573073 235.916989 
L 1263.318453 239.543932 
L 1264.063833 242.303957 
L 1265.554594 246.555537 
L 1266.299974 247.829443 
L 1267.045355 217.832278 
L 1267.790735 167.631843 
L 1268.536115 135.481577 
L 1269.281496 135.675335 
L 1270.772256 135.589625 
L 1271.517637 135.450932 
L 1272.263017 134.881935 
L 1273.008397 134.546121 
L 1273.753778 166.451393 
L 1274.499158 193.586428 
L 1275.244538 209.553252 
L 1275.989919 219.569849 
L 1276.735299 226.294563 
L 1277.480679 231.107612 
L 1278.22606 234.745641 
L 1278.97144 237.617022 
L 1279.71682 239.959372 
L 1281.207581 243.591169 
L 1282.698342 246.318186 
L 1284.189102 248.481479 
L 1285.679863 250.277286 
L 1287.916004 252.533122 
L 1290.152145 254.461151 
L 1293.133666 256.724989 
L 1296.860568 259.242871 
L 1300.58747 261.517457 
L 1301.33285 154.631317 
L 1302.07823 146.20828 
L 1302.823611 142.600654 
L 1303.568991 140.843398 
L 1304.314371 140.822311 
L 1305.059752 160.41502 
L 1305.805132 170.815294 
L 1306.550512 176.501064 
L 1307.295893 179.747094 
L 1308.041273 181.662544 
L 1308.786653 182.85385 
L 1309.532034 183.597496 
L 1310.277414 184.084068 
L 1311.768175 184.552636 
L 1313.258935 184.651161 
L 1314.749696 184.544621 
L 1315.495076 184.395183 
L 1316.240457 206.5393 
L 1316.985837 220.816867 
L 1317.731217 229.566388 
L 1318.476598 235.243308 
L 1319.221978 239.188743 
L 1319.967358 242.147125 
L 1320.712739 244.457395 
L 1321.458119 246.350535 
L 1322.203499 247.844332 
L 1322.94888 247.378289 
L 1323.69426 172.418871 
L 1324.43964 138.097179 
L 1325.185021 138.846331 
L 1325.930401 138.194774 
L 1328.911922 136.53425 
L 1329.657303 135.802043 
L 1330.402683 141.019282 
L 1331.148063 153.500077 
L 1331.893444 160.266251 
L 1332.638824 164.018627 
L 1333.384204 166.119441 
L 1335.620345 170.549058 
L 1335.620345 170.549058 
" clip-path="url(#p13477d3f26)" style="fill: none; stroke: #000000; stroke-width: 5; stroke-linecap: square"/>
   </g>
   <g id="line2d_45">
    <path d="M 1187.289659 287.65 
L 1597.248842 287.65 
" clip-path="url(#p13477d3f26)" style="fill: none; stroke: #000000; stroke-width: 5; stroke-linecap: square"/>
   </g>
   <g id="line2d_46">
    <path d="M 1187.289659 131.397394 
L 1188.780419 130.819503 
L 1191.01656 130.250386 
L 1193.998082 129.769485 
L 1199.215744 129.21689 
L 1208.160308 128.525851 
L 1220.831774 127.775839 
L 1235.739381 127.127525 
L 1253.628509 126.58719 
L 1273.753778 126.189006 
L 1274.499158 171.243136 
L 1275.244538 201.990031 
L 1275.989919 162.2406 
L 1276.735299 175.526612 
L 1277.480679 151.213415 
L 1278.22606 141.683525 
L 1278.97144 137.686301 
L 1279.71682 135.809701 
L 1280.462201 134.784232 
L 1281.207581 134.12906 
L 1282.698342 133.284743 
L 1284.189102 132.72206 
L 1286.425243 132.127519 
L 1290.152145 131.445646 
L 1296.115188 130.651234 
L 1297.605948 130.478634 
L 1298.351329 192.272084 
L 1299.842089 167.94693 
L 1300.58747 174.763949 
L 1301.33285 153.300326 
L 1302.07823 144.792503 
L 1302.823611 141.144866 
L 1303.568991 139.369012 
L 1304.314371 138.351217 
L 1305.059752 137.668228 
L 1306.550512 136.734569 
L 1308.041273 136.070747 
L 1310.277414 135.321779 
L 1313.258935 134.557278 
L 1318.476598 133.497954 
L 1325.185021 132.371348 
L 1333.384204 131.217529 
L 1335.620345 130.93816 
L 1335.620345 130.93816 
" clip-path="url(#p13477d3f26)" style="fill: none; stroke-dasharray: 22.2,9.6; stroke-dashoffset: 0; stroke: #ff0000; stroke-width: 6"/>
   </g>
   <g id="line2d_47">
    <path d="M 1187.289659 75.592 
L 1597.248842 75.592 
" clip-path="url(#p13477d3f26)" style="fill: none; stroke-dasharray: 5,8.25; stroke-dashoffset: 0; stroke: #ff0000; stroke-opacity: 0.5; stroke-width: 5"/>
   </g>
   <g id="patch_10">
    <path d="M 1187.289659 287.65 
L 1187.289659 38.17 
" style="fill: none; stroke: #000000; stroke-width: 0.8; stroke-linejoin: miter; stroke-linecap: square"/>
   </g>
   <g id="patch_11">
    <path d="M 1187.289659 287.65 
L 1597.248842 287.65 
" style="fill: none; stroke: #000000; stroke-width: 0.8; stroke-linejoin: miter; stroke-linecap: square"/>
   </g>
   <g id="text_39">
    <!-- SAFE-PNS -->
    <g transform="translate(1314.006751 31.515) scale(0.32 -0.32)">
     <defs>
      <path id="DejaVuSans-53" d="M 3425 4513 
L 3425 3897 
Q 3066 4069 2747 4153 
Q 2428 4238 2131 4238 
Q 1616 4238 1336 4038 
Q 1056 3838 1056 3469 
Q 1056 3159 1242 3001 
Q 1428 2844 1947 2747 
L 2328 2669 
Q 3034 2534 3370 2195 
Q 3706 1856 3706 1288 
Q 3706 609 3251 259 
Q 2797 -91 1919 -91 
Q 1588 -91 1214 -16 
Q 841 59 441 206 
L 441 856 
Q 825 641 1194 531 
Q 1563 422 1919 422 
Q 2459 422 2753 634 
Q 3047 847 3047 1241 
Q 3047 1584 2836 1778 
Q 2625 1972 2144 2069 
L 1759 2144 
Q 1053 2284 737 2584 
Q 422 2884 422 3419 
Q 422 4038 858 4394 
Q 1294 4750 2059 4750 
Q 2388 4750 2728 4690 
Q 3069 4631 3425 4513 
z
" transform="scale(0.015625)"/>
      <path id="DejaVuSans-41" d="M 2188 4044 
L 1331 1722 
L 3047 1722 
L 2188 4044 
z
M 1831 4666 
L 2547 4666 
L 4325 0 
L 3669 0 
L 3244 1197 
L 1141 1197 
L 716 0 
L 50 0 
L 1831 4666 
z
" transform="scale(0.015625)"/>
      <path id="DejaVuSans-46" d="M 628 4666 
L 3309 4666 
L 3309 4134 
L 1259 4134 
L 1259 2759 
L 3109 2759 
L 3109 2228 
L 1259 2228 
L 1259 0 
L 628 0 
L 628 4666 
z
" transform="scale(0.015625)"/>
      <path id="DejaVuSans-45" d="M 628 4666 
L 3578 4666 
L 3578 4134 
L 1259 4134 
L 1259 2753 
L 3481 2753 
L 3481 2222 
L 1259 2222 
L 1259 531 
L 3634 531 
L 3634 0 
L 628 0 
L 628 4666 
z
" transform="scale(0.015625)"/>
      <path id="DejaVuSans-2d" d="M 313 2009 
L 1997 2009 
L 1997 1497 
L 313 1497 
L 313 2009 
z
" transform="scale(0.015625)"/>
      <path id="DejaVuSans-50" d="M 1259 4147 
L 1259 2394 
L 2053 2394 
Q 2494 2394 2734 2622 
Q 2975 2850 2975 3272 
Q 2975 3691 2734 3919 
Q 2494 4147 2053 4147 
L 1259 4147 
z
M 628 4666 
L 2053 4666 
Q 2838 4666 3239 4311 
Q 3641 3956 3641 3272 
Q 3641 2581 3239 2228 
Q 2838 1875 2053 1875 
L 1259 1875 
L 1259 0 
L 628 0 
L 628 4666 
z
" transform="scale(0.015625)"/>
      <path id="DejaVuSans-4e" d="M 628 4666 
L 1478 4666 
L 3547 763 
L 3547 4666 
L 4159 4666 
L 4159 0 
L 3309 0 
L 1241 3903 
L 1241 0 
L 628 0 
L 628 4666 
z
" transform="scale(0.015625)"/>
     </defs>
     <use xlink:href="#DejaVuSans-53"/>
     <use xlink:href="#DejaVuSans-41" x="65.351562"/>
     <use xlink:href="#DejaVuSans-46" x="133.759766"/>
     <use xlink:href="#DejaVuSans-45" x="191.279297"/>
     <use xlink:href="#DejaVuSans-2d" x="254.462891"/>
     <use xlink:href="#DejaVuSans-50" x="290.546875"/>
     <use xlink:href="#DejaVuSans-4e" x="350.849609"/>
     <use xlink:href="#DejaVuSans-53" x="425.654297"/>
    </g>
   </g>
   <g id="legend_2">
    <g id="patch_12">
     <path d="M 1448.611342 276.65 
L 1581.848842 276.65 
Q 1586.248842 276.65 1586.248842 272.25 
L 1586.248842 242.158125 
Q 1586.248842 237.758125 1581.848842 237.758125 
L 1448.611342 237.758125 
Q 1444.211342 237.758125 1444.211342 242.158125 
L 1444.211342 272.25 
Q 1444.211342 276.65 1448.611342 276.65 
z
" style="fill: #ffffff; opacity: 0.2; stroke: #cccccc; stroke-linejoin: miter"/>
    </g>
    <g id="line2d_48">
     <path d="M 1453.011342 255.574688 
L 1475.011342 255.574688 
L 1497.011342 255.574688 
" style="fill: none; stroke: #000000; stroke-width: 5; stroke-linecap: square"/>
    </g>
    <g id="text_40">
     <!-- Y-axis -->
     <g transform="translate(1514.611342 263.274688) scale(0.22 -0.22)">
      <defs>
       <path id="DejaVuSans-59" d="M -13 4666 
L 666 4666 
L 1959 2747 
L 3244 4666 
L 3922 4666 
L 2272 2222 
L 2272 0 
L 1638 0 
L 1638 2222 
L -13 4666 
z
" transform="scale(0.015625)"/>
       <path id="DejaVuSans-61" d="M 2194 1759 
Q 1497 1759 1228 1600 
Q 959 1441 959 1056 
Q 959 750 1161 570 
Q 1363 391 1709 391 
Q 2188 391 2477 730 
Q 2766 1069 2766 1631 
L 2766 1759 
L 2194 1759 
z
M 3341 1997 
L 3341 0 
L 2766 0 
L 2766 531 
Q 2569 213 2275 61 
Q 1981 -91 1556 -91 
Q 1019 -91 701 211 
Q 384 513 384 1019 
Q 384 1609 779 1909 
Q 1175 2209 1959 2209 
L 2766 2209 
L 2766 2266 
Q 2766 2663 2505 2880 
Q 2244 3097 1772 3097 
Q 1472 3097 1187 3025 
Q 903 2953 641 2809 
L 641 3341 
Q 956 3463 1253 3523 
Q 1550 3584 1831 3584 
Q 2591 3584 2966 3190 
Q 3341 2797 3341 1997 
z
" transform="scale(0.015625)"/>
       <path id="DejaVuSans-78" d="M 3513 3500 
L 2247 1797 
L 3578 0 
L 2900 0 
L 1881 1375 
L 863 0 
L 184 0 
L 1544 1831 
L 300 3500 
L 978 3500 
L 1906 2253 
L 2834 3500 
L 3513 3500 
z
" transform="scale(0.015625)"/>
      </defs>
      <use xlink:href="#DejaVuSans-59"/>
      <use xlink:href="#DejaVuSans-2d" x="49.208984"/>
      <use xlink:href="#DejaVuSans-61" x="85.292969"/>
      <use xlink:href="#DejaVuSans-78" x="146.572266"/>
      <use xlink:href="#DejaVuSans-69" x="205.751953"/>
      <use xlink:href="#DejaVuSans-73" x="233.535156"/>
     </g>
    </g>
   </g>
  </g>
  <g id="axes_4">
   <g id="patch_13">
    <path d="M 1720.236598 287.65 
L 2130.195781 287.65 
L 2130.195781 38.17 
L 1720.236598 38.17 
z
" style="fill: #ffffff"/>
   </g>
   <g id="matplotlib.axis_7">
    <g id="xtick_16">
     <g id="line2d_49">
      <g>
       <use xlink:href="#mbe5be9273e" x="1720.236598" y="287.65" style="stroke: #000000; stroke-width: 0.8"/>
      </g>
     </g>
     <g id="text_41">
      <!-- 0 -->
      <g transform="translate(1711.647223 315.165781) scale(0.27 -0.27)">
       <use xlink:href="#DejaVuSans-30"/>
      </g>
     </g>
    </g>
    <g id="xtick_17">
     <g id="line2d_50">
      <g>
       <use xlink:href="#mbe5be9273e" x="1813.409139" y="287.65" style="stroke: #000000; stroke-width: 0.8"/>
      </g>
     </g>
     <g id="text_42">
      <!-- 25 -->
      <g transform="translate(1796.230389 315.165781) scale(0.27 -0.27)">
       <use xlink:href="#DejaVuSans-32"/>
       <use xlink:href="#DejaVuSans-35" x="63.623047"/>
      </g>
     </g>
    </g>
    <g id="xtick_18">
     <g id="line2d_51">
      <g>
       <use xlink:href="#mbe5be9273e" x="1906.581681" y="287.65" style="stroke: #000000; stroke-width: 0.8"/>
      </g>
     </g>
     <g id="text_43">
      <!-- 50 -->
      <g transform="translate(1889.402931 315.165781) scale(0.27 -0.27)">
       <use xlink:href="#DejaVuSans-35"/>
       <use xlink:href="#DejaVuSans-30" x="63.623047"/>
      </g>
     </g>
    </g>
    <g id="xtick_19">
     <g id="line2d_52">
      <g>
       <use xlink:href="#mbe5be9273e" x="1999.754223" y="287.65" style="stroke: #000000; stroke-width: 0.8"/>
      </g>
     </g>
     <g id="text_44">
      <!-- 75 -->
      <g transform="translate(1982.575473 315.165781) scale(0.27 -0.27)">
       <use xlink:href="#DejaVuSans-37"/>
       <use xlink:href="#DejaVuSans-35" x="63.623047"/>
      </g>
     </g>
    </g>
    <g id="xtick_20">
     <g id="line2d_53">
      <g>
       <use xlink:href="#mbe5be9273e" x="2092.926765" y="287.65" style="stroke: #000000; stroke-width: 0.8"/>
      </g>
     </g>
     <g id="text_45">
      <!-- 100 -->
      <g transform="translate(2067.15864 315.165781) scale(0.27 -0.27)">
       <use xlink:href="#DejaVuSans-31"/>
       <use xlink:href="#DejaVuSans-30" x="63.623047"/>
       <use xlink:href="#DejaVuSans-30" x="127.246094"/>
      </g>
     </g>
    </g>
    <g id="text_46">
     <!-- Time [ms] -->
     <g transform="translate(1849.618533 347.57625) scale(0.3 -0.3)">
      <use xlink:href="#DejaVuSans-54"/>
      <use xlink:href="#DejaVuSans-69" x="57.958984"/>
      <use xlink:href="#DejaVuSans-6d" x="85.742188"/>
      <use xlink:href="#DejaVuSans-65" x="183.154297"/>
      <use xlink:href="#DejaVuSans-20" x="244.677734"/>
      <use xlink:href="#DejaVuSans-5b" x="276.464844"/>
      <use xlink:href="#DejaVuSans-6d" x="315.478516"/>
      <use xlink:href="#DejaVuSans-73" x="412.890625"/>
      <use xlink:href="#DejaVuSans-5d" x="464.990234"/>
     </g>
    </g>
   </g>
   <g id="matplotlib.axis_8">
    <g id="ytick_16">
     <g id="line2d_54">
      <g>
       <use xlink:href="#mb297eb571a" x="1720.236598" y="287.65" style="stroke: #000000; stroke-width: 0.8"/>
      </g>
     </g>
     <g id="text_47">
      <!-- 0.00 -->
      <g transform="translate(1653.11941 297.907891) scale(0.27 -0.27)">
       <use xlink:href="#DejaVuSans-30"/>
       <use xlink:href="#DejaVuSans-2e" x="63.623047"/>
       <use xlink:href="#DejaVuSans-30" x="95.410156"/>
       <use xlink:href="#DejaVuSans-30" x="159.033203"/>
      </g>
     </g>
    </g>
    <g id="ytick_17">
     <g id="line2d_55">
      <g>
       <use xlink:href="#mb297eb571a" x="1720.236598" y="225.28" style="stroke: #000000; stroke-width: 0.8"/>
      </g>
     </g>
     <g id="text_48">
      <!-- 0.25 -->
      <g transform="translate(1653.11941 235.537891) scale(0.27 -0.27)">
       <use xlink:href="#DejaVuSans-30"/>
       <use xlink:href="#DejaVuSans-2e" x="63.623047"/>
       <use xlink:href="#DejaVuSans-32" x="95.410156"/>
       <use xlink:href="#DejaVuSans-35" x="159.033203"/>
      </g>
     </g>
    </g>
    <g id="ytick_18">
     <g id="line2d_56">
      <g>
       <use xlink:href="#mb297eb571a" x="1720.236598" y="162.91" style="stroke: #000000; stroke-width: 0.8"/>
      </g>
     </g>
     <g id="text_49">
      <!-- 0.50 -->
      <g transform="translate(1653.11941 173.167891) scale(0.27 -0.27)">
       <use xlink:href="#DejaVuSans-30"/>
       <use xlink:href="#DejaVuSans-2e" x="63.623047"/>
       <use xlink:href="#DejaVuSans-35" x="95.410156"/>
       <use xlink:href="#DejaVuSans-30" x="159.033203"/>
      </g>
     </g>
    </g>
    <g id="ytick_19">
     <g id="line2d_57">
      <g>
       <use xlink:href="#mb297eb571a" x="1720.236598" y="100.54" style="stroke: #000000; stroke-width: 0.8"/>
      </g>
     </g>
     <g id="text_50">
      <!-- 0.75 -->
      <g transform="translate(1653.11941 110.797891) scale(0.27 -0.27)">
       <use xlink:href="#DejaVuSans-30"/>
       <use xlink:href="#DejaVuSans-2e" x="63.623047"/>
       <use xlink:href="#DejaVuSans-37" x="95.410156"/>
       <use xlink:href="#DejaVuSans-35" x="159.033203"/>
      </g>
     </g>
    </g>
    <g id="ytick_20">
     <g id="line2d_58">
      <g>
       <use xlink:href="#mb297eb571a" x="1720.236598" y="38.17" style="stroke: #000000; stroke-width: 0.8"/>
      </g>
     </g>
     <g id="text_51">
      <!-- 1.00 -->
      <g transform="translate(1653.11941 48.427891) scale(0.27 -0.27)">
       <use xlink:href="#DejaVuSans-31"/>
       <use xlink:href="#DejaVuSans-2e" x="63.623047"/>
       <use xlink:href="#DejaVuSans-30" x="95.410156"/>
       <use xlink:href="#DejaVuSans-30" x="159.033203"/>
      </g>
     </g>
    </g>
    <g id="text_52">
     <!-- unitless -->
     <g transform="translate(1642.880348 220.995156) rotate(-90) scale(0.3 -0.3)">
      <use xlink:href="#DejaVuSans-75"/>
      <use xlink:href="#DejaVuSans-6e" x="63.378906"/>
      <use xlink:href="#DejaVuSans-69" x="126.757812"/>
      <use xlink:href="#DejaVuSans-74" x="154.541016"/>
      <use xlink:href="#DejaVuSans-6c" x="193.75"/>
      <use xlink:href="#DejaVuSans-65" x="221.533203"/>
      <use xlink:href="#DejaVuSans-73" x="283.056641"/>
      <use xlink:href="#DejaVuSans-73" x="335.15625"/>
     </g>
    </g>
   </g>
   <g id="line2d_59">
    <path d="M 1720.236598 287.65 
L 2130.195781 287.65 
" clip-path="url(#pbf66c01d6c)" style="fill: none; stroke: #d3d3d3; stroke-opacity: 0.8; stroke-width: 1.5; stroke-linecap: square"/>
   </g>
   <g id="line2d_60">
    <path d="M 1720.236598 287.65 
L 1731.417303 287.65 
L 1732.162683 212.223308 
L 1732.908063 178.049344 
L 1733.653444 153.273078 
L 1734.398824 149.923042 
L 1735.889585 145.507399 
L 1737.380345 141.956246 
L 1738.871106 139.087052 
L 1739.616486 137.875651 
L 1741.107247 135.799945 
L 1741.852627 135.140819 
L 1742.598008 134.131593 
L 1743.343388 133.760063 
L 1744.834149 133.435335 
L 1745.579529 134.099443 
L 1746.324909 146.660968 
L 1748.56105 177.277635 
L 1750.797191 201.187321 
L 1752.287952 214.190064 
L 1753.778713 225.258364 
L 1755.269473 234.764457 
L 1756.760234 242.723895 
L 1758.250995 249.549511 
L 1759.741755 255.393278 
L 1761.232516 260.328779 
L 1762.723277 264.464496 
L 1763.468657 268.970456 
L 1764.214037 275.944817 
L 1764.959418 259.478866 
L 1766.450178 222.103514 
L 1767.940939 188.619138 
L 1768.686319 171.832295 
L 1770.17708 145.899051 
L 1771.667841 131.577968 
L 1773.158601 131.520826 
L 1777.630883 131.117973 
L 1779.867024 130.955633 
L 1782.103165 130.870588 
L 1782.848546 130.777162 
L 1785.084687 130.754241 
L 1789.556969 130.765207 
L 1791.79311 131.02667 
L 1792.53849 130.83253 
L 1794.029251 154.275261 
L 1795.520011 173.913252 
L 1797.010772 190.590695 
L 1798.501533 204.909585 
L 1799.246913 211.104111 
L 1799.992293 224.100929 
L 1800.737674 241.526625 
L 1801.483054 237.856042 
L 1802.973815 198.70307 
L 1804.464575 168.442709 
L 1805.955336 144.116034 
L 1806.700716 151.064211 
L 1808.191477 172.644505 
L 1809.682238 190.726671 
L 1811.172998 205.892408 
L 1812.663759 218.624317 
L 1814.15452 229.323158 
L 1815.64528 238.322041 
L 1817.136041 245.898109 
L 1818.626802 252.282167 
L 1820.117562 257.666609 
L 1821.608323 262.211971 
L 1823.099084 266.052337 
L 1824.589844 269.299805 
L 1826.080605 272.048185 
L 1827.571366 274.376057 
L 1829.062126 276.349311 
L 1830.552887 278.023246 
L 1832.043648 279.444319 
L 1833.534408 280.651593 
L 1834.279789 223.74892 
L 1835.025169 199.996961 
L 1836.51593 162.955667 
L 1837.26131 148.607016 
L 1838.752071 144.779999 
L 1840.242831 141.650406 
L 1841.733592 139.088755 
L 1843.224353 136.990221 
L 1844.715113 135.266128 
L 1846.205874 133.852524 
L 1848.442015 132.182401 
L 1850.678156 165.47161 
L 1852.168917 183.916828 
L 1853.659677 199.521395 
L 1855.895818 219.204328 
L 1856.641199 239.531925 
L 1857.386579 244.231034 
L 1858.87734 204.743033 
L 1860.3681 173.79306 
L 1861.858861 149.201621 
L 1862.604241 138.560001 
L 1863.349622 132.059418 
L 1864.840382 130.623451 
L 1867.076523 128.13296 
L 1867.821904 127.600803 
L 1868.567284 127.51222 
L 1868.567284 127.51222 
" clip-path="url(#pbf66c01d6c)" style="fill: none; stroke: #000000; stroke-width: 5; stroke-linecap: square"/>
   </g>
   <g id="line2d_61">
    <path d="M 1720.236598 287.65 
L 2130.195781 287.65 
" clip-path="url(#pbf66c01d6c)" style="fill: none; stroke: #000000; stroke-width: 5; stroke-linecap: square"/>
   </g>
   <g id="line2d_62">
    <path d="M 1720.236598 135.912616 
L 1721.727358 134.20485 
L 1723.218119 132.784677 
L 1724.70888 131.602313 
L 1726.945021 130.187123 
L 1729.181162 129.107564 
L 1731.417303 128.282008 
L 1734.398824 127.472728 
L 1737.380345 126.902674 
L 1741.107247 126.418627 
L 1746.324909 126.009638 
L 1753.033332 125.738533 
L 1763.468657 125.569601 
L 1785.084687 125.496371 
L 1806.700716 125.488886 
L 1807.446097 144.69931 
L 1808.191477 168.420508 
L 1808.936857 159.662474 
L 1809.682238 157.081121 
L 1811.172998 151.012671 
L 1812.663759 146.120368 
L 1814.15452 142.17471 
L 1815.64528 138.991205 
L 1817.136041 136.42151 
L 1818.626802 134.346317 
L 1820.117562 132.669653 
L 1821.608323 131.314287 
L 1823.099084 130.21806 
L 1824.589844 129.330924 
L 1826.825985 128.30628 
L 1829.062126 127.558624 
L 1830.552887 127.175754 
L 1831.298267 152.159057 
L 1832.043648 170.237446 
L 1832.789028 157.677976 
L 1833.534408 157.404898 
L 1835.025169 151.287821 
L 1836.51593 146.354316 
L 1838.00669 142.373727 
L 1839.497451 139.160586 
L 1840.988212 136.565734 
L 1842.478972 134.469173 
L 1843.969733 132.774349 
L 1845.460494 131.403542 
L 1846.951254 130.294178 
L 1848.442015 129.395862 
L 1850.678156 128.357479 
L 1852.914297 127.599019 
L 1855.895818 126.894378 
L 1858.87734 126.42849 
L 1862.604241 126.059963 
L 1867.821904 125.776291 
L 1868.567284 125.749701 
L 1868.567284 125.749701 
" clip-path="url(#pbf66c01d6c)" style="fill: none; stroke-dasharray: 22.2,9.6; stroke-dashoffset: 0; stroke: #800080; stroke-width: 6"/>
   </g>
   <g id="line2d_63">
    <path clip-path="url(#pbf66c01d6c)" style="fill: none; stroke-dasharray: 11.1,4.8; stroke-dashoffset: 0; stroke: #800080; stroke-width: 3"/>
   </g>
   <g id="line2d_64">
    <path d="M 1720.236598 75.592 
L 2130.195781 75.592 
" clip-path="url(#pbf66c01d6c)" style="fill: none; stroke-dasharray: 5,8.25; stroke-dashoffset: 0; stroke: #800080; stroke-opacity: 0.5; stroke-width: 5"/>
   </g>
   <g id="patch_14">
    <path d="M 1720.236598 287.65 
L 1720.236598 38.17 
" style="fill: none; stroke: #000000; stroke-width: 0.8; stroke-linejoin: miter; stroke-linecap: square"/>
   </g>
   <g id="patch_15">
    <path d="M 1720.236598 287.65 
L 2130.195781 287.65 
" style="fill: none; stroke: #000000; stroke-width: 0.8; stroke-linejoin: miter; stroke-linecap: square"/>
   </g>
   <g id="text_53">
    <!-- SAFE-CNS -->
    <g transform="translate(1845.428689 31.515) scale(0.32 -0.32)">
     <defs>
      <path id="DejaVuSans-43" d="M 4122 4306 
L 4122 3641 
Q 3803 3938 3442 4084 
Q 3081 4231 2675 4231 
Q 1875 4231 1450 3742 
Q 1025 3253 1025 2328 
Q 1025 1406 1450 917 
Q 1875 428 2675 428 
Q 3081 428 3442 575 
Q 3803 722 4122 1019 
L 4122 359 
Q 3791 134 3420 21 
Q 3050 -91 2638 -91 
Q 1578 -91 968 557 
Q 359 1206 359 2328 
Q 359 3453 968 4101 
Q 1578 4750 2638 4750 
Q 3056 4750 3426 4639 
Q 3797 4528 4122 4306 
z
" transform="scale(0.015625)"/>
     </defs>
     <use xlink:href="#DejaVuSans-53"/>
     <use xlink:href="#DejaVuSans-41" x="65.351562"/>
     <use xlink:href="#DejaVuSans-46" x="133.759766"/>
     <use xlink:href="#DejaVuSans-45" x="191.279297"/>
     <use xlink:href="#DejaVuSans-2d" x="254.462891"/>
     <use xlink:href="#DejaVuSans-43" x="290.546875"/>
     <use xlink:href="#DejaVuSans-4e" x="360.371094"/>
     <use xlink:href="#DejaVuSans-53" x="435.175781"/>
    </g>
   </g>
   <g id="legend_3">
    <g id="patch_16">
     <path d="M 1981.558281 276.65 
L 2114.795781 276.65 
Q 2119.195781 276.65 2119.195781 272.25 
L 2119.195781 242.158125 
Q 2119.195781 237.758125 2114.795781 237.758125 
L 1981.558281 237.758125 
Q 1977.158281 237.758125 1977.158281 242.158125 
L 1977.158281 272.25 
Q 1977.158281 276.65 1981.558281 276.65 
z
" style="fill: #ffffff; opacity: 0.2; stroke: #cccccc; stroke-linejoin: miter"/>
    </g>
    <g id="line2d_65">
     <path d="M 1985.958281 255.574688 
L 2007.958281 255.574688 
L 2029.958281 255.574688 
" style="fill: none; stroke: #000000; stroke-width: 5; stroke-linecap: square"/>
    </g>
    <g id="text_54">
     <!-- Y-axis -->
     <g transform="translate(2047.558281 263.274688) scale(0.22 -0.22)">
      <use xlink:href="#DejaVuSans-59"/>
      <use xlink:href="#DejaVuSans-2d" x="49.208984"/>
      <use xlink:href="#DejaVuSans-61" x="85.292969"/>
      <use xlink:href="#DejaVuSans-78" x="146.572266"/>
      <use xlink:href="#DejaVuSans-69" x="205.751953"/>
      <use xlink:href="#DejaVuSans-73" x="233.535156"/>
     </g>
    </g>
   </g>
  </g>
 </g>
 <defs>
  <clipPath id="p78d5b3b3d2">
   <rect x="121.395781" y="38.17" width="409.959184" height="249.48"/>
  </clipPath>
  <clipPath id="pe58250b99e">
   <rect x="654.34272" y="38.17" width="409.959184" height="249.48"/>
  </clipPath>
  <clipPath id="p13477d3f26">
   <rect x="1187.289659" y="38.17" width="409.959184" height="249.48"/>
  </clipPath>
  <clipPath id="pbf66c01d6c">
   <rect x="1720.236598" y="38.17" width="409.959184" height="249.48"/>
  </clipPath>
 </defs>
</svg>
