<?xml version="1.0" encoding="utf-8" standalone="no"?>
<!DOCTYPE svg PUBLIC "-//W3C//DTD SVG 1.1//EN"
  "http://www.w3.org/Graphics/SVG/1.1/DTD/svg11.dtd">
<svg xmlns:xlink="http://www.w3.org/1999/xlink" width="2137.395781pt" height="361.015312pt" viewBox="0 0 2137.395781 361.015312" xmlns="http://www.w3.org/2000/svg" version="1.1">
 <metadata>
  <rdf:RDF xmlns:dc="http://purl.org/dc/elements/1.1/" xmlns:cc="http://creativecommons.org/ns#" xmlns:rdf="http://www.w3.org/1999/02/22-rdf-syntax-ns#">
   <cc:Work>
    <dc:type rdf:resource="http://purl.org/dc/dcmitype/StillImage"/>
    <dc:date>2026-01-09T14:57:09.903990</dc:date>
    <dc:format>image/svg+xml</dc:format>
    <dc:creator>
     <cc:Agent>
      <dc:title>Matplotlib v3.9.0, https://matplotlib.org/</dc:title>
     </cc:Agent>
    </dc:creator>
   </cc:Work>
  </rdf:RDF>
 </metadata>
 <defs>
  <style type="text/css">*{stroke-linejoin: round; stroke-linecap: butt}</style>
 </defs>
 <g id="figure_1">
  <g id="patch_1">
   <path d="M 0 361.015312 
L 2137.395781 361.015312 
L 2137.395781 0 
L 0 0 
z
" style="fill: #ffffff"/>
  </g>
  <g id="axes_1">
   <g id="patch_2">
    <path d="M 121.395781 287.65 
L 531.354965 287.65 
L 531.354965 38.17 
L 121.395781 38.17 
z
" style="fill: #ffffff"/>
   </g>
   <g id="PolyCollection_1">
    <defs>
     <path id="m2de1815ab6" d="M 121.395781 -198.105312 
L 121.395781 -198.105312 
L 122.141162 -198.105312 
L 122.886542 -198.105312 
L 123.631922 -198.105312 
L 124.377303 -198.105312 
L 125.122683 -198.105312 
L 125.868063 -198.105312 
L 126.613444 -198.105312 
L 127.358824 -198.105312 
L 128.104204 -198.105312 
L 128.849585 -198.105312 
L 129.594965 -198.105312 
L 130.340345 -198.105312 
L 131.085726 -198.105312 
L 131.831106 -198.105312 
L 132.576486 -198.105312 
L 133.321867 -198.105312 
L 134.067247 -198.105312 
L 134.812627 -198.105312 
L 135.558008 -198.105312 
L 136.303388 -198.105312 
L 137.048768 -198.105312 
L 137.794149 -198.105312 
L 138.539529 -198.105312 
L 139.284909 -198.105312 
L 140.03029 -198.105312 
L 140.77567 -198.105312 
L 141.52105 -198.105312 
L 142.266431 -198.105312 
L 143.011811 -198.105312 
L 143.757191 -198.105312 
L 144.502572 -198.105312 
L 145.247952 -198.105312 
L 145.993332 -198.105312 
L 146.738713 -198.105312 
L 147.484093 -198.105312 
L 148.229473 -198.105312 
L 148.974854 -198.105312 
L 149.720234 -198.105312 
L 150.465614 -198.105312 
L 151.210995 -198.105312 
L 151.956375 -198.105312 
L 152.701755 -198.105312 
L 153.447136 -198.105312 
L 154.192516 -198.105312 
L 154.937896 -198.105312 
L 155.683277 -198.105312 
L 156.428657 -198.105312 
L 157.174037 -198.105312 
L 157.919418 -198.105312 
L 158.664798 -198.105312 
L 159.410178 -198.105312 
L 160.155559 -198.105312 
L 160.900939 -198.105312 
L 161.646319 -198.105312 
L 162.3917 -198.105312 
L 163.13708 -198.105312 
L 163.88246 -198.105312 
L 164.627841 -198.105312 
L 165.373221 -198.105312 
L 166.118601 -198.105312 
L 166.863982 -198.105312 
L 167.609362 -198.105312 
L 168.354742 -198.105312 
L 169.100123 -198.105312 
L 169.845503 -198.105312 
L 170.590883 -198.105312 
L 171.336264 -198.105312 
L 172.081644 -198.105312 
L 172.827024 -198.105312 
L 173.572405 -198.105312 
L 174.317785 -198.105312 
L 175.063165 -198.105312 
L 175.808546 -198.105312 
L 176.553926 -198.105312 
L 177.299306 -198.105312 
L 178.044687 -198.105312 
L 178.790067 -198.105312 
L 179.535447 -198.105312 
L 180.280828 -198.105312 
L 181.026208 -198.105312 
L 181.771588 -198.105312 
L 182.516969 -198.105312 
L 183.262349 -198.105312 
L 184.007729 -198.105312 
L 184.75311 -198.105312 
L 185.49849 -198.105312 
L 186.24387 -198.105312 
L 186.989251 -198.105312 
L 187.734631 -198.105312 
L 188.480011 -198.105312 
L 189.225392 -198.105312 
L 189.970772 -198.105312 
L 190.716152 -198.105312 
L 191.461533 -198.105312 
L 192.206913 -198.105312 
L 192.952293 -198.105312 
L 193.697674 -198.105312 
L 194.443054 -198.105312 
L 195.188434 -198.105312 
L 195.933815 -198.105312 
L 196.679195 -198.105312 
L 197.424575 -198.105312 
L 198.169956 -198.105312 
L 198.915336 -198.105312 
L 199.660716 -198.105312 
L 200.406097 -198.105312 
L 201.151477 -198.105312 
L 201.896857 -198.105312 
L 202.642238 -198.105312 
L 203.387618 -198.105312 
L 204.132998 -198.105312 
L 204.878379 -198.105312 
L 205.623759 -198.105312 
L 206.369139 -198.105312 
L 207.11452 -198.105312 
L 207.8599 -198.105312 
L 208.60528 -198.105312 
L 209.350661 -198.105312 
L 210.096041 -198.105312 
L 210.841421 -198.105312 
L 211.586802 -198.105312 
L 212.332182 -198.105312 
L 213.077562 -198.105312 
L 213.822943 -198.105312 
L 214.568323 -198.105312 
L 215.313703 -198.105312 
L 216.059084 -198.105312 
L 216.804464 -198.105312 
L 217.549844 -198.105312 
L 218.295225 -198.105312 
L 219.040605 -198.105312 
L 219.785985 -198.105312 
L 220.531366 -198.105312 
L 221.276746 -198.105312 
L 222.022126 -198.105312 
L 222.767507 -198.105312 
L 223.512887 -198.105312 
L 224.258267 -198.105312 
L 225.003648 -198.105312 
L 225.749028 -198.105312 
L 226.494408 -198.105312 
L 227.239789 -198.105312 
L 227.985169 -198.105312 
L 228.730549 -198.105312 
L 229.47593 -198.105312 
L 230.22131 -198.105312 
L 230.96669 -198.105312 
L 231.712071 -198.105312 
L 232.457451 -198.105312 
L 233.202831 -198.105312 
L 233.948212 -198.105312 
L 234.693592 -198.105312 
L 235.438972 -198.105312 
L 236.184353 -198.105312 
L 236.929733 -198.105312 
L 237.675113 -198.105312 
L 238.420494 -198.105312 
L 239.165874 -198.105312 
L 239.911254 -198.105312 
L 240.656635 -198.105312 
L 241.402015 -198.105312 
L 242.147395 -198.105312 
L 242.892776 -198.105312 
L 243.638156 -198.105312 
L 244.383536 -198.105312 
L 245.128917 -198.105312 
L 245.874297 -198.105312 
L 246.619677 -198.105312 
L 247.365058 -198.105312 
L 248.110438 -198.105312 
L 248.855818 -198.105312 
L 249.601199 -198.105312 
L 250.346579 -198.105312 
L 251.091959 -198.105312 
L 251.83734 -198.105312 
L 252.58272 -198.105312 
L 253.3281 -198.105312 
L 254.073481 -198.105312 
L 254.818861 -198.105312 
L 255.564241 -198.105312 
L 256.309622 -198.105312 
L 257.055002 -198.105312 
L 257.800382 -198.105312 
L 258.545763 -198.105312 
L 259.291143 -198.105312 
L 260.036523 -198.105312 
L 260.781904 -198.105312 
L 261.527284 -198.105312 
L 262.272664 -198.105312 
L 263.018045 -198.105312 
L 263.763425 -198.105312 
L 264.508805 -198.105312 
L 265.254186 -198.105312 
L 265.999566 -198.105312 
L 266.744946 -198.105312 
L 266.744946 -198.105312 
L 266.744946 -198.105312 
L 265.999566 -202.65642 
L 265.254186 -207.213472 
L 264.508805 -211.783714 
L 263.763425 -216.366013 
L 263.018045 -220.962891 
L 262.272664 -225.926414 
L 261.527284 -233.856035 
L 260.781904 -241.915303 
L 260.036523 -250.143387 
L 259.291143 -258.621816 
L 258.545763 -267.354484 
L 257.800382 -276.250498 
L 257.055002 -285.142786 
L 256.309622 -297.311487 
L 255.564241 -314.606137 
L 254.818861 -315.3756 
L 254.073481 -315.378496 
L 253.3281 -315.480929 
L 252.58272 -315.487625 
L 251.83734 -315.489809 
L 251.091959 -315.494369 
L 250.346579 -315.49737 
L 249.601199 -315.496425 
L 248.855818 -315.502494 
L 248.110438 -315.501227 
L 247.365058 -315.499875 
L 246.619677 -314.611152 
L 245.874297 -310.118797 
L 245.128917 -305.621588 
L 244.383536 -301.117306 
L 243.638156 -296.60696 
L 242.892776 -292.088503 
L 242.147395 -287.561741 
L 241.402015 -283.025991 
L 240.656635 -278.479773 
L 239.911254 -273.922438 
L 239.165874 -269.352532 
L 238.420494 -264.768949 
L 237.675113 -260.170121 
L 236.929733 -255.55453 
L 236.184353 -247.22199 
L 235.438972 -238.151676 
L 234.693592 -228.652695 
L 233.948212 -218.491407 
L 233.202831 -198.105312 
L 232.457451 -198.105312 
L 231.712071 -198.105312 
L 230.96669 -198.105312 
L 230.22131 -198.105312 
L 229.47593 -198.105312 
L 228.730549 -198.105312 
L 227.985169 -198.105312 
L 227.239789 -198.105312 
L 226.494408 -198.105312 
L 225.749028 -198.105312 
L 225.003648 -198.105312 
L 224.258267 -198.105312 
L 223.512887 -198.105312 
L 222.767507 -198.105312 
L 222.022126 -198.105312 
L 221.276746 -198.105312 
L 220.531366 -198.105312 
L 219.785985 -198.105312 
L 219.040605 -198.105312 
L 218.295225 -198.105312 
L 217.549844 -198.105312 
L 216.804464 -198.105312 
L 216.059084 -198.105312 
L 215.313703 -198.105312 
L 214.568323 -198.105312 
L 213.822943 -198.105312 
L 213.077562 -198.105312 
L 212.332182 -198.105312 
L 211.586802 -198.105312 
L 210.841421 -198.105312 
L 210.096041 -198.105312 
L 209.350661 -198.105312 
L 208.60528 -198.105312 
L 207.8599 -198.105312 
L 207.11452 -198.105312 
L 206.369139 -198.105312 
L 205.623759 -193.507538 
L 204.878379 -185.809959 
L 204.132998 -177.924728 
L 203.387618 -170.028028 
L 202.642238 -161.929831 
L 201.896857 -153.549144 
L 201.151477 -144.800623 
L 200.406097 -132.122056 
L 199.660716 -117.828862 
L 198.915336 -115.783906 
L 198.169956 -115.784279 
L 197.424575 -115.784147 
L 196.679195 -115.784446 
L 195.933815 -115.931765 
L 195.188434 -116.038122 
L 194.443054 -116.212727 
L 193.697674 -116.397899 
L 192.952293 -116.458766 
L 192.206913 -118.408672 
L 191.461533 -122.882019 
L 190.716152 -127.078613 
L 189.970772 -131.391104 
L 189.225392 -135.753315 
L 188.480011 -140.027816 
L 187.734631 -144.406628 
L 186.989251 -148.664958 
L 186.24387 -153.03914 
L 185.49849 -157.36166 
L 184.75311 -161.696247 
L 184.007729 -166.043532 
L 183.262349 -170.417973 
L 182.516969 -174.7403 
L 181.771588 -179.10375 
L 181.026208 -183.482493 
L 180.280828 -187.821629 
L 179.535447 -192.221014 
L 178.790067 -196.576063 
L 178.044687 -200.971389 
L 177.299306 -205.335872 
L 176.553926 -209.728726 
L 175.808546 -214.128248 
L 175.063165 -218.51948 
L 174.317785 -222.919743 
L 173.572405 -227.333706 
L 172.827024 -231.709175 
L 172.081644 -237.442611 
L 171.336264 -244.87089 
L 170.590883 -253.106882 
L 169.845503 -262.067556 
L 169.100123 -271.100268 
L 168.354742 -279.875394 
L 167.609362 -288.384962 
L 166.863982 -296.468866 
L 166.118601 -303.719252 
L 165.373221 -309.207452 
L 164.627841 -311.586519 
L 163.88246 -311.657515 
L 163.13708 -311.800643 
L 162.3917 -311.996925 
L 161.646319 -312.201168 
L 160.900939 -312.381324 
L 160.155559 -312.581776 
L 159.410178 -312.739965 
L 158.664798 -312.918482 
L 157.919418 -313.092827 
L 157.174037 -313.236555 
L 156.428657 -313.351637 
L 155.683277 -313.546178 
L 154.937896 -313.646645 
L 154.192516 -313.714271 
L 153.447136 -313.983895 
L 152.701755 -314.018628 
L 151.956375 -314.018972 
L 151.210995 -314.358104 
L 150.465614 -314.358217 
L 149.720234 -314.624122 
L 148.974854 -314.57816 
L 148.229473 -314.880528 
L 147.484093 -314.703121 
L 146.738713 -315.069297 
L 145.993332 -314.767845 
L 145.247952 -314.920087 
L 144.502572 -310.403279 
L 143.757191 -305.877713 
L 143.011811 -301.342957 
L 142.266431 -296.798212 
L 141.52105 -292.24203 
L 140.77567 -287.673408 
L 140.03029 -283.091139 
L 139.284909 -278.493668 
L 138.539529 -273.879305 
L 137.794149 -269.24637 
L 137.048768 -264.593046 
L 136.303388 -259.916847 
L 135.558008 -255.215735 
L 134.812627 -249.741978 
L 134.067247 -237.905708 
L 133.321867 -222.681079 
L 132.576486 -198.105312 
L 131.831106 -198.105312 
L 131.085726 -198.105312 
L 130.340345 -198.105312 
L 129.594965 -198.105312 
L 128.849585 -198.105312 
L 128.104204 -198.105312 
L 127.358824 -198.105312 
L 126.613444 -198.105312 
L 125.868063 -198.105312 
L 125.122683 -198.105312 
L 124.377303 -198.105312 
L 123.631922 -198.105312 
L 122.886542 -198.105312 
L 122.141162 -198.105312 
L 121.395781 -198.105312 
z
" style="stroke: #0173b2; stroke-opacity: 0.75"/>
    </defs>
    <g clip-path="url(#p03d96aea46)">
     <use xlink:href="#m2de1815ab6" x="0" y="361.015312" style="fill: #0173b2; fill-opacity: 0.75; stroke: #0173b2; stroke-opacity: 0.75"/>
    </g>
   </g>
   <g id="matplotlib.axis_1">
    <g id="xtick_1">
     <g id="line2d_1">
      <defs>
       <path id="mf5d80074b3" d="M 0 0 
L 0 3.5 
" style="stroke: #000000; stroke-width: 0.8"/>
      </defs>
      <g>
       <use xlink:href="#mf5d80074b3" x="121.395781" y="287.65" style="stroke: #000000; stroke-width: 0.8"/>
      </g>
     </g>
     <g id="text_1">
      <!-- 0 -->
      <g transform="translate(112.806406 315.165781) scale(0.27 -0.27)">
       <defs>
        <path id="DejaVuSans-30" d="M 2034 4250 
Q 1547 4250 1301 3770 
Q 1056 3291 1056 2328 
Q 1056 1369 1301 889 
Q 1547 409 2034 409 
Q 2525 409 2770 889 
Q 3016 1369 3016 2328 
Q 3016 3291 2770 3770 
Q 2525 4250 2034 4250 
z
M 2034 4750 
Q 2819 4750 3233 4129 
Q 3647 3509 3647 2328 
Q 3647 1150 3233 529 
Q 2819 -91 2034 -91 
Q 1250 -91 836 529 
Q 422 1150 422 2328 
Q 422 3509 836 4129 
Q 1250 4750 2034 4750 
z
" transform="scale(0.015625)"/>
       </defs>
       <use xlink:href="#DejaVuSans-30"/>
      </g>
     </g>
    </g>
    <g id="xtick_2">
     <g id="line2d_2">
      <g>
       <use xlink:href="#mf5d80074b3" x="214.568323" y="287.65" style="stroke: #000000; stroke-width: 0.8"/>
      </g>
     </g>
     <g id="text_2">
      <!-- 25 -->
      <g transform="translate(197.389573 315.165781) scale(0.27 -0.27)">
       <defs>
        <path id="DejaVuSans-32" d="M 1228 531 
L 3431 531 
L 3431 0 
L 469 0 
L 469 531 
Q 828 903 1448 1529 
Q 2069 2156 2228 2338 
Q 2531 2678 2651 2914 
Q 2772 3150 2772 3378 
Q 2772 3750 2511 3984 
Q 2250 4219 1831 4219 
Q 1534 4219 1204 4116 
Q 875 4013 500 3803 
L 500 4441 
Q 881 4594 1212 4672 
Q 1544 4750 1819 4750 
Q 2544 4750 2975 4387 
Q 3406 4025 3406 3419 
Q 3406 3131 3298 2873 
Q 3191 2616 2906 2266 
Q 2828 2175 2409 1742 
Q 1991 1309 1228 531 
z
" transform="scale(0.015625)"/>
        <path id="DejaVuSans-35" d="M 691 4666 
L 3169 4666 
L 3169 4134 
L 1269 4134 
L 1269 2991 
Q 1406 3038 1543 3061 
Q 1681 3084 1819 3084 
Q 2600 3084 3056 2656 
Q 3513 2228 3513 1497 
Q 3513 744 3044 326 
Q 2575 -91 1722 -91 
Q 1428 -91 1123 -41 
Q 819 9 494 109 
L 494 744 
Q 775 591 1075 516 
Q 1375 441 1709 441 
Q 2250 441 2565 725 
Q 2881 1009 2881 1497 
Q 2881 1984 2565 2268 
Q 2250 2553 1709 2553 
Q 1456 2553 1204 2497 
Q 953 2441 691 2322 
L 691 4666 
z
" transform="scale(0.015625)"/>
       </defs>
       <use xlink:href="#DejaVuSans-32"/>
       <use xlink:href="#DejaVuSans-35" x="63.623047"/>
      </g>
     </g>
    </g>
    <g id="xtick_3">
     <g id="line2d_3">
      <g>
       <use xlink:href="#mf5d80074b3" x="307.740865" y="287.65" style="stroke: #000000; stroke-width: 0.8"/>
      </g>
     </g>
     <g id="text_3">
      <!-- 50 -->
      <g transform="translate(290.562115 315.165781) scale(0.27 -0.27)">
       <use xlink:href="#DejaVuSans-35"/>
       <use xlink:href="#DejaVuSans-30" x="63.623047"/>
      </g>
     </g>
    </g>
    <g id="xtick_4">
     <g id="line2d_4">
      <g>
       <use xlink:href="#mf5d80074b3" x="400.913406" y="287.65" style="stroke: #000000; stroke-width: 0.8"/>
      </g>
     </g>
     <g id="text_4">
      <!-- 75 -->
      <g transform="translate(383.734656 315.165781) scale(0.27 -0.27)">
       <defs>
        <path id="DejaVuSans-37" d="M 525 4666 
L 3525 4666 
L 3525 4397 
L 1831 0 
L 1172 0 
L 2766 4134 
L 525 4134 
L 525 4666 
z
" transform="scale(0.015625)"/>
       </defs>
       <use xlink:href="#DejaVuSans-37"/>
       <use xlink:href="#DejaVuSans-35" x="63.623047"/>
      </g>
     </g>
    </g>
    <g id="xtick_5">
     <g id="line2d_5">
      <g>
       <use xlink:href="#mf5d80074b3" x="494.085948" y="287.65" style="stroke: #000000; stroke-width: 0.8"/>
      </g>
     </g>
     <g id="text_5">
      <!-- 100 -->
      <g transform="translate(468.317823 315.165781) scale(0.27 -0.27)">
       <defs>
        <path id="DejaVuSans-31" d="M 794 531 
L 1825 531 
L 1825 4091 
L 703 3866 
L 703 4441 
L 1819 4666 
L 2450 4666 
L 2450 531 
L 3481 531 
L 3481 0 
L 794 0 
L 794 531 
z
" transform="scale(0.015625)"/>
       </defs>
       <use xlink:href="#DejaVuSans-31"/>
       <use xlink:href="#DejaVuSans-30" x="63.623047"/>
       <use xlink:href="#DejaVuSans-30" x="127.246094"/>
      </g>
     </g>
    </g>
    <g id="text_6">
     <!-- Time [ms] -->
     <g transform="translate(250.777717 347.57625) scale(0.3 -0.3)">
      <defs>
       <path id="DejaVuSans-54" d="M -19 4666 
L 3928 4666 
L 3928 4134 
L 2272 4134 
L 2272 0 
L 1638 0 
L 1638 4134 
L -19 4134 
L -19 4666 
z
" transform="scale(0.015625)"/>
       <path id="DejaVuSans-69" d="M 603 3500 
L 1178 3500 
L 1178 0 
L 603 0 
L 603 3500 
z
M 603 4863 
L 1178 4863 
L 1178 4134 
L 603 4134 
L 603 4863 
z
" transform="scale(0.015625)"/>
       <path id="DejaVuSans-6d" d="M 3328 2828 
Q 3544 3216 3844 3400 
Q 4144 3584 4550 3584 
Q 5097 3584 5394 3201 
Q 5691 2819 5691 2113 
L 5691 0 
L 5113 0 
L 5113 2094 
Q 5113 2597 4934 2840 
Q 4756 3084 4391 3084 
Q 3944 3084 3684 2787 
Q 3425 2491 3425 1978 
L 3425 0 
L 2847 0 
L 2847 2094 
Q 2847 2600 2669 2842 
Q 2491 3084 2119 3084 
Q 1678 3084 1418 2786 
Q 1159 2488 1159 1978 
L 1159 0 
L 581 0 
L 581 3500 
L 1159 3500 
L 1159 2956 
Q 1356 3278 1631 3431 
Q 1906 3584 2284 3584 
Q 2666 3584 2933 3390 
Q 3200 3197 3328 2828 
z
" transform="scale(0.015625)"/>
       <path id="DejaVuSans-65" d="M 3597 1894 
L 3597 1613 
L 953 1613 
Q 991 1019 1311 708 
Q 1631 397 2203 397 
Q 2534 397 2845 478 
Q 3156 559 3463 722 
L 3463 178 
Q 3153 47 2828 -22 
Q 2503 -91 2169 -91 
Q 1331 -91 842 396 
Q 353 884 353 1716 
Q 353 2575 817 3079 
Q 1281 3584 2069 3584 
Q 2775 3584 3186 3129 
Q 3597 2675 3597 1894 
z
M 3022 2063 
Q 3016 2534 2758 2815 
Q 2500 3097 2075 3097 
Q 1594 3097 1305 2825 
Q 1016 2553 972 2059 
L 3022 2063 
z
" transform="scale(0.015625)"/>
       <path id="DejaVuSans-20" transform="scale(0.015625)"/>
       <path id="DejaVuSans-5b" d="M 550 4863 
L 1875 4863 
L 1875 4416 
L 1125 4416 
L 1125 -397 
L 1875 -397 
L 1875 -844 
L 550 -844 
L 550 4863 
z
" transform="scale(0.015625)"/>
       <path id="DejaVuSans-73" d="M 2834 3397 
L 2834 2853 
Q 2591 2978 2328 3040 
Q 2066 3103 1784 3103 
Q 1356 3103 1142 2972 
Q 928 2841 928 2578 
Q 928 2378 1081 2264 
Q 1234 2150 1697 2047 
L 1894 2003 
Q 2506 1872 2764 1633 
Q 3022 1394 3022 966 
Q 3022 478 2636 193 
Q 2250 -91 1575 -91 
Q 1294 -91 989 -36 
Q 684 19 347 128 
L 347 722 
Q 666 556 975 473 
Q 1284 391 1588 391 
Q 1994 391 2212 530 
Q 2431 669 2431 922 
Q 2431 1156 2273 1281 
Q 2116 1406 1581 1522 
L 1381 1569 
Q 847 1681 609 1914 
Q 372 2147 372 2553 
Q 372 3047 722 3315 
Q 1072 3584 1716 3584 
Q 2034 3584 2315 3537 
Q 2597 3491 2834 3397 
z
" transform="scale(0.015625)"/>
       <path id="DejaVuSans-5d" d="M 1947 4863 
L 1947 -844 
L 622 -844 
L 622 -397 
L 1369 -397 
L 1369 4416 
L 622 4416 
L 622 4863 
L 1947 4863 
z
" transform="scale(0.015625)"/>
      </defs>
      <use xlink:href="#DejaVuSans-54"/>
      <use xlink:href="#DejaVuSans-69" x="57.958984"/>
      <use xlink:href="#DejaVuSans-6d" x="85.742188"/>
      <use xlink:href="#DejaVuSans-65" x="183.154297"/>
      <use xlink:href="#DejaVuSans-20" x="244.677734"/>
      <use xlink:href="#DejaVuSans-5b" x="276.464844"/>
      <use xlink:href="#DejaVuSans-6d" x="315.478516"/>
      <use xlink:href="#DejaVuSans-73" x="412.890625"/>
      <use xlink:href="#DejaVuSans-5d" x="464.990234"/>
     </g>
    </g>
   </g>
   <g id="matplotlib.axis_2">
    <g id="ytick_1">
     <g id="line2d_6">
      <defs>
       <path id="m2a1ceef639" d="M 0 0 
L -3.5 0 
" style="stroke: #000000; stroke-width: 0.8"/>
      </defs>
      <g>
       <use xlink:href="#m2a1ceef639" x="121.395781" y="287.029403" style="stroke: #000000; stroke-width: 0.8"/>
      </g>
     </g>
     <g id="text_7">
      <!-- −200 -->
      <g transform="translate(40.234375 297.287294) scale(0.27 -0.27)">
       <defs>
        <path id="DejaVuSans-2212" d="M 678 2272 
L 4684 2272 
L 4684 1741 
L 678 1741 
L 678 2272 
z
" transform="scale(0.015625)"/>
       </defs>
       <use xlink:href="#DejaVuSans-2212"/>
       <use xlink:href="#DejaVuSans-32" x="83.789062"/>
       <use xlink:href="#DejaVuSans-30" x="147.412109"/>
       <use xlink:href="#DejaVuSans-30" x="211.035156"/>
      </g>
     </g>
    </g>
    <g id="ytick_2">
     <g id="line2d_7">
      <g>
       <use xlink:href="#m2a1ceef639" x="121.395781" y="224.969701" style="stroke: #000000; stroke-width: 0.8"/>
      </g>
     </g>
     <g id="text_8">
      <!-- −100 -->
      <g transform="translate(40.234375 235.227592) scale(0.27 -0.27)">
       <use xlink:href="#DejaVuSans-2212"/>
       <use xlink:href="#DejaVuSans-31" x="83.789062"/>
       <use xlink:href="#DejaVuSans-30" x="147.412109"/>
       <use xlink:href="#DejaVuSans-30" x="211.035156"/>
      </g>
     </g>
    </g>
    <g id="ytick_3">
     <g id="line2d_8">
      <g>
       <use xlink:href="#m2a1ceef639" x="121.395781" y="162.91" style="stroke: #000000; stroke-width: 0.8"/>
      </g>
     </g>
     <g id="text_9">
      <!-- 0 -->
      <g transform="translate(97.217031 173.167891) scale(0.27 -0.27)">
       <use xlink:href="#DejaVuSans-30"/>
      </g>
     </g>
    </g>
    <g id="ytick_4">
     <g id="line2d_9">
      <g>
       <use xlink:href="#m2a1ceef639" x="121.395781" y="100.850299" style="stroke: #000000; stroke-width: 0.8"/>
      </g>
     </g>
     <g id="text_10">
      <!-- 100 -->
      <g transform="translate(62.859531 111.108189) scale(0.27 -0.27)">
       <use xlink:href="#DejaVuSans-31"/>
       <use xlink:href="#DejaVuSans-30" x="63.623047"/>
       <use xlink:href="#DejaVuSans-30" x="127.246094"/>
      </g>
     </g>
    </g>
    <g id="ytick_5">
     <g id="line2d_10">
      <g>
       <use xlink:href="#m2a1ceef639" x="121.395781" y="38.790597" style="stroke: #000000; stroke-width: 0.8"/>
      </g>
     </g>
     <g id="text_11">
      <!-- 200 -->
      <g transform="translate(62.859531 49.048488) scale(0.27 -0.27)">
       <use xlink:href="#DejaVuSans-32"/>
       <use xlink:href="#DejaVuSans-30" x="63.623047"/>
       <use xlink:href="#DejaVuSans-30" x="127.246094"/>
      </g>
     </g>
    </g>
    <g id="text_12">
     <!-- mT/m -->
     <g transform="translate(29.995313 206.346719) rotate(-90) scale(0.3 -0.3)">
      <defs>
       <path id="DejaVuSans-2f" d="M 1625 4666 
L 2156 4666 
L 531 -594 
L 0 -594 
L 1625 4666 
z
" transform="scale(0.015625)"/>
      </defs>
      <use xlink:href="#DejaVuSans-6d"/>
      <use xlink:href="#DejaVuSans-54" x="97.412109"/>
      <use xlink:href="#DejaVuSans-2f" x="158.496094"/>
      <use xlink:href="#DejaVuSans-6d" x="192.1875"/>
     </g>
    </g>
   </g>
   <g id="line2d_11">
    <path d="M 121.395781 162.91 
L 531.354965 162.91 
" clip-path="url(#p03d96aea46)" style="fill: none; stroke: #d3d3d3; stroke-opacity: 0.8; stroke-width: 1.5; stroke-linecap: square"/>
   </g>
   <g id="line2d_12">
    <path d="M 121.395781 162.91 
L 132.576486 162.91 
L 133.321867 138.334234 
L 134.067247 123.109604 
L 134.812627 111.273335 
L 136.303388 101.098465 
L 143.011811 59.672355 
L 145.247952 46.095226 
L 145.993332 46.247468 
L 146.738713 45.946015 
L 147.484093 46.312191 
L 148.229473 46.134785 
L 148.974854 46.437152 
L 149.720234 46.39119 
L 150.465614 46.657096 
L 151.210995 46.657209 
L 151.956375 46.996341 
L 153.447136 47.031417 
L 154.192516 47.301041 
L 155.683277 47.469135 
L 157.174037 47.778757 
L 160.155559 48.433536 
L 163.88246 49.357798 
L 164.627841 49.428793 
L 165.373221 51.807861 
L 166.118601 57.296061 
L 167.609362 72.63035 
L 172.081644 123.572702 
L 172.827024 129.306137 
L 192.206913 242.60664 
L 192.952293 244.556546 
L 193.697674 244.617414 
L 195.933815 245.083547 
L 196.679195 245.230866 
L 198.915336 245.231406 
L 199.660716 243.18645 
L 201.151477 216.21469 
L 203.387618 190.987284 
L 205.623759 167.507775 
L 206.369139 162.91 
L 233.202831 162.91 
L 233.948212 142.523905 
L 235.438972 122.863637 
L 236.929733 105.460782 
L 244.383536 59.898006 
L 246.619677 46.40416 
L 247.365058 45.515438 
L 253.3281 45.534383 
L 254.818861 45.639712 
L 255.564241 46.409175 
L 256.309622 63.703825 
L 257.055002 75.872526 
L 260.781904 119.10001 
L 262.272664 135.088899 
L 264.508805 149.231599 
L 266.744946 162.91 
L 266.744946 162.91 
" clip-path="url(#p03d96aea46)" style="fill: none; stroke: #000000; stroke-width: 5; stroke-linecap: square"/>
   </g>
   <g id="line2d_13">
    <path d="M 266.744946 162.91 
L 268.645666 162.91 
L 269.502854 184.261831 
L 269.540123 183.33349 
L 271.291766 141.558169 
L 272.074416 141.558169 
L 273.863329 184.261831 
L 274.645978 184.261831 
L 276.434891 141.558169 
L 277.21754 141.558169 
L 279.006453 184.261831 
L 279.789102 184.261831 
L 281.578015 141.558169 
L 282.360664 141.558169 
L 284.149577 184.261831 
L 284.932227 184.261831 
L 286.721139 141.558169 
L 287.503789 141.558169 
L 289.292701 184.261831 
L 290.075351 184.261831 
L 291.864264 141.558169 
L 292.646913 141.558169 
L 294.435826 184.261831 
L 295.218475 184.261831 
L 297.007388 141.558169 
L 297.790037 141.558169 
L 299.57895 184.261831 
L 300.361599 184.261831 
L 302.150512 141.558169 
L 302.933162 141.558169 
L 304.722074 184.261831 
L 305.504724 184.261831 
L 307.293637 141.558169 
L 308.076286 141.558169 
L 309.865199 184.261831 
L 310.647848 184.261831 
L 312.436761 141.558169 
L 313.21941 141.558169 
L 315.008323 184.261831 
L 315.790972 184.261831 
L 317.579885 141.558169 
L 318.362534 141.558169 
L 320.151447 184.261831 
L 320.934097 184.261831 
L 322.723009 141.558169 
L 323.505659 141.558169 
L 325.294572 184.261831 
L 326.077221 184.261831 
L 327.866134 141.558169 
L 328.648783 141.558169 
L 330.437696 184.261831 
L 331.220345 184.261831 
L 333.009258 141.558169 
L 333.791907 141.558169 
L 335.58082 184.261831 
L 336.36347 184.261831 
L 338.152382 141.558169 
L 338.935032 141.558169 
L 340.723945 184.261831 
L 341.506594 184.261831 
L 343.295507 141.558169 
L 344.078156 141.558169 
L 345.867069 184.261831 
L 346.649718 184.261831 
L 348.438631 141.558169 
L 349.22128 141.558169 
L 351.010193 184.261831 
L 351.792842 184.261831 
L 353.581755 141.558169 
L 354.364405 141.558169 
L 356.153317 184.261831 
L 356.935967 184.261831 
L 358.72488 141.558169 
L 359.507529 141.558169 
L 361.296442 184.261831 
L 362.079091 184.261831 
L 363.868004 141.558169 
L 364.650653 141.558169 
L 366.439566 184.261831 
L 367.222215 184.261831 
L 369.011128 141.558169 
L 369.793778 141.558169 
L 371.58269 184.261831 
L 372.36534 184.261831 
L 374.154252 141.558169 
L 374.936902 141.558169 
L 376.725815 184.261831 
L 377.508464 184.261831 
L 379.297377 141.558169 
L 380.080026 141.558169 
L 381.868939 184.261831 
L 382.651588 184.261831 
L 384.440501 141.558169 
L 385.22315 141.558169 
L 387.012063 184.261831 
L 387.794713 184.261831 
L 389.583625 141.558169 
L 390.366275 141.558169 
L 392.155188 184.261831 
L 392.937837 184.261831 
L 394.72675 141.558169 
L 395.509399 141.558169 
L 397.298312 184.261831 
L 398.080961 184.261831 
L 399.869874 141.558169 
L 400.652523 141.558169 
L 402.441436 184.261831 
L 403.224086 184.261831 
L 405.012998 141.558169 
L 405.795648 141.558169 
L 407.58456 184.261831 
L 408.36721 184.261831 
L 410.156123 141.558169 
L 410.938772 141.558169 
L 411.833228 162.91 
L 411.833228 162.91 
" clip-path="url(#p03d96aea46)" style="fill: none; stroke: #000000; stroke-opacity: 0.7; stroke-width: 5; stroke-linecap: square"/>
   </g>
   <g id="line2d_14">
    <path d="M 317.930214 287.65 
L 317.930214 38.17 
" clip-path="url(#p03d96aea46)" style="fill: none; stroke-dasharray: 18.5,8; stroke-dashoffset: 0; stroke: #000000; stroke-width: 5"/>
   </g>
   <g id="line2d_15">
    <path d="M 121.395781 38.790597 
L 531.354965 38.790597 
" clip-path="url(#p03d96aea46)" style="fill: none; stroke-dasharray: 18.5,8; stroke-dashoffset: 0; stroke: #000000; stroke-opacity: 0.2; stroke-width: 5"/>
   </g>
   <g id="line2d_16">
    <path d="M 121.395781 287.029403 
L 531.354965 287.029403 
" clip-path="url(#p03d96aea46)" style="fill: none; stroke-dasharray: 18.5,8; stroke-dashoffset: 0; stroke: #000000; stroke-opacity: 0.2; stroke-width: 5"/>
   </g>
   <g id="line2d_17">
    <path d="M 121.395781 162.91 
L 531.354965 162.91 
" clip-path="url(#p03d96aea46)" style="fill: none; stroke: #000000; stroke-width: 5; stroke-linecap: square"/>
   </g>
   <g id="patch_3">
    <path d="M 121.395781 287.65 
L 121.395781 38.17 
" style="fill: none; stroke: #000000; stroke-width: 0.8; stroke-linejoin: miter; stroke-linecap: square"/>
   </g>
   <g id="patch_4">
    <path d="M 121.395781 287.65 
L 531.354965 287.65 
" style="fill: none; stroke: #000000; stroke-width: 0.8; stroke-linejoin: miter; stroke-linecap: square"/>
   </g>
   <g id="text_13">
    <!-- $G(t)$ -->
    <g transform="translate(295.175373 31.515) scale(0.32 -0.32)">
     <defs>
      <path id="DejaVuSans-Oblique-47" d="M 3494 697 
L 3738 1919 
L 2700 1919 
L 2797 2438 
L 4453 2438 
L 4050 384 
Q 3634 156 3143 32 
Q 2653 -91 2156 -91 
Q 1278 -91 783 396 
Q 288 884 288 1753 
Q 288 2475 589 3126 
Q 891 3778 1422 4213 
Q 1756 4484 2153 4617 
Q 2550 4750 3034 4750 
Q 3472 4750 3873 4639 
Q 4275 4528 4641 4306 
L 4513 3634 
Q 4231 3928 3853 4083 
Q 3475 4238 3047 4238 
Q 2550 4238 2172 4048 
Q 1794 3859 1497 3463 
Q 1244 3125 1098 2667 
Q 953 2209 953 1734 
Q 953 1081 1287 751 
Q 1622 422 2284 422 
Q 2616 422 2925 492 
Q 3234 563 3494 697 
z
" transform="scale(0.015625)"/>
      <path id="DejaVuSans-28" d="M 1984 4856 
Q 1566 4138 1362 3434 
Q 1159 2731 1159 2009 
Q 1159 1288 1364 580 
Q 1569 -128 1984 -844 
L 1484 -844 
Q 1016 -109 783 600 
Q 550 1309 550 2009 
Q 550 2706 781 3412 
Q 1013 4119 1484 4856 
L 1984 4856 
z
" transform="scale(0.015625)"/>
      <path id="DejaVuSans-Oblique-74" d="M 2706 3500 
L 2619 3053 
L 1472 3053 
L 1100 1153 
Q 1081 1047 1072 975 
Q 1063 903 1063 863 
Q 1063 663 1183 572 
Q 1303 481 1569 481 
L 2150 481 
L 2053 0 
L 1503 0 
Q 991 0 739 200 
Q 488 400 488 806 
Q 488 878 497 964 
Q 506 1050 525 1153 
L 897 3053 
L 409 3053 
L 500 3500 
L 978 3500 
L 1172 4494 
L 1747 4494 
L 1556 3500 
L 2706 3500 
z
" transform="scale(0.015625)"/>
      <path id="DejaVuSans-29" d="M 513 4856 
L 1013 4856 
Q 1481 4119 1714 3412 
Q 1947 2706 1947 2009 
Q 1947 1309 1714 600 
Q 1481 -109 1013 -844 
L 513 -844 
Q 928 -128 1133 580 
Q 1338 1288 1338 2009 
Q 1338 2731 1133 3434 
Q 928 4138 513 4856 
z
" transform="scale(0.015625)"/>
     </defs>
     <use xlink:href="#DejaVuSans-Oblique-47" transform="translate(0 0.125)"/>
     <use xlink:href="#DejaVuSans-28" transform="translate(77.490234 0.125)"/>
     <use xlink:href="#DejaVuSans-Oblique-74" transform="translate(116.503906 0.125)"/>
     <use xlink:href="#DejaVuSans-29" transform="translate(155.712891 0.125)"/>
    </g>
   </g>
   <g id="legend_1">
    <g id="patch_5">
     <path d="M 507.154965 66.77 
L 515.954965 66.77 
Q 520.354965 66.77 520.354965 62.37 
L 520.354965 53.57 
Q 520.354965 49.17 515.954965 49.17 
L 507.154965 49.17 
Q 502.754965 49.17 502.754965 53.57 
L 502.754965 62.37 
Q 502.754965 66.77 507.154965 66.77 
z
" style="fill: #ffffff; opacity: 0.8; stroke: #cccccc; stroke-linejoin: miter"/>
    </g>
   </g>
  </g>
  <g id="axes_2">
   <g id="patch_6">
    <path d="M 654.34272 287.65 
L 1064.301904 287.65 
L 1064.301904 38.17 
L 654.34272 38.17 
z
" style="fill: #ffffff"/>
   </g>
   <g id="matplotlib.axis_3">
    <g id="xtick_6">
     <g id="line2d_18">
      <g>
       <use xlink:href="#mf5d80074b3" x="654.34272" y="287.65" style="stroke: #000000; stroke-width: 0.8"/>
      </g>
     </g>
     <g id="text_14">
      <!-- 0 -->
      <g transform="translate(645.753345 315.165781) scale(0.27 -0.27)">
       <use xlink:href="#DejaVuSans-30"/>
      </g>
     </g>
    </g>
    <g id="xtick_7">
     <g id="line2d_19">
      <g>
       <use xlink:href="#mf5d80074b3" x="747.515262" y="287.65" style="stroke: #000000; stroke-width: 0.8"/>
      </g>
     </g>
     <g id="text_15">
      <!-- 25 -->
      <g transform="translate(730.336512 315.165781) scale(0.27 -0.27)">
       <use xlink:href="#DejaVuSans-32"/>
       <use xlink:href="#DejaVuSans-35" x="63.623047"/>
      </g>
     </g>
    </g>
    <g id="xtick_8">
     <g id="line2d_20">
      <g>
       <use xlink:href="#mf5d80074b3" x="840.687804" y="287.65" style="stroke: #000000; stroke-width: 0.8"/>
      </g>
     </g>
     <g id="text_16">
      <!-- 50 -->
      <g transform="translate(823.509054 315.165781) scale(0.27 -0.27)">
       <use xlink:href="#DejaVuSans-35"/>
       <use xlink:href="#DejaVuSans-30" x="63.623047"/>
      </g>
     </g>
    </g>
    <g id="xtick_9">
     <g id="line2d_21">
      <g>
       <use xlink:href="#mf5d80074b3" x="933.860345" y="287.65" style="stroke: #000000; stroke-width: 0.8"/>
      </g>
     </g>
     <g id="text_17">
      <!-- 75 -->
      <g transform="translate(916.681595 315.165781) scale(0.27 -0.27)">
       <use xlink:href="#DejaVuSans-37"/>
       <use xlink:href="#DejaVuSans-35" x="63.623047"/>
      </g>
     </g>
    </g>
    <g id="xtick_10">
     <g id="line2d_22">
      <g>
       <use xlink:href="#mf5d80074b3" x="1027.032887" y="287.65" style="stroke: #000000; stroke-width: 0.8"/>
      </g>
     </g>
     <g id="text_18">
      <!-- 100 -->
      <g transform="translate(1001.264762 315.165781) scale(0.27 -0.27)">
       <use xlink:href="#DejaVuSans-31"/>
       <use xlink:href="#DejaVuSans-30" x="63.623047"/>
       <use xlink:href="#DejaVuSans-30" x="127.246094"/>
      </g>
     </g>
    </g>
    <g id="text_19">
     <!-- Time [ms] -->
     <g transform="translate(783.724656 347.57625) scale(0.3 -0.3)">
      <use xlink:href="#DejaVuSans-54"/>
      <use xlink:href="#DejaVuSans-69" x="57.958984"/>
      <use xlink:href="#DejaVuSans-6d" x="85.742188"/>
      <use xlink:href="#DejaVuSans-65" x="183.154297"/>
      <use xlink:href="#DejaVuSans-20" x="244.677734"/>
      <use xlink:href="#DejaVuSans-5b" x="276.464844"/>
      <use xlink:href="#DejaVuSans-6d" x="315.478516"/>
      <use xlink:href="#DejaVuSans-73" x="412.890625"/>
      <use xlink:href="#DejaVuSans-5d" x="464.990234"/>
     </g>
    </g>
   </g>
   <g id="matplotlib.axis_4">
    <g id="ytick_6">
     <g id="line2d_23">
      <g>
       <use xlink:href="#m2a1ceef639" x="654.34272" y="287.029403" style="stroke: #000000; stroke-width: 0.8"/>
      </g>
     </g>
     <g id="text_20">
      <!-- −200 -->
      <g transform="translate(573.181314 297.287294) scale(0.27 -0.27)">
       <use xlink:href="#DejaVuSans-2212"/>
       <use xlink:href="#DejaVuSans-32" x="83.789062"/>
       <use xlink:href="#DejaVuSans-30" x="147.412109"/>
       <use xlink:href="#DejaVuSans-30" x="211.035156"/>
      </g>
     </g>
    </g>
    <g id="ytick_7">
     <g id="line2d_24">
      <g>
       <use xlink:href="#m2a1ceef639" x="654.34272" y="224.969701" style="stroke: #000000; stroke-width: 0.8"/>
      </g>
     </g>
     <g id="text_21">
      <!-- −100 -->
      <g transform="translate(573.181314 235.227592) scale(0.27 -0.27)">
       <use xlink:href="#DejaVuSans-2212"/>
       <use xlink:href="#DejaVuSans-31" x="83.789062"/>
       <use xlink:href="#DejaVuSans-30" x="147.412109"/>
       <use xlink:href="#DejaVuSans-30" x="211.035156"/>
      </g>
     </g>
    </g>
    <g id="ytick_8">
     <g id="line2d_25">
      <g>
       <use xlink:href="#m2a1ceef639" x="654.34272" y="162.91" style="stroke: #000000; stroke-width: 0.8"/>
      </g>
     </g>
     <g id="text_22">
      <!-- 0 -->
      <g transform="translate(630.16397 173.167891) scale(0.27 -0.27)">
       <use xlink:href="#DejaVuSans-30"/>
      </g>
     </g>
    </g>
    <g id="ytick_9">
     <g id="line2d_26">
      <g>
       <use xlink:href="#m2a1ceef639" x="654.34272" y="100.850299" style="stroke: #000000; stroke-width: 0.8"/>
      </g>
     </g>
     <g id="text_23">
      <!-- 100 -->
      <g transform="translate(595.80647 111.108189) scale(0.27 -0.27)">
       <use xlink:href="#DejaVuSans-31"/>
       <use xlink:href="#DejaVuSans-30" x="63.623047"/>
       <use xlink:href="#DejaVuSans-30" x="127.246094"/>
      </g>
     </g>
    </g>
    <g id="ytick_10">
     <g id="line2d_27">
      <g>
       <use xlink:href="#m2a1ceef639" x="654.34272" y="38.790597" style="stroke: #000000; stroke-width: 0.8"/>
      </g>
     </g>
     <g id="text_24">
      <!-- 200 -->
      <g transform="translate(595.80647 49.048488) scale(0.27 -0.27)">
       <use xlink:href="#DejaVuSans-32"/>
       <use xlink:href="#DejaVuSans-30" x="63.623047"/>
       <use xlink:href="#DejaVuSans-30" x="127.246094"/>
      </g>
     </g>
    </g>
    <g id="text_25">
     <!-- T/m/s -->
     <g transform="translate(562.942251 204.602969) rotate(-90) scale(0.3 -0.3)">
      <use xlink:href="#DejaVuSans-54"/>
      <use xlink:href="#DejaVuSans-2f" x="61.083984"/>
      <use xlink:href="#DejaVuSans-6d" x="94.775391"/>
      <use xlink:href="#DejaVuSans-2f" x="192.1875"/>
      <use xlink:href="#DejaVuSans-73" x="225.878906"/>
     </g>
    </g>
   </g>
   <g id="line2d_28">
    <path d="M 654.34272 162.91 
L 1064.301904 162.91 
" clip-path="url(#pb2a321aaf7)" style="fill: none; stroke: #d3d3d3; stroke-opacity: 0.8; stroke-width: 1.5; stroke-linecap: square"/>
   </g>
   <g id="line2d_29">
    <path d="M 654.34272 162.91 
L 664.778045 162.91 
L 665.523425 40.031169 
L 666.268805 86.786851 
L 667.014186 103.728654 
L 667.759566 135.541214 
L 668.504946 139.404438 
L 672.231848 139.922645 
L 676.70413 140.282172 
L 677.44951 140.325961 
L 678.194891 163.671209 
L 678.940271 161.402737 
L 679.685651 164.74088 
L 680.431032 162.022969 
L 681.176412 164.421837 
L 681.921792 162.68019 
L 682.667173 164.239527 
L 683.412553 162.910567 
L 684.157933 164.605658 
L 684.903314 162.911721 
L 685.648694 163.083663 
L 686.394074 164.258119 
L 687.139455 163.248131 
L 687.884835 163.412338 
L 688.630215 163.882704 
L 689.375596 163.485408 
L 691.611737 163.802583 
L 692.357117 163.700944 
L 693.102497 163.91226 
L 693.847878 163.810784 
L 694.593258 163.931215 
L 695.338638 163.89141 
L 696.829399 163.264977 
L 697.574779 174.805339 
L 698.32016 190.350998 
L 699.06554 199.161929 
L 699.81092 203.329521 
L 700.556301 205.457843 
L 702.047061 208.07356 
L 702.792442 207.713372 
L 704.283202 200.051397 
L 705.028583 191.577178 
L 705.773963 184.787346 
L 706.519343 184.979813 
L 708.010104 184.866161 
L 709.500865 184.874267 
L 710.246245 184.732416 
L 710.991625 184.886628 
L 711.737006 184.685248 
L 712.482386 184.906924 
L 713.227766 184.605677 
L 713.973147 184.803716 
L 714.718527 184.72725 
L 715.463907 184.521636 
L 716.209288 184.782204 
L 717.700048 184.582937 
L 718.445429 184.522598 
L 719.190809 184.780909 
L 719.936189 184.201653 
L 720.68157 184.804059 
L 721.42695 184.282504 
L 722.17233 184.721057 
L 722.917711 184.472457 
L 723.663091 183.892968 
L 724.408471 185.276734 
L 725.153852 172.659528 
L 725.899232 163.214339 
L 726.644612 163.835858 
L 727.389993 163.783026 
L 728.135373 163.441783 
L 728.880753 163.646596 
L 729.626134 162.911494 
L 731.116894 162.911864 
L 731.862275 152.68522 
L 732.607655 91.444031 
L 733.353035 99.517166 
L 734.098416 119.167391 
L 734.843796 121.006568 
L 735.589176 122.419013 
L 736.334557 123.4265 
L 737.079937 123.483848 
L 737.825317 124.422105 
L 738.570698 139.921125 
L 739.316078 162.91 
L 765.40439 162.91 
L 766.14977 60.979526 
L 766.89515 112.103563 
L 767.640531 115.415097 
L 768.385911 117.558426 
L 769.131291 121.247301 
L 769.876672 139.832044 
L 774.348954 140.231251 
L 778.821236 140.448223 
L 779.566616 158.466388 
L 780.311996 162.903239 
L 785.529659 162.94348 
L 786.275039 163.422166 
L 787.020419 162.924478 
L 787.7658 166.757315 
L 788.51118 249.38325 
L 789.25656 223.753505 
L 790.001941 207.371444 
L 790.747321 207.390069 
L 791.492701 206.573341 
L 792.983462 204.050418 
L 793.728842 203.206339 
L 794.474223 202.558106 
L 795.219603 187.727615 
L 795.964983 185.894388 
L 798.946505 185.665536 
L 798.946505 185.665536 
" clip-path="url(#pb2a321aaf7)" style="fill: none; stroke: #000000; stroke-width: 5; stroke-linecap: square"/>
   </g>
   <g id="line2d_30">
    <path d="M 654.34272 38.790597 
L 1064.301904 38.790597 
" clip-path="url(#pb2a321aaf7)" style="fill: none; stroke-dasharray: 18.5,8; stroke-dashoffset: 0; stroke: #000000; stroke-opacity: 0.2; stroke-width: 5"/>
   </g>
   <g id="line2d_31">
    <path d="M 654.34272 287.029403 
L 1064.301904 287.029403 
" clip-path="url(#pb2a321aaf7)" style="fill: none; stroke-dasharray: 18.5,8; stroke-dashoffset: 0; stroke: #000000; stroke-opacity: 0.2; stroke-width: 5"/>
   </g>
   <g id="line2d_32">
    <path d="M 654.34272 162.91 
L 1064.301904 162.91 
" clip-path="url(#pb2a321aaf7)" style="fill: none; stroke: #000000; stroke-width: 5; stroke-linecap: square"/>
   </g>
   <g id="patch_7">
    <path d="M 654.34272 287.65 
L 654.34272 38.17 
" style="fill: none; stroke: #000000; stroke-width: 0.8; stroke-linejoin: miter; stroke-linecap: square"/>
   </g>
   <g id="patch_8">
    <path d="M 654.34272 287.65 
L 1064.301904 287.65 
" style="fill: none; stroke: #000000; stroke-width: 0.8; stroke-linejoin: miter; stroke-linecap: square"/>
   </g>
   <g id="text_26">
    <!-- $S(t)$ -->
    <g transform="translate(830.362312 31.515) scale(0.32 -0.32)">
     <defs>
      <path id="DejaVuSans-Oblique-53" d="M 3859 4513 
L 3738 3897 
Q 3422 4066 3111 4152 
Q 2800 4238 2509 4238 
Q 1944 4238 1609 3991 
Q 1275 3744 1275 3334 
Q 1275 3109 1398 2989 
Q 1522 2869 2034 2731 
L 2413 2638 
Q 3053 2472 3303 2217 
Q 3553 1963 3553 1503 
Q 3553 797 2998 353 
Q 2444 -91 1538 -91 
Q 1166 -91 791 -17 
Q 416 56 38 206 
L 166 856 
Q 513 641 861 531 
Q 1209 422 1556 422 
Q 2147 422 2503 684 
Q 2859 947 2859 1369 
Q 2859 1650 2717 1795 
Q 2575 1941 2106 2059 
L 1728 2156 
Q 1081 2325 845 2545 
Q 609 2766 609 3163 
Q 609 3859 1145 4304 
Q 1681 4750 2541 4750 
Q 2875 4750 3203 4690 
Q 3531 4631 3859 4513 
z
" transform="scale(0.015625)"/>
     </defs>
     <use xlink:href="#DejaVuSans-Oblique-53" transform="translate(0 0.125)"/>
     <use xlink:href="#DejaVuSans-28" transform="translate(63.476562 0.125)"/>
     <use xlink:href="#DejaVuSans-Oblique-74" transform="translate(102.490234 0.125)"/>
     <use xlink:href="#DejaVuSans-29" transform="translate(141.699219 0.125)"/>
    </g>
   </g>
  </g>
  <g id="axes_3">
   <g id="patch_9">
    <path d="M 1187.289659 287.65 
L 1597.248842 287.65 
L 1597.248842 38.17 
L 1187.289659 38.17 
z
" style="fill: #ffffff"/>
   </g>
   <g id="matplotlib.axis_5">
    <g id="xtick_11">
     <g id="line2d_33">
      <g>
       <use xlink:href="#mf5d80074b3" x="1187.289659" y="287.65" style="stroke: #000000; stroke-width: 0.8"/>
      </g>
     </g>
     <g id="text_27">
      <!-- 0 -->
      <g transform="translate(1178.700284 315.165781) scale(0.27 -0.27)">
       <use xlink:href="#DejaVuSans-30"/>
      </g>
     </g>
    </g>
    <g id="xtick_12">
     <g id="line2d_34">
      <g>
       <use xlink:href="#mf5d80074b3" x="1280.462201" y="287.65" style="stroke: #000000; stroke-width: 0.8"/>
      </g>
     </g>
     <g id="text_28">
      <!-- 25 -->
      <g transform="translate(1263.283451 315.165781) scale(0.27 -0.27)">
       <use xlink:href="#DejaVuSans-32"/>
       <use xlink:href="#DejaVuSans-35" x="63.623047"/>
      </g>
     </g>
    </g>
    <g id="xtick_13">
     <g id="line2d_35">
      <g>
       <use xlink:href="#mf5d80074b3" x="1373.634742" y="287.65" style="stroke: #000000; stroke-width: 0.8"/>
      </g>
     </g>
     <g id="text_29">
      <!-- 50 -->
      <g transform="translate(1356.455992 315.165781) scale(0.27 -0.27)">
       <use xlink:href="#DejaVuSans-35"/>
       <use xlink:href="#DejaVuSans-30" x="63.623047"/>
      </g>
     </g>
    </g>
    <g id="xtick_14">
     <g id="line2d_36">
      <g>
       <use xlink:href="#mf5d80074b3" x="1466.807284" y="287.65" style="stroke: #000000; stroke-width: 0.8"/>
      </g>
     </g>
     <g id="text_30">
      <!-- 75 -->
      <g transform="translate(1449.628534 315.165781) scale(0.27 -0.27)">
       <use xlink:href="#DejaVuSans-37"/>
       <use xlink:href="#DejaVuSans-35" x="63.623047"/>
      </g>
     </g>
    </g>
    <g id="xtick_15">
     <g id="line2d_37">
      <g>
       <use xlink:href="#mf5d80074b3" x="1559.979826" y="287.65" style="stroke: #000000; stroke-width: 0.8"/>
      </g>
     </g>
     <g id="text_31">
      <!-- 100 -->
      <g transform="translate(1534.211701 315.165781) scale(0.27 -0.27)">
       <use xlink:href="#DejaVuSans-31"/>
       <use xlink:href="#DejaVuSans-30" x="63.623047"/>
       <use xlink:href="#DejaVuSans-30" x="127.246094"/>
      </g>
     </g>
    </g>
    <g id="text_32">
     <!-- Time [ms] -->
     <g transform="translate(1316.671594 347.57625) scale(0.3 -0.3)">
      <use xlink:href="#DejaVuSans-54"/>
      <use xlink:href="#DejaVuSans-69" x="57.958984"/>
      <use xlink:href="#DejaVuSans-6d" x="85.742188"/>
      <use xlink:href="#DejaVuSans-65" x="183.154297"/>
      <use xlink:href="#DejaVuSans-20" x="244.677734"/>
      <use xlink:href="#DejaVuSans-5b" x="276.464844"/>
      <use xlink:href="#DejaVuSans-6d" x="315.478516"/>
      <use xlink:href="#DejaVuSans-73" x="412.890625"/>
      <use xlink:href="#DejaVuSans-5d" x="464.990234"/>
     </g>
    </g>
   </g>
   <g id="matplotlib.axis_6">
    <g id="ytick_11">
     <g id="line2d_38">
      <g>
       <use xlink:href="#m2a1ceef639" x="1187.289659" y="287.65" style="stroke: #000000; stroke-width: 0.8"/>
      </g>
     </g>
     <g id="text_33">
      <!-- 0.00 -->
      <g transform="translate(1120.172471 297.907891) scale(0.27 -0.27)">
       <defs>
        <path id="DejaVuSans-2e" d="M 684 794 
L 1344 794 
L 1344 0 
L 684 0 
L 684 794 
z
" transform="scale(0.015625)"/>
       </defs>
       <use xlink:href="#DejaVuSans-30"/>
       <use xlink:href="#DejaVuSans-2e" x="63.623047"/>
       <use xlink:href="#DejaVuSans-30" x="95.410156"/>
       <use xlink:href="#DejaVuSans-30" x="159.033203"/>
      </g>
     </g>
    </g>
    <g id="ytick_12">
     <g id="line2d_39">
      <g>
       <use xlink:href="#m2a1ceef639" x="1187.289659" y="225.28" style="stroke: #000000; stroke-width: 0.8"/>
      </g>
     </g>
     <g id="text_34">
      <!-- 0.25 -->
      <g transform="translate(1120.172471 235.537891) scale(0.27 -0.27)">
       <use xlink:href="#DejaVuSans-30"/>
       <use xlink:href="#DejaVuSans-2e" x="63.623047"/>
       <use xlink:href="#DejaVuSans-32" x="95.410156"/>
       <use xlink:href="#DejaVuSans-35" x="159.033203"/>
      </g>
     </g>
    </g>
    <g id="ytick_13">
     <g id="line2d_40">
      <g>
       <use xlink:href="#m2a1ceef639" x="1187.289659" y="162.91" style="stroke: #000000; stroke-width: 0.8"/>
      </g>
     </g>
     <g id="text_35">
      <!-- 0.50 -->
      <g transform="translate(1120.172471 173.167891) scale(0.27 -0.27)">
       <use xlink:href="#DejaVuSans-30"/>
       <use xlink:href="#DejaVuSans-2e" x="63.623047"/>
       <use xlink:href="#DejaVuSans-35" x="95.410156"/>
       <use xlink:href="#DejaVuSans-30" x="159.033203"/>
      </g>
     </g>
    </g>
    <g id="ytick_14">
     <g id="line2d_41">
      <g>
       <use xlink:href="#m2a1ceef639" x="1187.289659" y="100.54" style="stroke: #000000; stroke-width: 0.8"/>
      </g>
     </g>
     <g id="text_36">
      <!-- 0.75 -->
      <g transform="translate(1120.172471 110.797891) scale(0.27 -0.27)">
       <use xlink:href="#DejaVuSans-30"/>
       <use xlink:href="#DejaVuSans-2e" x="63.623047"/>
       <use xlink:href="#DejaVuSans-37" x="95.410156"/>
       <use xlink:href="#DejaVuSans-35" x="159.033203"/>
      </g>
     </g>
    </g>
    <g id="ytick_15">
     <g id="line2d_42">
      <g>
       <use xlink:href="#m2a1ceef639" x="1187.289659" y="38.17" style="stroke: #000000; stroke-width: 0.8"/>
      </g>
     </g>
     <g id="text_37">
      <!-- 1.00 -->
      <g transform="translate(1120.172471 48.427891) scale(0.27 -0.27)">
       <use xlink:href="#DejaVuSans-31"/>
       <use xlink:href="#DejaVuSans-2e" x="63.623047"/>
       <use xlink:href="#DejaVuSans-30" x="95.410156"/>
       <use xlink:href="#DejaVuSans-30" x="159.033203"/>
      </g>
     </g>
    </g>
    <g id="text_38">
     <!-- unitless -->
     <g transform="translate(1109.933409 220.995156) rotate(-90) scale(0.3 -0.3)">
      <defs>
       <path id="DejaVuSans-75" d="M 544 1381 
L 544 3500 
L 1119 3500 
L 1119 1403 
Q 1119 906 1312 657 
Q 1506 409 1894 409 
Q 2359 409 2629 706 
Q 2900 1003 2900 1516 
L 2900 3500 
L 3475 3500 
L 3475 0 
L 2900 0 
L 2900 538 
Q 2691 219 2414 64 
Q 2138 -91 1772 -91 
Q 1169 -91 856 284 
Q 544 659 544 1381 
z
M 1991 3584 
L 1991 3584 
z
" transform="scale(0.015625)"/>
       <path id="DejaVuSans-6e" d="M 3513 2113 
L 3513 0 
L 2938 0 
L 2938 2094 
Q 2938 2591 2744 2837 
Q 2550 3084 2163 3084 
Q 1697 3084 1428 2787 
Q 1159 2491 1159 1978 
L 1159 0 
L 581 0 
L 581 3500 
L 1159 3500 
L 1159 2956 
Q 1366 3272 1645 3428 
Q 1925 3584 2291 3584 
Q 2894 3584 3203 3211 
Q 3513 2838 3513 2113 
z
" transform="scale(0.015625)"/>
       <path id="DejaVuSans-74" d="M 1172 4494 
L 1172 3500 
L 2356 3500 
L 2356 3053 
L 1172 3053 
L 1172 1153 
Q 1172 725 1289 603 
Q 1406 481 1766 481 
L 2356 481 
L 2356 0 
L 1766 0 
Q 1100 0 847 248 
Q 594 497 594 1153 
L 594 3053 
L 172 3053 
L 172 3500 
L 594 3500 
L 594 4494 
L 1172 4494 
z
" transform="scale(0.015625)"/>
       <path id="DejaVuSans-6c" d="M 603 4863 
L 1178 4863 
L 1178 0 
L 603 0 
L 603 4863 
z
" transform="scale(0.015625)"/>
      </defs>
      <use xlink:href="#DejaVuSans-75"/>
      <use xlink:href="#DejaVuSans-6e" x="63.378906"/>
      <use xlink:href="#DejaVuSans-69" x="126.757812"/>
      <use xlink:href="#DejaVuSans-74" x="154.541016"/>
      <use xlink:href="#DejaVuSans-6c" x="193.75"/>
      <use xlink:href="#DejaVuSans-65" x="221.533203"/>
      <use xlink:href="#DejaVuSans-73" x="283.056641"/>
      <use xlink:href="#DejaVuSans-73" x="335.15625"/>
     </g>
    </g>
   </g>
   <g id="line2d_43">
    <path d="M 1187.289659 287.65 
L 1597.248842 287.65 
" clip-path="url(#pa316545560)" style="fill: none; stroke: #d3d3d3; stroke-opacity: 0.8; stroke-width: 1.5; stroke-linecap: square"/>
   </g>
   <g id="line2d_44">
    <path d="M 1187.289659 287.65 
L 1198.470364 287.65 
L 1199.215744 146.720638 
L 1199.961124 118.665703 
L 1200.706505 118.597619 
L 1201.451885 151.876334 
L 1202.197265 173.093878 
L 1202.942646 184.290737 
L 1203.688026 190.351075 
L 1204.433406 193.716228 
L 1205.178787 195.623027 
L 1205.924167 196.706252 
L 1206.669547 197.298381 
L 1207.414928 197.579832 
L 1208.160308 197.65416 
L 1209.651069 197.405417 
L 1211.141829 196.829664 
L 1211.88721 223.122577 
L 1213.37797 246.823483 
L 1214.123351 250.870291 
L 1214.868731 256.310269 
L 1215.614111 258.371238 
L 1216.359492 259.583669 
L 1217.104872 261.592545 
L 1217.850252 261.998578 
L 1218.595633 263.834665 
L 1219.341013 264.989739 
L 1220.086393 265.125576 
L 1220.831774 266.204214 
L 1221.577154 266.883613 
L 1222.322534 267.153155 
L 1223.067915 267.788033 
L 1223.813295 267.935844 
L 1225.304056 267.860261 
L 1226.049436 268.056522 
L 1226.794817 268.005518 
L 1227.540197 268.174485 
L 1229.030958 268.363623 
L 1229.776338 268.835287 
L 1230.521718 269.602944 
L 1231.267099 256.900408 
L 1232.757859 206.962303 
L 1233.50324 187.063021 
L 1234.24862 171.968642 
L 1234.994 160.370172 
L 1235.739381 150.781534 
L 1236.484761 144.26773 
L 1237.230141 143.328326 
L 1237.975522 146.194521 
L 1238.720902 156.549251 
L 1239.466282 169.544601 
L 1240.211663 176.410391 
L 1240.957043 180.352336 
L 1241.702423 182.689885 
L 1242.447804 184.026499 
L 1243.193184 184.859056 
L 1243.938564 185.498335 
L 1245.429325 185.928478 
L 1246.174705 185.751228 
L 1246.920086 185.900962 
L 1248.410846 185.473586 
L 1249.156227 185.479446 
L 1249.901607 185.049858 
L 1252.137748 184.434588 
L 1252.883128 183.887515 
L 1253.628509 184.095117 
L 1254.373889 183.378639 
L 1255.119269 183.428809 
L 1255.86465 182.811716 
L 1256.61003 182.606098 
L 1257.35541 183.011469 
L 1258.100791 181.523847 
L 1258.846171 195.014777 
L 1259.591551 213.519849 
L 1260.336932 223.707674 
L 1261.082312 230.214881 
L 1261.827692 235.017342 
L 1263.318453 241.497789 
L 1264.063833 243.956915 
L 1264.809214 245.890697 
L 1265.554594 241.065436 
L 1266.299974 165.722724 
L 1267.045355 130.073375 
L 1267.790735 130.087224 
L 1269.281496 129.821437 
L 1270.026876 129.546682 
L 1270.772256 128.387133 
L 1271.517637 127.923848 
L 1272.263017 144.690385 
L 1273.008397 180.142268 
L 1273.753778 200.535285 
L 1274.499158 212.999673 
L 1275.244538 221.147825 
L 1275.989919 226.839706 
L 1276.735299 231.056171 
L 1277.480679 234.33223 
L 1278.22606 236.972972 
L 1279.71682 241.016282 
L 1281.207581 244.013996 
L 1282.698342 246.36842 
L 1284.189102 248.306472 
L 1286.425243 250.720533 
L 1288.661384 252.76839 
L 1291.642906 255.160225 
L 1295.369807 257.811316 
L 1299.096709 260.202436 
L 1299.842089 143.751098 
L 1300.58747 135.075323 
L 1301.33285 131.337703 
L 1302.07823 129.503508 
L 1302.823611 130.928819 
L 1303.568991 151.64919 
L 1304.314371 162.64418 
L 1305.059752 168.668196 
L 1305.805132 172.096981 
L 1306.550512 174.130924 
L 1307.295893 175.381614 
L 1308.041273 176.172628 
L 1308.786653 176.673127 
L 1309.532034 176.982227 
L 1311.022794 177.236158 
L 1312.513555 177.189725 
L 1313.258935 197.728086 
L 1314.004316 214.618716 
L 1314.749696 224.776588 
L 1315.495076 231.353975 
L 1316.240457 235.849794 
L 1316.985837 239.180068 
L 1317.731217 241.766574 
L 1319.221978 245.590022 
L 1319.967358 246.746265 
L 1320.712739 248.184166 
L 1321.458119 246.895809 
L 1322.203499 151.891732 
L 1322.94888 125.071815 
L 1323.69426 126.163752 
L 1325.185021 122.792244 
L 1325.930401 121.866326 
L 1326.675781 121.625481 
L 1328.166542 121.400255 
L 1328.911922 137.682477 
L 1329.657303 148.649326 
L 1330.402683 154.96223 
L 1331.148063 158.787309 
L 1331.893444 161.247866 
L 1332.638824 162.879381 
L 1332.638824 162.879381 
" clip-path="url(#pa316545560)" style="fill: none; stroke: #000000; stroke-width: 5; stroke-linecap: square"/>
   </g>
   <g id="line2d_45">
    <path d="M 1187.289659 287.65 
L 1597.248842 287.65 
" clip-path="url(#pa316545560)" style="fill: none; stroke: #000000; stroke-width: 5; stroke-linecap: square"/>
   </g>
   <g id="line2d_46">
    <path d="M 1187.289659 119.377963 
L 1188.780419 118.755619 
L 1191.01656 118.142723 
L 1193.998082 117.62483 
L 1198.470364 117.102901 
L 1206.669547 116.39704 
L 1218.595633 115.604112 
L 1232.757859 114.901312 
L 1249.156227 114.322183 
L 1269.281496 113.848291 
L 1272.263017 113.794507 
L 1273.008397 164.614225 
L 1273.753778 196.556379 
L 1274.499158 155.399466 
L 1275.244538 164.936126 
L 1275.989919 139.97639 
L 1276.735299 130.168406 
L 1277.480679 126.035748 
L 1278.22606 124.082042 
L 1278.97144 123.005609 
L 1279.71682 122.312804 
L 1281.207581 121.414076 
L 1282.698342 120.812459 
L 1284.934483 120.175068 
L 1287.916004 119.569378 
L 1293.133666 118.780468 
L 1296.115188 118.39936 
L 1296.860568 188.401794 
L 1297.605948 165.502575 
L 1298.351329 160.39488 
L 1299.096709 164.342734 
L 1299.842089 142.299986 
L 1300.58747 133.537022 
L 1301.33285 129.760401 
L 1302.07823 127.907684 
L 1302.823611 126.836778 
L 1303.568991 126.113046 
L 1305.059752 125.117759 
L 1306.550512 124.407393 
L 1308.786653 123.604125 
L 1311.768175 122.78256 
L 1316.240457 121.791565 
L 1322.94888 120.553964 
L 1331.148063 119.28975 
L 1332.638824 119.084039 
L 1332.638824 119.084039 
" clip-path="url(#pa316545560)" style="fill: none; stroke-dasharray: 22.2,9.6; stroke-dashoffset: 0; stroke: #ff0000; stroke-width: 6"/>
   </g>
   <g id="line2d_47">
    <path d="M 1187.289659 75.592 
L 1597.248842 75.592 
" clip-path="url(#pa316545560)" style="fill: none; stroke-dasharray: 5,8.25; stroke-dashoffset: 0; stroke: #ff0000; stroke-opacity: 0.5; stroke-width: 5"/>
   </g>
   <g id="patch_10">
    <path d="M 1187.289659 287.65 
L 1187.289659 38.17 
" style="fill: none; stroke: #000000; stroke-width: 0.8; stroke-linejoin: miter; stroke-linecap: square"/>
   </g>
   <g id="patch_11">
    <path d="M 1187.289659 287.65 
L 1597.248842 287.65 
" style="fill: none; stroke: #000000; stroke-width: 0.8; stroke-linejoin: miter; stroke-linecap: square"/>
   </g>
   <g id="text_39">
    <!-- SAFE-PNS -->
    <g transform="translate(1314.006751 31.515) scale(0.32 -0.32)">
     <defs>
      <path id="DejaVuSans-53" d="M 3425 4513 
L 3425 3897 
Q 3066 4069 2747 4153 
Q 2428 4238 2131 4238 
Q 1616 4238 1336 4038 
Q 1056 3838 1056 3469 
Q 1056 3159 1242 3001 
Q 1428 2844 1947 2747 
L 2328 2669 
Q 3034 2534 3370 2195 
Q 3706 1856 3706 1288 
Q 3706 609 3251 259 
Q 2797 -91 1919 -91 
Q 1588 -91 1214 -16 
Q 841 59 441 206 
L 441 856 
Q 825 641 1194 531 
Q 1563 422 1919 422 
Q 2459 422 2753 634 
Q 3047 847 3047 1241 
Q 3047 1584 2836 1778 
Q 2625 1972 2144 2069 
L 1759 2144 
Q 1053 2284 737 2584 
Q 422 2884 422 3419 
Q 422 4038 858 4394 
Q 1294 4750 2059 4750 
Q 2388 4750 2728 4690 
Q 3069 4631 3425 4513 
z
" transform="scale(0.015625)"/>
      <path id="DejaVuSans-41" d="M 2188 4044 
L 1331 1722 
L 3047 1722 
L 2188 4044 
z
M 1831 4666 
L 2547 4666 
L 4325 0 
L 3669 0 
L 3244 1197 
L 1141 1197 
L 716 0 
L 50 0 
L 1831 4666 
z
" transform="scale(0.015625)"/>
      <path id="DejaVuSans-46" d="M 628 4666 
L 3309 4666 
L 3309 4134 
L 1259 4134 
L 1259 2759 
L 3109 2759 
L 3109 2228 
L 1259 2228 
L 1259 0 
L 628 0 
L 628 4666 
z
" transform="scale(0.015625)"/>
      <path id="DejaVuSans-45" d="M 628 4666 
L 3578 4666 
L 3578 4134 
L 1259 4134 
L 1259 2753 
L 3481 2753 
L 3481 2222 
L 1259 2222 
L 1259 531 
L 3634 531 
L 3634 0 
L 628 0 
L 628 4666 
z
" transform="scale(0.015625)"/>
      <path id="DejaVuSans-2d" d="M 313 2009 
L 1997 2009 
L 1997 1497 
L 313 1497 
L 313 2009 
z
" transform="scale(0.015625)"/>
      <path id="DejaVuSans-50" d="M 1259 4147 
L 1259 2394 
L 2053 2394 
Q 2494 2394 2734 2622 
Q 2975 2850 2975 3272 
Q 2975 3691 2734 3919 
Q 2494 4147 2053 4147 
L 1259 4147 
z
M 628 4666 
L 2053 4666 
Q 2838 4666 3239 4311 
Q 3641 3956 3641 3272 
Q 3641 2581 3239 2228 
Q 2838 1875 2053 1875 
L 1259 1875 
L 1259 0 
L 628 0 
L 628 4666 
z
" transform="scale(0.015625)"/>
      <path id="DejaVuSans-4e" d="M 628 4666 
L 1478 4666 
L 3547 763 
L 3547 4666 
L 4159 4666 
L 4159 0 
L 3309 0 
L 1241 3903 
L 1241 0 
L 628 0 
L 628 4666 
z
" transform="scale(0.015625)"/>
     </defs>
     <use xlink:href="#DejaVuSans-53"/>
     <use xlink:href="#DejaVuSans-41" x="65.351562"/>
     <use xlink:href="#DejaVuSans-46" x="133.759766"/>
     <use xlink:href="#DejaVuSans-45" x="191.279297"/>
     <use xlink:href="#DejaVuSans-2d" x="254.462891"/>
     <use xlink:href="#DejaVuSans-50" x="290.546875"/>
     <use xlink:href="#DejaVuSans-4e" x="350.849609"/>
     <use xlink:href="#DejaVuSans-53" x="425.654297"/>
    </g>
   </g>
   <g id="legend_2">
    <g id="patch_12">
     <path d="M 1448.611342 276.65 
L 1581.848842 276.65 
Q 1586.248842 276.65 1586.248842 272.25 
L 1586.248842 242.158125 
Q 1586.248842 237.758125 1581.848842 237.758125 
L 1448.611342 237.758125 
Q 1444.211342 237.758125 1444.211342 242.158125 
L 1444.211342 272.25 
Q 1444.211342 276.65 1448.611342 276.65 
z
" style="fill: #ffffff; opacity: 0.2; stroke: #cccccc; stroke-linejoin: miter"/>
    </g>
    <g id="line2d_48">
     <path d="M 1453.011342 255.574688 
L 1475.011342 255.574688 
L 1497.011342 255.574688 
" style="fill: none; stroke: #000000; stroke-width: 5; stroke-linecap: square"/>
    </g>
    <g id="text_40">
     <!-- Y-axis -->
     <g transform="translate(1514.611342 263.274688) scale(0.22 -0.22)">
      <defs>
       <path id="DejaVuSans-59" d="M -13 4666 
L 666 4666 
L 1959 2747 
L 3244 4666 
L 3922 4666 
L 2272 2222 
L 2272 0 
L 1638 0 
L 1638 2222 
L -13 4666 
z
" transform="scale(0.015625)"/>
       <path id="DejaVuSans-61" d="M 2194 1759 
Q 1497 1759 1228 1600 
Q 959 1441 959 1056 
Q 959 750 1161 570 
Q 1363 391 1709 391 
Q 2188 391 2477 730 
Q 2766 1069 2766 1631 
L 2766 1759 
L 2194 1759 
z
M 3341 1997 
L 3341 0 
L 2766 0 
L 2766 531 
Q 2569 213 2275 61 
Q 1981 -91 1556 -91 
Q 1019 -91 701 211 
Q 384 513 384 1019 
Q 384 1609 779 1909 
Q 1175 2209 1959 2209 
L 2766 2209 
L 2766 2266 
Q 2766 2663 2505 2880 
Q 2244 3097 1772 3097 
Q 1472 3097 1187 3025 
Q 903 2953 641 2809 
L 641 3341 
Q 956 3463 1253 3523 
Q 1550 3584 1831 3584 
Q 2591 3584 2966 3190 
Q 3341 2797 3341 1997 
z
" transform="scale(0.015625)"/>
       <path id="DejaVuSans-78" d="M 3513 3500 
L 2247 1797 
L 3578 0 
L 2900 0 
L 1881 1375 
L 863 0 
L 184 0 
L 1544 1831 
L 300 3500 
L 978 3500 
L 1906 2253 
L 2834 3500 
L 3513 3500 
z
" transform="scale(0.015625)"/>
      </defs>
      <use xlink:href="#DejaVuSans-59"/>
      <use xlink:href="#DejaVuSans-2d" x="49.208984"/>
      <use xlink:href="#DejaVuSans-61" x="85.292969"/>
      <use xlink:href="#DejaVuSans-78" x="146.572266"/>
      <use xlink:href="#DejaVuSans-69" x="205.751953"/>
      <use xlink:href="#DejaVuSans-73" x="233.535156"/>
     </g>
    </g>
   </g>
  </g>
  <g id="axes_4">
   <g id="patch_13">
    <path d="M 1720.236598 287.65 
L 2130.195781 287.65 
L 2130.195781 38.17 
L 1720.236598 38.17 
z
" style="fill: #ffffff"/>
   </g>
   <g id="matplotlib.axis_7">
    <g id="xtick_16">
     <g id="line2d_49">
      <g>
       <use xlink:href="#mf5d80074b3" x="1720.236598" y="287.65" style="stroke: #000000; stroke-width: 0.8"/>
      </g>
     </g>
     <g id="text_41">
      <!-- 0 -->
      <g transform="translate(1711.647223 315.165781) scale(0.27 -0.27)">
       <use xlink:href="#DejaVuSans-30"/>
      </g>
     </g>
    </g>
    <g id="xtick_17">
     <g id="line2d_50">
      <g>
       <use xlink:href="#mf5d80074b3" x="1813.409139" y="287.65" style="stroke: #000000; stroke-width: 0.8"/>
      </g>
     </g>
     <g id="text_42">
      <!-- 25 -->
      <g transform="translate(1796.230389 315.165781) scale(0.27 -0.27)">
       <use xlink:href="#DejaVuSans-32"/>
       <use xlink:href="#DejaVuSans-35" x="63.623047"/>
      </g>
     </g>
    </g>
    <g id="xtick_18">
     <g id="line2d_51">
      <g>
       <use xlink:href="#mf5d80074b3" x="1906.581681" y="287.65" style="stroke: #000000; stroke-width: 0.8"/>
      </g>
     </g>
     <g id="text_43">
      <!-- 50 -->
      <g transform="translate(1889.402931 315.165781) scale(0.27 -0.27)">
       <use xlink:href="#DejaVuSans-35"/>
       <use xlink:href="#DejaVuSans-30" x="63.623047"/>
      </g>
     </g>
    </g>
    <g id="xtick_19">
     <g id="line2d_52">
      <g>
       <use xlink:href="#mf5d80074b3" x="1999.754223" y="287.65" style="stroke: #000000; stroke-width: 0.8"/>
      </g>
     </g>
     <g id="text_44">
      <!-- 75 -->
      <g transform="translate(1982.575473 315.165781) scale(0.27 -0.27)">
       <use xlink:href="#DejaVuSans-37"/>
       <use xlink:href="#DejaVuSans-35" x="63.623047"/>
      </g>
     </g>
    </g>
    <g id="xtick_20">
     <g id="line2d_53">
      <g>
       <use xlink:href="#mf5d80074b3" x="2092.926765" y="287.65" style="stroke: #000000; stroke-width: 0.8"/>
      </g>
     </g>
     <g id="text_45">
      <!-- 100 -->
      <g transform="translate(2067.15864 315.165781) scale(0.27 -0.27)">
       <use xlink:href="#DejaVuSans-31"/>
       <use xlink:href="#DejaVuSans-30" x="63.623047"/>
       <use xlink:href="#DejaVuSans-30" x="127.246094"/>
      </g>
     </g>
    </g>
    <g id="text_46">
     <!-- Time [ms] -->
     <g transform="translate(1849.618533 347.57625) scale(0.3 -0.3)">
      <use xlink:href="#DejaVuSans-54"/>
      <use xlink:href="#DejaVuSans-69" x="57.958984"/>
      <use xlink:href="#DejaVuSans-6d" x="85.742188"/>
      <use xlink:href="#DejaVuSans-65" x="183.154297"/>
      <use xlink:href="#DejaVuSans-20" x="244.677734"/>
      <use xlink:href="#DejaVuSans-5b" x="276.464844"/>
      <use xlink:href="#DejaVuSans-6d" x="315.478516"/>
      <use xlink:href="#DejaVuSans-73" x="412.890625"/>
      <use xlink:href="#DejaVuSans-5d" x="464.990234"/>
     </g>
    </g>
   </g>
   <g id="matplotlib.axis_8">
    <g id="ytick_16">
     <g id="line2d_54">
      <g>
       <use xlink:href="#m2a1ceef639" x="1720.236598" y="287.65" style="stroke: #000000; stroke-width: 0.8"/>
      </g>
     </g>
     <g id="text_47">
      <!-- 0.00 -->
      <g transform="translate(1653.11941 297.907891) scale(0.27 -0.27)">
       <use xlink:href="#DejaVuSans-30"/>
       <use xlink:href="#DejaVuSans-2e" x="63.623047"/>
       <use xlink:href="#DejaVuSans-30" x="95.410156"/>
       <use xlink:href="#DejaVuSans-30" x="159.033203"/>
      </g>
     </g>
    </g>
    <g id="ytick_17">
     <g id="line2d_55">
      <g>
       <use xlink:href="#m2a1ceef639" x="1720.236598" y="225.28" style="stroke: #000000; stroke-width: 0.8"/>
      </g>
     </g>
     <g id="text_48">
      <!-- 0.25 -->
      <g transform="translate(1653.11941 235.537891) scale(0.27 -0.27)">
       <use xlink:href="#DejaVuSans-30"/>
       <use xlink:href="#DejaVuSans-2e" x="63.623047"/>
       <use xlink:href="#DejaVuSans-32" x="95.410156"/>
       <use xlink:href="#DejaVuSans-35" x="159.033203"/>
      </g>
     </g>
    </g>
    <g id="ytick_18">
     <g id="line2d_56">
      <g>
       <use xlink:href="#m2a1ceef639" x="1720.236598" y="162.91" style="stroke: #000000; stroke-width: 0.8"/>
      </g>
     </g>
     <g id="text_49">
      <!-- 0.50 -->
      <g transform="translate(1653.11941 173.167891) scale(0.27 -0.27)">
       <use xlink:href="#DejaVuSans-30"/>
       <use xlink:href="#DejaVuSans-2e" x="63.623047"/>
       <use xlink:href="#DejaVuSans-35" x="95.410156"/>
       <use xlink:href="#DejaVuSans-30" x="159.033203"/>
      </g>
     </g>
    </g>
    <g id="ytick_19">
     <g id="line2d_57">
      <g>
       <use xlink:href="#m2a1ceef639" x="1720.236598" y="100.54" style="stroke: #000000; stroke-width: 0.8"/>
      </g>
     </g>
     <g id="text_50">
      <!-- 0.75 -->
      <g transform="translate(1653.11941 110.797891) scale(0.27 -0.27)">
       <use xlink:href="#DejaVuSans-30"/>
       <use xlink:href="#DejaVuSans-2e" x="63.623047"/>
       <use xlink:href="#DejaVuSans-37" x="95.410156"/>
       <use xlink:href="#DejaVuSans-35" x="159.033203"/>
      </g>
     </g>
    </g>
    <g id="ytick_20">
     <g id="line2d_58">
      <g>
       <use xlink:href="#m2a1ceef639" x="1720.236598" y="38.17" style="stroke: #000000; stroke-width: 0.8"/>
      </g>
     </g>
     <g id="text_51">
      <!-- 1.00 -->
      <g transform="translate(1653.11941 48.427891) scale(0.27 -0.27)">
       <use xlink:href="#DejaVuSans-31"/>
       <use xlink:href="#DejaVuSans-2e" x="63.623047"/>
       <use xlink:href="#DejaVuSans-30" x="95.410156"/>
       <use xlink:href="#DejaVuSans-30" x="159.033203"/>
      </g>
     </g>
    </g>
    <g id="text_52">
     <!-- unitless -->
     <g transform="translate(1642.880348 220.995156) rotate(-90) scale(0.3 -0.3)">
      <use xlink:href="#DejaVuSans-75"/>
      <use xlink:href="#DejaVuSans-6e" x="63.378906"/>
      <use xlink:href="#DejaVuSans-69" x="126.757812"/>
      <use xlink:href="#DejaVuSans-74" x="154.541016"/>
      <use xlink:href="#DejaVuSans-6c" x="193.75"/>
      <use xlink:href="#DejaVuSans-65" x="221.533203"/>
      <use xlink:href="#DejaVuSans-73" x="283.056641"/>
      <use xlink:href="#DejaVuSans-73" x="335.15625"/>
     </g>
    </g>
   </g>
   <g id="line2d_59">
    <path d="M 1720.236598 287.65 
L 2130.195781 287.65 
" clip-path="url(#pef4ee03ea9)" style="fill: none; stroke: #d3d3d3; stroke-opacity: 0.8; stroke-width: 1.5; stroke-linecap: square"/>
   </g>
   <g id="line2d_60">
    <path d="M 1720.236598 287.65 
L 1731.417303 287.65 
L 1732.162683 212.223651 
L 1732.908063 171.587904 
L 1733.653444 144.619309 
L 1734.398824 139.336246 
L 1735.889585 134.578128 
L 1737.380345 130.748105 
L 1738.871106 127.664009 
L 1740.361867 125.179806 
L 1741.852627 123.178397 
L 1743.343388 121.564428 
L 1744.088768 120.879986 
L 1744.834149 134.26721 
L 1747.07029 166.863736 
L 1748.56105 185.289683 
L 1750.051811 200.990236 
L 1751.542572 214.362858 
L 1753.033332 225.679456 
L 1754.524093 235.135373 
L 1756.014854 243.300837 
L 1757.505614 250.252108 
L 1758.996375 256.183091 
L 1760.487136 261.278067 
L 1761.977896 265.64197 
L 1763.468657 269.16914 
L 1764.214037 273.153431 
L 1764.959418 272.592997 
L 1768.686319 168.629591 
L 1769.4317 150.805448 
L 1770.17708 136.61738 
L 1770.92246 126.02588 
L 1771.667841 121.463257 
L 1772.413221 121.409401 
L 1775.394742 120.743176 
L 1777.630883 120.336482 
L 1778.376264 120.284313 
L 1779.121644 120.088086 
L 1779.867024 120.081515 
L 1781.357785 119.854893 
L 1782.103165 119.89099 
L 1783.593926 119.709396 
L 1785.830067 119.575862 
L 1786.575447 119.79412 
L 1787.320828 119.620609 
L 1788.066208 119.777318 
L 1788.811588 119.648567 
L 1789.556969 119.679555 
L 1790.302349 120.060764 
L 1791.047729 119.55909 
L 1791.79311 126.840316 
L 1793.28387 150.427012 
L 1794.774631 170.284947 
L 1797.010772 195.287626 
L 1797.756152 202.46552 
L 1798.501533 211.254554 
L 1799.246913 232.484211 
L 1799.992293 243.280603 
L 1801.483054 201.109863 
L 1802.973815 168.515924 
L 1804.464575 141.930384 
L 1805.209956 139.924377 
L 1806.700716 163.307055 
L 1808.191477 182.892433 
L 1809.682238 199.31309 
L 1811.172998 213.093661 
L 1812.663759 224.669664 
L 1814.15452 234.40297 
L 1815.64528 242.59455 
L 1817.136041 249.494957 
L 1818.626802 255.312978 
L 1820.117562 260.222763 
L 1821.608323 264.369712 
L 1823.099084 267.875344 
L 1824.589844 270.841313 
L 1826.080605 273.352742 
L 1827.571366 275.480979 
L 1829.062126 277.285884 
L 1830.552887 278.817728 
L 1832.043648 280.118767 
L 1832.789028 218.126395 
L 1833.534408 192.522868 
L 1835.025169 152.536375 
L 1835.770549 137.802913 
L 1837.26131 133.701805 
L 1838.752071 130.347932 
L 1840.242831 127.602412 
L 1841.733592 125.352902 
L 1843.224353 123.508133 
L 1844.715113 121.99264 
L 1845.460494 121.338168 
L 1846.205874 131.788955 
L 1847.696635 155.436147 
L 1849.187395 175.421928 
L 1850.678156 192.323361 
L 1852.168917 206.625991 
L 1854.405058 224.99177 
L 1855.150438 248.311148 
L 1855.895818 232.140294 
L 1857.386579 189.439091 
L 1858.87734 154.848069 
L 1860.3681 128.104511 
L 1861.113481 116.895537 
L 1861.858861 115.644225 
L 1865.585763 115.319294 
L 1865.585763 115.319294 
" clip-path="url(#pef4ee03ea9)" style="fill: none; stroke: #000000; stroke-width: 5; stroke-linecap: square"/>
   </g>
   <g id="line2d_61">
    <path d="M 1720.236598 287.65 
L 2130.195781 287.65 
" clip-path="url(#pef4ee03ea9)" style="fill: none; stroke: #000000; stroke-width: 5; stroke-linecap: square"/>
   </g>
   <g id="line2d_62">
    <path d="M 1720.236598 124.240509 
L 1721.727358 122.401377 
L 1723.218119 120.87196 
L 1724.70888 119.598644 
L 1726.19964 118.537344 
L 1728.435781 117.265306 
L 1730.671922 116.293348 
L 1732.908063 115.548879 
L 1735.889585 114.817784 
L 1739.616486 114.198316 
L 1744.088768 113.73323 
L 1750.051811 113.387259 
L 1758.250995 113.167595 
L 1772.413221 113.048053 
L 1805.209956 113.015113 
L 1805.955336 135.034534 
L 1806.700716 160.468551 
L 1807.446097 148.94587 
L 1808.191477 146.8561 
L 1809.682238 140.355997 
L 1811.172998 135.115652 
L 1812.663759 130.889255 
L 1814.15452 127.479204 
L 1815.64528 124.726611 
L 1817.136041 122.503693 
L 1818.626802 120.707649 
L 1820.117562 119.255763 
L 1821.608323 118.081453 
L 1823.099084 117.131115 
L 1825.335225 116.03345 
L 1827.571366 115.232494 
L 1829.062126 114.822321 
L 1829.807507 143.66313 
L 1830.552887 160.510143 
L 1831.298267 147.024874 
L 1832.043648 147.203472 
L 1833.534408 140.651202 
L 1835.025169 135.366656 
L 1836.51593 131.102784 
L 1838.00669 127.660939 
L 1839.497451 124.881357 
L 1840.988212 122.635512 
L 1842.478972 120.819986 
L 1843.969733 119.351532 
L 1845.460494 118.163128 
L 1846.951254 117.200794 
L 1849.187395 116.088389 
L 1851.423536 115.27584 
L 1853.659677 114.681378 
L 1856.641199 114.128006 
L 1860.3681 113.690664 
L 1865.585763 113.354449 
L 1865.585763 113.354449 
" clip-path="url(#pef4ee03ea9)" style="fill: none; stroke-dasharray: 22.2,9.6; stroke-dashoffset: 0; stroke: #800080; stroke-width: 6"/>
   </g>
   <g id="line2d_63">
    <path clip-path="url(#pef4ee03ea9)" style="fill: none; stroke-dasharray: 11.1,4.8; stroke-dashoffset: 0; stroke: #800080; stroke-width: 3"/>
   </g>
   <g id="line2d_64">
    <path d="M 1720.236598 75.592 
L 2130.195781 75.592 
" clip-path="url(#pef4ee03ea9)" style="fill: none; stroke-dasharray: 5,8.25; stroke-dashoffset: 0; stroke: #800080; stroke-opacity: 0.5; stroke-width: 5"/>
   </g>
   <g id="patch_14">
    <path d="M 1720.236598 287.65 
L 1720.236598 38.17 
" style="fill: none; stroke: #000000; stroke-width: 0.8; stroke-linejoin: miter; stroke-linecap: square"/>
   </g>
   <g id="patch_15">
    <path d="M 1720.236598 287.65 
L 2130.195781 287.65 
" style="fill: none; stroke: #000000; stroke-width: 0.8; stroke-linejoin: miter; stroke-linecap: square"/>
   </g>
   <g id="text_53">
    <!-- SAFE-CNS -->
    <g transform="translate(1845.428689 31.515) scale(0.32 -0.32)">
     <defs>
      <path id="DejaVuSans-43" d="M 4122 4306 
L 4122 3641 
Q 3803 3938 3442 4084 
Q 3081 4231 2675 4231 
Q 1875 4231 1450 3742 
Q 1025 3253 1025 2328 
Q 1025 1406 1450 917 
Q 1875 428 2675 428 
Q 3081 428 3442 575 
Q 3803 722 4122 1019 
L 4122 359 
Q 3791 134 3420 21 
Q 3050 -91 2638 -91 
Q 1578 -91 968 557 
Q 359 1206 359 2328 
Q 359 3453 968 4101 
Q 1578 4750 2638 4750 
Q 3056 4750 3426 4639 
Q 3797 4528 4122 4306 
z
" transform="scale(0.015625)"/>
     </defs>
     <use xlink:href="#DejaVuSans-53"/>
     <use xlink:href="#DejaVuSans-41" x="65.351562"/>
     <use xlink:href="#DejaVuSans-46" x="133.759766"/>
     <use xlink:href="#DejaVuSans-45" x="191.279297"/>
     <use xlink:href="#DejaVuSans-2d" x="254.462891"/>
     <use xlink:href="#DejaVuSans-43" x="290.546875"/>
     <use xlink:href="#DejaVuSans-4e" x="360.371094"/>
     <use xlink:href="#DejaVuSans-53" x="435.175781"/>
    </g>
   </g>
   <g id="legend_3">
    <g id="patch_16">
     <path d="M 1981.558281 276.65 
L 2114.795781 276.65 
Q 2119.195781 276.65 2119.195781 272.25 
L 2119.195781 242.158125 
Q 2119.195781 237.758125 2114.795781 237.758125 
L 1981.558281 237.758125 
Q 1977.158281 237.758125 1977.158281 242.158125 
L 1977.158281 272.25 
Q 1977.158281 276.65 1981.558281 276.65 
z
" style="fill: #ffffff; opacity: 0.2; stroke: #cccccc; stroke-linejoin: miter"/>
    </g>
    <g id="line2d_65">
     <path d="M 1985.958281 255.574688 
L 2007.958281 255.574688 
L 2029.958281 255.574688 
" style="fill: none; stroke: #000000; stroke-width: 5; stroke-linecap: square"/>
    </g>
    <g id="text_54">
     <!-- Y-axis -->
     <g transform="translate(2047.558281 263.274688) scale(0.22 -0.22)">
      <use xlink:href="#DejaVuSans-59"/>
      <use xlink:href="#DejaVuSans-2d" x="49.208984"/>
      <use xlink:href="#DejaVuSans-61" x="85.292969"/>
      <use xlink:href="#DejaVuSans-78" x="146.572266"/>
      <use xlink:href="#DejaVuSans-69" x="205.751953"/>
      <use xlink:href="#DejaVuSans-73" x="233.535156"/>
     </g>
    </g>
   </g>
  </g>
 </g>
 <defs>
  <clipPath id="p03d96aea46">
   <rect x="121.395781" y="38.17" width="409.959184" height="249.48"/>
  </clipPath>
  <clipPath id="pb2a321aaf7">
   <rect x="654.34272" y="38.17" width="409.959184" height="249.48"/>
  </clipPath>
  <clipPath id="pa316545560">
   <rect x="1187.289659" y="38.17" width="409.959184" height="249.48"/>
  </clipPath>
  <clipPath id="pef4ee03ea9">
   <rect x="1720.236598" y="38.17" width="409.959184" height="249.48"/>
  </clipPath>
 </defs>
</svg>
