<?xml version="1.0" encoding="utf-8" standalone="no"?>
<!DOCTYPE svg PUBLIC "-//W3C//DTD SVG 1.1//EN"
  "http://www.w3.org/Graphics/SVG/1.1/DTD/svg11.dtd">
<svg xmlns:xlink="http://www.w3.org/1999/xlink" width="2137.395781pt" height="361.015312pt" viewBox="0 0 2137.395781 361.015312" xmlns="http://www.w3.org/2000/svg" version="1.1">
 <metadata>
  <rdf:RDF xmlns:dc="http://purl.org/dc/elements/1.1/" xmlns:cc="http://creativecommons.org/ns#" xmlns:rdf="http://www.w3.org/1999/02/22-rdf-syntax-ns#">
   <cc:Work>
    <dc:type rdf:resource="http://purl.org/dc/dcmitype/StillImage"/>
    <dc:date>2026-01-23T15:19:57.923576</dc:date>
    <dc:format>image/svg+xml</dc:format>
    <dc:creator>
     <cc:Agent>
      <dc:title>Matplotlib v3.9.0, https://matplotlib.org/</dc:title>
     </cc:Agent>
    </dc:creator>
   </cc:Work>
  </rdf:RDF>
 </metadata>
 <defs>
  <style type="text/css">*{stroke-linejoin: round; stroke-linecap: butt}</style>
 </defs>
 <g id="figure_1">
  <g id="patch_1">
   <path d="M 0 361.015312 
L 2137.395781 361.015312 
L 2137.395781 0 
L 0 0 
z
" style="fill: #ffffff"/>
  </g>
  <g id="axes_1">
   <g id="patch_2">
    <path d="M 121.395781 287.65 
L 531.354965 287.65 
L 531.354965 38.17 
L 121.395781 38.17 
z
" style="fill: #ffffff"/>
   </g>
   <g id="PolyCollection_1">
    <defs>
     <path id="ma12877222f" d="M 121.395781 -198.105312 
L 121.395781 -198.105312 
L 122.141162 -198.105312 
L 122.886542 -198.105312 
L 123.631922 -198.105312 
L 124.377303 -198.105312 
L 125.122683 -198.105312 
L 125.868063 -198.105312 
L 126.613444 -198.105312 
L 127.358824 -198.105312 
L 128.104204 -198.105312 
L 128.849585 -198.105312 
L 129.594965 -198.105312 
L 130.340345 -198.105312 
L 131.085726 -198.105312 
L 131.831106 -198.105312 
L 132.576486 -198.105312 
L 133.321867 -198.105312 
L 134.067247 -198.105312 
L 134.812627 -198.105312 
L 135.558008 -198.105312 
L 136.303388 -198.105312 
L 137.048768 -198.105312 
L 137.794149 -198.105312 
L 138.539529 -198.105312 
L 139.284909 -198.105312 
L 140.03029 -198.105312 
L 140.77567 -198.105312 
L 141.52105 -198.105312 
L 142.266431 -198.105312 
L 143.011811 -198.105312 
L 143.757191 -198.105312 
L 144.502572 -198.105312 
L 145.247952 -198.105312 
L 145.993332 -198.105312 
L 146.738713 -198.105312 
L 147.484093 -198.105312 
L 148.229473 -198.105312 
L 148.974854 -198.105312 
L 149.720234 -198.105312 
L 150.465614 -198.105312 
L 151.210995 -198.105312 
L 151.956375 -198.105312 
L 152.701755 -198.105312 
L 153.447136 -198.105312 
L 154.192516 -198.105312 
L 154.937896 -198.105312 
L 155.683277 -198.105312 
L 156.428657 -198.105312 
L 157.174037 -198.105312 
L 157.919418 -198.105312 
L 158.664798 -198.105312 
L 159.410178 -198.105312 
L 160.155559 -198.105312 
L 160.900939 -198.105312 
L 161.646319 -198.105312 
L 162.3917 -198.105312 
L 163.13708 -198.105312 
L 163.88246 -198.105312 
L 164.627841 -198.105312 
L 165.373221 -198.105312 
L 166.118601 -198.105312 
L 166.863982 -198.105312 
L 167.609362 -198.105312 
L 168.354742 -198.105312 
L 169.100123 -198.105312 
L 169.845503 -198.105312 
L 170.590883 -198.105312 
L 171.336264 -198.105312 
L 172.081644 -198.105312 
L 172.827024 -198.105312 
L 173.572405 -198.105312 
L 174.317785 -198.105312 
L 175.063165 -198.105312 
L 175.808546 -198.105312 
L 176.553926 -198.105312 
L 177.299306 -198.105312 
L 178.044687 -198.105312 
L 178.790067 -198.105312 
L 179.535447 -198.105312 
L 180.280828 -198.105312 
L 181.026208 -198.105312 
L 181.771588 -198.105312 
L 182.516969 -198.105312 
L 183.262349 -198.105312 
L 184.007729 -198.105312 
L 184.75311 -198.105312 
L 185.49849 -198.105312 
L 186.24387 -198.105312 
L 186.989251 -198.105312 
L 187.734631 -198.105312 
L 188.480011 -198.105312 
L 189.225392 -198.105312 
L 189.970772 -198.105312 
L 190.716152 -198.105312 
L 191.461533 -198.105312 
L 192.206913 -198.105312 
L 192.952293 -198.105312 
L 193.697674 -198.105312 
L 194.443054 -198.105312 
L 195.188434 -198.105312 
L 195.933815 -198.105312 
L 196.679195 -198.105312 
L 197.424575 -198.105312 
L 198.169956 -198.105312 
L 198.915336 -198.105312 
L 199.660716 -198.105312 
L 200.406097 -198.105312 
L 201.151477 -198.105312 
L 201.896857 -198.105312 
L 202.642238 -198.105312 
L 203.387618 -198.105312 
L 204.132998 -198.105312 
L 204.878379 -198.105312 
L 205.623759 -198.105312 
L 206.369139 -198.105312 
L 207.11452 -198.105312 
L 207.8599 -198.105312 
L 208.60528 -198.105312 
L 209.350661 -198.105312 
L 210.096041 -198.105312 
L 210.841421 -198.105312 
L 211.586802 -198.105312 
L 212.332182 -198.105312 
L 213.077562 -198.105312 
L 213.822943 -198.105312 
L 214.568323 -198.105312 
L 215.313703 -198.105312 
L 216.059084 -198.105312 
L 216.804464 -198.105312 
L 217.549844 -198.105312 
L 218.295225 -198.105312 
L 219.040605 -198.105312 
L 219.785985 -198.105312 
L 220.531366 -198.105312 
L 221.276746 -198.105312 
L 222.022126 -198.105312 
L 222.767507 -198.105312 
L 223.512887 -198.105312 
L 224.258267 -198.105312 
L 225.003648 -198.105312 
L 225.749028 -198.105312 
L 226.494408 -198.105312 
L 227.239789 -198.105312 
L 227.985169 -198.105312 
L 228.730549 -198.105312 
L 229.47593 -198.105312 
L 230.22131 -198.105312 
L 230.96669 -198.105312 
L 231.712071 -198.105312 
L 232.457451 -198.105312 
L 233.202831 -198.105312 
L 233.948212 -198.105312 
L 234.693592 -198.105312 
L 235.438972 -198.105312 
L 236.184353 -198.105312 
L 236.929733 -198.105312 
L 237.675113 -198.105312 
L 238.420494 -198.105312 
L 239.165874 -198.105312 
L 239.911254 -198.105312 
L 240.656635 -198.105312 
L 241.402015 -198.105312 
L 242.147395 -198.105312 
L 242.892776 -198.105312 
L 243.638156 -198.105312 
L 244.383536 -198.105312 
L 245.128917 -198.105312 
L 245.874297 -198.105312 
L 246.619677 -198.105312 
L 247.365058 -198.105312 
L 248.110438 -198.105312 
L 248.855818 -198.105312 
L 249.601199 -198.105312 
L 250.346579 -198.105312 
L 251.091959 -198.105312 
L 251.83734 -198.105312 
L 252.58272 -198.105312 
L 253.3281 -198.105312 
L 254.073481 -198.105312 
L 254.818861 -198.105312 
L 255.564241 -198.105312 
L 256.309622 -198.105312 
L 257.055002 -198.105312 
L 257.800382 -198.105312 
L 258.545763 -198.105312 
L 259.291143 -198.105312 
L 260.036523 -198.105312 
L 260.781904 -198.105312 
L 261.527284 -198.105312 
L 262.272664 -198.105312 
L 263.018045 -198.105312 
L 263.763425 -198.105312 
L 264.508805 -198.105312 
L 265.254186 -198.105312 
L 265.999566 -198.105312 
L 266.744946 -198.105312 
L 267.490327 -198.105312 
L 268.235707 -198.105312 
L 268.981087 -198.105312 
L 269.726468 -198.105312 
L 270.471848 -198.105312 
L 271.217228 -198.105312 
L 271.962609 -198.105312 
L 272.707989 -198.105312 
L 273.453369 -198.105312 
L 274.19875 -198.105312 
L 274.94413 -198.105312 
L 275.68951 -198.105312 
L 276.434891 -198.105312 
L 277.180271 -198.105312 
L 277.925651 -198.105312 
L 278.671032 -198.105312 
L 279.416412 -198.105312 
L 280.161792 -198.105312 
L 280.907173 -198.105312 
L 281.652553 -198.105312 
L 281.652553 -198.105312 
L 281.652553 -198.105312 
L 280.907173 -201.327674 
L 280.161792 -204.557895 
L 279.416412 -207.794561 
L 278.671032 -211.037478 
L 277.925651 -214.28823 
L 277.180271 -217.546642 
L 276.434891 -220.814191 
L 275.68951 -224.091772 
L 274.94413 -227.379372 
L 274.19875 -230.679088 
L 273.453369 -233.992157 
L 272.707989 -238.110511 
L 271.962609 -243.410481 
L 271.217228 -248.774672 
L 270.471848 -254.216233 
L 269.726468 -259.79028 
L 268.981087 -265.497348 
L 268.235707 -271.507684 
L 267.490327 -277.075791 
L 266.744946 -283.495909 
L 265.999566 -288.621682 
L 265.254186 -296.386362 
L 264.508805 -309.392239 
L 263.763425 -309.396324 
L 263.018045 -309.400382 
L 262.272664 -309.398173 
L 261.527284 -309.397961 
L 260.781904 -309.397648 
L 260.036523 -306.672168 
L 259.291143 -303.485081 
L 258.545763 -300.296455 
L 257.800382 -297.104509 
L 257.055002 -293.911455 
L 256.309622 -290.715119 
L 255.564241 -287.517019 
L 254.818861 -284.315227 
L 254.073481 -281.10993 
L 253.3281 -277.90214 
L 252.58272 -274.688732 
L 251.83734 -271.472567 
L 251.091959 -268.249721 
L 250.346579 -265.023302 
L 249.601199 -261.78897 
L 248.855818 -258.549949 
L 248.110438 -255.302276 
L 247.365058 -252.046439 
L 246.619677 -248.783213 
L 245.874297 -245.508265 
L 245.128917 -242.22376 
L 244.383536 -238.815099 
L 243.638156 -232.629084 
L 242.892776 -226.229513 
L 242.147395 -219.525857 
L 241.402015 -212.348688 
L 240.656635 -198.105312 
L 239.911254 -198.105312 
L 239.165874 -198.105312 
L 238.420494 -198.105312 
L 237.675113 -198.105312 
L 236.929733 -198.105312 
L 236.184353 -198.105312 
L 235.438972 -198.105312 
L 234.693592 -198.105312 
L 233.948212 -198.105312 
L 233.202831 -198.105312 
L 232.457451 -198.105312 
L 231.712071 -198.105312 
L 230.96669 -198.105312 
L 230.22131 -198.105312 
L 229.47593 -198.105312 
L 228.730549 -198.105312 
L 227.985169 -198.105312 
L 227.239789 -198.105312 
L 226.494408 -198.105312 
L 225.749028 -198.105312 
L 225.003648 -198.105312 
L 224.258267 -198.105312 
L 223.512887 -198.105312 
L 222.767507 -198.105312 
L 222.022126 -198.105312 
L 221.276746 -198.105312 
L 220.531366 -198.105312 
L 219.785985 -198.105312 
L 219.040605 -198.105312 
L 218.295225 -198.105312 
L 217.549844 -198.105312 
L 216.804464 -198.105312 
L 216.059084 -198.105312 
L 215.313703 -198.105312 
L 214.568323 -198.105312 
L 213.822943 -198.105312 
L 213.077562 -193.980326 
L 212.332182 -188.728044 
L 211.586802 -183.053104 
L 210.841421 -177.749156 
L 210.096041 -172.527508 
L 209.350661 -167.287375 
L 208.60528 -161.637178 
L 207.8599 -155.778594 
L 207.11452 -146.207039 
L 206.369139 -138.879598 
L 205.623759 -138.859406 
L 204.878379 -138.859346 
L 204.132998 -138.857621 
L 203.387618 -138.857381 
L 202.642238 -138.853086 
L 201.896857 -138.856184 
L 201.151477 -138.856289 
L 200.406097 -138.857711 
L 199.660716 -138.861074 
L 198.915336 -138.860181 
L 198.169956 -138.863213 
L 197.424575 -144.982804 
L 196.679195 -144.985695 
L 195.933815 -149.976334 
L 195.188434 -150.847373 
L 194.443054 -154.613222 
L 193.697674 -157.529637 
L 192.952293 -160.614709 
L 192.206913 -163.746611 
L 191.461533 -166.776163 
L 190.716152 -169.878974 
L 189.970772 -172.954592 
L 189.225392 -176.095006 
L 188.480011 -179.037886 
L 187.734631 -182.299232 
L 186.989251 -185.305281 
L 186.24387 -188.406232 
L 185.49849 -191.539155 
L 184.75311 -194.617322 
L 184.007729 -197.723206 
L 183.262349 -200.821671 
L 182.516969 -203.930468 
L 181.771588 -207.035499 
L 181.026208 -210.168367 
L 180.280828 -213.253518 
L 179.535447 -216.374107 
L 178.790067 -219.514304 
L 178.044687 -222.582377 
L 177.299306 -225.771041 
L 176.553926 -228.819677 
L 175.808546 -232.017634 
L 175.063165 -235.120099 
L 174.317785 -238.191057 
L 173.572405 -241.464227 
L 172.827024 -244.395445 
L 172.081644 -248.107312 
L 171.336264 -251.648429 
L 170.590883 -257.15531 
L 169.845503 -262.41118 
L 169.100123 -268.089799 
L 168.354742 -273.304337 
L 167.609362 -278.826185 
L 166.863982 -283.754282 
L 166.118601 -288.903159 
L 165.373221 -293.445374 
L 164.627841 -298.220983 
L 163.88246 -302.317147 
L 163.13708 -306.707288 
L 162.3917 -308.453244 
L 161.646319 -311.228561 
L 160.900939 -311.230943 
L 160.155559 -311.23969 
L 159.410178 -311.367457 
L 158.664798 -311.563305 
L 157.919418 -311.684823 
L 157.174037 -311.877549 
L 156.428657 -311.878485 
L 155.683277 -311.898713 
L 154.937896 -311.899583 
L 154.192516 -311.900625 
L 153.447136 -311.89998 
L 152.701755 -311.899775 
L 151.956375 -309.445782 
L 151.210995 -306.720407 
L 150.465614 -303.91971 
L 149.720234 -300.988986 
L 148.974854 -298.021003 
L 148.229473 -294.816358 
L 147.484093 -291.609423 
L 146.738713 -288.397365 
L 145.993332 -285.181557 
L 145.247952 -281.960317 
L 144.502572 -278.73438 
L 143.757191 -275.502046 
L 143.011811 -272.263315 
L 142.266431 -269.017527 
L 141.52105 -265.763209 
L 140.77567 -262.500499 
L 140.03029 -259.228092 
L 139.284909 -255.944141 
L 138.539529 -252.649324 
L 137.794149 -249.340227 
L 137.048768 -246.017569 
L 136.303388 -242.677658 
L 135.558008 -239.321007 
L 134.812627 -235.943541 
L 134.067247 -227.999608 
L 133.321867 -219.145254 
L 132.576486 -198.105312 
L 131.831106 -198.105312 
L 131.085726 -198.105312 
L 130.340345 -198.105312 
L 129.594965 -198.105312 
L 128.849585 -198.105312 
L 128.104204 -198.105312 
L 127.358824 -198.105312 
L 126.613444 -198.105312 
L 125.868063 -198.105312 
L 125.122683 -198.105312 
L 124.377303 -198.105312 
L 123.631922 -198.105312 
L 122.886542 -198.105312 
L 122.141162 -198.105312 
L 121.395781 -198.105312 
z
" style="stroke: #0173b2; stroke-opacity: 0.75"/>
    </defs>
    <g clip-path="url(#p3be7ac69cf)">
     <use xlink:href="#ma12877222f" x="0" y="361.015312" style="fill: #0173b2; fill-opacity: 0.75; stroke: #0173b2; stroke-opacity: 0.75"/>
    </g>
   </g>
   <g id="matplotlib.axis_1">
    <g id="xtick_1">
     <g id="line2d_1">
      <defs>
       <path id="mdf975f4921" d="M 0 0 
L 0 3.5 
" style="stroke: #000000; stroke-width: 0.8"/>
      </defs>
      <g>
       <use xlink:href="#mdf975f4921" x="121.395781" y="287.65" style="stroke: #000000; stroke-width: 0.8"/>
      </g>
     </g>
     <g id="text_1">
      <!-- 0 -->
      <g transform="translate(112.806406 315.165781) scale(0.27 -0.27)">
       <defs>
        <path id="DejaVuSans-30" d="M 2034 4250 
Q 1547 4250 1301 3770 
Q 1056 3291 1056 2328 
Q 1056 1369 1301 889 
Q 1547 409 2034 409 
Q 2525 409 2770 889 
Q 3016 1369 3016 2328 
Q 3016 3291 2770 3770 
Q 2525 4250 2034 4250 
z
M 2034 4750 
Q 2819 4750 3233 4129 
Q 3647 3509 3647 2328 
Q 3647 1150 3233 529 
Q 2819 -91 2034 -91 
Q 1250 -91 836 529 
Q 422 1150 422 2328 
Q 422 3509 836 4129 
Q 1250 4750 2034 4750 
z
" transform="scale(0.015625)"/>
       </defs>
       <use xlink:href="#DejaVuSans-30"/>
      </g>
     </g>
    </g>
    <g id="xtick_2">
     <g id="line2d_2">
      <g>
       <use xlink:href="#mdf975f4921" x="214.568323" y="287.65" style="stroke: #000000; stroke-width: 0.8"/>
      </g>
     </g>
     <g id="text_2">
      <!-- 25 -->
      <g transform="translate(197.389573 315.165781) scale(0.27 -0.27)">
       <defs>
        <path id="DejaVuSans-32" d="M 1228 531 
L 3431 531 
L 3431 0 
L 469 0 
L 469 531 
Q 828 903 1448 1529 
Q 2069 2156 2228 2338 
Q 2531 2678 2651 2914 
Q 2772 3150 2772 3378 
Q 2772 3750 2511 3984 
Q 2250 4219 1831 4219 
Q 1534 4219 1204 4116 
Q 875 4013 500 3803 
L 500 4441 
Q 881 4594 1212 4672 
Q 1544 4750 1819 4750 
Q 2544 4750 2975 4387 
Q 3406 4025 3406 3419 
Q 3406 3131 3298 2873 
Q 3191 2616 2906 2266 
Q 2828 2175 2409 1742 
Q 1991 1309 1228 531 
z
" transform="scale(0.015625)"/>
        <path id="DejaVuSans-35" d="M 691 4666 
L 3169 4666 
L 3169 4134 
L 1269 4134 
L 1269 2991 
Q 1406 3038 1543 3061 
Q 1681 3084 1819 3084 
Q 2600 3084 3056 2656 
Q 3513 2228 3513 1497 
Q 3513 744 3044 326 
Q 2575 -91 1722 -91 
Q 1428 -91 1123 -41 
Q 819 9 494 109 
L 494 744 
Q 775 591 1075 516 
Q 1375 441 1709 441 
Q 2250 441 2565 725 
Q 2881 1009 2881 1497 
Q 2881 1984 2565 2268 
Q 2250 2553 1709 2553 
Q 1456 2553 1204 2497 
Q 953 2441 691 2322 
L 691 4666 
z
" transform="scale(0.015625)"/>
       </defs>
       <use xlink:href="#DejaVuSans-32"/>
       <use xlink:href="#DejaVuSans-35" x="63.623047"/>
      </g>
     </g>
    </g>
    <g id="xtick_3">
     <g id="line2d_3">
      <g>
       <use xlink:href="#mdf975f4921" x="307.740865" y="287.65" style="stroke: #000000; stroke-width: 0.8"/>
      </g>
     </g>
     <g id="text_3">
      <!-- 50 -->
      <g transform="translate(290.562115 315.165781) scale(0.27 -0.27)">
       <use xlink:href="#DejaVuSans-35"/>
       <use xlink:href="#DejaVuSans-30" x="63.623047"/>
      </g>
     </g>
    </g>
    <g id="xtick_4">
     <g id="line2d_4">
      <g>
       <use xlink:href="#mdf975f4921" x="400.913406" y="287.65" style="stroke: #000000; stroke-width: 0.8"/>
      </g>
     </g>
     <g id="text_4">
      <!-- 75 -->
      <g transform="translate(383.734656 315.165781) scale(0.27 -0.27)">
       <defs>
        <path id="DejaVuSans-37" d="M 525 4666 
L 3525 4666 
L 3525 4397 
L 1831 0 
L 1172 0 
L 2766 4134 
L 525 4134 
L 525 4666 
z
" transform="scale(0.015625)"/>
       </defs>
       <use xlink:href="#DejaVuSans-37"/>
       <use xlink:href="#DejaVuSans-35" x="63.623047"/>
      </g>
     </g>
    </g>
    <g id="xtick_5">
     <g id="line2d_5">
      <g>
       <use xlink:href="#mdf975f4921" x="494.085948" y="287.65" style="stroke: #000000; stroke-width: 0.8"/>
      </g>
     </g>
     <g id="text_5">
      <!-- 100 -->
      <g transform="translate(468.317823 315.165781) scale(0.27 -0.27)">
       <defs>
        <path id="DejaVuSans-31" d="M 794 531 
L 1825 531 
L 1825 4091 
L 703 3866 
L 703 4441 
L 1819 4666 
L 2450 4666 
L 2450 531 
L 3481 531 
L 3481 0 
L 794 0 
L 794 531 
z
" transform="scale(0.015625)"/>
       </defs>
       <use xlink:href="#DejaVuSans-31"/>
       <use xlink:href="#DejaVuSans-30" x="63.623047"/>
       <use xlink:href="#DejaVuSans-30" x="127.246094"/>
      </g>
     </g>
    </g>
    <g id="text_6">
     <!-- Time [ms] -->
     <g transform="translate(250.777717 347.57625) scale(0.3 -0.3)">
      <defs>
       <path id="DejaVuSans-54" d="M -19 4666 
L 3928 4666 
L 3928 4134 
L 2272 4134 
L 2272 0 
L 1638 0 
L 1638 4134 
L -19 4134 
L -19 4666 
z
" transform="scale(0.015625)"/>
       <path id="DejaVuSans-69" d="M 603 3500 
L 1178 3500 
L 1178 0 
L 603 0 
L 603 3500 
z
M 603 4863 
L 1178 4863 
L 1178 4134 
L 603 4134 
L 603 4863 
z
" transform="scale(0.015625)"/>
       <path id="DejaVuSans-6d" d="M 3328 2828 
Q 3544 3216 3844 3400 
Q 4144 3584 4550 3584 
Q 5097 3584 5394 3201 
Q 5691 2819 5691 2113 
L 5691 0 
L 5113 0 
L 5113 2094 
Q 5113 2597 4934 2840 
Q 4756 3084 4391 3084 
Q 3944 3084 3684 2787 
Q 3425 2491 3425 1978 
L 3425 0 
L 2847 0 
L 2847 2094 
Q 2847 2600 2669 2842 
Q 2491 3084 2119 3084 
Q 1678 3084 1418 2786 
Q 1159 2488 1159 1978 
L 1159 0 
L 581 0 
L 581 3500 
L 1159 3500 
L 1159 2956 
Q 1356 3278 1631 3431 
Q 1906 3584 2284 3584 
Q 2666 3584 2933 3390 
Q 3200 3197 3328 2828 
z
" transform="scale(0.015625)"/>
       <path id="DejaVuSans-65" d="M 3597 1894 
L 3597 1613 
L 953 1613 
Q 991 1019 1311 708 
Q 1631 397 2203 397 
Q 2534 397 2845 478 
Q 3156 559 3463 722 
L 3463 178 
Q 3153 47 2828 -22 
Q 2503 -91 2169 -91 
Q 1331 -91 842 396 
Q 353 884 353 1716 
Q 353 2575 817 3079 
Q 1281 3584 2069 3584 
Q 2775 3584 3186 3129 
Q 3597 2675 3597 1894 
z
M 3022 2063 
Q 3016 2534 2758 2815 
Q 2500 3097 2075 3097 
Q 1594 3097 1305 2825 
Q 1016 2553 972 2059 
L 3022 2063 
z
" transform="scale(0.015625)"/>
       <path id="DejaVuSans-20" transform="scale(0.015625)"/>
       <path id="DejaVuSans-5b" d="M 550 4863 
L 1875 4863 
L 1875 4416 
L 1125 4416 
L 1125 -397 
L 1875 -397 
L 1875 -844 
L 550 -844 
L 550 4863 
z
" transform="scale(0.015625)"/>
       <path id="DejaVuSans-73" d="M 2834 3397 
L 2834 2853 
Q 2591 2978 2328 3040 
Q 2066 3103 1784 3103 
Q 1356 3103 1142 2972 
Q 928 2841 928 2578 
Q 928 2378 1081 2264 
Q 1234 2150 1697 2047 
L 1894 2003 
Q 2506 1872 2764 1633 
Q 3022 1394 3022 966 
Q 3022 478 2636 193 
Q 2250 -91 1575 -91 
Q 1294 -91 989 -36 
Q 684 19 347 128 
L 347 722 
Q 666 556 975 473 
Q 1284 391 1588 391 
Q 1994 391 2212 530 
Q 2431 669 2431 922 
Q 2431 1156 2273 1281 
Q 2116 1406 1581 1522 
L 1381 1569 
Q 847 1681 609 1914 
Q 372 2147 372 2553 
Q 372 3047 722 3315 
Q 1072 3584 1716 3584 
Q 2034 3584 2315 3537 
Q 2597 3491 2834 3397 
z
" transform="scale(0.015625)"/>
       <path id="DejaVuSans-5d" d="M 1947 4863 
L 1947 -844 
L 622 -844 
L 622 -397 
L 1369 -397 
L 1369 4416 
L 622 4416 
L 622 4863 
L 1947 4863 
z
" transform="scale(0.015625)"/>
      </defs>
      <use xlink:href="#DejaVuSans-54"/>
      <use xlink:href="#DejaVuSans-69" x="57.958984"/>
      <use xlink:href="#DejaVuSans-6d" x="85.742188"/>
      <use xlink:href="#DejaVuSans-65" x="183.154297"/>
      <use xlink:href="#DejaVuSans-20" x="244.677734"/>
      <use xlink:href="#DejaVuSans-5b" x="276.464844"/>
      <use xlink:href="#DejaVuSans-6d" x="315.478516"/>
      <use xlink:href="#DejaVuSans-73" x="412.890625"/>
      <use xlink:href="#DejaVuSans-5d" x="464.990234"/>
     </g>
    </g>
   </g>
   <g id="matplotlib.axis_2">
    <g id="ytick_1">
     <g id="line2d_6">
      <defs>
       <path id="mfceed629ef" d="M 0 0 
L -3.5 0 
" style="stroke: #000000; stroke-width: 0.8"/>
      </defs>
      <g>
       <use xlink:href="#mfceed629ef" x="121.395781" y="287.029403" style="stroke: #000000; stroke-width: 0.8"/>
      </g>
     </g>
     <g id="text_7">
      <!-- −200 -->
      <g transform="translate(40.234375 297.287294) scale(0.27 -0.27)">
       <defs>
        <path id="DejaVuSans-2212" d="M 678 2272 
L 4684 2272 
L 4684 1741 
L 678 1741 
L 678 2272 
z
" transform="scale(0.015625)"/>
       </defs>
       <use xlink:href="#DejaVuSans-2212"/>
       <use xlink:href="#DejaVuSans-32" x="83.789062"/>
       <use xlink:href="#DejaVuSans-30" x="147.412109"/>
       <use xlink:href="#DejaVuSans-30" x="211.035156"/>
      </g>
     </g>
    </g>
    <g id="ytick_2">
     <g id="line2d_7">
      <g>
       <use xlink:href="#mfceed629ef" x="121.395781" y="224.969701" style="stroke: #000000; stroke-width: 0.8"/>
      </g>
     </g>
     <g id="text_8">
      <!-- −100 -->
      <g transform="translate(40.234375 235.227592) scale(0.27 -0.27)">
       <use xlink:href="#DejaVuSans-2212"/>
       <use xlink:href="#DejaVuSans-31" x="83.789062"/>
       <use xlink:href="#DejaVuSans-30" x="147.412109"/>
       <use xlink:href="#DejaVuSans-30" x="211.035156"/>
      </g>
     </g>
    </g>
    <g id="ytick_3">
     <g id="line2d_8">
      <g>
       <use xlink:href="#mfceed629ef" x="121.395781" y="162.91" style="stroke: #000000; stroke-width: 0.8"/>
      </g>
     </g>
     <g id="text_9">
      <!-- 0 -->
      <g transform="translate(97.217031 173.167891) scale(0.27 -0.27)">
       <use xlink:href="#DejaVuSans-30"/>
      </g>
     </g>
    </g>
    <g id="ytick_4">
     <g id="line2d_9">
      <g>
       <use xlink:href="#mfceed629ef" x="121.395781" y="100.850299" style="stroke: #000000; stroke-width: 0.8"/>
      </g>
     </g>
     <g id="text_10">
      <!-- 100 -->
      <g transform="translate(62.859531 111.108189) scale(0.27 -0.27)">
       <use xlink:href="#DejaVuSans-31"/>
       <use xlink:href="#DejaVuSans-30" x="63.623047"/>
       <use xlink:href="#DejaVuSans-30" x="127.246094"/>
      </g>
     </g>
    </g>
    <g id="ytick_5">
     <g id="line2d_10">
      <g>
       <use xlink:href="#mfceed629ef" x="121.395781" y="38.790597" style="stroke: #000000; stroke-width: 0.8"/>
      </g>
     </g>
     <g id="text_11">
      <!-- 200 -->
      <g transform="translate(62.859531 49.048488) scale(0.27 -0.27)">
       <use xlink:href="#DejaVuSans-32"/>
       <use xlink:href="#DejaVuSans-30" x="63.623047"/>
       <use xlink:href="#DejaVuSans-30" x="127.246094"/>
      </g>
     </g>
    </g>
    <g id="text_12">
     <!-- mT/m -->
     <g transform="translate(29.995313 206.346719) rotate(-90) scale(0.3 -0.3)">
      <defs>
       <path id="DejaVuSans-2f" d="M 1625 4666 
L 2156 4666 
L 531 -594 
L 0 -594 
L 1625 4666 
z
" transform="scale(0.015625)"/>
      </defs>
      <use xlink:href="#DejaVuSans-6d"/>
      <use xlink:href="#DejaVuSans-54" x="97.412109"/>
      <use xlink:href="#DejaVuSans-2f" x="158.496094"/>
      <use xlink:href="#DejaVuSans-6d" x="192.1875"/>
     </g>
    </g>
   </g>
   <g id="line2d_11">
    <path d="M 121.395781 162.91 
L 531.354965 162.91 
" clip-path="url(#p3be7ac69cf)" style="fill: none; stroke: #d3d3d3; stroke-opacity: 0.8; stroke-width: 1.5; stroke-linecap: square"/>
   </g>
   <g id="line2d_12">
    <path d="M 121.395781 162.91 
L 132.576486 162.91 
L 133.321867 141.870058 
L 134.812627 125.071771 
L 140.77567 98.514813 
L 148.974854 62.99431 
L 151.956375 51.56953 
L 152.701755 49.115537 
L 157.174037 49.137763 
L 159.410178 49.647856 
L 160.155559 49.775623 
L 161.646319 49.786752 
L 162.3917 52.562068 
L 163.13708 54.308024 
L 166.118601 72.112154 
L 169.845503 98.604132 
L 171.336264 109.366883 
L 173.572405 119.551086 
L 176.553926 132.195636 
L 181.771588 153.979814 
L 195.188434 210.16794 
L 195.933815 211.038979 
L 196.679195 216.029618 
L 197.424575 216.032509 
L 198.169956 222.1521 
L 206.369139 222.135715 
L 207.11452 214.808274 
L 207.8599 205.236719 
L 210.096041 188.487805 
L 213.822943 162.91 
L 240.656635 162.91 
L 241.402015 148.666625 
L 242.892776 134.785799 
L 244.383536 122.200213 
L 247.365058 108.968874 
L 257.055002 67.103857 
L 260.781904 51.617664 
L 264.508805 51.623073 
L 265.254186 64.62895 
L 265.999566 72.393631 
L 266.744946 77.519403 
L 268.235707 89.507628 
L 270.471848 106.799079 
L 272.707989 122.904802 
L 273.453369 127.023155 
L 280.907173 159.687638 
L 281.652553 162.91 
L 281.652553 162.91 
" clip-path="url(#p3be7ac69cf)" style="fill: none; stroke: #000000; stroke-width: 5; stroke-linecap: square"/>
   </g>
   <g id="line2d_13">
    <path d="M 281.652553 162.91 
L 283.553273 162.91 
L 284.41046 184.261831 
L 284.447729 183.33349 
L 286.199373 141.558169 
L 286.982022 141.558169 
L 288.770935 184.261831 
L 289.553585 184.261831 
L 291.342497 141.558169 
L 292.125147 141.558169 
L 293.91406 184.261831 
L 294.696709 184.261831 
L 296.485622 141.558169 
L 297.268271 141.558169 
L 299.057184 184.261831 
L 299.839833 184.261831 
L 301.628746 141.558169 
L 302.411395 141.558169 
L 304.200308 184.261831 
L 304.982958 184.261831 
L 306.77187 141.558169 
L 307.55452 141.558169 
L 309.343432 184.261831 
L 310.126082 184.261831 
L 311.914995 141.558169 
L 312.697644 141.558169 
L 314.486557 184.261831 
L 315.269206 184.261831 
L 317.058119 141.558169 
L 317.840768 141.558169 
L 319.629681 184.261831 
L 320.41233 184.261831 
L 322.201243 141.558169 
L 322.983893 141.558169 
L 324.772805 184.261831 
L 325.555455 184.261831 
L 327.344368 141.558169 
L 328.127017 141.558169 
L 329.91593 184.261831 
L 330.698579 184.261831 
L 332.487492 141.558169 
L 333.270141 141.558169 
L 335.059054 184.261831 
L 335.841703 184.261831 
L 337.630616 141.558169 
L 338.413265 141.558169 
L 340.202178 184.261831 
L 340.984828 184.261831 
L 342.77374 141.558169 
L 343.55639 141.558169 
L 345.345303 184.261831 
L 346.127952 184.261831 
L 347.916865 141.558169 
L 348.699514 141.558169 
L 350.488427 184.261831 
L 351.271076 184.261831 
L 353.059989 141.558169 
L 353.842638 141.558169 
L 355.631551 184.261831 
L 356.414201 184.261831 
L 358.203113 141.558169 
L 358.985763 141.558169 
L 360.774675 184.261831 
L 361.557325 184.261831 
L 363.346238 141.558169 
L 364.128887 141.558169 
L 365.9178 184.261831 
L 366.700449 184.261831 
L 368.489362 141.558169 
L 369.272011 141.558169 
L 371.060924 184.261831 
L 371.843573 184.261831 
L 373.632486 141.558169 
L 374.415136 141.558169 
L 376.204048 184.261831 
L 376.986698 184.261831 
L 378.775611 141.558169 
L 379.55826 141.558169 
L 381.347173 184.261831 
L 382.129822 184.261831 
L 383.918735 141.558169 
L 384.701384 141.558169 
L 386.490297 184.261831 
L 387.272946 184.261831 
L 389.061859 141.558169 
L 389.844509 141.558169 
L 391.633421 184.261831 
L 392.416071 184.261831 
L 394.204983 141.558169 
L 394.987633 141.558169 
L 396.776546 184.261831 
L 397.559195 184.261831 
L 399.348108 141.558169 
L 400.130757 141.558169 
L 401.91967 184.261831 
L 402.702319 184.261831 
L 404.491232 141.558169 
L 405.273881 141.558169 
L 407.062794 184.261831 
L 407.845444 184.261831 
L 409.634356 141.558169 
L 410.417006 141.558169 
L 412.205919 184.261831 
L 412.988568 184.261831 
L 414.777481 141.558169 
L 415.56013 141.558169 
L 417.349043 184.261831 
L 418.131692 184.261831 
L 419.920605 141.558169 
L 420.703254 141.558169 
L 422.492167 184.261831 
L 423.274817 184.261831 
L 425.063729 141.558169 
L 425.846379 141.558169 
L 426.740835 162.91 
L 426.740835 162.91 
" clip-path="url(#p3be7ac69cf)" style="fill: none; stroke: #000000; stroke-opacity: 0.7; stroke-width: 5; stroke-linecap: square"/>
   </g>
   <g id="line2d_14">
    <path d="M 332.837821 287.65 
L 332.837821 38.17 
" clip-path="url(#p3be7ac69cf)" style="fill: none; stroke-dasharray: 18.5,8; stroke-dashoffset: 0; stroke: #000000; stroke-width: 5"/>
   </g>
   <g id="line2d_15">
    <path d="M 121.395781 38.790597 
L 531.354965 38.790597 
" clip-path="url(#p3be7ac69cf)" style="fill: none; stroke-dasharray: 18.5,8; stroke-dashoffset: 0; stroke: #000000; stroke-opacity: 0.2; stroke-width: 5"/>
   </g>
   <g id="line2d_16">
    <path d="M 121.395781 287.029403 
L 531.354965 287.029403 
" clip-path="url(#p3be7ac69cf)" style="fill: none; stroke-dasharray: 18.5,8; stroke-dashoffset: 0; stroke: #000000; stroke-opacity: 0.2; stroke-width: 5"/>
   </g>
   <g id="line2d_17">
    <path d="M 121.395781 162.91 
L 531.354965 162.91 
" clip-path="url(#p3be7ac69cf)" style="fill: none; stroke: #000000; stroke-width: 5; stroke-linecap: square"/>
   </g>
   <g id="patch_3">
    <path d="M 121.395781 287.65 
L 121.395781 38.17 
" style="fill: none; stroke: #000000; stroke-width: 0.8; stroke-linejoin: miter; stroke-linecap: square"/>
   </g>
   <g id="patch_4">
    <path d="M 121.395781 287.65 
L 531.354965 287.65 
" style="fill: none; stroke: #000000; stroke-width: 0.8; stroke-linejoin: miter; stroke-linecap: square"/>
   </g>
   <g id="text_13">
    <!-- $G(t)$ -->
    <g transform="translate(295.175373 31.515) scale(0.32 -0.32)">
     <defs>
      <path id="DejaVuSans-Oblique-47" d="M 3494 697 
L 3738 1919 
L 2700 1919 
L 2797 2438 
L 4453 2438 
L 4050 384 
Q 3634 156 3143 32 
Q 2653 -91 2156 -91 
Q 1278 -91 783 396 
Q 288 884 288 1753 
Q 288 2475 589 3126 
Q 891 3778 1422 4213 
Q 1756 4484 2153 4617 
Q 2550 4750 3034 4750 
Q 3472 4750 3873 4639 
Q 4275 4528 4641 4306 
L 4513 3634 
Q 4231 3928 3853 4083 
Q 3475 4238 3047 4238 
Q 2550 4238 2172 4048 
Q 1794 3859 1497 3463 
Q 1244 3125 1098 2667 
Q 953 2209 953 1734 
Q 953 1081 1287 751 
Q 1622 422 2284 422 
Q 2616 422 2925 492 
Q 3234 563 3494 697 
z
" transform="scale(0.015625)"/>
      <path id="DejaVuSans-28" d="M 1984 4856 
Q 1566 4138 1362 3434 
Q 1159 2731 1159 2009 
Q 1159 1288 1364 580 
Q 1569 -128 1984 -844 
L 1484 -844 
Q 1016 -109 783 600 
Q 550 1309 550 2009 
Q 550 2706 781 3412 
Q 1013 4119 1484 4856 
L 1984 4856 
z
" transform="scale(0.015625)"/>
      <path id="DejaVuSans-Oblique-74" d="M 2706 3500 
L 2619 3053 
L 1472 3053 
L 1100 1153 
Q 1081 1047 1072 975 
Q 1063 903 1063 863 
Q 1063 663 1183 572 
Q 1303 481 1569 481 
L 2150 481 
L 2053 0 
L 1503 0 
Q 991 0 739 200 
Q 488 400 488 806 
Q 488 878 497 964 
Q 506 1050 525 1153 
L 897 3053 
L 409 3053 
L 500 3500 
L 978 3500 
L 1172 4494 
L 1747 4494 
L 1556 3500 
L 2706 3500 
z
" transform="scale(0.015625)"/>
      <path id="DejaVuSans-29" d="M 513 4856 
L 1013 4856 
Q 1481 4119 1714 3412 
Q 1947 2706 1947 2009 
Q 1947 1309 1714 600 
Q 1481 -109 1013 -844 
L 513 -844 
Q 928 -128 1133 580 
Q 1338 1288 1338 2009 
Q 1338 2731 1133 3434 
Q 928 4138 513 4856 
z
" transform="scale(0.015625)"/>
     </defs>
     <use xlink:href="#DejaVuSans-Oblique-47" transform="translate(0 0.125)"/>
     <use xlink:href="#DejaVuSans-28" transform="translate(77.490234 0.125)"/>
     <use xlink:href="#DejaVuSans-Oblique-74" transform="translate(116.503906 0.125)"/>
     <use xlink:href="#DejaVuSans-29" transform="translate(155.712891 0.125)"/>
    </g>
   </g>
   <g id="legend_1">
    <g id="patch_5">
     <path d="M 507.154965 66.77 
L 515.954965 66.77 
Q 520.354965 66.77 520.354965 62.37 
L 520.354965 53.57 
Q 520.354965 49.17 515.954965 49.17 
L 507.154965 49.17 
Q 502.754965 49.17 502.754965 53.57 
L 502.754965 62.37 
Q 502.754965 66.77 507.154965 66.77 
z
" style="fill: #ffffff; opacity: 0.8; stroke: #cccccc; stroke-linejoin: miter"/>
    </g>
   </g>
  </g>
  <g id="axes_2">
   <g id="patch_6">
    <path d="M 654.34272 287.65 
L 1064.301904 287.65 
L 1064.301904 38.17 
L 654.34272 38.17 
z
" style="fill: #ffffff"/>
   </g>
   <g id="matplotlib.axis_3">
    <g id="xtick_6">
     <g id="line2d_18">
      <g>
       <use xlink:href="#mdf975f4921" x="654.34272" y="287.65" style="stroke: #000000; stroke-width: 0.8"/>
      </g>
     </g>
     <g id="text_14">
      <!-- 0 -->
      <g transform="translate(645.753345 315.165781) scale(0.27 -0.27)">
       <use xlink:href="#DejaVuSans-30"/>
      </g>
     </g>
    </g>
    <g id="xtick_7">
     <g id="line2d_19">
      <g>
       <use xlink:href="#mdf975f4921" x="747.515262" y="287.65" style="stroke: #000000; stroke-width: 0.8"/>
      </g>
     </g>
     <g id="text_15">
      <!-- 25 -->
      <g transform="translate(730.336512 315.165781) scale(0.27 -0.27)">
       <use xlink:href="#DejaVuSans-32"/>
       <use xlink:href="#DejaVuSans-35" x="63.623047"/>
      </g>
     </g>
    </g>
    <g id="xtick_8">
     <g id="line2d_20">
      <g>
       <use xlink:href="#mdf975f4921" x="840.687804" y="287.65" style="stroke: #000000; stroke-width: 0.8"/>
      </g>
     </g>
     <g id="text_16">
      <!-- 50 -->
      <g transform="translate(823.509054 315.165781) scale(0.27 -0.27)">
       <use xlink:href="#DejaVuSans-35"/>
       <use xlink:href="#DejaVuSans-30" x="63.623047"/>
      </g>
     </g>
    </g>
    <g id="xtick_9">
     <g id="line2d_21">
      <g>
       <use xlink:href="#mdf975f4921" x="933.860345" y="287.65" style="stroke: #000000; stroke-width: 0.8"/>
      </g>
     </g>
     <g id="text_17">
      <!-- 75 -->
      <g transform="translate(916.681595 315.165781) scale(0.27 -0.27)">
       <use xlink:href="#DejaVuSans-37"/>
       <use xlink:href="#DejaVuSans-35" x="63.623047"/>
      </g>
     </g>
    </g>
    <g id="xtick_10">
     <g id="line2d_22">
      <g>
       <use xlink:href="#mdf975f4921" x="1027.032887" y="287.65" style="stroke: #000000; stroke-width: 0.8"/>
      </g>
     </g>
     <g id="text_18">
      <!-- 100 -->
      <g transform="translate(1001.264762 315.165781) scale(0.27 -0.27)">
       <use xlink:href="#DejaVuSans-31"/>
       <use xlink:href="#DejaVuSans-30" x="63.623047"/>
       <use xlink:href="#DejaVuSans-30" x="127.246094"/>
      </g>
     </g>
    </g>
    <g id="text_19">
     <!-- Time [ms] -->
     <g transform="translate(783.724656 347.57625) scale(0.3 -0.3)">
      <use xlink:href="#DejaVuSans-54"/>
      <use xlink:href="#DejaVuSans-69" x="57.958984"/>
      <use xlink:href="#DejaVuSans-6d" x="85.742188"/>
      <use xlink:href="#DejaVuSans-65" x="183.154297"/>
      <use xlink:href="#DejaVuSans-20" x="244.677734"/>
      <use xlink:href="#DejaVuSans-5b" x="276.464844"/>
      <use xlink:href="#DejaVuSans-6d" x="315.478516"/>
      <use xlink:href="#DejaVuSans-73" x="412.890625"/>
      <use xlink:href="#DejaVuSans-5d" x="464.990234"/>
     </g>
    </g>
   </g>
   <g id="matplotlib.axis_4">
    <g id="ytick_6">
     <g id="line2d_23">
      <g>
       <use xlink:href="#mfceed629ef" x="654.34272" y="287.029403" style="stroke: #000000; stroke-width: 0.8"/>
      </g>
     </g>
     <g id="text_20">
      <!-- −200 -->
      <g transform="translate(573.181314 297.287294) scale(0.27 -0.27)">
       <use xlink:href="#DejaVuSans-2212"/>
       <use xlink:href="#DejaVuSans-32" x="83.789062"/>
       <use xlink:href="#DejaVuSans-30" x="147.412109"/>
       <use xlink:href="#DejaVuSans-30" x="211.035156"/>
      </g>
     </g>
    </g>
    <g id="ytick_7">
     <g id="line2d_24">
      <g>
       <use xlink:href="#mfceed629ef" x="654.34272" y="224.969701" style="stroke: #000000; stroke-width: 0.8"/>
      </g>
     </g>
     <g id="text_21">
      <!-- −100 -->
      <g transform="translate(573.181314 235.227592) scale(0.27 -0.27)">
       <use xlink:href="#DejaVuSans-2212"/>
       <use xlink:href="#DejaVuSans-31" x="83.789062"/>
       <use xlink:href="#DejaVuSans-30" x="147.412109"/>
       <use xlink:href="#DejaVuSans-30" x="211.035156"/>
      </g>
     </g>
    </g>
    <g id="ytick_8">
     <g id="line2d_25">
      <g>
       <use xlink:href="#mfceed629ef" x="654.34272" y="162.91" style="stroke: #000000; stroke-width: 0.8"/>
      </g>
     </g>
     <g id="text_22">
      <!-- 0 -->
      <g transform="translate(630.16397 173.167891) scale(0.27 -0.27)">
       <use xlink:href="#DejaVuSans-30"/>
      </g>
     </g>
    </g>
    <g id="ytick_9">
     <g id="line2d_26">
      <g>
       <use xlink:href="#mfceed629ef" x="654.34272" y="100.850299" style="stroke: #000000; stroke-width: 0.8"/>
      </g>
     </g>
     <g id="text_23">
      <!-- 100 -->
      <g transform="translate(595.80647 111.108189) scale(0.27 -0.27)">
       <use xlink:href="#DejaVuSans-31"/>
       <use xlink:href="#DejaVuSans-30" x="63.623047"/>
       <use xlink:href="#DejaVuSans-30" x="127.246094"/>
      </g>
     </g>
    </g>
    <g id="ytick_10">
     <g id="line2d_27">
      <g>
       <use xlink:href="#mfceed629ef" x="654.34272" y="38.790597" style="stroke: #000000; stroke-width: 0.8"/>
      </g>
     </g>
     <g id="text_24">
      <!-- 200 -->
      <g transform="translate(595.80647 49.048488) scale(0.27 -0.27)">
       <use xlink:href="#DejaVuSans-32"/>
       <use xlink:href="#DejaVuSans-30" x="63.623047"/>
       <use xlink:href="#DejaVuSans-30" x="127.246094"/>
      </g>
     </g>
    </g>
    <g id="text_25">
     <!-- T/m/s -->
     <g transform="translate(562.942251 204.602969) rotate(-90) scale(0.3 -0.3)">
      <use xlink:href="#DejaVuSans-54"/>
      <use xlink:href="#DejaVuSans-2f" x="61.083984"/>
      <use xlink:href="#DejaVuSans-6d" x="94.775391"/>
      <use xlink:href="#DejaVuSans-2f" x="192.1875"/>
      <use xlink:href="#DejaVuSans-73" x="225.878906"/>
     </g>
    </g>
   </g>
   <g id="line2d_28">
    <path d="M 654.34272 162.91 
L 1064.301904 162.91 
" clip-path="url(#p61763cf515)" style="fill: none; stroke: #d3d3d3; stroke-opacity: 0.8; stroke-width: 1.5; stroke-linecap: square"/>
   </g>
   <g id="line2d_29">
    <path d="M 654.34272 162.91 
L 664.778045 162.91 
L 665.523425 57.71029 
L 666.268805 118.638233 
L 667.014186 123.190333 
L 667.759566 146.02267 
L 671.486468 146.435913 
L 677.44951 146.780315 
L 681.176412 146.886777 
L 681.921792 148.070083 
L 682.667173 148.256381 
L 683.412553 148.906516 
L 684.157933 149.283123 
L 684.903314 150.640034 
L 685.648694 162.908979 
L 689.375596 162.914678 
L 690.120976 163.87363 
L 690.866356 163.517593 
L 691.611737 163.88924 
L 692.357117 163.548836 
L 693.102497 162.953734 
L 693.847878 162.92191 
L 694.593258 176.786582 
L 695.338638 171.639781 
L 696.084019 184.860707 
L 696.829399 183.390818 
L 697.574779 186.788044 
L 698.32016 185.621078 
L 699.06554 188.654382 
L 699.81092 187.550486 
L 700.556301 190.519243 
L 701.301681 188.982688 
L 702.047061 191.303093 
L 702.792442 189.189352 
L 703.537822 190.444404 
L 704.283202 180.615587 
L 705.028583 181.469332 
L 705.773963 177.566093 
L 706.519343 179.27585 
L 707.264724 178.264791 
L 708.010104 178.422325 
L 708.755484 178.899784 
L 709.500865 178.153178 
L 710.246245 178.85332 
L 710.991625 178.250367 
L 711.737006 178.610982 
L 713.227766 178.335754 
L 713.973147 178.574343 
L 714.718527 178.435154 
L 716.954668 178.439419 
L 717.700048 178.300837 
L 718.445429 178.574615 
L 719.190809 178.414757 
L 719.936189 177.940242 
L 720.68157 179.216733 
L 721.42695 177.624399 
L 722.17233 178.61207 
L 722.917711 178.288088 
L 723.663091 178.424056 
L 724.408471 178.057759 
L 725.153852 178.569512 
L 725.899232 178.335361 
L 726.644612 177.492074 
L 727.389993 181.739246 
L 728.135373 167.265195 
L 728.880753 187.863194 
L 729.626134 162.924457 
L 730.371514 193.507953 
L 731.116894 162.925158 
L 735.589176 162.888524 
L 737.825317 162.909696 
L 738.570698 162.809043 
L 739.316078 126.272797 
L 740.061458 115.052225 
L 740.806839 133.617076 
L 741.552219 134.659019 
L 742.297599 136.709334 
L 743.04298 136.801758 
L 743.78836 136.390263 
L 744.53374 134.5353 
L 745.279121 136.648587 
L 746.024501 142.285068 
L 746.769881 162.91 
L 772.858193 162.91 
L 773.603573 91.693125 
L 774.348954 127.024152 
L 775.094334 129.391719 
L 775.839714 130.912148 
L 776.585095 131.979923 
L 777.330475 145.866695 
L 778.075855 146.487479 
L 784.784278 146.829176 
L 792.238082 146.974562 
L 792.983462 149.2826 
L 793.728842 162.908438 
L 796.710364 162.930426 
L 797.455744 227.939385 
L 798.201124 201.733403 
L 798.946505 188.53886 
L 799.691885 195.01059 
L 800.437265 190.750537 
L 801.182646 192.961681 
L 801.928026 191.445339 
L 803.418787 190.117805 
L 804.909547 189.409849 
L 805.654928 183.501768 
L 806.400308 179.475346 
L 810.87259 179.163761 
L 813.854111 179.021809 
L 813.854111 179.021809 
" clip-path="url(#p61763cf515)" style="fill: none; stroke: #000000; stroke-width: 5; stroke-linecap: square"/>
   </g>
   <g id="line2d_30">
    <path d="M 654.34272 38.790597 
L 1064.301904 38.790597 
" clip-path="url(#p61763cf515)" style="fill: none; stroke-dasharray: 18.5,8; stroke-dashoffset: 0; stroke: #000000; stroke-opacity: 0.2; stroke-width: 5"/>
   </g>
   <g id="line2d_31">
    <path d="M 654.34272 287.029403 
L 1064.301904 287.029403 
" clip-path="url(#p61763cf515)" style="fill: none; stroke-dasharray: 18.5,8; stroke-dashoffset: 0; stroke: #000000; stroke-opacity: 0.2; stroke-width: 5"/>
   </g>
   <g id="line2d_32">
    <path d="M 654.34272 162.91 
L 1064.301904 162.91 
" clip-path="url(#p61763cf515)" style="fill: none; stroke: #000000; stroke-width: 5; stroke-linecap: square"/>
   </g>
   <g id="patch_7">
    <path d="M 654.34272 287.65 
L 654.34272 38.17 
" style="fill: none; stroke: #000000; stroke-width: 0.8; stroke-linejoin: miter; stroke-linecap: square"/>
   </g>
   <g id="patch_8">
    <path d="M 654.34272 287.65 
L 1064.301904 287.65 
" style="fill: none; stroke: #000000; stroke-width: 0.8; stroke-linejoin: miter; stroke-linecap: square"/>
   </g>
   <g id="text_26">
    <!-- $S(t)$ -->
    <g transform="translate(830.362312 31.515) scale(0.32 -0.32)">
     <defs>
      <path id="DejaVuSans-Oblique-53" d="M 3859 4513 
L 3738 3897 
Q 3422 4066 3111 4152 
Q 2800 4238 2509 4238 
Q 1944 4238 1609 3991 
Q 1275 3744 1275 3334 
Q 1275 3109 1398 2989 
Q 1522 2869 2034 2731 
L 2413 2638 
Q 3053 2472 3303 2217 
Q 3553 1963 3553 1503 
Q 3553 797 2998 353 
Q 2444 -91 1538 -91 
Q 1166 -91 791 -17 
Q 416 56 38 206 
L 166 856 
Q 513 641 861 531 
Q 1209 422 1556 422 
Q 2147 422 2503 684 
Q 2859 947 2859 1369 
Q 2859 1650 2717 1795 
Q 2575 1941 2106 2059 
L 1728 2156 
Q 1081 2325 845 2545 
Q 609 2766 609 3163 
Q 609 3859 1145 4304 
Q 1681 4750 2541 4750 
Q 2875 4750 3203 4690 
Q 3531 4631 3859 4513 
z
" transform="scale(0.015625)"/>
     </defs>
     <use xlink:href="#DejaVuSans-Oblique-53" transform="translate(0 0.125)"/>
     <use xlink:href="#DejaVuSans-28" transform="translate(63.476562 0.125)"/>
     <use xlink:href="#DejaVuSans-Oblique-74" transform="translate(102.490234 0.125)"/>
     <use xlink:href="#DejaVuSans-29" transform="translate(141.699219 0.125)"/>
    </g>
   </g>
  </g>
  <g id="axes_3">
   <g id="patch_9">
    <path d="M 1187.289659 287.65 
L 1597.248842 287.65 
L 1597.248842 38.17 
L 1187.289659 38.17 
z
" style="fill: #ffffff"/>
   </g>
   <g id="matplotlib.axis_5">
    <g id="xtick_11">
     <g id="line2d_33">
      <g>
       <use xlink:href="#mdf975f4921" x="1187.289659" y="287.65" style="stroke: #000000; stroke-width: 0.8"/>
      </g>
     </g>
     <g id="text_27">
      <!-- 0 -->
      <g transform="translate(1178.700284 315.165781) scale(0.27 -0.27)">
       <use xlink:href="#DejaVuSans-30"/>
      </g>
     </g>
    </g>
    <g id="xtick_12">
     <g id="line2d_34">
      <g>
       <use xlink:href="#mdf975f4921" x="1280.462201" y="287.65" style="stroke: #000000; stroke-width: 0.8"/>
      </g>
     </g>
     <g id="text_28">
      <!-- 25 -->
      <g transform="translate(1263.283451 315.165781) scale(0.27 -0.27)">
       <use xlink:href="#DejaVuSans-32"/>
       <use xlink:href="#DejaVuSans-35" x="63.623047"/>
      </g>
     </g>
    </g>
    <g id="xtick_13">
     <g id="line2d_35">
      <g>
       <use xlink:href="#mdf975f4921" x="1373.634742" y="287.65" style="stroke: #000000; stroke-width: 0.8"/>
      </g>
     </g>
     <g id="text_29">
      <!-- 50 -->
      <g transform="translate(1356.455992 315.165781) scale(0.27 -0.27)">
       <use xlink:href="#DejaVuSans-35"/>
       <use xlink:href="#DejaVuSans-30" x="63.623047"/>
      </g>
     </g>
    </g>
    <g id="xtick_14">
     <g id="line2d_36">
      <g>
       <use xlink:href="#mdf975f4921" x="1466.807284" y="287.65" style="stroke: #000000; stroke-width: 0.8"/>
      </g>
     </g>
     <g id="text_30">
      <!-- 75 -->
      <g transform="translate(1449.628534 315.165781) scale(0.27 -0.27)">
       <use xlink:href="#DejaVuSans-37"/>
       <use xlink:href="#DejaVuSans-35" x="63.623047"/>
      </g>
     </g>
    </g>
    <g id="xtick_15">
     <g id="line2d_37">
      <g>
       <use xlink:href="#mdf975f4921" x="1559.979826" y="287.65" style="stroke: #000000; stroke-width: 0.8"/>
      </g>
     </g>
     <g id="text_31">
      <!-- 100 -->
      <g transform="translate(1534.211701 315.165781) scale(0.27 -0.27)">
       <use xlink:href="#DejaVuSans-31"/>
       <use xlink:href="#DejaVuSans-30" x="63.623047"/>
       <use xlink:href="#DejaVuSans-30" x="127.246094"/>
      </g>
     </g>
    </g>
    <g id="text_32">
     <!-- Time [ms] -->
     <g transform="translate(1316.671594 347.57625) scale(0.3 -0.3)">
      <use xlink:href="#DejaVuSans-54"/>
      <use xlink:href="#DejaVuSans-69" x="57.958984"/>
      <use xlink:href="#DejaVuSans-6d" x="85.742188"/>
      <use xlink:href="#DejaVuSans-65" x="183.154297"/>
      <use xlink:href="#DejaVuSans-20" x="244.677734"/>
      <use xlink:href="#DejaVuSans-5b" x="276.464844"/>
      <use xlink:href="#DejaVuSans-6d" x="315.478516"/>
      <use xlink:href="#DejaVuSans-73" x="412.890625"/>
      <use xlink:href="#DejaVuSans-5d" x="464.990234"/>
     </g>
    </g>
   </g>
   <g id="matplotlib.axis_6">
    <g id="ytick_11">
     <g id="line2d_38">
      <g>
       <use xlink:href="#mfceed629ef" x="1187.289659" y="287.65" style="stroke: #000000; stroke-width: 0.8"/>
      </g>
     </g>
     <g id="text_33">
      <!-- 0.00 -->
      <g transform="translate(1120.172471 297.907891) scale(0.27 -0.27)">
       <defs>
        <path id="DejaVuSans-2e" d="M 684 794 
L 1344 794 
L 1344 0 
L 684 0 
L 684 794 
z
" transform="scale(0.015625)"/>
       </defs>
       <use xlink:href="#DejaVuSans-30"/>
       <use xlink:href="#DejaVuSans-2e" x="63.623047"/>
       <use xlink:href="#DejaVuSans-30" x="95.410156"/>
       <use xlink:href="#DejaVuSans-30" x="159.033203"/>
      </g>
     </g>
    </g>
    <g id="ytick_12">
     <g id="line2d_39">
      <g>
       <use xlink:href="#mfceed629ef" x="1187.289659" y="225.28" style="stroke: #000000; stroke-width: 0.8"/>
      </g>
     </g>
     <g id="text_34">
      <!-- 0.25 -->
      <g transform="translate(1120.172471 235.537891) scale(0.27 -0.27)">
       <use xlink:href="#DejaVuSans-30"/>
       <use xlink:href="#DejaVuSans-2e" x="63.623047"/>
       <use xlink:href="#DejaVuSans-32" x="95.410156"/>
       <use xlink:href="#DejaVuSans-35" x="159.033203"/>
      </g>
     </g>
    </g>
    <g id="ytick_13">
     <g id="line2d_40">
      <g>
       <use xlink:href="#mfceed629ef" x="1187.289659" y="162.91" style="stroke: #000000; stroke-width: 0.8"/>
      </g>
     </g>
     <g id="text_35">
      <!-- 0.50 -->
      <g transform="translate(1120.172471 173.167891) scale(0.27 -0.27)">
       <use xlink:href="#DejaVuSans-30"/>
       <use xlink:href="#DejaVuSans-2e" x="63.623047"/>
       <use xlink:href="#DejaVuSans-35" x="95.410156"/>
       <use xlink:href="#DejaVuSans-30" x="159.033203"/>
      </g>
     </g>
    </g>
    <g id="ytick_14">
     <g id="line2d_41">
      <g>
       <use xlink:href="#mfceed629ef" x="1187.289659" y="100.54" style="stroke: #000000; stroke-width: 0.8"/>
      </g>
     </g>
     <g id="text_36">
      <!-- 0.75 -->
      <g transform="translate(1120.172471 110.797891) scale(0.27 -0.27)">
       <use xlink:href="#DejaVuSans-30"/>
       <use xlink:href="#DejaVuSans-2e" x="63.623047"/>
       <use xlink:href="#DejaVuSans-37" x="95.410156"/>
       <use xlink:href="#DejaVuSans-35" x="159.033203"/>
      </g>
     </g>
    </g>
    <g id="ytick_15">
     <g id="line2d_42">
      <g>
       <use xlink:href="#mfceed629ef" x="1187.289659" y="38.17" style="stroke: #000000; stroke-width: 0.8"/>
      </g>
     </g>
     <g id="text_37">
      <!-- 1.00 -->
      <g transform="translate(1120.172471 48.427891) scale(0.27 -0.27)">
       <use xlink:href="#DejaVuSans-31"/>
       <use xlink:href="#DejaVuSans-2e" x="63.623047"/>
       <use xlink:href="#DejaVuSans-30" x="95.410156"/>
       <use xlink:href="#DejaVuSans-30" x="159.033203"/>
      </g>
     </g>
    </g>
    <g id="text_38">
     <!-- unitless -->
     <g transform="translate(1109.933409 220.995156) rotate(-90) scale(0.3 -0.3)">
      <defs>
       <path id="DejaVuSans-75" d="M 544 1381 
L 544 3500 
L 1119 3500 
L 1119 1403 
Q 1119 906 1312 657 
Q 1506 409 1894 409 
Q 2359 409 2629 706 
Q 2900 1003 2900 1516 
L 2900 3500 
L 3475 3500 
L 3475 0 
L 2900 0 
L 2900 538 
Q 2691 219 2414 64 
Q 2138 -91 1772 -91 
Q 1169 -91 856 284 
Q 544 659 544 1381 
z
M 1991 3584 
L 1991 3584 
z
" transform="scale(0.015625)"/>
       <path id="DejaVuSans-6e" d="M 3513 2113 
L 3513 0 
L 2938 0 
L 2938 2094 
Q 2938 2591 2744 2837 
Q 2550 3084 2163 3084 
Q 1697 3084 1428 2787 
Q 1159 2491 1159 1978 
L 1159 0 
L 581 0 
L 581 3500 
L 1159 3500 
L 1159 2956 
Q 1366 3272 1645 3428 
Q 1925 3584 2291 3584 
Q 2894 3584 3203 3211 
Q 3513 2838 3513 2113 
z
" transform="scale(0.015625)"/>
       <path id="DejaVuSans-74" d="M 1172 4494 
L 1172 3500 
L 2356 3500 
L 2356 3053 
L 1172 3053 
L 1172 1153 
Q 1172 725 1289 603 
Q 1406 481 1766 481 
L 2356 481 
L 2356 0 
L 1766 0 
Q 1100 0 847 248 
Q 594 497 594 1153 
L 594 3053 
L 172 3053 
L 172 3500 
L 594 3500 
L 594 4494 
L 1172 4494 
z
" transform="scale(0.015625)"/>
       <path id="DejaVuSans-6c" d="M 603 4863 
L 1178 4863 
L 1178 0 
L 603 0 
L 603 4863 
z
" transform="scale(0.015625)"/>
      </defs>
      <use xlink:href="#DejaVuSans-75"/>
      <use xlink:href="#DejaVuSans-6e" x="63.378906"/>
      <use xlink:href="#DejaVuSans-69" x="126.757812"/>
      <use xlink:href="#DejaVuSans-74" x="154.541016"/>
      <use xlink:href="#DejaVuSans-6c" x="193.75"/>
      <use xlink:href="#DejaVuSans-65" x="221.533203"/>
      <use xlink:href="#DejaVuSans-73" x="283.056641"/>
      <use xlink:href="#DejaVuSans-73" x="335.15625"/>
     </g>
    </g>
   </g>
   <g id="line2d_43">
    <path d="M 1187.289659 287.65 
L 1597.248842 287.65 
" clip-path="url(#p8ce2b8b631)" style="fill: none; stroke: #d3d3d3; stroke-opacity: 0.8; stroke-width: 1.5; stroke-linecap: square"/>
   </g>
   <g id="line2d_44">
    <path d="M 1187.289659 287.65 
L 1198.470364 287.65 
L 1199.215744 166.99677 
L 1199.961124 166.94746 
L 1200.706505 169.366939 
L 1201.451885 194.794556 
L 1202.197265 207.996255 
L 1202.942646 214.992921 
L 1203.688026 218.807196 
L 1204.433406 220.930877 
L 1205.178787 222.143739 
L 1205.924167 222.824112 
L 1206.669547 223.194116 
L 1207.414928 223.360512 
L 1208.905688 223.320672 
L 1210.396449 222.985866 
L 1212.63259 222.19163 
L 1214.868731 221.213575 
L 1215.614111 222.203675 
L 1216.359492 222.823064 
L 1217.850252 224.665142 
L 1218.595633 226.630557 
L 1219.341013 241.759737 
L 1220.086393 250.483312 
L 1220.831774 255.840015 
L 1221.577154 259.3495 
L 1222.322534 261.907463 
L 1223.067915 263.68275 
L 1224.558675 265.671307 
L 1225.304056 266.304971 
L 1226.049436 267.20254 
L 1226.794817 268.327635 
L 1227.540197 269.132178 
L 1228.285577 255.19481 
L 1229.030958 252.09451 
L 1229.776338 234.845095 
L 1231.267099 216.784473 
L 1232.012479 211.981438 
L 1232.757859 204.997636 
L 1233.50324 201.541418 
L 1234.24862 195.438087 
L 1234.994 193.026809 
L 1235.739381 188.311486 
L 1236.484761 187.410811 
L 1237.230141 184.850305 
L 1237.975522 194.118693 
L 1238.720902 198.011115 
L 1239.466282 204.528942 
L 1240.211663 206.227889 
L 1240.957043 208.39155 
L 1241.702423 209.482396 
L 1242.447804 209.596965 
L 1243.193184 210.537537 
L 1243.938564 210.268556 
L 1244.683945 210.791909 
L 1245.429325 210.64264 
L 1246.174705 210.628755 
L 1246.920086 210.769422 
L 1247.665466 210.515735 
L 1249.901607 210.259501 
L 1250.646987 210.092955 
L 1251.392368 210.079997 
L 1252.137748 209.681519 
L 1252.883128 209.559678 
L 1253.628509 209.952724 
L 1254.373889 208.637787 
L 1255.119269 209.636749 
L 1255.86465 208.989387 
L 1256.61003 208.923648 
L 1257.35541 208.654245 
L 1258.100791 208.846296 
L 1258.846171 208.29699 
L 1259.591551 208.182962 
L 1260.336932 209.01037 
L 1261.082312 204.548102 
L 1261.827692 218.515471 
L 1262.573073 202.837508 
L 1263.318453 222.547845 
L 1264.063833 198.676053 
L 1264.809214 220.190242 
L 1265.554594 232.337119 
L 1266.299974 239.573347 
L 1267.045355 244.220448 
L 1267.790735 247.426093 
L 1268.536115 249.765732 
L 1269.281496 251.628293 
L 1270.772256 254.364822 
L 1272.263017 256.328596 
L 1273.753778 180.918792 
L 1275.244538 179.084597 
L 1275.989919 179.802691 
L 1276.735299 179.421192 
L 1277.480679 178.035369 
L 1278.22606 174.542587 
L 1278.97144 174.452883 
L 1279.71682 180.380829 
L 1280.462201 207.065565 
L 1281.207581 222.32289 
L 1281.952961 231.586206 
L 1282.698342 237.603384 
L 1283.443722 241.785483 
L 1284.189102 244.873739 
L 1284.934483 247.270304 
L 1285.679863 249.202948 
L 1287.170624 252.170395 
L 1288.661384 254.383572 
L 1290.152145 256.133786 
L 1291.642906 257.584117 
L 1293.879047 259.403392 
L 1296.860568 261.433998 
L 1300.58747 263.616609 
L 1305.059752 265.922403 
L 1306.550512 266.633833 
L 1307.295893 185.301695 
L 1308.041273 178.824371 
L 1308.786653 176.045785 
L 1309.532034 174.69522 
L 1310.277414 173.918825 
L 1311.022794 188.402409 
L 1311.768175 196.693289 
L 1312.513555 201.219281 
L 1313.258935 203.802992 
L 1314.004316 205.326519 
L 1314.749696 206.267811 
L 1315.495076 206.874471 
L 1316.240457 207.253896 
L 1317.731217 207.647933 
L 1319.221978 207.747663 
L 1321.458119 207.604486 
L 1324.43964 207.137645 
L 1325.930401 206.855164 
L 1326.675781 209.342044 
L 1327.421162 226.335458 
L 1328.166542 236.170653 
L 1328.911922 242.226348 
L 1329.657303 246.270353 
L 1330.402683 249.13536 
L 1331.148063 187.51961 
L 1331.893444 173.66911 
L 1332.638824 179.057035 
L 1333.384204 173.149749 
L 1334.129585 173.511241 
L 1334.874965 170.201449 
L 1335.620345 169.26279 
L 1336.365726 168.802648 
L 1338.601867 168.576634 
L 1339.347247 174.967442 
L 1340.092627 182.990809 
L 1340.838008 187.600517 
L 1341.583388 190.403214 
L 1342.328768 192.208694 
L 1343.074149 193.446243 
L 1343.819529 194.337775 
L 1344.564909 195.001377 
L 1346.05567 195.912 
L 1347.546431 196.493928 
L 1347.546431 196.493928 
" clip-path="url(#p8ce2b8b631)" style="fill: none; stroke: #000000; stroke-width: 5; stroke-linecap: square"/>
   </g>
   <g id="line2d_45">
    <path d="M 1187.289659 287.65 
L 1597.248842 287.65 
" clip-path="url(#p8ce2b8b631)" style="fill: none; stroke: #000000; stroke-width: 5; stroke-linecap: square"/>
   </g>
   <g id="line2d_46">
    <path d="M 1187.289659 167.455688 
L 1189.5258 166.841814 
L 1192.507321 166.36843 
L 1196.979603 165.941622 
L 1205.924167 165.367392 
L 1220.086393 164.699444 
L 1237.230141 164.129844 
L 1258.100791 163.675099 
L 1279.71682 163.38195 
L 1280.462201 198.040085 
L 1281.207581 221.692636 
L 1281.952961 191.117227 
L 1282.698342 201.338293 
L 1283.443722 182.636874 
L 1284.189102 175.307212 
L 1284.934483 172.23343 
L 1285.679863 170.790881 
L 1286.425243 170.003032 
L 1287.170624 169.50001 
L 1288.661384 168.852402 
L 1290.897525 168.250621 
L 1293.879047 167.734796 
L 1299.096709 167.123671 
L 1303.568991 166.709468 
L 1304.314371 214.243543 
L 1305.805132 195.533159 
L 1306.550512 200.777641 
L 1307.295893 184.267771 
L 1308.041273 177.723892 
L 1308.786653 174.918608 
L 1309.532034 173.553147 
L 1310.277414 172.770799 
L 1311.768175 171.850143 
L 1313.258935 171.256555 
L 1315.495076 170.618456 
L 1319.221978 169.858541 
L 1325.185021 168.943002 
L 1333.384204 167.925889 
L 1343.074149 166.948702 
L 1347.546431 166.564505 
L 1347.546431 166.564505 
" clip-path="url(#p8ce2b8b631)" style="fill: none; stroke-dasharray: 22.2,9.6; stroke-dashoffset: 0; stroke: #ff0000; stroke-width: 6"/>
   </g>
   <g id="line2d_47">
    <path d="M 1187.289659 75.592 
L 1597.248842 75.592 
" clip-path="url(#p8ce2b8b631)" style="fill: none; stroke-dasharray: 5,8.25; stroke-dashoffset: 0; stroke: #ff0000; stroke-opacity: 0.5; stroke-width: 5"/>
   </g>
   <g id="patch_10">
    <path d="M 1187.289659 287.65 
L 1187.289659 38.17 
" style="fill: none; stroke: #000000; stroke-width: 0.8; stroke-linejoin: miter; stroke-linecap: square"/>
   </g>
   <g id="patch_11">
    <path d="M 1187.289659 287.65 
L 1597.248842 287.65 
" style="fill: none; stroke: #000000; stroke-width: 0.8; stroke-linejoin: miter; stroke-linecap: square"/>
   </g>
   <g id="text_39">
    <!-- SAFE-PNS -->
    <g transform="translate(1314.006751 31.515) scale(0.32 -0.32)">
     <defs>
      <path id="DejaVuSans-53" d="M 3425 4513 
L 3425 3897 
Q 3066 4069 2747 4153 
Q 2428 4238 2131 4238 
Q 1616 4238 1336 4038 
Q 1056 3838 1056 3469 
Q 1056 3159 1242 3001 
Q 1428 2844 1947 2747 
L 2328 2669 
Q 3034 2534 3370 2195 
Q 3706 1856 3706 1288 
Q 3706 609 3251 259 
Q 2797 -91 1919 -91 
Q 1588 -91 1214 -16 
Q 841 59 441 206 
L 441 856 
Q 825 641 1194 531 
Q 1563 422 1919 422 
Q 2459 422 2753 634 
Q 3047 847 3047 1241 
Q 3047 1584 2836 1778 
Q 2625 1972 2144 2069 
L 1759 2144 
Q 1053 2284 737 2584 
Q 422 2884 422 3419 
Q 422 4038 858 4394 
Q 1294 4750 2059 4750 
Q 2388 4750 2728 4690 
Q 3069 4631 3425 4513 
z
" transform="scale(0.015625)"/>
      <path id="DejaVuSans-41" d="M 2188 4044 
L 1331 1722 
L 3047 1722 
L 2188 4044 
z
M 1831 4666 
L 2547 4666 
L 4325 0 
L 3669 0 
L 3244 1197 
L 1141 1197 
L 716 0 
L 50 0 
L 1831 4666 
z
" transform="scale(0.015625)"/>
      <path id="DejaVuSans-46" d="M 628 4666 
L 3309 4666 
L 3309 4134 
L 1259 4134 
L 1259 2759 
L 3109 2759 
L 3109 2228 
L 1259 2228 
L 1259 0 
L 628 0 
L 628 4666 
z
" transform="scale(0.015625)"/>
      <path id="DejaVuSans-45" d="M 628 4666 
L 3578 4666 
L 3578 4134 
L 1259 4134 
L 1259 2753 
L 3481 2753 
L 3481 2222 
L 1259 2222 
L 1259 531 
L 3634 531 
L 3634 0 
L 628 0 
L 628 4666 
z
" transform="scale(0.015625)"/>
      <path id="DejaVuSans-2d" d="M 313 2009 
L 1997 2009 
L 1997 1497 
L 313 1497 
L 313 2009 
z
" transform="scale(0.015625)"/>
      <path id="DejaVuSans-50" d="M 1259 4147 
L 1259 2394 
L 2053 2394 
Q 2494 2394 2734 2622 
Q 2975 2850 2975 3272 
Q 2975 3691 2734 3919 
Q 2494 4147 2053 4147 
L 1259 4147 
z
M 628 4666 
L 2053 4666 
Q 2838 4666 3239 4311 
Q 3641 3956 3641 3272 
Q 3641 2581 3239 2228 
Q 2838 1875 2053 1875 
L 1259 1875 
L 1259 0 
L 628 0 
L 628 4666 
z
" transform="scale(0.015625)"/>
      <path id="DejaVuSans-4e" d="M 628 4666 
L 1478 4666 
L 3547 763 
L 3547 4666 
L 4159 4666 
L 4159 0 
L 3309 0 
L 1241 3903 
L 1241 0 
L 628 0 
L 628 4666 
z
" transform="scale(0.015625)"/>
     </defs>
     <use xlink:href="#DejaVuSans-53"/>
     <use xlink:href="#DejaVuSans-41" x="65.351562"/>
     <use xlink:href="#DejaVuSans-46" x="133.759766"/>
     <use xlink:href="#DejaVuSans-45" x="191.279297"/>
     <use xlink:href="#DejaVuSans-2d" x="254.462891"/>
     <use xlink:href="#DejaVuSans-50" x="290.546875"/>
     <use xlink:href="#DejaVuSans-4e" x="350.849609"/>
     <use xlink:href="#DejaVuSans-53" x="425.654297"/>
    </g>
   </g>
   <g id="legend_2">
    <g id="patch_12">
     <path d="M 1448.611342 276.65 
L 1581.848842 276.65 
Q 1586.248842 276.65 1586.248842 272.25 
L 1586.248842 242.158125 
Q 1586.248842 237.758125 1581.848842 237.758125 
L 1448.611342 237.758125 
Q 1444.211342 237.758125 1444.211342 242.158125 
L 1444.211342 272.25 
Q 1444.211342 276.65 1448.611342 276.65 
z
" style="fill: #ffffff; opacity: 0.2; stroke: #cccccc; stroke-linejoin: miter"/>
    </g>
    <g id="line2d_48">
     <path d="M 1453.011342 255.574688 
L 1475.011342 255.574688 
L 1497.011342 255.574688 
" style="fill: none; stroke: #000000; stroke-width: 5; stroke-linecap: square"/>
    </g>
    <g id="text_40">
     <!-- Y-axis -->
     <g transform="translate(1514.611342 263.274688) scale(0.22 -0.22)">
      <defs>
       <path id="DejaVuSans-59" d="M -13 4666 
L 666 4666 
L 1959 2747 
L 3244 4666 
L 3922 4666 
L 2272 2222 
L 2272 0 
L 1638 0 
L 1638 2222 
L -13 4666 
z
" transform="scale(0.015625)"/>
       <path id="DejaVuSans-61" d="M 2194 1759 
Q 1497 1759 1228 1600 
Q 959 1441 959 1056 
Q 959 750 1161 570 
Q 1363 391 1709 391 
Q 2188 391 2477 730 
Q 2766 1069 2766 1631 
L 2766 1759 
L 2194 1759 
z
M 3341 1997 
L 3341 0 
L 2766 0 
L 2766 531 
Q 2569 213 2275 61 
Q 1981 -91 1556 -91 
Q 1019 -91 701 211 
Q 384 513 384 1019 
Q 384 1609 779 1909 
Q 1175 2209 1959 2209 
L 2766 2209 
L 2766 2266 
Q 2766 2663 2505 2880 
Q 2244 3097 1772 3097 
Q 1472 3097 1187 3025 
Q 903 2953 641 2809 
L 641 3341 
Q 956 3463 1253 3523 
Q 1550 3584 1831 3584 
Q 2591 3584 2966 3190 
Q 3341 2797 3341 1997 
z
" transform="scale(0.015625)"/>
       <path id="DejaVuSans-78" d="M 3513 3500 
L 2247 1797 
L 3578 0 
L 2900 0 
L 1881 1375 
L 863 0 
L 184 0 
L 1544 1831 
L 300 3500 
L 978 3500 
L 1906 2253 
L 2834 3500 
L 3513 3500 
z
" transform="scale(0.015625)"/>
      </defs>
      <use xlink:href="#DejaVuSans-59"/>
      <use xlink:href="#DejaVuSans-2d" x="49.208984"/>
      <use xlink:href="#DejaVuSans-61" x="85.292969"/>
      <use xlink:href="#DejaVuSans-78" x="146.572266"/>
      <use xlink:href="#DejaVuSans-69" x="205.751953"/>
      <use xlink:href="#DejaVuSans-73" x="233.535156"/>
     </g>
    </g>
   </g>
  </g>
  <g id="axes_4">
   <g id="patch_13">
    <path d="M 1720.236598 287.65 
L 2130.195781 287.65 
L 2130.195781 38.17 
L 1720.236598 38.17 
z
" style="fill: #ffffff"/>
   </g>
   <g id="matplotlib.axis_7">
    <g id="xtick_16">
     <g id="line2d_49">
      <g>
       <use xlink:href="#mdf975f4921" x="1720.236598" y="287.65" style="stroke: #000000; stroke-width: 0.8"/>
      </g>
     </g>
     <g id="text_41">
      <!-- 0 -->
      <g transform="translate(1711.647223 315.165781) scale(0.27 -0.27)">
       <use xlink:href="#DejaVuSans-30"/>
      </g>
     </g>
    </g>
    <g id="xtick_17">
     <g id="line2d_50">
      <g>
       <use xlink:href="#mdf975f4921" x="1813.409139" y="287.65" style="stroke: #000000; stroke-width: 0.8"/>
      </g>
     </g>
     <g id="text_42">
      <!-- 25 -->
      <g transform="translate(1796.230389 315.165781) scale(0.27 -0.27)">
       <use xlink:href="#DejaVuSans-32"/>
       <use xlink:href="#DejaVuSans-35" x="63.623047"/>
      </g>
     </g>
    </g>
    <g id="xtick_18">
     <g id="line2d_51">
      <g>
       <use xlink:href="#mdf975f4921" x="1906.581681" y="287.65" style="stroke: #000000; stroke-width: 0.8"/>
      </g>
     </g>
     <g id="text_43">
      <!-- 50 -->
      <g transform="translate(1889.402931 315.165781) scale(0.27 -0.27)">
       <use xlink:href="#DejaVuSans-35"/>
       <use xlink:href="#DejaVuSans-30" x="63.623047"/>
      </g>
     </g>
    </g>
    <g id="xtick_19">
     <g id="line2d_52">
      <g>
       <use xlink:href="#mdf975f4921" x="1999.754223" y="287.65" style="stroke: #000000; stroke-width: 0.8"/>
      </g>
     </g>
     <g id="text_44">
      <!-- 75 -->
      <g transform="translate(1982.575473 315.165781) scale(0.27 -0.27)">
       <use xlink:href="#DejaVuSans-37"/>
       <use xlink:href="#DejaVuSans-35" x="63.623047"/>
      </g>
     </g>
    </g>
    <g id="xtick_20">
     <g id="line2d_53">
      <g>
       <use xlink:href="#mdf975f4921" x="2092.926765" y="287.65" style="stroke: #000000; stroke-width: 0.8"/>
      </g>
     </g>
     <g id="text_45">
      <!-- 100 -->
      <g transform="translate(2067.15864 315.165781) scale(0.27 -0.27)">
       <use xlink:href="#DejaVuSans-31"/>
       <use xlink:href="#DejaVuSans-30" x="63.623047"/>
       <use xlink:href="#DejaVuSans-30" x="127.246094"/>
      </g>
     </g>
    </g>
    <g id="text_46">
     <!-- Time [ms] -->
     <g transform="translate(1849.618533 347.57625) scale(0.3 -0.3)">
      <use xlink:href="#DejaVuSans-54"/>
      <use xlink:href="#DejaVuSans-69" x="57.958984"/>
      <use xlink:href="#DejaVuSans-6d" x="85.742188"/>
      <use xlink:href="#DejaVuSans-65" x="183.154297"/>
      <use xlink:href="#DejaVuSans-20" x="244.677734"/>
      <use xlink:href="#DejaVuSans-5b" x="276.464844"/>
      <use xlink:href="#DejaVuSans-6d" x="315.478516"/>
      <use xlink:href="#DejaVuSans-73" x="412.890625"/>
      <use xlink:href="#DejaVuSans-5d" x="464.990234"/>
     </g>
    </g>
   </g>
   <g id="matplotlib.axis_8">
    <g id="ytick_16">
     <g id="line2d_54">
      <g>
       <use xlink:href="#mfceed629ef" x="1720.236598" y="287.65" style="stroke: #000000; stroke-width: 0.8"/>
      </g>
     </g>
     <g id="text_47">
      <!-- 0.00 -->
      <g transform="translate(1653.11941 297.907891) scale(0.27 -0.27)">
       <use xlink:href="#DejaVuSans-30"/>
       <use xlink:href="#DejaVuSans-2e" x="63.623047"/>
       <use xlink:href="#DejaVuSans-30" x="95.410156"/>
       <use xlink:href="#DejaVuSans-30" x="159.033203"/>
      </g>
     </g>
    </g>
    <g id="ytick_17">
     <g id="line2d_55">
      <g>
       <use xlink:href="#mfceed629ef" x="1720.236598" y="225.28" style="stroke: #000000; stroke-width: 0.8"/>
      </g>
     </g>
     <g id="text_48">
      <!-- 0.25 -->
      <g transform="translate(1653.11941 235.537891) scale(0.27 -0.27)">
       <use xlink:href="#DejaVuSans-30"/>
       <use xlink:href="#DejaVuSans-2e" x="63.623047"/>
       <use xlink:href="#DejaVuSans-32" x="95.410156"/>
       <use xlink:href="#DejaVuSans-35" x="159.033203"/>
      </g>
     </g>
    </g>
    <g id="ytick_18">
     <g id="line2d_56">
      <g>
       <use xlink:href="#mfceed629ef" x="1720.236598" y="162.91" style="stroke: #000000; stroke-width: 0.8"/>
      </g>
     </g>
     <g id="text_49">
      <!-- 0.50 -->
      <g transform="translate(1653.11941 173.167891) scale(0.27 -0.27)">
       <use xlink:href="#DejaVuSans-30"/>
       <use xlink:href="#DejaVuSans-2e" x="63.623047"/>
       <use xlink:href="#DejaVuSans-35" x="95.410156"/>
       <use xlink:href="#DejaVuSans-30" x="159.033203"/>
      </g>
     </g>
    </g>
    <g id="ytick_19">
     <g id="line2d_57">
      <g>
       <use xlink:href="#mfceed629ef" x="1720.236598" y="100.54" style="stroke: #000000; stroke-width: 0.8"/>
      </g>
     </g>
     <g id="text_50">
      <!-- 0.75 -->
      <g transform="translate(1653.11941 110.797891) scale(0.27 -0.27)">
       <use xlink:href="#DejaVuSans-30"/>
       <use xlink:href="#DejaVuSans-2e" x="63.623047"/>
       <use xlink:href="#DejaVuSans-37" x="95.410156"/>
       <use xlink:href="#DejaVuSans-35" x="159.033203"/>
      </g>
     </g>
    </g>
    <g id="ytick_20">
     <g id="line2d_58">
      <g>
       <use xlink:href="#mfceed629ef" x="1720.236598" y="38.17" style="stroke: #000000; stroke-width: 0.8"/>
      </g>
     </g>
     <g id="text_51">
      <!-- 1.00 -->
      <g transform="translate(1653.11941 48.427891) scale(0.27 -0.27)">
       <use xlink:href="#DejaVuSans-31"/>
       <use xlink:href="#DejaVuSans-2e" x="63.623047"/>
       <use xlink:href="#DejaVuSans-30" x="95.410156"/>
       <use xlink:href="#DejaVuSans-30" x="159.033203"/>
      </g>
     </g>
    </g>
    <g id="text_52">
     <!-- unitless -->
     <g transform="translate(1642.880348 220.995156) rotate(-90) scale(0.3 -0.3)">
      <use xlink:href="#DejaVuSans-75"/>
      <use xlink:href="#DejaVuSans-6e" x="63.378906"/>
      <use xlink:href="#DejaVuSans-69" x="126.757812"/>
      <use xlink:href="#DejaVuSans-74" x="154.541016"/>
      <use xlink:href="#DejaVuSans-6c" x="193.75"/>
      <use xlink:href="#DejaVuSans-65" x="221.533203"/>
      <use xlink:href="#DejaVuSans-73" x="283.056641"/>
      <use xlink:href="#DejaVuSans-73" x="335.15625"/>
     </g>
    </g>
   </g>
   <g id="line2d_59">
    <path d="M 1720.236598 287.65 
L 2130.195781 287.65 
" clip-path="url(#pdabf3fd876)" style="fill: none; stroke: #d3d3d3; stroke-opacity: 0.8; stroke-width: 1.5; stroke-linecap: square"/>
   </g>
   <g id="line2d_60">
    <path d="M 1720.236598 287.65 
L 1731.417303 287.65 
L 1732.162683 223.075574 
L 1732.908063 201.114771 
L 1733.653444 183.709923 
L 1735.144204 179.921376 
L 1736.634965 176.872062 
L 1738.125726 174.417357 
L 1739.616486 172.439375 
L 1741.107247 170.846027 
L 1742.598008 169.563141 
L 1744.088768 168.528856 
L 1745.579529 167.693804 
L 1747.81567 166.733036 
L 1749.306431 167.721215 
L 1750.797191 169.645611 
L 1751.542572 171.432592 
L 1753.033332 189.032202 
L 1754.524093 203.909368 
L 1756.014854 216.511727 
L 1757.505614 227.484843 
L 1758.996375 236.810609 
L 1760.487136 244.409892 
L 1761.232516 250.717421 
L 1761.977896 255.530122 
L 1763.468657 269.402185 
L 1767.940939 202.62796 
L 1768.686319 192.2164 
L 1770.17708 175.483548 
L 1770.92246 173.739838 
L 1771.667841 171.58668 
L 1772.413221 171.979166 
L 1773.158601 171.268127 
L 1774.649362 171.050703 
L 1775.394742 170.589844 
L 1776.140123 170.609125 
L 1776.885503 170.183032 
L 1777.630883 170.14868 
L 1779.121644 169.690338 
L 1779.867024 169.611308 
L 1781.357785 169.251122 
L 1783.593926 168.881769 
L 1784.339306 168.846593 
L 1785.830067 168.545601 
L 1786.575447 168.744823 
L 1787.320828 168.140499 
L 1788.066208 168.558868 
L 1788.811588 168.333882 
L 1791.047729 168.360779 
L 1791.79311 168.167536 
L 1792.53849 168.131593 
L 1793.28387 168.614303 
L 1794.029251 166.449288 
L 1794.774631 173.342186 
L 1795.520011 167.033141 
L 1796.265392 176.541289 
L 1797.010772 166.507236 
L 1798.501533 184.843247 
L 1799.992293 200.332755 
L 1801.483054 213.437959 
L 1802.973815 224.546 
L 1804.464575 233.953996 
L 1805.209956 238.126963 
L 1805.955336 249.76373 
L 1806.700716 263.143697 
L 1808.191477 234.329827 
L 1809.682238 212.463386 
L 1811.918379 184.050863 
L 1812.663759 179.933382 
L 1814.15452 196.868286 
L 1815.64528 211.072006 
L 1817.136041 222.996457 
L 1818.626802 233.01692 
L 1820.117562 241.445333 
L 1821.608323 248.541227 
L 1823.099084 254.520743 
L 1824.589844 259.564054 
L 1826.080605 263.821501 
L 1827.571366 267.418656 
L 1829.062126 270.460499 
L 1830.552887 273.034886 
L 1832.043648 275.215414 
L 1833.534408 277.063792 
L 1835.025169 278.63181 
L 1836.51593 279.96298 
L 1838.752071 281.59407 
L 1839.497451 282.055334 
L 1840.242831 238.765937 
L 1840.988212 220.660695 
L 1842.478972 192.418983 
L 1843.224353 181.071514 
L 1843.969733 179.152032 
L 1845.460494 176.488212 
L 1846.951254 174.311511 
L 1848.442015 172.529348 
L 1849.932776 171.066742 
L 1851.423536 169.866373 
L 1852.914297 168.880087 
L 1855.150438 167.718686 
L 1857.386579 166.847819 
L 1858.87734 166.3961 
L 1859.62272 167.611843 
L 1861.113481 185.802188 
L 1862.604241 201.171732 
L 1863.349622 207.947476 
L 1864.095002 228.045815 
L 1864.840382 241.437619 
L 1865.585763 251.195355 
L 1866.331143 235.363081 
L 1868.567284 199.673229 
L 1870.058045 181.673212 
L 1871.548805 167.288076 
L 1872.294186 164.605689 
L 1879.002609 164.366938 
L 1880.493369 164.343186 
L 1880.493369 164.343186 
" clip-path="url(#pdabf3fd876)" style="fill: none; stroke: #000000; stroke-width: 5; stroke-linecap: square"/>
   </g>
   <g id="line2d_61">
    <path d="M 1720.236598 287.65 
L 2130.195781 287.65 
" clip-path="url(#pdabf3fd876)" style="fill: none; stroke: #000000; stroke-width: 5; stroke-linecap: square"/>
   </g>
   <g id="line2d_62">
    <path d="M 1720.236598 170.928935 
L 1721.727358 169.615269 
L 1723.218119 168.522828 
L 1725.45426 167.21709 
L 1727.690401 166.222689 
L 1729.926542 165.463496 
L 1732.908063 164.720628 
L 1735.889585 164.198417 
L 1739.616486 163.75594 
L 1744.834149 163.383041 
L 1752.287952 163.118967 
L 1764.214037 162.967978 
L 1791.79311 162.9132 
L 1812.663759 162.910368 
L 1813.409139 177.68764 
L 1814.15452 195.934738 
L 1814.8999 189.197808 
L 1815.64528 187.212625 
L 1817.136041 182.544555 
L 1818.626802 178.781218 
L 1820.117562 175.746073 
L 1821.608323 173.297203 
L 1823.099084 171.320497 
L 1824.589844 169.72418 
L 1826.080605 168.434425 
L 1827.571366 167.391825 
L 1829.062126 166.548565 
L 1831.298267 165.57531 
L 1833.534408 164.865827 
L 1836.51593 164.208299 
L 1837.26131 183.426173 
L 1838.00669 197.332628 
L 1838.752071 187.671499 
L 1839.497451 187.46148 
L 1840.988212 182.756033 
L 1842.478972 178.961027 
L 1843.969733 175.899033 
L 1845.460494 173.427385 
L 1846.951254 171.431342 
L 1848.442015 169.818602 
L 1849.932776 168.51489 
L 1851.423536 167.460422 
L 1852.914297 166.607065 
L 1855.150438 165.621412 
L 1857.386579 164.902185 
L 1860.3681 164.234815 
L 1863.349622 163.794249 
L 1867.821904 163.395733 
L 1873.784946 163.131763 
L 1880.493369 163.003778 
L 1880.493369 163.003778 
" clip-path="url(#pdabf3fd876)" style="fill: none; stroke-dasharray: 22.2,9.6; stroke-dashoffset: 0; stroke: #800080; stroke-width: 6"/>
   </g>
   <g id="line2d_63">
    <path clip-path="url(#pdabf3fd876)" style="fill: none; stroke-dasharray: 11.1,4.8; stroke-dashoffset: 0; stroke: #800080; stroke-width: 3"/>
   </g>
   <g id="line2d_64">
    <path d="M 1720.236598 75.592 
L 2130.195781 75.592 
" clip-path="url(#pdabf3fd876)" style="fill: none; stroke-dasharray: 5,8.25; stroke-dashoffset: 0; stroke: #800080; stroke-opacity: 0.5; stroke-width: 5"/>
   </g>
   <g id="patch_14">
    <path d="M 1720.236598 287.65 
L 1720.236598 38.17 
" style="fill: none; stroke: #000000; stroke-width: 0.8; stroke-linejoin: miter; stroke-linecap: square"/>
   </g>
   <g id="patch_15">
    <path d="M 1720.236598 287.65 
L 2130.195781 287.65 
" style="fill: none; stroke: #000000; stroke-width: 0.8; stroke-linejoin: miter; stroke-linecap: square"/>
   </g>
   <g id="text_53">
    <!-- SAFE-CNS -->
    <g transform="translate(1845.428689 31.515) scale(0.32 -0.32)">
     <defs>
      <path id="DejaVuSans-43" d="M 4122 4306 
L 4122 3641 
Q 3803 3938 3442 4084 
Q 3081 4231 2675 4231 
Q 1875 4231 1450 3742 
Q 1025 3253 1025 2328 
Q 1025 1406 1450 917 
Q 1875 428 2675 428 
Q 3081 428 3442 575 
Q 3803 722 4122 1019 
L 4122 359 
Q 3791 134 3420 21 
Q 3050 -91 2638 -91 
Q 1578 -91 968 557 
Q 359 1206 359 2328 
Q 359 3453 968 4101 
Q 1578 4750 2638 4750 
Q 3056 4750 3426 4639 
Q 3797 4528 4122 4306 
z
" transform="scale(0.015625)"/>
     </defs>
     <use xlink:href="#DejaVuSans-53"/>
     <use xlink:href="#DejaVuSans-41" x="65.351562"/>
     <use xlink:href="#DejaVuSans-46" x="133.759766"/>
     <use xlink:href="#DejaVuSans-45" x="191.279297"/>
     <use xlink:href="#DejaVuSans-2d" x="254.462891"/>
     <use xlink:href="#DejaVuSans-43" x="290.546875"/>
     <use xlink:href="#DejaVuSans-4e" x="360.371094"/>
     <use xlink:href="#DejaVuSans-53" x="435.175781"/>
    </g>
   </g>
   <g id="legend_3">
    <g id="patch_16">
     <path d="M 1981.558281 276.65 
L 2114.795781 276.65 
Q 2119.195781 276.65 2119.195781 272.25 
L 2119.195781 242.158125 
Q 2119.195781 237.758125 2114.795781 237.758125 
L 1981.558281 237.758125 
Q 1977.158281 237.758125 1977.158281 242.158125 
L 1977.158281 272.25 
Q 1977.158281 276.65 1981.558281 276.65 
z
" style="fill: #ffffff; opacity: 0.2; stroke: #cccccc; stroke-linejoin: miter"/>
    </g>
    <g id="line2d_65">
     <path d="M 1985.958281 255.574688 
L 2007.958281 255.574688 
L 2029.958281 255.574688 
" style="fill: none; stroke: #000000; stroke-width: 5; stroke-linecap: square"/>
    </g>
    <g id="text_54">
     <!-- Y-axis -->
     <g transform="translate(2047.558281 263.274688) scale(0.22 -0.22)">
      <use xlink:href="#DejaVuSans-59"/>
      <use xlink:href="#DejaVuSans-2d" x="49.208984"/>
      <use xlink:href="#DejaVuSans-61" x="85.292969"/>
      <use xlink:href="#DejaVuSans-78" x="146.572266"/>
      <use xlink:href="#DejaVuSans-69" x="205.751953"/>
      <use xlink:href="#DejaVuSans-73" x="233.535156"/>
     </g>
    </g>
   </g>
  </g>
 </g>
 <defs>
  <clipPath id="p3be7ac69cf">
   <rect x="121.395781" y="38.17" width="409.959184" height="249.48"/>
  </clipPath>
  <clipPath id="p61763cf515">
   <rect x="654.34272" y="38.17" width="409.959184" height="249.48"/>
  </clipPath>
  <clipPath id="p8ce2b8b631">
   <rect x="1187.289659" y="38.17" width="409.959184" height="249.48"/>
  </clipPath>
  <clipPath id="pdabf3fd876">
   <rect x="1720.236598" y="38.17" width="409.959184" height="249.48"/>
  </clipPath>
 </defs>
</svg>
