<?xml version="1.0" encoding="utf-8" standalone="no"?>
<!DOCTYPE svg PUBLIC "-//W3C//DTD SVG 1.1//EN"
  "http://www.w3.org/Graphics/SVG/1.1/DTD/svg11.dtd">
<svg xmlns:xlink="http://www.w3.org/1999/xlink" width="2137.395781pt" height="361.015312pt" viewBox="0 0 2137.395781 361.015312" xmlns="http://www.w3.org/2000/svg" version="1.1">
 <metadata>
  <rdf:RDF xmlns:dc="http://purl.org/dc/elements/1.1/" xmlns:cc="http://creativecommons.org/ns#" xmlns:rdf="http://www.w3.org/1999/02/22-rdf-syntax-ns#">
   <cc:Work>
    <dc:type rdf:resource="http://purl.org/dc/dcmitype/StillImage"/>
    <dc:date>2026-01-23T13:53:33.651126</dc:date>
    <dc:format>image/svg+xml</dc:format>
    <dc:creator>
     <cc:Agent>
      <dc:title>Matplotlib v3.9.0, https://matplotlib.org/</dc:title>
     </cc:Agent>
    </dc:creator>
   </cc:Work>
  </rdf:RDF>
 </metadata>
 <defs>
  <style type="text/css">*{stroke-linejoin: round; stroke-linecap: butt}</style>
 </defs>
 <g id="figure_1">
  <g id="patch_1">
   <path d="M 0 361.015312 
L 2137.395781 361.015312 
L 2137.395781 0 
L 0 0 
z
" style="fill: #ffffff"/>
  </g>
  <g id="axes_1">
   <g id="patch_2">
    <path d="M 121.395781 287.65 
L 531.354965 287.65 
L 531.354965 38.17 
L 121.395781 38.17 
z
" style="fill: #ffffff"/>
   </g>
   <g id="PolyCollection_1">
    <defs>
     <path id="ma30fc2645a" d="M 121.395781 -198.105312 
L 121.395781 -198.105312 
L 122.2157 -198.105312 
L 123.035618 -198.105312 
L 123.855536 -198.105312 
L 124.675455 -198.105312 
L 125.495373 -198.105312 
L 126.315291 -198.105312 
L 127.13521 -198.105312 
L 127.955128 -198.105312 
L 128.775047 -198.105312 
L 129.594965 -198.105312 
L 130.414883 -198.105312 
L 131.234802 -198.105312 
L 132.05472 -198.105312 
L 132.874638 -198.105312 
L 133.694557 -198.105312 
L 134.514475 -198.105312 
L 135.334393 -198.105312 
L 136.154312 -198.105312 
L 136.97423 -198.105312 
L 137.794149 -198.105312 
L 138.614067 -198.105312 
L 139.433985 -198.105312 
L 140.253904 -198.105312 
L 141.073822 -198.105312 
L 141.89374 -198.105312 
L 142.713659 -198.105312 
L 143.533577 -198.105312 
L 144.353496 -198.105312 
L 145.173414 -198.105312 
L 145.993332 -198.105312 
L 146.813251 -198.105312 
L 147.633169 -198.105312 
L 148.453087 -198.105312 
L 149.273006 -198.105312 
L 150.092924 -198.105312 
L 150.912842 -198.105312 
L 151.732761 -198.105312 
L 152.552679 -198.105312 
L 153.372598 -198.105312 
L 154.192516 -198.105312 
L 155.012434 -198.105312 
L 155.832353 -198.105312 
L 156.652271 -198.105312 
L 157.472189 -198.105312 
L 158.292108 -198.105312 
L 159.112026 -198.105312 
L 159.931945 -198.105312 
L 160.751863 -198.105312 
L 161.571781 -198.105312 
L 162.3917 -198.105312 
L 163.211618 -198.105312 
L 164.031536 -198.105312 
L 164.851455 -198.105312 
L 165.671373 -198.105312 
L 166.491291 -198.105312 
L 167.31121 -198.105312 
L 168.131128 -198.105312 
L 168.951047 -198.105312 
L 169.770965 -198.105312 
L 170.590883 -198.105312 
L 171.410802 -198.105312 
L 172.23072 -198.105312 
L 173.050638 -198.105312 
L 173.870557 -198.105312 
L 174.690475 -198.105312 
L 175.510393 -198.105312 
L 176.330312 -198.105312 
L 177.15023 -198.105312 
L 177.970149 -198.105312 
L 178.790067 -198.105312 
L 179.609985 -198.105312 
L 180.429904 -198.105312 
L 181.249822 -198.105312 
L 182.06974 -198.105312 
L 182.889659 -198.105312 
L 183.709577 -198.105312 
L 184.529496 -198.105312 
L 185.349414 -198.105312 
L 186.169332 -198.105312 
L 186.989251 -198.105312 
L 187.809169 -198.105312 
L 188.629087 -198.105312 
L 189.449006 -198.105312 
L 190.268924 -198.105312 
L 191.088842 -198.105312 
L 191.908761 -198.105312 
L 192.728679 -198.105312 
L 193.548598 -198.105312 
L 194.368516 -198.105312 
L 195.188434 -198.105312 
L 196.008353 -198.105312 
L 196.828271 -198.105312 
L 197.648189 -198.105312 
L 198.468108 -198.105312 
L 199.288026 -198.105312 
L 200.107945 -198.105312 
L 200.927863 -198.105312 
L 201.747781 -198.105312 
L 202.5677 -198.105312 
L 203.387618 -198.105312 
L 204.207536 -198.105312 
L 205.027455 -198.105312 
L 205.847373 -198.105312 
L 206.667291 -198.105312 
L 207.48721 -198.105312 
L 208.307128 -198.105312 
L 209.127047 -198.105312 
L 209.946965 -198.105312 
L 210.766883 -198.105312 
L 211.586802 -198.105312 
L 212.40672 -198.105312 
L 213.226638 -198.105312 
L 214.046557 -198.105312 
L 214.866475 -198.105312 
L 215.686393 -198.105312 
L 216.506312 -198.105312 
L 217.32623 -198.105312 
L 218.146149 -198.105312 
L 218.966067 -198.105312 
L 219.785985 -198.105312 
L 220.605904 -198.105312 
L 221.425822 -198.105312 
L 222.24574 -198.105312 
L 223.065659 -198.105312 
L 223.885577 -198.105312 
L 224.705496 -198.105312 
L 225.525414 -198.105312 
L 226.345332 -198.105312 
L 227.165251 -198.105312 
L 227.985169 -198.105312 
L 228.805087 -198.105312 
L 229.625006 -198.105312 
L 230.444924 -198.105312 
L 231.264842 -198.105312 
L 232.084761 -198.105312 
L 232.904679 -198.105312 
L 233.724598 -198.105312 
L 234.544516 -198.105312 
L 235.364434 -198.105312 
L 236.184353 -198.105312 
L 237.004271 -198.105312 
L 237.824189 -198.105312 
L 238.644108 -198.105312 
L 239.464026 -198.105312 
L 240.283945 -198.105312 
L 241.103863 -198.105312 
L 241.923781 -198.105312 
L 242.7437 -198.105312 
L 243.563618 -198.105312 
L 244.383536 -198.105312 
L 245.203455 -198.105312 
L 246.023373 -198.105312 
L 246.843291 -198.105312 
L 247.66321 -198.105312 
L 248.483128 -198.105312 
L 249.303047 -198.105312 
L 250.122965 -198.105312 
L 250.942883 -198.105312 
L 251.762802 -198.105312 
L 252.58272 -198.105312 
L 253.402638 -198.105312 
L 254.222557 -198.105312 
L 255.042475 -198.105312 
L 255.862393 -198.105312 
L 256.682312 -198.105312 
L 257.50223 -198.105312 
L 258.322149 -198.105312 
L 259.142067 -198.105312 
L 259.961985 -198.105312 
L 260.781904 -198.105312 
L 261.601822 -198.105312 
L 262.42174 -198.105312 
L 263.241659 -198.105312 
L 264.061577 -198.105312 
L 264.881496 -198.105312 
L 265.701414 -198.105312 
L 266.521332 -198.105312 
L 267.341251 -198.105312 
L 268.161169 -198.105312 
L 268.981087 -198.105312 
L 269.801006 -198.105312 
L 270.620924 -198.105312 
L 271.440842 -198.105312 
L 272.260761 -198.105312 
L 273.080679 -198.105312 
L 273.900598 -198.105312 
L 274.720516 -198.105312 
L 275.540434 -198.105312 
L 276.360353 -198.105312 
L 277.180271 -198.105312 
L 278.000189 -198.105312 
L 278.820108 -198.105312 
L 279.640026 -198.105312 
L 280.459945 -198.105312 
L 281.279863 -198.105312 
L 282.099781 -198.105312 
L 282.9197 -198.105312 
L 283.739618 -198.105312 
L 284.559536 -198.105312 
L 285.379455 -198.105312 
L 286.199373 -198.105312 
L 287.019291 -198.105312 
L 287.83921 -198.105312 
L 288.659128 -198.105312 
L 289.479047 -198.105312 
L 290.298965 -198.105312 
L 291.118883 -198.105312 
L 291.938802 -198.105312 
L 292.75872 -198.105312 
L 293.578638 -198.105312 
L 294.398557 -198.105312 
L 295.218475 -198.105312 
L 296.038393 -198.105312 
L 296.858312 -198.105312 
L 297.67823 -198.105312 
L 298.498149 -198.105312 
L 299.318067 -198.105312 
L 300.137985 -198.105312 
L 300.957904 -198.105312 
L 300.957904 -198.105312 
L 300.957904 -198.105312 
L 300.137985 -190.171215 
L 299.318067 -181.781976 
L 298.498149 -167.304383 
L 297.67823 -152.430658 
L 296.858312 -154.466707 
L 296.038393 -158.980292 
L 295.218475 -163.501498 
L 294.398557 -168.031112 
L 293.578638 -172.56998 
L 292.75872 -177.119024 
L 291.938802 -181.679258 
L 291.118883 -186.251798 
L 290.298965 -190.837871 
L 289.479047 -195.438827 
L 288.659128 -200.056151 
L 287.83921 -204.691474 
L 287.019291 -209.347212 
L 286.199373 -215.991698 
L 285.379455 -223.348203 
L 284.559536 -230.801837 
L 283.739618 -238.36253 
L 282.9197 -246.066311 
L 282.099781 -253.943525 
L 281.279863 -262.047456 
L 280.459945 -270.444457 
L 279.640026 -280.456285 
L 278.820108 -291.265364 
L 278.000189 -301.03699 
L 277.180271 -308.554668 
L 276.360353 -312.403045 
L 275.540434 -312.405628 
L 274.720516 -312.40545 
L 273.900598 -312.397216 
L 273.080679 -308.403445 
L 272.260761 -303.876676 
L 271.440842 -299.340856 
L 270.620924 -294.795054 
L 269.801006 -290.238264 
L 268.981087 -285.669374 
L 268.161169 -281.087162 
L 267.341251 -276.490278 
L 266.521332 -271.877239 
L 265.701414 -267.246405 
L 264.881496 -262.59598 
L 264.061577 -257.923972 
L 263.241659 -253.228204 
L 262.42174 -246.536051 
L 261.601822 -238.120242 
L 260.781904 -229.394689 
L 259.961985 -220.321673 
L 259.142067 -210.066676 
L 258.322149 -197.656558 
L 257.50223 -184.212874 
L 256.682312 -174.15451 
L 255.862393 -174.154408 
L 255.042475 -177.884492 
L 254.222557 -198.105312 
L 253.402638 -198.105312 
L 252.58272 -198.105312 
L 251.762802 -198.105312 
L 250.942883 -198.105312 
L 250.122965 -198.105312 
L 249.303047 -198.105312 
L 248.483128 -198.105312 
L 247.66321 -198.105312 
L 246.843291 -198.105312 
L 246.023373 -198.105312 
L 245.203455 -198.105312 
L 244.383536 -198.105312 
L 243.563618 -198.105312 
L 242.7437 -198.105312 
L 241.923781 -198.105312 
L 241.103863 -198.105312 
L 240.283945 -198.105312 
L 239.464026 -198.105312 
L 238.644108 -198.105312 
L 237.824189 -198.105312 
L 237.004271 -198.105312 
L 236.184353 -198.105312 
L 235.364434 -198.105312 
L 234.544516 -198.105312 
L 233.724598 -198.105312 
L 232.904679 -198.105312 
L 232.084761 -198.105312 
L 231.264842 -198.105312 
L 230.444924 -198.105312 
L 229.625006 -198.105312 
L 228.805087 -198.105312 
L 227.985169 -198.105312 
L 227.165251 -198.105312 
L 226.345332 -198.105312 
L 225.525414 -198.105312 
L 224.705496 -198.105312 
L 223.885577 -198.110541 
L 223.065659 -200.12203 
L 222.24574 -204.620681 
L 221.425822 -209.125369 
L 220.605904 -213.636815 
L 219.785985 -218.155672 
L 218.966067 -222.682698 
L 218.146149 -227.218702 
L 217.32623 -231.764582 
L 216.506312 -236.488138 
L 215.686393 -245.233452 
L 214.866475 -254.227122 
L 214.046557 -263.495232 
L 213.226638 -273.112492 
L 212.40672 -283.180692 
L 211.586802 -301.132845 
L 210.766883 -309.244971 
L 209.946965 -314.542098 
L 209.127047 -314.624257 
L 208.307128 -314.641491 
L 207.48721 -314.652789 
L 206.667291 -314.659729 
L 205.847373 -314.663712 
L 205.027455 -314.665023 
L 204.207536 -314.665065 
L 203.387618 -314.66517 
L 202.5677 -314.665167 
L 201.747781 -314.665054 
L 200.927863 -314.839199 
L 200.107945 -314.673699 
L 199.288026 -314.839117 
L 198.468108 -314.83892 
L 197.648189 -314.838953 
L 196.828271 -314.758761 
L 196.008353 -314.838781 
L 195.188434 -314.838498 
L 194.368516 -314.838533 
L 193.548598 -314.551493 
L 192.728679 -314.838235 
L 191.908761 -314.43998 
L 191.088842 -314.837884 
L 190.268924 -314.455542 
L 189.449006 -314.133958 
L 188.629087 -309.686498 
L 187.809169 -305.237896 
L 186.989251 -300.788278 
L 186.169332 -296.337352 
L 185.349414 -291.885071 
L 184.529496 -287.431267 
L 183.709577 -282.975741 
L 182.889659 -278.518413 
L 182.06974 -274.059031 
L 181.249822 -269.597405 
L 180.429904 -265.133334 
L 179.609985 -260.666552 
L 178.790067 -256.196808 
L 177.970149 -251.723807 
L 177.15023 -247.247166 
L 176.330312 -242.766657 
L 175.510393 -238.281744 
L 174.690475 -233.792072 
L 173.870557 -229.297151 
L 173.050638 -224.796451 
L 172.23072 -220.289412 
L 171.410802 -215.775373 
L 170.590883 -211.253666 
L 169.770965 -206.723503 
L 168.951047 -202.184044 
L 168.131128 -197.634375 
L 167.31121 -193.073449 
L 166.491291 -188.500188 
L 165.671373 -183.9133 
L 164.851455 -179.311477 
L 164.031536 -174.693139 
L 163.211618 -170.047876 
L 162.3917 -164.775236 
L 161.571781 -155.412386 
L 160.751863 -145.792898 
L 159.931945 -135.853654 
L 159.112026 -125.509018 
L 158.292108 -114.642389 
L 157.472189 -96.876726 
L 156.652271 -81.53255 
L 155.832353 -81.505192 
L 155.012434 -81.493952 
L 154.192516 -81.46466 
L 153.372598 -81.460647 
L 152.552679 -81.436536 
L 151.732761 -81.436321 
L 150.912842 -81.421515 
L 150.092924 -81.417492 
L 149.273006 -81.449408 
L 148.453087 -81.386563 
L 147.633169 -81.371032 
L 146.813251 -85.810256 
L 145.993332 -90.333031 
L 145.173414 -94.867726 
L 144.353496 -99.412594 
L 143.533577 -103.968718 
L 142.713659 -108.537287 
L 141.89374 -113.119611 
L 141.073822 -117.717125 
L 140.253904 -122.331445 
L 139.433985 -126.964328 
L 138.614067 -131.617739 
L 137.794149 -136.293851 
L 136.97423 -140.995055 
L 136.154312 -146.46879 
L 135.334393 -158.305018 
L 134.514475 -173.529673 
L 133.694557 -198.105312 
L 132.874638 -198.105312 
L 132.05472 -198.105312 
L 131.234802 -198.105312 
L 130.414883 -198.105312 
L 129.594965 -198.105312 
L 128.775047 -198.105312 
L 127.955128 -198.105312 
L 127.13521 -198.105312 
L 126.315291 -198.105312 
L 125.495373 -198.105312 
L 124.675455 -198.105312 
L 123.855536 -198.105312 
L 123.035618 -198.105312 
L 122.2157 -198.105312 
L 121.395781 -198.105312 
z
" style="stroke: #0173b2; stroke-opacity: 0.75"/>
    </defs>
    <g clip-path="url(#pca25e49d12)">
     <use xlink:href="#ma30fc2645a" x="0" y="361.015312" style="fill: #0173b2; fill-opacity: 0.75; stroke: #0173b2; stroke-opacity: 0.75"/>
    </g>
   </g>
   <g id="matplotlib.axis_1">
    <g id="xtick_1">
     <g id="line2d_1">
      <defs>
       <path id="m52b6a3ec54" d="M 0 0 
L 0 3.5 
" style="stroke: #000000; stroke-width: 0.8"/>
      </defs>
      <g>
       <use xlink:href="#m52b6a3ec54" x="121.395781" y="287.65" style="stroke: #000000; stroke-width: 0.8"/>
      </g>
     </g>
     <g id="text_1">
      <!-- 0 -->
      <g transform="translate(112.806406 315.165781) scale(0.27 -0.27)">
       <defs>
        <path id="DejaVuSans-30" d="M 2034 4250 
Q 1547 4250 1301 3770 
Q 1056 3291 1056 2328 
Q 1056 1369 1301 889 
Q 1547 409 2034 409 
Q 2525 409 2770 889 
Q 3016 1369 3016 2328 
Q 3016 3291 2770 3770 
Q 2525 4250 2034 4250 
z
M 2034 4750 
Q 2819 4750 3233 4129 
Q 3647 3509 3647 2328 
Q 3647 1150 3233 529 
Q 2819 -91 2034 -91 
Q 1250 -91 836 529 
Q 422 1150 422 2328 
Q 422 3509 836 4129 
Q 1250 4750 2034 4750 
z
" transform="scale(0.015625)"/>
       </defs>
       <use xlink:href="#DejaVuSans-30"/>
      </g>
     </g>
    </g>
    <g id="xtick_2">
     <g id="line2d_2">
      <g>
       <use xlink:href="#m52b6a3ec54" x="223.885577" y="287.65" style="stroke: #000000; stroke-width: 0.8"/>
      </g>
     </g>
     <g id="text_2">
      <!-- 25 -->
      <g transform="translate(206.706827 315.165781) scale(0.27 -0.27)">
       <defs>
        <path id="DejaVuSans-32" d="M 1228 531 
L 3431 531 
L 3431 0 
L 469 0 
L 469 531 
Q 828 903 1448 1529 
Q 2069 2156 2228 2338 
Q 2531 2678 2651 2914 
Q 2772 3150 2772 3378 
Q 2772 3750 2511 3984 
Q 2250 4219 1831 4219 
Q 1534 4219 1204 4116 
Q 875 4013 500 3803 
L 500 4441 
Q 881 4594 1212 4672 
Q 1544 4750 1819 4750 
Q 2544 4750 2975 4387 
Q 3406 4025 3406 3419 
Q 3406 3131 3298 2873 
Q 3191 2616 2906 2266 
Q 2828 2175 2409 1742 
Q 1991 1309 1228 531 
z
" transform="scale(0.015625)"/>
        <path id="DejaVuSans-35" d="M 691 4666 
L 3169 4666 
L 3169 4134 
L 1269 4134 
L 1269 2991 
Q 1406 3038 1543 3061 
Q 1681 3084 1819 3084 
Q 2600 3084 3056 2656 
Q 3513 2228 3513 1497 
Q 3513 744 3044 326 
Q 2575 -91 1722 -91 
Q 1428 -91 1123 -41 
Q 819 9 494 109 
L 494 744 
Q 775 591 1075 516 
Q 1375 441 1709 441 
Q 2250 441 2565 725 
Q 2881 1009 2881 1497 
Q 2881 1984 2565 2268 
Q 2250 2553 1709 2553 
Q 1456 2553 1204 2497 
Q 953 2441 691 2322 
L 691 4666 
z
" transform="scale(0.015625)"/>
       </defs>
       <use xlink:href="#DejaVuSans-32"/>
       <use xlink:href="#DejaVuSans-35" x="63.623047"/>
      </g>
     </g>
    </g>
    <g id="xtick_3">
     <g id="line2d_3">
      <g>
       <use xlink:href="#m52b6a3ec54" x="326.375373" y="287.65" style="stroke: #000000; stroke-width: 0.8"/>
      </g>
     </g>
     <g id="text_3">
      <!-- 50 -->
      <g transform="translate(309.196623 315.165781) scale(0.27 -0.27)">
       <use xlink:href="#DejaVuSans-35"/>
       <use xlink:href="#DejaVuSans-30" x="63.623047"/>
      </g>
     </g>
    </g>
    <g id="xtick_4">
     <g id="line2d_4">
      <g>
       <use xlink:href="#m52b6a3ec54" x="428.865169" y="287.65" style="stroke: #000000; stroke-width: 0.8"/>
      </g>
     </g>
     <g id="text_4">
      <!-- 75 -->
      <g transform="translate(411.686419 315.165781) scale(0.27 -0.27)">
       <defs>
        <path id="DejaVuSans-37" d="M 525 4666 
L 3525 4666 
L 3525 4397 
L 1831 0 
L 1172 0 
L 2766 4134 
L 525 4134 
L 525 4666 
z
" transform="scale(0.015625)"/>
       </defs>
       <use xlink:href="#DejaVuSans-37"/>
       <use xlink:href="#DejaVuSans-35" x="63.623047"/>
      </g>
     </g>
    </g>
    <g id="text_5">
     <!-- Time [ms] -->
     <g transform="translate(250.777717 347.57625) scale(0.3 -0.3)">
      <defs>
       <path id="DejaVuSans-54" d="M -19 4666 
L 3928 4666 
L 3928 4134 
L 2272 4134 
L 2272 0 
L 1638 0 
L 1638 4134 
L -19 4134 
L -19 4666 
z
" transform="scale(0.015625)"/>
       <path id="DejaVuSans-69" d="M 603 3500 
L 1178 3500 
L 1178 0 
L 603 0 
L 603 3500 
z
M 603 4863 
L 1178 4863 
L 1178 4134 
L 603 4134 
L 603 4863 
z
" transform="scale(0.015625)"/>
       <path id="DejaVuSans-6d" d="M 3328 2828 
Q 3544 3216 3844 3400 
Q 4144 3584 4550 3584 
Q 5097 3584 5394 3201 
Q 5691 2819 5691 2113 
L 5691 0 
L 5113 0 
L 5113 2094 
Q 5113 2597 4934 2840 
Q 4756 3084 4391 3084 
Q 3944 3084 3684 2787 
Q 3425 2491 3425 1978 
L 3425 0 
L 2847 0 
L 2847 2094 
Q 2847 2600 2669 2842 
Q 2491 3084 2119 3084 
Q 1678 3084 1418 2786 
Q 1159 2488 1159 1978 
L 1159 0 
L 581 0 
L 581 3500 
L 1159 3500 
L 1159 2956 
Q 1356 3278 1631 3431 
Q 1906 3584 2284 3584 
Q 2666 3584 2933 3390 
Q 3200 3197 3328 2828 
z
" transform="scale(0.015625)"/>
       <path id="DejaVuSans-65" d="M 3597 1894 
L 3597 1613 
L 953 1613 
Q 991 1019 1311 708 
Q 1631 397 2203 397 
Q 2534 397 2845 478 
Q 3156 559 3463 722 
L 3463 178 
Q 3153 47 2828 -22 
Q 2503 -91 2169 -91 
Q 1331 -91 842 396 
Q 353 884 353 1716 
Q 353 2575 817 3079 
Q 1281 3584 2069 3584 
Q 2775 3584 3186 3129 
Q 3597 2675 3597 1894 
z
M 3022 2063 
Q 3016 2534 2758 2815 
Q 2500 3097 2075 3097 
Q 1594 3097 1305 2825 
Q 1016 2553 972 2059 
L 3022 2063 
z
" transform="scale(0.015625)"/>
       <path id="DejaVuSans-20" transform="scale(0.015625)"/>
       <path id="DejaVuSans-5b" d="M 550 4863 
L 1875 4863 
L 1875 4416 
L 1125 4416 
L 1125 -397 
L 1875 -397 
L 1875 -844 
L 550 -844 
L 550 4863 
z
" transform="scale(0.015625)"/>
       <path id="DejaVuSans-73" d="M 2834 3397 
L 2834 2853 
Q 2591 2978 2328 3040 
Q 2066 3103 1784 3103 
Q 1356 3103 1142 2972 
Q 928 2841 928 2578 
Q 928 2378 1081 2264 
Q 1234 2150 1697 2047 
L 1894 2003 
Q 2506 1872 2764 1633 
Q 3022 1394 3022 966 
Q 3022 478 2636 193 
Q 2250 -91 1575 -91 
Q 1294 -91 989 -36 
Q 684 19 347 128 
L 347 722 
Q 666 556 975 473 
Q 1284 391 1588 391 
Q 1994 391 2212 530 
Q 2431 669 2431 922 
Q 2431 1156 2273 1281 
Q 2116 1406 1581 1522 
L 1381 1569 
Q 847 1681 609 1914 
Q 372 2147 372 2553 
Q 372 3047 722 3315 
Q 1072 3584 1716 3584 
Q 2034 3584 2315 3537 
Q 2597 3491 2834 3397 
z
" transform="scale(0.015625)"/>
       <path id="DejaVuSans-5d" d="M 1947 4863 
L 1947 -844 
L 622 -844 
L 622 -397 
L 1369 -397 
L 1369 4416 
L 622 4416 
L 622 4863 
L 1947 4863 
z
" transform="scale(0.015625)"/>
      </defs>
      <use xlink:href="#DejaVuSans-54"/>
      <use xlink:href="#DejaVuSans-69" x="57.958984"/>
      <use xlink:href="#DejaVuSans-6d" x="85.742188"/>
      <use xlink:href="#DejaVuSans-65" x="183.154297"/>
      <use xlink:href="#DejaVuSans-20" x="244.677734"/>
      <use xlink:href="#DejaVuSans-5b" x="276.464844"/>
      <use xlink:href="#DejaVuSans-6d" x="315.478516"/>
      <use xlink:href="#DejaVuSans-73" x="412.890625"/>
      <use xlink:href="#DejaVuSans-5d" x="464.990234"/>
     </g>
    </g>
   </g>
   <g id="matplotlib.axis_2">
    <g id="ytick_1">
     <g id="line2d_5">
      <defs>
       <path id="m220507cb07" d="M 0 0 
L -3.5 0 
" style="stroke: #000000; stroke-width: 0.8"/>
      </defs>
      <g>
       <use xlink:href="#m220507cb07" x="121.395781" y="287.029403" style="stroke: #000000; stroke-width: 0.8"/>
      </g>
     </g>
     <g id="text_6">
      <!-- −200 -->
      <g transform="translate(40.234375 297.287294) scale(0.27 -0.27)">
       <defs>
        <path id="DejaVuSans-2212" d="M 678 2272 
L 4684 2272 
L 4684 1741 
L 678 1741 
L 678 2272 
z
" transform="scale(0.015625)"/>
       </defs>
       <use xlink:href="#DejaVuSans-2212"/>
       <use xlink:href="#DejaVuSans-32" x="83.789062"/>
       <use xlink:href="#DejaVuSans-30" x="147.412109"/>
       <use xlink:href="#DejaVuSans-30" x="211.035156"/>
      </g>
     </g>
    </g>
    <g id="ytick_2">
     <g id="line2d_6">
      <g>
       <use xlink:href="#m220507cb07" x="121.395781" y="224.969701" style="stroke: #000000; stroke-width: 0.8"/>
      </g>
     </g>
     <g id="text_7">
      <!-- −100 -->
      <g transform="translate(40.234375 235.227592) scale(0.27 -0.27)">
       <defs>
        <path id="DejaVuSans-31" d="M 794 531 
L 1825 531 
L 1825 4091 
L 703 3866 
L 703 4441 
L 1819 4666 
L 2450 4666 
L 2450 531 
L 3481 531 
L 3481 0 
L 794 0 
L 794 531 
z
" transform="scale(0.015625)"/>
       </defs>
       <use xlink:href="#DejaVuSans-2212"/>
       <use xlink:href="#DejaVuSans-31" x="83.789062"/>
       <use xlink:href="#DejaVuSans-30" x="147.412109"/>
       <use xlink:href="#DejaVuSans-30" x="211.035156"/>
      </g>
     </g>
    </g>
    <g id="ytick_3">
     <g id="line2d_7">
      <g>
       <use xlink:href="#m220507cb07" x="121.395781" y="162.91" style="stroke: #000000; stroke-width: 0.8"/>
      </g>
     </g>
     <g id="text_8">
      <!-- 0 -->
      <g transform="translate(97.217031 173.167891) scale(0.27 -0.27)">
       <use xlink:href="#DejaVuSans-30"/>
      </g>
     </g>
    </g>
    <g id="ytick_4">
     <g id="line2d_8">
      <g>
       <use xlink:href="#m220507cb07" x="121.395781" y="100.850299" style="stroke: #000000; stroke-width: 0.8"/>
      </g>
     </g>
     <g id="text_9">
      <!-- 100 -->
      <g transform="translate(62.859531 111.108189) scale(0.27 -0.27)">
       <use xlink:href="#DejaVuSans-31"/>
       <use xlink:href="#DejaVuSans-30" x="63.623047"/>
       <use xlink:href="#DejaVuSans-30" x="127.246094"/>
      </g>
     </g>
    </g>
    <g id="ytick_5">
     <g id="line2d_9">
      <g>
       <use xlink:href="#m220507cb07" x="121.395781" y="38.790597" style="stroke: #000000; stroke-width: 0.8"/>
      </g>
     </g>
     <g id="text_10">
      <!-- 200 -->
      <g transform="translate(62.859531 49.048488) scale(0.27 -0.27)">
       <use xlink:href="#DejaVuSans-32"/>
       <use xlink:href="#DejaVuSans-30" x="63.623047"/>
       <use xlink:href="#DejaVuSans-30" x="127.246094"/>
      </g>
     </g>
    </g>
    <g id="text_11">
     <!-- mT/m -->
     <g transform="translate(29.995313 206.346719) rotate(-90) scale(0.3 -0.3)">
      <defs>
       <path id="DejaVuSans-2f" d="M 1625 4666 
L 2156 4666 
L 531 -594 
L 0 -594 
L 1625 4666 
z
" transform="scale(0.015625)"/>
      </defs>
      <use xlink:href="#DejaVuSans-6d"/>
      <use xlink:href="#DejaVuSans-54" x="97.412109"/>
      <use xlink:href="#DejaVuSans-2f" x="158.496094"/>
      <use xlink:href="#DejaVuSans-6d" x="192.1875"/>
     </g>
    </g>
   </g>
   <g id="line2d_10">
    <path d="M 121.395781 162.91 
L 531.354965 162.91 
" clip-path="url(#pca25e49d12)" style="fill: none; stroke: #d3d3d3; stroke-opacity: 0.8; stroke-width: 1.5; stroke-linecap: square"/>
   </g>
   <g id="line2d_11">
    <path d="M 121.395781 162.91 
L 133.694557 162.91 
L 134.514475 187.48564 
L 135.334393 202.710295 
L 136.154312 214.546523 
L 136.97423 220.020258 
L 143.533577 257.046594 
L 147.633169 279.64428 
L 156.652271 279.482763 
L 157.472189 264.138586 
L 158.292108 246.372924 
L 160.751863 215.222415 
L 162.3917 196.240077 
L 164.031536 186.322174 
L 172.23072 140.725901 
L 186.169332 64.67796 
L 189.449006 46.881354 
L 191.088842 46.177429 
L 191.908761 46.575333 
L 192.728679 46.177077 
L 193.548598 46.46382 
L 194.368516 46.17678 
L 199.288026 46.176195 
L 200.107945 46.341613 
L 200.927863 46.176114 
L 201.747781 46.350258 
L 209.127047 46.391056 
L 209.946965 46.473214 
L 210.766883 51.770342 
L 211.586802 59.882468 
L 212.40672 77.83462 
L 214.866475 106.788191 
L 216.506312 124.527174 
L 219.785985 142.859641 
L 223.065659 160.893283 
L 223.885577 162.904771 
L 241.923781 162.91 
L 254.222557 162.91 
L 255.042475 183.13082 
L 255.862393 186.860904 
L 256.682312 186.860803 
L 257.50223 176.802439 
L 259.142067 150.948637 
L 260.781904 131.620624 
L 262.42174 114.479262 
L 263.241659 107.787109 
L 269.801006 70.777048 
L 273.900598 48.618097 
L 276.360353 48.612267 
L 277.180271 52.460645 
L 278.000189 59.978322 
L 281.279863 98.967857 
L 283.739618 122.652783 
L 286.199373 145.023614 
L 287.019291 151.668101 
L 294.398557 192.984201 
L 296.858312 206.548606 
L 297.67823 208.584654 
L 299.318067 179.233337 
L 300.957904 162.91 
L 300.957904 162.91 
" clip-path="url(#pca25e49d12)" style="fill: none; stroke: #000000; stroke-width: 5; stroke-linecap: square"/>
   </g>
   <g id="line2d_12">
    <path d="M 300.957904 162.91 
L 303.048696 162.91 
L 303.991602 184.261831 
L 304.032598 183.33349 
L 305.959406 141.558169 
L 306.82032 141.558169 
L 308.788124 184.261831 
L 309.649038 184.261831 
L 311.616842 141.558169 
L 312.477757 141.558169 
L 314.445561 184.261831 
L 315.306475 184.261831 
L 317.274279 141.558169 
L 318.135193 141.558169 
L 320.102998 184.261831 
L 320.963912 184.261831 
L 322.931716 141.558169 
L 323.79263 141.558169 
L 325.760434 184.261831 
L 326.621349 184.261831 
L 328.589153 141.558169 
L 329.450067 141.558169 
L 331.417871 184.261831 
L 332.278785 184.261831 
L 334.246589 141.558169 
L 335.107504 141.558169 
L 337.075308 184.261831 
L 337.936222 184.261831 
L 339.904026 141.558169 
L 340.76494 141.558169 
L 342.732745 184.261831 
L 343.593659 184.261831 
L 345.561463 141.558169 
L 346.422377 141.558169 
L 348.390181 184.261831 
L 349.251096 184.261831 
L 351.2189 141.558169 
L 352.079814 141.558169 
L 354.047618 184.261831 
L 354.908532 184.261831 
L 356.876336 141.558169 
L 357.737251 141.558169 
L 359.705055 184.261831 
L 360.565969 184.261831 
L 362.533773 141.558169 
L 363.394687 141.558169 
L 365.362491 184.261831 
L 366.223406 184.261831 
L 368.19121 141.558169 
L 369.052124 141.558169 
L 371.019928 184.261831 
L 371.880842 184.261831 
L 373.848647 141.558169 
L 374.709561 141.558169 
L 376.677365 184.261831 
L 377.538279 184.261831 
L 379.506083 141.558169 
L 380.366998 141.558169 
L 382.334802 184.261831 
L 383.195716 184.261831 
L 385.16352 141.558169 
L 386.024434 141.558169 
L 387.992238 184.261831 
L 388.853153 184.261831 
L 390.820957 141.558169 
L 391.681871 141.558169 
L 393.649675 184.261831 
L 394.510589 184.261831 
L 396.478393 141.558169 
L 397.339308 141.558169 
L 399.307112 184.261831 
L 400.168026 184.261831 
L 402.13583 141.558169 
L 402.996745 141.558169 
L 404.964549 184.261831 
L 405.825463 184.261831 
L 407.793267 141.558169 
L 408.654181 141.558169 
L 410.621985 184.261831 
L 411.4829 184.261831 
L 413.450704 141.558169 
L 414.311618 141.558169 
L 416.279422 184.261831 
L 417.140336 184.261831 
L 419.10814 141.558169 
L 419.969055 141.558169 
L 421.936859 184.261831 
L 422.797773 184.261831 
L 424.765577 141.558169 
L 425.626491 141.558169 
L 427.594296 184.261831 
L 428.45521 184.261831 
L 430.423014 141.558169 
L 431.283928 141.558169 
L 433.251732 184.261831 
L 434.112647 184.261831 
L 436.080451 141.558169 
L 436.941365 141.558169 
L 438.909169 184.261831 
L 439.770083 184.261831 
L 441.737887 141.558169 
L 442.598802 141.558169 
L 444.566606 184.261831 
L 445.42752 184.261831 
L 447.395324 141.558169 
L 448.256238 141.558169 
L 450.224042 184.261831 
L 451.084957 184.261831 
L 453.052761 141.558169 
L 453.913675 141.558169 
L 455.881479 184.261831 
L 456.742393 184.261831 
L 458.710198 141.558169 
L 459.571112 141.558169 
L 460.555014 162.91 
L 460.555014 162.91 
" clip-path="url(#pca25e49d12)" style="fill: none; stroke: #000000; stroke-opacity: 0.7; stroke-width: 5; stroke-linecap: square"/>
   </g>
   <g id="line2d_13">
    <path d="M 357.261698 287.65 
L 357.261698 38.17 
" clip-path="url(#pca25e49d12)" style="fill: none; stroke-dasharray: 18.5,8; stroke-dashoffset: 0; stroke: #000000; stroke-width: 5"/>
   </g>
   <g id="line2d_14">
    <path d="M 121.395781 38.790597 
L 531.354965 38.790597 
" clip-path="url(#pca25e49d12)" style="fill: none; stroke-dasharray: 18.5,8; stroke-dashoffset: 0; stroke: #000000; stroke-opacity: 0.2; stroke-width: 5"/>
   </g>
   <g id="line2d_15">
    <path d="M 121.395781 287.029403 
L 531.354965 287.029403 
" clip-path="url(#pca25e49d12)" style="fill: none; stroke-dasharray: 18.5,8; stroke-dashoffset: 0; stroke: #000000; stroke-opacity: 0.2; stroke-width: 5"/>
   </g>
   <g id="line2d_16">
    <path d="M 121.395781 162.91 
L 531.354965 162.91 
" clip-path="url(#pca25e49d12)" style="fill: none; stroke: #000000; stroke-width: 5; stroke-linecap: square"/>
   </g>
   <g id="patch_3">
    <path d="M 121.395781 287.65 
L 121.395781 38.17 
" style="fill: none; stroke: #000000; stroke-width: 0.8; stroke-linejoin: miter; stroke-linecap: square"/>
   </g>
   <g id="patch_4">
    <path d="M 121.395781 287.65 
L 531.354965 287.65 
" style="fill: none; stroke: #000000; stroke-width: 0.8; stroke-linejoin: miter; stroke-linecap: square"/>
   </g>
   <g id="text_12">
    <!-- $G(t)$ -->
    <g transform="translate(295.175373 31.515) scale(0.32 -0.32)">
     <defs>
      <path id="DejaVuSans-Oblique-47" d="M 3494 697 
L 3738 1919 
L 2700 1919 
L 2797 2438 
L 4453 2438 
L 4050 384 
Q 3634 156 3143 32 
Q 2653 -91 2156 -91 
Q 1278 -91 783 396 
Q 288 884 288 1753 
Q 288 2475 589 3126 
Q 891 3778 1422 4213 
Q 1756 4484 2153 4617 
Q 2550 4750 3034 4750 
Q 3472 4750 3873 4639 
Q 4275 4528 4641 4306 
L 4513 3634 
Q 4231 3928 3853 4083 
Q 3475 4238 3047 4238 
Q 2550 4238 2172 4048 
Q 1794 3859 1497 3463 
Q 1244 3125 1098 2667 
Q 953 2209 953 1734 
Q 953 1081 1287 751 
Q 1622 422 2284 422 
Q 2616 422 2925 492 
Q 3234 563 3494 697 
z
" transform="scale(0.015625)"/>
      <path id="DejaVuSans-28" d="M 1984 4856 
Q 1566 4138 1362 3434 
Q 1159 2731 1159 2009 
Q 1159 1288 1364 580 
Q 1569 -128 1984 -844 
L 1484 -844 
Q 1016 -109 783 600 
Q 550 1309 550 2009 
Q 550 2706 781 3412 
Q 1013 4119 1484 4856 
L 1984 4856 
z
" transform="scale(0.015625)"/>
      <path id="DejaVuSans-Oblique-74" d="M 2706 3500 
L 2619 3053 
L 1472 3053 
L 1100 1153 
Q 1081 1047 1072 975 
Q 1063 903 1063 863 
Q 1063 663 1183 572 
Q 1303 481 1569 481 
L 2150 481 
L 2053 0 
L 1503 0 
Q 991 0 739 200 
Q 488 400 488 806 
Q 488 878 497 964 
Q 506 1050 525 1153 
L 897 3053 
L 409 3053 
L 500 3500 
L 978 3500 
L 1172 4494 
L 1747 4494 
L 1556 3500 
L 2706 3500 
z
" transform="scale(0.015625)"/>
      <path id="DejaVuSans-29" d="M 513 4856 
L 1013 4856 
Q 1481 4119 1714 3412 
Q 1947 2706 1947 2009 
Q 1947 1309 1714 600 
Q 1481 -109 1013 -844 
L 513 -844 
Q 928 -128 1133 580 
Q 1338 1288 1338 2009 
Q 1338 2731 1133 3434 
Q 928 4138 513 4856 
z
" transform="scale(0.015625)"/>
     </defs>
     <use xlink:href="#DejaVuSans-Oblique-47" transform="translate(0 0.125)"/>
     <use xlink:href="#DejaVuSans-28" transform="translate(77.490234 0.125)"/>
     <use xlink:href="#DejaVuSans-Oblique-74" transform="translate(116.503906 0.125)"/>
     <use xlink:href="#DejaVuSans-29" transform="translate(155.712891 0.125)"/>
    </g>
   </g>
   <g id="legend_1">
    <g id="patch_5">
     <path d="M 507.154965 66.77 
L 515.954965 66.77 
Q 520.354965 66.77 520.354965 62.37 
L 520.354965 53.57 
Q 520.354965 49.17 515.954965 49.17 
L 507.154965 49.17 
Q 502.754965 49.17 502.754965 53.57 
L 502.754965 62.37 
Q 502.754965 66.77 507.154965 66.77 
z
" style="fill: #ffffff; opacity: 0.8; stroke: #cccccc; stroke-linejoin: miter"/>
    </g>
   </g>
  </g>
  <g id="axes_2">
   <g id="patch_6">
    <path d="M 654.34272 287.65 
L 1064.301904 287.65 
L 1064.301904 38.17 
L 654.34272 38.17 
z
" style="fill: #ffffff"/>
   </g>
   <g id="matplotlib.axis_3">
    <g id="xtick_5">
     <g id="line2d_17">
      <g>
       <use xlink:href="#m52b6a3ec54" x="654.34272" y="287.65" style="stroke: #000000; stroke-width: 0.8"/>
      </g>
     </g>
     <g id="text_13">
      <!-- 0 -->
      <g transform="translate(645.753345 315.165781) scale(0.27 -0.27)">
       <use xlink:href="#DejaVuSans-30"/>
      </g>
     </g>
    </g>
    <g id="xtick_6">
     <g id="line2d_18">
      <g>
       <use xlink:href="#m52b6a3ec54" x="756.832516" y="287.65" style="stroke: #000000; stroke-width: 0.8"/>
      </g>
     </g>
     <g id="text_14">
      <!-- 25 -->
      <g transform="translate(739.653766 315.165781) scale(0.27 -0.27)">
       <use xlink:href="#DejaVuSans-32"/>
       <use xlink:href="#DejaVuSans-35" x="63.623047"/>
      </g>
     </g>
    </g>
    <g id="xtick_7">
     <g id="line2d_19">
      <g>
       <use xlink:href="#m52b6a3ec54" x="859.322312" y="287.65" style="stroke: #000000; stroke-width: 0.8"/>
      </g>
     </g>
     <g id="text_15">
      <!-- 50 -->
      <g transform="translate(842.143562 315.165781) scale(0.27 -0.27)">
       <use xlink:href="#DejaVuSans-35"/>
       <use xlink:href="#DejaVuSans-30" x="63.623047"/>
      </g>
     </g>
    </g>
    <g id="xtick_8">
     <g id="line2d_20">
      <g>
       <use xlink:href="#m52b6a3ec54" x="961.812108" y="287.65" style="stroke: #000000; stroke-width: 0.8"/>
      </g>
     </g>
     <g id="text_16">
      <!-- 75 -->
      <g transform="translate(944.633358 315.165781) scale(0.27 -0.27)">
       <use xlink:href="#DejaVuSans-37"/>
       <use xlink:href="#DejaVuSans-35" x="63.623047"/>
      </g>
     </g>
    </g>
    <g id="text_17">
     <!-- Time [ms] -->
     <g transform="translate(783.724656 347.57625) scale(0.3 -0.3)">
      <use xlink:href="#DejaVuSans-54"/>
      <use xlink:href="#DejaVuSans-69" x="57.958984"/>
      <use xlink:href="#DejaVuSans-6d" x="85.742188"/>
      <use xlink:href="#DejaVuSans-65" x="183.154297"/>
      <use xlink:href="#DejaVuSans-20" x="244.677734"/>
      <use xlink:href="#DejaVuSans-5b" x="276.464844"/>
      <use xlink:href="#DejaVuSans-6d" x="315.478516"/>
      <use xlink:href="#DejaVuSans-73" x="412.890625"/>
      <use xlink:href="#DejaVuSans-5d" x="464.990234"/>
     </g>
    </g>
   </g>
   <g id="matplotlib.axis_4">
    <g id="ytick_6">
     <g id="line2d_21">
      <g>
       <use xlink:href="#m220507cb07" x="654.34272" y="287.029403" style="stroke: #000000; stroke-width: 0.8"/>
      </g>
     </g>
     <g id="text_18">
      <!-- −200 -->
      <g transform="translate(573.181314 297.287294) scale(0.27 -0.27)">
       <use xlink:href="#DejaVuSans-2212"/>
       <use xlink:href="#DejaVuSans-32" x="83.789062"/>
       <use xlink:href="#DejaVuSans-30" x="147.412109"/>
       <use xlink:href="#DejaVuSans-30" x="211.035156"/>
      </g>
     </g>
    </g>
    <g id="ytick_7">
     <g id="line2d_22">
      <g>
       <use xlink:href="#m220507cb07" x="654.34272" y="224.969701" style="stroke: #000000; stroke-width: 0.8"/>
      </g>
     </g>
     <g id="text_19">
      <!-- −100 -->
      <g transform="translate(573.181314 235.227592) scale(0.27 -0.27)">
       <use xlink:href="#DejaVuSans-2212"/>
       <use xlink:href="#DejaVuSans-31" x="83.789062"/>
       <use xlink:href="#DejaVuSans-30" x="147.412109"/>
       <use xlink:href="#DejaVuSans-30" x="211.035156"/>
      </g>
     </g>
    </g>
    <g id="ytick_8">
     <g id="line2d_23">
      <g>
       <use xlink:href="#m220507cb07" x="654.34272" y="162.91" style="stroke: #000000; stroke-width: 0.8"/>
      </g>
     </g>
     <g id="text_20">
      <!-- 0 -->
      <g transform="translate(630.16397 173.167891) scale(0.27 -0.27)">
       <use xlink:href="#DejaVuSans-30"/>
      </g>
     </g>
    </g>
    <g id="ytick_9">
     <g id="line2d_24">
      <g>
       <use xlink:href="#m220507cb07" x="654.34272" y="100.850299" style="stroke: #000000; stroke-width: 0.8"/>
      </g>
     </g>
     <g id="text_21">
      <!-- 100 -->
      <g transform="translate(595.80647 111.108189) scale(0.27 -0.27)">
       <use xlink:href="#DejaVuSans-31"/>
       <use xlink:href="#DejaVuSans-30" x="63.623047"/>
       <use xlink:href="#DejaVuSans-30" x="127.246094"/>
      </g>
     </g>
    </g>
    <g id="ytick_10">
     <g id="line2d_25">
      <g>
       <use xlink:href="#m220507cb07" x="654.34272" y="38.790597" style="stroke: #000000; stroke-width: 0.8"/>
      </g>
     </g>
     <g id="text_22">
      <!-- 200 -->
      <g transform="translate(595.80647 49.048488) scale(0.27 -0.27)">
       <use xlink:href="#DejaVuSans-32"/>
       <use xlink:href="#DejaVuSans-30" x="63.623047"/>
       <use xlink:href="#DejaVuSans-30" x="127.246094"/>
      </g>
     </g>
    </g>
    <g id="text_23">
     <!-- T/m/s -->
     <g transform="translate(562.942251 204.602969) rotate(-90) scale(0.3 -0.3)">
      <use xlink:href="#DejaVuSans-54"/>
      <use xlink:href="#DejaVuSans-2f" x="61.083984"/>
      <use xlink:href="#DejaVuSans-6d" x="94.775391"/>
      <use xlink:href="#DejaVuSans-2f" x="192.1875"/>
      <use xlink:href="#DejaVuSans-73" x="225.878906"/>
     </g>
    </g>
   </g>
   <g id="line2d_26">
    <path d="M 654.34272 162.91 
L 1064.301904 162.91 
" clip-path="url(#p103920f4be)" style="fill: none; stroke: #d3d3d3; stroke-opacity: 0.8; stroke-width: 1.5; stroke-linecap: square"/>
   </g>
   <g id="line2d_27">
    <path d="M 654.34272 162.91 
L 665.821577 162.91 
L 666.641496 285.7882 
L 667.461414 239.033274 
L 668.281332 222.091141 
L 669.101251 190.278673 
L 669.921169 186.416022 
L 674.020761 185.897571 
L 678.940271 185.523875 
L 679.760189 185.106117 
L 680.580108 162.832346 
L 681.400026 162.595777 
L 682.219945 163.069579 
L 683.039863 162.889886 
L 683.859781 162.835968 
L 684.6797 162.908926 
L 685.499618 162.789445 
L 686.319536 162.889937 
L 687.139455 162.763536 
L 687.959373 162.853801 
L 688.779291 162.773212 
L 689.59921 86.189117 
L 690.419128 74.081687 
L 691.239047 108.576855 
L 692.058965 111.186821 
L 692.878883 113.21378 
L 693.698802 114.812559 
L 694.51872 116.095752 
L 695.338638 136.546796 
L 696.158557 139.683688 
L 698.618312 139.975559 
L 703.537822 140.301467 
L 710.917087 140.544995 
L 721.576026 140.672698 
L 722.395945 161.30208 
L 723.215863 160.99829 
L 724.035781 164.899521 
L 724.8557 160.918722 
L 725.675618 164.343712 
L 726.495536 161.474801 
L 727.315455 162.910175 
L 728.135373 162.908583 
L 728.955291 163.310102 
L 729.77521 162.509039 
L 730.595128 162.910162 
L 731.415047 162.909016 
L 732.234965 163.737089 
L 733.054883 162.082504 
L 733.874802 163.780722 
L 734.69472 162.909436 
L 741.254067 162.996173 
L 742.073985 163.320792 
L 742.893904 189.395637 
L 743.713822 203.47063 
L 744.53374 252.670762 
L 745.353659 213.251001 
L 746.173577 210.996301 
L 746.993496 209.25055 
L 748.633332 206.636568 
L 749.453251 186.527781 
L 750.273169 185.639399 
L 755.192679 185.403257 
L 756.012598 172.967442 
L 756.832516 162.936144 
L 760.932108 162.91 
L 786.349577 162.91 
L 787.169496 264.014102 
L 787.989414 181.56042 
L 788.809332 162.909493 
L 789.629251 112.618178 
L 790.449169 95.69158 
L 791.269087 100.85941 
L 792.089006 111.635016 
L 792.908924 117.544919 
L 794.548761 120.830955 
L 795.368679 129.449234 
L 796.188598 139.431158 
L 800.288189 139.925583 
L 805.2077 140.276155 
L 806.027618 142.941147 
L 806.847536 162.868828 
L 808.487373 162.922913 
L 810.12721 200.498387 
L 810.947128 211.76813 
L 811.767047 216.955399 
L 812.586965 212.969138 
L 813.406883 204.895006 
L 814.226802 203.429654 
L 815.04672 202.296072 
L 816.686557 200.713464 
L 818.326393 199.692524 
L 819.146312 196.132431 
L 819.96623 186.188689 
L 824.065822 185.7727 
L 828.985332 185.47793 
L 829.805251 173.090241 
L 830.625169 88.541376 
L 831.445087 90.522037 
L 832.265006 120.963803 
L 833.084924 123.239514 
L 833.084924 123.239514 
" clip-path="url(#p103920f4be)" style="fill: none; stroke: #000000; stroke-width: 5; stroke-linecap: square"/>
   </g>
   <g id="line2d_28">
    <path d="M 654.34272 38.790597 
L 1064.301904 38.790597 
" clip-path="url(#p103920f4be)" style="fill: none; stroke-dasharray: 18.5,8; stroke-dashoffset: 0; stroke: #000000; stroke-opacity: 0.2; stroke-width: 5"/>
   </g>
   <g id="line2d_29">
    <path d="M 654.34272 287.029403 
L 1064.301904 287.029403 
" clip-path="url(#p103920f4be)" style="fill: none; stroke-dasharray: 18.5,8; stroke-dashoffset: 0; stroke: #000000; stroke-opacity: 0.2; stroke-width: 5"/>
   </g>
   <g id="line2d_30">
    <path d="M 654.34272 162.91 
L 1064.301904 162.91 
" clip-path="url(#p103920f4be)" style="fill: none; stroke: #000000; stroke-width: 5; stroke-linecap: square"/>
   </g>
   <g id="patch_7">
    <path d="M 654.34272 287.65 
L 654.34272 38.17 
" style="fill: none; stroke: #000000; stroke-width: 0.8; stroke-linejoin: miter; stroke-linecap: square"/>
   </g>
   <g id="patch_8">
    <path d="M 654.34272 287.65 
L 1064.301904 287.65 
" style="fill: none; stroke: #000000; stroke-width: 0.8; stroke-linejoin: miter; stroke-linecap: square"/>
   </g>
   <g id="text_24">
    <!-- $S(t)$ -->
    <g transform="translate(830.362312 31.515) scale(0.32 -0.32)">
     <defs>
      <path id="DejaVuSans-Oblique-53" d="M 3859 4513 
L 3738 3897 
Q 3422 4066 3111 4152 
Q 2800 4238 2509 4238 
Q 1944 4238 1609 3991 
Q 1275 3744 1275 3334 
Q 1275 3109 1398 2989 
Q 1522 2869 2034 2731 
L 2413 2638 
Q 3053 2472 3303 2217 
Q 3553 1963 3553 1503 
Q 3553 797 2998 353 
Q 2444 -91 1538 -91 
Q 1166 -91 791 -17 
Q 416 56 38 206 
L 166 856 
Q 513 641 861 531 
Q 1209 422 1556 422 
Q 2147 422 2503 684 
Q 2859 947 2859 1369 
Q 2859 1650 2717 1795 
Q 2575 1941 2106 2059 
L 1728 2156 
Q 1081 2325 845 2545 
Q 609 2766 609 3163 
Q 609 3859 1145 4304 
Q 1681 4750 2541 4750 
Q 2875 4750 3203 4690 
Q 3531 4631 3859 4513 
z
" transform="scale(0.015625)"/>
     </defs>
     <use xlink:href="#DejaVuSans-Oblique-53" transform="translate(0 0.125)"/>
     <use xlink:href="#DejaVuSans-28" transform="translate(63.476562 0.125)"/>
     <use xlink:href="#DejaVuSans-Oblique-74" transform="translate(102.490234 0.125)"/>
     <use xlink:href="#DejaVuSans-29" transform="translate(141.699219 0.125)"/>
    </g>
   </g>
  </g>
  <g id="axes_3">
   <g id="patch_9">
    <path d="M 1187.289659 287.65 
L 1597.248842 287.65 
L 1597.248842 38.17 
L 1187.289659 38.17 
z
" style="fill: #ffffff"/>
   </g>
   <g id="matplotlib.axis_5">
    <g id="xtick_9">
     <g id="line2d_31">
      <g>
       <use xlink:href="#m52b6a3ec54" x="1187.289659" y="287.65" style="stroke: #000000; stroke-width: 0.8"/>
      </g>
     </g>
     <g id="text_25">
      <!-- 0 -->
      <g transform="translate(1178.700284 315.165781) scale(0.27 -0.27)">
       <use xlink:href="#DejaVuSans-30"/>
      </g>
     </g>
    </g>
    <g id="xtick_10">
     <g id="line2d_32">
      <g>
       <use xlink:href="#m52b6a3ec54" x="1289.779455" y="287.65" style="stroke: #000000; stroke-width: 0.8"/>
      </g>
     </g>
     <g id="text_26">
      <!-- 25 -->
      <g transform="translate(1272.600705 315.165781) scale(0.27 -0.27)">
       <use xlink:href="#DejaVuSans-32"/>
       <use xlink:href="#DejaVuSans-35" x="63.623047"/>
      </g>
     </g>
    </g>
    <g id="xtick_11">
     <g id="line2d_33">
      <g>
       <use xlink:href="#m52b6a3ec54" x="1392.269251" y="287.65" style="stroke: #000000; stroke-width: 0.8"/>
      </g>
     </g>
     <g id="text_27">
      <!-- 50 -->
      <g transform="translate(1375.090501 315.165781) scale(0.27 -0.27)">
       <use xlink:href="#DejaVuSans-35"/>
       <use xlink:href="#DejaVuSans-30" x="63.623047"/>
      </g>
     </g>
    </g>
    <g id="xtick_12">
     <g id="line2d_34">
      <g>
       <use xlink:href="#m52b6a3ec54" x="1494.759047" y="287.65" style="stroke: #000000; stroke-width: 0.8"/>
      </g>
     </g>
     <g id="text_28">
      <!-- 75 -->
      <g transform="translate(1477.580297 315.165781) scale(0.27 -0.27)">
       <use xlink:href="#DejaVuSans-37"/>
       <use xlink:href="#DejaVuSans-35" x="63.623047"/>
      </g>
     </g>
    </g>
    <g id="text_29">
     <!-- Time [ms] -->
     <g transform="translate(1316.671594 347.57625) scale(0.3 -0.3)">
      <use xlink:href="#DejaVuSans-54"/>
      <use xlink:href="#DejaVuSans-69" x="57.958984"/>
      <use xlink:href="#DejaVuSans-6d" x="85.742188"/>
      <use xlink:href="#DejaVuSans-65" x="183.154297"/>
      <use xlink:href="#DejaVuSans-20" x="244.677734"/>
      <use xlink:href="#DejaVuSans-5b" x="276.464844"/>
      <use xlink:href="#DejaVuSans-6d" x="315.478516"/>
      <use xlink:href="#DejaVuSans-73" x="412.890625"/>
      <use xlink:href="#DejaVuSans-5d" x="464.990234"/>
     </g>
    </g>
   </g>
   <g id="matplotlib.axis_6">
    <g id="ytick_11">
     <g id="line2d_35">
      <g>
       <use xlink:href="#m220507cb07" x="1187.289659" y="287.65" style="stroke: #000000; stroke-width: 0.8"/>
      </g>
     </g>
     <g id="text_30">
      <!-- 0.00 -->
      <g transform="translate(1120.172471 297.907891) scale(0.27 -0.27)">
       <defs>
        <path id="DejaVuSans-2e" d="M 684 794 
L 1344 794 
L 1344 0 
L 684 0 
L 684 794 
z
" transform="scale(0.015625)"/>
       </defs>
       <use xlink:href="#DejaVuSans-30"/>
       <use xlink:href="#DejaVuSans-2e" x="63.623047"/>
       <use xlink:href="#DejaVuSans-30" x="95.410156"/>
       <use xlink:href="#DejaVuSans-30" x="159.033203"/>
      </g>
     </g>
    </g>
    <g id="ytick_12">
     <g id="line2d_36">
      <g>
       <use xlink:href="#m220507cb07" x="1187.289659" y="225.28" style="stroke: #000000; stroke-width: 0.8"/>
      </g>
     </g>
     <g id="text_31">
      <!-- 0.25 -->
      <g transform="translate(1120.172471 235.537891) scale(0.27 -0.27)">
       <use xlink:href="#DejaVuSans-30"/>
       <use xlink:href="#DejaVuSans-2e" x="63.623047"/>
       <use xlink:href="#DejaVuSans-32" x="95.410156"/>
       <use xlink:href="#DejaVuSans-35" x="159.033203"/>
      </g>
     </g>
    </g>
    <g id="ytick_13">
     <g id="line2d_37">
      <g>
       <use xlink:href="#m220507cb07" x="1187.289659" y="162.91" style="stroke: #000000; stroke-width: 0.8"/>
      </g>
     </g>
     <g id="text_32">
      <!-- 0.50 -->
      <g transform="translate(1120.172471 173.167891) scale(0.27 -0.27)">
       <use xlink:href="#DejaVuSans-30"/>
       <use xlink:href="#DejaVuSans-2e" x="63.623047"/>
       <use xlink:href="#DejaVuSans-35" x="95.410156"/>
       <use xlink:href="#DejaVuSans-30" x="159.033203"/>
      </g>
     </g>
    </g>
    <g id="ytick_14">
     <g id="line2d_38">
      <g>
       <use xlink:href="#m220507cb07" x="1187.289659" y="100.54" style="stroke: #000000; stroke-width: 0.8"/>
      </g>
     </g>
     <g id="text_33">
      <!-- 0.75 -->
      <g transform="translate(1120.172471 110.797891) scale(0.27 -0.27)">
       <use xlink:href="#DejaVuSans-30"/>
       <use xlink:href="#DejaVuSans-2e" x="63.623047"/>
       <use xlink:href="#DejaVuSans-37" x="95.410156"/>
       <use xlink:href="#DejaVuSans-35" x="159.033203"/>
      </g>
     </g>
    </g>
    <g id="ytick_15">
     <g id="line2d_39">
      <g>
       <use xlink:href="#m220507cb07" x="1187.289659" y="38.17" style="stroke: #000000; stroke-width: 0.8"/>
      </g>
     </g>
     <g id="text_34">
      <!-- 1.00 -->
      <g transform="translate(1120.172471 48.427891) scale(0.27 -0.27)">
       <use xlink:href="#DejaVuSans-31"/>
       <use xlink:href="#DejaVuSans-2e" x="63.623047"/>
       <use xlink:href="#DejaVuSans-30" x="95.410156"/>
       <use xlink:href="#DejaVuSans-30" x="159.033203"/>
      </g>
     </g>
    </g>
    <g id="text_35">
     <!-- unitless -->
     <g transform="translate(1109.933409 220.995156) rotate(-90) scale(0.3 -0.3)">
      <defs>
       <path id="DejaVuSans-75" d="M 544 1381 
L 544 3500 
L 1119 3500 
L 1119 1403 
Q 1119 906 1312 657 
Q 1506 409 1894 409 
Q 2359 409 2629 706 
Q 2900 1003 2900 1516 
L 2900 3500 
L 3475 3500 
L 3475 0 
L 2900 0 
L 2900 538 
Q 2691 219 2414 64 
Q 2138 -91 1772 -91 
Q 1169 -91 856 284 
Q 544 659 544 1381 
z
M 1991 3584 
L 1991 3584 
z
" transform="scale(0.015625)"/>
       <path id="DejaVuSans-6e" d="M 3513 2113 
L 3513 0 
L 2938 0 
L 2938 2094 
Q 2938 2591 2744 2837 
Q 2550 3084 2163 3084 
Q 1697 3084 1428 2787 
Q 1159 2491 1159 1978 
L 1159 0 
L 581 0 
L 581 3500 
L 1159 3500 
L 1159 2956 
Q 1366 3272 1645 3428 
Q 1925 3584 2291 3584 
Q 2894 3584 3203 3211 
Q 3513 2838 3513 2113 
z
" transform="scale(0.015625)"/>
       <path id="DejaVuSans-74" d="M 1172 4494 
L 1172 3500 
L 2356 3500 
L 2356 3053 
L 1172 3053 
L 1172 1153 
Q 1172 725 1289 603 
Q 1406 481 1766 481 
L 2356 481 
L 2356 0 
L 1766 0 
Q 1100 0 847 248 
Q 594 497 594 1153 
L 594 3053 
L 172 3053 
L 172 3500 
L 594 3500 
L 594 4494 
L 1172 4494 
z
" transform="scale(0.015625)"/>
       <path id="DejaVuSans-6c" d="M 603 4863 
L 1178 4863 
L 1178 0 
L 603 0 
L 603 4863 
z
" transform="scale(0.015625)"/>
      </defs>
      <use xlink:href="#DejaVuSans-75"/>
      <use xlink:href="#DejaVuSans-6e" x="63.378906"/>
      <use xlink:href="#DejaVuSans-69" x="126.757812"/>
      <use xlink:href="#DejaVuSans-74" x="154.541016"/>
      <use xlink:href="#DejaVuSans-6c" x="193.75"/>
      <use xlink:href="#DejaVuSans-65" x="221.533203"/>
      <use xlink:href="#DejaVuSans-73" x="283.056641"/>
      <use xlink:href="#DejaVuSans-73" x="335.15625"/>
     </g>
    </g>
   </g>
   <g id="line2d_40">
    <path d="M 1187.289659 287.65 
L 1597.248842 287.65 
" clip-path="url(#p3241fef6e0)" style="fill: none; stroke: #d3d3d3; stroke-opacity: 0.8; stroke-width: 1.5; stroke-linecap: square"/>
   </g>
   <g id="line2d_41">
    <path d="M 1187.289659 287.65 
L 1199.588434 287.65 
L 1200.408353 146.721362 
L 1201.228271 118.665979 
L 1202.048189 118.59803 
L 1202.868108 151.876721 
L 1203.688026 173.093599 
L 1204.507945 184.291105 
L 1205.327863 190.350807 
L 1206.147781 193.716391 
L 1206.9677 195.623381 
L 1207.787618 196.706223 
L 1208.607536 197.298073 
L 1209.427455 197.579972 
L 1210.247373 197.654581 
L 1211.88721 197.40552 
L 1212.707128 197.162991 
L 1213.527047 197.283891 
L 1214.346965 222.667654 
L 1215.166883 237.40539 
L 1215.986802 245.788145 
L 1216.80672 251.431756 
L 1217.626638 255.366889 
L 1218.446557 258.143494 
L 1219.266475 260.397308 
L 1220.086393 262.048741 
L 1221.72623 264.4572 
L 1222.546149 265.357418 
L 1223.366067 182.116072 
L 1224.185985 117.205656 
L 1228.285577 117.009879 
L 1229.105496 139.223063 
L 1229.925414 154.673933 
L 1230.745332 163.422411 
L 1231.565251 168.581806 
L 1232.385169 171.777648 
L 1233.205087 173.849646 
L 1234.025006 175.241622 
L 1234.844924 176.197521 
L 1235.664842 176.857056 
L 1236.484761 177.305277 
L 1237.304679 177.59693 
L 1238.944516 177.849078 
L 1240.584353 177.806089 
L 1243.044108 177.418665 
L 1246.323781 176.595686 
L 1253.703047 174.391818 
L 1255.342883 173.900739 
L 1256.162802 197.312754 
L 1257.802638 222.754806 
L 1258.622557 226.075488 
L 1259.442475 232.559691 
L 1260.262393 233.781367 
L 1261.082312 236.817147 
L 1261.90223 239.144883 
L 1262.722149 241.124457 
L 1263.542067 242.37318 
L 1265.181904 245.07685 
L 1266.001822 245.706455 
L 1269.281496 249.589083 
L 1270.921332 251.10445 
L 1273.381087 253.026336 
L 1275.020924 254.167044 
L 1275.840842 254.429553 
L 1277.480679 191.69135 
L 1278.300598 115.581259 
L 1281.580271 115.528717 
L 1282.400189 115.681814 
L 1283.220108 137.802619 
L 1284.040026 150.788264 
L 1284.859945 158.154128 
L 1285.679863 162.540621 
L 1286.499781 165.290027 
L 1287.3197 167.096893 
L 1288.139618 168.330475 
L 1288.959536 169.193575 
L 1289.779455 184.035195 
L 1290.599373 204.189327 
L 1291.419291 216.247961 
L 1292.23921 223.943713 
L 1293.059128 229.210137 
L 1293.879047 233.054354 
L 1294.698965 236.016325 
L 1295.518883 238.397196 
L 1296.338802 240.373484 
L 1297.978638 243.512916 
L 1299.618475 245.946375 
L 1301.258312 247.934772 
L 1302.898149 249.629297 
L 1305.357904 251.814407 
L 1308.637577 254.318956 
L 1311.917251 256.538191 
L 1316.016842 259.046115 
L 1320.116434 261.32819 
L 1320.936353 145.805036 
L 1321.756271 173.5914 
L 1322.576189 208.593186 
L 1323.396108 223.149748 
L 1324.216026 167.14496 
L 1325.035945 135.544328 
L 1325.855863 127.285819 
L 1327.4957 126.45132 
L 1328.315618 126.387886 
L 1329.135536 134.938967 
L 1329.955455 150.298898 
L 1330.775373 158.6775 
L 1331.595291 163.446685 
L 1332.41521 166.299697 
L 1333.235128 168.096918 
L 1334.055047 169.28336 
L 1334.874965 170.095423 
L 1335.694883 170.663441 
L 1337.33472 171.339858 
L 1338.974557 171.637879 
L 1339.794475 174.70406 
L 1340.614393 199.272214 
L 1341.434312 213.556522 
L 1342.25423 222.393338 
L 1343.074149 219.92871 
L 1343.894067 197.218101 
L 1344.713985 162.522351 
L 1345.533904 135.223314 
L 1346.353822 122.281472 
L 1352.093251 121.436723 
L 1352.913169 124.980328 
L 1353.733087 138.017827 
L 1354.553006 145.403376 
L 1355.372924 149.820463 
L 1356.192842 152.628657 
L 1357.012761 154.525568 
L 1357.832679 155.877378 
L 1358.652598 156.882632 
L 1359.472516 157.653797 
L 1361.112353 158.738219 
L 1362.752189 159.432241 
L 1363.572108 173.849273 
L 1364.392026 172.486095 
L 1365.211945 119.910754 
L 1366.851781 119.686977 
L 1366.851781 119.686977 
" clip-path="url(#p3241fef6e0)" style="fill: none; stroke: #000000; stroke-width: 5; stroke-linecap: square"/>
   </g>
   <g id="line2d_42">
    <path d="M 1187.289659 287.65 
L 1597.248842 287.65 
" clip-path="url(#p3241fef6e0)" style="fill: none; stroke: #000000; stroke-width: 5; stroke-linecap: square"/>
   </g>
   <g id="line2d_43">
    <path d="M 1187.289659 119.377963 
L 1188.929496 118.755619 
L 1191.389251 118.142723 
L 1194.668924 117.62483 
L 1199.588434 117.102901 
L 1208.607536 116.39704 
L 1221.72623 115.604112 
L 1237.304679 114.901312 
L 1255.342883 114.322183 
L 1277.480679 113.848291 
L 1290.599373 113.653078 
L 1291.419291 157.293464 
L 1292.23921 192.915678 
L 1293.059128 146.387884 
L 1293.879047 171.07474 
L 1294.698965 142.254473 
L 1295.518883 131.012586 
L 1296.338802 126.338946 
L 1297.15872 124.174832 
L 1297.978638 123.011928 
L 1298.798557 122.280312 
L 1300.438393 121.350877 
L 1302.07823 120.737704 
L 1304.537985 120.094012 
L 1307.817659 119.48807 
L 1313.557087 118.705553 
L 1316.836761 118.328919 
L 1317.656679 177.539804 
L 1318.476598 183.882812 
L 1319.296516 155.792581 
L 1320.116434 169.784896 
L 1320.936353 144.360384 
L 1321.756271 134.33885 
L 1322.576189 130.085374 
L 1323.396108 128.045551 
L 1324.216026 126.896439 
L 1325.035945 126.136588 
L 1326.675781 125.110976 
L 1328.315618 124.387839 
L 1330.775373 123.575958 
L 1334.055047 122.750929 
L 1338.974557 121.760598 
L 1346.353822 120.526723 
L 1355.372924 119.267006 
L 1365.211945 118.133841 
L 1366.851781 117.966059 
L 1366.851781 117.966059 
" clip-path="url(#p3241fef6e0)" style="fill: none; stroke-dasharray: 22.2,9.6; stroke-dashoffset: 0; stroke: #ff0000; stroke-width: 6"/>
   </g>
   <g id="line2d_44">
    <path d="M 1187.289659 75.592 
L 1597.248842 75.592 
" clip-path="url(#p3241fef6e0)" style="fill: none; stroke-dasharray: 5,8.25; stroke-dashoffset: 0; stroke: #ff0000; stroke-opacity: 0.5; stroke-width: 5"/>
   </g>
   <g id="patch_10">
    <path d="M 1187.289659 287.65 
L 1187.289659 38.17 
" style="fill: none; stroke: #000000; stroke-width: 0.8; stroke-linejoin: miter; stroke-linecap: square"/>
   </g>
   <g id="patch_11">
    <path d="M 1187.289659 287.65 
L 1597.248842 287.65 
" style="fill: none; stroke: #000000; stroke-width: 0.8; stroke-linejoin: miter; stroke-linecap: square"/>
   </g>
   <g id="text_36">
    <!-- SAFE-PNS -->
    <g transform="translate(1314.006751 31.515) scale(0.32 -0.32)">
     <defs>
      <path id="DejaVuSans-53" d="M 3425 4513 
L 3425 3897 
Q 3066 4069 2747 4153 
Q 2428 4238 2131 4238 
Q 1616 4238 1336 4038 
Q 1056 3838 1056 3469 
Q 1056 3159 1242 3001 
Q 1428 2844 1947 2747 
L 2328 2669 
Q 3034 2534 3370 2195 
Q 3706 1856 3706 1288 
Q 3706 609 3251 259 
Q 2797 -91 1919 -91 
Q 1588 -91 1214 -16 
Q 841 59 441 206 
L 441 856 
Q 825 641 1194 531 
Q 1563 422 1919 422 
Q 2459 422 2753 634 
Q 3047 847 3047 1241 
Q 3047 1584 2836 1778 
Q 2625 1972 2144 2069 
L 1759 2144 
Q 1053 2284 737 2584 
Q 422 2884 422 3419 
Q 422 4038 858 4394 
Q 1294 4750 2059 4750 
Q 2388 4750 2728 4690 
Q 3069 4631 3425 4513 
z
" transform="scale(0.015625)"/>
      <path id="DejaVuSans-41" d="M 2188 4044 
L 1331 1722 
L 3047 1722 
L 2188 4044 
z
M 1831 4666 
L 2547 4666 
L 4325 0 
L 3669 0 
L 3244 1197 
L 1141 1197 
L 716 0 
L 50 0 
L 1831 4666 
z
" transform="scale(0.015625)"/>
      <path id="DejaVuSans-46" d="M 628 4666 
L 3309 4666 
L 3309 4134 
L 1259 4134 
L 1259 2759 
L 3109 2759 
L 3109 2228 
L 1259 2228 
L 1259 0 
L 628 0 
L 628 4666 
z
" transform="scale(0.015625)"/>
      <path id="DejaVuSans-45" d="M 628 4666 
L 3578 4666 
L 3578 4134 
L 1259 4134 
L 1259 2753 
L 3481 2753 
L 3481 2222 
L 1259 2222 
L 1259 531 
L 3634 531 
L 3634 0 
L 628 0 
L 628 4666 
z
" transform="scale(0.015625)"/>
      <path id="DejaVuSans-2d" d="M 313 2009 
L 1997 2009 
L 1997 1497 
L 313 1497 
L 313 2009 
z
" transform="scale(0.015625)"/>
      <path id="DejaVuSans-50" d="M 1259 4147 
L 1259 2394 
L 2053 2394 
Q 2494 2394 2734 2622 
Q 2975 2850 2975 3272 
Q 2975 3691 2734 3919 
Q 2494 4147 2053 4147 
L 1259 4147 
z
M 628 4666 
L 2053 4666 
Q 2838 4666 3239 4311 
Q 3641 3956 3641 3272 
Q 3641 2581 3239 2228 
Q 2838 1875 2053 1875 
L 1259 1875 
L 1259 0 
L 628 0 
L 628 4666 
z
" transform="scale(0.015625)"/>
      <path id="DejaVuSans-4e" d="M 628 4666 
L 1478 4666 
L 3547 763 
L 3547 4666 
L 4159 4666 
L 4159 0 
L 3309 0 
L 1241 3903 
L 1241 0 
L 628 0 
L 628 4666 
z
" transform="scale(0.015625)"/>
     </defs>
     <use xlink:href="#DejaVuSans-53"/>
     <use xlink:href="#DejaVuSans-41" x="65.351562"/>
     <use xlink:href="#DejaVuSans-46" x="133.759766"/>
     <use xlink:href="#DejaVuSans-45" x="191.279297"/>
     <use xlink:href="#DejaVuSans-2d" x="254.462891"/>
     <use xlink:href="#DejaVuSans-50" x="290.546875"/>
     <use xlink:href="#DejaVuSans-4e" x="350.849609"/>
     <use xlink:href="#DejaVuSans-53" x="425.654297"/>
    </g>
   </g>
   <g id="legend_2">
    <g id="patch_12">
     <path d="M 1448.611342 276.65 
L 1581.848842 276.65 
Q 1586.248842 276.65 1586.248842 272.25 
L 1586.248842 242.158125 
Q 1586.248842 237.758125 1581.848842 237.758125 
L 1448.611342 237.758125 
Q 1444.211342 237.758125 1444.211342 242.158125 
L 1444.211342 272.25 
Q 1444.211342 276.65 1448.611342 276.65 
z
" style="fill: #ffffff; opacity: 0.2; stroke: #cccccc; stroke-linejoin: miter"/>
    </g>
    <g id="line2d_45">
     <path d="M 1453.011342 255.574688 
L 1475.011342 255.574688 
L 1497.011342 255.574688 
" style="fill: none; stroke: #000000; stroke-width: 5; stroke-linecap: square"/>
    </g>
    <g id="text_37">
     <!-- Y-axis -->
     <g transform="translate(1514.611342 263.274688) scale(0.22 -0.22)">
      <defs>
       <path id="DejaVuSans-59" d="M -13 4666 
L 666 4666 
L 1959 2747 
L 3244 4666 
L 3922 4666 
L 2272 2222 
L 2272 0 
L 1638 0 
L 1638 2222 
L -13 4666 
z
" transform="scale(0.015625)"/>
       <path id="DejaVuSans-61" d="M 2194 1759 
Q 1497 1759 1228 1600 
Q 959 1441 959 1056 
Q 959 750 1161 570 
Q 1363 391 1709 391 
Q 2188 391 2477 730 
Q 2766 1069 2766 1631 
L 2766 1759 
L 2194 1759 
z
M 3341 1997 
L 3341 0 
L 2766 0 
L 2766 531 
Q 2569 213 2275 61 
Q 1981 -91 1556 -91 
Q 1019 -91 701 211 
Q 384 513 384 1019 
Q 384 1609 779 1909 
Q 1175 2209 1959 2209 
L 2766 2209 
L 2766 2266 
Q 2766 2663 2505 2880 
Q 2244 3097 1772 3097 
Q 1472 3097 1187 3025 
Q 903 2953 641 2809 
L 641 3341 
Q 956 3463 1253 3523 
Q 1550 3584 1831 3584 
Q 2591 3584 2966 3190 
Q 3341 2797 3341 1997 
z
" transform="scale(0.015625)"/>
       <path id="DejaVuSans-78" d="M 3513 3500 
L 2247 1797 
L 3578 0 
L 2900 0 
L 1881 1375 
L 863 0 
L 184 0 
L 1544 1831 
L 300 3500 
L 978 3500 
L 1906 2253 
L 2834 3500 
L 3513 3500 
z
" transform="scale(0.015625)"/>
      </defs>
      <use xlink:href="#DejaVuSans-59"/>
      <use xlink:href="#DejaVuSans-2d" x="49.208984"/>
      <use xlink:href="#DejaVuSans-61" x="85.292969"/>
      <use xlink:href="#DejaVuSans-78" x="146.572266"/>
      <use xlink:href="#DejaVuSans-69" x="205.751953"/>
      <use xlink:href="#DejaVuSans-73" x="233.535156"/>
     </g>
    </g>
   </g>
  </g>
  <g id="axes_4">
   <g id="patch_13">
    <path d="M 1720.236598 287.65 
L 2130.195781 287.65 
L 2130.195781 38.17 
L 1720.236598 38.17 
z
" style="fill: #ffffff"/>
   </g>
   <g id="matplotlib.axis_7">
    <g id="xtick_13">
     <g id="line2d_46">
      <g>
       <use xlink:href="#m52b6a3ec54" x="1720.236598" y="287.65" style="stroke: #000000; stroke-width: 0.8"/>
      </g>
     </g>
     <g id="text_38">
      <!-- 0 -->
      <g transform="translate(1711.647223 315.165781) scale(0.27 -0.27)">
       <use xlink:href="#DejaVuSans-30"/>
      </g>
     </g>
    </g>
    <g id="xtick_14">
     <g id="line2d_47">
      <g>
       <use xlink:href="#m52b6a3ec54" x="1822.726393" y="287.65" style="stroke: #000000; stroke-width: 0.8"/>
      </g>
     </g>
     <g id="text_39">
      <!-- 25 -->
      <g transform="translate(1805.547643 315.165781) scale(0.27 -0.27)">
       <use xlink:href="#DejaVuSans-32"/>
       <use xlink:href="#DejaVuSans-35" x="63.623047"/>
      </g>
     </g>
    </g>
    <g id="xtick_15">
     <g id="line2d_48">
      <g>
       <use xlink:href="#m52b6a3ec54" x="1925.216189" y="287.65" style="stroke: #000000; stroke-width: 0.8"/>
      </g>
     </g>
     <g id="text_40">
      <!-- 50 -->
      <g transform="translate(1908.037439 315.165781) scale(0.27 -0.27)">
       <use xlink:href="#DejaVuSans-35"/>
       <use xlink:href="#DejaVuSans-30" x="63.623047"/>
      </g>
     </g>
    </g>
    <g id="xtick_16">
     <g id="line2d_49">
      <g>
       <use xlink:href="#m52b6a3ec54" x="2027.705985" y="287.65" style="stroke: #000000; stroke-width: 0.8"/>
      </g>
     </g>
     <g id="text_41">
      <!-- 75 -->
      <g transform="translate(2010.527235 315.165781) scale(0.27 -0.27)">
       <use xlink:href="#DejaVuSans-37"/>
       <use xlink:href="#DejaVuSans-35" x="63.623047"/>
      </g>
     </g>
    </g>
    <g id="text_42">
     <!-- Time [ms] -->
     <g transform="translate(1849.618533 347.57625) scale(0.3 -0.3)">
      <use xlink:href="#DejaVuSans-54"/>
      <use xlink:href="#DejaVuSans-69" x="57.958984"/>
      <use xlink:href="#DejaVuSans-6d" x="85.742188"/>
      <use xlink:href="#DejaVuSans-65" x="183.154297"/>
      <use xlink:href="#DejaVuSans-20" x="244.677734"/>
      <use xlink:href="#DejaVuSans-5b" x="276.464844"/>
      <use xlink:href="#DejaVuSans-6d" x="315.478516"/>
      <use xlink:href="#DejaVuSans-73" x="412.890625"/>
      <use xlink:href="#DejaVuSans-5d" x="464.990234"/>
     </g>
    </g>
   </g>
   <g id="matplotlib.axis_8">
    <g id="ytick_16">
     <g id="line2d_50">
      <g>
       <use xlink:href="#m220507cb07" x="1720.236598" y="287.65" style="stroke: #000000; stroke-width: 0.8"/>
      </g>
     </g>
     <g id="text_43">
      <!-- 0.00 -->
      <g transform="translate(1653.11941 297.907891) scale(0.27 -0.27)">
       <use xlink:href="#DejaVuSans-30"/>
       <use xlink:href="#DejaVuSans-2e" x="63.623047"/>
       <use xlink:href="#DejaVuSans-30" x="95.410156"/>
       <use xlink:href="#DejaVuSans-30" x="159.033203"/>
      </g>
     </g>
    </g>
    <g id="ytick_17">
     <g id="line2d_51">
      <g>
       <use xlink:href="#m220507cb07" x="1720.236598" y="225.28" style="stroke: #000000; stroke-width: 0.8"/>
      </g>
     </g>
     <g id="text_44">
      <!-- 0.25 -->
      <g transform="translate(1653.11941 235.537891) scale(0.27 -0.27)">
       <use xlink:href="#DejaVuSans-30"/>
       <use xlink:href="#DejaVuSans-2e" x="63.623047"/>
       <use xlink:href="#DejaVuSans-32" x="95.410156"/>
       <use xlink:href="#DejaVuSans-35" x="159.033203"/>
      </g>
     </g>
    </g>
    <g id="ytick_18">
     <g id="line2d_52">
      <g>
       <use xlink:href="#m220507cb07" x="1720.236598" y="162.91" style="stroke: #000000; stroke-width: 0.8"/>
      </g>
     </g>
     <g id="text_45">
      <!-- 0.50 -->
      <g transform="translate(1653.11941 173.167891) scale(0.27 -0.27)">
       <use xlink:href="#DejaVuSans-30"/>
       <use xlink:href="#DejaVuSans-2e" x="63.623047"/>
       <use xlink:href="#DejaVuSans-35" x="95.410156"/>
       <use xlink:href="#DejaVuSans-30" x="159.033203"/>
      </g>
     </g>
    </g>
    <g id="ytick_19">
     <g id="line2d_53">
      <g>
       <use xlink:href="#m220507cb07" x="1720.236598" y="100.54" style="stroke: #000000; stroke-width: 0.8"/>
      </g>
     </g>
     <g id="text_46">
      <!-- 0.75 -->
      <g transform="translate(1653.11941 110.797891) scale(0.27 -0.27)">
       <use xlink:href="#DejaVuSans-30"/>
       <use xlink:href="#DejaVuSans-2e" x="63.623047"/>
       <use xlink:href="#DejaVuSans-37" x="95.410156"/>
       <use xlink:href="#DejaVuSans-35" x="159.033203"/>
      </g>
     </g>
    </g>
    <g id="ytick_20">
     <g id="line2d_54">
      <g>
       <use xlink:href="#m220507cb07" x="1720.236598" y="38.17" style="stroke: #000000; stroke-width: 0.8"/>
      </g>
     </g>
     <g id="text_47">
      <!-- 1.00 -->
      <g transform="translate(1653.11941 48.427891) scale(0.27 -0.27)">
       <use xlink:href="#DejaVuSans-31"/>
       <use xlink:href="#DejaVuSans-2e" x="63.623047"/>
       <use xlink:href="#DejaVuSans-30" x="95.410156"/>
       <use xlink:href="#DejaVuSans-30" x="159.033203"/>
      </g>
     </g>
    </g>
    <g id="text_48">
     <!-- unitless -->
     <g transform="translate(1642.880348 220.995156) rotate(-90) scale(0.3 -0.3)">
      <use xlink:href="#DejaVuSans-75"/>
      <use xlink:href="#DejaVuSans-6e" x="63.378906"/>
      <use xlink:href="#DejaVuSans-69" x="126.757812"/>
      <use xlink:href="#DejaVuSans-74" x="154.541016"/>
      <use xlink:href="#DejaVuSans-6c" x="193.75"/>
      <use xlink:href="#DejaVuSans-65" x="221.533203"/>
      <use xlink:href="#DejaVuSans-73" x="283.056641"/>
      <use xlink:href="#DejaVuSans-73" x="335.15625"/>
     </g>
    </g>
   </g>
   <g id="line2d_55">
    <path d="M 1720.236598 287.65 
L 2130.195781 287.65 
" clip-path="url(#pac00f42082)" style="fill: none; stroke: #d3d3d3; stroke-opacity: 0.8; stroke-width: 1.5; stroke-linecap: square"/>
   </g>
   <g id="line2d_56">
    <path d="M 1720.236598 287.65 
L 1732.535373 287.65 
L 1733.355291 212.224039 
L 1734.17521 171.588184 
L 1734.995128 144.619691 
L 1735.815047 139.336666 
L 1737.454883 134.578492 
L 1739.09472 130.748328 
L 1740.734557 127.664187 
L 1742.374393 125.179965 
L 1744.01423 123.178319 
L 1745.654067 121.573098 
L 1746.473985 121.126073 
L 1748.113822 146.544652 
L 1749.753659 167.84183 
L 1751.393496 185.938456 
L 1753.033332 201.256764 
L 1754.673169 214.236376 
L 1755.493087 219.96967 
L 1756.313006 241.582979 
L 1757.132924 223.899434 
L 1757.952842 196.341438 
L 1759.592679 151.83786 
L 1761.232516 117.791197 
L 1762.052434 115.639075 
L 1764.512189 115.386537 
L 1770.251618 115.072101 
L 1778.450802 114.881049 
L 1788.289822 114.80538 
L 1789.929659 138.908087 
L 1790.749577 151.027341 
L 1793.209332 179.085165 
L 1794.849169 195.384545 
L 1796.489006 209.019342 
L 1798.128842 220.74088 
L 1798.948761 226.090912 
L 1802.228434 242.756869 
L 1803.868271 249.386504 
L 1805.508108 255.02372 
L 1807.147945 259.829664 
L 1808.787781 264.004989 
L 1809.6077 271.451207 
L 1810.427618 261.868191 
L 1811.247536 209.068215 
L 1812.067455 184.704581 
L 1813.707291 145.354999 
L 1815.347128 115.33855 
L 1816.167047 114.781042 
L 1821.906475 114.778213 
L 1822.726393 122.393938 
L 1824.36623 147.6212 
L 1826.006067 168.917618 
L 1827.645904 186.899066 
L 1829.28574 202.094641 
L 1830.925577 214.94679 
L 1832.565414 225.825862 
L 1834.205251 235.042158 
L 1835.845087 242.855919 
L 1837.484924 249.485609 
L 1839.124761 255.114801 
L 1840.764598 259.897891 
L 1842.404434 263.964858 
L 1844.044271 267.425224 
L 1845.684108 270.371361 
L 1847.323945 272.881238 
L 1848.963781 275.020733 
L 1850.603618 276.845547 
L 1852.243455 278.40282 
L 1853.063373 279.093856 
L 1853.883291 217.672048 
L 1854.70321 211.825575 
L 1855.523128 217.89134 
L 1856.343047 234.185617 
L 1857.162965 243.941161 
L 1857.982883 210.09208 
L 1858.802802 185.518479 
L 1860.442638 149.985514 
L 1861.262557 135.702155 
L 1862.082475 127.79867 
L 1863.722312 125.514927 
L 1865.362149 123.64179 
L 1867.001985 122.103863 
L 1868.641822 120.839818 
L 1870.281659 119.799773 
L 1871.921496 118.943072 
L 1872.741414 120.183448 
L 1874.381251 145.819823 
L 1875.201169 157.101156 
L 1876.021087 171.563356 
L 1877.660924 207.537237 
L 1878.480842 226.102507 
L 1879.300761 218.51069 
L 1880.940598 182.453549 
L 1882.580434 154.310957 
L 1884.220271 131.865334 
L 1885.040189 122.325819 
L 1885.860108 115.672333 
L 1890.779618 115.305482 
L 1895.699128 115.092696 
L 1896.519047 122.649466 
L 1898.158883 178.516095 
L 1899.79872 214.076059 
L 1899.79872 214.076059 
" clip-path="url(#pac00f42082)" style="fill: none; stroke: #000000; stroke-width: 5; stroke-linecap: square"/>
   </g>
   <g id="line2d_57">
    <path d="M 1720.236598 287.65 
L 2130.195781 287.65 
" clip-path="url(#pac00f42082)" style="fill: none; stroke: #000000; stroke-width: 5; stroke-linecap: square"/>
   </g>
   <g id="line2d_58">
    <path d="M 1720.236598 124.240509 
L 1721.876434 122.401377 
L 1723.516271 120.87196 
L 1725.156108 119.598644 
L 1726.795945 118.537344 
L 1729.2557 117.265306 
L 1731.715455 116.293348 
L 1734.17521 115.548879 
L 1737.454883 114.817784 
L 1741.554475 114.198316 
L 1746.473985 113.73323 
L 1753.033332 113.387259 
L 1762.052434 113.167595 
L 1777.630883 113.048053 
L 1823.546312 113.014441 
L 1824.36623 131.022439 
L 1825.186149 156.793666 
L 1826.006067 151.567228 
L 1826.825985 147.402968 
L 1828.465822 140.796818 
L 1830.105659 135.471126 
L 1831.745496 131.176024 
L 1833.385332 127.710646 
L 1835.025169 124.913486 
L 1836.665006 122.654653 
L 1838.304842 120.82966 
L 1839.944679 119.354427 
L 1841.584516 118.161283 
L 1843.224353 117.195743 
L 1845.684108 116.080582 
L 1848.143863 115.266917 
L 1849.7837 114.850262 
L 1851.423536 162.603028 
L 1852.243455 148.996545 
L 1853.063373 147.754165 
L 1854.70321 141.095258 
L 1856.343047 135.724869 
L 1857.982883 131.391872 
L 1859.62272 127.894346 
L 1861.262557 125.069897 
L 1862.902393 122.787887 
L 1864.54223 120.943197 
L 1866.182067 119.451216 
L 1867.821904 118.243825 
L 1869.46174 117.266159 
L 1871.921496 116.136099 
L 1874.381251 115.310717 
L 1876.841006 114.706916 
L 1880.120679 114.144906 
L 1884.220271 113.700799 
L 1889.139781 113.394773 
L 1896.519047 113.174156 
L 1899.79872 113.123802 
L 1899.79872 113.123802 
" clip-path="url(#pac00f42082)" style="fill: none; stroke-dasharray: 22.2,9.6; stroke-dashoffset: 0; stroke: #800080; stroke-width: 6"/>
   </g>
   <g id="line2d_59">
    <path clip-path="url(#pac00f42082)" style="fill: none; stroke-dasharray: 11.1,4.8; stroke-dashoffset: 0; stroke: #800080; stroke-width: 3"/>
   </g>
   <g id="line2d_60">
    <path d="M 1720.236598 75.592 
L 2130.195781 75.592 
" clip-path="url(#pac00f42082)" style="fill: none; stroke-dasharray: 5,8.25; stroke-dashoffset: 0; stroke: #800080; stroke-opacity: 0.5; stroke-width: 5"/>
   </g>
   <g id="patch_14">
    <path d="M 1720.236598 287.65 
L 1720.236598 38.17 
" style="fill: none; stroke: #000000; stroke-width: 0.8; stroke-linejoin: miter; stroke-linecap: square"/>
   </g>
   <g id="patch_15">
    <path d="M 1720.236598 287.65 
L 2130.195781 287.65 
" style="fill: none; stroke: #000000; stroke-width: 0.8; stroke-linejoin: miter; stroke-linecap: square"/>
   </g>
   <g id="text_49">
    <!-- SAFE-CNS -->
    <g transform="translate(1845.428689 31.515) scale(0.32 -0.32)">
     <defs>
      <path id="DejaVuSans-43" d="M 4122 4306 
L 4122 3641 
Q 3803 3938 3442 4084 
Q 3081 4231 2675 4231 
Q 1875 4231 1450 3742 
Q 1025 3253 1025 2328 
Q 1025 1406 1450 917 
Q 1875 428 2675 428 
Q 3081 428 3442 575 
Q 3803 722 4122 1019 
L 4122 359 
Q 3791 134 3420 21 
Q 3050 -91 2638 -91 
Q 1578 -91 968 557 
Q 359 1206 359 2328 
Q 359 3453 968 4101 
Q 1578 4750 2638 4750 
Q 3056 4750 3426 4639 
Q 3797 4528 4122 4306 
z
" transform="scale(0.015625)"/>
     </defs>
     <use xlink:href="#DejaVuSans-53"/>
     <use xlink:href="#DejaVuSans-41" x="65.351562"/>
     <use xlink:href="#DejaVuSans-46" x="133.759766"/>
     <use xlink:href="#DejaVuSans-45" x="191.279297"/>
     <use xlink:href="#DejaVuSans-2d" x="254.462891"/>
     <use xlink:href="#DejaVuSans-43" x="290.546875"/>
     <use xlink:href="#DejaVuSans-4e" x="360.371094"/>
     <use xlink:href="#DejaVuSans-53" x="435.175781"/>
    </g>
   </g>
   <g id="legend_3">
    <g id="patch_16">
     <path d="M 1981.558281 276.65 
L 2114.795781 276.65 
Q 2119.195781 276.65 2119.195781 272.25 
L 2119.195781 242.158125 
Q 2119.195781 237.758125 2114.795781 237.758125 
L 1981.558281 237.758125 
Q 1977.158281 237.758125 1977.158281 242.158125 
L 1977.158281 272.25 
Q 1977.158281 276.65 1981.558281 276.65 
z
" style="fill: #ffffff; opacity: 0.2; stroke: #cccccc; stroke-linejoin: miter"/>
    </g>
    <g id="line2d_61">
     <path d="M 1985.958281 255.574688 
L 2007.958281 255.574688 
L 2029.958281 255.574688 
" style="fill: none; stroke: #000000; stroke-width: 5; stroke-linecap: square"/>
    </g>
    <g id="text_50">
     <!-- Y-axis -->
     <g transform="translate(2047.558281 263.274688) scale(0.22 -0.22)">
      <use xlink:href="#DejaVuSans-59"/>
      <use xlink:href="#DejaVuSans-2d" x="49.208984"/>
      <use xlink:href="#DejaVuSans-61" x="85.292969"/>
      <use xlink:href="#DejaVuSans-78" x="146.572266"/>
      <use xlink:href="#DejaVuSans-69" x="205.751953"/>
      <use xlink:href="#DejaVuSans-73" x="233.535156"/>
     </g>
    </g>
   </g>
  </g>
 </g>
 <defs>
  <clipPath id="pca25e49d12">
   <rect x="121.395781" y="38.17" width="409.959184" height="249.48"/>
  </clipPath>
  <clipPath id="p103920f4be">
   <rect x="654.34272" y="38.17" width="409.959184" height="249.48"/>
  </clipPath>
  <clipPath id="p3241fef6e0">
   <rect x="1187.289659" y="38.17" width="409.959184" height="249.48"/>
  </clipPath>
  <clipPath id="pac00f42082">
   <rect x="1720.236598" y="38.17" width="409.959184" height="249.48"/>
  </clipPath>
 </defs>
</svg>
