<?xml version="1.0" encoding="utf-8" standalone="no"?>
<!DOCTYPE svg PUBLIC "-//W3C//DTD SVG 1.1//EN"
  "http://www.w3.org/Graphics/SVG/1.1/DTD/svg11.dtd">
<svg xmlns:xlink="http://www.w3.org/1999/xlink" width="2137.395781pt" height="361.015312pt" viewBox="0 0 2137.395781 361.015312" xmlns="http://www.w3.org/2000/svg" version="1.1">
 <metadata>
  <rdf:RDF xmlns:dc="http://purl.org/dc/elements/1.1/" xmlns:cc="http://creativecommons.org/ns#" xmlns:rdf="http://www.w3.org/1999/02/22-rdf-syntax-ns#">
   <cc:Work>
    <dc:type rdf:resource="http://purl.org/dc/dcmitype/StillImage"/>
    <dc:date>2026-02-03T09:22:47.620196</dc:date>
    <dc:format>image/svg+xml</dc:format>
    <dc:creator>
     <cc:Agent>
      <dc:title>Matplotlib v3.9.0, https://matplotlib.org/</dc:title>
     </cc:Agent>
    </dc:creator>
   </cc:Work>
  </rdf:RDF>
 </metadata>
 <defs>
  <style type="text/css">*{stroke-linejoin: round; stroke-linecap: butt}</style>
 </defs>
 <g id="figure_1">
  <g id="patch_1">
   <path d="M 0 361.015312 
L 2137.395781 361.015312 
L 2137.395781 0 
L 0 0 
z
" style="fill: #ffffff"/>
  </g>
  <g id="axes_1">
   <g id="patch_2">
    <path d="M 121.395781 287.65 
L 531.354965 287.65 
L 531.354965 38.17 
L 121.395781 38.17 
z
" style="fill: #ffffff"/>
   </g>
   <g id="PolyCollection_1">
    <defs>
     <path id="mf632122b38" d="M 121.395781 -198.105312 
L 121.395781 -198.105312 
L 122.079047 -198.105312 
L 122.762312 -198.105312 
L 123.445577 -198.105312 
L 124.128842 -198.105312 
L 124.812108 -198.105312 
L 125.495373 -198.105312 
L 126.178638 -198.105312 
L 126.861904 -198.105312 
L 127.545169 -198.105312 
L 128.228434 -198.105312 
L 128.9117 -198.105312 
L 129.594965 -198.105312 
L 130.27823 -198.105312 
L 130.961496 -198.105312 
L 131.644761 -198.105312 
L 132.328026 -198.105312 
L 133.011291 -198.105312 
L 133.694557 -198.105312 
L 134.377822 -198.105312 
L 135.061087 -198.105312 
L 135.744353 -198.105312 
L 136.427618 -198.105312 
L 137.110883 -198.105312 
L 137.794149 -198.105312 
L 138.477414 -198.105312 
L 139.160679 -198.105312 
L 139.843945 -198.105312 
L 140.52721 -198.105312 
L 141.210475 -198.105312 
L 141.89374 -198.105312 
L 142.577006 -198.105312 
L 143.260271 -198.105312 
L 143.943536 -198.105312 
L 144.626802 -198.105312 
L 145.310067 -198.105312 
L 145.993332 -198.105312 
L 146.676598 -198.105312 
L 147.359863 -198.105312 
L 148.043128 -198.105312 
L 148.726393 -198.105312 
L 149.409659 -198.105312 
L 150.092924 -198.105312 
L 150.776189 -198.105312 
L 151.459455 -198.105312 
L 152.14272 -198.105312 
L 152.825985 -198.105312 
L 153.509251 -198.105312 
L 154.192516 -198.105312 
L 154.875781 -198.105312 
L 155.559047 -198.105312 
L 156.242312 -198.105312 
L 156.925577 -198.105312 
L 157.608842 -198.105312 
L 158.292108 -198.105312 
L 158.975373 -198.105312 
L 159.658638 -198.105312 
L 160.341904 -198.105312 
L 161.025169 -198.105312 
L 161.708434 -198.105312 
L 162.3917 -198.105312 
L 163.074965 -198.105312 
L 163.75823 -198.105312 
L 164.441496 -198.105312 
L 165.124761 -198.105312 
L 165.808026 -198.105312 
L 166.491291 -198.105312 
L 167.174557 -198.105312 
L 167.857822 -198.105312 
L 168.541087 -198.105312 
L 169.224353 -198.105312 
L 169.907618 -198.105312 
L 170.590883 -198.105312 
L 171.274149 -198.105312 
L 171.957414 -198.105312 
L 172.640679 -198.105312 
L 173.323945 -198.105312 
L 174.00721 -198.105312 
L 174.690475 -198.105312 
L 175.37374 -198.105312 
L 176.057006 -198.105312 
L 176.740271 -198.105312 
L 177.423536 -198.105312 
L 178.106802 -198.105312 
L 178.790067 -198.105312 
L 179.473332 -198.105312 
L 180.156598 -198.105312 
L 180.839863 -198.105312 
L 181.523128 -198.105312 
L 182.206393 -198.105312 
L 182.889659 -198.105312 
L 183.572924 -198.105312 
L 184.256189 -198.105312 
L 184.939455 -198.105312 
L 185.62272 -198.105312 
L 186.305985 -198.105312 
L 186.989251 -198.105312 
L 187.672516 -198.105312 
L 188.355781 -198.105312 
L 189.039047 -198.105312 
L 189.722312 -198.105312 
L 190.405577 -198.105312 
L 191.088842 -198.105312 
L 191.772108 -198.105312 
L 192.455373 -198.105312 
L 193.138638 -198.105312 
L 193.821904 -198.105312 
L 194.505169 -198.105312 
L 195.188434 -198.105312 
L 195.8717 -198.105312 
L 196.554965 -198.105312 
L 197.23823 -198.105312 
L 197.921496 -198.105312 
L 198.604761 -198.105312 
L 199.288026 -198.105312 
L 199.971291 -198.105312 
L 200.654557 -198.105312 
L 201.337822 -198.105312 
L 202.021087 -198.105312 
L 202.704353 -198.105312 
L 203.387618 -198.105312 
L 204.070883 -198.105312 
L 204.754149 -198.105312 
L 205.437414 -198.105312 
L 206.120679 -198.105312 
L 206.803945 -198.105312 
L 207.48721 -198.105312 
L 208.170475 -198.105312 
L 208.85374 -198.105312 
L 209.537006 -198.105312 
L 210.220271 -198.105312 
L 210.903536 -198.105312 
L 211.586802 -198.105312 
L 212.270067 -198.105312 
L 212.953332 -198.105312 
L 213.636598 -198.105312 
L 214.319863 -198.105312 
L 215.003128 -198.105312 
L 215.686393 -198.105312 
L 216.369659 -198.105312 
L 217.052924 -198.105312 
L 217.736189 -198.105312 
L 218.419455 -198.105312 
L 219.10272 -198.105312 
L 219.785985 -198.105312 
L 220.469251 -198.105312 
L 221.152516 -198.105312 
L 221.835781 -198.105312 
L 222.519047 -198.105312 
L 223.202312 -198.105312 
L 223.885577 -198.105312 
L 224.568842 -198.105312 
L 225.252108 -198.105312 
L 225.935373 -198.105312 
L 226.618638 -198.105312 
L 227.301904 -198.105312 
L 227.985169 -198.105312 
L 228.668434 -198.105312 
L 229.3517 -198.105312 
L 230.034965 -198.105312 
L 230.71823 -198.105312 
L 231.401496 -198.105312 
L 232.084761 -198.105312 
L 232.768026 -198.105312 
L 233.451291 -198.105312 
L 234.134557 -198.105312 
L 234.817822 -198.105312 
L 235.501087 -198.105312 
L 236.184353 -198.105312 
L 236.867618 -198.105312 
L 237.550883 -198.105312 
L 238.234149 -198.105312 
L 238.917414 -198.105312 
L 239.600679 -198.105312 
L 240.283945 -198.105312 
L 240.96721 -198.105312 
L 241.650475 -198.105312 
L 242.33374 -198.105312 
L 243.017006 -198.105312 
L 243.700271 -198.105312 
L 244.383536 -198.105312 
L 245.066802 -198.105312 
L 245.750067 -198.105312 
L 246.433332 -198.105312 
L 247.116598 -198.105312 
L 247.799863 -198.105312 
L 248.483128 -198.105312 
L 249.166393 -198.105312 
L 249.849659 -198.105312 
L 250.532924 -198.105312 
L 251.216189 -198.105312 
L 251.899455 -198.105312 
L 252.58272 -198.105312 
L 253.265985 -198.105312 
L 253.949251 -198.105312 
L 254.632516 -198.105312 
L 255.315781 -198.105312 
L 255.999047 -198.105312 
L 256.682312 -198.105312 
L 257.365577 -198.105312 
L 258.048842 -198.105312 
L 258.732108 -198.105312 
L 259.415373 -198.105312 
L 260.098638 -198.105312 
L 260.781904 -198.105312 
L 261.465169 -198.105312 
L 262.148434 -198.105312 
L 262.8317 -198.105312 
L 263.514965 -198.105312 
L 264.19823 -198.105312 
L 264.881496 -198.105312 
L 265.564761 -198.105312 
L 266.248026 -198.105312 
L 266.931291 -198.105312 
L 267.614557 -198.105312 
L 268.297822 -198.105312 
L 268.981087 -198.105312 
L 269.664353 -198.105312 
L 270.347618 -198.105312 
L 271.030883 -198.105312 
L 271.714149 -198.105312 
L 272.397414 -198.105312 
L 273.080679 -198.105312 
L 273.763945 -198.105312 
L 274.44721 -198.105312 
L 275.130475 -198.105312 
L 275.81374 -198.105312 
L 276.497006 -198.105312 
L 277.180271 -198.105312 
L 277.863536 -198.105312 
L 278.546802 -198.105312 
L 279.230067 -198.105312 
L 279.913332 -198.105312 
L 280.596598 -198.105312 
L 281.279863 -198.105312 
L 281.963128 -198.105312 
L 282.646393 -198.105312 
L 283.329659 -198.105312 
L 284.012924 -198.105312 
L 284.696189 -198.105312 
L 285.379455 -198.105312 
L 286.06272 -198.105312 
L 286.745985 -198.105312 
L 287.429251 -198.105312 
L 288.112516 -198.105312 
L 288.795781 -198.105312 
L 289.479047 -198.105312 
L 290.162312 -198.105312 
L 290.845577 -198.105312 
L 291.528842 -198.105312 
L 292.212108 -198.105312 
L 292.895373 -198.105312 
L 293.578638 -198.105312 
L 294.261904 -198.105312 
L 294.945169 -198.105312 
L 295.628434 -198.105312 
L 296.3117 -198.105312 
L 296.994965 -198.105312 
L 297.67823 -198.105312 
L 298.361496 -198.105312 
L 299.044761 -198.105312 
L 299.728026 -198.105312 
L 300.411291 -198.105312 
L 301.094557 -198.105312 
L 301.777822 -198.105312 
L 302.461087 -198.105312 
L 303.144353 -198.105312 
L 303.827618 -198.105312 
L 304.510883 -198.105312 
L 305.194149 -198.105312 
L 305.877414 -198.105312 
L 306.560679 -198.105312 
L 307.243945 -198.105312 
L 307.92721 -198.105312 
L 308.610475 -198.105312 
L 309.29374 -198.105312 
L 309.977006 -198.105312 
L 310.660271 -198.105312 
L 311.343536 -198.105312 
L 312.026802 -198.105312 
L 312.710067 -198.105312 
L 313.393332 -198.105312 
L 314.076598 -198.105312 
L 314.759863 -198.105312 
L 315.443128 -198.105312 
L 316.126393 -198.105312 
L 316.809659 -198.105312 
L 317.492924 -198.105312 
L 318.176189 -198.105312 
L 318.859455 -198.105312 
L 319.54272 -198.105312 
L 320.225985 -198.105312 
L 320.909251 -198.105312 
L 321.592516 -198.105312 
L 322.275781 -198.105312 
L 322.959047 -198.105312 
L 323.642312 -198.105312 
L 324.325577 -198.105312 
L 325.008842 -198.105312 
L 325.692108 -198.105312 
L 326.375373 -198.105312 
L 327.058638 -198.105312 
L 327.741904 -198.105312 
L 328.425169 -198.105312 
L 329.108434 -198.105312 
L 329.7917 -198.105312 
L 330.474965 -198.105312 
L 331.15823 -198.105312 
L 331.841496 -198.105312 
L 332.524761 -198.105312 
L 333.208026 -198.105312 
L 333.891291 -198.105312 
L 334.574557 -198.105312 
L 335.257822 -198.105312 
L 335.941087 -198.105312 
L 336.624353 -198.105312 
L 337.307618 -198.105312 
L 337.990883 -198.105312 
L 338.674149 -198.105312 
L 339.357414 -198.105312 
L 340.040679 -198.105312 
L 340.723945 -198.105312 
L 341.40721 -198.105312 
L 342.090475 -198.105312 
L 342.090475 -198.105312 
L 342.090475 -198.105312 
L 341.40721 -192.57235 
L 340.723945 -186.928431 
L 340.040679 -176.801625 
L 339.357414 -166.641099 
L 338.674149 -156.348406 
L 337.990883 -145.715225 
L 337.307618 -134.875063 
L 336.624353 -123.091917 
L 335.941087 -111.096289 
L 335.257822 -87.691578 
L 334.574557 -81.158409 
L 333.891291 -81.105534 
L 333.208026 -81.084453 
L 332.524761 -81.004061 
L 331.841496 -80.975597 
L 331.15823 -80.902546 
L 330.474965 -80.839026 
L 329.7917 -80.87983 
L 329.108434 -80.831288 
L 328.425169 -80.835482 
L 327.741904 -80.841169 
L 327.058638 -80.832655 
L 326.375373 -80.874378 
L 325.692108 -80.898127 
L 325.008842 -81.281731 
L 324.325577 -83.726794 
L 323.642312 -89.146721 
L 322.959047 -94.533745 
L 322.275781 -99.950211 
L 321.592516 -105.34242 
L 320.909251 -110.751236 
L 320.225985 -116.154004 
L 319.54272 -121.566178 
L 318.859455 -126.966886 
L 318.176189 -132.388322 
L 317.492924 -137.788201 
L 316.809659 -143.221285 
L 316.126393 -148.621263 
L 315.443128 -154.063178 
L 314.759863 -159.468885 
L 314.076598 -164.916899 
L 313.393332 -170.331778 
L 312.710067 -175.787427 
L 312.026802 -181.21337 
L 311.343536 -186.677804 
L 310.660271 -192.123601 
L 309.977006 -197.57787 
L 309.29374 -203.059982 
L 308.610475 -208.522823 
L 307.92721 -214.020357 
L 307.243945 -219.508252 
L 306.560679 -225.007976 
L 305.877414 -235.238576 
L 305.194149 -246.56411 
L 304.510883 -258.228776 
L 303.827618 -270.400119 
L 303.144353 -284.654722 
L 302.461087 -308.710429 
L 301.777822 -315.188808 
L 301.094557 -315.193425 
L 300.411291 -315.214882 
L 299.728026 -315.241184 
L 299.044761 -315.246323 
L 298.361496 -315.251264 
L 297.67823 -315.300422 
L 296.994965 -315.301271 
L 296.3117 -315.314042 
L 295.628434 -315.328296 
L 294.945169 -315.33392 
L 294.261904 -315.376429 
L 293.578638 -315.38389 
L 292.895373 -315.395757 
L 292.212108 -315.39805 
L 291.528842 -315.483172 
L 290.845577 -315.484967 
L 290.162312 -315.56035 
L 289.479047 -315.565417 
L 288.795781 -315.641275 
L 288.112516 -315.643365 
L 287.429251 -315.648382 
L 286.745985 -315.650062 
L 286.06272 -315.69734 
L 285.379455 -315.700867 
L 284.696189 -315.705714 
L 284.012924 -315.709487 
L 283.329659 -315.710571 
L 282.646393 -315.770299 
L 281.963128 -315.772016 
L 281.279863 -315.772094 
L 280.596598 -315.792371 
L 279.913332 -315.794523 
L 279.230067 -315.796399 
L 278.546802 -315.795857 
L 277.863536 -315.794966 
L 277.180271 -315.795413 
L 276.497006 -312.068502 
L 275.81374 -306.57707 
L 275.130475 -301.071383 
L 274.44721 -295.556301 
L 273.763945 -290.02672 
L 273.080679 -284.483609 
L 272.397414 -278.921938 
L 271.714149 -273.346471 
L 271.030883 -266.847258 
L 270.347618 -256.410383 
L 269.664353 -245.597671 
L 268.981087 -234.263143 
L 268.297822 -222.117745 
L 267.614557 -198.105312 
L 266.931291 -198.105312 
L 266.248026 -198.105312 
L 265.564761 -198.105312 
L 264.881496 -198.105312 
L 264.19823 -198.105312 
L 263.514965 -198.105312 
L 262.8317 -198.105312 
L 262.148434 -198.105312 
L 261.465169 -198.105312 
L 260.781904 -198.105312 
L 260.098638 -198.105312 
L 259.415373 -198.105312 
L 258.732108 -198.105312 
L 258.048842 -198.105312 
L 257.365577 -198.105312 
L 256.682312 -198.105312 
L 255.999047 -198.105312 
L 255.315781 -198.105312 
L 254.632516 -198.105312 
L 253.949251 -198.105312 
L 253.265985 -198.105312 
L 252.58272 -198.105312 
L 251.899455 -198.105312 
L 251.216189 -198.105312 
L 250.532924 -198.105312 
L 249.849659 -198.105312 
L 249.166393 -198.105312 
L 248.483128 -198.105312 
L 247.799863 -198.105312 
L 247.116598 -198.105312 
L 246.433332 -198.105312 
L 245.750067 -198.105312 
L 245.066802 -198.105312 
L 244.383536 -198.105312 
L 243.700271 -198.105312 
L 243.017006 -188.258798 
L 242.33374 -178.334113 
L 241.650475 -168.158932 
L 240.96721 -157.737445 
L 240.283945 -147.02045 
L 239.600679 -135.842866 
L 238.917414 -124.073765 
L 238.234149 -108.572319 
L 237.550883 -84.005275 
L 236.867618 -83.989844 
L 236.184353 -83.958165 
L 235.501087 -83.987278 
L 234.817822 -84.00237 
L 234.134557 -89.389819 
L 233.451291 -94.788847 
L 232.768026 -100.196947 
L 232.084761 -105.585413 
L 231.401496 -110.997707 
L 230.71823 -116.390562 
L 230.034965 -121.797598 
L 229.3517 -127.205696 
L 228.668434 -132.613853 
L 227.985169 -138.023722 
L 227.301904 -143.432149 
L 226.618638 -148.850391 
L 225.935373 -154.261702 
L 225.252108 -159.687373 
L 224.568842 -165.108151 
L 223.885577 -170.532567 
L 223.202312 -175.967738 
L 222.519047 -181.395843 
L 221.835781 -186.841075 
L 221.152516 -192.285893 
L 220.469251 -197.733627 
L 219.785985 -203.191732 
L 219.10272 -208.654711 
L 218.419455 -214.123513 
L 217.736189 -219.607962 
L 217.052924 -225.093116 
L 216.369659 -230.595672 
L 215.686393 -242.776883 
L 215.003128 -255.355209 
L 214.319863 -268.584197 
L 213.636598 -285.734032 
L 212.953332 -310.31947 
L 212.270067 -313.676837 
L 211.586802 -314.982682 
L 210.903536 -314.987175 
L 210.220271 -314.994227 
L 209.537006 -315.068161 
L 208.85374 -315.105406 
L 208.170475 -315.137252 
L 207.48721 -315.134441 
L 206.803945 -315.151142 
L 206.120679 -315.206529 
L 205.437414 -315.207721 
L 204.754149 -315.246282 
L 204.070883 -315.253633 
L 203.387618 -315.257824 
L 202.704353 -315.294446 
L 202.021087 -315.294188 
L 201.337822 -315.314054 
L 200.654557 -315.312869 
L 199.971291 -315.340152 
L 199.288026 -315.340688 
L 198.604761 -315.360034 
L 197.921496 -315.362557 
L 197.23823 -315.382431 
L 196.554965 -315.386608 
L 195.8717 -315.378861 
L 195.188434 -315.401036 
L 194.505169 -315.412958 
L 193.821904 -315.406357 
L 193.138638 -315.412476 
L 192.455373 -315.428758 
L 191.772108 -315.42386 
L 191.088842 -315.438771 
L 190.405577 -315.431838 
L 189.722312 -315.423781 
L 189.039047 -315.429877 
L 188.355781 -315.426275 
L 187.672516 -315.428399 
L 186.989251 -315.414086 
L 186.305985 -315.407266 
L 185.62272 -315.409692 
L 184.939455 -315.40538 
L 184.256189 -315.39405 
L 183.572924 -315.388814 
L 182.889659 -315.391481 
L 182.206393 -315.379117 
L 181.523128 -315.369987 
L 180.839863 -315.364995 
L 180.156598 -315.353897 
L 179.473332 -315.344513 
L 178.790067 -315.345491 
L 178.106802 -315.344588 
L 177.423536 -315.336375 
L 176.740271 -315.224435 
L 176.057006 -315.029963 
L 175.37374 -314.33947 
L 174.690475 -308.930996 
L 174.00721 -303.526302 
L 173.323945 -298.114419 
L 172.640679 -292.701041 
L 171.957414 -287.289733 
L 171.274149 -281.869186 
L 170.590883 -276.451776 
L 169.907618 -271.0281 
L 169.224353 -265.598246 
L 168.541087 -260.171072 
L 167.857822 -254.735007 
L 167.174557 -249.295437 
L 166.491291 -243.847877 
L 165.808026 -238.4022 
L 165.124761 -232.94089 
L 164.441496 -227.479695 
L 163.75823 -222.006932 
L 163.074965 -216.528434 
L 162.3917 -211.040699 
L 161.708434 -205.539299 
L 161.025169 -200.030724 
L 160.341904 -194.509787 
L 159.658638 -188.972797 
L 158.975373 -183.423373 
L 158.292108 -177.858053 
L 157.608842 -170.095079 
L 156.925577 -158.026277 
L 156.242312 -145.474384 
L 155.559047 -132.429732 
L 154.875781 -117.737081 
L 154.192516 -93.169186 
L 153.509251 -81.273206 
L 152.825985 -81.244504 
L 152.14272 -81.235129 
L 151.459455 -81.170158 
L 150.776189 -81.162017 
L 150.092924 -81.142327 
L 149.409659 -81.129587 
L 148.726393 -81.121953 
L 148.043128 -81.098275 
L 147.359863 -81.096575 
L 146.676598 -81.060635 
L 145.993332 -81.045897 
L 145.310067 -81.032804 
L 144.626802 -81.033595 
L 143.943536 -81.029256 
L 143.260271 -81.021142 
L 142.577006 -81.010552 
L 141.89374 -81.012936 
L 141.210475 -81.007183 
L 140.52721 -81.013648 
L 139.843945 -84.470668 
L 139.160679 -90.024142 
L 138.477414 -95.583802 
L 137.794149 -101.17384 
L 137.110883 -106.776731 
L 136.427618 -112.405075 
L 135.744353 -118.05748 
L 135.061087 -123.742333 
L 134.377822 -129.45373 
L 133.694557 -137.40289 
L 133.011291 -151.889904 
L 132.328026 -173.478953 
L 131.644761 -198.105312 
L 130.961496 -198.105312 
L 130.27823 -198.105312 
L 129.594965 -198.105312 
L 128.9117 -198.105312 
L 128.228434 -198.105312 
L 127.545169 -198.105312 
L 126.861904 -198.105312 
L 126.178638 -198.105312 
L 125.495373 -198.105312 
L 124.812108 -198.105312 
L 124.128842 -198.105312 
L 123.445577 -198.105312 
L 122.762312 -198.105312 
L 122.079047 -198.105312 
L 121.395781 -198.105312 
z
" style="stroke: #0173b2; stroke-opacity: 0.75"/>
    </defs>
    <g clip-path="url(#pd1c9a1e526)">
     <use xlink:href="#mf632122b38" x="0" y="361.015312" style="fill: #0173b2; fill-opacity: 0.75; stroke: #0173b2; stroke-opacity: 0.75"/>
    </g>
   </g>
   <g id="matplotlib.axis_1">
    <g id="xtick_1">
     <g id="line2d_1">
      <defs>
       <path id="m05cf1ba2c7" d="M 0 0 
L 0 3.5 
" style="stroke: #000000; stroke-width: 0.8"/>
      </defs>
      <g>
       <use xlink:href="#m05cf1ba2c7" x="121.395781" y="287.65" style="stroke: #000000; stroke-width: 0.8"/>
      </g>
     </g>
     <g id="text_1">
      <!-- 0 -->
      <g transform="translate(112.806406 315.165781) scale(0.27 -0.27)">
       <defs>
        <path id="DejaVuSans-30" d="M 2034 4250 
Q 1547 4250 1301 3770 
Q 1056 3291 1056 2328 
Q 1056 1369 1301 889 
Q 1547 409 2034 409 
Q 2525 409 2770 889 
Q 3016 1369 3016 2328 
Q 3016 3291 2770 3770 
Q 2525 4250 2034 4250 
z
M 2034 4750 
Q 2819 4750 3233 4129 
Q 3647 3509 3647 2328 
Q 3647 1150 3233 529 
Q 2819 -91 2034 -91 
Q 1250 -91 836 529 
Q 422 1150 422 2328 
Q 422 3509 836 4129 
Q 1250 4750 2034 4750 
z
" transform="scale(0.015625)"/>
       </defs>
       <use xlink:href="#DejaVuSans-30"/>
      </g>
     </g>
    </g>
    <g id="xtick_2">
     <g id="line2d_2">
      <g>
       <use xlink:href="#m05cf1ba2c7" x="206.803945" y="287.65" style="stroke: #000000; stroke-width: 0.8"/>
      </g>
     </g>
     <g id="text_2">
      <!-- 25 -->
      <g transform="translate(189.625195 315.165781) scale(0.27 -0.27)">
       <defs>
        <path id="DejaVuSans-32" d="M 1228 531 
L 3431 531 
L 3431 0 
L 469 0 
L 469 531 
Q 828 903 1448 1529 
Q 2069 2156 2228 2338 
Q 2531 2678 2651 2914 
Q 2772 3150 2772 3378 
Q 2772 3750 2511 3984 
Q 2250 4219 1831 4219 
Q 1534 4219 1204 4116 
Q 875 4013 500 3803 
L 500 4441 
Q 881 4594 1212 4672 
Q 1544 4750 1819 4750 
Q 2544 4750 2975 4387 
Q 3406 4025 3406 3419 
Q 3406 3131 3298 2873 
Q 3191 2616 2906 2266 
Q 2828 2175 2409 1742 
Q 1991 1309 1228 531 
z
" transform="scale(0.015625)"/>
        <path id="DejaVuSans-35" d="M 691 4666 
L 3169 4666 
L 3169 4134 
L 1269 4134 
L 1269 2991 
Q 1406 3038 1543 3061 
Q 1681 3084 1819 3084 
Q 2600 3084 3056 2656 
Q 3513 2228 3513 1497 
Q 3513 744 3044 326 
Q 2575 -91 1722 -91 
Q 1428 -91 1123 -41 
Q 819 9 494 109 
L 494 744 
Q 775 591 1075 516 
Q 1375 441 1709 441 
Q 2250 441 2565 725 
Q 2881 1009 2881 1497 
Q 2881 1984 2565 2268 
Q 2250 2553 1709 2553 
Q 1456 2553 1204 2497 
Q 953 2441 691 2322 
L 691 4666 
z
" transform="scale(0.015625)"/>
       </defs>
       <use xlink:href="#DejaVuSans-32"/>
       <use xlink:href="#DejaVuSans-35" x="63.623047"/>
      </g>
     </g>
    </g>
    <g id="xtick_3">
     <g id="line2d_3">
      <g>
       <use xlink:href="#m05cf1ba2c7" x="292.212108" y="287.65" style="stroke: #000000; stroke-width: 0.8"/>
      </g>
     </g>
     <g id="text_3">
      <!-- 50 -->
      <g transform="translate(275.033358 315.165781) scale(0.27 -0.27)">
       <use xlink:href="#DejaVuSans-35"/>
       <use xlink:href="#DejaVuSans-30" x="63.623047"/>
      </g>
     </g>
    </g>
    <g id="xtick_4">
     <g id="line2d_4">
      <g>
       <use xlink:href="#m05cf1ba2c7" x="377.620271" y="287.65" style="stroke: #000000; stroke-width: 0.8"/>
      </g>
     </g>
     <g id="text_4">
      <!-- 75 -->
      <g transform="translate(360.441521 315.165781) scale(0.27 -0.27)">
       <defs>
        <path id="DejaVuSans-37" d="M 525 4666 
L 3525 4666 
L 3525 4397 
L 1831 0 
L 1172 0 
L 2766 4134 
L 525 4134 
L 525 4666 
z
" transform="scale(0.015625)"/>
       </defs>
       <use xlink:href="#DejaVuSans-37"/>
       <use xlink:href="#DejaVuSans-35" x="63.623047"/>
      </g>
     </g>
    </g>
    <g id="xtick_5">
     <g id="line2d_5">
      <g>
       <use xlink:href="#m05cf1ba2c7" x="463.028434" y="287.65" style="stroke: #000000; stroke-width: 0.8"/>
      </g>
     </g>
     <g id="text_5">
      <!-- 100 -->
      <g transform="translate(437.260309 315.165781) scale(0.27 -0.27)">
       <defs>
        <path id="DejaVuSans-31" d="M 794 531 
L 1825 531 
L 1825 4091 
L 703 3866 
L 703 4441 
L 1819 4666 
L 2450 4666 
L 2450 531 
L 3481 531 
L 3481 0 
L 794 0 
L 794 531 
z
" transform="scale(0.015625)"/>
       </defs>
       <use xlink:href="#DejaVuSans-31"/>
       <use xlink:href="#DejaVuSans-30" x="63.623047"/>
       <use xlink:href="#DejaVuSans-30" x="127.246094"/>
      </g>
     </g>
    </g>
    <g id="text_6">
     <!-- Time [ms] -->
     <g transform="translate(250.777717 347.57625) scale(0.3 -0.3)">
      <defs>
       <path id="DejaVuSans-54" d="M -19 4666 
L 3928 4666 
L 3928 4134 
L 2272 4134 
L 2272 0 
L 1638 0 
L 1638 4134 
L -19 4134 
L -19 4666 
z
" transform="scale(0.015625)"/>
       <path id="DejaVuSans-69" d="M 603 3500 
L 1178 3500 
L 1178 0 
L 603 0 
L 603 3500 
z
M 603 4863 
L 1178 4863 
L 1178 4134 
L 603 4134 
L 603 4863 
z
" transform="scale(0.015625)"/>
       <path id="DejaVuSans-6d" d="M 3328 2828 
Q 3544 3216 3844 3400 
Q 4144 3584 4550 3584 
Q 5097 3584 5394 3201 
Q 5691 2819 5691 2113 
L 5691 0 
L 5113 0 
L 5113 2094 
Q 5113 2597 4934 2840 
Q 4756 3084 4391 3084 
Q 3944 3084 3684 2787 
Q 3425 2491 3425 1978 
L 3425 0 
L 2847 0 
L 2847 2094 
Q 2847 2600 2669 2842 
Q 2491 3084 2119 3084 
Q 1678 3084 1418 2786 
Q 1159 2488 1159 1978 
L 1159 0 
L 581 0 
L 581 3500 
L 1159 3500 
L 1159 2956 
Q 1356 3278 1631 3431 
Q 1906 3584 2284 3584 
Q 2666 3584 2933 3390 
Q 3200 3197 3328 2828 
z
" transform="scale(0.015625)"/>
       <path id="DejaVuSans-65" d="M 3597 1894 
L 3597 1613 
L 953 1613 
Q 991 1019 1311 708 
Q 1631 397 2203 397 
Q 2534 397 2845 478 
Q 3156 559 3463 722 
L 3463 178 
Q 3153 47 2828 -22 
Q 2503 -91 2169 -91 
Q 1331 -91 842 396 
Q 353 884 353 1716 
Q 353 2575 817 3079 
Q 1281 3584 2069 3584 
Q 2775 3584 3186 3129 
Q 3597 2675 3597 1894 
z
M 3022 2063 
Q 3016 2534 2758 2815 
Q 2500 3097 2075 3097 
Q 1594 3097 1305 2825 
Q 1016 2553 972 2059 
L 3022 2063 
z
" transform="scale(0.015625)"/>
       <path id="DejaVuSans-20" transform="scale(0.015625)"/>
       <path id="DejaVuSans-5b" d="M 550 4863 
L 1875 4863 
L 1875 4416 
L 1125 4416 
L 1125 -397 
L 1875 -397 
L 1875 -844 
L 550 -844 
L 550 4863 
z
" transform="scale(0.015625)"/>
       <path id="DejaVuSans-73" d="M 2834 3397 
L 2834 2853 
Q 2591 2978 2328 3040 
Q 2066 3103 1784 3103 
Q 1356 3103 1142 2972 
Q 928 2841 928 2578 
Q 928 2378 1081 2264 
Q 1234 2150 1697 2047 
L 1894 2003 
Q 2506 1872 2764 1633 
Q 3022 1394 3022 966 
Q 3022 478 2636 193 
Q 2250 -91 1575 -91 
Q 1294 -91 989 -36 
Q 684 19 347 128 
L 347 722 
Q 666 556 975 473 
Q 1284 391 1588 391 
Q 1994 391 2212 530 
Q 2431 669 2431 922 
Q 2431 1156 2273 1281 
Q 2116 1406 1581 1522 
L 1381 1569 
Q 847 1681 609 1914 
Q 372 2147 372 2553 
Q 372 3047 722 3315 
Q 1072 3584 1716 3584 
Q 2034 3584 2315 3537 
Q 2597 3491 2834 3397 
z
" transform="scale(0.015625)"/>
       <path id="DejaVuSans-5d" d="M 1947 4863 
L 1947 -844 
L 622 -844 
L 622 -397 
L 1369 -397 
L 1369 4416 
L 622 4416 
L 622 4863 
L 1947 4863 
z
" transform="scale(0.015625)"/>
      </defs>
      <use xlink:href="#DejaVuSans-54"/>
      <use xlink:href="#DejaVuSans-69" x="57.958984"/>
      <use xlink:href="#DejaVuSans-6d" x="85.742188"/>
      <use xlink:href="#DejaVuSans-65" x="183.154297"/>
      <use xlink:href="#DejaVuSans-20" x="244.677734"/>
      <use xlink:href="#DejaVuSans-5b" x="276.464844"/>
      <use xlink:href="#DejaVuSans-6d" x="315.478516"/>
      <use xlink:href="#DejaVuSans-73" x="412.890625"/>
      <use xlink:href="#DejaVuSans-5d" x="464.990234"/>
     </g>
    </g>
   </g>
   <g id="matplotlib.axis_2">
    <g id="ytick_1">
     <g id="line2d_6">
      <defs>
       <path id="mfb0f067572" d="M 0 0 
L -3.5 0 
" style="stroke: #000000; stroke-width: 0.8"/>
      </defs>
      <g>
       <use xlink:href="#mfb0f067572" x="121.395781" y="287.029403" style="stroke: #000000; stroke-width: 0.8"/>
      </g>
     </g>
     <g id="text_7">
      <!-- −200 -->
      <g transform="translate(40.234375 297.287294) scale(0.27 -0.27)">
       <defs>
        <path id="DejaVuSans-2212" d="M 678 2272 
L 4684 2272 
L 4684 1741 
L 678 1741 
L 678 2272 
z
" transform="scale(0.015625)"/>
       </defs>
       <use xlink:href="#DejaVuSans-2212"/>
       <use xlink:href="#DejaVuSans-32" x="83.789062"/>
       <use xlink:href="#DejaVuSans-30" x="147.412109"/>
       <use xlink:href="#DejaVuSans-30" x="211.035156"/>
      </g>
     </g>
    </g>
    <g id="ytick_2">
     <g id="line2d_7">
      <g>
       <use xlink:href="#mfb0f067572" x="121.395781" y="224.969701" style="stroke: #000000; stroke-width: 0.8"/>
      </g>
     </g>
     <g id="text_8">
      <!-- −100 -->
      <g transform="translate(40.234375 235.227592) scale(0.27 -0.27)">
       <use xlink:href="#DejaVuSans-2212"/>
       <use xlink:href="#DejaVuSans-31" x="83.789062"/>
       <use xlink:href="#DejaVuSans-30" x="147.412109"/>
       <use xlink:href="#DejaVuSans-30" x="211.035156"/>
      </g>
     </g>
    </g>
    <g id="ytick_3">
     <g id="line2d_8">
      <g>
       <use xlink:href="#mfb0f067572" x="121.395781" y="162.91" style="stroke: #000000; stroke-width: 0.8"/>
      </g>
     </g>
     <g id="text_9">
      <!-- 0 -->
      <g transform="translate(97.217031 173.167891) scale(0.27 -0.27)">
       <use xlink:href="#DejaVuSans-30"/>
      </g>
     </g>
    </g>
    <g id="ytick_4">
     <g id="line2d_9">
      <g>
       <use xlink:href="#mfb0f067572" x="121.395781" y="100.850299" style="stroke: #000000; stroke-width: 0.8"/>
      </g>
     </g>
     <g id="text_10">
      <!-- 100 -->
      <g transform="translate(62.859531 111.108189) scale(0.27 -0.27)">
       <use xlink:href="#DejaVuSans-31"/>
       <use xlink:href="#DejaVuSans-30" x="63.623047"/>
       <use xlink:href="#DejaVuSans-30" x="127.246094"/>
      </g>
     </g>
    </g>
    <g id="ytick_5">
     <g id="line2d_10">
      <g>
       <use xlink:href="#mfb0f067572" x="121.395781" y="38.790597" style="stroke: #000000; stroke-width: 0.8"/>
      </g>
     </g>
     <g id="text_11">
      <!-- 200 -->
      <g transform="translate(62.859531 49.048488) scale(0.27 -0.27)">
       <use xlink:href="#DejaVuSans-32"/>
       <use xlink:href="#DejaVuSans-30" x="63.623047"/>
       <use xlink:href="#DejaVuSans-30" x="127.246094"/>
      </g>
     </g>
    </g>
    <g id="text_12">
     <!-- mT/m -->
     <g transform="translate(29.995313 206.346719) rotate(-90) scale(0.3 -0.3)">
      <defs>
       <path id="DejaVuSans-2f" d="M 1625 4666 
L 2156 4666 
L 531 -594 
L 0 -594 
L 1625 4666 
z
" transform="scale(0.015625)"/>
      </defs>
      <use xlink:href="#DejaVuSans-6d"/>
      <use xlink:href="#DejaVuSans-54" x="97.412109"/>
      <use xlink:href="#DejaVuSans-2f" x="158.496094"/>
      <use xlink:href="#DejaVuSans-6d" x="192.1875"/>
     </g>
    </g>
   </g>
   <g id="line2d_11">
    <path d="M 121.395781 162.91 
L 531.354965 162.91 
" clip-path="url(#pd1c9a1e526)" style="fill: none; stroke: #d3d3d3; stroke-opacity: 0.8; stroke-width: 1.5; stroke-linecap: square"/>
   </g>
   <g id="line2d_12">
    <path d="M 121.395781 162.91 
L 131.644761 162.91 
L 133.011291 209.125409 
L 133.694557 223.612423 
L 134.377822 231.561583 
L 139.843945 276.544644 
L 140.52721 280.001665 
L 146.676598 279.954677 
L 150.092924 279.872985 
L 153.509251 279.742106 
L 154.192516 267.846126 
L 154.875781 243.278232 
L 156.242312 215.540929 
L 157.608842 190.920234 
L 158.292108 183.15726 
L 167.174557 111.719875 
L 175.37374 46.675843 
L 176.057006 45.985349 
L 177.423536 45.678937 
L 192.455373 45.586554 
L 211.586802 46.032631 
L 212.270067 47.338475 
L 212.953332 50.695843 
L 213.636598 75.28128 
L 214.319863 92.431115 
L 216.369659 130.419641 
L 227.301904 217.583164 
L 234.817822 277.012942 
L 237.550883 277.010037 
L 238.234149 252.442993 
L 238.917414 236.941547 
L 240.96721 203.277868 
L 243.700271 162.91 
L 267.614557 162.91 
L 268.297822 138.897568 
L 269.664353 115.417641 
L 271.030883 94.168054 
L 272.397414 82.093375 
L 276.497006 48.946811 
L 277.180271 45.219899 
L 286.06272 45.317973 
L 288.112516 45.371948 
L 290.162312 45.454962 
L 292.212108 45.617263 
L 297.67823 45.714891 
L 300.411291 45.80043 
L 301.777822 45.826504 
L 302.461087 52.304884 
L 303.144353 76.36059 
L 304.510883 102.786537 
L 306.560679 136.007337 
L 318.176189 228.626991 
L 324.325577 277.288519 
L 325.008842 279.733581 
L 325.692108 280.117186 
L 329.108434 280.184025 
L 334.574557 279.856903 
L 335.257822 273.323735 
L 335.941087 249.919023 
L 337.990883 215.300087 
L 340.723945 174.086881 
L 342.090475 162.91 
L 342.090475 162.91 
" clip-path="url(#pd1c9a1e526)" style="fill: none; stroke: #000000; stroke-width: 5; stroke-linecap: square"/>
   </g>
   <g id="line2d_13">
    <path d="M 342.090475 162.91 
L 344.037781 162.91 
L 344.823536 184.261831 
L 344.8577 183.33349 
L 346.497536 141.558169 
L 347.180802 141.558169 
L 348.854802 184.261831 
L 349.538067 184.261831 
L 351.212067 141.558169 
L 351.895332 141.558169 
L 353.569332 184.261831 
L 354.252598 184.261831 
L 355.926598 141.558169 
L 356.609863 141.558169 
L 358.283863 184.261831 
L 358.967128 184.261831 
L 360.641128 141.558169 
L 361.324393 141.558169 
L 362.998393 184.261831 
L 363.681659 184.261831 
L 365.355659 141.558169 
L 366.038924 141.558169 
L 367.712924 184.261831 
L 368.396189 184.261831 
L 370.070189 141.558169 
L 370.753455 141.558169 
L 372.427455 184.261831 
L 373.11072 184.261831 
L 374.78472 141.558169 
L 375.467985 141.558169 
L 377.141985 184.261831 
L 377.825251 184.261831 
L 379.499251 141.558169 
L 380.182516 141.558169 
L 381.856516 184.261831 
L 382.539781 184.261831 
L 384.213781 141.558169 
L 384.897047 141.558169 
L 386.571047 184.261831 
L 387.254312 184.261831 
L 388.928312 141.558169 
L 389.611577 141.558169 
L 391.285577 184.261831 
L 391.968842 184.261831 
L 393.642842 141.558169 
L 394.326108 141.558169 
L 396.000108 184.261831 
L 396.683373 184.261831 
L 398.357373 141.558169 
L 399.040638 141.558169 
L 400.714638 184.261831 
L 401.397904 184.261831 
L 403.071904 141.558169 
L 403.755169 141.558169 
L 405.429169 184.261831 
L 406.112434 184.261831 
L 407.786434 141.558169 
L 408.4697 141.558169 
L 410.1437 184.261831 
L 410.826965 184.261831 
L 412.500965 141.558169 
L 413.18423 141.558169 
L 414.85823 184.261831 
L 415.541496 184.261831 
L 417.215496 141.558169 
L 417.898761 141.558169 
L 419.572761 184.261831 
L 420.256026 184.261831 
L 421.930026 141.558169 
L 422.613291 141.558169 
L 424.287291 184.261831 
L 424.970557 184.261831 
L 426.644557 141.558169 
L 427.327822 141.558169 
L 429.001822 184.261831 
L 429.685087 184.261831 
L 431.359087 141.558169 
L 432.042353 141.558169 
L 433.716353 184.261831 
L 434.399618 184.261831 
L 436.073618 141.558169 
L 436.756883 141.558169 
L 438.430883 184.261831 
L 439.114149 184.261831 
L 440.788149 141.558169 
L 441.471414 141.558169 
L 443.145414 184.261831 
L 443.828679 184.261831 
L 445.502679 141.558169 
L 446.185945 141.558169 
L 447.859945 184.261831 
L 448.54321 184.261831 
L 450.21721 141.558169 
L 450.900475 141.558169 
L 452.574475 184.261831 
L 453.25774 184.261831 
L 454.93174 141.558169 
L 455.615006 141.558169 
L 457.289006 184.261831 
L 457.972271 184.261831 
L 459.646271 141.558169 
L 460.329536 141.558169 
L 462.003536 184.261831 
L 462.686802 184.261831 
L 464.360802 141.558169 
L 465.044067 141.558169 
L 466.718067 184.261831 
L 467.401332 184.261831 
L 469.075332 141.558169 
L 469.758598 141.558169 
L 471.432598 184.261831 
L 472.115863 184.261831 
L 473.789863 141.558169 
L 474.473128 141.558169 
L 475.293047 162.91 
L 475.293047 162.91 
" clip-path="url(#pd1c9a1e526)" style="fill: none; stroke: #000000; stroke-opacity: 0.7; stroke-width: 5; stroke-linecap: square"/>
   </g>
   <g id="line2d_14">
    <path d="M 389.215283 287.65 
L 389.215283 38.17 
" clip-path="url(#pd1c9a1e526)" style="fill: none; stroke-dasharray: 18.5,8; stroke-dashoffset: 0; stroke: #000000; stroke-width: 5"/>
   </g>
   <g id="line2d_15">
    <path d="M 121.395781 38.790597 
L 531.354965 38.790597 
" clip-path="url(#pd1c9a1e526)" style="fill: none; stroke-dasharray: 18.5,8; stroke-dashoffset: 0; stroke: #000000; stroke-opacity: 0.2; stroke-width: 5"/>
   </g>
   <g id="line2d_16">
    <path d="M 121.395781 287.029403 
L 531.354965 287.029403 
" clip-path="url(#pd1c9a1e526)" style="fill: none; stroke-dasharray: 18.5,8; stroke-dashoffset: 0; stroke: #000000; stroke-opacity: 0.2; stroke-width: 5"/>
   </g>
   <g id="line2d_17">
    <path d="M 121.395781 162.91 
L 531.354965 162.91 
" clip-path="url(#pd1c9a1e526)" style="fill: none; stroke: #000000; stroke-width: 5; stroke-linecap: square"/>
   </g>
   <g id="patch_3">
    <path d="M 121.395781 287.65 
L 121.395781 38.17 
" style="fill: none; stroke: #000000; stroke-width: 0.8; stroke-linejoin: miter; stroke-linecap: square"/>
   </g>
   <g id="patch_4">
    <path d="M 121.395781 287.65 
L 531.354965 287.65 
" style="fill: none; stroke: #000000; stroke-width: 0.8; stroke-linejoin: miter; stroke-linecap: square"/>
   </g>
   <g id="text_13">
    <!-- $G(t)$ -->
    <g transform="translate(295.175373 31.515) scale(0.32 -0.32)">
     <defs>
      <path id="DejaVuSans-Oblique-47" d="M 3494 697 
L 3738 1919 
L 2700 1919 
L 2797 2438 
L 4453 2438 
L 4050 384 
Q 3634 156 3143 32 
Q 2653 -91 2156 -91 
Q 1278 -91 783 396 
Q 288 884 288 1753 
Q 288 2475 589 3126 
Q 891 3778 1422 4213 
Q 1756 4484 2153 4617 
Q 2550 4750 3034 4750 
Q 3472 4750 3873 4639 
Q 4275 4528 4641 4306 
L 4513 3634 
Q 4231 3928 3853 4083 
Q 3475 4238 3047 4238 
Q 2550 4238 2172 4048 
Q 1794 3859 1497 3463 
Q 1244 3125 1098 2667 
Q 953 2209 953 1734 
Q 953 1081 1287 751 
Q 1622 422 2284 422 
Q 2616 422 2925 492 
Q 3234 563 3494 697 
z
" transform="scale(0.015625)"/>
      <path id="DejaVuSans-28" d="M 1984 4856 
Q 1566 4138 1362 3434 
Q 1159 2731 1159 2009 
Q 1159 1288 1364 580 
Q 1569 -128 1984 -844 
L 1484 -844 
Q 1016 -109 783 600 
Q 550 1309 550 2009 
Q 550 2706 781 3412 
Q 1013 4119 1484 4856 
L 1984 4856 
z
" transform="scale(0.015625)"/>
      <path id="DejaVuSans-Oblique-74" d="M 2706 3500 
L 2619 3053 
L 1472 3053 
L 1100 1153 
Q 1081 1047 1072 975 
Q 1063 903 1063 863 
Q 1063 663 1183 572 
Q 1303 481 1569 481 
L 2150 481 
L 2053 0 
L 1503 0 
Q 991 0 739 200 
Q 488 400 488 806 
Q 488 878 497 964 
Q 506 1050 525 1153 
L 897 3053 
L 409 3053 
L 500 3500 
L 978 3500 
L 1172 4494 
L 1747 4494 
L 1556 3500 
L 2706 3500 
z
" transform="scale(0.015625)"/>
      <path id="DejaVuSans-29" d="M 513 4856 
L 1013 4856 
Q 1481 4119 1714 3412 
Q 1947 2706 1947 2009 
Q 1947 1309 1714 600 
Q 1481 -109 1013 -844 
L 513 -844 
Q 928 -128 1133 580 
Q 1338 1288 1338 2009 
Q 1338 2731 1133 3434 
Q 928 4138 513 4856 
z
" transform="scale(0.015625)"/>
     </defs>
     <use xlink:href="#DejaVuSans-Oblique-47" transform="translate(0 0.125)"/>
     <use xlink:href="#DejaVuSans-28" transform="translate(77.490234 0.125)"/>
     <use xlink:href="#DejaVuSans-Oblique-74" transform="translate(116.503906 0.125)"/>
     <use xlink:href="#DejaVuSans-29" transform="translate(155.712891 0.125)"/>
    </g>
   </g>
   <g id="legend_1">
    <g id="patch_5">
     <path d="M 507.154965 66.77 
L 515.954965 66.77 
Q 520.354965 66.77 520.354965 62.37 
L 520.354965 53.57 
Q 520.354965 49.17 515.954965 49.17 
L 507.154965 49.17 
Q 502.754965 49.17 502.754965 53.57 
L 502.754965 62.37 
Q 502.754965 66.77 507.154965 66.77 
z
" style="fill: #ffffff; opacity: 0.8; stroke: #cccccc; stroke-linejoin: miter"/>
    </g>
   </g>
  </g>
  <g id="axes_2">
   <g id="patch_6">
    <path d="M 654.34272 287.65 
L 1064.301904 287.65 
L 1064.301904 38.17 
L 654.34272 38.17 
z
" style="fill: #ffffff"/>
   </g>
   <g id="matplotlib.axis_3">
    <g id="xtick_6">
     <g id="line2d_18">
      <g>
       <use xlink:href="#m05cf1ba2c7" x="654.34272" y="287.65" style="stroke: #000000; stroke-width: 0.8"/>
      </g>
     </g>
     <g id="text_14">
      <!-- 0 -->
      <g transform="translate(645.753345 315.165781) scale(0.27 -0.27)">
       <use xlink:href="#DejaVuSans-30"/>
      </g>
     </g>
    </g>
    <g id="xtick_7">
     <g id="line2d_19">
      <g>
       <use xlink:href="#m05cf1ba2c7" x="739.750883" y="287.65" style="stroke: #000000; stroke-width: 0.8"/>
      </g>
     </g>
     <g id="text_15">
      <!-- 25 -->
      <g transform="translate(722.572133 315.165781) scale(0.27 -0.27)">
       <use xlink:href="#DejaVuSans-32"/>
       <use xlink:href="#DejaVuSans-35" x="63.623047"/>
      </g>
     </g>
    </g>
    <g id="xtick_8">
     <g id="line2d_20">
      <g>
       <use xlink:href="#m05cf1ba2c7" x="825.159047" y="287.65" style="stroke: #000000; stroke-width: 0.8"/>
      </g>
     </g>
     <g id="text_16">
      <!-- 50 -->
      <g transform="translate(807.980297 315.165781) scale(0.27 -0.27)">
       <use xlink:href="#DejaVuSans-35"/>
       <use xlink:href="#DejaVuSans-30" x="63.623047"/>
      </g>
     </g>
    </g>
    <g id="xtick_9">
     <g id="line2d_21">
      <g>
       <use xlink:href="#m05cf1ba2c7" x="910.56721" y="287.65" style="stroke: #000000; stroke-width: 0.8"/>
      </g>
     </g>
     <g id="text_17">
      <!-- 75 -->
      <g transform="translate(893.38846 315.165781) scale(0.27 -0.27)">
       <use xlink:href="#DejaVuSans-37"/>
       <use xlink:href="#DejaVuSans-35" x="63.623047"/>
      </g>
     </g>
    </g>
    <g id="xtick_10">
     <g id="line2d_22">
      <g>
       <use xlink:href="#m05cf1ba2c7" x="995.975373" y="287.65" style="stroke: #000000; stroke-width: 0.8"/>
      </g>
     </g>
     <g id="text_18">
      <!-- 100 -->
      <g transform="translate(970.207248 315.165781) scale(0.27 -0.27)">
       <use xlink:href="#DejaVuSans-31"/>
       <use xlink:href="#DejaVuSans-30" x="63.623047"/>
       <use xlink:href="#DejaVuSans-30" x="127.246094"/>
      </g>
     </g>
    </g>
    <g id="text_19">
     <!-- Time [ms] -->
     <g transform="translate(783.724656 347.57625) scale(0.3 -0.3)">
      <use xlink:href="#DejaVuSans-54"/>
      <use xlink:href="#DejaVuSans-69" x="57.958984"/>
      <use xlink:href="#DejaVuSans-6d" x="85.742188"/>
      <use xlink:href="#DejaVuSans-65" x="183.154297"/>
      <use xlink:href="#DejaVuSans-20" x="244.677734"/>
      <use xlink:href="#DejaVuSans-5b" x="276.464844"/>
      <use xlink:href="#DejaVuSans-6d" x="315.478516"/>
      <use xlink:href="#DejaVuSans-73" x="412.890625"/>
      <use xlink:href="#DejaVuSans-5d" x="464.990234"/>
     </g>
    </g>
   </g>
   <g id="matplotlib.axis_4">
    <g id="ytick_6">
     <g id="line2d_23">
      <g>
       <use xlink:href="#mfb0f067572" x="654.34272" y="287.029403" style="stroke: #000000; stroke-width: 0.8"/>
      </g>
     </g>
     <g id="text_20">
      <!-- −200 -->
      <g transform="translate(573.181314 297.287294) scale(0.27 -0.27)">
       <use xlink:href="#DejaVuSans-2212"/>
       <use xlink:href="#DejaVuSans-32" x="83.789062"/>
       <use xlink:href="#DejaVuSans-30" x="147.412109"/>
       <use xlink:href="#DejaVuSans-30" x="211.035156"/>
      </g>
     </g>
    </g>
    <g id="ytick_7">
     <g id="line2d_24">
      <g>
       <use xlink:href="#mfb0f067572" x="654.34272" y="224.969701" style="stroke: #000000; stroke-width: 0.8"/>
      </g>
     </g>
     <g id="text_21">
      <!-- −100 -->
      <g transform="translate(573.181314 235.227592) scale(0.27 -0.27)">
       <use xlink:href="#DejaVuSans-2212"/>
       <use xlink:href="#DejaVuSans-31" x="83.789062"/>
       <use xlink:href="#DejaVuSans-30" x="147.412109"/>
       <use xlink:href="#DejaVuSans-30" x="211.035156"/>
      </g>
     </g>
    </g>
    <g id="ytick_8">
     <g id="line2d_25">
      <g>
       <use xlink:href="#mfb0f067572" x="654.34272" y="162.91" style="stroke: #000000; stroke-width: 0.8"/>
      </g>
     </g>
     <g id="text_22">
      <!-- 0 -->
      <g transform="translate(630.16397 173.167891) scale(0.27 -0.27)">
       <use xlink:href="#DejaVuSans-30"/>
      </g>
     </g>
    </g>
    <g id="ytick_9">
     <g id="line2d_26">
      <g>
       <use xlink:href="#mfb0f067572" x="654.34272" y="100.850299" style="stroke: #000000; stroke-width: 0.8"/>
      </g>
     </g>
     <g id="text_23">
      <!-- 100 -->
      <g transform="translate(595.80647 111.108189) scale(0.27 -0.27)">
       <use xlink:href="#DejaVuSans-31"/>
       <use xlink:href="#DejaVuSans-30" x="63.623047"/>
       <use xlink:href="#DejaVuSans-30" x="127.246094"/>
      </g>
     </g>
    </g>
    <g id="ytick_10">
     <g id="line2d_27">
      <g>
       <use xlink:href="#mfb0f067572" x="654.34272" y="38.790597" style="stroke: #000000; stroke-width: 0.8"/>
      </g>
     </g>
     <g id="text_24">
      <!-- 200 -->
      <g transform="translate(595.80647 49.048488) scale(0.27 -0.27)">
       <use xlink:href="#DejaVuSans-32"/>
       <use xlink:href="#DejaVuSans-30" x="63.623047"/>
       <use xlink:href="#DejaVuSans-30" x="127.246094"/>
      </g>
     </g>
    </g>
    <g id="text_25">
     <!-- T/m/s -->
     <g transform="translate(562.942251 204.602969) rotate(-90) scale(0.3 -0.3)">
      <use xlink:href="#DejaVuSans-54"/>
      <use xlink:href="#DejaVuSans-2f" x="61.083984"/>
      <use xlink:href="#DejaVuSans-6d" x="94.775391"/>
      <use xlink:href="#DejaVuSans-2f" x="192.1875"/>
      <use xlink:href="#DejaVuSans-73" x="225.878906"/>
     </g>
    </g>
   </g>
   <g id="line2d_28">
    <path d="M 654.34272 162.91 
L 1064.301904 162.91 
" clip-path="url(#p5460d1b57d)" style="fill: none; stroke: #d3d3d3; stroke-opacity: 0.8; stroke-width: 1.5; stroke-linecap: square"/>
   </g>
   <g id="line2d_29">
    <path d="M 654.34272 162.91 
L 663.908434 162.91 
L 664.5917 286.041796 
L 665.274965 270.855247 
L 666.641496 202.6558 
L 667.324761 191.466984 
L 671.424353 190.7083 
L 672.107618 190.677371 
L 672.790883 180.195101 
L 673.474149 162.942324 
L 675.523945 162.857048 
L 678.940271 162.836308 
L 679.623536 162.730303 
L 680.306802 162.901496 
L 680.990067 162.791614 
L 682.356598 162.846298 
L 683.723128 162.869297 
L 684.406393 162.585144 
L 685.089659 162.863126 
L 685.772924 162.76649 
L 687.139455 40.070528 
L 687.82272 89.446742 
L 688.505985 97.686743 
L 689.872516 102.565992 
L 690.555781 124.095128 
L 691.239047 135.083398 
L 695.338638 135.471328 
L 700.804761 135.729675 
L 703.537822 135.822952 
L 706.270883 135.850586 
L 707.637414 135.867635 
L 708.320679 159.457532 
L 709.003945 161.93764 
L 710.370475 162.868936 
L 711.737006 162.914893 
L 713.103536 162.854508 
L 715.836598 162.923337 
L 717.886393 162.888443 
L 719.252924 162.875899 
L 719.936189 162.838432 
L 721.30272 162.891988 
L 721.985985 162.940483 
L 723.352516 162.875332 
L 724.035781 162.984554 
L 724.719047 162.885512 
L 725.402312 162.991412 
L 726.768842 162.876994 
L 728.135373 163.020876 
L 728.818638 162.871263 
L 730.185169 163.009367 
L 730.868434 162.922615 
L 731.5517 163.006731 
L 732.234965 162.912683 
L 732.91823 163.046415 
L 733.601496 162.904072 
L 734.284761 163.009329 
L 734.968026 162.908711 
L 735.651291 163.093111 
L 736.334557 162.930951 
L 737.017822 162.946758 
L 737.701087 163.102805 
L 738.384353 162.915958 
L 739.067618 163.186938 
L 740.434149 162.895943 
L 741.117414 163.069232 
L 741.800679 163.096225 
L 742.483945 163.279671 
L 743.16721 162.945259 
L 743.850475 162.932466 
L 744.53374 169.439223 
L 745.217006 179.696839 
L 745.900271 285.837187 
L 746.583536 248.659174 
L 747.266802 229.054941 
L 747.950067 225.801629 
L 748.633332 223.816057 
L 749.316598 190.422779 
L 751.366393 190.254012 
L 760.248842 189.952137 
L 762.981904 189.94518 
L 763.665169 189.874277 
L 764.348434 189.971468 
L 765.0317 189.852332 
L 765.714965 189.950501 
L 767.081496 189.847241 
L 767.764761 162.98546 
L 768.448026 163.055567 
L 769.131291 162.751603 
L 769.814557 162.832846 
L 770.497822 40.074781 
L 771.181087 85.40277 
L 771.864353 104.064498 
L 772.547618 107.022077 
L 773.230883 109.325028 
L 774.597414 112.034096 
L 775.280679 113.286571 
L 775.963945 113.67743 
L 776.64721 162.91 
L 799.87823 162.91 
L 800.561496 42.847838 
L 801.244761 102.18301 
L 801.928026 106.237359 
L 802.611291 108.846443 
L 803.294557 110.725621 
L 803.977822 130.413935 
L 804.661087 135.032669 
L 808.760679 135.452838 
L 809.443945 144.275442 
L 810.12721 162.912237 
L 812.860271 162.92076 
L 813.543536 163.011385 
L 814.910067 162.918585 
L 815.593332 163.208638 
L 816.276598 162.915418 
L 818.326393 162.927636 
L 819.009659 163.146386 
L 819.692924 162.918401 
L 821.059455 162.920446 
L 821.74272 163.28929 
L 822.425985 162.935336 
L 823.109251 163.286914 
L 823.792516 162.918978 
L 824.475781 163.335611 
L 825.159047 162.921463 
L 827.208842 163.122544 
L 827.892108 162.93812 
L 829.258638 162.973856 
L 829.941904 162.914245 
L 830.625169 163.155791 
L 831.308434 162.934701 
L 834.041496 162.933086 
L 834.724761 195.301897 
L 835.408026 283.188532 
L 836.091291 234.183019 
L 836.774557 223.766715 
L 837.457822 221.233327 
L 838.141087 219.537673 
L 838.824353 214.062999 
L 839.507618 190.408616 
L 841.557414 190.224206 
L 842.240679 190.320558 
L 843.60721 190.138986 
L 844.290475 190.232172 
L 844.97374 190.039712 
L 845.657006 190.188245 
L 846.340271 189.984398 
L 847.023536 190.150069 
L 847.706802 189.938533 
L 848.390067 190.119574 
L 849.073332 189.909889 
L 849.756598 190.075422 
L 850.439863 189.909395 
L 851.123128 190.01718 
L 851.806393 189.913538 
L 853.172924 189.923841 
L 853.856189 189.95408 
L 854.539455 189.871044 
L 855.22272 189.99233 
L 855.905985 189.84512 
L 856.589251 190.009635 
L 857.272516 175.135313 
L 857.955781 164.828023 
L 858.639047 163.028741 
L 859.322312 163.118616 
L 860.005577 162.867432 
L 861.372108 162.930974 
L 862.055373 162.667287 
L 862.738638 163.114019 
L 863.421904 162.592404 
L 864.105169 162.544743 
L 864.788434 162.767681 
L 865.4717 162.508036 
L 866.154965 162.804599 
L 866.83823 162.645621 
L 867.521496 130.244158 
L 868.204761 45.886442 
L 868.888026 102.931862 
L 869.571291 103.994269 
L 870.254557 108.709188 
L 870.937822 109.744098 
L 871.621087 111.446532 
L 872.304353 112.10737 
L 872.987618 112.275971 
L 873.670883 134.690407 
L 874.354149 135.245187 
L 874.354149 135.245187 
" clip-path="url(#p5460d1b57d)" style="fill: none; stroke: #000000; stroke-width: 5; stroke-linecap: square"/>
   </g>
   <g id="line2d_30">
    <path d="M 654.34272 38.790597 
L 1064.301904 38.790597 
" clip-path="url(#p5460d1b57d)" style="fill: none; stroke-dasharray: 18.5,8; stroke-dashoffset: 0; stroke: #000000; stroke-opacity: 0.2; stroke-width: 5"/>
   </g>
   <g id="line2d_31">
    <path d="M 654.34272 287.029403 
L 1064.301904 287.029403 
" clip-path="url(#p5460d1b57d)" style="fill: none; stroke-dasharray: 18.5,8; stroke-dashoffset: 0; stroke: #000000; stroke-opacity: 0.2; stroke-width: 5"/>
   </g>
   <g id="line2d_32">
    <path d="M 654.34272 162.91 
L 1064.301904 162.91 
" clip-path="url(#p5460d1b57d)" style="fill: none; stroke: #000000; stroke-width: 5; stroke-linecap: square"/>
   </g>
   <g id="patch_7">
    <path d="M 654.34272 287.65 
L 654.34272 38.17 
" style="fill: none; stroke: #000000; stroke-width: 0.8; stroke-linejoin: miter; stroke-linecap: square"/>
   </g>
   <g id="patch_8">
    <path d="M 654.34272 287.65 
L 1064.301904 287.65 
" style="fill: none; stroke: #000000; stroke-width: 0.8; stroke-linejoin: miter; stroke-linecap: square"/>
   </g>
   <g id="text_26">
    <!-- $S(t)$ -->
    <g transform="translate(830.362312 31.515) scale(0.32 -0.32)">
     <defs>
      <path id="DejaVuSans-Oblique-53" d="M 3859 4513 
L 3738 3897 
Q 3422 4066 3111 4152 
Q 2800 4238 2509 4238 
Q 1944 4238 1609 3991 
Q 1275 3744 1275 3334 
Q 1275 3109 1398 2989 
Q 1522 2869 2034 2731 
L 2413 2638 
Q 3053 2472 3303 2217 
Q 3553 1963 3553 1503 
Q 3553 797 2998 353 
Q 2444 -91 1538 -91 
Q 1166 -91 791 -17 
Q 416 56 38 206 
L 166 856 
Q 513 641 861 531 
Q 1209 422 1556 422 
Q 2147 422 2503 684 
Q 2859 947 2859 1369 
Q 2859 1650 2717 1795 
Q 2575 1941 2106 2059 
L 1728 2156 
Q 1081 2325 845 2545 
Q 609 2766 609 3163 
Q 609 3859 1145 4304 
Q 1681 4750 2541 4750 
Q 2875 4750 3203 4690 
Q 3531 4631 3859 4513 
z
" transform="scale(0.015625)"/>
     </defs>
     <use xlink:href="#DejaVuSans-Oblique-53" transform="translate(0 0.125)"/>
     <use xlink:href="#DejaVuSans-28" transform="translate(63.476562 0.125)"/>
     <use xlink:href="#DejaVuSans-Oblique-74" transform="translate(102.490234 0.125)"/>
     <use xlink:href="#DejaVuSans-29" transform="translate(141.699219 0.125)"/>
    </g>
   </g>
  </g>
  <g id="axes_3">
   <g id="patch_9">
    <path d="M 1187.289659 287.65 
L 1597.248842 287.65 
L 1597.248842 38.17 
L 1187.289659 38.17 
z
" style="fill: #ffffff"/>
   </g>
   <g id="matplotlib.axis_5">
    <g id="xtick_11">
     <g id="line2d_33">
      <g>
       <use xlink:href="#m05cf1ba2c7" x="1187.289659" y="287.65" style="stroke: #000000; stroke-width: 0.8"/>
      </g>
     </g>
     <g id="text_27">
      <!-- 0 -->
      <g transform="translate(1178.700284 315.165781) scale(0.27 -0.27)">
       <use xlink:href="#DejaVuSans-30"/>
      </g>
     </g>
    </g>
    <g id="xtick_12">
     <g id="line2d_34">
      <g>
       <use xlink:href="#m05cf1ba2c7" x="1272.697822" y="287.65" style="stroke: #000000; stroke-width: 0.8"/>
      </g>
     </g>
     <g id="text_28">
      <!-- 25 -->
      <g transform="translate(1255.519072 315.165781) scale(0.27 -0.27)">
       <use xlink:href="#DejaVuSans-32"/>
       <use xlink:href="#DejaVuSans-35" x="63.623047"/>
      </g>
     </g>
    </g>
    <g id="xtick_13">
     <g id="line2d_35">
      <g>
       <use xlink:href="#m05cf1ba2c7" x="1358.105985" y="287.65" style="stroke: #000000; stroke-width: 0.8"/>
      </g>
     </g>
     <g id="text_29">
      <!-- 50 -->
      <g transform="translate(1340.927235 315.165781) scale(0.27 -0.27)">
       <use xlink:href="#DejaVuSans-35"/>
       <use xlink:href="#DejaVuSans-30" x="63.623047"/>
      </g>
     </g>
    </g>
    <g id="xtick_14">
     <g id="line2d_36">
      <g>
       <use xlink:href="#m05cf1ba2c7" x="1443.514149" y="287.65" style="stroke: #000000; stroke-width: 0.8"/>
      </g>
     </g>
     <g id="text_30">
      <!-- 75 -->
      <g transform="translate(1426.335399 315.165781) scale(0.27 -0.27)">
       <use xlink:href="#DejaVuSans-37"/>
       <use xlink:href="#DejaVuSans-35" x="63.623047"/>
      </g>
     </g>
    </g>
    <g id="xtick_15">
     <g id="line2d_37">
      <g>
       <use xlink:href="#m05cf1ba2c7" x="1528.922312" y="287.65" style="stroke: #000000; stroke-width: 0.8"/>
      </g>
     </g>
     <g id="text_31">
      <!-- 100 -->
      <g transform="translate(1503.154187 315.165781) scale(0.27 -0.27)">
       <use xlink:href="#DejaVuSans-31"/>
       <use xlink:href="#DejaVuSans-30" x="63.623047"/>
       <use xlink:href="#DejaVuSans-30" x="127.246094"/>
      </g>
     </g>
    </g>
    <g id="text_32">
     <!-- Time [ms] -->
     <g transform="translate(1316.671594 347.57625) scale(0.3 -0.3)">
      <use xlink:href="#DejaVuSans-54"/>
      <use xlink:href="#DejaVuSans-69" x="57.958984"/>
      <use xlink:href="#DejaVuSans-6d" x="85.742188"/>
      <use xlink:href="#DejaVuSans-65" x="183.154297"/>
      <use xlink:href="#DejaVuSans-20" x="244.677734"/>
      <use xlink:href="#DejaVuSans-5b" x="276.464844"/>
      <use xlink:href="#DejaVuSans-6d" x="315.478516"/>
      <use xlink:href="#DejaVuSans-73" x="412.890625"/>
      <use xlink:href="#DejaVuSans-5d" x="464.990234"/>
     </g>
    </g>
   </g>
   <g id="matplotlib.axis_6">
    <g id="ytick_11">
     <g id="line2d_38">
      <g>
       <use xlink:href="#mfb0f067572" x="1187.289659" y="287.65" style="stroke: #000000; stroke-width: 0.8"/>
      </g>
     </g>
     <g id="text_33">
      <!-- 0.00 -->
      <g transform="translate(1120.172471 297.907891) scale(0.27 -0.27)">
       <defs>
        <path id="DejaVuSans-2e" d="M 684 794 
L 1344 794 
L 1344 0 
L 684 0 
L 684 794 
z
" transform="scale(0.015625)"/>
       </defs>
       <use xlink:href="#DejaVuSans-30"/>
       <use xlink:href="#DejaVuSans-2e" x="63.623047"/>
       <use xlink:href="#DejaVuSans-30" x="95.410156"/>
       <use xlink:href="#DejaVuSans-30" x="159.033203"/>
      </g>
     </g>
    </g>
    <g id="ytick_12">
     <g id="line2d_39">
      <g>
       <use xlink:href="#mfb0f067572" x="1187.289659" y="225.28" style="stroke: #000000; stroke-width: 0.8"/>
      </g>
     </g>
     <g id="text_34">
      <!-- 0.25 -->
      <g transform="translate(1120.172471 235.537891) scale(0.27 -0.27)">
       <use xlink:href="#DejaVuSans-30"/>
       <use xlink:href="#DejaVuSans-2e" x="63.623047"/>
       <use xlink:href="#DejaVuSans-32" x="95.410156"/>
       <use xlink:href="#DejaVuSans-35" x="159.033203"/>
      </g>
     </g>
    </g>
    <g id="ytick_13">
     <g id="line2d_40">
      <g>
       <use xlink:href="#mfb0f067572" x="1187.289659" y="162.91" style="stroke: #000000; stroke-width: 0.8"/>
      </g>
     </g>
     <g id="text_35">
      <!-- 0.50 -->
      <g transform="translate(1120.172471 173.167891) scale(0.27 -0.27)">
       <use xlink:href="#DejaVuSans-30"/>
       <use xlink:href="#DejaVuSans-2e" x="63.623047"/>
       <use xlink:href="#DejaVuSans-35" x="95.410156"/>
       <use xlink:href="#DejaVuSans-30" x="159.033203"/>
      </g>
     </g>
    </g>
    <g id="ytick_14">
     <g id="line2d_41">
      <g>
       <use xlink:href="#mfb0f067572" x="1187.289659" y="100.54" style="stroke: #000000; stroke-width: 0.8"/>
      </g>
     </g>
     <g id="text_36">
      <!-- 0.75 -->
      <g transform="translate(1120.172471 110.797891) scale(0.27 -0.27)">
       <use xlink:href="#DejaVuSans-30"/>
       <use xlink:href="#DejaVuSans-2e" x="63.623047"/>
       <use xlink:href="#DejaVuSans-37" x="95.410156"/>
       <use xlink:href="#DejaVuSans-35" x="159.033203"/>
      </g>
     </g>
    </g>
    <g id="ytick_15">
     <g id="line2d_42">
      <g>
       <use xlink:href="#mfb0f067572" x="1187.289659" y="38.17" style="stroke: #000000; stroke-width: 0.8"/>
      </g>
     </g>
     <g id="text_37">
      <!-- 1.00 -->
      <g transform="translate(1120.172471 48.427891) scale(0.27 -0.27)">
       <use xlink:href="#DejaVuSans-31"/>
       <use xlink:href="#DejaVuSans-2e" x="63.623047"/>
       <use xlink:href="#DejaVuSans-30" x="95.410156"/>
       <use xlink:href="#DejaVuSans-30" x="159.033203"/>
      </g>
     </g>
    </g>
    <g id="text_38">
     <!-- unitless -->
     <g transform="translate(1109.933409 220.995156) rotate(-90) scale(0.3 -0.3)">
      <defs>
       <path id="DejaVuSans-75" d="M 544 1381 
L 544 3500 
L 1119 3500 
L 1119 1403 
Q 1119 906 1312 657 
Q 1506 409 1894 409 
Q 2359 409 2629 706 
Q 2900 1003 2900 1516 
L 2900 3500 
L 3475 3500 
L 3475 0 
L 2900 0 
L 2900 538 
Q 2691 219 2414 64 
Q 2138 -91 1772 -91 
Q 1169 -91 856 284 
Q 544 659 544 1381 
z
M 1991 3584 
L 1991 3584 
z
" transform="scale(0.015625)"/>
       <path id="DejaVuSans-6e" d="M 3513 2113 
L 3513 0 
L 2938 0 
L 2938 2094 
Q 2938 2591 2744 2837 
Q 2550 3084 2163 3084 
Q 1697 3084 1428 2787 
Q 1159 2491 1159 1978 
L 1159 0 
L 581 0 
L 581 3500 
L 1159 3500 
L 1159 2956 
Q 1366 3272 1645 3428 
Q 1925 3584 2291 3584 
Q 2894 3584 3203 3211 
Q 3513 2838 3513 2113 
z
" transform="scale(0.015625)"/>
       <path id="DejaVuSans-74" d="M 1172 4494 
L 1172 3500 
L 2356 3500 
L 2356 3053 
L 1172 3053 
L 1172 1153 
Q 1172 725 1289 603 
Q 1406 481 1766 481 
L 2356 481 
L 2356 0 
L 1766 0 
Q 1100 0 847 248 
Q 594 497 594 1153 
L 594 3053 
L 172 3053 
L 172 3500 
L 594 3500 
L 594 4494 
L 1172 4494 
z
" transform="scale(0.015625)"/>
       <path id="DejaVuSans-6c" d="M 603 4863 
L 1178 4863 
L 1178 0 
L 603 0 
L 603 4863 
z
" transform="scale(0.015625)"/>
      </defs>
      <use xlink:href="#DejaVuSans-75"/>
      <use xlink:href="#DejaVuSans-6e" x="63.378906"/>
      <use xlink:href="#DejaVuSans-69" x="126.757812"/>
      <use xlink:href="#DejaVuSans-74" x="154.541016"/>
      <use xlink:href="#DejaVuSans-6c" x="193.75"/>
      <use xlink:href="#DejaVuSans-65" x="221.533203"/>
      <use xlink:href="#DejaVuSans-73" x="283.056641"/>
      <use xlink:href="#DejaVuSans-73" x="335.15625"/>
     </g>
    </g>
   </g>
   <g id="line2d_43">
    <path d="M 1187.289659 287.65 
L 1597.248842 287.65 
" clip-path="url(#pf6acdc1752)" style="fill: none; stroke: #d3d3d3; stroke-opacity: 0.8; stroke-width: 1.5; stroke-linecap: square"/>
   </g>
   <g id="line2d_44">
    <path d="M 1187.289659 287.65 
L 1197.538638 287.65 
L 1198.221904 146.430513 
L 1198.905169 82.000886 
L 1199.588434 82.140348 
L 1200.954965 144.837457 
L 1201.63823 160.123223 
L 1202.321496 168.380177 
L 1203.004761 172.937998 
L 1203.688026 175.52839 
L 1204.371291 176.957353 
L 1205.054557 177.81437 
L 1205.737822 178.181117 
L 1206.421087 190.227153 
L 1207.104353 216.782891 
L 1207.787618 232.281932 
L 1208.470883 241.79528 
L 1209.154149 248.122287 
L 1209.837414 252.522395 
L 1210.520679 255.740985 
L 1211.203945 258.188716 
L 1211.88721 260.211302 
L 1212.570475 261.786745 
L 1213.937006 264.127293 
L 1215.303536 265.868346 
L 1216.670067 267.17926 
L 1217.353332 267.766447 
L 1218.036598 268.098482 
L 1218.719863 268.667778 
L 1219.403128 269.077278 
L 1220.086393 201.932476 
L 1220.769659 90.0146 
L 1221.452924 80.311022 
L 1222.136189 80.440212 
L 1222.819455 80.240366 
L 1223.50272 80.448934 
L 1224.869251 127.52042 
L 1225.552516 140.832112 
L 1226.235781 148.433772 
L 1226.919047 152.992998 
L 1227.602312 155.834786 
L 1228.285577 157.64212 
L 1228.968842 158.84873 
L 1229.652108 159.635638 
L 1230.335373 160.116028 
L 1231.018638 160.414494 
L 1232.385169 160.550006 
L 1233.7517 160.282178 
L 1235.801496 159.502211 
L 1238.534557 158.128202 
L 1241.267618 156.573715 
L 1241.950883 183.220097 
L 1242.634149 201.336566 
L 1243.317414 212.761499 
L 1244.000679 220.719807 
L 1244.683945 226.194815 
L 1245.36721 230.189555 
L 1246.050475 233.201418 
L 1247.417006 237.679845 
L 1248.783536 240.885342 
L 1250.150067 243.475379 
L 1252.199863 246.49517 
L 1254.249659 248.89949 
L 1256.299455 251.001077 
L 1260.399047 254.66857 
L 1265.865169 258.698976 
L 1266.548434 259.051404 
L 1267.2317 259.608444 
L 1267.914965 259.995268 
L 1268.59823 260.518877 
L 1269.281496 260.790489 
L 1270.648026 261.768791 
L 1271.331291 262.025921 
L 1272.014557 262.558904 
L 1272.697822 262.720112 
L 1274.064353 263.743113 
L 1275.430883 264.301063 
L 1276.114149 264.4075 
L 1277.480679 265.497664 
L 1278.163945 258.467513 
L 1278.84721 242.773615 
L 1279.530475 111.918227 
L 1280.21374 78.355851 
L 1280.897006 78.118014 
L 1281.580271 78.406508 
L 1282.263536 78.251671 
L 1282.946802 114.392318 
L 1283.630067 133.752185 
L 1284.313332 144.408123 
L 1284.996598 150.580613 
L 1285.679863 154.270912 
L 1286.363128 156.555348 
L 1287.046393 158.037091 
L 1287.729659 158.971043 
L 1288.412924 159.525724 
L 1289.096189 159.921192 
L 1290.46272 160.101563 
L 1291.145985 160.042531 
L 1293.195781 159.398593 
L 1294.562312 158.801483 
L 1297.295373 157.387275 
L 1297.978638 156.921715 
L 1298.661904 156.617895 
L 1300.028434 155.774602 
L 1300.7117 155.450675 
L 1301.394965 185.904393 
L 1302.07823 203.311466 
L 1302.761496 214.281488 
L 1303.444761 221.34996 
L 1304.128026 109.890505 
L 1304.811291 78.190233 
L 1305.494557 77.87904 
L 1306.177822 77.846426 
L 1306.861087 77.981799 
L 1308.227618 77.641292 
L 1308.910883 77.757492 
L 1309.594149 77.28149 
L 1310.277414 132.648834 
L 1310.960679 164.030314 
L 1311.643945 182.878674 
L 1312.32721 194.975989 
L 1313.010475 203.283623 
L 1313.69374 209.351222 
L 1314.377006 214.01504 
L 1315.060271 217.745453 
L 1316.426802 223.41632 
L 1317.793332 227.595945 
L 1319.159863 230.866661 
L 1320.526393 233.551669 
L 1321.892924 235.846306 
L 1323.94272 238.812112 
L 1325.992516 241.410063 
L 1328.725577 244.512656 
L 1332.141904 248.001 
L 1333.508434 249.302352 
L 1334.1917 112.236391 
L 1334.874965 101.102834 
L 1335.55823 96.386093 
L 1336.241496 94.155852 
L 1336.924761 92.976639 
L 1337.608026 113.212426 
L 1338.291291 128.878799 
L 1338.974557 137.393242 
L 1339.657822 142.232418 
L 1340.341087 145.091627 
L 1341.024353 146.86688 
L 1341.707618 147.988938 
L 1342.390883 148.74348 
L 1343.074149 159.298226 
L 1343.757414 186.765565 
L 1344.440679 202.863821 
L 1345.123945 212.938005 
L 1345.80721 219.707942 
L 1346.490475 224.559452 
L 1347.17374 228.334199 
L 1347.857006 231.200013 
L 1348.540271 233.579413 
L 1349.906802 237.283045 
L 1351.273332 240.174002 
L 1351.956598 241.39541 
L 1354.689659 245.351871 
L 1355.372924 245.955059 
L 1356.056189 246.880984 
L 1356.739455 247.468732 
L 1357.42272 248.364242 
L 1358.105985 248.866543 
L 1359.472516 250.433216 
L 1360.155781 251.08426 
L 1360.839047 251.497843 
L 1362.205577 252.764587 
L 1363.572108 253.966041 
L 1364.255373 254.276487 
L 1365.621904 255.52342 
L 1366.988434 256.448526 
L 1367.6717 257.03499 
L 1368.354965 220.453144 
L 1369.03823 98.655222 
L 1369.721496 83.614012 
L 1371.088026 83.558718 
L 1371.771291 83.242676 
L 1372.454557 87.538684 
L 1373.137822 115.689281 
L 1373.821087 130.955409 
L 1374.504353 139.444444 
L 1375.187618 144.593156 
L 1375.870883 147.604358 
L 1376.554149 149.661111 
L 1377.237414 151.022999 
L 1378.603945 152.49422 
L 1379.970475 153.084109 
L 1380.65374 153.041716 
L 1381.337006 153.18853 
L 1382.020271 152.975091 
L 1382.703536 152.992156 
L 1383.386802 152.699104 
L 1384.070067 152.603004 
L 1385.436598 152.114356 
L 1387.486393 151.243901 
L 1388.169659 151.024451 
L 1388.852924 150.625026 
L 1389.536189 150.431563 
L 1390.219455 149.998155 
L 1390.90272 166.677505 
L 1391.585985 188.034947 
L 1392.269251 202.737957 
L 1392.952516 211.830877 
L 1393.635781 218.232635 
L 1394.319047 222.725536 
L 1395.685577 229.177305 
L 1397.052108 233.085341 
L 1399.101904 237.312804 
L 1399.785169 238.660233 
L 1400.468434 239.728323 
L 1401.1517 205.241587 
L 1401.834965 87.444841 
L 1403.201496 80.077127 
L 1403.884761 80.735542 
L 1404.568026 80.286468 
L 1405.251291 80.402078 
L 1405.934557 79.950351 
L 1406.617822 78.839668 
L 1407.301087 103.021986 
L 1407.984353 116.897794 
L 1407.984353 116.897794 
" clip-path="url(#pf6acdc1752)" style="fill: none; stroke: #000000; stroke-width: 5; stroke-linecap: square"/>
   </g>
   <g id="line2d_45">
    <path d="M 1187.289659 287.65 
L 1597.248842 287.65 
" clip-path="url(#pf6acdc1752)" style="fill: none; stroke: #000000; stroke-width: 5; stroke-linecap: square"/>
   </g>
   <g id="line2d_46">
    <path d="M 1187.289659 83.297043 
L 1188.656189 82.546615 
L 1190.705985 81.807077 
L 1193.439047 81.181081 
L 1197.538638 80.548455 
L 1204.371291 79.760675 
L 1213.937006 78.889019 
L 1224.869251 78.115428 
L 1237.851291 77.428952 
L 1252.883128 76.863839 
L 1271.331291 76.401986 
L 1295.245577 76.043296 
L 1309.594149 75.909725 
L 1310.277414 110.931107 
L 1310.960679 156.4508 
L 1311.643945 146.05758 
L 1313.69374 98.908003 
L 1314.377006 91.692037 
L 1315.060271 88.505767 
L 1315.743536 86.893215 
L 1316.426802 85.93582 
L 1317.110067 85.28089 
L 1318.476598 84.388694 
L 1319.843128 83.774994 
L 1321.892924 83.117495 
L 1324.625985 82.486915 
L 1329.408842 81.658694 
L 1330.092108 81.55481 
L 1330.775373 94.440522 
L 1331.458638 157.036967 
L 1332.141904 130.136988 
L 1332.825169 130.046507 
L 1333.508434 130.749252 
L 1334.1917 110.876271 
L 1334.874965 99.512688 
L 1335.55823 94.701891 
L 1336.241496 92.398655 
L 1336.924761 91.102131 
L 1337.608026 90.245079 
L 1338.974557 89.08913 
L 1340.341087 88.275554 
L 1342.390883 87.364312 
L 1345.123945 86.440562 
L 1349.223536 85.33352 
L 1354.689659 84.096936 
L 1361.522312 82.785578 
L 1369.03823 81.577424 
L 1377.237414 80.489796 
L 1386.119863 79.533392 
L 1396.368842 78.659488 
L 1407.984353 77.900873 
L 1407.984353 77.900873 
" clip-path="url(#pf6acdc1752)" style="fill: none; stroke-dasharray: 22.2,9.6; stroke-dashoffset: 0; stroke: #ff0000; stroke-width: 6"/>
   </g>
   <g id="line2d_47">
    <path d="M 1187.289659 113.014 
L 1597.248842 113.014 
" clip-path="url(#pf6acdc1752)" style="fill: none; stroke-dasharray: 5,8.25; stroke-dashoffset: 0; stroke: #ff0000; stroke-opacity: 0.5; stroke-width: 5"/>
   </g>
   <g id="patch_10">
    <path d="M 1187.289659 287.65 
L 1187.289659 38.17 
" style="fill: none; stroke: #000000; stroke-width: 0.8; stroke-linejoin: miter; stroke-linecap: square"/>
   </g>
   <g id="patch_11">
    <path d="M 1187.289659 287.65 
L 1597.248842 287.65 
" style="fill: none; stroke: #000000; stroke-width: 0.8; stroke-linejoin: miter; stroke-linecap: square"/>
   </g>
   <g id="text_39">
    <!-- SAFE-PNS -->
    <g transform="translate(1314.006751 31.515) scale(0.32 -0.32)">
     <defs>
      <path id="DejaVuSans-53" d="M 3425 4513 
L 3425 3897 
Q 3066 4069 2747 4153 
Q 2428 4238 2131 4238 
Q 1616 4238 1336 4038 
Q 1056 3838 1056 3469 
Q 1056 3159 1242 3001 
Q 1428 2844 1947 2747 
L 2328 2669 
Q 3034 2534 3370 2195 
Q 3706 1856 3706 1288 
Q 3706 609 3251 259 
Q 2797 -91 1919 -91 
Q 1588 -91 1214 -16 
Q 841 59 441 206 
L 441 856 
Q 825 641 1194 531 
Q 1563 422 1919 422 
Q 2459 422 2753 634 
Q 3047 847 3047 1241 
Q 3047 1584 2836 1778 
Q 2625 1972 2144 2069 
L 1759 2144 
Q 1053 2284 737 2584 
Q 422 2884 422 3419 
Q 422 4038 858 4394 
Q 1294 4750 2059 4750 
Q 2388 4750 2728 4690 
Q 3069 4631 3425 4513 
z
" transform="scale(0.015625)"/>
      <path id="DejaVuSans-41" d="M 2188 4044 
L 1331 1722 
L 3047 1722 
L 2188 4044 
z
M 1831 4666 
L 2547 4666 
L 4325 0 
L 3669 0 
L 3244 1197 
L 1141 1197 
L 716 0 
L 50 0 
L 1831 4666 
z
" transform="scale(0.015625)"/>
      <path id="DejaVuSans-46" d="M 628 4666 
L 3309 4666 
L 3309 4134 
L 1259 4134 
L 1259 2759 
L 3109 2759 
L 3109 2228 
L 1259 2228 
L 1259 0 
L 628 0 
L 628 4666 
z
" transform="scale(0.015625)"/>
      <path id="DejaVuSans-45" d="M 628 4666 
L 3578 4666 
L 3578 4134 
L 1259 4134 
L 1259 2753 
L 3481 2753 
L 3481 2222 
L 1259 2222 
L 1259 531 
L 3634 531 
L 3634 0 
L 628 0 
L 628 4666 
z
" transform="scale(0.015625)"/>
      <path id="DejaVuSans-2d" d="M 313 2009 
L 1997 2009 
L 1997 1497 
L 313 1497 
L 313 2009 
z
" transform="scale(0.015625)"/>
      <path id="DejaVuSans-50" d="M 1259 4147 
L 1259 2394 
L 2053 2394 
Q 2494 2394 2734 2622 
Q 2975 2850 2975 3272 
Q 2975 3691 2734 3919 
Q 2494 4147 2053 4147 
L 1259 4147 
z
M 628 4666 
L 2053 4666 
Q 2838 4666 3239 4311 
Q 3641 3956 3641 3272 
Q 3641 2581 3239 2228 
Q 2838 1875 2053 1875 
L 1259 1875 
L 1259 0 
L 628 0 
L 628 4666 
z
" transform="scale(0.015625)"/>
      <path id="DejaVuSans-4e" d="M 628 4666 
L 1478 4666 
L 3547 763 
L 3547 4666 
L 4159 4666 
L 4159 0 
L 3309 0 
L 1241 3903 
L 1241 0 
L 628 0 
L 628 4666 
z
" transform="scale(0.015625)"/>
     </defs>
     <use xlink:href="#DejaVuSans-53"/>
     <use xlink:href="#DejaVuSans-41" x="65.351562"/>
     <use xlink:href="#DejaVuSans-46" x="133.759766"/>
     <use xlink:href="#DejaVuSans-45" x="191.279297"/>
     <use xlink:href="#DejaVuSans-2d" x="254.462891"/>
     <use xlink:href="#DejaVuSans-50" x="290.546875"/>
     <use xlink:href="#DejaVuSans-4e" x="350.849609"/>
     <use xlink:href="#DejaVuSans-53" x="425.654297"/>
    </g>
   </g>
   <g id="legend_2">
    <g id="patch_12">
     <path d="M 1448.611342 276.65 
L 1581.848842 276.65 
Q 1586.248842 276.65 1586.248842 272.25 
L 1586.248842 242.158125 
Q 1586.248842 237.758125 1581.848842 237.758125 
L 1448.611342 237.758125 
Q 1444.211342 237.758125 1444.211342 242.158125 
L 1444.211342 272.25 
Q 1444.211342 276.65 1448.611342 276.65 
z
" style="fill: #ffffff; opacity: 0.2; stroke: #cccccc; stroke-linejoin: miter"/>
    </g>
    <g id="line2d_48">
     <path d="M 1453.011342 255.574688 
L 1475.011342 255.574688 
L 1497.011342 255.574688 
" style="fill: none; stroke: #000000; stroke-width: 5; stroke-linecap: square"/>
    </g>
    <g id="text_40">
     <!-- Y-axis -->
     <g transform="translate(1514.611342 263.274688) scale(0.22 -0.22)">
      <defs>
       <path id="DejaVuSans-59" d="M -13 4666 
L 666 4666 
L 1959 2747 
L 3244 4666 
L 3922 4666 
L 2272 2222 
L 2272 0 
L 1638 0 
L 1638 2222 
L -13 4666 
z
" transform="scale(0.015625)"/>
       <path id="DejaVuSans-61" d="M 2194 1759 
Q 1497 1759 1228 1600 
Q 959 1441 959 1056 
Q 959 750 1161 570 
Q 1363 391 1709 391 
Q 2188 391 2477 730 
Q 2766 1069 2766 1631 
L 2766 1759 
L 2194 1759 
z
M 3341 1997 
L 3341 0 
L 2766 0 
L 2766 531 
Q 2569 213 2275 61 
Q 1981 -91 1556 -91 
Q 1019 -91 701 211 
Q 384 513 384 1019 
Q 384 1609 779 1909 
Q 1175 2209 1959 2209 
L 2766 2209 
L 2766 2266 
Q 2766 2663 2505 2880 
Q 2244 3097 1772 3097 
Q 1472 3097 1187 3025 
Q 903 2953 641 2809 
L 641 3341 
Q 956 3463 1253 3523 
Q 1550 3584 1831 3584 
Q 2591 3584 2966 3190 
Q 3341 2797 3341 1997 
z
" transform="scale(0.015625)"/>
       <path id="DejaVuSans-78" d="M 3513 3500 
L 2247 1797 
L 3578 0 
L 2900 0 
L 1881 1375 
L 863 0 
L 184 0 
L 1544 1831 
L 300 3500 
L 978 3500 
L 1906 2253 
L 2834 3500 
L 3513 3500 
z
" transform="scale(0.015625)"/>
      </defs>
      <use xlink:href="#DejaVuSans-59"/>
      <use xlink:href="#DejaVuSans-2d" x="49.208984"/>
      <use xlink:href="#DejaVuSans-61" x="85.292969"/>
      <use xlink:href="#DejaVuSans-78" x="146.572266"/>
      <use xlink:href="#DejaVuSans-69" x="205.751953"/>
      <use xlink:href="#DejaVuSans-73" x="233.535156"/>
     </g>
    </g>
   </g>
  </g>
  <g id="axes_4">
   <g id="patch_13">
    <path d="M 1720.236598 287.65 
L 2130.195781 287.65 
L 2130.195781 38.17 
L 1720.236598 38.17 
z
" style="fill: #ffffff"/>
   </g>
   <g id="matplotlib.axis_7">
    <g id="xtick_16">
     <g id="line2d_49">
      <g>
       <use xlink:href="#m05cf1ba2c7" x="1720.236598" y="287.65" style="stroke: #000000; stroke-width: 0.8"/>
      </g>
     </g>
     <g id="text_41">
      <!-- 0 -->
      <g transform="translate(1711.647223 315.165781) scale(0.27 -0.27)">
       <use xlink:href="#DejaVuSans-30"/>
      </g>
     </g>
    </g>
    <g id="xtick_17">
     <g id="line2d_50">
      <g>
       <use xlink:href="#m05cf1ba2c7" x="1805.644761" y="287.65" style="stroke: #000000; stroke-width: 0.8"/>
      </g>
     </g>
     <g id="text_42">
      <!-- 25 -->
      <g transform="translate(1788.466011 315.165781) scale(0.27 -0.27)">
       <use xlink:href="#DejaVuSans-32"/>
       <use xlink:href="#DejaVuSans-35" x="63.623047"/>
      </g>
     </g>
    </g>
    <g id="xtick_18">
     <g id="line2d_51">
      <g>
       <use xlink:href="#m05cf1ba2c7" x="1891.052924" y="287.65" style="stroke: #000000; stroke-width: 0.8"/>
      </g>
     </g>
     <g id="text_43">
      <!-- 50 -->
      <g transform="translate(1873.874174 315.165781) scale(0.27 -0.27)">
       <use xlink:href="#DejaVuSans-35"/>
       <use xlink:href="#DejaVuSans-30" x="63.623047"/>
      </g>
     </g>
    </g>
    <g id="xtick_19">
     <g id="line2d_52">
      <g>
       <use xlink:href="#m05cf1ba2c7" x="1976.461087" y="287.65" style="stroke: #000000; stroke-width: 0.8"/>
      </g>
     </g>
     <g id="text_44">
      <!-- 75 -->
      <g transform="translate(1959.282337 315.165781) scale(0.27 -0.27)">
       <use xlink:href="#DejaVuSans-37"/>
       <use xlink:href="#DejaVuSans-35" x="63.623047"/>
      </g>
     </g>
    </g>
    <g id="xtick_20">
     <g id="line2d_53">
      <g>
       <use xlink:href="#m05cf1ba2c7" x="2061.869251" y="287.65" style="stroke: #000000; stroke-width: 0.8"/>
      </g>
     </g>
     <g id="text_45">
      <!-- 100 -->
      <g transform="translate(2036.101126 315.165781) scale(0.27 -0.27)">
       <use xlink:href="#DejaVuSans-31"/>
       <use xlink:href="#DejaVuSans-30" x="63.623047"/>
       <use xlink:href="#DejaVuSans-30" x="127.246094"/>
      </g>
     </g>
    </g>
    <g id="text_46">
     <!-- Time [ms] -->
     <g transform="translate(1849.618533 347.57625) scale(0.3 -0.3)">
      <use xlink:href="#DejaVuSans-54"/>
      <use xlink:href="#DejaVuSans-69" x="57.958984"/>
      <use xlink:href="#DejaVuSans-6d" x="85.742188"/>
      <use xlink:href="#DejaVuSans-65" x="183.154297"/>
      <use xlink:href="#DejaVuSans-20" x="244.677734"/>
      <use xlink:href="#DejaVuSans-5b" x="276.464844"/>
      <use xlink:href="#DejaVuSans-6d" x="315.478516"/>
      <use xlink:href="#DejaVuSans-73" x="412.890625"/>
      <use xlink:href="#DejaVuSans-5d" x="464.990234"/>
     </g>
    </g>
   </g>
   <g id="matplotlib.axis_8">
    <g id="ytick_16">
     <g id="line2d_54">
      <g>
       <use xlink:href="#mfb0f067572" x="1720.236598" y="287.65" style="stroke: #000000; stroke-width: 0.8"/>
      </g>
     </g>
     <g id="text_47">
      <!-- 0.00 -->
      <g transform="translate(1653.11941 297.907891) scale(0.27 -0.27)">
       <use xlink:href="#DejaVuSans-30"/>
       <use xlink:href="#DejaVuSans-2e" x="63.623047"/>
       <use xlink:href="#DejaVuSans-30" x="95.410156"/>
       <use xlink:href="#DejaVuSans-30" x="159.033203"/>
      </g>
     </g>
    </g>
    <g id="ytick_17">
     <g id="line2d_55">
      <g>
       <use xlink:href="#mfb0f067572" x="1720.236598" y="225.28" style="stroke: #000000; stroke-width: 0.8"/>
      </g>
     </g>
     <g id="text_48">
      <!-- 0.25 -->
      <g transform="translate(1653.11941 235.537891) scale(0.27 -0.27)">
       <use xlink:href="#DejaVuSans-30"/>
       <use xlink:href="#DejaVuSans-2e" x="63.623047"/>
       <use xlink:href="#DejaVuSans-32" x="95.410156"/>
       <use xlink:href="#DejaVuSans-35" x="159.033203"/>
      </g>
     </g>
    </g>
    <g id="ytick_18">
     <g id="line2d_56">
      <g>
       <use xlink:href="#mfb0f067572" x="1720.236598" y="162.91" style="stroke: #000000; stroke-width: 0.8"/>
      </g>
     </g>
     <g id="text_49">
      <!-- 0.50 -->
      <g transform="translate(1653.11941 173.167891) scale(0.27 -0.27)">
       <use xlink:href="#DejaVuSans-30"/>
       <use xlink:href="#DejaVuSans-2e" x="63.623047"/>
       <use xlink:href="#DejaVuSans-35" x="95.410156"/>
       <use xlink:href="#DejaVuSans-30" x="159.033203"/>
      </g>
     </g>
    </g>
    <g id="ytick_19">
     <g id="line2d_57">
      <g>
       <use xlink:href="#mfb0f067572" x="1720.236598" y="100.54" style="stroke: #000000; stroke-width: 0.8"/>
      </g>
     </g>
     <g id="text_50">
      <!-- 0.75 -->
      <g transform="translate(1653.11941 110.797891) scale(0.27 -0.27)">
       <use xlink:href="#DejaVuSans-30"/>
       <use xlink:href="#DejaVuSans-2e" x="63.623047"/>
       <use xlink:href="#DejaVuSans-37" x="95.410156"/>
       <use xlink:href="#DejaVuSans-35" x="159.033203"/>
      </g>
     </g>
    </g>
    <g id="ytick_20">
     <g id="line2d_58">
      <g>
       <use xlink:href="#mfb0f067572" x="1720.236598" y="38.17" style="stroke: #000000; stroke-width: 0.8"/>
      </g>
     </g>
     <g id="text_51">
      <!-- 1.00 -->
      <g transform="translate(1653.11941 48.427891) scale(0.27 -0.27)">
       <use xlink:href="#DejaVuSans-31"/>
       <use xlink:href="#DejaVuSans-2e" x="63.623047"/>
       <use xlink:href="#DejaVuSans-30" x="95.410156"/>
       <use xlink:href="#DejaVuSans-30" x="159.033203"/>
      </g>
     </g>
    </g>
    <g id="text_52">
     <!-- unitless -->
     <g transform="translate(1642.880348 220.995156) rotate(-90) scale(0.3 -0.3)">
      <use xlink:href="#DejaVuSans-75"/>
      <use xlink:href="#DejaVuSans-6e" x="63.378906"/>
      <use xlink:href="#DejaVuSans-69" x="126.757812"/>
      <use xlink:href="#DejaVuSans-74" x="154.541016"/>
      <use xlink:href="#DejaVuSans-6c" x="193.75"/>
      <use xlink:href="#DejaVuSans-65" x="221.533203"/>
      <use xlink:href="#DejaVuSans-73" x="283.056641"/>
      <use xlink:href="#DejaVuSans-73" x="335.15625"/>
     </g>
    </g>
   </g>
   <g id="line2d_59">
    <path d="M 1720.236598 287.65 
L 2130.195781 287.65 
" clip-path="url(#pf08159fa24)" style="fill: none; stroke: #d3d3d3; stroke-opacity: 0.8; stroke-width: 1.5; stroke-linecap: square"/>
   </g>
   <g id="line2d_60">
    <path d="M 1720.236598 287.65 
L 1730.485577 287.65 
L 1731.168842 212.068374 
L 1731.852108 151.911902 
L 1732.535373 118.396627 
L 1733.218638 107.630152 
L 1734.585169 101.819624 
L 1735.9517 97.154833 
L 1737.31823 93.388574 
L 1738.684761 90.369908 
L 1739.368026 95.460374 
L 1740.734557 124.752331 
L 1742.101087 149.488948 
L 1743.467618 170.39147 
L 1744.834149 188.061132 
L 1746.200679 203.0531 
L 1747.56721 215.724309 
L 1748.93374 226.457487 
L 1750.300271 235.567819 
L 1751.666802 243.348081 
L 1752.350067 246.779597 
L 1753.033332 262.599161 
L 1753.716598 201.420944 
L 1754.399863 163.668674 
L 1755.766393 108.135664 
L 1756.449659 85.814662 
L 1757.132924 78.458735 
L 1761.915781 78.083815 
L 1769.4317 77.838863 
L 1774.214557 77.779866 
L 1776.947618 133.990759 
L 1778.314149 157.105574 
L 1779.680679 176.606963 
L 1781.04721 193.141425 
L 1782.41374 207.165793 
L 1783.780271 219.044346 
L 1785.146802 229.167589 
L 1786.513332 237.713451 
L 1787.879863 245.032398 
L 1789.246393 251.248511 
L 1790.612924 256.554758 
L 1791.979455 261.082226 
L 1793.345985 264.923848 
L 1794.712516 268.24952 
L 1796.762312 272.301503 
L 1798.128842 274.535884 
L 1799.495373 276.451638 
L 1801.545169 278.790736 
L 1802.9117 280.101974 
L 1804.961496 281.711486 
L 1806.328026 282.636359 
L 1809.744353 284.388215 
L 1810.427618 284.63932 
L 1811.110883 285.661871 
L 1811.794149 275.547936 
L 1812.477414 201.095836 
L 1813.160679 155.472043 
L 1814.52721 100.014051 
L 1815.210475 77.733041 
L 1821.359863 77.708289 
L 1825.459455 77.731659 
L 1830.925577 77.71104 
L 1832.975373 77.716794 
L 1833.658638 77.747385 
L 1835.025169 109.396502 
L 1836.3917 136.324172 
L 1837.074965 174.363483 
L 1837.75823 200.617398 
L 1838.441496 210.053901 
L 1839.808026 160.076244 
L 1841.174557 121.151815 
L 1842.541087 90.237532 
L 1843.907618 121.954664 
L 1845.274149 148.443312 
L 1846.640679 170.586993 
L 1848.00721 189.116492 
L 1849.37374 204.636797 
L 1850.740271 217.649208 
L 1852.106802 228.569477 
L 1853.473332 237.742737 
L 1854.839863 245.455756 
L 1856.206393 251.94704 
L 1857.572924 257.415142 
L 1858.939455 262.025516 
L 1860.305985 265.916168 
L 1861.672516 269.20232 
L 1863.039047 271.980269 
L 1864.405577 274.330571 
L 1865.772108 276.32068 
L 1866.455373 277.198706 
L 1867.138638 204.309736 
L 1868.505169 148.095343 
L 1869.8717 107.046468 
L 1870.554965 101.580029 
L 1871.921496 97.353203 
L 1873.288026 93.893159 
L 1874.654557 91.054702 
L 1875.337822 89.83979 
L 1876.021087 94.124667 
L 1877.387618 123.599685 
L 1878.754149 148.481729 
L 1880.120679 169.525881 
L 1881.48721 187.299002 
L 1882.85374 202.399168 
L 1884.220271 215.138365 
L 1885.586802 225.980678 
L 1886.953332 235.1332 
L 1888.319863 242.977685 
L 1889.686393 249.648017 
L 1891.052924 255.328834 
L 1892.419455 260.086894 
L 1893.785985 264.172954 
L 1895.152516 267.621838 
L 1896.519047 270.552782 
L 1897.885577 273.092029 
L 1899.935373 276.195215 
L 1900.618638 277.062322 
L 1901.301904 275.056458 
L 1901.985169 202.346872 
L 1902.668434 165.577852 
L 1904.034965 114.460263 
L 1904.71823 93.695587 
L 1905.401496 77.936201 
L 1910.184353 77.879412 
L 1912.234149 77.796087 
L 1912.917414 77.846953 
L 1913.600679 77.779379 
L 1914.283945 77.835627 
L 1914.96721 77.765751 
L 1915.650475 77.820731 
L 1917.017006 77.800183 
L 1919.066802 77.765573 
L 1923.166393 77.700127 
L 1923.849659 86.764562 
L 1925.899455 129.343983 
L 1927.265985 153.141731 
L 1928.632516 173.330806 
L 1929.999047 190.346368 
L 1931.365577 204.925532 
L 1932.732108 217.297517 
L 1933.415373 222.767971 
L 1934.098638 234.721278 
L 1934.781904 232.756523 
L 1936.148434 172.36368 
L 1937.514965 127.870798 
L 1938.881496 93.028579 
L 1939.564761 77.898179 
L 1940.248026 77.691972 
L 1940.931291 77.789157 
L 1940.931291 77.789157 
" clip-path="url(#pf08159fa24)" style="fill: none; stroke: #000000; stroke-width: 5; stroke-linecap: square"/>
   </g>
   <g id="line2d_61">
    <path d="M 1720.236598 287.65 
L 2130.195781 287.65 
" clip-path="url(#pf08159fa24)" style="fill: none; stroke: #000000; stroke-width: 5; stroke-linecap: square"/>
   </g>
   <g id="line2d_62">
    <path d="M 1720.236598 89.163172 
L 1721.603128 86.934258 
L 1722.969659 85.081644 
L 1724.336189 83.540029 
L 1725.70272 82.255745 
L 1727.752516 80.717378 
L 1729.802312 79.542776 
L 1731.852108 78.643738 
L 1733.901904 77.953989 
L 1736.634965 77.275408 
L 1740.051291 76.699192 
L 1744.150883 76.265548 
L 1749.617006 75.942146 
L 1757.816189 75.725185 
L 1772.164761 75.617271 
L 1820.676598 75.592102 
L 1842.541087 75.592009 
L 1843.224353 91.493725 
L 1843.907618 119.577041 
L 1844.590883 122.146566 
L 1845.274149 114.086758 
L 1845.957414 111.395038 
L 1847.323945 104.513362 
L 1848.690475 98.966994 
L 1850.057006 94.494971 
L 1851.423536 90.887603 
L 1852.790067 87.976361 
L 1854.156598 85.625761 
L 1855.523128 83.726859 
L 1856.889659 82.192024 
L 1858.256189 80.950749 
L 1859.62272 79.946287 
L 1861.672516 78.786154 
L 1863.039047 78.192799 
L 1863.722312 81.664504 
L 1864.405577 112.123529 
L 1865.088842 124.95606 
L 1865.772108 114.253531 
L 1866.455373 111.810834 
L 1867.138638 110.549629 
L 1868.505169 103.849762 
L 1869.8717 98.447076 
L 1871.23823 94.088475 
L 1872.604761 90.570529 
L 1873.971291 87.729691 
L 1875.337822 85.434438 
L 1876.704353 83.578972 
L 1878.070883 82.07816 
L 1879.437414 80.86348 
L 1880.803945 79.879756 
L 1882.85374 78.742405 
L 1884.903536 77.911368 
L 1886.953332 77.303129 
L 1889.686393 76.736594 
L 1893.10272 76.288422 
L 1897.202312 75.979092 
L 1903.3517 75.755506 
L 1914.283945 75.629432 
L 1940.931291 75.593342 
L 1940.931291 75.593342 
" clip-path="url(#pf08159fa24)" style="fill: none; stroke-dasharray: 22.2,9.6; stroke-dashoffset: 0; stroke: #800080; stroke-width: 6"/>
   </g>
   <g id="line2d_63">
    <path clip-path="url(#pf08159fa24)" style="fill: none; stroke-dasharray: 11.1,4.8; stroke-dashoffset: 0; stroke: #800080; stroke-width: 3"/>
   </g>
   <g id="line2d_64">
    <path d="M 1720.236598 113.014 
L 2130.195781 113.014 
" clip-path="url(#pf08159fa24)" style="fill: none; stroke-dasharray: 5,8.25; stroke-dashoffset: 0; stroke: #800080; stroke-opacity: 0.5; stroke-width: 5"/>
   </g>
   <g id="patch_14">
    <path d="M 1720.236598 287.65 
L 1720.236598 38.17 
" style="fill: none; stroke: #000000; stroke-width: 0.8; stroke-linejoin: miter; stroke-linecap: square"/>
   </g>
   <g id="patch_15">
    <path d="M 1720.236598 287.65 
L 2130.195781 287.65 
" style="fill: none; stroke: #000000; stroke-width: 0.8; stroke-linejoin: miter; stroke-linecap: square"/>
   </g>
   <g id="text_53">
    <!-- SAFE-CNS -->
    <g transform="translate(1845.428689 31.515) scale(0.32 -0.32)">
     <defs>
      <path id="DejaVuSans-43" d="M 4122 4306 
L 4122 3641 
Q 3803 3938 3442 4084 
Q 3081 4231 2675 4231 
Q 1875 4231 1450 3742 
Q 1025 3253 1025 2328 
Q 1025 1406 1450 917 
Q 1875 428 2675 428 
Q 3081 428 3442 575 
Q 3803 722 4122 1019 
L 4122 359 
Q 3791 134 3420 21 
Q 3050 -91 2638 -91 
Q 1578 -91 968 557 
Q 359 1206 359 2328 
Q 359 3453 968 4101 
Q 1578 4750 2638 4750 
Q 3056 4750 3426 4639 
Q 3797 4528 4122 4306 
z
" transform="scale(0.015625)"/>
     </defs>
     <use xlink:href="#DejaVuSans-53"/>
     <use xlink:href="#DejaVuSans-41" x="65.351562"/>
     <use xlink:href="#DejaVuSans-46" x="133.759766"/>
     <use xlink:href="#DejaVuSans-45" x="191.279297"/>
     <use xlink:href="#DejaVuSans-2d" x="254.462891"/>
     <use xlink:href="#DejaVuSans-43" x="290.546875"/>
     <use xlink:href="#DejaVuSans-4e" x="360.371094"/>
     <use xlink:href="#DejaVuSans-53" x="435.175781"/>
    </g>
   </g>
   <g id="legend_3">
    <g id="patch_16">
     <path d="M 1981.558281 276.65 
L 2114.795781 276.65 
Q 2119.195781 276.65 2119.195781 272.25 
L 2119.195781 242.158125 
Q 2119.195781 237.758125 2114.795781 237.758125 
L 1981.558281 237.758125 
Q 1977.158281 237.758125 1977.158281 242.158125 
L 1977.158281 272.25 
Q 1977.158281 276.65 1981.558281 276.65 
z
" style="fill: #ffffff; opacity: 0.2; stroke: #cccccc; stroke-linejoin: miter"/>
    </g>
    <g id="line2d_65">
     <path d="M 1985.958281 255.574688 
L 2007.958281 255.574688 
L 2029.958281 255.574688 
" style="fill: none; stroke: #000000; stroke-width: 5; stroke-linecap: square"/>
    </g>
    <g id="text_54">
     <!-- Y-axis -->
     <g transform="translate(2047.558281 263.274688) scale(0.22 -0.22)">
      <use xlink:href="#DejaVuSans-59"/>
      <use xlink:href="#DejaVuSans-2d" x="49.208984"/>
      <use xlink:href="#DejaVuSans-61" x="85.292969"/>
      <use xlink:href="#DejaVuSans-78" x="146.572266"/>
      <use xlink:href="#DejaVuSans-69" x="205.751953"/>
      <use xlink:href="#DejaVuSans-73" x="233.535156"/>
     </g>
    </g>
   </g>
  </g>
 </g>
 <defs>
  <clipPath id="pd1c9a1e526">
   <rect x="121.395781" y="38.17" width="409.959184" height="249.48"/>
  </clipPath>
  <clipPath id="p5460d1b57d">
   <rect x="654.34272" y="38.17" width="409.959184" height="249.48"/>
  </clipPath>
  <clipPath id="pf6acdc1752">
   <rect x="1187.289659" y="38.17" width="409.959184" height="249.48"/>
  </clipPath>
  <clipPath id="pf08159fa24">
   <rect x="1720.236598" y="38.17" width="409.959184" height="249.48"/>
  </clipPath>
 </defs>
</svg>
