<?xml version="1.0" encoding="utf-8" standalone="no"?>
<!DOCTYPE svg PUBLIC "-//W3C//DTD SVG 1.1//EN"
  "http://www.w3.org/Graphics/SVG/1.1/DTD/svg11.dtd">
<svg xmlns:xlink="http://www.w3.org/1999/xlink" width="2137.395781pt" height="361.015312pt" viewBox="0 0 2137.395781 361.015312" xmlns="http://www.w3.org/2000/svg" version="1.1">
 <metadata>
  <rdf:RDF xmlns:dc="http://purl.org/dc/elements/1.1/" xmlns:cc="http://creativecommons.org/ns#" xmlns:rdf="http://www.w3.org/1999/02/22-rdf-syntax-ns#">
   <cc:Work>
    <dc:type rdf:resource="http://purl.org/dc/dcmitype/StillImage"/>
    <dc:date>2026-01-23T13:59:34.646125</dc:date>
    <dc:format>image/svg+xml</dc:format>
    <dc:creator>
     <cc:Agent>
      <dc:title>Matplotlib v3.9.0, https://matplotlib.org/</dc:title>
     </cc:Agent>
    </dc:creator>
   </cc:Work>
  </rdf:RDF>
 </metadata>
 <defs>
  <style type="text/css">*{stroke-linejoin: round; stroke-linecap: butt}</style>
 </defs>
 <g id="figure_1">
  <g id="patch_1">
   <path d="M 0 361.015312 
L 2137.395781 361.015312 
L 2137.395781 0 
L 0 0 
z
" style="fill: #ffffff"/>
  </g>
  <g id="axes_1">
   <g id="patch_2">
    <path d="M 121.395781 287.65 
L 531.354965 287.65 
L 531.354965 38.17 
L 121.395781 38.17 
z
" style="fill: #ffffff"/>
   </g>
   <g id="PolyCollection_1">
    <defs>
     <path id="me9872f0c3f" d="M 121.395781 -198.105312 
L 121.395781 -198.105312 
L 122.141162 -198.105312 
L 122.886542 -198.105312 
L 123.631922 -198.105312 
L 124.377303 -198.105312 
L 125.122683 -198.105312 
L 125.868063 -198.105312 
L 126.613444 -198.105312 
L 127.358824 -198.105312 
L 128.104204 -198.105312 
L 128.849585 -198.105312 
L 129.594965 -198.105312 
L 130.340345 -198.105312 
L 131.085726 -198.105312 
L 131.831106 -198.105312 
L 132.576486 -198.105312 
L 133.321867 -198.105312 
L 134.067247 -198.105312 
L 134.812627 -198.105312 
L 135.558008 -198.105312 
L 136.303388 -198.105312 
L 137.048768 -198.105312 
L 137.794149 -198.105312 
L 138.539529 -198.105312 
L 139.284909 -198.105312 
L 140.03029 -198.105312 
L 140.77567 -198.105312 
L 141.52105 -198.105312 
L 142.266431 -198.105312 
L 143.011811 -198.105312 
L 143.757191 -198.105312 
L 144.502572 -198.105312 
L 145.247952 -198.105312 
L 145.993332 -198.105312 
L 146.738713 -198.105312 
L 147.484093 -198.105312 
L 148.229473 -198.105312 
L 148.974854 -198.105312 
L 149.720234 -198.105312 
L 150.465614 -198.105312 
L 151.210995 -198.105312 
L 151.956375 -198.105312 
L 152.701755 -198.105312 
L 153.447136 -198.105312 
L 154.192516 -198.105312 
L 154.937896 -198.105312 
L 155.683277 -198.105312 
L 156.428657 -198.105312 
L 157.174037 -198.105312 
L 157.919418 -198.105312 
L 158.664798 -198.105312 
L 159.410178 -198.105312 
L 160.155559 -198.105312 
L 160.900939 -198.105312 
L 161.646319 -198.105312 
L 162.3917 -198.105312 
L 163.13708 -198.105312 
L 163.88246 -198.105312 
L 164.627841 -198.105312 
L 165.373221 -198.105312 
L 166.118601 -198.105312 
L 166.863982 -198.105312 
L 167.609362 -198.105312 
L 168.354742 -198.105312 
L 169.100123 -198.105312 
L 169.845503 -198.105312 
L 170.590883 -198.105312 
L 171.336264 -198.105312 
L 172.081644 -198.105312 
L 172.827024 -198.105312 
L 173.572405 -198.105312 
L 174.317785 -198.105312 
L 175.063165 -198.105312 
L 175.808546 -198.105312 
L 176.553926 -198.105312 
L 177.299306 -198.105312 
L 178.044687 -198.105312 
L 178.790067 -198.105312 
L 179.535447 -198.105312 
L 180.280828 -198.105312 
L 181.026208 -198.105312 
L 181.771588 -198.105312 
L 182.516969 -198.105312 
L 183.262349 -198.105312 
L 184.007729 -198.105312 
L 184.75311 -198.105312 
L 185.49849 -198.105312 
L 186.24387 -198.105312 
L 186.989251 -198.105312 
L 187.734631 -198.105312 
L 188.480011 -198.105312 
L 189.225392 -198.105312 
L 189.970772 -198.105312 
L 190.716152 -198.105312 
L 191.461533 -198.105312 
L 192.206913 -198.105312 
L 192.952293 -198.105312 
L 193.697674 -198.105312 
L 194.443054 -198.105312 
L 195.188434 -198.105312 
L 195.933815 -198.105312 
L 196.679195 -198.105312 
L 197.424575 -198.105312 
L 198.169956 -198.105312 
L 198.915336 -198.105312 
L 199.660716 -198.105312 
L 200.406097 -198.105312 
L 201.151477 -198.105312 
L 201.896857 -198.105312 
L 202.642238 -198.105312 
L 203.387618 -198.105312 
L 204.132998 -198.105312 
L 204.878379 -198.105312 
L 205.623759 -198.105312 
L 206.369139 -198.105312 
L 207.11452 -198.105312 
L 207.8599 -198.105312 
L 208.60528 -198.105312 
L 209.350661 -198.105312 
L 210.096041 -198.105312 
L 210.841421 -198.105312 
L 211.586802 -198.105312 
L 212.332182 -198.105312 
L 213.077562 -198.105312 
L 213.822943 -198.105312 
L 214.568323 -198.105312 
L 215.313703 -198.105312 
L 216.059084 -198.105312 
L 216.804464 -198.105312 
L 217.549844 -198.105312 
L 218.295225 -198.105312 
L 219.040605 -198.105312 
L 219.785985 -198.105312 
L 220.531366 -198.105312 
L 221.276746 -198.105312 
L 222.022126 -198.105312 
L 222.767507 -198.105312 
L 223.512887 -198.105312 
L 224.258267 -198.105312 
L 225.003648 -198.105312 
L 225.749028 -198.105312 
L 226.494408 -198.105312 
L 227.239789 -198.105312 
L 227.985169 -198.105312 
L 228.730549 -198.105312 
L 229.47593 -198.105312 
L 230.22131 -198.105312 
L 230.96669 -198.105312 
L 231.712071 -198.105312 
L 232.457451 -198.105312 
L 233.202831 -198.105312 
L 233.948212 -198.105312 
L 234.693592 -198.105312 
L 235.438972 -198.105312 
L 236.184353 -198.105312 
L 236.929733 -198.105312 
L 237.675113 -198.105312 
L 238.420494 -198.105312 
L 239.165874 -198.105312 
L 239.911254 -198.105312 
L 240.656635 -198.105312 
L 241.402015 -198.105312 
L 242.147395 -198.105312 
L 242.892776 -198.105312 
L 243.638156 -198.105312 
L 244.383536 -198.105312 
L 245.128917 -198.105312 
L 245.874297 -198.105312 
L 246.619677 -198.105312 
L 247.365058 -198.105312 
L 248.110438 -198.105312 
L 248.855818 -198.105312 
L 249.601199 -198.105312 
L 250.346579 -198.105312 
L 251.091959 -198.105312 
L 251.83734 -198.105312 
L 252.58272 -198.105312 
L 253.3281 -198.105312 
L 254.073481 -198.105312 
L 254.818861 -198.105312 
L 255.564241 -198.105312 
L 256.309622 -198.105312 
L 257.055002 -198.105312 
L 257.800382 -198.105312 
L 258.545763 -198.105312 
L 259.291143 -198.105312 
L 260.036523 -198.105312 
L 260.781904 -198.105312 
L 261.527284 -198.105312 
L 262.272664 -198.105312 
L 263.018045 -198.105312 
L 263.763425 -198.105312 
L 264.508805 -198.105312 
L 265.254186 -198.105312 
L 265.999566 -198.105312 
L 266.744946 -198.105312 
L 267.490327 -198.105312 
L 268.235707 -198.105312 
L 268.981087 -198.105312 
L 269.726468 -198.105312 
L 270.471848 -198.105312 
L 271.217228 -198.105312 
L 271.962609 -198.105312 
L 272.707989 -198.105312 
L 273.453369 -198.105312 
L 274.19875 -198.105312 
L 274.94413 -198.105312 
L 275.68951 -198.105312 
L 276.434891 -198.105312 
L 277.180271 -198.105312 
L 277.925651 -198.105312 
L 278.671032 -198.105312 
L 279.416412 -198.105312 
L 280.161792 -198.105312 
L 280.907173 -198.105312 
L 281.652553 -198.105312 
L 282.397933 -198.105312 
L 283.143314 -198.105312 
L 283.888694 -198.105312 
L 284.634074 -198.105312 
L 285.379455 -198.105312 
L 286.124835 -198.105312 
L 286.870215 -198.105312 
L 287.615596 -198.105312 
L 288.360976 -198.105312 
L 289.106356 -198.105312 
L 289.851737 -198.105312 
L 290.597117 -198.105312 
L 291.342497 -198.105312 
L 292.087878 -198.105312 
L 292.833258 -198.105312 
L 293.578638 -198.105312 
L 294.324019 -198.105312 
L 295.069399 -198.105312 
L 295.814779 -198.105312 
L 296.56016 -198.105312 
L 297.30554 -198.105312 
L 298.05092 -198.105312 
L 298.796301 -198.105312 
L 299.541681 -198.105312 
L 300.287061 -198.105312 
L 301.032442 -198.105312 
L 301.777822 -198.105312 
L 302.523202 -198.105312 
L 303.268583 -198.105312 
L 304.013963 -198.105312 
L 304.759343 -198.105312 
L 305.504724 -198.105312 
L 306.250104 -198.105312 
L 306.995484 -198.105312 
L 307.740865 -198.105312 
L 308.486245 -198.105312 
L 309.231625 -198.105312 
L 309.977006 -198.105312 
L 310.722386 -198.105312 
L 311.467766 -198.105312 
L 312.213147 -198.105312 
L 312.958527 -198.105312 
L 313.703907 -198.105312 
L 314.449288 -198.105312 
L 315.194668 -198.105312 
L 315.940048 -198.105312 
L 316.685429 -198.105312 
L 317.430809 -198.105312 
L 318.176189 -198.105312 
L 318.92157 -198.105312 
L 319.66695 -198.105312 
L 320.41233 -198.105312 
L 321.157711 -198.105312 
L 321.903091 -198.105312 
L 322.648471 -198.105312 
L 323.393852 -198.105312 
L 324.139232 -198.105312 
L 324.884612 -198.105312 
L 325.629993 -198.105312 
L 326.375373 -198.105312 
L 327.120753 -198.105312 
L 327.866134 -198.105312 
L 328.611514 -198.105312 
L 329.356894 -198.105312 
L 330.102275 -198.105312 
L 330.847655 -198.105312 
L 331.593035 -198.105312 
L 332.338416 -198.105312 
L 333.083796 -198.105312 
L 333.829176 -198.105312 
L 334.574557 -198.105312 
L 335.319937 -198.105312 
L 336.065317 -198.105312 
L 336.810698 -198.105312 
L 337.556078 -198.105312 
L 338.301458 -198.105312 
L 339.046839 -198.105312 
L 339.792219 -198.105312 
L 339.792219 -198.105312 
L 339.792219 -198.105312 
L 339.046839 -190.387438 
L 338.301458 -182.678009 
L 337.556078 -174.830075 
L 336.810698 -166.70595 
L 336.065317 -158.464832 
L 335.319937 -149.767517 
L 334.574557 -140.801388 
L 333.829176 -130.928655 
L 333.083796 -107.497277 
L 332.338416 -107.436889 
L 331.593035 -107.383864 
L 330.847655 -107.451805 
L 330.102275 -111.916177 
L 329.356894 -116.356585 
L 328.611514 -120.801465 
L 327.866134 -125.248876 
L 327.120753 -129.69149 
L 326.375373 -134.144032 
L 325.629993 -138.59377 
L 324.884612 -143.041972 
L 324.139232 -147.498616 
L 323.393852 -151.946604 
L 322.648471 -156.404939 
L 321.903091 -160.867104 
L 321.157711 -165.316698 
L 320.41233 -169.783053 
L 319.66695 -174.253248 
L 318.92157 -178.708363 
L 318.176189 -183.184179 
L 317.430809 -187.663476 
L 316.685429 -192.129489 
L 315.940048 -196.622057 
L 315.194668 -201.09721 
L 314.449288 -205.59417 
L 313.703907 -210.097039 
L 312.958527 -214.588594 
L 312.213147 -219.111762 
L 311.467766 -223.615301 
L 310.722386 -228.157955 
L 309.977006 -232.685856 
L 309.231625 -237.218124 
L 308.486245 -244.991873 
L 307.740865 -253.842113 
L 306.995484 -263.445507 
L 306.250104 -273.007993 
L 305.504724 -283.26001 
L 304.759343 -300.499273 
L 304.013963 -313.202286 
L 303.268583 -313.49923 
L 302.523202 -314.096068 
L 301.777822 -314.420335 
L 301.032442 -314.57087 
L 300.287061 -314.69395 
L 299.541681 -314.785916 
L 298.796301 -315.041115 
L 298.05092 -314.777215 
L 297.30554 -314.981665 
L 296.56016 -314.910574 
L 295.814779 -314.858798 
L 295.069399 -315.066575 
L 294.324019 -315.028153 
L 293.578638 -314.93533 
L 292.833258 -314.896185 
L 292.087878 -315.03177 
L 291.342497 -314.906655 
L 290.597117 -314.954534 
L 289.851737 -314.942674 
L 289.106356 -314.984772 
L 288.360976 -314.99496 
L 287.615596 -315.005689 
L 286.870215 -314.982973 
L 286.124835 -314.889121 
L 285.379455 -315.014495 
L 284.634074 -314.967117 
L 283.888694 -314.885625 
L 283.143314 -313.585458 
L 282.397933 -313.444075 
L 281.652553 -308.873165 
L 280.907173 -304.39811 
L 280.161792 -299.883762 
L 279.416412 -295.333647 
L 278.671032 -290.801378 
L 277.925651 -286.236133 
L 277.180271 -281.679269 
L 276.434891 -277.08815 
L 275.68951 -272.505706 
L 274.94413 -267.887855 
L 274.19875 -263.227824 
L 273.453369 -257.579738 
L 272.707989 -248.292779 
L 271.962609 -239.033496 
L 271.217228 -228.920786 
L 270.471848 -218.350444 
L 269.726468 -198.105312 
L 268.981087 -198.105312 
L 268.235707 -198.105312 
L 267.490327 -198.105312 
L 266.744946 -198.105312 
L 265.999566 -198.105312 
L 265.254186 -198.105312 
L 264.508805 -198.105312 
L 263.763425 -198.105312 
L 263.018045 -198.105312 
L 262.272664 -198.105312 
L 261.527284 -198.105312 
L 260.781904 -198.105312 
L 260.036523 -198.105312 
L 259.291143 -198.105312 
L 258.545763 -198.105312 
L 257.800382 -198.105312 
L 257.055002 -198.105312 
L 256.309622 -198.105312 
L 255.564241 -198.105312 
L 254.818861 -198.105312 
L 254.073481 -198.105312 
L 253.3281 -198.105312 
L 252.58272 -198.105312 
L 251.83734 -198.105312 
L 251.091959 -198.105312 
L 250.346579 -198.105312 
L 249.601199 -198.105312 
L 248.855818 -198.105312 
L 248.110438 -198.105312 
L 247.365058 -198.105312 
L 246.619677 -198.105312 
L 245.874297 -198.105312 
L 245.128917 -198.105312 
L 244.383536 -198.105312 
L 243.638156 -198.105312 
L 242.892776 -198.105312 
L 242.147395 -198.829367 
L 241.402015 -203.266319 
L 240.656635 -207.748346 
L 239.911254 -212.226482 
L 239.165874 -216.738039 
L 238.420494 -221.226491 
L 237.675113 -225.69205 
L 236.929733 -230.227151 
L 236.184353 -234.793004 
L 235.438972 -239.217431 
L 234.693592 -243.854725 
L 233.948212 -252.604376 
L 233.202831 -262.554368 
L 232.457451 -272.752396 
L 231.712071 -283.521159 
L 230.96669 -304.684451 
L 230.22131 -312.052679 
L 229.47593 -313.125631 
L 228.730549 -315.150834 
L 227.985169 -315.116805 
L 227.239789 -315.375646 
L 226.494408 -314.979601 
L 225.749028 -315.530271 
L 225.003648 -315.106988 
L 224.258267 -314.841782 
L 223.512887 -315.342733 
L 222.767507 -315.087107 
L 222.022126 -315.037777 
L 221.276746 -315.262597 
L 220.531366 -315.156175 
L 219.785985 -315.209738 
L 219.040605 -315.144041 
L 218.295225 -315.228727 
L 217.549844 -315.289514 
L 216.804464 -315.233053 
L 216.059084 -315.181149 
L 215.313703 -315.248858 
L 214.568323 -315.136427 
L 213.822943 -315.07174 
L 213.077562 -315.276249 
L 212.332182 -315.386271 
L 211.586802 -315.239439 
L 210.841421 -315.457702 
L 210.096041 -315.050906 
L 209.350661 -315.70683 
L 208.60528 -315.20661 
L 207.8599 -315.586293 
L 207.11452 -315.029517 
L 206.369139 -315.837402 
L 205.623759 -314.809331 
L 204.878379 -315.926408 
L 204.132998 -314.805835 
L 203.387618 -315.911135 
L 202.642238 -315.581494 
L 201.896857 -315.160772 
L 201.151477 -315.610542 
L 200.406097 -315.315489 
L 199.660716 -314.97619 
L 198.915336 -315.783497 
L 198.169956 -315.207504 
L 197.424575 -315.349748 
L 196.679195 -315.756124 
L 195.933815 -314.781041 
L 195.188434 -315.319616 
L 194.443054 -315.89663 
L 193.697674 -315.372988 
L 192.952293 -314.543206 
L 192.206913 -315.21911 
L 191.461533 -310.759983 
L 190.716152 -306.331996 
L 189.970772 -301.883579 
L 189.225392 -297.444054 
L 188.480011 -293.014558 
L 187.734631 -288.566592 
L 186.989251 -284.112964 
L 186.24387 -279.624632 
L 185.49849 -275.152279 
L 184.75311 -270.639442 
L 184.007729 -266.270462 
L 183.262349 -261.902115 
L 182.516969 -257.386824 
L 181.771588 -252.91169 
L 181.026208 -248.450576 
L 180.280828 -243.987577 
L 179.535447 -239.523578 
L 178.790067 -235.065963 
L 178.044687 -230.580291 
L 177.299306 -226.129161 
L 176.553926 -221.631662 
L 175.808546 -217.175921 
L 175.063165 -212.672371 
L 174.317785 -208.197517 
L 173.572405 -203.710517 
L 172.827024 -199.19882 
L 172.081644 -194.70441 
L 171.336264 -190.200882 
L 170.590883 -185.669901 
L 169.845503 -181.157232 
L 169.100123 -176.610426 
L 168.354742 -172.078901 
L 167.609362 -167.508947 
L 166.863982 -162.958767 
L 166.118601 -158.362675 
L 165.373221 -149.707406 
L 164.627841 -139.538259 
L 163.88246 -129.378992 
L 163.13708 -118.482278 
L 162.3917 -105.220253 
L 161.646319 -82.2107 
L 160.900939 -81.944367 
L 160.155559 -81.648751 
L 159.410178 -81.436429 
L 158.664798 -81.19274 
L 157.919418 -81.247625 
L 157.174037 -81.071958 
L 156.428657 -81.208101 
L 155.683277 -81.07007 
L 154.937896 -81.054687 
L 154.192516 -80.980815 
L 153.447136 -80.918384 
L 152.701755 -80.901843 
L 151.956375 -80.86416 
L 151.210995 -80.97768 
L 150.465614 -80.916076 
L 149.720234 -80.893861 
L 148.974854 -80.877489 
L 148.229473 -80.823895 
L 147.484093 -80.860872 
L 146.738713 -80.80486 
L 145.993332 -80.838616 
L 145.247952 -81.222324 
L 144.502572 -85.756704 
L 143.757191 -90.270286 
L 143.011811 -94.789913 
L 142.266431 -99.369663 
L 141.52105 -103.887685 
L 140.77567 -108.473065 
L 140.03029 -113.080592 
L 139.284909 -117.632658 
L 138.539529 -122.296642 
L 137.794149 -126.879374 
L 137.048768 -131.582306 
L 136.303388 -136.2178 
L 135.558008 -140.949561 
L 134.812627 -146.313182 
L 134.067247 -158.113544 
L 133.321867 -173.418336 
L 132.576486 -198.105312 
L 131.831106 -198.105312 
L 131.085726 -198.105312 
L 130.340345 -198.105312 
L 129.594965 -198.105312 
L 128.849585 -198.105312 
L 128.104204 -198.105312 
L 127.358824 -198.105312 
L 126.613444 -198.105312 
L 125.868063 -198.105312 
L 125.122683 -198.105312 
L 124.377303 -198.105312 
L 123.631922 -198.105312 
L 122.886542 -198.105312 
L 122.141162 -198.105312 
L 121.395781 -198.105312 
z
" style="stroke: #0173b2; stroke-opacity: 0.75"/>
    </defs>
    <g clip-path="url(#p8e3ef5e6db)">
     <use xlink:href="#me9872f0c3f" x="0" y="361.015312" style="fill: #0173b2; fill-opacity: 0.75; stroke: #0173b2; stroke-opacity: 0.75"/>
    </g>
   </g>
   <g id="matplotlib.axis_1">
    <g id="xtick_1">
     <g id="line2d_1">
      <defs>
       <path id="m7bee13b428" d="M 0 0 
L 0 3.5 
" style="stroke: #000000; stroke-width: 0.8"/>
      </defs>
      <g>
       <use xlink:href="#m7bee13b428" x="121.395781" y="287.65" style="stroke: #000000; stroke-width: 0.8"/>
      </g>
     </g>
     <g id="text_1">
      <!-- 0 -->
      <g transform="translate(112.806406 315.165781) scale(0.27 -0.27)">
       <defs>
        <path id="DejaVuSans-30" d="M 2034 4250 
Q 1547 4250 1301 3770 
Q 1056 3291 1056 2328 
Q 1056 1369 1301 889 
Q 1547 409 2034 409 
Q 2525 409 2770 889 
Q 3016 1369 3016 2328 
Q 3016 3291 2770 3770 
Q 2525 4250 2034 4250 
z
M 2034 4750 
Q 2819 4750 3233 4129 
Q 3647 3509 3647 2328 
Q 3647 1150 3233 529 
Q 2819 -91 2034 -91 
Q 1250 -91 836 529 
Q 422 1150 422 2328 
Q 422 3509 836 4129 
Q 1250 4750 2034 4750 
z
" transform="scale(0.015625)"/>
       </defs>
       <use xlink:href="#DejaVuSans-30"/>
      </g>
     </g>
    </g>
    <g id="xtick_2">
     <g id="line2d_2">
      <g>
       <use xlink:href="#m7bee13b428" x="214.568323" y="287.65" style="stroke: #000000; stroke-width: 0.8"/>
      </g>
     </g>
     <g id="text_2">
      <!-- 25 -->
      <g transform="translate(197.389573 315.165781) scale(0.27 -0.27)">
       <defs>
        <path id="DejaVuSans-32" d="M 1228 531 
L 3431 531 
L 3431 0 
L 469 0 
L 469 531 
Q 828 903 1448 1529 
Q 2069 2156 2228 2338 
Q 2531 2678 2651 2914 
Q 2772 3150 2772 3378 
Q 2772 3750 2511 3984 
Q 2250 4219 1831 4219 
Q 1534 4219 1204 4116 
Q 875 4013 500 3803 
L 500 4441 
Q 881 4594 1212 4672 
Q 1544 4750 1819 4750 
Q 2544 4750 2975 4387 
Q 3406 4025 3406 3419 
Q 3406 3131 3298 2873 
Q 3191 2616 2906 2266 
Q 2828 2175 2409 1742 
Q 1991 1309 1228 531 
z
" transform="scale(0.015625)"/>
        <path id="DejaVuSans-35" d="M 691 4666 
L 3169 4666 
L 3169 4134 
L 1269 4134 
L 1269 2991 
Q 1406 3038 1543 3061 
Q 1681 3084 1819 3084 
Q 2600 3084 3056 2656 
Q 3513 2228 3513 1497 
Q 3513 744 3044 326 
Q 2575 -91 1722 -91 
Q 1428 -91 1123 -41 
Q 819 9 494 109 
L 494 744 
Q 775 591 1075 516 
Q 1375 441 1709 441 
Q 2250 441 2565 725 
Q 2881 1009 2881 1497 
Q 2881 1984 2565 2268 
Q 2250 2553 1709 2553 
Q 1456 2553 1204 2497 
Q 953 2441 691 2322 
L 691 4666 
z
" transform="scale(0.015625)"/>
       </defs>
       <use xlink:href="#DejaVuSans-32"/>
       <use xlink:href="#DejaVuSans-35" x="63.623047"/>
      </g>
     </g>
    </g>
    <g id="xtick_3">
     <g id="line2d_3">
      <g>
       <use xlink:href="#m7bee13b428" x="307.740865" y="287.65" style="stroke: #000000; stroke-width: 0.8"/>
      </g>
     </g>
     <g id="text_3">
      <!-- 50 -->
      <g transform="translate(290.562115 315.165781) scale(0.27 -0.27)">
       <use xlink:href="#DejaVuSans-35"/>
       <use xlink:href="#DejaVuSans-30" x="63.623047"/>
      </g>
     </g>
    </g>
    <g id="xtick_4">
     <g id="line2d_4">
      <g>
       <use xlink:href="#m7bee13b428" x="400.913406" y="287.65" style="stroke: #000000; stroke-width: 0.8"/>
      </g>
     </g>
     <g id="text_4">
      <!-- 75 -->
      <g transform="translate(383.734656 315.165781) scale(0.27 -0.27)">
       <defs>
        <path id="DejaVuSans-37" d="M 525 4666 
L 3525 4666 
L 3525 4397 
L 1831 0 
L 1172 0 
L 2766 4134 
L 525 4134 
L 525 4666 
z
" transform="scale(0.015625)"/>
       </defs>
       <use xlink:href="#DejaVuSans-37"/>
       <use xlink:href="#DejaVuSans-35" x="63.623047"/>
      </g>
     </g>
    </g>
    <g id="xtick_5">
     <g id="line2d_5">
      <g>
       <use xlink:href="#m7bee13b428" x="494.085948" y="287.65" style="stroke: #000000; stroke-width: 0.8"/>
      </g>
     </g>
     <g id="text_5">
      <!-- 100 -->
      <g transform="translate(468.317823 315.165781) scale(0.27 -0.27)">
       <defs>
        <path id="DejaVuSans-31" d="M 794 531 
L 1825 531 
L 1825 4091 
L 703 3866 
L 703 4441 
L 1819 4666 
L 2450 4666 
L 2450 531 
L 3481 531 
L 3481 0 
L 794 0 
L 794 531 
z
" transform="scale(0.015625)"/>
       </defs>
       <use xlink:href="#DejaVuSans-31"/>
       <use xlink:href="#DejaVuSans-30" x="63.623047"/>
       <use xlink:href="#DejaVuSans-30" x="127.246094"/>
      </g>
     </g>
    </g>
    <g id="text_6">
     <!-- Time [ms] -->
     <g transform="translate(250.777717 347.57625) scale(0.3 -0.3)">
      <defs>
       <path id="DejaVuSans-54" d="M -19 4666 
L 3928 4666 
L 3928 4134 
L 2272 4134 
L 2272 0 
L 1638 0 
L 1638 4134 
L -19 4134 
L -19 4666 
z
" transform="scale(0.015625)"/>
       <path id="DejaVuSans-69" d="M 603 3500 
L 1178 3500 
L 1178 0 
L 603 0 
L 603 3500 
z
M 603 4863 
L 1178 4863 
L 1178 4134 
L 603 4134 
L 603 4863 
z
" transform="scale(0.015625)"/>
       <path id="DejaVuSans-6d" d="M 3328 2828 
Q 3544 3216 3844 3400 
Q 4144 3584 4550 3584 
Q 5097 3584 5394 3201 
Q 5691 2819 5691 2113 
L 5691 0 
L 5113 0 
L 5113 2094 
Q 5113 2597 4934 2840 
Q 4756 3084 4391 3084 
Q 3944 3084 3684 2787 
Q 3425 2491 3425 1978 
L 3425 0 
L 2847 0 
L 2847 2094 
Q 2847 2600 2669 2842 
Q 2491 3084 2119 3084 
Q 1678 3084 1418 2786 
Q 1159 2488 1159 1978 
L 1159 0 
L 581 0 
L 581 3500 
L 1159 3500 
L 1159 2956 
Q 1356 3278 1631 3431 
Q 1906 3584 2284 3584 
Q 2666 3584 2933 3390 
Q 3200 3197 3328 2828 
z
" transform="scale(0.015625)"/>
       <path id="DejaVuSans-65" d="M 3597 1894 
L 3597 1613 
L 953 1613 
Q 991 1019 1311 708 
Q 1631 397 2203 397 
Q 2534 397 2845 478 
Q 3156 559 3463 722 
L 3463 178 
Q 3153 47 2828 -22 
Q 2503 -91 2169 -91 
Q 1331 -91 842 396 
Q 353 884 353 1716 
Q 353 2575 817 3079 
Q 1281 3584 2069 3584 
Q 2775 3584 3186 3129 
Q 3597 2675 3597 1894 
z
M 3022 2063 
Q 3016 2534 2758 2815 
Q 2500 3097 2075 3097 
Q 1594 3097 1305 2825 
Q 1016 2553 972 2059 
L 3022 2063 
z
" transform="scale(0.015625)"/>
       <path id="DejaVuSans-20" transform="scale(0.015625)"/>
       <path id="DejaVuSans-5b" d="M 550 4863 
L 1875 4863 
L 1875 4416 
L 1125 4416 
L 1125 -397 
L 1875 -397 
L 1875 -844 
L 550 -844 
L 550 4863 
z
" transform="scale(0.015625)"/>
       <path id="DejaVuSans-73" d="M 2834 3397 
L 2834 2853 
Q 2591 2978 2328 3040 
Q 2066 3103 1784 3103 
Q 1356 3103 1142 2972 
Q 928 2841 928 2578 
Q 928 2378 1081 2264 
Q 1234 2150 1697 2047 
L 1894 2003 
Q 2506 1872 2764 1633 
Q 3022 1394 3022 966 
Q 3022 478 2636 193 
Q 2250 -91 1575 -91 
Q 1294 -91 989 -36 
Q 684 19 347 128 
L 347 722 
Q 666 556 975 473 
Q 1284 391 1588 391 
Q 1994 391 2212 530 
Q 2431 669 2431 922 
Q 2431 1156 2273 1281 
Q 2116 1406 1581 1522 
L 1381 1569 
Q 847 1681 609 1914 
Q 372 2147 372 2553 
Q 372 3047 722 3315 
Q 1072 3584 1716 3584 
Q 2034 3584 2315 3537 
Q 2597 3491 2834 3397 
z
" transform="scale(0.015625)"/>
       <path id="DejaVuSans-5d" d="M 1947 4863 
L 1947 -844 
L 622 -844 
L 622 -397 
L 1369 -397 
L 1369 4416 
L 622 4416 
L 622 4863 
L 1947 4863 
z
" transform="scale(0.015625)"/>
      </defs>
      <use xlink:href="#DejaVuSans-54"/>
      <use xlink:href="#DejaVuSans-69" x="57.958984"/>
      <use xlink:href="#DejaVuSans-6d" x="85.742188"/>
      <use xlink:href="#DejaVuSans-65" x="183.154297"/>
      <use xlink:href="#DejaVuSans-20" x="244.677734"/>
      <use xlink:href="#DejaVuSans-5b" x="276.464844"/>
      <use xlink:href="#DejaVuSans-6d" x="315.478516"/>
      <use xlink:href="#DejaVuSans-73" x="412.890625"/>
      <use xlink:href="#DejaVuSans-5d" x="464.990234"/>
     </g>
    </g>
   </g>
   <g id="matplotlib.axis_2">
    <g id="ytick_1">
     <g id="line2d_6">
      <defs>
       <path id="m3458acb47a" d="M 0 0 
L -3.5 0 
" style="stroke: #000000; stroke-width: 0.8"/>
      </defs>
      <g>
       <use xlink:href="#m3458acb47a" x="121.395781" y="287.029403" style="stroke: #000000; stroke-width: 0.8"/>
      </g>
     </g>
     <g id="text_7">
      <!-- −200 -->
      <g transform="translate(40.234375 297.287294) scale(0.27 -0.27)">
       <defs>
        <path id="DejaVuSans-2212" d="M 678 2272 
L 4684 2272 
L 4684 1741 
L 678 1741 
L 678 2272 
z
" transform="scale(0.015625)"/>
       </defs>
       <use xlink:href="#DejaVuSans-2212"/>
       <use xlink:href="#DejaVuSans-32" x="83.789062"/>
       <use xlink:href="#DejaVuSans-30" x="147.412109"/>
       <use xlink:href="#DejaVuSans-30" x="211.035156"/>
      </g>
     </g>
    </g>
    <g id="ytick_2">
     <g id="line2d_7">
      <g>
       <use xlink:href="#m3458acb47a" x="121.395781" y="224.969701" style="stroke: #000000; stroke-width: 0.8"/>
      </g>
     </g>
     <g id="text_8">
      <!-- −100 -->
      <g transform="translate(40.234375 235.227592) scale(0.27 -0.27)">
       <use xlink:href="#DejaVuSans-2212"/>
       <use xlink:href="#DejaVuSans-31" x="83.789062"/>
       <use xlink:href="#DejaVuSans-30" x="147.412109"/>
       <use xlink:href="#DejaVuSans-30" x="211.035156"/>
      </g>
     </g>
    </g>
    <g id="ytick_3">
     <g id="line2d_8">
      <g>
       <use xlink:href="#m3458acb47a" x="121.395781" y="162.91" style="stroke: #000000; stroke-width: 0.8"/>
      </g>
     </g>
     <g id="text_9">
      <!-- 0 -->
      <g transform="translate(97.217031 173.167891) scale(0.27 -0.27)">
       <use xlink:href="#DejaVuSans-30"/>
      </g>
     </g>
    </g>
    <g id="ytick_4">
     <g id="line2d_9">
      <g>
       <use xlink:href="#m3458acb47a" x="121.395781" y="100.850299" style="stroke: #000000; stroke-width: 0.8"/>
      </g>
     </g>
     <g id="text_10">
      <!-- 100 -->
      <g transform="translate(62.859531 111.108189) scale(0.27 -0.27)">
       <use xlink:href="#DejaVuSans-31"/>
       <use xlink:href="#DejaVuSans-30" x="63.623047"/>
       <use xlink:href="#DejaVuSans-30" x="127.246094"/>
      </g>
     </g>
    </g>
    <g id="ytick_5">
     <g id="line2d_10">
      <g>
       <use xlink:href="#m3458acb47a" x="121.395781" y="38.790597" style="stroke: #000000; stroke-width: 0.8"/>
      </g>
     </g>
     <g id="text_11">
      <!-- 200 -->
      <g transform="translate(62.859531 49.048488) scale(0.27 -0.27)">
       <use xlink:href="#DejaVuSans-32"/>
       <use xlink:href="#DejaVuSans-30" x="63.623047"/>
       <use xlink:href="#DejaVuSans-30" x="127.246094"/>
      </g>
     </g>
    </g>
    <g id="text_12">
     <!-- mT/m -->
     <g transform="translate(29.995313 206.346719) rotate(-90) scale(0.3 -0.3)">
      <defs>
       <path id="DejaVuSans-2f" d="M 1625 4666 
L 2156 4666 
L 531 -594 
L 0 -594 
L 1625 4666 
z
" transform="scale(0.015625)"/>
      </defs>
      <use xlink:href="#DejaVuSans-6d"/>
      <use xlink:href="#DejaVuSans-54" x="97.412109"/>
      <use xlink:href="#DejaVuSans-2f" x="158.496094"/>
      <use xlink:href="#DejaVuSans-6d" x="192.1875"/>
     </g>
    </g>
   </g>
   <g id="line2d_11">
    <path d="M 121.395781 162.91 
L 531.354965 162.91 
" clip-path="url(#p8e3ef5e6db)" style="fill: none; stroke: #d3d3d3; stroke-opacity: 0.8; stroke-width: 1.5; stroke-linecap: square"/>
   </g>
   <g id="line2d_12">
    <path d="M 121.395781 162.91 
L 132.576486 162.91 
L 133.321867 187.596976 
L 134.067247 202.901769 
L 134.812627 214.70213 
L 136.303388 224.797513 
L 145.247952 279.792988 
L 145.993332 280.176696 
L 148.229473 280.191417 
L 151.210995 280.037632 
L 151.956375 280.151153 
L 155.683277 279.945242 
L 156.428657 279.807212 
L 157.174037 279.943355 
L 157.919418 279.767687 
L 158.664798 279.822573 
L 161.646319 278.804613 
L 162.3917 255.795059 
L 163.13708 242.533035 
L 165.373221 211.307907 
L 166.118601 202.652638 
L 173.572405 157.304796 
L 192.206913 45.796203 
L 192.952293 46.472107 
L 193.697674 45.642325 
L 194.443054 45.118683 
L 195.933815 46.234271 
L 196.679195 45.259188 
L 197.424575 45.665565 
L 198.169956 45.807808 
L 198.915336 45.231815 
L 199.660716 46.039122 
L 201.151477 45.404771 
L 201.896857 45.854541 
L 203.387618 45.104178 
L 204.132998 46.209478 
L 204.878379 45.088905 
L 205.623759 46.205982 
L 206.369139 45.177911 
L 207.11452 45.985796 
L 207.8599 45.429019 
L 208.60528 45.808703 
L 209.350661 45.308482 
L 210.096041 45.964406 
L 210.841421 45.557611 
L 211.586802 45.775873 
L 212.332182 45.629041 
L 214.568323 45.878886 
L 215.313703 45.766454 
L 216.059084 45.834164 
L 218.295225 45.786586 
L 219.040605 45.871272 
L 219.785985 45.805574 
L 220.531366 45.859138 
L 221.276746 45.752715 
L 222.022126 45.977536 
L 222.767507 45.928206 
L 223.512887 45.672579 
L 224.258267 46.17353 
L 225.003648 45.908325 
L 225.749028 45.485041 
L 226.494408 46.035712 
L 227.239789 45.639667 
L 227.985169 45.898507 
L 228.730549 45.864479 
L 229.47593 47.889681 
L 230.22131 48.962633 
L 230.96669 56.330862 
L 231.712071 77.494153 
L 233.948212 108.410937 
L 234.693592 117.160588 
L 238.420494 139.788821 
L 242.147395 162.185946 
L 242.892776 162.91 
L 269.726468 162.91 
L 270.471848 142.664869 
L 271.962609 121.981816 
L 273.453369 103.435575 
L 274.19875 97.787489 
L 280.161792 61.131551 
L 282.397933 47.571238 
L 283.143314 47.429855 
L 283.888694 46.129688 
L 285.379455 46.000818 
L 286.124835 46.126192 
L 287.615596 46.009623 
L 293.578638 46.079982 
L 295.069399 45.948738 
L 295.814779 46.156515 
L 297.30554 46.033648 
L 298.05092 46.238097 
L 298.796301 45.974198 
L 299.541681 46.229396 
L 301.777822 46.594977 
L 302.523202 46.919244 
L 303.268583 47.516082 
L 304.013963 47.813027 
L 304.759343 60.516039 
L 305.504724 77.755303 
L 307.740865 107.173199 
L 309.231625 123.797188 
L 321.157711 195.698614 
L 330.847655 253.563507 
L 331.593035 253.631449 
L 333.083796 253.518035 
L 333.829176 230.086657 
L 335.319937 211.247795 
L 337.556078 186.185237 
L 339.792219 162.91 
L 339.792219 162.91 
" clip-path="url(#p8e3ef5e6db)" style="fill: none; stroke: #000000; stroke-width: 5; stroke-linecap: square"/>
   </g>
   <g id="line2d_13">
    <path d="M 339.792219 162.91 
L 341.692939 162.91 
L 342.550126 184.261831 
L 342.587395 183.33349 
L 344.339039 141.558169 
L 345.121688 141.558169 
L 346.910601 184.261831 
L 347.693251 184.261831 
L 349.482163 141.558169 
L 350.264813 141.558169 
L 352.053726 184.261831 
L 352.836375 184.261831 
L 354.625288 141.558169 
L 355.407937 141.558169 
L 357.19685 184.261831 
L 357.979499 184.261831 
L 359.768412 141.558169 
L 360.551061 141.558169 
L 362.339974 184.261831 
L 363.122624 184.261831 
L 364.911536 141.558169 
L 365.694186 141.558169 
L 367.483099 184.261831 
L 368.265748 184.261831 
L 370.054661 141.558169 
L 370.83731 141.558169 
L 372.626223 184.261831 
L 373.408872 184.261831 
L 375.197785 141.558169 
L 375.980434 141.558169 
L 377.769347 184.261831 
L 378.551996 184.261831 
L 380.340909 141.558169 
L 381.123559 141.558169 
L 382.912471 184.261831 
L 383.695121 184.261831 
L 385.484034 141.558169 
L 386.266683 141.558169 
L 388.055596 184.261831 
L 388.838245 184.261831 
L 390.627158 141.558169 
L 391.409807 141.558169 
L 393.19872 184.261831 
L 393.981369 184.261831 
L 395.770282 141.558169 
L 396.552932 141.558169 
L 398.341844 184.261831 
L 399.124494 184.261831 
L 400.913406 141.558169 
L 401.696056 141.558169 
L 403.484969 184.261831 
L 404.267618 184.261831 
L 406.056531 141.558169 
L 406.83918 141.558169 
L 408.628093 184.261831 
L 409.410742 184.261831 
L 411.199655 141.558169 
L 411.982304 141.558169 
L 413.771217 184.261831 
L 414.553867 184.261831 
L 416.342779 141.558169 
L 417.125429 141.558169 
L 418.914342 184.261831 
L 419.696991 184.261831 
L 421.485904 141.558169 
L 422.268553 141.558169 
L 424.057466 184.261831 
L 424.840115 184.261831 
L 426.629028 141.558169 
L 427.411677 141.558169 
L 429.20059 184.261831 
L 429.98324 184.261831 
L 431.772152 141.558169 
L 432.554802 141.558169 
L 434.343714 184.261831 
L 435.126364 184.261831 
L 436.915277 141.558169 
L 437.697926 141.558169 
L 439.486839 184.261831 
L 440.269488 184.261831 
L 442.058401 141.558169 
L 442.84105 141.558169 
L 444.629963 184.261831 
L 445.412612 184.261831 
L 447.201525 141.558169 
L 447.984175 141.558169 
L 449.773087 184.261831 
L 450.555737 184.261831 
L 452.34465 141.558169 
L 453.127299 141.558169 
L 454.916212 184.261831 
L 455.698861 184.261831 
L 457.487774 141.558169 
L 458.270423 141.558169 
L 460.059336 184.261831 
L 460.841985 184.261831 
L 462.630898 141.558169 
L 463.413547 141.558169 
L 465.20246 184.261831 
L 465.98511 184.261831 
L 467.774022 141.558169 
L 468.556672 141.558169 
L 470.345585 184.261831 
L 471.128234 184.261831 
L 472.917147 141.558169 
L 473.699796 141.558169 
L 475.488709 184.261831 
L 476.271358 184.261831 
L 478.060271 141.558169 
L 478.84292 141.558169 
L 480.631833 184.261831 
L 481.414483 184.261831 
L 483.203395 141.558169 
L 483.986045 141.558169 
L 484.880501 162.91 
L 484.880501 162.91 
" clip-path="url(#p8e3ef5e6db)" style="fill: none; stroke: #000000; stroke-opacity: 0.7; stroke-width: 5; stroke-linecap: square"/>
   </g>
   <g id="line2d_14">
    <path d="M 390.977487 287.65 
L 390.977487 38.17 
" clip-path="url(#p8e3ef5e6db)" style="fill: none; stroke-dasharray: 18.5,8; stroke-dashoffset: 0; stroke: #000000; stroke-width: 5"/>
   </g>
   <g id="line2d_15">
    <path d="M 121.395781 38.790597 
L 531.354965 38.790597 
" clip-path="url(#p8e3ef5e6db)" style="fill: none; stroke-dasharray: 18.5,8; stroke-dashoffset: 0; stroke: #000000; stroke-opacity: 0.2; stroke-width: 5"/>
   </g>
   <g id="line2d_16">
    <path d="M 121.395781 287.029403 
L 531.354965 287.029403 
" clip-path="url(#p8e3ef5e6db)" style="fill: none; stroke-dasharray: 18.5,8; stroke-dashoffset: 0; stroke: #000000; stroke-opacity: 0.2; stroke-width: 5"/>
   </g>
   <g id="line2d_17">
    <path d="M 121.395781 162.91 
L 531.354965 162.91 
" clip-path="url(#p8e3ef5e6db)" style="fill: none; stroke: #000000; stroke-width: 5; stroke-linecap: square"/>
   </g>
   <g id="patch_3">
    <path d="M 121.395781 287.65 
L 121.395781 38.17 
" style="fill: none; stroke: #000000; stroke-width: 0.8; stroke-linejoin: miter; stroke-linecap: square"/>
   </g>
   <g id="patch_4">
    <path d="M 121.395781 287.65 
L 531.354965 287.65 
" style="fill: none; stroke: #000000; stroke-width: 0.8; stroke-linejoin: miter; stroke-linecap: square"/>
   </g>
   <g id="text_13">
    <!-- $G(t)$ -->
    <g transform="translate(295.175373 31.515) scale(0.32 -0.32)">
     <defs>
      <path id="DejaVuSans-Oblique-47" d="M 3494 697 
L 3738 1919 
L 2700 1919 
L 2797 2438 
L 4453 2438 
L 4050 384 
Q 3634 156 3143 32 
Q 2653 -91 2156 -91 
Q 1278 -91 783 396 
Q 288 884 288 1753 
Q 288 2475 589 3126 
Q 891 3778 1422 4213 
Q 1756 4484 2153 4617 
Q 2550 4750 3034 4750 
Q 3472 4750 3873 4639 
Q 4275 4528 4641 4306 
L 4513 3634 
Q 4231 3928 3853 4083 
Q 3475 4238 3047 4238 
Q 2550 4238 2172 4048 
Q 1794 3859 1497 3463 
Q 1244 3125 1098 2667 
Q 953 2209 953 1734 
Q 953 1081 1287 751 
Q 1622 422 2284 422 
Q 2616 422 2925 492 
Q 3234 563 3494 697 
z
" transform="scale(0.015625)"/>
      <path id="DejaVuSans-28" d="M 1984 4856 
Q 1566 4138 1362 3434 
Q 1159 2731 1159 2009 
Q 1159 1288 1364 580 
Q 1569 -128 1984 -844 
L 1484 -844 
Q 1016 -109 783 600 
Q 550 1309 550 2009 
Q 550 2706 781 3412 
Q 1013 4119 1484 4856 
L 1984 4856 
z
" transform="scale(0.015625)"/>
      <path id="DejaVuSans-Oblique-74" d="M 2706 3500 
L 2619 3053 
L 1472 3053 
L 1100 1153 
Q 1081 1047 1072 975 
Q 1063 903 1063 863 
Q 1063 663 1183 572 
Q 1303 481 1569 481 
L 2150 481 
L 2053 0 
L 1503 0 
Q 991 0 739 200 
Q 488 400 488 806 
Q 488 878 497 964 
Q 506 1050 525 1153 
L 897 3053 
L 409 3053 
L 500 3500 
L 978 3500 
L 1172 4494 
L 1747 4494 
L 1556 3500 
L 2706 3500 
z
" transform="scale(0.015625)"/>
      <path id="DejaVuSans-29" d="M 513 4856 
L 1013 4856 
Q 1481 4119 1714 3412 
Q 1947 2706 1947 2009 
Q 1947 1309 1714 600 
Q 1481 -109 1013 -844 
L 513 -844 
Q 928 -128 1133 580 
Q 1338 1288 1338 2009 
Q 1338 2731 1133 3434 
Q 928 4138 513 4856 
z
" transform="scale(0.015625)"/>
     </defs>
     <use xlink:href="#DejaVuSans-Oblique-47" transform="translate(0 0.125)"/>
     <use xlink:href="#DejaVuSans-28" transform="translate(77.490234 0.125)"/>
     <use xlink:href="#DejaVuSans-Oblique-74" transform="translate(116.503906 0.125)"/>
     <use xlink:href="#DejaVuSans-29" transform="translate(155.712891 0.125)"/>
    </g>
   </g>
   <g id="legend_1">
    <g id="patch_5">
     <path d="M 507.154965 66.77 
L 515.954965 66.77 
Q 520.354965 66.77 520.354965 62.37 
L 520.354965 53.57 
Q 520.354965 49.17 515.954965 49.17 
L 507.154965 49.17 
Q 502.754965 49.17 502.754965 53.57 
L 502.754965 62.37 
Q 502.754965 66.77 507.154965 66.77 
z
" style="fill: #ffffff; opacity: 0.8; stroke: #cccccc; stroke-linejoin: miter"/>
    </g>
   </g>
  </g>
  <g id="axes_2">
   <g id="patch_6">
    <path d="M 654.34272 287.65 
L 1064.301904 287.65 
L 1064.301904 38.17 
L 654.34272 38.17 
z
" style="fill: #ffffff"/>
   </g>
   <g id="matplotlib.axis_3">
    <g id="xtick_6">
     <g id="line2d_18">
      <g>
       <use xlink:href="#m7bee13b428" x="654.34272" y="287.65" style="stroke: #000000; stroke-width: 0.8"/>
      </g>
     </g>
     <g id="text_14">
      <!-- 0 -->
      <g transform="translate(645.753345 315.165781) scale(0.27 -0.27)">
       <use xlink:href="#DejaVuSans-30"/>
      </g>
     </g>
    </g>
    <g id="xtick_7">
     <g id="line2d_19">
      <g>
       <use xlink:href="#m7bee13b428" x="747.515262" y="287.65" style="stroke: #000000; stroke-width: 0.8"/>
      </g>
     </g>
     <g id="text_15">
      <!-- 25 -->
      <g transform="translate(730.336512 315.165781) scale(0.27 -0.27)">
       <use xlink:href="#DejaVuSans-32"/>
       <use xlink:href="#DejaVuSans-35" x="63.623047"/>
      </g>
     </g>
    </g>
    <g id="xtick_8">
     <g id="line2d_20">
      <g>
       <use xlink:href="#m7bee13b428" x="840.687804" y="287.65" style="stroke: #000000; stroke-width: 0.8"/>
      </g>
     </g>
     <g id="text_16">
      <!-- 50 -->
      <g transform="translate(823.509054 315.165781) scale(0.27 -0.27)">
       <use xlink:href="#DejaVuSans-35"/>
       <use xlink:href="#DejaVuSans-30" x="63.623047"/>
      </g>
     </g>
    </g>
    <g id="xtick_9">
     <g id="line2d_21">
      <g>
       <use xlink:href="#m7bee13b428" x="933.860345" y="287.65" style="stroke: #000000; stroke-width: 0.8"/>
      </g>
     </g>
     <g id="text_17">
      <!-- 75 -->
      <g transform="translate(916.681595 315.165781) scale(0.27 -0.27)">
       <use xlink:href="#DejaVuSans-37"/>
       <use xlink:href="#DejaVuSans-35" x="63.623047"/>
      </g>
     </g>
    </g>
    <g id="xtick_10">
     <g id="line2d_22">
      <g>
       <use xlink:href="#m7bee13b428" x="1027.032887" y="287.65" style="stroke: #000000; stroke-width: 0.8"/>
      </g>
     </g>
     <g id="text_18">
      <!-- 100 -->
      <g transform="translate(1001.264762 315.165781) scale(0.27 -0.27)">
       <use xlink:href="#DejaVuSans-31"/>
       <use xlink:href="#DejaVuSans-30" x="63.623047"/>
       <use xlink:href="#DejaVuSans-30" x="127.246094"/>
      </g>
     </g>
    </g>
    <g id="text_19">
     <!-- Time [ms] -->
     <g transform="translate(783.724656 347.57625) scale(0.3 -0.3)">
      <use xlink:href="#DejaVuSans-54"/>
      <use xlink:href="#DejaVuSans-69" x="57.958984"/>
      <use xlink:href="#DejaVuSans-6d" x="85.742188"/>
      <use xlink:href="#DejaVuSans-65" x="183.154297"/>
      <use xlink:href="#DejaVuSans-20" x="244.677734"/>
      <use xlink:href="#DejaVuSans-5b" x="276.464844"/>
      <use xlink:href="#DejaVuSans-6d" x="315.478516"/>
      <use xlink:href="#DejaVuSans-73" x="412.890625"/>
      <use xlink:href="#DejaVuSans-5d" x="464.990234"/>
     </g>
    </g>
   </g>
   <g id="matplotlib.axis_4">
    <g id="ytick_6">
     <g id="line2d_23">
      <g>
       <use xlink:href="#m3458acb47a" x="654.34272" y="287.029403" style="stroke: #000000; stroke-width: 0.8"/>
      </g>
     </g>
     <g id="text_20">
      <!-- −200 -->
      <g transform="translate(573.181314 297.287294) scale(0.27 -0.27)">
       <use xlink:href="#DejaVuSans-2212"/>
       <use xlink:href="#DejaVuSans-32" x="83.789062"/>
       <use xlink:href="#DejaVuSans-30" x="147.412109"/>
       <use xlink:href="#DejaVuSans-30" x="211.035156"/>
      </g>
     </g>
    </g>
    <g id="ytick_7">
     <g id="line2d_24">
      <g>
       <use xlink:href="#m3458acb47a" x="654.34272" y="224.969701" style="stroke: #000000; stroke-width: 0.8"/>
      </g>
     </g>
     <g id="text_21">
      <!-- −100 -->
      <g transform="translate(573.181314 235.227592) scale(0.27 -0.27)">
       <use xlink:href="#DejaVuSans-2212"/>
       <use xlink:href="#DejaVuSans-31" x="83.789062"/>
       <use xlink:href="#DejaVuSans-30" x="147.412109"/>
       <use xlink:href="#DejaVuSans-30" x="211.035156"/>
      </g>
     </g>
    </g>
    <g id="ytick_8">
     <g id="line2d_25">
      <g>
       <use xlink:href="#m3458acb47a" x="654.34272" y="162.91" style="stroke: #000000; stroke-width: 0.8"/>
      </g>
     </g>
     <g id="text_22">
      <!-- 0 -->
      <g transform="translate(630.16397 173.167891) scale(0.27 -0.27)">
       <use xlink:href="#DejaVuSans-30"/>
      </g>
     </g>
    </g>
    <g id="ytick_9">
     <g id="line2d_26">
      <g>
       <use xlink:href="#m3458acb47a" x="654.34272" y="100.850299" style="stroke: #000000; stroke-width: 0.8"/>
      </g>
     </g>
     <g id="text_23">
      <!-- 100 -->
      <g transform="translate(595.80647 111.108189) scale(0.27 -0.27)">
       <use xlink:href="#DejaVuSans-31"/>
       <use xlink:href="#DejaVuSans-30" x="63.623047"/>
       <use xlink:href="#DejaVuSans-30" x="127.246094"/>
      </g>
     </g>
    </g>
    <g id="ytick_10">
     <g id="line2d_27">
      <g>
       <use xlink:href="#m3458acb47a" x="654.34272" y="38.790597" style="stroke: #000000; stroke-width: 0.8"/>
      </g>
     </g>
     <g id="text_24">
      <!-- 200 -->
      <g transform="translate(595.80647 49.048488) scale(0.27 -0.27)">
       <use xlink:href="#DejaVuSans-32"/>
       <use xlink:href="#DejaVuSans-30" x="63.623047"/>
       <use xlink:href="#DejaVuSans-30" x="127.246094"/>
      </g>
     </g>
    </g>
    <g id="text_25">
     <!-- T/m/s -->
     <g transform="translate(562.942251 204.602969) rotate(-90) scale(0.3 -0.3)">
      <use xlink:href="#DejaVuSans-54"/>
      <use xlink:href="#DejaVuSans-2f" x="61.083984"/>
      <use xlink:href="#DejaVuSans-6d" x="94.775391"/>
      <use xlink:href="#DejaVuSans-2f" x="192.1875"/>
      <use xlink:href="#DejaVuSans-73" x="225.878906"/>
     </g>
    </g>
   </g>
   <g id="line2d_28">
    <path d="M 654.34272 162.91 
L 1064.301904 162.91 
" clip-path="url(#p5c14a4ae4d)" style="fill: none; stroke: #d3d3d3; stroke-opacity: 0.8; stroke-width: 1.5; stroke-linecap: square"/>
   </g>
   <g id="line2d_29">
    <path d="M 654.34272 162.91 
L 664.778045 162.91 
L 665.523425 286.344881 
L 666.268805 239.433964 
L 667.014186 221.911805 
L 667.759566 189.728107 
L 668.504946 186.568806 
L 669.250327 186.087468 
L 669.995707 186.424659 
L 670.741087 185.82366 
L 671.486468 186.229924 
L 672.231848 185.67033 
L 672.977228 185.947633 
L 673.722609 185.836899 
L 674.467989 185.500112 
L 675.213369 185.808748 
L 675.95875 185.508135 
L 676.70413 185.477913 
L 677.44951 185.581896 
L 678.194891 164.82854 
L 678.940271 163.078782 
L 679.685651 162.629942 
L 680.431032 163.094882 
L 681.176412 162.64203 
L 681.921792 162.828139 
L 682.667173 162.798928 
L 683.412553 162.601978 
L 684.157933 163.477603 
L 684.903314 162.721585 
L 685.648694 162.827293 
L 686.394074 162.597845 
L 687.139455 162.54064 
L 687.884835 162.833084 
L 688.630215 162.219847 
L 689.375596 163.590715 
L 690.120976 162.031663 
L 690.866356 163.184426 
L 691.611737 161.691553 
L 692.357117 161.848391 
L 693.102497 161.431921 
L 693.847878 161.578335 
L 694.593258 47.862232 
L 695.338638 96.599878 
L 696.084019 108.426427 
L 696.829399 112.113665 
L 697.574779 112.06427 
L 698.32016 119.633654 
L 699.06554 139.929537 
L 699.81092 140.159104 
L 700.556301 140.060227 
L 701.301681 140.252375 
L 702.047061 140.175969 
L 702.792442 140.346655 
L 703.537822 140.255094 
L 705.028583 140.43795 
L 705.773963 140.351518 
L 707.264724 140.535731 
L 708.010104 140.392246 
L 708.755484 140.631297 
L 709.500865 140.422506 
L 710.246245 140.654347 
L 710.991625 140.48164 
L 711.737006 140.621926 
L 714.718527 140.534331 
L 715.463907 140.333547 
L 716.209288 141.068264 
L 716.954668 141.065099 
L 717.700048 140.345818 
L 718.445429 140.548231 
L 719.190809 140.468342 
L 719.936189 140.641861 
L 723.663091 140.770065 
L 724.408471 140.614364 
L 725.153852 166.289522 
L 725.899232 158.76109 
L 726.644612 160.29179 
L 727.389993 165.795066 
L 728.135373 165.602875 
L 728.880753 158.034585 
L 729.626134 164.941884 
L 730.371514 163.621216 
L 731.116894 160.030035 
L 731.862275 166.946537 
L 732.607655 161.213506 
L 733.353035 161.434736 
L 734.098416 165.15885 
L 734.843796 160.80639 
L 735.589176 161.261795 
L 736.334557 168.4365 
L 737.079937 157.307135 
L 737.825317 168.495384 
L 738.570698 157.769644 
L 739.316078 166.949425 
L 740.061458 160.126118 
L 740.806839 164.808419 
L 741.552219 160.408896 
L 742.297599 166.18962 
L 743.04298 160.876023 
L 743.78836 164.001311 
L 744.53374 162.175841 
L 745.279121 163.46011 
L 746.024501 163.932547 
L 746.769881 162.586564 
L 747.515262 162.347842 
L 748.260642 163.248548 
L 749.006022 162.65048 
L 749.751403 162.627694 
L 750.496783 163.213937 
L 751.242163 163.33343 
L 751.987544 162.581513 
L 752.732924 163.177817 
L 753.478304 162.377888 
L 754.223685 164.034102 
L 754.969065 162.66335 
L 755.714445 161.631868 
L 756.459826 165.414754 
L 757.205206 161.583973 
L 757.950586 160.793582 
L 758.695967 165.663352 
L 759.441347 160.929776 
L 760.186727 164.204203 
L 760.932108 162.739857 
L 761.677488 173.036011 
L 762.422868 168.27476 
L 763.168249 199.751144 
L 763.913629 268.726456 
L 764.659009 216.753819 
L 765.40439 213.90014 
L 766.14977 212.659959 
L 766.89515 206.658256 
L 767.640531 186.096467 
L 768.385911 185.032137 
L 769.131291 185.739263 
L 769.876672 185.585506 
L 770.622052 185.237793 
L 772.112813 185.467785 
L 772.858193 185.300677 
L 773.603573 185.320134 
L 774.348954 185.094762 
L 775.094334 166.530272 
L 775.839714 162.91 
L 801.928026 162.91 
L 802.673406 61.684344 
L 803.418787 110.058291 
L 804.164167 112.346447 
L 804.909547 116.613589 
L 805.654928 116.475203 
L 806.400308 134.669571 
L 807.145688 139.609845 
L 808.636449 139.997784 
L 809.381829 139.954405 
L 810.12721 140.125679 
L 810.87259 140.083773 
L 811.61797 140.248656 
L 812.363351 140.159426 
L 813.854111 140.534725 
L 814.599492 140.055453 
L 815.344872 162.203084 
L 816.090252 156.409165 
L 816.835633 162.502541 
L 817.581013 162.673111 
L 818.326393 163.536868 
L 819.071774 162.44074 
L 819.817154 162.796419 
L 820.562534 162.963645 
L 821.307915 162.960939 
L 822.053295 163.12049 
L 822.798675 162.8507 
L 823.544056 163.149395 
L 824.289436 162.284425 
L 825.034817 163.587926 
L 825.780197 162.714274 
L 826.525577 162.445886 
L 827.270958 162.71789 
L 828.016338 163.948885 
L 828.761718 162.65112 
L 829.507099 162.554545 
L 830.252479 163.932248 
L 830.997859 161.590501 
L 831.74324 164.185992 
L 832.48862 163.369833 
L 833.979381 163.662674 
L 834.724761 164.531334 
L 835.470141 165.89419 
L 836.215522 164.394723 
L 836.960902 226.425063 
L 837.706282 249.106317 
L 838.451663 214.170084 
L 839.197043 210.722428 
L 839.942423 210.926972 
L 840.687804 207.1612 
L 841.433184 201.778745 
L 842.178564 185.571343 
L 848.886987 185.372837 
L 849.632368 185.240066 
L 851.123128 185.28908 
L 851.868509 185.185576 
L 853.359269 185.241771 
L 854.10465 185.157971 
L 855.59541 185.201676 
L 857.831551 185.151011 
L 863.049214 185.231858 
L 863.794594 163.249709 
L 864.539974 162.644875 
L 865.285355 162.608057 
L 866.030735 45.753109 
L 866.776115 113.546339 
L 867.521496 118.079351 
L 868.266876 119.423429 
L 869.012256 121.704407 
L 869.757637 122.289375 
L 870.503017 123.670333 
L 871.248397 124.362855 
L 871.993778 124.320627 
L 871.993778 124.320627 
" clip-path="url(#p5c14a4ae4d)" style="fill: none; stroke: #000000; stroke-width: 5; stroke-linecap: square"/>
   </g>
   <g id="line2d_30">
    <path d="M 654.34272 38.790597 
L 1064.301904 38.790597 
" clip-path="url(#p5c14a4ae4d)" style="fill: none; stroke-dasharray: 18.5,8; stroke-dashoffset: 0; stroke: #000000; stroke-opacity: 0.2; stroke-width: 5"/>
   </g>
   <g id="line2d_31">
    <path d="M 654.34272 287.029403 
L 1064.301904 287.029403 
" clip-path="url(#p5c14a4ae4d)" style="fill: none; stroke-dasharray: 18.5,8; stroke-dashoffset: 0; stroke: #000000; stroke-opacity: 0.2; stroke-width: 5"/>
   </g>
   <g id="line2d_32">
    <path d="M 654.34272 162.91 
L 1064.301904 162.91 
" clip-path="url(#p5c14a4ae4d)" style="fill: none; stroke: #000000; stroke-width: 5; stroke-linecap: square"/>
   </g>
   <g id="patch_7">
    <path d="M 654.34272 287.65 
L 654.34272 38.17 
" style="fill: none; stroke: #000000; stroke-width: 0.8; stroke-linejoin: miter; stroke-linecap: square"/>
   </g>
   <g id="patch_8">
    <path d="M 654.34272 287.65 
L 1064.301904 287.65 
" style="fill: none; stroke: #000000; stroke-width: 0.8; stroke-linejoin: miter; stroke-linecap: square"/>
   </g>
   <g id="text_26">
    <!-- $S(t)$ -->
    <g transform="translate(830.362312 31.515) scale(0.32 -0.32)">
     <defs>
      <path id="DejaVuSans-Oblique-53" d="M 3859 4513 
L 3738 3897 
Q 3422 4066 3111 4152 
Q 2800 4238 2509 4238 
Q 1944 4238 1609 3991 
Q 1275 3744 1275 3334 
Q 1275 3109 1398 2989 
Q 1522 2869 2034 2731 
L 2413 2638 
Q 3053 2472 3303 2217 
Q 3553 1963 3553 1503 
Q 3553 797 2998 353 
Q 2444 -91 1538 -91 
Q 1166 -91 791 -17 
Q 416 56 38 206 
L 166 856 
Q 513 641 861 531 
Q 1209 422 1556 422 
Q 2147 422 2503 684 
Q 2859 947 2859 1369 
Q 2859 1650 2717 1795 
Q 2575 1941 2106 2059 
L 1728 2156 
Q 1081 2325 845 2545 
Q 609 2766 609 3163 
Q 609 3859 1145 4304 
Q 1681 4750 2541 4750 
Q 2875 4750 3203 4690 
Q 3531 4631 3859 4513 
z
" transform="scale(0.015625)"/>
     </defs>
     <use xlink:href="#DejaVuSans-Oblique-53" transform="translate(0 0.125)"/>
     <use xlink:href="#DejaVuSans-28" transform="translate(63.476562 0.125)"/>
     <use xlink:href="#DejaVuSans-Oblique-74" transform="translate(102.490234 0.125)"/>
     <use xlink:href="#DejaVuSans-29" transform="translate(141.699219 0.125)"/>
    </g>
   </g>
  </g>
  <g id="axes_3">
   <g id="patch_9">
    <path d="M 1187.289659 287.65 
L 1597.248842 287.65 
L 1597.248842 38.17 
L 1187.289659 38.17 
z
" style="fill: #ffffff"/>
   </g>
   <g id="matplotlib.axis_5">
    <g id="xtick_11">
     <g id="line2d_33">
      <g>
       <use xlink:href="#m7bee13b428" x="1187.289659" y="287.65" style="stroke: #000000; stroke-width: 0.8"/>
      </g>
     </g>
     <g id="text_27">
      <!-- 0 -->
      <g transform="translate(1178.700284 315.165781) scale(0.27 -0.27)">
       <use xlink:href="#DejaVuSans-30"/>
      </g>
     </g>
    </g>
    <g id="xtick_12">
     <g id="line2d_34">
      <g>
       <use xlink:href="#m7bee13b428" x="1280.462201" y="287.65" style="stroke: #000000; stroke-width: 0.8"/>
      </g>
     </g>
     <g id="text_28">
      <!-- 25 -->
      <g transform="translate(1263.283451 315.165781) scale(0.27 -0.27)">
       <use xlink:href="#DejaVuSans-32"/>
       <use xlink:href="#DejaVuSans-35" x="63.623047"/>
      </g>
     </g>
    </g>
    <g id="xtick_13">
     <g id="line2d_35">
      <g>
       <use xlink:href="#m7bee13b428" x="1373.634742" y="287.65" style="stroke: #000000; stroke-width: 0.8"/>
      </g>
     </g>
     <g id="text_29">
      <!-- 50 -->
      <g transform="translate(1356.455992 315.165781) scale(0.27 -0.27)">
       <use xlink:href="#DejaVuSans-35"/>
       <use xlink:href="#DejaVuSans-30" x="63.623047"/>
      </g>
     </g>
    </g>
    <g id="xtick_14">
     <g id="line2d_36">
      <g>
       <use xlink:href="#m7bee13b428" x="1466.807284" y="287.65" style="stroke: #000000; stroke-width: 0.8"/>
      </g>
     </g>
     <g id="text_30">
      <!-- 75 -->
      <g transform="translate(1449.628534 315.165781) scale(0.27 -0.27)">
       <use xlink:href="#DejaVuSans-37"/>
       <use xlink:href="#DejaVuSans-35" x="63.623047"/>
      </g>
     </g>
    </g>
    <g id="xtick_15">
     <g id="line2d_37">
      <g>
       <use xlink:href="#m7bee13b428" x="1559.979826" y="287.65" style="stroke: #000000; stroke-width: 0.8"/>
      </g>
     </g>
     <g id="text_31">
      <!-- 100 -->
      <g transform="translate(1534.211701 315.165781) scale(0.27 -0.27)">
       <use xlink:href="#DejaVuSans-31"/>
       <use xlink:href="#DejaVuSans-30" x="63.623047"/>
       <use xlink:href="#DejaVuSans-30" x="127.246094"/>
      </g>
     </g>
    </g>
    <g id="text_32">
     <!-- Time [ms] -->
     <g transform="translate(1316.671594 347.57625) scale(0.3 -0.3)">
      <use xlink:href="#DejaVuSans-54"/>
      <use xlink:href="#DejaVuSans-69" x="57.958984"/>
      <use xlink:href="#DejaVuSans-6d" x="85.742188"/>
      <use xlink:href="#DejaVuSans-65" x="183.154297"/>
      <use xlink:href="#DejaVuSans-20" x="244.677734"/>
      <use xlink:href="#DejaVuSans-5b" x="276.464844"/>
      <use xlink:href="#DejaVuSans-6d" x="315.478516"/>
      <use xlink:href="#DejaVuSans-73" x="412.890625"/>
      <use xlink:href="#DejaVuSans-5d" x="464.990234"/>
     </g>
    </g>
   </g>
   <g id="matplotlib.axis_6">
    <g id="ytick_11">
     <g id="line2d_38">
      <g>
       <use xlink:href="#m3458acb47a" x="1187.289659" y="287.65" style="stroke: #000000; stroke-width: 0.8"/>
      </g>
     </g>
     <g id="text_33">
      <!-- 0.00 -->
      <g transform="translate(1120.172471 297.907891) scale(0.27 -0.27)">
       <defs>
        <path id="DejaVuSans-2e" d="M 684 794 
L 1344 794 
L 1344 0 
L 684 0 
L 684 794 
z
" transform="scale(0.015625)"/>
       </defs>
       <use xlink:href="#DejaVuSans-30"/>
       <use xlink:href="#DejaVuSans-2e" x="63.623047"/>
       <use xlink:href="#DejaVuSans-30" x="95.410156"/>
       <use xlink:href="#DejaVuSans-30" x="159.033203"/>
      </g>
     </g>
    </g>
    <g id="ytick_12">
     <g id="line2d_39">
      <g>
       <use xlink:href="#m3458acb47a" x="1187.289659" y="225.28" style="stroke: #000000; stroke-width: 0.8"/>
      </g>
     </g>
     <g id="text_34">
      <!-- 0.25 -->
      <g transform="translate(1120.172471 235.537891) scale(0.27 -0.27)">
       <use xlink:href="#DejaVuSans-30"/>
       <use xlink:href="#DejaVuSans-2e" x="63.623047"/>
       <use xlink:href="#DejaVuSans-32" x="95.410156"/>
       <use xlink:href="#DejaVuSans-35" x="159.033203"/>
      </g>
     </g>
    </g>
    <g id="ytick_13">
     <g id="line2d_40">
      <g>
       <use xlink:href="#m3458acb47a" x="1187.289659" y="162.91" style="stroke: #000000; stroke-width: 0.8"/>
      </g>
     </g>
     <g id="text_35">
      <!-- 0.50 -->
      <g transform="translate(1120.172471 173.167891) scale(0.27 -0.27)">
       <use xlink:href="#DejaVuSans-30"/>
       <use xlink:href="#DejaVuSans-2e" x="63.623047"/>
       <use xlink:href="#DejaVuSans-35" x="95.410156"/>
       <use xlink:href="#DejaVuSans-30" x="159.033203"/>
      </g>
     </g>
    </g>
    <g id="ytick_14">
     <g id="line2d_41">
      <g>
       <use xlink:href="#m3458acb47a" x="1187.289659" y="100.54" style="stroke: #000000; stroke-width: 0.8"/>
      </g>
     </g>
     <g id="text_36">
      <!-- 0.75 -->
      <g transform="translate(1120.172471 110.797891) scale(0.27 -0.27)">
       <use xlink:href="#DejaVuSans-30"/>
       <use xlink:href="#DejaVuSans-2e" x="63.623047"/>
       <use xlink:href="#DejaVuSans-37" x="95.410156"/>
       <use xlink:href="#DejaVuSans-35" x="159.033203"/>
      </g>
     </g>
    </g>
    <g id="ytick_15">
     <g id="line2d_42">
      <g>
       <use xlink:href="#m3458acb47a" x="1187.289659" y="38.17" style="stroke: #000000; stroke-width: 0.8"/>
      </g>
     </g>
     <g id="text_37">
      <!-- 1.00 -->
      <g transform="translate(1120.172471 48.427891) scale(0.27 -0.27)">
       <use xlink:href="#DejaVuSans-31"/>
       <use xlink:href="#DejaVuSans-2e" x="63.623047"/>
       <use xlink:href="#DejaVuSans-30" x="95.410156"/>
       <use xlink:href="#DejaVuSans-30" x="159.033203"/>
      </g>
     </g>
    </g>
    <g id="text_38">
     <!-- unitless -->
     <g transform="translate(1109.933409 220.995156) rotate(-90) scale(0.3 -0.3)">
      <defs>
       <path id="DejaVuSans-75" d="M 544 1381 
L 544 3500 
L 1119 3500 
L 1119 1403 
Q 1119 906 1312 657 
Q 1506 409 1894 409 
Q 2359 409 2629 706 
Q 2900 1003 2900 1516 
L 2900 3500 
L 3475 3500 
L 3475 0 
L 2900 0 
L 2900 538 
Q 2691 219 2414 64 
Q 2138 -91 1772 -91 
Q 1169 -91 856 284 
Q 544 659 544 1381 
z
M 1991 3584 
L 1991 3584 
z
" transform="scale(0.015625)"/>
       <path id="DejaVuSans-6e" d="M 3513 2113 
L 3513 0 
L 2938 0 
L 2938 2094 
Q 2938 2591 2744 2837 
Q 2550 3084 2163 3084 
Q 1697 3084 1428 2787 
Q 1159 2491 1159 1978 
L 1159 0 
L 581 0 
L 581 3500 
L 1159 3500 
L 1159 2956 
Q 1366 3272 1645 3428 
Q 1925 3584 2291 3584 
Q 2894 3584 3203 3211 
Q 3513 2838 3513 2113 
z
" transform="scale(0.015625)"/>
       <path id="DejaVuSans-74" d="M 1172 4494 
L 1172 3500 
L 2356 3500 
L 2356 3053 
L 1172 3053 
L 1172 1153 
Q 1172 725 1289 603 
Q 1406 481 1766 481 
L 2356 481 
L 2356 0 
L 1766 0 
Q 1100 0 847 248 
Q 594 497 594 1153 
L 594 3053 
L 172 3053 
L 172 3500 
L 594 3500 
L 594 4494 
L 1172 4494 
z
" transform="scale(0.015625)"/>
       <path id="DejaVuSans-6c" d="M 603 4863 
L 1178 4863 
L 1178 0 
L 603 0 
L 603 4863 
z
" transform="scale(0.015625)"/>
      </defs>
      <use xlink:href="#DejaVuSans-75"/>
      <use xlink:href="#DejaVuSans-6e" x="63.378906"/>
      <use xlink:href="#DejaVuSans-69" x="126.757812"/>
      <use xlink:href="#DejaVuSans-74" x="154.541016"/>
      <use xlink:href="#DejaVuSans-6c" x="193.75"/>
      <use xlink:href="#DejaVuSans-65" x="221.533203"/>
      <use xlink:href="#DejaVuSans-73" x="283.056641"/>
      <use xlink:href="#DejaVuSans-73" x="335.15625"/>
     </g>
    </g>
   </g>
   <g id="line2d_43">
    <path d="M 1187.289659 287.65 
L 1597.248842 287.65 
" clip-path="url(#pef70ef4ad5)" style="fill: none; stroke: #d3d3d3; stroke-opacity: 0.8; stroke-width: 1.5; stroke-linecap: square"/>
   </g>
   <g id="line2d_44">
    <path d="M 1187.289659 287.65 
L 1198.470364 287.65 
L 1199.215744 146.082906 
L 1199.961124 117.836397 
L 1200.706505 118.308234 
L 1201.451885 152.309712 
L 1202.197265 173.138764 
L 1202.942646 184.535925 
L 1203.688026 190.197938 
L 1204.433406 193.911835 
L 1205.924167 196.861506 
L 1206.669547 197.237238 
L 1207.414928 197.446224 
L 1208.160308 197.791794 
L 1208.905688 197.456191 
L 1209.651069 197.41545 
L 1210.396449 197.215704 
L 1211.141829 196.763858 
L 1211.88721 220.08098 
L 1212.63259 235.370178 
L 1213.37797 245.029055 
L 1214.123351 250.658162 
L 1214.868731 255.026703 
L 1215.614111 257.929851 
L 1216.359492 260.170093 
L 1217.104872 261.726713 
L 1217.850252 262.699715 
L 1218.595633 264.23662 
L 1219.341013 265.192815 
L 1221.577154 267.261001 
L 1222.322534 267.501685 
L 1223.067915 268.267011 
L 1223.813295 268.479256 
L 1224.558675 269.332381 
L 1226.049436 268.580352 
L 1226.794817 267.949104 
L 1227.540197 267.814294 
L 1228.285577 137.367682 
L 1229.030958 117.715609 
L 1229.776338 116.949898 
L 1230.521718 118.008474 
L 1231.267099 116.408959 
L 1232.012479 122.467457 
L 1232.757859 147.84029 
L 1233.50324 161.775493 
L 1234.24862 169.438646 
L 1234.994 174.105383 
L 1235.739381 176.824662 
L 1236.484761 178.711954 
L 1237.230141 179.788785 
L 1237.975522 180.624247 
L 1238.720902 181.175148 
L 1240.957043 181.71812 
L 1241.702423 181.539314 
L 1242.447804 181.610562 
L 1243.193184 181.298202 
L 1243.938564 181.264739 
L 1244.683945 180.918351 
L 1246.174705 180.478238 
L 1248.410846 179.508842 
L 1249.156227 178.914709 
L 1249.901607 179.272867 
L 1250.646987 179.331248 
L 1251.392368 178.412745 
L 1252.883128 177.522198 
L 1255.86465 176.654001 
L 1256.61003 176.32119 
L 1257.35541 176.125067 
L 1258.100791 175.71281 
L 1258.846171 204.481019 
L 1260.336932 219.614148 
L 1261.082312 230.324738 
L 1261.827692 233.587246 
L 1262.573073 232.83071 
L 1263.318453 238.805727 
L 1264.063833 240.259261 
L 1264.809214 239.512257 
L 1265.554594 241.619143 
L 1266.299974 244.395889 
L 1267.045355 243.983138 
L 1267.790735 245.70326 
L 1268.536115 246.024284 
L 1269.281496 245.67893 
L 1270.026876 245.873853 
L 1270.772256 245.745396 
L 1271.517637 246.744105 
L 1272.263017 246.964029 
L 1273.008397 248.875363 
L 1273.753778 249.723751 
L 1274.499158 251.11903 
L 1275.244538 250.32245 
L 1275.989919 250.676302 
L 1276.735299 252.470461 
L 1278.22606 254.021067 
L 1278.97144 254.663897 
L 1279.71682 254.18506 
L 1280.462201 255.625465 
L 1281.207581 256.108251 
L 1281.952961 256.811933 
L 1282.698342 257.301851 
L 1283.443722 257.559748 
L 1284.189102 258.318741 
L 1284.934483 258.365363 
L 1285.679863 259.257218 
L 1287.170624 259.797774 
L 1287.916004 259.623409 
L 1288.661384 260.765598 
L 1290.152145 259.660561 
L 1290.897525 261.755573 
L 1291.642906 259.954799 
L 1292.388286 261.04462 
L 1293.133666 261.740909 
L 1294.624427 263.551145 
L 1295.369807 252.415963 
L 1296.115188 251.576404 
L 1296.860568 214.876658 
L 1297.605948 114.414541 
L 1299.096709 115.482255 
L 1299.842089 114.932109 
L 1300.58747 119.691395 
L 1301.33285 144.570074 
L 1302.07823 159.123159 
L 1302.823611 166.405285 
L 1303.568991 170.798749 
L 1304.314371 173.839296 
L 1305.059752 175.581934 
L 1306.550512 177.382749 
L 1308.041273 178.402057 
L 1308.786653 199.976393 
L 1309.532034 216.587679 
L 1310.277414 226.643712 
L 1311.022794 233.157341 
L 1311.768175 237.673995 
L 1312.513555 241.004189 
L 1313.258935 243.586685 
L 1314.004316 245.669276 
L 1315.495076 248.869968 
L 1316.985837 251.262304 
L 1318.476598 253.159043 
L 1319.967358 254.734696 
L 1322.203499 256.716301 
L 1324.43964 258.411934 
L 1327.421162 260.404597 
L 1331.148063 262.622106 
L 1335.620345 265.005173 
L 1336.365726 149.295548 
L 1337.111106 137.853399 
L 1337.856486 131.325315 
L 1338.601867 130.231039 
L 1339.347247 127.566051 
L 1340.092627 145.379354 
L 1340.838008 160.090629 
L 1341.583388 168.218728 
L 1342.328768 172.910761 
L 1343.074149 175.531823 
L 1343.819529 177.257799 
L 1344.564909 178.223325 
L 1345.31029 178.971553 
L 1347.546431 179.972731 
L 1348.291811 179.548732 
L 1349.037191 204.615735 
L 1349.782572 212.3884 
L 1350.527952 224.341548 
L 1351.273332 231.972969 
L 1352.018713 237.975167 
L 1353.509473 243.650431 
L 1354.254854 246.005942 
L 1355.000234 247.882323 
L 1356.490995 250.693935 
L 1357.236375 251.661101 
L 1357.981755 252.241914 
L 1359.472516 254.454998 
L 1360.217896 254.692439 
L 1360.963277 255.388446 
L 1361.708657 255.922725 
L 1362.454037 257.012784 
L 1363.944798 257.632705 
L 1364.690178 257.734976 
L 1365.435559 258.565548 
L 1366.180939 258.867234 
L 1367.6717 259.108659 
L 1368.41708 258.317381 
L 1369.16246 256.444378 
L 1369.907841 257.202366 
L 1371.398601 119.73658 
L 1372.143982 119.546146 
L 1372.889362 120.692867 
L 1373.634742 119.023345 
L 1374.380123 120.744454 
L 1375.125503 126.566924 
L 1375.870883 147.466536 
L 1376.616264 158.848701 
L 1377.361644 165.185793 
L 1378.107024 169.139483 
L 1378.852405 171.44345 
L 1379.597785 173.089579 
L 1380.343165 174.079923 
L 1381.833926 175.309793 
L 1383.324687 175.799112 
L 1385.560828 175.863246 
L 1390.03311 174.918312 
L 1393.760011 173.80656 
L 1396.741533 172.775838 
L 1397.486913 197.683022 
L 1398.232293 212.687473 
L 1398.977674 221.892182 
L 1399.723054 119.908722 
L 1400.468434 117.254123 
L 1401.213815 117.728825 
L 1401.959195 117.088008 
L 1402.704575 117.476189 
L 1403.449956 116.930226 
L 1404.195336 117.082686 
L 1404.940716 117.069518 
L 1405.686097 116.294751 
L 1405.686097 116.294751 
" clip-path="url(#pef70ef4ad5)" style="fill: none; stroke: #000000; stroke-width: 5; stroke-linecap: square"/>
   </g>
   <g id="line2d_45">
    <path d="M 1187.289659 287.65 
L 1597.248842 287.65 
" clip-path="url(#pef70ef4ad5)" style="fill: none; stroke: #000000; stroke-width: 5; stroke-linecap: square"/>
   </g>
   <g id="line2d_46">
    <path d="M 1187.289659 119.377963 
L 1188.780419 118.755619 
L 1191.01656 118.142723 
L 1193.998082 117.62483 
L 1198.470364 117.102901 
L 1206.669547 116.39704 
L 1218.595633 115.604112 
L 1232.757859 114.901312 
L 1249.156227 114.322183 
L 1269.281496 113.848291 
L 1294.624427 113.4875 
L 1308.786653 113.359025 
L 1309.532034 142.937699 
L 1310.277414 185.96458 
L 1311.022794 130.285392 
L 1311.768175 183.522096 
L 1312.513555 146.837338 
L 1313.258935 132.680854 
L 1314.004316 126.912607 
L 1314.749696 124.326578 
L 1315.495076 122.993116 
L 1316.240457 122.186961 
L 1317.731217 121.201445 
L 1319.221978 120.568834 
L 1321.458119 119.915885 
L 1324.43964 119.311826 
L 1329.657303 118.544231 
L 1332.638824 118.177374 
L 1333.384204 156.225626 
L 1334.129585 220.757557 
L 1334.874965 146.602517 
L 1335.620345 180.811025 
L 1336.365726 148.498773 
L 1337.111106 135.92014 
L 1337.856486 130.702647 
L 1338.601867 128.288243 
L 1339.347247 126.985272 
L 1340.092627 126.156244 
L 1341.583388 125.075172 
L 1343.074149 124.330042 
L 1345.31029 123.504161 
L 1348.291811 122.674508 
L 1352.764093 121.687338 
L 1359.472516 120.462637 
L 1367.6717 119.21354 
L 1376.616264 118.090056 
L 1386.306208 117.101594 
L 1397.486913 116.197753 
L 1405.686097 115.664647 
L 1405.686097 115.664647 
" clip-path="url(#pef70ef4ad5)" style="fill: none; stroke-dasharray: 22.2,9.6; stroke-dashoffset: 0; stroke: #ff0000; stroke-width: 6"/>
   </g>
   <g id="line2d_47">
    <path d="M 1187.289659 75.592 
L 1597.248842 75.592 
" clip-path="url(#pef70ef4ad5)" style="fill: none; stroke-dasharray: 5,8.25; stroke-dashoffset: 0; stroke: #ff0000; stroke-opacity: 0.5; stroke-width: 5"/>
   </g>
   <g id="patch_10">
    <path d="M 1187.289659 287.65 
L 1187.289659 38.17 
" style="fill: none; stroke: #000000; stroke-width: 0.8; stroke-linejoin: miter; stroke-linecap: square"/>
   </g>
   <g id="patch_11">
    <path d="M 1187.289659 287.65 
L 1597.248842 287.65 
" style="fill: none; stroke: #000000; stroke-width: 0.8; stroke-linejoin: miter; stroke-linecap: square"/>
   </g>
   <g id="text_39">
    <!-- SAFE-PNS -->
    <g transform="translate(1314.006751 31.515) scale(0.32 -0.32)">
     <defs>
      <path id="DejaVuSans-53" d="M 3425 4513 
L 3425 3897 
Q 3066 4069 2747 4153 
Q 2428 4238 2131 4238 
Q 1616 4238 1336 4038 
Q 1056 3838 1056 3469 
Q 1056 3159 1242 3001 
Q 1428 2844 1947 2747 
L 2328 2669 
Q 3034 2534 3370 2195 
Q 3706 1856 3706 1288 
Q 3706 609 3251 259 
Q 2797 -91 1919 -91 
Q 1588 -91 1214 -16 
Q 841 59 441 206 
L 441 856 
Q 825 641 1194 531 
Q 1563 422 1919 422 
Q 2459 422 2753 634 
Q 3047 847 3047 1241 
Q 3047 1584 2836 1778 
Q 2625 1972 2144 2069 
L 1759 2144 
Q 1053 2284 737 2584 
Q 422 2884 422 3419 
Q 422 4038 858 4394 
Q 1294 4750 2059 4750 
Q 2388 4750 2728 4690 
Q 3069 4631 3425 4513 
z
" transform="scale(0.015625)"/>
      <path id="DejaVuSans-41" d="M 2188 4044 
L 1331 1722 
L 3047 1722 
L 2188 4044 
z
M 1831 4666 
L 2547 4666 
L 4325 0 
L 3669 0 
L 3244 1197 
L 1141 1197 
L 716 0 
L 50 0 
L 1831 4666 
z
" transform="scale(0.015625)"/>
      <path id="DejaVuSans-46" d="M 628 4666 
L 3309 4666 
L 3309 4134 
L 1259 4134 
L 1259 2759 
L 3109 2759 
L 3109 2228 
L 1259 2228 
L 1259 0 
L 628 0 
L 628 4666 
z
" transform="scale(0.015625)"/>
      <path id="DejaVuSans-45" d="M 628 4666 
L 3578 4666 
L 3578 4134 
L 1259 4134 
L 1259 2753 
L 3481 2753 
L 3481 2222 
L 1259 2222 
L 1259 531 
L 3634 531 
L 3634 0 
L 628 0 
L 628 4666 
z
" transform="scale(0.015625)"/>
      <path id="DejaVuSans-2d" d="M 313 2009 
L 1997 2009 
L 1997 1497 
L 313 1497 
L 313 2009 
z
" transform="scale(0.015625)"/>
      <path id="DejaVuSans-50" d="M 1259 4147 
L 1259 2394 
L 2053 2394 
Q 2494 2394 2734 2622 
Q 2975 2850 2975 3272 
Q 2975 3691 2734 3919 
Q 2494 4147 2053 4147 
L 1259 4147 
z
M 628 4666 
L 2053 4666 
Q 2838 4666 3239 4311 
Q 3641 3956 3641 3272 
Q 3641 2581 3239 2228 
Q 2838 1875 2053 1875 
L 1259 1875 
L 1259 0 
L 628 0 
L 628 4666 
z
" transform="scale(0.015625)"/>
      <path id="DejaVuSans-4e" d="M 628 4666 
L 1478 4666 
L 3547 763 
L 3547 4666 
L 4159 4666 
L 4159 0 
L 3309 0 
L 1241 3903 
L 1241 0 
L 628 0 
L 628 4666 
z
" transform="scale(0.015625)"/>
     </defs>
     <use xlink:href="#DejaVuSans-53"/>
     <use xlink:href="#DejaVuSans-41" x="65.351562"/>
     <use xlink:href="#DejaVuSans-46" x="133.759766"/>
     <use xlink:href="#DejaVuSans-45" x="191.279297"/>
     <use xlink:href="#DejaVuSans-2d" x="254.462891"/>
     <use xlink:href="#DejaVuSans-50" x="290.546875"/>
     <use xlink:href="#DejaVuSans-4e" x="350.849609"/>
     <use xlink:href="#DejaVuSans-53" x="425.654297"/>
    </g>
   </g>
   <g id="legend_2">
    <g id="patch_12">
     <path d="M 1448.611342 276.65 
L 1581.848842 276.65 
Q 1586.248842 276.65 1586.248842 272.25 
L 1586.248842 242.158125 
Q 1586.248842 237.758125 1581.848842 237.758125 
L 1448.611342 237.758125 
Q 1444.211342 237.758125 1444.211342 242.158125 
L 1444.211342 272.25 
Q 1444.211342 276.65 1448.611342 276.65 
z
" style="fill: #ffffff; opacity: 0.2; stroke: #cccccc; stroke-linejoin: miter"/>
    </g>
    <g id="line2d_48">
     <path d="M 1453.011342 255.574688 
L 1475.011342 255.574688 
L 1497.011342 255.574688 
" style="fill: none; stroke: #000000; stroke-width: 5; stroke-linecap: square"/>
    </g>
    <g id="text_40">
     <!-- Y-axis -->
     <g transform="translate(1514.611342 263.274688) scale(0.22 -0.22)">
      <defs>
       <path id="DejaVuSans-59" d="M -13 4666 
L 666 4666 
L 1959 2747 
L 3244 4666 
L 3922 4666 
L 2272 2222 
L 2272 0 
L 1638 0 
L 1638 2222 
L -13 4666 
z
" transform="scale(0.015625)"/>
       <path id="DejaVuSans-61" d="M 2194 1759 
Q 1497 1759 1228 1600 
Q 959 1441 959 1056 
Q 959 750 1161 570 
Q 1363 391 1709 391 
Q 2188 391 2477 730 
Q 2766 1069 2766 1631 
L 2766 1759 
L 2194 1759 
z
M 3341 1997 
L 3341 0 
L 2766 0 
L 2766 531 
Q 2569 213 2275 61 
Q 1981 -91 1556 -91 
Q 1019 -91 701 211 
Q 384 513 384 1019 
Q 384 1609 779 1909 
Q 1175 2209 1959 2209 
L 2766 2209 
L 2766 2266 
Q 2766 2663 2505 2880 
Q 2244 3097 1772 3097 
Q 1472 3097 1187 3025 
Q 903 2953 641 2809 
L 641 3341 
Q 956 3463 1253 3523 
Q 1550 3584 1831 3584 
Q 2591 3584 2966 3190 
Q 3341 2797 3341 1997 
z
" transform="scale(0.015625)"/>
       <path id="DejaVuSans-78" d="M 3513 3500 
L 2247 1797 
L 3578 0 
L 2900 0 
L 1881 1375 
L 863 0 
L 184 0 
L 1544 1831 
L 300 3500 
L 978 3500 
L 1906 2253 
L 2834 3500 
L 3513 3500 
z
" transform="scale(0.015625)"/>
      </defs>
      <use xlink:href="#DejaVuSans-59"/>
      <use xlink:href="#DejaVuSans-2d" x="49.208984"/>
      <use xlink:href="#DejaVuSans-61" x="85.292969"/>
      <use xlink:href="#DejaVuSans-78" x="146.572266"/>
      <use xlink:href="#DejaVuSans-69" x="205.751953"/>
      <use xlink:href="#DejaVuSans-73" x="233.535156"/>
     </g>
    </g>
   </g>
  </g>
  <g id="axes_4">
   <g id="patch_13">
    <path d="M 1720.236598 287.65 
L 2130.195781 287.65 
L 2130.195781 38.17 
L 1720.236598 38.17 
z
" style="fill: #ffffff"/>
   </g>
   <g id="matplotlib.axis_7">
    <g id="xtick_16">
     <g id="line2d_49">
      <g>
       <use xlink:href="#m7bee13b428" x="1720.236598" y="287.65" style="stroke: #000000; stroke-width: 0.8"/>
      </g>
     </g>
     <g id="text_41">
      <!-- 0 -->
      <g transform="translate(1711.647223 315.165781) scale(0.27 -0.27)">
       <use xlink:href="#DejaVuSans-30"/>
      </g>
     </g>
    </g>
    <g id="xtick_17">
     <g id="line2d_50">
      <g>
       <use xlink:href="#m7bee13b428" x="1813.409139" y="287.65" style="stroke: #000000; stroke-width: 0.8"/>
      </g>
     </g>
     <g id="text_42">
      <!-- 25 -->
      <g transform="translate(1796.230389 315.165781) scale(0.27 -0.27)">
       <use xlink:href="#DejaVuSans-32"/>
       <use xlink:href="#DejaVuSans-35" x="63.623047"/>
      </g>
     </g>
    </g>
    <g id="xtick_18">
     <g id="line2d_51">
      <g>
       <use xlink:href="#m7bee13b428" x="1906.581681" y="287.65" style="stroke: #000000; stroke-width: 0.8"/>
      </g>
     </g>
     <g id="text_43">
      <!-- 50 -->
      <g transform="translate(1889.402931 315.165781) scale(0.27 -0.27)">
       <use xlink:href="#DejaVuSans-35"/>
       <use xlink:href="#DejaVuSans-30" x="63.623047"/>
      </g>
     </g>
    </g>
    <g id="xtick_19">
     <g id="line2d_52">
      <g>
       <use xlink:href="#m7bee13b428" x="1999.754223" y="287.65" style="stroke: #000000; stroke-width: 0.8"/>
      </g>
     </g>
     <g id="text_44">
      <!-- 75 -->
      <g transform="translate(1982.575473 315.165781) scale(0.27 -0.27)">
       <use xlink:href="#DejaVuSans-37"/>
       <use xlink:href="#DejaVuSans-35" x="63.623047"/>
      </g>
     </g>
    </g>
    <g id="xtick_20">
     <g id="line2d_53">
      <g>
       <use xlink:href="#m7bee13b428" x="2092.926765" y="287.65" style="stroke: #000000; stroke-width: 0.8"/>
      </g>
     </g>
     <g id="text_45">
      <!-- 100 -->
      <g transform="translate(2067.15864 315.165781) scale(0.27 -0.27)">
       <use xlink:href="#DejaVuSans-31"/>
       <use xlink:href="#DejaVuSans-30" x="63.623047"/>
       <use xlink:href="#DejaVuSans-30" x="127.246094"/>
      </g>
     </g>
    </g>
    <g id="text_46">
     <!-- Time [ms] -->
     <g transform="translate(1849.618533 347.57625) scale(0.3 -0.3)">
      <use xlink:href="#DejaVuSans-54"/>
      <use xlink:href="#DejaVuSans-69" x="57.958984"/>
      <use xlink:href="#DejaVuSans-6d" x="85.742188"/>
      <use xlink:href="#DejaVuSans-65" x="183.154297"/>
      <use xlink:href="#DejaVuSans-20" x="244.677734"/>
      <use xlink:href="#DejaVuSans-5b" x="276.464844"/>
      <use xlink:href="#DejaVuSans-6d" x="315.478516"/>
      <use xlink:href="#DejaVuSans-73" x="412.890625"/>
      <use xlink:href="#DejaVuSans-5d" x="464.990234"/>
     </g>
    </g>
   </g>
   <g id="matplotlib.axis_8">
    <g id="ytick_16">
     <g id="line2d_54">
      <g>
       <use xlink:href="#m3458acb47a" x="1720.236598" y="287.65" style="stroke: #000000; stroke-width: 0.8"/>
      </g>
     </g>
     <g id="text_47">
      <!-- 0.00 -->
      <g transform="translate(1653.11941 297.907891) scale(0.27 -0.27)">
       <use xlink:href="#DejaVuSans-30"/>
       <use xlink:href="#DejaVuSans-2e" x="63.623047"/>
       <use xlink:href="#DejaVuSans-30" x="95.410156"/>
       <use xlink:href="#DejaVuSans-30" x="159.033203"/>
      </g>
     </g>
    </g>
    <g id="ytick_17">
     <g id="line2d_55">
      <g>
       <use xlink:href="#m3458acb47a" x="1720.236598" y="225.28" style="stroke: #000000; stroke-width: 0.8"/>
      </g>
     </g>
     <g id="text_48">
      <!-- 0.25 -->
      <g transform="translate(1653.11941 235.537891) scale(0.27 -0.27)">
       <use xlink:href="#DejaVuSans-30"/>
       <use xlink:href="#DejaVuSans-2e" x="63.623047"/>
       <use xlink:href="#DejaVuSans-32" x="95.410156"/>
       <use xlink:href="#DejaVuSans-35" x="159.033203"/>
      </g>
     </g>
    </g>
    <g id="ytick_18">
     <g id="line2d_56">
      <g>
       <use xlink:href="#m3458acb47a" x="1720.236598" y="162.91" style="stroke: #000000; stroke-width: 0.8"/>
      </g>
     </g>
     <g id="text_49">
      <!-- 0.50 -->
      <g transform="translate(1653.11941 173.167891) scale(0.27 -0.27)">
       <use xlink:href="#DejaVuSans-30"/>
       <use xlink:href="#DejaVuSans-2e" x="63.623047"/>
       <use xlink:href="#DejaVuSans-35" x="95.410156"/>
       <use xlink:href="#DejaVuSans-30" x="159.033203"/>
      </g>
     </g>
    </g>
    <g id="ytick_19">
     <g id="line2d_57">
      <g>
       <use xlink:href="#m3458acb47a" x="1720.236598" y="100.54" style="stroke: #000000; stroke-width: 0.8"/>
      </g>
     </g>
     <g id="text_50">
      <!-- 0.75 -->
      <g transform="translate(1653.11941 110.797891) scale(0.27 -0.27)">
       <use xlink:href="#DejaVuSans-30"/>
       <use xlink:href="#DejaVuSans-2e" x="63.623047"/>
       <use xlink:href="#DejaVuSans-37" x="95.410156"/>
       <use xlink:href="#DejaVuSans-35" x="159.033203"/>
      </g>
     </g>
    </g>
    <g id="ytick_20">
     <g id="line2d_58">
      <g>
       <use xlink:href="#m3458acb47a" x="1720.236598" y="38.17" style="stroke: #000000; stroke-width: 0.8"/>
      </g>
     </g>
     <g id="text_51">
      <!-- 1.00 -->
      <g transform="translate(1653.11941 48.427891) scale(0.27 -0.27)">
       <use xlink:href="#DejaVuSans-31"/>
       <use xlink:href="#DejaVuSans-2e" x="63.623047"/>
       <use xlink:href="#DejaVuSans-30" x="95.410156"/>
       <use xlink:href="#DejaVuSans-30" x="159.033203"/>
      </g>
     </g>
    </g>
    <g id="text_52">
     <!-- unitless -->
     <g transform="translate(1642.880348 220.995156) rotate(-90) scale(0.3 -0.3)">
      <use xlink:href="#DejaVuSans-75"/>
      <use xlink:href="#DejaVuSans-6e" x="63.378906"/>
      <use xlink:href="#DejaVuSans-69" x="126.757812"/>
      <use xlink:href="#DejaVuSans-74" x="154.541016"/>
      <use xlink:href="#DejaVuSans-6c" x="193.75"/>
      <use xlink:href="#DejaVuSans-65" x="221.533203"/>
      <use xlink:href="#DejaVuSans-73" x="283.056641"/>
      <use xlink:href="#DejaVuSans-73" x="335.15625"/>
     </g>
    </g>
   </g>
   <g id="line2d_59">
    <path d="M 1720.236598 287.65 
L 2130.195781 287.65 
" clip-path="url(#pda7e21943a)" style="fill: none; stroke: #d3d3d3; stroke-opacity: 0.8; stroke-width: 1.5; stroke-linecap: square"/>
   </g>
   <g id="line2d_60">
    <path d="M 1720.236598 287.65 
L 1731.417303 287.65 
L 1732.162683 211.882333 
L 1732.908063 171.028117 
L 1733.653444 144.214869 
L 1734.398824 139.30233 
L 1735.144204 136.703025 
L 1736.634965 132.415834 
L 1738.871106 127.681344 
L 1740.361867 125.071436 
L 1742.598008 122.290076 
L 1744.088768 120.827504 
L 1746.324909 156.344873 
L 1747.81567 176.156813 
L 1749.306431 192.995121 
L 1750.797191 206.91634 
L 1752.287952 219.048501 
L 1753.778713 229.417006 
L 1755.269473 238.237065 
L 1758.996375 254.732292 
L 1760.487136 260.196937 
L 1761.232516 231.772024 
L 1761.977896 195.869839 
L 1762.723277 170.090025 
L 1764.214037 128.8051 
L 1764.959418 115.19971 
L 1766.450178 115.130443 
L 1768.686319 115.001909 
L 1771.667841 114.97369 
L 1773.158601 114.916073 
L 1775.394742 114.923809 
L 1776.140123 114.840865 
L 1776.885503 114.896537 
L 1778.376264 114.850645 
L 1781.357785 114.752044 
L 1782.103165 114.567255 
L 1783.593926 115.091015 
L 1784.339306 114.873017 
L 1787.320828 114.659059 
L 1789.556969 114.724845 
L 1791.047729 114.724358 
L 1791.79311 129.082478 
L 1793.28387 149.128635 
L 1794.774631 171.181608 
L 1795.520011 177.339565 
L 1797.010772 194.520478 
L 1797.756152 200.048041 
L 1798.501533 207.761693 
L 1800.737674 223.855886 
L 1802.228434 231.242069 
L 1802.973815 236.823238 
L 1803.719195 237.382098 
L 1804.464575 242.52685 
L 1805.209956 242.953185 
L 1805.955336 247.359492 
L 1806.700716 248.868567 
L 1807.446097 252.36552 
L 1808.191477 253.651196 
L 1808.936857 257.064052 
L 1809.682238 258.275386 
L 1810.427618 260.865599 
L 1811.172998 262.567701 
L 1812.663759 266.755074 
L 1813.409139 268.235773 
L 1814.15452 269.447351 
L 1814.8999 270.97589 
L 1817.881421 275.570956 
L 1818.626802 276.331959 
L 1819.372182 277.289258 
L 1820.117562 277.786788 
L 1820.862943 278.809801 
L 1821.608323 279.367138 
L 1822.353703 279.245196 
L 1823.099084 280.450976 
L 1823.844464 280.229646 
L 1824.589844 279.538708 
L 1825.335225 280.787801 
L 1826.080605 280.1524 
L 1826.825985 281.056278 
L 1828.316746 281.859504 
L 1829.062126 279.112172 
L 1829.807507 257.257509 
L 1830.552887 194.820826 
L 1832.043648 147.603088 
L 1832.789028 128.379862 
L 1833.534408 114.367268 
L 1834.279789 114.080797 
L 1835.025169 114.443906 
L 1836.51593 114.276671 
L 1838.00669 114.483919 
L 1839.497451 114.49685 
L 1840.242831 114.51867 
L 1840.988212 114.664532 
L 1844.715113 171.477125 
L 1846.205874 188.999968 
L 1847.696635 203.820256 
L 1849.187395 216.365133 
L 1850.678156 226.992478 
L 1852.168917 236.002428 
L 1853.659677 243.646939 
L 1855.150438 250.137719 
L 1856.641199 255.652825 
L 1858.131959 260.342154 
L 1859.62272 264.332008 
L 1861.113481 267.728909 
L 1862.604241 270.62277 
L 1864.095002 273.089558 
L 1865.585763 275.193505 
L 1867.076523 276.98897 
L 1868.567284 278.521992 
L 1869.312664 232.164921 
L 1870.803425 180.05495 
L 1872.294186 142.173206 
L 1873.039566 136.585452 
L 1874.530327 132.601914 
L 1876.021087 129.448988 
L 1877.511848 126.861461 
L 1879.002609 124.727037 
L 1879.747989 123.849347 
L 1880.493369 123.15009 
L 1881.23875 122.201095 
L 1881.98413 134.912496 
L 1882.72951 143.030767 
L 1884.220271 164.618444 
L 1885.711032 183.065861 
L 1887.201792 198.775216 
L 1888.692553 212.172631 
L 1890.183314 223.480645 
L 1892.419455 236.962176 
L 1894.655596 247.68403 
L 1896.891737 256.100158 
L 1897.637117 257.717173 
L 1899.127878 262.497842 
L 1902.109399 270.610712 
L 1902.854779 272.26895 
L 1903.60016 255.232176 
L 1904.34554 205.109997 
L 1905.09092 180.458798 
L 1906.581681 140.819114 
L 1907.327061 125.572159 
L 1908.072442 114.828599 
L 1909.563202 114.890012 
L 1911.799343 114.838389 
L 1914.035484 114.839418 
L 1916.271625 114.876175 
L 1921.489288 114.852305 
L 1929.688471 114.779829 
L 1931.179232 140.819015 
L 1931.924612 152.420272 
L 1932.669993 188.013939 
L 1934.160753 224.142869 
L 1935.651514 190.551886 
L 1937.142275 160.343203 
L 1938.633035 136.007863 
L 1938.633035 136.007863 
" clip-path="url(#pda7e21943a)" style="fill: none; stroke: #000000; stroke-width: 5; stroke-linecap: square"/>
   </g>
   <g id="line2d_61">
    <path d="M 1720.236598 287.65 
L 2130.195781 287.65 
" clip-path="url(#pda7e21943a)" style="fill: none; stroke: #000000; stroke-width: 5; stroke-linecap: square"/>
   </g>
   <g id="line2d_62">
    <path d="M 1720.236598 124.240509 
L 1721.727358 122.401377 
L 1723.218119 120.87196 
L 1724.70888 119.598644 
L 1726.19964 118.537344 
L 1728.435781 117.265306 
L 1730.671922 116.293348 
L 1732.908063 115.548879 
L 1735.889585 114.817784 
L 1739.616486 114.198316 
L 1744.088768 113.73323 
L 1750.051811 113.387259 
L 1758.250995 113.167595 
L 1772.413221 113.048053 
L 1814.15452 113.014441 
L 1841.733592 113.014026 
L 1842.478972 124.217536 
L 1843.224353 150.561028 
L 1843.969733 155.985468 
L 1844.715113 148.3338 
L 1846.205874 141.54709 
L 1847.696635 136.076094 
L 1849.187395 131.664025 
L 1850.678156 128.104461 
L 1852.168917 125.231437 
L 1853.659677 122.911476 
L 1855.150438 121.037209 
L 1856.641199 119.522245 
L 1858.131959 118.29705 
L 1859.62272 117.305644 
L 1861.858861 116.160715 
L 1864.095002 115.32543 
L 1865.585763 114.897751 
L 1866.331143 128.011928 
L 1867.076523 166.132731 
L 1867.821904 152.322404 
L 1870.058045 141.851416 
L 1871.548805 136.334822 
L 1873.039566 131.884098 
L 1874.530327 128.291746 
L 1876.021087 125.39089 
L 1877.511848 123.047293 
L 1879.002609 121.152941 
L 1880.493369 119.6209 
L 1881.98413 118.381179 
L 1883.474891 117.377411 
L 1885.711032 116.217293 
L 1887.947173 115.370065 
L 1890.183314 114.750366 
L 1893.164835 114.173655 
L 1896.891737 113.718035 
L 1901.364019 113.404172 
L 1908.072442 113.178005 
L 1919.998527 113.051207 
L 1938.633035 113.018203 
L 1938.633035 113.018203 
" clip-path="url(#pda7e21943a)" style="fill: none; stroke-dasharray: 22.2,9.6; stroke-dashoffset: 0; stroke: #800080; stroke-width: 6"/>
   </g>
   <g id="line2d_63">
    <path clip-path="url(#pda7e21943a)" style="fill: none; stroke-dasharray: 11.1,4.8; stroke-dashoffset: 0; stroke: #800080; stroke-width: 3"/>
   </g>
   <g id="line2d_64">
    <path d="M 1720.236598 75.592 
L 2130.195781 75.592 
" clip-path="url(#pda7e21943a)" style="fill: none; stroke-dasharray: 5,8.25; stroke-dashoffset: 0; stroke: #800080; stroke-opacity: 0.5; stroke-width: 5"/>
   </g>
   <g id="patch_14">
    <path d="M 1720.236598 287.65 
L 1720.236598 38.17 
" style="fill: none; stroke: #000000; stroke-width: 0.8; stroke-linejoin: miter; stroke-linecap: square"/>
   </g>
   <g id="patch_15">
    <path d="M 1720.236598 287.65 
L 2130.195781 287.65 
" style="fill: none; stroke: #000000; stroke-width: 0.8; stroke-linejoin: miter; stroke-linecap: square"/>
   </g>
   <g id="text_53">
    <!-- SAFE-CNS -->
    <g transform="translate(1845.428689 31.515) scale(0.32 -0.32)">
     <defs>
      <path id="DejaVuSans-43" d="M 4122 4306 
L 4122 3641 
Q 3803 3938 3442 4084 
Q 3081 4231 2675 4231 
Q 1875 4231 1450 3742 
Q 1025 3253 1025 2328 
Q 1025 1406 1450 917 
Q 1875 428 2675 428 
Q 3081 428 3442 575 
Q 3803 722 4122 1019 
L 4122 359 
Q 3791 134 3420 21 
Q 3050 -91 2638 -91 
Q 1578 -91 968 557 
Q 359 1206 359 2328 
Q 359 3453 968 4101 
Q 1578 4750 2638 4750 
Q 3056 4750 3426 4639 
Q 3797 4528 4122 4306 
z
" transform="scale(0.015625)"/>
     </defs>
     <use xlink:href="#DejaVuSans-53"/>
     <use xlink:href="#DejaVuSans-41" x="65.351562"/>
     <use xlink:href="#DejaVuSans-46" x="133.759766"/>
     <use xlink:href="#DejaVuSans-45" x="191.279297"/>
     <use xlink:href="#DejaVuSans-2d" x="254.462891"/>
     <use xlink:href="#DejaVuSans-43" x="290.546875"/>
     <use xlink:href="#DejaVuSans-4e" x="360.371094"/>
     <use xlink:href="#DejaVuSans-53" x="435.175781"/>
    </g>
   </g>
   <g id="legend_3">
    <g id="patch_16">
     <path d="M 1981.558281 276.65 
L 2114.795781 276.65 
Q 2119.195781 276.65 2119.195781 272.25 
L 2119.195781 242.158125 
Q 2119.195781 237.758125 2114.795781 237.758125 
L 1981.558281 237.758125 
Q 1977.158281 237.758125 1977.158281 242.158125 
L 1977.158281 272.25 
Q 1977.158281 276.65 1981.558281 276.65 
z
" style="fill: #ffffff; opacity: 0.2; stroke: #cccccc; stroke-linejoin: miter"/>
    </g>
    <g id="line2d_65">
     <path d="M 1985.958281 255.574688 
L 2007.958281 255.574688 
L 2029.958281 255.574688 
" style="fill: none; stroke: #000000; stroke-width: 5; stroke-linecap: square"/>
    </g>
    <g id="text_54">
     <!-- Y-axis -->
     <g transform="translate(2047.558281 263.274688) scale(0.22 -0.22)">
      <use xlink:href="#DejaVuSans-59"/>
      <use xlink:href="#DejaVuSans-2d" x="49.208984"/>
      <use xlink:href="#DejaVuSans-61" x="85.292969"/>
      <use xlink:href="#DejaVuSans-78" x="146.572266"/>
      <use xlink:href="#DejaVuSans-69" x="205.751953"/>
      <use xlink:href="#DejaVuSans-73" x="233.535156"/>
     </g>
    </g>
   </g>
  </g>
 </g>
 <defs>
  <clipPath id="p8e3ef5e6db">
   <rect x="121.395781" y="38.17" width="409.959184" height="249.48"/>
  </clipPath>
  <clipPath id="p5c14a4ae4d">
   <rect x="654.34272" y="38.17" width="409.959184" height="249.48"/>
  </clipPath>
  <clipPath id="pef70ef4ad5">
   <rect x="1187.289659" y="38.17" width="409.959184" height="249.48"/>
  </clipPath>
  <clipPath id="pda7e21943a">
   <rect x="1720.236598" y="38.17" width="409.959184" height="249.48"/>
  </clipPath>
 </defs>
</svg>
