<?xml version="1.0" encoding="utf-8" standalone="no"?>
<!DOCTYPE svg PUBLIC "-//W3C//DTD SVG 1.1//EN"
  "http://www.w3.org/Graphics/SVG/1.1/DTD/svg11.dtd">
<svg xmlns:xlink="http://www.w3.org/1999/xlink" width="2639.595781pt" height="361.015312pt" viewBox="0 0 2639.595781 361.015312" xmlns="http://www.w3.org/2000/svg" version="1.1">
 <metadata>
  <rdf:RDF xmlns:dc="http://purl.org/dc/elements/1.1/" xmlns:cc="http://creativecommons.org/ns#" xmlns:rdf="http://www.w3.org/1999/02/22-rdf-syntax-ns#">
   <cc:Work>
    <dc:type rdf:resource="http://purl.org/dc/dcmitype/StillImage"/>
    <dc:date>2026-02-06T13:42:38.825202</dc:date>
    <dc:format>image/svg+xml</dc:format>
    <dc:creator>
     <cc:Agent>
      <dc:title>Matplotlib v3.9.0, https://matplotlib.org/</dc:title>
     </cc:Agent>
    </dc:creator>
   </cc:Work>
  </rdf:RDF>
 </metadata>
 <defs>
  <style type="text/css">*{stroke-linejoin: round; stroke-linecap: butt}</style>
 </defs>
 <g id="figure_1">
  <g id="patch_1">
   <path d="M 0 361.015312 
L 2639.595781 361.015312 
L 2639.595781 0 
L 0 0 
z
" style="fill: #ffffff"/>
  </g>
  <g id="axes_1">
   <g id="patch_2">
    <path d="M 121.395781 287.65 
L 526.395781 287.65 
L 526.395781 38.17 
L 121.395781 38.17 
z
" style="fill: #ffffff"/>
   </g>
   <g id="PolyCollection_1">
    <defs>
     <path id="m83030f5015" d="M 121.395781 -198.105312 
L 121.395781 -198.105312 
L 122.070781 -198.105312 
L 122.745781 -198.105312 
L 123.420781 -198.105312 
L 124.095781 -198.105312 
L 124.770781 -198.105312 
L 125.445781 -198.105312 
L 126.120781 -198.105312 
L 126.795781 -198.105312 
L 127.470781 -198.105312 
L 128.145781 -198.105312 
L 128.820781 -198.105312 
L 129.495781 -198.105312 
L 130.170781 -198.105312 
L 130.845781 -198.105312 
L 131.520781 -198.105312 
L 132.195781 -198.105312 
L 132.870781 -198.105312 
L 133.545781 -198.105312 
L 134.220781 -198.105312 
L 134.895781 -198.105312 
L 135.570781 -198.105312 
L 136.245781 -198.105312 
L 136.920781 -198.105312 
L 137.595781 -198.105312 
L 138.270781 -198.105312 
L 138.945781 -198.105312 
L 139.620781 -198.105312 
L 140.295781 -198.105312 
L 140.970781 -198.105312 
L 141.645781 -198.105312 
L 142.320781 -198.105312 
L 142.995781 -198.105312 
L 143.670781 -198.105312 
L 144.345781 -198.105312 
L 145.020781 -198.105312 
L 145.695781 -198.105312 
L 146.370781 -198.105312 
L 147.045781 -198.105312 
L 147.720781 -198.105312 
L 148.395781 -198.105312 
L 149.070781 -198.105312 
L 149.745781 -198.105312 
L 150.420781 -198.105312 
L 151.095781 -198.105312 
L 151.770781 -198.105312 
L 152.445781 -198.105312 
L 153.120781 -198.105312 
L 153.795781 -198.105312 
L 154.470781 -198.105312 
L 155.145781 -198.105312 
L 155.820781 -198.105312 
L 156.495781 -198.105312 
L 157.170781 -198.105312 
L 157.845781 -198.105312 
L 158.520781 -198.105312 
L 159.195781 -198.105312 
L 159.870781 -198.105312 
L 160.545781 -198.105312 
L 161.220781 -198.105312 
L 161.895781 -198.105312 
L 162.570781 -198.105312 
L 163.245781 -198.105312 
L 163.920781 -198.105312 
L 164.595781 -198.105312 
L 165.270781 -198.105312 
L 165.945781 -198.105312 
L 166.620781 -198.105312 
L 167.295781 -198.105312 
L 167.970781 -198.105312 
L 168.645781 -198.105312 
L 169.320781 -198.105312 
L 169.995781 -198.105312 
L 170.670781 -198.105312 
L 171.345781 -198.105312 
L 172.020781 -198.105312 
L 172.695781 -198.105312 
L 173.370781 -198.105312 
L 174.045781 -198.105312 
L 174.720781 -198.105312 
L 175.395781 -198.105312 
L 176.070781 -198.105312 
L 176.745781 -198.105312 
L 177.420781 -198.105312 
L 178.095781 -198.105312 
L 178.770781 -198.105312 
L 179.445781 -198.105312 
L 180.120781 -198.105312 
L 180.795781 -198.105312 
L 181.470781 -198.105312 
L 182.145781 -198.105312 
L 182.820781 -198.105312 
L 183.495781 -198.105312 
L 184.170781 -198.105312 
L 184.845781 -198.105312 
L 185.520781 -198.105312 
L 186.195781 -198.105312 
L 186.870781 -198.105312 
L 187.545781 -198.105312 
L 188.220781 -198.105312 
L 188.895781 -198.105312 
L 189.570781 -198.105312 
L 190.245781 -198.105312 
L 190.920781 -198.105312 
L 191.595781 -198.105312 
L 192.270781 -198.105312 
L 192.945781 -198.105312 
L 193.620781 -198.105312 
L 194.295781 -198.105312 
L 194.970781 -198.105312 
L 195.645781 -198.105312 
L 196.320781 -198.105312 
L 196.995781 -198.105312 
L 197.670781 -198.105312 
L 198.345781 -198.105312 
L 199.020781 -198.105312 
L 199.695781 -198.105312 
L 200.370781 -198.105312 
L 201.045781 -198.105312 
L 201.720781 -198.105312 
L 202.395781 -198.105312 
L 203.070781 -198.105312 
L 203.745781 -198.105312 
L 204.420781 -198.105312 
L 205.095781 -198.105312 
L 205.770781 -198.105312 
L 206.445781 -198.105312 
L 207.120781 -198.105312 
L 207.795781 -198.105312 
L 208.470781 -198.105312 
L 209.145781 -198.105312 
L 209.820781 -198.105312 
L 210.495781 -198.105312 
L 211.170781 -198.105312 
L 211.845781 -198.105312 
L 212.520781 -198.105312 
L 213.195781 -198.105312 
L 213.870781 -198.105312 
L 214.545781 -198.105312 
L 215.220781 -198.105312 
L 215.895781 -198.105312 
L 216.570781 -198.105312 
L 217.245781 -198.105312 
L 217.920781 -198.105312 
L 218.595781 -198.105312 
L 219.270781 -198.105312 
L 219.945781 -198.105312 
L 220.620781 -198.105312 
L 221.295781 -198.105312 
L 221.970781 -198.105312 
L 222.645781 -198.105312 
L 223.320781 -198.105312 
L 223.995781 -198.105312 
L 224.670781 -198.105312 
L 225.345781 -198.105312 
L 226.020781 -198.105312 
L 226.695781 -198.105312 
L 227.370781 -198.105312 
L 228.045781 -198.105312 
L 228.720781 -198.105312 
L 229.395781 -198.105312 
L 230.070781 -198.105312 
L 230.745781 -198.105312 
L 231.420781 -198.105312 
L 232.095781 -198.105312 
L 232.770781 -198.105312 
L 233.445781 -198.105312 
L 234.120781 -198.105312 
L 234.795781 -198.105312 
L 235.470781 -198.105312 
L 236.145781 -198.105312 
L 236.820781 -198.105312 
L 237.495781 -198.105312 
L 238.170781 -198.105312 
L 238.845781 -198.105312 
L 239.520781 -198.105312 
L 240.195781 -198.105312 
L 240.870781 -198.105312 
L 241.545781 -198.105312 
L 242.220781 -198.105312 
L 242.895781 -198.105312 
L 243.570781 -198.105312 
L 244.245781 -198.105312 
L 244.920781 -198.105312 
L 245.595781 -198.105312 
L 246.270781 -198.105312 
L 246.945781 -198.105312 
L 247.620781 -198.105312 
L 248.295781 -198.105312 
L 248.970781 -198.105312 
L 249.645781 -198.105312 
L 250.320781 -198.105312 
L 250.995781 -198.105312 
L 251.670781 -198.105312 
L 252.345781 -198.105312 
L 253.020781 -198.105312 
L 253.695781 -198.105312 
L 254.370781 -198.105312 
L 255.045781 -198.105312 
L 255.720781 -198.105312 
L 256.395781 -198.105312 
L 257.070781 -198.105312 
L 257.745781 -198.105312 
L 258.420781 -198.105312 
L 259.095781 -198.105312 
L 259.770781 -198.105312 
L 260.445781 -198.105312 
L 261.120781 -198.105312 
L 261.795781 -198.105312 
L 262.470781 -198.105312 
L 263.145781 -198.105312 
L 263.820781 -198.105312 
L 264.495781 -198.105312 
L 265.170781 -198.105312 
L 265.845781 -198.105312 
L 266.520781 -198.105312 
L 267.195781 -198.105312 
L 267.870781 -198.105312 
L 268.545781 -198.105312 
L 269.220781 -198.105312 
L 269.895781 -198.105312 
L 270.570781 -198.105312 
L 271.245781 -198.105312 
L 271.920781 -198.105312 
L 272.595781 -198.105312 
L 273.270781 -198.105312 
L 273.945781 -198.105312 
L 274.620781 -198.105312 
L 275.295781 -198.105312 
L 275.970781 -198.105312 
L 276.645781 -198.105312 
L 277.320781 -198.105312 
L 277.995781 -198.105312 
L 278.670781 -198.105312 
L 279.345781 -198.105312 
L 280.020781 -198.105312 
L 280.695781 -198.105312 
L 281.370781 -198.105312 
L 282.045781 -198.105312 
L 282.720781 -198.105312 
L 283.395781 -198.105312 
L 284.070781 -198.105312 
L 284.745781 -198.105312 
L 285.420781 -198.105312 
L 286.095781 -198.105312 
L 286.770781 -198.105312 
L 287.445781 -198.105312 
L 288.120781 -198.105312 
L 288.795781 -198.105312 
L 289.470781 -198.105312 
L 290.145781 -198.105312 
L 290.820781 -198.105312 
L 291.495781 -198.105312 
L 292.170781 -198.105312 
L 292.845781 -198.105312 
L 293.520781 -198.105312 
L 294.195781 -198.105312 
L 294.870781 -198.105312 
L 295.545781 -198.105312 
L 296.220781 -198.105312 
L 296.895781 -198.105312 
L 297.570781 -198.105312 
L 298.245781 -198.105312 
L 298.920781 -198.105312 
L 299.595781 -198.105312 
L 300.270781 -198.105312 
L 300.945781 -198.105312 
L 301.620781 -198.105312 
L 302.295781 -198.105312 
L 302.970781 -198.105312 
L 303.645781 -198.105312 
L 304.320781 -198.105312 
L 304.995781 -198.105312 
L 305.670781 -198.105312 
L 306.345781 -198.105312 
L 307.020781 -198.105312 
L 307.695781 -198.105312 
L 308.370781 -198.105312 
L 309.045781 -198.105312 
L 309.720781 -198.105312 
L 310.395781 -198.105312 
L 311.070781 -198.105312 
L 311.745781 -198.105312 
L 312.420781 -198.105312 
L 313.095781 -198.105312 
L 313.770781 -198.105312 
L 314.445781 -198.105312 
L 315.120781 -198.105312 
L 315.795781 -198.105312 
L 316.470781 -198.105312 
L 317.145781 -198.105312 
L 317.820781 -198.105312 
L 318.495781 -198.105312 
L 319.170781 -198.105312 
L 319.845781 -198.105312 
L 319.845781 -198.105312 
L 319.845781 -198.105312 
L 319.170781 -190.408592 
L 318.495781 -182.545752 
L 317.820781 -174.560919 
L 317.145781 -166.385436 
L 316.470781 -157.943678 
L 315.795781 -149.146216 
L 315.120781 -139.874195 
L 314.445781 -121.751347 
L 313.770781 -115.728513 
L 313.095781 -110.765875 
L 312.420781 -110.765866 
L 311.745781 -110.765873 
L 311.070781 -115.079434 
L 310.395781 -119.515601 
L 309.720781 -123.953147 
L 309.045781 -128.392293 
L 308.370781 -132.833193 
L 307.695781 -137.275593 
L 307.020781 -141.719886 
L 306.345781 -146.166105 
L 305.670781 -150.614385 
L 304.995781 -155.064774 
L 304.320781 -159.517509 
L 303.645781 -163.972676 
L 302.970781 -168.430523 
L 302.295781 -172.891184 
L 301.620781 -177.354906 
L 300.945781 -181.821992 
L 300.270781 -186.292662 
L 299.595781 -190.767225 
L 298.920781 -195.246047 
L 298.245781 -199.729554 
L 297.570781 -204.218097 
L 296.895781 -208.712217 
L 296.220781 -213.212418 
L 295.545781 -217.719264 
L 294.870781 -222.233337 
L 294.195781 -226.755424 
L 293.520781 -231.285081 
L 292.845781 -236.673866 
L 292.170781 -244.524853 
L 291.495781 -254.07562 
L 290.820781 -264.00057 
L 290.145781 -273.629692 
L 289.470781 -282.827092 
L 288.795781 -291.522455 
L 288.120781 -299.810532 
L 287.445781 -307.374034 
L 286.770781 -312.724144 
L 286.095781 -314.674964 
L 285.420781 -314.68088 
L 284.745781 -314.689479 
L 284.070781 -314.696742 
L 283.395781 -314.703399 
L 282.720781 -314.709255 
L 282.045781 -314.713273 
L 281.370781 -314.71802 
L 280.695781 -314.719274 
L 280.020781 -314.720389 
L 279.345781 -314.720395 
L 278.670781 -314.720394 
L 277.995781 -314.720395 
L 277.320781 -314.720384 
L 276.645781 -314.719346 
L 275.970781 -314.718265 
L 275.295781 -314.714346 
L 274.620781 -314.709754 
L 273.945781 -314.703984 
L 273.270781 -314.697317 
L 272.595781 -314.689755 
L 271.920781 -314.681306 
L 271.245781 -314.671978 
L 270.570781 -314.661795 
L 269.895781 -314.651047 
L 269.220781 -314.391211 
L 268.545781 -309.892224 
L 267.870781 -305.395535 
L 267.195781 -300.892254 
L 266.520781 -296.380385 
L 265.845781 -291.859808 
L 265.170781 -287.328858 
L 264.495781 -282.78756 
L 263.820781 -278.234551 
L 263.145781 -273.668395 
L 262.470781 -269.088539 
L 261.795781 -264.498161 
L 261.120781 -256.95282 
L 260.445781 -247.639617 
L 259.770781 -237.425021 
L 259.095781 -224.241422 
L 258.420781 -213.656905 
L 257.745781 -205.597012 
L 257.070781 -204.307747 
L 256.395781 -198.105312 
L 255.720781 -198.105312 
L 255.045781 -198.105312 
L 254.370781 -198.105312 
L 253.695781 -198.105312 
L 253.020781 -198.105312 
L 252.345781 -198.105312 
L 251.670781 -198.105312 
L 250.995781 -198.105312 
L 250.320781 -198.105312 
L 249.645781 -198.105312 
L 248.970781 -198.105312 
L 248.295781 -198.105312 
L 247.620781 -198.105312 
L 246.945781 -198.105312 
L 246.270781 -198.105312 
L 245.595781 -198.105312 
L 244.920781 -198.105312 
L 244.245781 -198.105312 
L 243.570781 -198.105312 
L 242.895781 -198.105312 
L 242.220781 -198.105312 
L 241.545781 -198.105312 
L 240.870781 -198.105312 
L 240.195781 -198.105312 
L 239.520781 -198.105312 
L 238.845781 -198.105312 
L 238.170781 -198.105312 
L 237.495781 -198.105312 
L 236.820781 -198.105312 
L 236.145781 -198.105312 
L 235.470781 -198.105312 
L 234.795781 -198.105312 
L 234.120781 -198.105312 
L 233.445781 -198.105312 
L 232.770781 -198.105312 
L 232.095781 -198.105312 
L 231.420781 -198.105312 
L 230.745781 -199.485497 
L 230.070781 -203.961507 
L 229.395781 -208.441513 
L 228.720781 -212.92565 
L 228.045781 -217.414481 
L 227.370781 -221.908441 
L 226.695781 -226.408205 
L 226.020781 -230.914238 
L 225.345781 -235.454767 
L 224.670781 -240.033004 
L 223.995781 -244.590548 
L 223.320781 -254.295431 
L 222.645781 -264.46195 
L 221.970781 -275.046594 
L 221.295781 -287.636843 
L 220.620781 -306.946134 
L 219.945781 -314.839168 
L 219.270781 -314.839787 
L 218.595781 -314.839681 
L 217.920781 -314.839368 
L 217.245781 -314.839583 
L 216.570781 -314.83971 
L 215.895781 -314.839432 
L 215.220781 -314.839788 
L 214.545781 -314.839588 
L 213.870781 -314.83954 
L 213.195781 -314.83969 
L 212.520781 -314.839515 
L 211.845781 -314.839676 
L 211.170781 -314.8395 
L 210.495781 -314.839642 
L 209.820781 -314.839581 
L 209.145781 -314.839613 
L 208.470781 -314.839645 
L 207.795781 -314.839601 
L 207.120781 -314.839609 
L 206.445781 -314.839633 
L 205.770781 -314.839617 
L 205.095781 -314.839586 
L 204.420781 -314.839607 
L 203.745781 -314.839604 
L 203.070781 -314.839608 
L 202.395781 -314.839614 
L 201.720781 -314.839608 
L 201.045781 -314.839626 
L 200.370781 -314.8396 
L 199.695781 -314.83963 
L 199.020781 -314.839577 
L 198.345781 -314.839626 
L 197.670781 -314.83959 
L 196.995781 -314.839636 
L 196.320781 -314.839588 
L 195.645781 -314.839635 
L 194.970781 -314.839585 
L 194.295781 -314.839627 
L 193.620781 -314.839595 
L 192.945781 -314.839632 
L 192.270781 -314.839577 
L 191.595781 -314.839637 
L 190.920781 -314.839561 
L 190.245781 -314.839634 
L 189.570781 -314.839644 
L 188.895781 -314.83955 
L 188.220781 -314.839662 
L 187.545781 -314.839541 
L 186.870781 -314.839637 
L 186.195781 -314.839591 
L 185.520781 -313.470552 
L 184.845781 -309.027644 
L 184.170781 -304.584298 
L 183.495781 -300.140229 
L 182.820781 -295.695473 
L 182.145781 -291.25003 
L 181.470781 -286.803698 
L 180.795781 -282.356416 
L 180.120781 -277.908237 
L 179.445781 -273.458749 
L 178.770781 -269.008268 
L 178.095781 -264.55631 
L 177.420781 -260.102859 
L 176.745781 -255.647885 
L 176.070781 -251.191032 
L 175.395781 -246.732195 
L 174.720781 -242.271283 
L 174.045781 -237.807964 
L 173.370781 -233.342043 
L 172.695781 -228.873163 
L 172.020781 -224.401223 
L 171.345781 -219.925744 
L 170.670781 -215.446417 
L 169.995781 -210.96296 
L 169.320781 -206.474817 
L 168.645781 -201.981559 
L 167.970781 -197.482812 
L 167.295781 -192.977759 
L 166.620781 -188.466013 
L 165.945781 -183.946847 
L 165.270781 -179.419447 
L 164.595781 -174.882942 
L 163.920781 -170.336733 
L 163.245781 -165.758902 
L 162.570781 -161.162675 
L 161.895781 -155.603517 
L 161.220781 -145.760778 
L 160.545781 -135.596313 
L 159.870781 -125.021984 
L 159.195781 -113.927024 
L 158.520781 -94.268971 
L 157.845781 -81.989272 
L 157.170781 -81.371058 
L 156.495781 -81.371001 
L 155.820781 -81.371026 
L 155.145781 -81.37109 
L 154.470781 -81.37096 
L 153.795781 -81.371051 
L 153.120781 -81.371059 
L 152.445781 -81.371017 
L 151.770781 -81.370963 
L 151.095781 -81.371043 
L 150.420781 -81.370985 
L 149.745781 -81.371018 
L 149.070781 -81.371007 
L 148.395781 -81.370984 
L 147.720781 -81.37102 
L 147.045781 -81.370986 
L 146.370781 -81.370984 
L 145.695781 -81.371021 
L 145.020781 -81.371004 
L 144.345781 -81.370987 
L 143.670781 -81.370976 
L 142.995781 -81.370981 
L 142.320781 -85.86893 
L 141.645781 -90.394627 
L 140.970781 -94.92967 
L 140.295781 -99.474932 
L 139.620781 -104.031466 
L 138.945781 -108.600459 
L 138.270781 -113.183346 
L 137.595781 -117.781337 
L 136.920781 -122.396353 
L 136.245781 -127.029817 
L 135.570781 -131.684043 
L 134.895781 -136.36098 
L 134.220781 -141.063067 
L 133.545781 -146.467954 
L 132.870781 -158.304391 
L 132.195781 -173.52968 
L 131.520781 -198.105312 
L 130.845781 -198.105312 
L 130.170781 -198.105312 
L 129.495781 -198.105312 
L 128.820781 -198.105312 
L 128.145781 -198.105312 
L 127.470781 -198.105312 
L 126.795781 -198.105312 
L 126.120781 -198.105312 
L 125.445781 -198.105312 
L 124.770781 -198.105312 
L 124.095781 -198.105312 
L 123.420781 -198.105312 
L 122.745781 -198.105312 
L 122.070781 -198.105312 
L 121.395781 -198.105312 
z
" style="stroke: #0173b2; stroke-opacity: 0.75"/>
    </defs>
    <g clip-path="url(#pbe2738800c)">
     <use xlink:href="#m83030f5015" x="0" y="361.015312" style="fill: #0173b2; fill-opacity: 0.75; stroke: #0173b2; stroke-opacity: 0.75"/>
    </g>
   </g>
   <g id="matplotlib.axis_1">
    <g id="xtick_1">
     <g id="line2d_1">
      <defs>
       <path id="m8cd20aa961" d="M 0 0 
L 0 3.5 
" style="stroke: #000000; stroke-width: 0.8"/>
      </defs>
      <g>
       <use xlink:href="#m8cd20aa961" x="121.395781" y="287.65" style="stroke: #000000; stroke-width: 0.8"/>
      </g>
     </g>
     <g id="text_1">
      <!-- 0 -->
      <g transform="translate(112.806406 315.165781) scale(0.27 -0.27)">
       <defs>
        <path id="DejaVuSans-30" d="M 2034 4250 
Q 1547 4250 1301 3770 
Q 1056 3291 1056 2328 
Q 1056 1369 1301 889 
Q 1547 409 2034 409 
Q 2525 409 2770 889 
Q 3016 1369 3016 2328 
Q 3016 3291 2770 3770 
Q 2525 4250 2034 4250 
z
M 2034 4750 
Q 2819 4750 3233 4129 
Q 3647 3509 3647 2328 
Q 3647 1150 3233 529 
Q 2819 -91 2034 -91 
Q 1250 -91 836 529 
Q 422 1150 422 2328 
Q 422 3509 836 4129 
Q 1250 4750 2034 4750 
z
" transform="scale(0.015625)"/>
       </defs>
       <use xlink:href="#DejaVuSans-30"/>
      </g>
     </g>
    </g>
    <g id="xtick_2">
     <g id="line2d_2">
      <g>
       <use xlink:href="#m8cd20aa961" x="205.770781" y="287.65" style="stroke: #000000; stroke-width: 0.8"/>
      </g>
     </g>
     <g id="text_2">
      <!-- 25 -->
      <g transform="translate(188.592031 315.165781) scale(0.27 -0.27)">
       <defs>
        <path id="DejaVuSans-32" d="M 1228 531 
L 3431 531 
L 3431 0 
L 469 0 
L 469 531 
Q 828 903 1448 1529 
Q 2069 2156 2228 2338 
Q 2531 2678 2651 2914 
Q 2772 3150 2772 3378 
Q 2772 3750 2511 3984 
Q 2250 4219 1831 4219 
Q 1534 4219 1204 4116 
Q 875 4013 500 3803 
L 500 4441 
Q 881 4594 1212 4672 
Q 1544 4750 1819 4750 
Q 2544 4750 2975 4387 
Q 3406 4025 3406 3419 
Q 3406 3131 3298 2873 
Q 3191 2616 2906 2266 
Q 2828 2175 2409 1742 
Q 1991 1309 1228 531 
z
" transform="scale(0.015625)"/>
        <path id="DejaVuSans-35" d="M 691 4666 
L 3169 4666 
L 3169 4134 
L 1269 4134 
L 1269 2991 
Q 1406 3038 1543 3061 
Q 1681 3084 1819 3084 
Q 2600 3084 3056 2656 
Q 3513 2228 3513 1497 
Q 3513 744 3044 326 
Q 2575 -91 1722 -91 
Q 1428 -91 1123 -41 
Q 819 9 494 109 
L 494 744 
Q 775 591 1075 516 
Q 1375 441 1709 441 
Q 2250 441 2565 725 
Q 2881 1009 2881 1497 
Q 2881 1984 2565 2268 
Q 2250 2553 1709 2553 
Q 1456 2553 1204 2497 
Q 953 2441 691 2322 
L 691 4666 
z
" transform="scale(0.015625)"/>
       </defs>
       <use xlink:href="#DejaVuSans-32"/>
       <use xlink:href="#DejaVuSans-35" x="63.623047"/>
      </g>
     </g>
    </g>
    <g id="xtick_3">
     <g id="line2d_3">
      <g>
       <use xlink:href="#m8cd20aa961" x="290.145781" y="287.65" style="stroke: #000000; stroke-width: 0.8"/>
      </g>
     </g>
     <g id="text_3">
      <!-- 50 -->
      <g transform="translate(272.967031 315.165781) scale(0.27 -0.27)">
       <use xlink:href="#DejaVuSans-35"/>
       <use xlink:href="#DejaVuSans-30" x="63.623047"/>
      </g>
     </g>
    </g>
    <g id="xtick_4">
     <g id="line2d_4">
      <g>
       <use xlink:href="#m8cd20aa961" x="374.520781" y="287.65" style="stroke: #000000; stroke-width: 0.8"/>
      </g>
     </g>
     <g id="text_4">
      <!-- 75 -->
      <g transform="translate(357.342031 315.165781) scale(0.27 -0.27)">
       <defs>
        <path id="DejaVuSans-37" d="M 525 4666 
L 3525 4666 
L 3525 4397 
L 1831 0 
L 1172 0 
L 2766 4134 
L 525 4134 
L 525 4666 
z
" transform="scale(0.015625)"/>
       </defs>
       <use xlink:href="#DejaVuSans-37"/>
       <use xlink:href="#DejaVuSans-35" x="63.623047"/>
      </g>
     </g>
    </g>
    <g id="xtick_5">
     <g id="line2d_5">
      <g>
       <use xlink:href="#m8cd20aa961" x="458.895781" y="287.65" style="stroke: #000000; stroke-width: 0.8"/>
      </g>
     </g>
     <g id="text_5">
      <!-- 100 -->
      <g transform="translate(433.127656 315.165781) scale(0.27 -0.27)">
       <defs>
        <path id="DejaVuSans-31" d="M 794 531 
L 1825 531 
L 1825 4091 
L 703 3866 
L 703 4441 
L 1819 4666 
L 2450 4666 
L 2450 531 
L 3481 531 
L 3481 0 
L 794 0 
L 794 531 
z
" transform="scale(0.015625)"/>
       </defs>
       <use xlink:href="#DejaVuSans-31"/>
       <use xlink:href="#DejaVuSans-30" x="63.623047"/>
       <use xlink:href="#DejaVuSans-30" x="127.246094"/>
      </g>
     </g>
    </g>
    <g id="text_6">
     <!-- Time [ms] -->
     <g transform="translate(248.298125 347.57625) scale(0.3 -0.3)">
      <defs>
       <path id="DejaVuSans-54" d="M -19 4666 
L 3928 4666 
L 3928 4134 
L 2272 4134 
L 2272 0 
L 1638 0 
L 1638 4134 
L -19 4134 
L -19 4666 
z
" transform="scale(0.015625)"/>
       <path id="DejaVuSans-69" d="M 603 3500 
L 1178 3500 
L 1178 0 
L 603 0 
L 603 3500 
z
M 603 4863 
L 1178 4863 
L 1178 4134 
L 603 4134 
L 603 4863 
z
" transform="scale(0.015625)"/>
       <path id="DejaVuSans-6d" d="M 3328 2828 
Q 3544 3216 3844 3400 
Q 4144 3584 4550 3584 
Q 5097 3584 5394 3201 
Q 5691 2819 5691 2113 
L 5691 0 
L 5113 0 
L 5113 2094 
Q 5113 2597 4934 2840 
Q 4756 3084 4391 3084 
Q 3944 3084 3684 2787 
Q 3425 2491 3425 1978 
L 3425 0 
L 2847 0 
L 2847 2094 
Q 2847 2600 2669 2842 
Q 2491 3084 2119 3084 
Q 1678 3084 1418 2786 
Q 1159 2488 1159 1978 
L 1159 0 
L 581 0 
L 581 3500 
L 1159 3500 
L 1159 2956 
Q 1356 3278 1631 3431 
Q 1906 3584 2284 3584 
Q 2666 3584 2933 3390 
Q 3200 3197 3328 2828 
z
" transform="scale(0.015625)"/>
       <path id="DejaVuSans-65" d="M 3597 1894 
L 3597 1613 
L 953 1613 
Q 991 1019 1311 708 
Q 1631 397 2203 397 
Q 2534 397 2845 478 
Q 3156 559 3463 722 
L 3463 178 
Q 3153 47 2828 -22 
Q 2503 -91 2169 -91 
Q 1331 -91 842 396 
Q 353 884 353 1716 
Q 353 2575 817 3079 
Q 1281 3584 2069 3584 
Q 2775 3584 3186 3129 
Q 3597 2675 3597 1894 
z
M 3022 2063 
Q 3016 2534 2758 2815 
Q 2500 3097 2075 3097 
Q 1594 3097 1305 2825 
Q 1016 2553 972 2059 
L 3022 2063 
z
" transform="scale(0.015625)"/>
       <path id="DejaVuSans-20" transform="scale(0.015625)"/>
       <path id="DejaVuSans-5b" d="M 550 4863 
L 1875 4863 
L 1875 4416 
L 1125 4416 
L 1125 -397 
L 1875 -397 
L 1875 -844 
L 550 -844 
L 550 4863 
z
" transform="scale(0.015625)"/>
       <path id="DejaVuSans-73" d="M 2834 3397 
L 2834 2853 
Q 2591 2978 2328 3040 
Q 2066 3103 1784 3103 
Q 1356 3103 1142 2972 
Q 928 2841 928 2578 
Q 928 2378 1081 2264 
Q 1234 2150 1697 2047 
L 1894 2003 
Q 2506 1872 2764 1633 
Q 3022 1394 3022 966 
Q 3022 478 2636 193 
Q 2250 -91 1575 -91 
Q 1294 -91 989 -36 
Q 684 19 347 128 
L 347 722 
Q 666 556 975 473 
Q 1284 391 1588 391 
Q 1994 391 2212 530 
Q 2431 669 2431 922 
Q 2431 1156 2273 1281 
Q 2116 1406 1581 1522 
L 1381 1569 
Q 847 1681 609 1914 
Q 372 2147 372 2553 
Q 372 3047 722 3315 
Q 1072 3584 1716 3584 
Q 2034 3584 2315 3537 
Q 2597 3491 2834 3397 
z
" transform="scale(0.015625)"/>
       <path id="DejaVuSans-5d" d="M 1947 4863 
L 1947 -844 
L 622 -844 
L 622 -397 
L 1369 -397 
L 1369 4416 
L 622 4416 
L 622 4863 
L 1947 4863 
z
" transform="scale(0.015625)"/>
      </defs>
      <use xlink:href="#DejaVuSans-54"/>
      <use xlink:href="#DejaVuSans-69" x="57.958984"/>
      <use xlink:href="#DejaVuSans-6d" x="85.742188"/>
      <use xlink:href="#DejaVuSans-65" x="183.154297"/>
      <use xlink:href="#DejaVuSans-20" x="244.677734"/>
      <use xlink:href="#DejaVuSans-5b" x="276.464844"/>
      <use xlink:href="#DejaVuSans-6d" x="315.478516"/>
      <use xlink:href="#DejaVuSans-73" x="412.890625"/>
      <use xlink:href="#DejaVuSans-5d" x="464.990234"/>
     </g>
    </g>
   </g>
   <g id="matplotlib.axis_2">
    <g id="ytick_1">
     <g id="line2d_6">
      <defs>
       <path id="m35d8a722e4" d="M 0 0 
L -3.5 0 
" style="stroke: #000000; stroke-width: 0.8"/>
      </defs>
      <g>
       <use xlink:href="#m35d8a722e4" x="121.395781" y="287.029403" style="stroke: #000000; stroke-width: 0.8"/>
      </g>
     </g>
     <g id="text_7">
      <!-- −200 -->
      <g transform="translate(40.234375 297.287294) scale(0.27 -0.27)">
       <defs>
        <path id="DejaVuSans-2212" d="M 678 2272 
L 4684 2272 
L 4684 1741 
L 678 1741 
L 678 2272 
z
" transform="scale(0.015625)"/>
       </defs>
       <use xlink:href="#DejaVuSans-2212"/>
       <use xlink:href="#DejaVuSans-32" x="83.789062"/>
       <use xlink:href="#DejaVuSans-30" x="147.412109"/>
       <use xlink:href="#DejaVuSans-30" x="211.035156"/>
      </g>
     </g>
    </g>
    <g id="ytick_2">
     <g id="line2d_7">
      <g>
       <use xlink:href="#m35d8a722e4" x="121.395781" y="224.969701" style="stroke: #000000; stroke-width: 0.8"/>
      </g>
     </g>
     <g id="text_8">
      <!-- −100 -->
      <g transform="translate(40.234375 235.227592) scale(0.27 -0.27)">
       <use xlink:href="#DejaVuSans-2212"/>
       <use xlink:href="#DejaVuSans-31" x="83.789062"/>
       <use xlink:href="#DejaVuSans-30" x="147.412109"/>
       <use xlink:href="#DejaVuSans-30" x="211.035156"/>
      </g>
     </g>
    </g>
    <g id="ytick_3">
     <g id="line2d_8">
      <g>
       <use xlink:href="#m35d8a722e4" x="121.395781" y="162.91" style="stroke: #000000; stroke-width: 0.8"/>
      </g>
     </g>
     <g id="text_9">
      <!-- 0 -->
      <g transform="translate(97.217031 173.167891) scale(0.27 -0.27)">
       <use xlink:href="#DejaVuSans-30"/>
      </g>
     </g>
    </g>
    <g id="ytick_4">
     <g id="line2d_9">
      <g>
       <use xlink:href="#m35d8a722e4" x="121.395781" y="100.850299" style="stroke: #000000; stroke-width: 0.8"/>
      </g>
     </g>
     <g id="text_10">
      <!-- 100 -->
      <g transform="translate(62.859531 111.108189) scale(0.27 -0.27)">
       <use xlink:href="#DejaVuSans-31"/>
       <use xlink:href="#DejaVuSans-30" x="63.623047"/>
       <use xlink:href="#DejaVuSans-30" x="127.246094"/>
      </g>
     </g>
    </g>
    <g id="ytick_5">
     <g id="line2d_10">
      <g>
       <use xlink:href="#m35d8a722e4" x="121.395781" y="38.790597" style="stroke: #000000; stroke-width: 0.8"/>
      </g>
     </g>
     <g id="text_11">
      <!-- 200 -->
      <g transform="translate(62.859531 49.048488) scale(0.27 -0.27)">
       <use xlink:href="#DejaVuSans-32"/>
       <use xlink:href="#DejaVuSans-30" x="63.623047"/>
       <use xlink:href="#DejaVuSans-30" x="127.246094"/>
      </g>
     </g>
    </g>
    <g id="text_12">
     <!-- mT/m -->
     <g transform="translate(29.995313 206.346719) rotate(-90) scale(0.3 -0.3)">
      <defs>
       <path id="DejaVuSans-2f" d="M 1625 4666 
L 2156 4666 
L 531 -594 
L 0 -594 
L 1625 4666 
z
" transform="scale(0.015625)"/>
      </defs>
      <use xlink:href="#DejaVuSans-6d"/>
      <use xlink:href="#DejaVuSans-54" x="97.412109"/>
      <use xlink:href="#DejaVuSans-2f" x="158.496094"/>
      <use xlink:href="#DejaVuSans-6d" x="192.1875"/>
     </g>
    </g>
   </g>
   <g id="line2d_11">
    <path d="M 121.395781 162.91 
L 526.395781 162.91 
" clip-path="url(#pbe2738800c)" style="fill: none; stroke: #d3d3d3; stroke-opacity: 0.8; stroke-width: 1.5; stroke-linecap: square"/>
   </g>
   <g id="line2d_12">
    <path d="M 121.395781 162.91 
L 131.520781 162.91 
L 132.195781 187.485632 
L 132.870781 202.710921 
L 133.545781 214.547358 
L 134.895781 224.654332 
L 140.970781 266.085642 
L 142.995781 279.644331 
L 157.170781 279.644254 
L 157.845781 279.026041 
L 158.520781 266.746341 
L 159.195781 247.088288 
L 161.220781 215.254534 
L 161.895781 205.411795 
L 162.570781 199.852637 
L 169.995781 150.052353 
L 185.520781 47.54476 
L 186.195781 46.175722 
L 219.945781 46.176144 
L 220.620781 54.069178 
L 221.295781 73.37847 
L 222.645781 96.553363 
L 223.995781 116.424764 
L 230.745781 161.529815 
L 231.420781 162.91 
L 256.395781 162.91 
L 257.070781 156.707566 
L 257.745781 155.418301 
L 258.420781 147.358407 
L 259.095781 136.77389 
L 259.770781 123.590291 
L 261.120781 104.062493 
L 261.795781 96.517151 
L 269.220781 46.624102 
L 269.895781 46.364265 
L 280.695781 46.296038 
L 286.095781 46.340349 
L 286.770781 48.291168 
L 287.445781 53.641278 
L 288.795781 69.492857 
L 290.145781 87.385621 
L 292.845781 124.341447 
L 294.195781 134.259889 
L 305.670781 210.400927 
L 311.745781 250.249439 
L 313.095781 250.249438 
L 313.770781 245.2868 
L 314.445781 239.263965 
L 315.120781 221.141117 
L 317.145781 194.629877 
L 319.845781 162.91 
L 319.845781 162.91 
" clip-path="url(#pbe2738800c)" style="fill: none; stroke: #000000; stroke-width: 5; stroke-linecap: square"/>
   </g>
   <g id="line2d_13">
    <path d="M 319.845781 162.91 
L 321.769531 162.91 
L 322.545781 184.261831 
L 322.579531 183.33349 
L 324.199531 141.558169 
L 324.874531 141.558169 
L 326.528281 184.261831 
L 327.203281 184.261831 
L 328.857031 141.558169 
L 329.532031 141.558169 
L 331.185781 184.261831 
L 331.860781 184.261831 
L 333.514531 141.558169 
L 334.189531 141.558169 
L 335.843281 184.261831 
L 336.518281 184.261831 
L 338.172031 141.558169 
L 338.847031 141.558169 
L 340.500781 184.261831 
L 341.175781 184.261831 
L 342.829531 141.558169 
L 343.504531 141.558169 
L 345.158281 184.261831 
L 345.833281 184.261831 
L 347.487031 141.558169 
L 348.162031 141.558169 
L 349.815781 184.261831 
L 350.490781 184.261831 
L 352.144531 141.558169 
L 352.819531 141.558169 
L 354.473281 184.261831 
L 355.148281 184.261831 
L 356.802031 141.558169 
L 357.477031 141.558169 
L 359.130781 184.261831 
L 359.805781 184.261831 
L 361.459531 141.558169 
L 362.134531 141.558169 
L 363.788281 184.261831 
L 364.463281 184.261831 
L 366.117031 141.558169 
L 366.792031 141.558169 
L 368.445781 184.261831 
L 369.120781 184.261831 
L 370.774531 141.558169 
L 371.449531 141.558169 
L 373.103281 184.261831 
L 373.778281 184.261831 
L 375.432031 141.558169 
L 376.107031 141.558169 
L 377.760781 184.261831 
L 378.435781 184.261831 
L 380.089531 141.558169 
L 380.764531 141.558169 
L 382.418281 184.261831 
L 383.093281 184.261831 
L 384.747031 141.558169 
L 385.422031 141.558169 
L 387.075781 184.261831 
L 387.750781 184.261831 
L 389.404531 141.558169 
L 390.079531 141.558169 
L 391.733281 184.261831 
L 392.408281 184.261831 
L 394.062031 141.558169 
L 394.737031 141.558169 
L 396.390781 184.261831 
L 397.065781 184.261831 
L 398.719531 141.558169 
L 399.394531 141.558169 
L 401.048281 184.261831 
L 401.723281 184.261831 
L 403.377031 141.558169 
L 404.052031 141.558169 
L 405.705781 184.261831 
L 406.380781 184.261831 
L 408.034531 141.558169 
L 408.709531 141.558169 
L 410.363281 184.261831 
L 411.038281 184.261831 
L 412.692031 141.558169 
L 413.367031 141.558169 
L 415.020781 184.261831 
L 415.695781 184.261831 
L 417.349531 141.558169 
L 418.024531 141.558169 
L 419.678281 184.261831 
L 420.353281 184.261831 
L 422.007031 141.558169 
L 422.682031 141.558169 
L 424.335781 184.261831 
L 425.010781 184.261831 
L 426.664531 141.558169 
L 427.339531 141.558169 
L 428.993281 184.261831 
L 429.668281 184.261831 
L 431.322031 141.558169 
L 431.997031 141.558169 
L 433.650781 184.261831 
L 434.325781 184.261831 
L 435.979531 141.558169 
L 436.654531 141.558169 
L 438.308281 184.261831 
L 438.983281 184.261831 
L 440.637031 141.558169 
L 441.312031 141.558169 
L 442.965781 184.261831 
L 443.640781 184.261831 
L 445.294531 141.558169 
L 445.969531 141.558169 
L 447.623281 184.261831 
L 448.298281 184.261831 
L 449.952031 141.558169 
L 450.627031 141.558169 
L 451.437031 162.91 
L 451.437031 162.91 
" clip-path="url(#pbe2738800c)" style="fill: none; stroke: #000000; stroke-opacity: 0.7; stroke-width: 5; stroke-linecap: square"/>
   </g>
   <g id="line2d_14">
    <path d="M 366.400531 287.65 
L 366.400531 38.17 
" clip-path="url(#pbe2738800c)" style="fill: none; stroke-dasharray: 18.5,8; stroke-dashoffset: 0; stroke: #000000; stroke-width: 5"/>
   </g>
   <g id="line2d_15">
    <path d="M 121.395781 38.790597 
L 526.395781 38.790597 
" clip-path="url(#pbe2738800c)" style="fill: none; stroke-dasharray: 18.5,8; stroke-dashoffset: 0; stroke: #000000; stroke-opacity: 0.2; stroke-width: 5"/>
   </g>
   <g id="line2d_16">
    <path d="M 121.395781 287.029403 
L 526.395781 287.029403 
" clip-path="url(#pbe2738800c)" style="fill: none; stroke-dasharray: 18.5,8; stroke-dashoffset: 0; stroke: #000000; stroke-opacity: 0.2; stroke-width: 5"/>
   </g>
   <g id="line2d_17">
    <path d="M 121.395781 162.91 
L 526.395781 162.91 
" clip-path="url(#pbe2738800c)" style="fill: none; stroke: #000000; stroke-width: 5; stroke-linecap: square"/>
   </g>
   <g id="patch_3">
    <path d="M 121.395781 287.65 
L 121.395781 38.17 
" style="fill: none; stroke: #000000; stroke-width: 0.8; stroke-linejoin: miter; stroke-linecap: square"/>
   </g>
   <g id="patch_4">
    <path d="M 121.395781 287.65 
L 526.395781 287.65 
" style="fill: none; stroke: #000000; stroke-width: 0.8; stroke-linejoin: miter; stroke-linecap: square"/>
   </g>
   <g id="text_13">
    <!-- $G(t)$ -->
    <g transform="translate(292.695781 31.515) scale(0.32 -0.32)">
     <defs>
      <path id="DejaVuSans-Oblique-47" d="M 3494 697 
L 3738 1919 
L 2700 1919 
L 2797 2438 
L 4453 2438 
L 4050 384 
Q 3634 156 3143 32 
Q 2653 -91 2156 -91 
Q 1278 -91 783 396 
Q 288 884 288 1753 
Q 288 2475 589 3126 
Q 891 3778 1422 4213 
Q 1756 4484 2153 4617 
Q 2550 4750 3034 4750 
Q 3472 4750 3873 4639 
Q 4275 4528 4641 4306 
L 4513 3634 
Q 4231 3928 3853 4083 
Q 3475 4238 3047 4238 
Q 2550 4238 2172 4048 
Q 1794 3859 1497 3463 
Q 1244 3125 1098 2667 
Q 953 2209 953 1734 
Q 953 1081 1287 751 
Q 1622 422 2284 422 
Q 2616 422 2925 492 
Q 3234 563 3494 697 
z
" transform="scale(0.015625)"/>
      <path id="DejaVuSans-28" d="M 1984 4856 
Q 1566 4138 1362 3434 
Q 1159 2731 1159 2009 
Q 1159 1288 1364 580 
Q 1569 -128 1984 -844 
L 1484 -844 
Q 1016 -109 783 600 
Q 550 1309 550 2009 
Q 550 2706 781 3412 
Q 1013 4119 1484 4856 
L 1984 4856 
z
" transform="scale(0.015625)"/>
      <path id="DejaVuSans-Oblique-74" d="M 2706 3500 
L 2619 3053 
L 1472 3053 
L 1100 1153 
Q 1081 1047 1072 975 
Q 1063 903 1063 863 
Q 1063 663 1183 572 
Q 1303 481 1569 481 
L 2150 481 
L 2053 0 
L 1503 0 
Q 991 0 739 200 
Q 488 400 488 806 
Q 488 878 497 964 
Q 506 1050 525 1153 
L 897 3053 
L 409 3053 
L 500 3500 
L 978 3500 
L 1172 4494 
L 1747 4494 
L 1556 3500 
L 2706 3500 
z
" transform="scale(0.015625)"/>
      <path id="DejaVuSans-29" d="M 513 4856 
L 1013 4856 
Q 1481 4119 1714 3412 
Q 1947 2706 1947 2009 
Q 1947 1309 1714 600 
Q 1481 -109 1013 -844 
L 513 -844 
Q 928 -128 1133 580 
Q 1338 1288 1338 2009 
Q 1338 2731 1133 3434 
Q 928 4138 513 4856 
z
" transform="scale(0.015625)"/>
     </defs>
     <use xlink:href="#DejaVuSans-Oblique-47" transform="translate(0 0.125)"/>
     <use xlink:href="#DejaVuSans-28" transform="translate(77.490234 0.125)"/>
     <use xlink:href="#DejaVuSans-Oblique-74" transform="translate(116.503906 0.125)"/>
     <use xlink:href="#DejaVuSans-29" transform="translate(155.712891 0.125)"/>
    </g>
   </g>
   <g id="legend_1">
    <g id="patch_5">
     <path d="M 502.195781 66.77 
L 510.995781 66.77 
Q 515.395781 66.77 515.395781 62.37 
L 515.395781 53.57 
Q 515.395781 49.17 510.995781 49.17 
L 502.195781 49.17 
Q 497.795781 49.17 497.795781 53.57 
L 497.795781 62.37 
Q 497.795781 66.77 502.195781 66.77 
z
" style="fill: #ffffff; opacity: 0.8; stroke: #cccccc; stroke-linejoin: miter"/>
    </g>
   </g>
  </g>
  <g id="axes_2">
   <g id="patch_6">
    <path d="M 647.895781 287.65 
L 1052.895781 287.65 
L 1052.895781 38.17 
L 647.895781 38.17 
z
" style="fill: #ffffff"/>
   </g>
   <g id="matplotlib.axis_3">
    <g id="xtick_6">
     <g id="line2d_18">
      <g>
       <use xlink:href="#m8cd20aa961" x="647.895781" y="287.65" style="stroke: #000000; stroke-width: 0.8"/>
      </g>
     </g>
     <g id="text_14">
      <!-- 0 -->
      <g transform="translate(639.306406 315.165781) scale(0.27 -0.27)">
       <use xlink:href="#DejaVuSans-30"/>
      </g>
     </g>
    </g>
    <g id="xtick_7">
     <g id="line2d_19">
      <g>
       <use xlink:href="#m8cd20aa961" x="732.270781" y="287.65" style="stroke: #000000; stroke-width: 0.8"/>
      </g>
     </g>
     <g id="text_15">
      <!-- 25 -->
      <g transform="translate(715.092031 315.165781) scale(0.27 -0.27)">
       <use xlink:href="#DejaVuSans-32"/>
       <use xlink:href="#DejaVuSans-35" x="63.623047"/>
      </g>
     </g>
    </g>
    <g id="xtick_8">
     <g id="line2d_20">
      <g>
       <use xlink:href="#m8cd20aa961" x="816.645781" y="287.65" style="stroke: #000000; stroke-width: 0.8"/>
      </g>
     </g>
     <g id="text_16">
      <!-- 50 -->
      <g transform="translate(799.467031 315.165781) scale(0.27 -0.27)">
       <use xlink:href="#DejaVuSans-35"/>
       <use xlink:href="#DejaVuSans-30" x="63.623047"/>
      </g>
     </g>
    </g>
    <g id="xtick_9">
     <g id="line2d_21">
      <g>
       <use xlink:href="#m8cd20aa961" x="901.020781" y="287.65" style="stroke: #000000; stroke-width: 0.8"/>
      </g>
     </g>
     <g id="text_17">
      <!-- 75 -->
      <g transform="translate(883.842031 315.165781) scale(0.27 -0.27)">
       <use xlink:href="#DejaVuSans-37"/>
       <use xlink:href="#DejaVuSans-35" x="63.623047"/>
      </g>
     </g>
    </g>
    <g id="xtick_10">
     <g id="line2d_22">
      <g>
       <use xlink:href="#m8cd20aa961" x="985.395781" y="287.65" style="stroke: #000000; stroke-width: 0.8"/>
      </g>
     </g>
     <g id="text_18">
      <!-- 100 -->
      <g transform="translate(959.627656 315.165781) scale(0.27 -0.27)">
       <use xlink:href="#DejaVuSans-31"/>
       <use xlink:href="#DejaVuSans-30" x="63.623047"/>
       <use xlink:href="#DejaVuSans-30" x="127.246094"/>
      </g>
     </g>
    </g>
    <g id="text_19">
     <!-- Time [ms] -->
     <g transform="translate(774.798125 347.57625) scale(0.3 -0.3)">
      <use xlink:href="#DejaVuSans-54"/>
      <use xlink:href="#DejaVuSans-69" x="57.958984"/>
      <use xlink:href="#DejaVuSans-6d" x="85.742188"/>
      <use xlink:href="#DejaVuSans-65" x="183.154297"/>
      <use xlink:href="#DejaVuSans-20" x="244.677734"/>
      <use xlink:href="#DejaVuSans-5b" x="276.464844"/>
      <use xlink:href="#DejaVuSans-6d" x="315.478516"/>
      <use xlink:href="#DejaVuSans-73" x="412.890625"/>
      <use xlink:href="#DejaVuSans-5d" x="464.990234"/>
     </g>
    </g>
   </g>
   <g id="matplotlib.axis_4">
    <g id="ytick_6">
     <g id="line2d_23">
      <g>
       <use xlink:href="#m35d8a722e4" x="647.895781" y="287.029403" style="stroke: #000000; stroke-width: 0.8"/>
      </g>
     </g>
     <g id="text_20">
      <!-- −200 -->
      <g transform="translate(566.734375 297.287294) scale(0.27 -0.27)">
       <use xlink:href="#DejaVuSans-2212"/>
       <use xlink:href="#DejaVuSans-32" x="83.789062"/>
       <use xlink:href="#DejaVuSans-30" x="147.412109"/>
       <use xlink:href="#DejaVuSans-30" x="211.035156"/>
      </g>
     </g>
    </g>
    <g id="ytick_7">
     <g id="line2d_24">
      <g>
       <use xlink:href="#m35d8a722e4" x="647.895781" y="224.969701" style="stroke: #000000; stroke-width: 0.8"/>
      </g>
     </g>
     <g id="text_21">
      <!-- −100 -->
      <g transform="translate(566.734375 235.227592) scale(0.27 -0.27)">
       <use xlink:href="#DejaVuSans-2212"/>
       <use xlink:href="#DejaVuSans-31" x="83.789062"/>
       <use xlink:href="#DejaVuSans-30" x="147.412109"/>
       <use xlink:href="#DejaVuSans-30" x="211.035156"/>
      </g>
     </g>
    </g>
    <g id="ytick_8">
     <g id="line2d_25">
      <g>
       <use xlink:href="#m35d8a722e4" x="647.895781" y="162.91" style="stroke: #000000; stroke-width: 0.8"/>
      </g>
     </g>
     <g id="text_22">
      <!-- 0 -->
      <g transform="translate(623.717031 173.167891) scale(0.27 -0.27)">
       <use xlink:href="#DejaVuSans-30"/>
      </g>
     </g>
    </g>
    <g id="ytick_9">
     <g id="line2d_26">
      <g>
       <use xlink:href="#m35d8a722e4" x="647.895781" y="100.850299" style="stroke: #000000; stroke-width: 0.8"/>
      </g>
     </g>
     <g id="text_23">
      <!-- 100 -->
      <g transform="translate(589.359531 111.108189) scale(0.27 -0.27)">
       <use xlink:href="#DejaVuSans-31"/>
       <use xlink:href="#DejaVuSans-30" x="63.623047"/>
       <use xlink:href="#DejaVuSans-30" x="127.246094"/>
      </g>
     </g>
    </g>
    <g id="ytick_10">
     <g id="line2d_27">
      <g>
       <use xlink:href="#m35d8a722e4" x="647.895781" y="38.790597" style="stroke: #000000; stroke-width: 0.8"/>
      </g>
     </g>
     <g id="text_24">
      <!-- 200 -->
      <g transform="translate(589.359531 49.048488) scale(0.27 -0.27)">
       <use xlink:href="#DejaVuSans-32"/>
       <use xlink:href="#DejaVuSans-30" x="63.623047"/>
       <use xlink:href="#DejaVuSans-30" x="127.246094"/>
      </g>
     </g>
    </g>
    <g id="text_25">
     <!-- T/m/s -->
     <g transform="translate(556.495312 204.602969) rotate(-90) scale(0.3 -0.3)">
      <use xlink:href="#DejaVuSans-54"/>
      <use xlink:href="#DejaVuSans-2f" x="61.083984"/>
      <use xlink:href="#DejaVuSans-6d" x="94.775391"/>
      <use xlink:href="#DejaVuSans-2f" x="192.1875"/>
      <use xlink:href="#DejaVuSans-73" x="225.878906"/>
     </g>
    </g>
   </g>
   <g id="line2d_28">
    <path d="M 647.895781 162.91 
L 1052.895781 162.91 
" clip-path="url(#p152a612cd3)" style="fill: none; stroke: #d3d3d3; stroke-opacity: 0.8; stroke-width: 1.5; stroke-linecap: square"/>
   </g>
   <g id="line2d_29">
    <path d="M 647.895781 162.91 
L 657.345781 162.91 
L 658.020781 285.788161 
L 658.695781 239.036446 
L 659.370781 222.092184 
L 660.045781 189.934438 
L 660.720781 186.420434 
L 664.095781 185.899959 
L 668.820781 185.399743 
L 669.495781 162.910025 
L 682.995781 162.909711 
L 683.670781 159.818933 
L 684.345781 101.511502 
L 685.020781 64.619735 
L 685.695781 107.435203 
L 686.370781 110.038354 
L 687.045781 112.087672 
L 687.720781 113.696305 
L 688.395781 135.114211 
L 689.070781 139.928865 
L 692.445781 140.314169 
L 698.520781 140.550303 
L 709.320781 140.686221 
L 711.345781 140.695457 
L 712.020781 156.064807 
L 712.695781 162.90977 
L 745.770781 162.913091 
L 746.445781 202.37517 
L 747.120781 259.456458 
L 747.795781 225.861242 
L 748.470781 215.833224 
L 749.820781 211.434414 
L 750.495781 185.697721 
L 751.170781 185.801186 
L 752.520781 185.440165 
L 756.570781 185.290048 
L 757.245781 169.810923 
L 757.920781 162.91 
L 782.220781 162.91 
L 782.895781 131.897828 
L 783.570781 156.463674 
L 784.245781 122.610534 
L 785.595781 96.992006 
L 786.270781 111.837019 
L 786.945781 116.343989 
L 787.620781 125.183293 
L 788.295781 139.958112 
L 795.045781 140.415067 
L 795.720781 161.610817 
L 796.395781 162.856259 
L 811.920781 162.939581 
L 812.595781 172.664098 
L 813.270781 189.66055 
L 813.945781 200.727509 
L 814.620781 204.350386 
L 815.295781 206.386815 
L 816.645781 211.055606 
L 817.320781 212.534754 
L 817.995781 210.663833 
L 818.670781 202.164935 
L 819.345781 189.853924 
L 820.020781 185.558286 
L 827.445781 185.24543 
L 836.895781 185.090837 
L 837.570781 184.477805 
L 838.245781 162.910037 
L 838.920781 162.909954 
L 839.595781 138.09681 
L 840.270781 132.795827 
L 840.945781 72.29576 
L 841.620781 116.549897 
L 842.295781 118.92269 
L 842.970781 120.701211 
L 843.645781 122.032584 
L 844.320781 122.985835 
L 844.995781 123.595802 
L 845.670781 124.426396 
L 845.670781 124.426396 
" clip-path="url(#p152a612cd3)" style="fill: none; stroke: #000000; stroke-width: 5; stroke-linecap: square"/>
   </g>
   <g id="line2d_30">
    <path d="M 647.895781 38.790597 
L 1052.895781 38.790597 
" clip-path="url(#p152a612cd3)" style="fill: none; stroke-dasharray: 18.5,8; stroke-dashoffset: 0; stroke: #000000; stroke-opacity: 0.2; stroke-width: 5"/>
   </g>
   <g id="line2d_31">
    <path d="M 647.895781 287.029403 
L 1052.895781 287.029403 
" clip-path="url(#p152a612cd3)" style="fill: none; stroke-dasharray: 18.5,8; stroke-dashoffset: 0; stroke: #000000; stroke-opacity: 0.2; stroke-width: 5"/>
   </g>
   <g id="line2d_32">
    <path d="M 647.895781 162.91 
L 1052.895781 162.91 
" clip-path="url(#p152a612cd3)" style="fill: none; stroke: #000000; stroke-width: 5; stroke-linecap: square"/>
   </g>
   <g id="patch_7">
    <path d="M 647.895781 287.65 
L 647.895781 38.17 
" style="fill: none; stroke: #000000; stroke-width: 0.8; stroke-linejoin: miter; stroke-linecap: square"/>
   </g>
   <g id="patch_8">
    <path d="M 647.895781 287.65 
L 1052.895781 287.65 
" style="fill: none; stroke: #000000; stroke-width: 0.8; stroke-linejoin: miter; stroke-linecap: square"/>
   </g>
   <g id="text_26">
    <!-- $S(t)$ -->
    <g transform="translate(821.435781 31.515) scale(0.32 -0.32)">
     <defs>
      <path id="DejaVuSans-Oblique-53" d="M 3859 4513 
L 3738 3897 
Q 3422 4066 3111 4152 
Q 2800 4238 2509 4238 
Q 1944 4238 1609 3991 
Q 1275 3744 1275 3334 
Q 1275 3109 1398 2989 
Q 1522 2869 2034 2731 
L 2413 2638 
Q 3053 2472 3303 2217 
Q 3553 1963 3553 1503 
Q 3553 797 2998 353 
Q 2444 -91 1538 -91 
Q 1166 -91 791 -17 
Q 416 56 38 206 
L 166 856 
Q 513 641 861 531 
Q 1209 422 1556 422 
Q 2147 422 2503 684 
Q 2859 947 2859 1369 
Q 2859 1650 2717 1795 
Q 2575 1941 2106 2059 
L 1728 2156 
Q 1081 2325 845 2545 
Q 609 2766 609 3163 
Q 609 3859 1145 4304 
Q 1681 4750 2541 4750 
Q 2875 4750 3203 4690 
Q 3531 4631 3859 4513 
z
" transform="scale(0.015625)"/>
     </defs>
     <use xlink:href="#DejaVuSans-Oblique-53" transform="translate(0 0.125)"/>
     <use xlink:href="#DejaVuSans-28" transform="translate(63.476562 0.125)"/>
     <use xlink:href="#DejaVuSans-Oblique-74" transform="translate(102.490234 0.125)"/>
     <use xlink:href="#DejaVuSans-29" transform="translate(141.699219 0.125)"/>
    </g>
   </g>
  </g>
  <g id="axes_3">
   <g id="patch_9">
    <path d="M 1174.395781 287.65 
L 1579.395781 287.65 
L 1579.395781 38.17 
L 1174.395781 38.17 
z
" style="fill: #ffffff"/>
   </g>
   <g id="matplotlib.axis_5">
    <g id="xtick_11">
     <g id="line2d_33">
      <g>
       <use xlink:href="#m8cd20aa961" x="1174.395781" y="287.65" style="stroke: #000000; stroke-width: 0.8"/>
      </g>
     </g>
     <g id="text_27">
      <!-- 0 -->
      <g transform="translate(1165.806406 315.165781) scale(0.27 -0.27)">
       <use xlink:href="#DejaVuSans-30"/>
      </g>
     </g>
    </g>
    <g id="xtick_12">
     <g id="line2d_34">
      <g>
       <use xlink:href="#m8cd20aa961" x="1258.770781" y="287.65" style="stroke: #000000; stroke-width: 0.8"/>
      </g>
     </g>
     <g id="text_28">
      <!-- 25 -->
      <g transform="translate(1241.592031 315.165781) scale(0.27 -0.27)">
       <use xlink:href="#DejaVuSans-32"/>
       <use xlink:href="#DejaVuSans-35" x="63.623047"/>
      </g>
     </g>
    </g>
    <g id="xtick_13">
     <g id="line2d_35">
      <g>
       <use xlink:href="#m8cd20aa961" x="1343.145781" y="287.65" style="stroke: #000000; stroke-width: 0.8"/>
      </g>
     </g>
     <g id="text_29">
      <!-- 50 -->
      <g transform="translate(1325.967031 315.165781) scale(0.27 -0.27)">
       <use xlink:href="#DejaVuSans-35"/>
       <use xlink:href="#DejaVuSans-30" x="63.623047"/>
      </g>
     </g>
    </g>
    <g id="xtick_14">
     <g id="line2d_36">
      <g>
       <use xlink:href="#m8cd20aa961" x="1427.520781" y="287.65" style="stroke: #000000; stroke-width: 0.8"/>
      </g>
     </g>
     <g id="text_30">
      <!-- 75 -->
      <g transform="translate(1410.342031 315.165781) scale(0.27 -0.27)">
       <use xlink:href="#DejaVuSans-37"/>
       <use xlink:href="#DejaVuSans-35" x="63.623047"/>
      </g>
     </g>
    </g>
    <g id="xtick_15">
     <g id="line2d_37">
      <g>
       <use xlink:href="#m8cd20aa961" x="1511.895781" y="287.65" style="stroke: #000000; stroke-width: 0.8"/>
      </g>
     </g>
     <g id="text_31">
      <!-- 100 -->
      <g transform="translate(1486.127656 315.165781) scale(0.27 -0.27)">
       <use xlink:href="#DejaVuSans-31"/>
       <use xlink:href="#DejaVuSans-30" x="63.623047"/>
       <use xlink:href="#DejaVuSans-30" x="127.246094"/>
      </g>
     </g>
    </g>
    <g id="text_32">
     <!-- Time [ms] -->
     <g transform="translate(1301.298125 347.57625) scale(0.3 -0.3)">
      <use xlink:href="#DejaVuSans-54"/>
      <use xlink:href="#DejaVuSans-69" x="57.958984"/>
      <use xlink:href="#DejaVuSans-6d" x="85.742188"/>
      <use xlink:href="#DejaVuSans-65" x="183.154297"/>
      <use xlink:href="#DejaVuSans-20" x="244.677734"/>
      <use xlink:href="#DejaVuSans-5b" x="276.464844"/>
      <use xlink:href="#DejaVuSans-6d" x="315.478516"/>
      <use xlink:href="#DejaVuSans-73" x="412.890625"/>
      <use xlink:href="#DejaVuSans-5d" x="464.990234"/>
     </g>
    </g>
   </g>
   <g id="matplotlib.axis_6">
    <g id="ytick_11">
     <g id="line2d_38">
      <g>
       <use xlink:href="#m35d8a722e4" x="1174.395781" y="287.65" style="stroke: #000000; stroke-width: 0.8"/>
      </g>
     </g>
     <g id="text_33">
      <!-- 0.00 -->
      <g transform="translate(1107.278594 297.907891) scale(0.27 -0.27)">
       <defs>
        <path id="DejaVuSans-2e" d="M 684 794 
L 1344 794 
L 1344 0 
L 684 0 
L 684 794 
z
" transform="scale(0.015625)"/>
       </defs>
       <use xlink:href="#DejaVuSans-30"/>
       <use xlink:href="#DejaVuSans-2e" x="63.623047"/>
       <use xlink:href="#DejaVuSans-30" x="95.410156"/>
       <use xlink:href="#DejaVuSans-30" x="159.033203"/>
      </g>
     </g>
    </g>
    <g id="ytick_12">
     <g id="line2d_39">
      <g>
       <use xlink:href="#m35d8a722e4" x="1174.395781" y="225.28" style="stroke: #000000; stroke-width: 0.8"/>
      </g>
     </g>
     <g id="text_34">
      <!-- 0.25 -->
      <g transform="translate(1107.278594 235.537891) scale(0.27 -0.27)">
       <use xlink:href="#DejaVuSans-30"/>
       <use xlink:href="#DejaVuSans-2e" x="63.623047"/>
       <use xlink:href="#DejaVuSans-32" x="95.410156"/>
       <use xlink:href="#DejaVuSans-35" x="159.033203"/>
      </g>
     </g>
    </g>
    <g id="ytick_13">
     <g id="line2d_40">
      <g>
       <use xlink:href="#m35d8a722e4" x="1174.395781" y="162.91" style="stroke: #000000; stroke-width: 0.8"/>
      </g>
     </g>
     <g id="text_35">
      <!-- 0.50 -->
      <g transform="translate(1107.278594 173.167891) scale(0.27 -0.27)">
       <use xlink:href="#DejaVuSans-30"/>
       <use xlink:href="#DejaVuSans-2e" x="63.623047"/>
       <use xlink:href="#DejaVuSans-35" x="95.410156"/>
       <use xlink:href="#DejaVuSans-30" x="159.033203"/>
      </g>
     </g>
    </g>
    <g id="ytick_14">
     <g id="line2d_41">
      <g>
       <use xlink:href="#m35d8a722e4" x="1174.395781" y="100.54" style="stroke: #000000; stroke-width: 0.8"/>
      </g>
     </g>
     <g id="text_36">
      <!-- 0.75 -->
      <g transform="translate(1107.278594 110.797891) scale(0.27 -0.27)">
       <use xlink:href="#DejaVuSans-30"/>
       <use xlink:href="#DejaVuSans-2e" x="63.623047"/>
       <use xlink:href="#DejaVuSans-37" x="95.410156"/>
       <use xlink:href="#DejaVuSans-35" x="159.033203"/>
      </g>
     </g>
    </g>
    <g id="ytick_15">
     <g id="line2d_42">
      <g>
       <use xlink:href="#m35d8a722e4" x="1174.395781" y="38.17" style="stroke: #000000; stroke-width: 0.8"/>
      </g>
     </g>
     <g id="text_37">
      <!-- 1.00 -->
      <g transform="translate(1107.278594 48.427891) scale(0.27 -0.27)">
       <use xlink:href="#DejaVuSans-31"/>
       <use xlink:href="#DejaVuSans-2e" x="63.623047"/>
       <use xlink:href="#DejaVuSans-30" x="95.410156"/>
       <use xlink:href="#DejaVuSans-30" x="159.033203"/>
      </g>
     </g>
    </g>
    <g id="text_38">
     <!-- unitless -->
     <g transform="translate(1097.039531 220.995156) rotate(-90) scale(0.3 -0.3)">
      <defs>
       <path id="DejaVuSans-75" d="M 544 1381 
L 544 3500 
L 1119 3500 
L 1119 1403 
Q 1119 906 1312 657 
Q 1506 409 1894 409 
Q 2359 409 2629 706 
Q 2900 1003 2900 1516 
L 2900 3500 
L 3475 3500 
L 3475 0 
L 2900 0 
L 2900 538 
Q 2691 219 2414 64 
Q 2138 -91 1772 -91 
Q 1169 -91 856 284 
Q 544 659 544 1381 
z
M 1991 3584 
L 1991 3584 
z
" transform="scale(0.015625)"/>
       <path id="DejaVuSans-6e" d="M 3513 2113 
L 3513 0 
L 2938 0 
L 2938 2094 
Q 2938 2591 2744 2837 
Q 2550 3084 2163 3084 
Q 1697 3084 1428 2787 
Q 1159 2491 1159 1978 
L 1159 0 
L 581 0 
L 581 3500 
L 1159 3500 
L 1159 2956 
Q 1366 3272 1645 3428 
Q 1925 3584 2291 3584 
Q 2894 3584 3203 3211 
Q 3513 2838 3513 2113 
z
" transform="scale(0.015625)"/>
       <path id="DejaVuSans-74" d="M 1172 4494 
L 1172 3500 
L 2356 3500 
L 2356 3053 
L 1172 3053 
L 1172 1153 
Q 1172 725 1289 603 
Q 1406 481 1766 481 
L 2356 481 
L 2356 0 
L 1766 0 
Q 1100 0 847 248 
Q 594 497 594 1153 
L 594 3053 
L 172 3053 
L 172 3500 
L 594 3500 
L 594 4494 
L 1172 4494 
z
" transform="scale(0.015625)"/>
       <path id="DejaVuSans-6c" d="M 603 4863 
L 1178 4863 
L 1178 0 
L 603 0 
L 603 4863 
z
" transform="scale(0.015625)"/>
      </defs>
      <use xlink:href="#DejaVuSans-75"/>
      <use xlink:href="#DejaVuSans-6e" x="63.378906"/>
      <use xlink:href="#DejaVuSans-69" x="126.757812"/>
      <use xlink:href="#DejaVuSans-74" x="154.541016"/>
      <use xlink:href="#DejaVuSans-6c" x="193.75"/>
      <use xlink:href="#DejaVuSans-65" x="221.533203"/>
      <use xlink:href="#DejaVuSans-73" x="283.056641"/>
      <use xlink:href="#DejaVuSans-73" x="335.15625"/>
     </g>
    </g>
   </g>
   <g id="line2d_43">
    <path d="M 1174.395781 287.65 
L 1579.395781 287.65 
" clip-path="url(#pa22deb301d)" style="fill: none; stroke: #d3d3d3; stroke-opacity: 0.8; stroke-width: 1.5; stroke-linecap: square"/>
   </g>
   <g id="line2d_44">
    <path d="M 1174.395781 287.65 
L 1184.520781 287.65 
L 1185.195781 146.721407 
L 1185.870781 118.662367 
L 1186.545781 118.594742 
L 1187.220781 152.269535 
L 1187.895781 173.316063 
L 1188.570781 184.424224 
L 1189.245781 190.435341 
L 1189.920781 193.774589 
L 1190.595781 195.665026 
L 1191.270781 196.738533 
L 1191.945781 197.323423 
L 1192.620781 197.601119 
L 1193.295781 197.672513 
L 1194.645781 197.419185 
L 1195.995781 196.951385 
L 1196.670781 222.39837 
L 1197.345781 236.919036 
L 1198.020781 245.6964 
L 1198.695781 251.354617 
L 1199.370781 255.243167 
L 1200.045781 258.0735 
L 1200.720781 260.232297 
L 1201.395781 261.939017 
L 1202.745781 264.478313 
L 1204.095781 266.284203 
L 1205.445781 267.643151 
L 1206.795781 268.716664 
L 1208.820781 269.994951 
L 1210.170781 270.707208 
L 1210.845781 267.921361 
L 1211.520781 199.21977 
L 1212.195781 117.108736 
L 1213.545781 116.965253 
L 1214.895781 116.730459 
L 1215.570781 139.687966 
L 1216.245781 157.250258 
L 1216.920781 167.000845 
L 1217.595781 172.739628 
L 1218.270781 176.192194 
L 1218.945781 178.358011 
L 1219.620781 179.759882 
L 1220.295781 180.681158 
L 1220.970781 181.282336 
L 1221.645781 181.660796 
L 1222.320781 181.875268 
L 1223.670781 181.966517 
L 1225.020781 181.761549 
L 1227.045781 181.140857 
L 1229.745781 180.031853 
L 1238.520781 176.111039 
L 1239.870781 211.229589 
L 1240.545781 221.823092 
L 1241.220781 228.57679 
L 1241.895781 233.201686 
L 1242.570781 236.582556 
L 1243.245781 239.196612 
L 1244.595781 243.066862 
L 1245.945781 245.886106 
L 1247.295781 248.096655 
L 1248.645781 249.922483 
L 1250.670781 252.209614 
L 1252.695781 254.15978 
L 1255.395781 256.447194 
L 1258.770781 258.988922 
L 1262.820781 261.71866 
L 1266.870781 264.172843 
L 1270.920781 266.390362 
L 1272.945781 267.417512 
L 1273.620781 222.487833 
L 1274.295781 131.115342 
L 1274.970781 115.780124 
L 1276.320781 115.386653 
L 1276.995781 115.924898 
L 1277.670781 144.163048 
L 1278.345781 159.125464 
L 1279.020781 167.592795 
L 1279.695781 172.638584 
L 1280.370781 175.673742 
L 1281.045781 177.572369 
L 1281.720781 178.793049 
L 1282.395781 179.586357 
L 1283.070781 180.093717 
L 1283.745781 180.402206 
L 1285.095781 216.524797 
L 1285.770781 227.418644 
L 1286.445781 234.375355 
L 1287.120781 239.131476 
L 1287.795781 242.59353 
L 1288.470781 245.249069 
L 1289.145781 247.371128 
L 1290.495781 250.59761 
L 1291.845781 252.979881 
L 1293.195781 254.848874 
L 1294.545781 256.387224 
L 1296.570781 258.303923 
L 1299.270781 260.429055 
L 1302.645781 262.702534 
L 1306.695781 265.098597 
L 1309.395781 266.55012 
L 1310.070781 231.34034 
L 1310.745781 239.239745 
L 1312.770781 132.999155 
L 1313.445781 127.394703 
L 1314.120781 127.222954 
L 1314.795781 135.483764 
L 1315.470781 155.790715 
L 1316.145781 166.647691 
L 1316.820781 172.666176 
L 1317.495781 176.13878 
L 1318.170781 178.222151 
L 1318.845781 179.512046 
L 1319.520781 180.330433 
L 1320.195781 180.843316 
L 1320.870781 181.154163 
L 1321.545781 181.314192 
L 1322.220781 181.316945 
L 1322.895781 205.535524 
L 1323.570781 220.894519 
L 1324.245781 230.241491 
L 1324.920781 236.330516 
L 1325.595781 240.575247 
L 1326.270781 243.718829 
L 1326.945781 246.164915 
L 1328.295781 249.789895 
L 1329.645781 252.415658 
L 1330.995781 254.440757 
L 1332.345781 256.075948 
L 1334.370781 258.070593 
L 1337.070781 260.224176 
L 1339.095781 261.645554 
L 1339.770781 251.058898 
L 1341.795781 177.116697 
L 1343.145781 148.447892 
L 1344.495781 127.191388 
L 1345.170781 122.309629 
L 1345.845781 127.898331 
L 1346.520781 144.063386 
L 1347.195781 157.502636 
L 1347.870781 164.977461 
L 1348.545781 169.320527 
L 1349.220781 171.960067 
L 1349.895781 173.63229 
L 1350.570781 174.725301 
L 1351.245781 175.450929 
L 1351.920781 175.929589 
L 1352.595781 176.234674 
L 1353.945781 176.494088 
L 1355.295781 176.453943 
L 1357.320781 176.079633 
L 1360.020781 175.299296 
L 1364.070781 173.951467 
L 1364.745781 174.419973 
L 1365.420781 199.326064 
L 1366.095781 213.676906 
L 1366.770781 215.116226 
L 1367.445781 204.095176 
L 1368.120781 118.377705 
L 1370.145781 118.149783 
L 1371.495781 117.773689 
L 1372.170781 117.349257 
L 1372.845781 117.259634 
L 1372.845781 117.259634 
" clip-path="url(#pa22deb301d)" style="fill: none; stroke: #000000; stroke-width: 5; stroke-linecap: square"/>
   </g>
   <g id="line2d_45">
    <path d="M 1174.395781 287.65 
L 1579.395781 287.65 
" clip-path="url(#pa22deb301d)" style="fill: none; stroke: #000000; stroke-width: 5; stroke-linecap: square"/>
   </g>
   <g id="line2d_46">
    <path d="M 1174.395781 119.35933 
L 1175.745781 118.742786 
L 1177.770781 118.134639 
L 1180.470781 117.619579 
L 1185.195781 117.026136 
L 1193.295781 116.282795 
L 1204.095781 115.517135 
L 1216.920781 114.837944 
L 1231.770781 114.27826 
L 1249.995781 113.820279 
L 1273.620781 113.464041 
L 1284.420781 113.358738 
L 1285.095781 136.960941 
L 1285.770781 176.944694 
L 1286.445781 155.023017 
L 1287.120781 174.981662 
L 1287.795781 152.840066 
L 1288.470781 134.911251 
L 1289.145781 127.721625 
L 1289.820781 124.584108 
L 1290.495781 123.024936 
L 1291.170781 122.118082 
L 1291.845781 121.508484 
L 1293.195781 120.691351 
L 1294.545781 120.136648 
L 1296.570781 119.549036 
L 1299.945781 118.87623 
L 1305.345781 118.093959 
L 1306.020781 118.008111 
L 1306.695781 123.444944 
L 1307.370781 196.931935 
L 1308.045781 143.970006 
L 1308.720781 162.953995 
L 1309.395781 160.097766 
L 1310.070781 140.256707 
L 1310.745781 132.311871 
L 1311.420781 128.845901 
L 1312.095781 127.117194 
L 1312.770781 126.101247 
L 1313.445781 125.406597 
L 1314.795781 124.445471 
L 1316.145781 123.760572 
L 1318.170781 122.991005 
L 1320.870781 122.210117 
L 1324.920781 121.274086 
L 1330.995781 120.108665 
L 1338.420781 118.919028 
L 1346.520781 117.848922 
L 1355.295781 116.907417 
L 1365.420781 116.046512 
L 1372.845781 115.53873 
L 1372.845781 115.53873 
" clip-path="url(#pa22deb301d)" style="fill: none; stroke-dasharray: 22.2,9.6; stroke-dashoffset: 0; stroke: #ff0000; stroke-width: 6"/>
   </g>
   <g id="line2d_47">
    <path d="M 1174.395781 113.014 
L 1579.395781 113.014 
" clip-path="url(#pa22deb301d)" style="fill: none; stroke-dasharray: 5,8.25; stroke-dashoffset: 0; stroke: #ff0000; stroke-opacity: 0.5; stroke-width: 5"/>
   </g>
   <g id="patch_10">
    <path d="M 1174.395781 287.65 
L 1174.395781 38.17 
" style="fill: none; stroke: #000000; stroke-width: 0.8; stroke-linejoin: miter; stroke-linecap: square"/>
   </g>
   <g id="patch_11">
    <path d="M 1174.395781 287.65 
L 1579.395781 287.65 
" style="fill: none; stroke: #000000; stroke-width: 0.8; stroke-linejoin: miter; stroke-linecap: square"/>
   </g>
   <g id="text_39">
    <!-- SAFE-PNS -->
    <g transform="translate(1298.633281 31.515) scale(0.32 -0.32)">
     <defs>
      <path id="DejaVuSans-53" d="M 3425 4513 
L 3425 3897 
Q 3066 4069 2747 4153 
Q 2428 4238 2131 4238 
Q 1616 4238 1336 4038 
Q 1056 3838 1056 3469 
Q 1056 3159 1242 3001 
Q 1428 2844 1947 2747 
L 2328 2669 
Q 3034 2534 3370 2195 
Q 3706 1856 3706 1288 
Q 3706 609 3251 259 
Q 2797 -91 1919 -91 
Q 1588 -91 1214 -16 
Q 841 59 441 206 
L 441 856 
Q 825 641 1194 531 
Q 1563 422 1919 422 
Q 2459 422 2753 634 
Q 3047 847 3047 1241 
Q 3047 1584 2836 1778 
Q 2625 1972 2144 2069 
L 1759 2144 
Q 1053 2284 737 2584 
Q 422 2884 422 3419 
Q 422 4038 858 4394 
Q 1294 4750 2059 4750 
Q 2388 4750 2728 4690 
Q 3069 4631 3425 4513 
z
" transform="scale(0.015625)"/>
      <path id="DejaVuSans-41" d="M 2188 4044 
L 1331 1722 
L 3047 1722 
L 2188 4044 
z
M 1831 4666 
L 2547 4666 
L 4325 0 
L 3669 0 
L 3244 1197 
L 1141 1197 
L 716 0 
L 50 0 
L 1831 4666 
z
" transform="scale(0.015625)"/>
      <path id="DejaVuSans-46" d="M 628 4666 
L 3309 4666 
L 3309 4134 
L 1259 4134 
L 1259 2759 
L 3109 2759 
L 3109 2228 
L 1259 2228 
L 1259 0 
L 628 0 
L 628 4666 
z
" transform="scale(0.015625)"/>
      <path id="DejaVuSans-45" d="M 628 4666 
L 3578 4666 
L 3578 4134 
L 1259 4134 
L 1259 2753 
L 3481 2753 
L 3481 2222 
L 1259 2222 
L 1259 531 
L 3634 531 
L 3634 0 
L 628 0 
L 628 4666 
z
" transform="scale(0.015625)"/>
      <path id="DejaVuSans-2d" d="M 313 2009 
L 1997 2009 
L 1997 1497 
L 313 1497 
L 313 2009 
z
" transform="scale(0.015625)"/>
      <path id="DejaVuSans-50" d="M 1259 4147 
L 1259 2394 
L 2053 2394 
Q 2494 2394 2734 2622 
Q 2975 2850 2975 3272 
Q 2975 3691 2734 3919 
Q 2494 4147 2053 4147 
L 1259 4147 
z
M 628 4666 
L 2053 4666 
Q 2838 4666 3239 4311 
Q 3641 3956 3641 3272 
Q 3641 2581 3239 2228 
Q 2838 1875 2053 1875 
L 1259 1875 
L 1259 0 
L 628 0 
L 628 4666 
z
" transform="scale(0.015625)"/>
      <path id="DejaVuSans-4e" d="M 628 4666 
L 1478 4666 
L 3547 763 
L 3547 4666 
L 4159 4666 
L 4159 0 
L 3309 0 
L 1241 3903 
L 1241 0 
L 628 0 
L 628 4666 
z
" transform="scale(0.015625)"/>
     </defs>
     <use xlink:href="#DejaVuSans-53"/>
     <use xlink:href="#DejaVuSans-41" x="65.351562"/>
     <use xlink:href="#DejaVuSans-46" x="133.759766"/>
     <use xlink:href="#DejaVuSans-45" x="191.279297"/>
     <use xlink:href="#DejaVuSans-2d" x="254.462891"/>
     <use xlink:href="#DejaVuSans-50" x="290.546875"/>
     <use xlink:href="#DejaVuSans-4e" x="350.849609"/>
     <use xlink:href="#DejaVuSans-53" x="425.654297"/>
    </g>
   </g>
   <g id="legend_2">
    <g id="patch_12">
     <path d="M 1430.758281 276.65 
L 1563.995781 276.65 
Q 1568.395781 276.65 1568.395781 272.25 
L 1568.395781 242.158125 
Q 1568.395781 237.758125 1563.995781 237.758125 
L 1430.758281 237.758125 
Q 1426.358281 237.758125 1426.358281 242.158125 
L 1426.358281 272.25 
Q 1426.358281 276.65 1430.758281 276.65 
z
" style="fill: #ffffff; opacity: 0.2; stroke: #cccccc; stroke-linejoin: miter"/>
    </g>
    <g id="line2d_48">
     <path d="M 1435.158281 255.574688 
L 1457.158281 255.574688 
L 1479.158281 255.574688 
" style="fill: none; stroke: #000000; stroke-width: 5; stroke-linecap: square"/>
    </g>
    <g id="text_40">
     <!-- Y-axis -->
     <g transform="translate(1496.758281 263.274688) scale(0.22 -0.22)">
      <defs>
       <path id="DejaVuSans-59" d="M -13 4666 
L 666 4666 
L 1959 2747 
L 3244 4666 
L 3922 4666 
L 2272 2222 
L 2272 0 
L 1638 0 
L 1638 2222 
L -13 4666 
z
" transform="scale(0.015625)"/>
       <path id="DejaVuSans-61" d="M 2194 1759 
Q 1497 1759 1228 1600 
Q 959 1441 959 1056 
Q 959 750 1161 570 
Q 1363 391 1709 391 
Q 2188 391 2477 730 
Q 2766 1069 2766 1631 
L 2766 1759 
L 2194 1759 
z
M 3341 1997 
L 3341 0 
L 2766 0 
L 2766 531 
Q 2569 213 2275 61 
Q 1981 -91 1556 -91 
Q 1019 -91 701 211 
Q 384 513 384 1019 
Q 384 1609 779 1909 
Q 1175 2209 1959 2209 
L 2766 2209 
L 2766 2266 
Q 2766 2663 2505 2880 
Q 2244 3097 1772 3097 
Q 1472 3097 1187 3025 
Q 903 2953 641 2809 
L 641 3341 
Q 956 3463 1253 3523 
Q 1550 3584 1831 3584 
Q 2591 3584 2966 3190 
Q 3341 2797 3341 1997 
z
" transform="scale(0.015625)"/>
       <path id="DejaVuSans-78" d="M 3513 3500 
L 2247 1797 
L 3578 0 
L 2900 0 
L 1881 1375 
L 863 0 
L 184 0 
L 1544 1831 
L 300 3500 
L 978 3500 
L 1906 2253 
L 2834 3500 
L 3513 3500 
z
" transform="scale(0.015625)"/>
      </defs>
      <use xlink:href="#DejaVuSans-59"/>
      <use xlink:href="#DejaVuSans-2d" x="49.208984"/>
      <use xlink:href="#DejaVuSans-61" x="85.292969"/>
      <use xlink:href="#DejaVuSans-78" x="146.572266"/>
      <use xlink:href="#DejaVuSans-69" x="205.751953"/>
      <use xlink:href="#DejaVuSans-73" x="233.535156"/>
     </g>
    </g>
   </g>
  </g>
  <g id="axes_4">
   <g id="patch_13">
    <path d="M 1700.895781 287.65 
L 2105.895781 287.65 
L 2105.895781 38.17 
L 1700.895781 38.17 
z
" style="fill: #ffffff"/>
   </g>
   <g id="matplotlib.axis_7">
    <g id="xtick_16">
     <g id="line2d_49">
      <g>
       <use xlink:href="#m8cd20aa961" x="1700.895781" y="287.65" style="stroke: #000000; stroke-width: 0.8"/>
      </g>
     </g>
     <g id="text_41">
      <!-- 0 -->
      <g transform="translate(1692.306406 315.165781) scale(0.27 -0.27)">
       <use xlink:href="#DejaVuSans-30"/>
      </g>
     </g>
    </g>
    <g id="xtick_17">
     <g id="line2d_50">
      <g>
       <use xlink:href="#m8cd20aa961" x="1785.270781" y="287.65" style="stroke: #000000; stroke-width: 0.8"/>
      </g>
     </g>
     <g id="text_42">
      <!-- 25 -->
      <g transform="translate(1768.092031 315.165781) scale(0.27 -0.27)">
       <use xlink:href="#DejaVuSans-32"/>
       <use xlink:href="#DejaVuSans-35" x="63.623047"/>
      </g>
     </g>
    </g>
    <g id="xtick_18">
     <g id="line2d_51">
      <g>
       <use xlink:href="#m8cd20aa961" x="1869.645781" y="287.65" style="stroke: #000000; stroke-width: 0.8"/>
      </g>
     </g>
     <g id="text_43">
      <!-- 50 -->
      <g transform="translate(1852.467031 315.165781) scale(0.27 -0.27)">
       <use xlink:href="#DejaVuSans-35"/>
       <use xlink:href="#DejaVuSans-30" x="63.623047"/>
      </g>
     </g>
    </g>
    <g id="xtick_19">
     <g id="line2d_52">
      <g>
       <use xlink:href="#m8cd20aa961" x="1954.020781" y="287.65" style="stroke: #000000; stroke-width: 0.8"/>
      </g>
     </g>
     <g id="text_44">
      <!-- 75 -->
      <g transform="translate(1936.842031 315.165781) scale(0.27 -0.27)">
       <use xlink:href="#DejaVuSans-37"/>
       <use xlink:href="#DejaVuSans-35" x="63.623047"/>
      </g>
     </g>
    </g>
    <g id="xtick_20">
     <g id="line2d_53">
      <g>
       <use xlink:href="#m8cd20aa961" x="2038.395781" y="287.65" style="stroke: #000000; stroke-width: 0.8"/>
      </g>
     </g>
     <g id="text_45">
      <!-- 100 -->
      <g transform="translate(2012.627656 315.165781) scale(0.27 -0.27)">
       <use xlink:href="#DejaVuSans-31"/>
       <use xlink:href="#DejaVuSans-30" x="63.623047"/>
       <use xlink:href="#DejaVuSans-30" x="127.246094"/>
      </g>
     </g>
    </g>
    <g id="text_46">
     <!-- Time [ms] -->
     <g transform="translate(1827.798125 347.57625) scale(0.3 -0.3)">
      <use xlink:href="#DejaVuSans-54"/>
      <use xlink:href="#DejaVuSans-69" x="57.958984"/>
      <use xlink:href="#DejaVuSans-6d" x="85.742188"/>
      <use xlink:href="#DejaVuSans-65" x="183.154297"/>
      <use xlink:href="#DejaVuSans-20" x="244.677734"/>
      <use xlink:href="#DejaVuSans-5b" x="276.464844"/>
      <use xlink:href="#DejaVuSans-6d" x="315.478516"/>
      <use xlink:href="#DejaVuSans-73" x="412.890625"/>
      <use xlink:href="#DejaVuSans-5d" x="464.990234"/>
     </g>
    </g>
   </g>
   <g id="matplotlib.axis_8">
    <g id="ytick_16">
     <g id="line2d_54">
      <g>
       <use xlink:href="#m35d8a722e4" x="1700.895781" y="287.65" style="stroke: #000000; stroke-width: 0.8"/>
      </g>
     </g>
     <g id="text_47">
      <!-- 0.00 -->
      <g transform="translate(1633.778594 297.907891) scale(0.27 -0.27)">
       <use xlink:href="#DejaVuSans-30"/>
       <use xlink:href="#DejaVuSans-2e" x="63.623047"/>
       <use xlink:href="#DejaVuSans-30" x="95.410156"/>
       <use xlink:href="#DejaVuSans-30" x="159.033203"/>
      </g>
     </g>
    </g>
    <g id="ytick_17">
     <g id="line2d_55">
      <g>
       <use xlink:href="#m35d8a722e4" x="1700.895781" y="225.28" style="stroke: #000000; stroke-width: 0.8"/>
      </g>
     </g>
     <g id="text_48">
      <!-- 0.25 -->
      <g transform="translate(1633.778594 235.537891) scale(0.27 -0.27)">
       <use xlink:href="#DejaVuSans-30"/>
       <use xlink:href="#DejaVuSans-2e" x="63.623047"/>
       <use xlink:href="#DejaVuSans-32" x="95.410156"/>
       <use xlink:href="#DejaVuSans-35" x="159.033203"/>
      </g>
     </g>
    </g>
    <g id="ytick_18">
     <g id="line2d_56">
      <g>
       <use xlink:href="#m35d8a722e4" x="1700.895781" y="162.91" style="stroke: #000000; stroke-width: 0.8"/>
      </g>
     </g>
     <g id="text_49">
      <!-- 0.50 -->
      <g transform="translate(1633.778594 173.167891) scale(0.27 -0.27)">
       <use xlink:href="#DejaVuSans-30"/>
       <use xlink:href="#DejaVuSans-2e" x="63.623047"/>
       <use xlink:href="#DejaVuSans-35" x="95.410156"/>
       <use xlink:href="#DejaVuSans-30" x="159.033203"/>
      </g>
     </g>
    </g>
    <g id="ytick_19">
     <g id="line2d_57">
      <g>
       <use xlink:href="#m35d8a722e4" x="1700.895781" y="100.54" style="stroke: #000000; stroke-width: 0.8"/>
      </g>
     </g>
     <g id="text_50">
      <!-- 0.75 -->
      <g transform="translate(1633.778594 110.797891) scale(0.27 -0.27)">
       <use xlink:href="#DejaVuSans-30"/>
       <use xlink:href="#DejaVuSans-2e" x="63.623047"/>
       <use xlink:href="#DejaVuSans-37" x="95.410156"/>
       <use xlink:href="#DejaVuSans-35" x="159.033203"/>
      </g>
     </g>
    </g>
    <g id="ytick_20">
     <g id="line2d_58">
      <g>
       <use xlink:href="#m35d8a722e4" x="1700.895781" y="38.17" style="stroke: #000000; stroke-width: 0.8"/>
      </g>
     </g>
     <g id="text_51">
      <!-- 1.00 -->
      <g transform="translate(1633.778594 48.427891) scale(0.27 -0.27)">
       <use xlink:href="#DejaVuSans-31"/>
       <use xlink:href="#DejaVuSans-2e" x="63.623047"/>
       <use xlink:href="#DejaVuSans-30" x="95.410156"/>
       <use xlink:href="#DejaVuSans-30" x="159.033203"/>
      </g>
     </g>
    </g>
    <g id="text_52">
     <!-- unitless -->
     <g transform="translate(1623.539531 220.995156) rotate(-90) scale(0.3 -0.3)">
      <use xlink:href="#DejaVuSans-75"/>
      <use xlink:href="#DejaVuSans-6e" x="63.378906"/>
      <use xlink:href="#DejaVuSans-69" x="126.757812"/>
      <use xlink:href="#DejaVuSans-74" x="154.541016"/>
      <use xlink:href="#DejaVuSans-6c" x="193.75"/>
      <use xlink:href="#DejaVuSans-65" x="221.533203"/>
      <use xlink:href="#DejaVuSans-73" x="283.056641"/>
      <use xlink:href="#DejaVuSans-73" x="335.15625"/>
     </g>
    </g>
   </g>
   <g id="line2d_59">
    <path d="M 1700.895781 287.65 
L 2105.895781 287.65 
" clip-path="url(#p8a5d6c2ffd)" style="fill: none; stroke: #d3d3d3; stroke-opacity: 0.8; stroke-width: 1.5; stroke-linecap: square"/>
   </g>
   <g id="line2d_60">
    <path d="M 1700.895781 287.65 
L 1711.020781 287.65 
L 1711.695781 212.224063 
L 1712.370781 171.586259 
L 1713.045781 144.617282 
L 1713.720781 139.545752 
L 1715.070781 134.750187 
L 1716.420781 130.889484 
L 1717.770781 127.780268 
L 1719.120781 125.275442 
L 1720.470781 123.256928 
L 1721.820781 121.629875 
L 1722.495781 120.998185 
L 1723.845781 146.35399 
L 1725.195781 167.761195 
L 1726.545781 185.850155 
L 1727.895781 201.148285 
L 1729.245781 214.096928 
L 1730.595781 225.065577 
L 1731.945781 234.364198 
L 1733.295781 242.25336 
L 1734.645781 248.951355 
L 1735.995781 254.642082 
L 1736.670781 257.159345 
L 1737.345781 260.140095 
L 1738.020781 266.106663 
L 1738.695781 207.795758 
L 1740.045781 156.863938 
L 1741.395781 118.547785 
L 1742.070781 115.238979 
L 1743.420781 115.01835 
L 1751.520781 114.845285 
L 1765.020781 114.780318 
L 1765.695781 124.211627 
L 1767.045781 148.912827 
L 1768.395781 169.79564 
L 1769.745781 187.465174 
L 1771.095781 202.428138 
L 1772.445781 215.109127 
L 1773.795781 225.864442 
L 1775.145781 234.993234 
L 1776.495781 242.747156 
L 1777.845781 249.337922 
L 1779.195781 254.943736 
L 1780.545781 259.715025 
L 1781.895781 263.778578 
L 1783.245781 267.241447 
L 1784.595781 270.194149 
L 1785.945781 272.713103 
L 1787.295781 274.863483 
L 1788.645781 276.699899 
L 1789.995781 278.26901 
L 1792.020781 280.206458 
L 1794.045781 281.739138 
L 1796.070781 282.952392 
L 1798.095781 283.914489 
L 1799.445781 284.443432 
L 1800.120781 266.004623 
L 1800.795781 208.51931 
L 1801.470781 176.291034 
L 1802.820781 132.476964 
L 1803.495781 115.184875 
L 1806.195781 114.768355 
L 1810.245781 114.768609 
L 1810.920781 124.259365 
L 1812.270781 149.107353 
L 1813.620781 170.087786 
L 1814.970781 187.817917 
L 1816.320781 202.813918 
L 1817.670781 215.507855 
L 1819.020781 226.261744 
L 1820.370781 235.379202 
L 1821.720781 243.115109 
L 1823.070781 249.683642 
L 1824.420781 255.264937 
L 1825.770781 260.010646 
L 1827.120781 264.048553 
L 1828.470781 267.486434 
L 1829.820781 270.415264 
L 1831.170781 272.911905 
L 1832.520781 275.041352 
L 1833.870781 276.858609 
L 1835.220781 278.410263 
L 1835.895781 279.099075 
L 1836.570781 274.8934 
L 1837.245781 272.048459 
L 1837.920781 248.64356 
L 1838.595781 219.370857 
L 1839.270781 184.472305 
L 1839.945781 161.487293 
L 1840.620781 143.103291 
L 1841.295781 131.605897 
L 1842.645781 128.68734 
L 1843.995781 126.284689 
L 1845.345781 124.318441 
L 1846.695781 122.711499 
L 1848.720781 120.802031 
L 1850.745781 156.670758 
L 1852.095781 176.451114 
L 1853.445781 193.177945 
L 1854.795781 207.337121 
L 1856.145781 219.338954 
L 1857.495781 229.518114 
L 1858.845781 238.151387 
L 1860.195781 245.47777 
L 1861.545781 251.703875 
L 1862.895781 256.998647 
L 1864.245781 261.505515 
L 1865.595781 265.341482 
L 1866.270781 269.11298 
L 1866.945781 276.28635 
L 1867.620781 256.920099 
L 1870.320781 168.412442 
L 1871.670781 129.709935 
L 1872.345781 118.39266 
L 1873.020781 115.515504 
L 1881.120781 115.171528 
L 1888.545781 115.094298 
L 1890.570781 115.106279 
L 1891.245781 115.48479 
L 1893.270781 158.325047 
L 1893.945781 175.06585 
L 1894.620781 203.579359 
L 1895.295781 221.021171 
L 1895.970781 216.346873 
L 1897.320781 180.451213 
L 1898.670781 151.968024 
L 1899.345781 139.978114 
L 1899.345781 139.978114 
" clip-path="url(#p8a5d6c2ffd)" style="fill: none; stroke: #000000; stroke-width: 5; stroke-linecap: square"/>
   </g>
   <g id="line2d_61">
    <path d="M 1700.895781 287.65 
L 2105.895781 287.65 
" clip-path="url(#p8a5d6c2ffd)" style="fill: none; stroke: #000000; stroke-width: 5; stroke-linecap: square"/>
   </g>
   <g id="line2d_62">
    <path d="M 1700.895781 124.19026 
L 1702.245781 122.359612 
L 1703.595781 120.837207 
L 1704.945781 119.569694 
L 1706.970781 118.052535 
L 1708.995781 116.895143 
L 1711.020781 116.01003 
L 1713.720781 115.142329 
L 1716.420781 114.531092 
L 1719.795781 114.012049 
L 1723.845781 113.621393 
L 1729.245781 113.329977 
L 1737.345781 113.134358 
L 1752.195781 113.035187 
L 1807.545781 113.014037 
L 1810.920781 113.014026 
L 1811.595781 121.796718 
L 1812.270781 145.450282 
L 1812.945781 157.750031 
L 1813.620781 141.807902 
L 1814.295781 144.499146 
L 1815.645781 138.468319 
L 1816.995781 133.603859 
L 1818.345781 129.678538 
L 1819.695781 126.509635 
L 1821.045781 123.950188 
L 1822.395781 121.881962 
L 1823.745781 120.209812 
L 1825.095781 118.857148 
L 1826.445781 117.762301 
L 1827.795781 116.875597 
L 1829.820781 115.850425 
L 1831.845781 115.101413 
L 1832.520781 114.899443 
L 1833.195781 115.619169 
L 1833.870781 150.697051 
L 1834.545781 156.218327 
L 1835.220781 144.035735 
L 1835.895781 145.589802 
L 1837.245781 139.363144 
L 1838.595781 134.338797 
L 1839.945781 130.282809 
L 1841.295781 127.007018 
L 1842.645781 124.360047 
L 1843.995781 122.22008 
L 1845.345781 120.489064 
L 1846.695781 119.088048 
L 1848.045781 117.95344 
L 1849.395781 117.034006 
L 1851.420781 115.970201 
L 1853.445781 115.192213 
L 1856.145781 114.468336 
L 1858.845781 113.988823 
L 1862.220781 113.608661 
L 1866.945781 113.315092 
L 1874.370781 113.120279 
L 1888.545781 113.03001 
L 1899.345781 113.018076 
L 1899.345781 113.018076 
" clip-path="url(#p8a5d6c2ffd)" style="fill: none; stroke-dasharray: 22.2,9.6; stroke-dashoffset: 0; stroke: #800080; stroke-width: 6"/>
   </g>
   <g id="line2d_63">
    <path clip-path="url(#p8a5d6c2ffd)" style="fill: none; stroke-dasharray: 11.1,4.8; stroke-dashoffset: 0; stroke: #800080; stroke-width: 3"/>
   </g>
   <g id="line2d_64">
    <path d="M 1700.895781 113.014 
L 2105.895781 113.014 
" clip-path="url(#p8a5d6c2ffd)" style="fill: none; stroke-dasharray: 5,8.25; stroke-dashoffset: 0; stroke: #800080; stroke-opacity: 0.5; stroke-width: 5"/>
   </g>
   <g id="patch_14">
    <path d="M 1700.895781 287.65 
L 1700.895781 38.17 
" style="fill: none; stroke: #000000; stroke-width: 0.8; stroke-linejoin: miter; stroke-linecap: square"/>
   </g>
   <g id="patch_15">
    <path d="M 1700.895781 287.65 
L 2105.895781 287.65 
" style="fill: none; stroke: #000000; stroke-width: 0.8; stroke-linejoin: miter; stroke-linecap: square"/>
   </g>
   <g id="text_53">
    <!-- SAFE-CNS -->
    <g transform="translate(1823.608281 31.515) scale(0.32 -0.32)">
     <defs>
      <path id="DejaVuSans-43" d="M 4122 4306 
L 4122 3641 
Q 3803 3938 3442 4084 
Q 3081 4231 2675 4231 
Q 1875 4231 1450 3742 
Q 1025 3253 1025 2328 
Q 1025 1406 1450 917 
Q 1875 428 2675 428 
Q 3081 428 3442 575 
Q 3803 722 4122 1019 
L 4122 359 
Q 3791 134 3420 21 
Q 3050 -91 2638 -91 
Q 1578 -91 968 557 
Q 359 1206 359 2328 
Q 359 3453 968 4101 
Q 1578 4750 2638 4750 
Q 3056 4750 3426 4639 
Q 3797 4528 4122 4306 
z
" transform="scale(0.015625)"/>
     </defs>
     <use xlink:href="#DejaVuSans-53"/>
     <use xlink:href="#DejaVuSans-41" x="65.351562"/>
     <use xlink:href="#DejaVuSans-46" x="133.759766"/>
     <use xlink:href="#DejaVuSans-45" x="191.279297"/>
     <use xlink:href="#DejaVuSans-2d" x="254.462891"/>
     <use xlink:href="#DejaVuSans-43" x="290.546875"/>
     <use xlink:href="#DejaVuSans-4e" x="360.371094"/>
     <use xlink:href="#DejaVuSans-53" x="435.175781"/>
    </g>
   </g>
   <g id="legend_3">
    <g id="patch_16">
     <path d="M 1957.258281 276.65 
L 2090.495781 276.65 
Q 2094.895781 276.65 2094.895781 272.25 
L 2094.895781 242.158125 
Q 2094.895781 237.758125 2090.495781 237.758125 
L 1957.258281 237.758125 
Q 1952.858281 237.758125 1952.858281 242.158125 
L 1952.858281 272.25 
Q 1952.858281 276.65 1957.258281 276.65 
z
" style="fill: #ffffff; opacity: 0.2; stroke: #cccccc; stroke-linejoin: miter"/>
    </g>
    <g id="line2d_65">
     <path d="M 1961.658281 255.574688 
L 1983.658281 255.574688 
L 2005.658281 255.574688 
" style="fill: none; stroke: #000000; stroke-width: 5; stroke-linecap: square"/>
    </g>
    <g id="text_54">
     <!-- Y-axis -->
     <g transform="translate(2023.258281 263.274688) scale(0.22 -0.22)">
      <use xlink:href="#DejaVuSans-59"/>
      <use xlink:href="#DejaVuSans-2d" x="49.208984"/>
      <use xlink:href="#DejaVuSans-61" x="85.292969"/>
      <use xlink:href="#DejaVuSans-78" x="146.572266"/>
      <use xlink:href="#DejaVuSans-69" x="205.751953"/>
      <use xlink:href="#DejaVuSans-73" x="233.535156"/>
     </g>
    </g>
   </g>
  </g>
  <g id="axes_5">
   <g id="patch_17">
    <path d="M 2227.395781 287.65 
L 2632.395781 287.65 
L 2632.395781 38.17 
L 2227.395781 38.17 
z
" style="fill: #ffffff"/>
   </g>
   <g id="matplotlib.axis_9">
    <g id="xtick_21">
     <g id="line2d_66">
      <g>
       <use xlink:href="#m8cd20aa961" x="2227.395781" y="287.65" style="stroke: #000000; stroke-width: 0.8"/>
      </g>
     </g>
     <g id="text_55">
      <!-- 0 -->
      <g transform="translate(2218.806406 315.165781) scale(0.27 -0.27)">
       <use xlink:href="#DejaVuSans-30"/>
      </g>
     </g>
    </g>
    <g id="xtick_22">
     <g id="line2d_67">
      <g>
       <use xlink:href="#m8cd20aa961" x="2311.770781" y="287.65" style="stroke: #000000; stroke-width: 0.8"/>
      </g>
     </g>
     <g id="text_56">
      <!-- 25 -->
      <g transform="translate(2294.592031 315.165781) scale(0.27 -0.27)">
       <use xlink:href="#DejaVuSans-32"/>
       <use xlink:href="#DejaVuSans-35" x="63.623047"/>
      </g>
     </g>
    </g>
    <g id="xtick_23">
     <g id="line2d_68">
      <g>
       <use xlink:href="#m8cd20aa961" x="2396.145781" y="287.65" style="stroke: #000000; stroke-width: 0.8"/>
      </g>
     </g>
     <g id="text_57">
      <!-- 50 -->
      <g transform="translate(2378.967031 315.165781) scale(0.27 -0.27)">
       <use xlink:href="#DejaVuSans-35"/>
       <use xlink:href="#DejaVuSans-30" x="63.623047"/>
      </g>
     </g>
    </g>
    <g id="xtick_24">
     <g id="line2d_69">
      <g>
       <use xlink:href="#m8cd20aa961" x="2480.520781" y="287.65" style="stroke: #000000; stroke-width: 0.8"/>
      </g>
     </g>
     <g id="text_58">
      <!-- 75 -->
      <g transform="translate(2463.342031 315.165781) scale(0.27 -0.27)">
       <use xlink:href="#DejaVuSans-37"/>
       <use xlink:href="#DejaVuSans-35" x="63.623047"/>
      </g>
     </g>
    </g>
    <g id="xtick_25">
     <g id="line2d_70">
      <g>
       <use xlink:href="#m8cd20aa961" x="2564.895781" y="287.65" style="stroke: #000000; stroke-width: 0.8"/>
      </g>
     </g>
     <g id="text_59">
      <!-- 100 -->
      <g transform="translate(2539.127656 315.165781) scale(0.27 -0.27)">
       <use xlink:href="#DejaVuSans-31"/>
       <use xlink:href="#DejaVuSans-30" x="63.623047"/>
       <use xlink:href="#DejaVuSans-30" x="127.246094"/>
      </g>
     </g>
    </g>
    <g id="text_60">
     <!-- Time [ms] -->
     <g transform="translate(2354.298125 347.57625) scale(0.3 -0.3)">
      <use xlink:href="#DejaVuSans-54"/>
      <use xlink:href="#DejaVuSans-69" x="57.958984"/>
      <use xlink:href="#DejaVuSans-6d" x="85.742188"/>
      <use xlink:href="#DejaVuSans-65" x="183.154297"/>
      <use xlink:href="#DejaVuSans-20" x="244.677734"/>
      <use xlink:href="#DejaVuSans-5b" x="276.464844"/>
      <use xlink:href="#DejaVuSans-6d" x="315.478516"/>
      <use xlink:href="#DejaVuSans-73" x="412.890625"/>
      <use xlink:href="#DejaVuSans-5d" x="464.990234"/>
     </g>
    </g>
   </g>
   <g id="matplotlib.axis_10">
    <g id="ytick_21">
     <g id="line2d_71">
      <g>
       <use xlink:href="#m35d8a722e4" x="2227.395781" y="274.922348" style="stroke: #000000; stroke-width: 0.8"/>
      </g>
     </g>
     <g id="text_61">
      <!-- −0.5 -->
      <g transform="translate(2154.832187 285.180239) scale(0.27 -0.27)">
       <use xlink:href="#DejaVuSans-2212"/>
       <use xlink:href="#DejaVuSans-30" x="83.789062"/>
       <use xlink:href="#DejaVuSans-2e" x="147.412109"/>
       <use xlink:href="#DejaVuSans-35" x="179.199219"/>
      </g>
     </g>
    </g>
    <g id="ytick_22">
     <g id="line2d_72">
      <g>
       <use xlink:href="#m35d8a722e4" x="2227.395781" y="199.784899" style="stroke: #000000; stroke-width: 0.8"/>
      </g>
     </g>
     <g id="text_62">
      <!-- 0.0 -->
      <g transform="translate(2177.457344 210.04279) scale(0.27 -0.27)">
       <use xlink:href="#DejaVuSans-30"/>
       <use xlink:href="#DejaVuSans-2e" x="63.623047"/>
       <use xlink:href="#DejaVuSans-30" x="95.410156"/>
      </g>
     </g>
    </g>
    <g id="ytick_23">
     <g id="line2d_73">
      <g>
       <use xlink:href="#m35d8a722e4" x="2227.395781" y="124.647449" style="stroke: #000000; stroke-width: 0.8"/>
      </g>
     </g>
     <g id="text_63">
      <!-- 0.5 -->
      <g transform="translate(2177.457344 134.90534) scale(0.27 -0.27)">
       <use xlink:href="#DejaVuSans-30"/>
       <use xlink:href="#DejaVuSans-2e" x="63.623047"/>
       <use xlink:href="#DejaVuSans-35" x="95.410156"/>
      </g>
     </g>
    </g>
    <g id="ytick_24">
     <g id="line2d_74">
      <g>
       <use xlink:href="#m35d8a722e4" x="2227.395781" y="49.51" style="stroke: #000000; stroke-width: 0.8"/>
      </g>
     </g>
     <g id="text_64">
      <!-- 1.0 -->
      <g transform="translate(2177.457344 59.767891) scale(0.27 -0.27)">
       <use xlink:href="#DejaVuSans-31"/>
       <use xlink:href="#DejaVuSans-2e" x="63.623047"/>
       <use xlink:href="#DejaVuSans-30" x="95.410156"/>
      </g>
     </g>
    </g>
    <g id="text_65">
     <!-- Normalized -->
     <g transform="translate(2144.593125 247.976406) rotate(-90) scale(0.3 -0.3)">
      <defs>
       <path id="DejaVuSans-6f" d="M 1959 3097 
Q 1497 3097 1228 2736 
Q 959 2375 959 1747 
Q 959 1119 1226 758 
Q 1494 397 1959 397 
Q 2419 397 2687 759 
Q 2956 1122 2956 1747 
Q 2956 2369 2687 2733 
Q 2419 3097 1959 3097 
z
M 1959 3584 
Q 2709 3584 3137 3096 
Q 3566 2609 3566 1747 
Q 3566 888 3137 398 
Q 2709 -91 1959 -91 
Q 1206 -91 779 398 
Q 353 888 353 1747 
Q 353 2609 779 3096 
Q 1206 3584 1959 3584 
z
" transform="scale(0.015625)"/>
       <path id="DejaVuSans-72" d="M 2631 2963 
Q 2534 3019 2420 3045 
Q 2306 3072 2169 3072 
Q 1681 3072 1420 2755 
Q 1159 2438 1159 1844 
L 1159 0 
L 581 0 
L 581 3500 
L 1159 3500 
L 1159 2956 
Q 1341 3275 1631 3429 
Q 1922 3584 2338 3584 
Q 2397 3584 2469 3576 
Q 2541 3569 2628 3553 
L 2631 2963 
z
" transform="scale(0.015625)"/>
       <path id="DejaVuSans-7a" d="M 353 3500 
L 3084 3500 
L 3084 2975 
L 922 459 
L 3084 459 
L 3084 0 
L 275 0 
L 275 525 
L 2438 3041 
L 353 3041 
L 353 3500 
z
" transform="scale(0.015625)"/>
       <path id="DejaVuSans-64" d="M 2906 2969 
L 2906 4863 
L 3481 4863 
L 3481 0 
L 2906 0 
L 2906 525 
Q 2725 213 2448 61 
Q 2172 -91 1784 -91 
Q 1150 -91 751 415 
Q 353 922 353 1747 
Q 353 2572 751 3078 
Q 1150 3584 1784 3584 
Q 2172 3584 2448 3432 
Q 2725 3281 2906 2969 
z
M 947 1747 
Q 947 1113 1208 752 
Q 1469 391 1925 391 
Q 2381 391 2643 752 
Q 2906 1113 2906 1747 
Q 2906 2381 2643 2742 
Q 2381 3103 1925 3103 
Q 1469 3103 1208 2742 
Q 947 2381 947 1747 
z
" transform="scale(0.015625)"/>
      </defs>
      <use xlink:href="#DejaVuSans-4e"/>
      <use xlink:href="#DejaVuSans-6f" x="74.804688"/>
      <use xlink:href="#DejaVuSans-72" x="135.986328"/>
      <use xlink:href="#DejaVuSans-6d" x="175.349609"/>
      <use xlink:href="#DejaVuSans-61" x="272.761719"/>
      <use xlink:href="#DejaVuSans-6c" x="334.041016"/>
      <use xlink:href="#DejaVuSans-69" x="361.824219"/>
      <use xlink:href="#DejaVuSans-7a" x="389.607422"/>
      <use xlink:href="#DejaVuSans-65" x="442.097656"/>
      <use xlink:href="#DejaVuSans-64" x="503.621094"/>
     </g>
    </g>
   </g>
   <g id="line2d_75">
    <path d="M 2227.395781 199.784899 
L 2632.395781 199.784899 
" clip-path="url(#p69d5aca54e)" style="fill: none; stroke: #d3d3d3; stroke-opacity: 0.8; stroke-width: 1.5; stroke-linecap: square"/>
   </g>
   <g id="line2d_76">
    <path d="M 2227.395781 199.784899 
L 2237.520781 199.784899 
L 2238.195781 200.203769 
L 2238.870781 200.882141 
L 2240.220781 202.734491 
L 2241.570781 204.918962 
L 2242.920781 207.420775 
L 2244.945781 211.76278 
L 2246.970781 216.805795 
L 2248.995781 222.544237 
L 2264.520781 268.075459 
L 2265.870781 270.755846 
L 2267.220781 272.713425 
L 2268.570781 274.067486 
L 2269.920781 275.092094 
L 2271.270781 275.806383 
L 2272.620781 276.211995 
L 2273.970781 276.31 
L 2275.320781 276.101282 
L 2276.670781 275.58657 
L 2278.020781 274.766469 
L 2279.370781 273.641479 
L 2280.720781 272.212011 
L 2282.070781 270.478408 
L 2283.420781 268.440951 
L 2284.770781 266.099872 
L 2286.795781 262.019381 
L 2288.820781 257.256684 
L 2290.845781 251.812171 
L 2300.970781 221.99099 
L 2326.620781 146.519425 
L 2327.970781 143.68204 
L 2329.320781 141.593338 
L 2330.670781 140.086416 
L 2332.020781 138.890628 
L 2333.370781 138.002526 
L 2334.720781 137.420818 
L 2336.070781 137.144833 
L 2339.445781 137.121309 
L 2363.070781 137.015594 
L 2363.745781 136.887904 
L 2364.420781 136.622841 
L 2365.095781 136.177374 
L 2365.770781 135.507204 
L 2367.120781 133.65993 
L 2368.470781 131.318474 
L 2370.495781 127.221499 
L 2372.520781 122.427784 
L 2374.545781 116.941892 
L 2394.120781 59.728635 
L 2395.470781 56.692412 
L 2396.820781 54.282037 
L 2398.170781 52.536892 
L 2399.520781 51.314004 
L 2400.870781 50.414447 
L 2402.220781 49.822656 
L 2403.570781 49.537684 
L 2404.920781 49.558734 
L 2406.270781 49.885141 
L 2407.620781 50.516349 
L 2408.970781 51.451883 
L 2410.320781 52.691339 
L 2411.670781 54.234369 
L 2413.020781 56.080669 
L 2414.370781 58.229965 
L 2415.720781 60.682021 
L 2417.745781 64.925243 
L 2419.770781 69.306534 
L 2420.445781 70.60792 
L 2421.795781 72.434884 
L 2423.145781 73.660042 
L 2423.820781 74.061336 
L 2424.495781 74.326535 
L 2425.170781 74.457719 
L 2425.845781 74.457719 
L 2425.845781 74.457719 
" clip-path="url(#p69d5aca54e)" style="fill: none; stroke: #e41a1c; stroke-width: 5; stroke-linecap: square"/>
   </g>
   <g id="line2d_77">
    <path d="M 2227.395781 199.784899 
L 2238.870781 199.866987 
L 2241.570781 200.223246 
L 2244.270781 200.787658 
L 2246.970781 201.6026 
L 2249.670781 202.699718 
L 2253.045781 204.311988 
L 2256.420781 206.148184 
L 2259.795781 208.208306 
L 2265.870781 212.093024 
L 2267.220781 212.608179 
L 2269.245781 213.130642 
L 2271.270781 213.47211 
L 2273.295781 213.62012 
L 2275.320781 213.557 
L 2277.345781 213.264937 
L 2279.370781 212.726 
L 2281.395781 211.922169 
L 2283.420781 210.835344 
L 2285.445781 209.447368 
L 2287.470781 207.740035 
L 2289.495781 205.695101 
L 2291.520781 203.294292 
L 2295.570781 198.000674 
L 2299.620781 192.384603 
L 2304.345781 185.424972 
L 2309.070781 178.026447 
L 2313.795781 170.189026 
L 2318.520781 161.91271 
L 2323.245781 153.197497 
L 2326.620781 146.792672 
L 2327.970781 144.89629 
L 2329.320781 143.481522 
L 2330.670781 142.447145 
L 2332.020781 141.615604 
L 2333.370781 140.990072 
L 2334.720781 140.57517 
L 2336.070781 140.375929 
L 2340.795781 140.358773 
L 2363.070781 140.263114 
L 2363.745781 140.146997 
L 2364.420781 139.904761 
L 2365.095781 139.495654 
L 2365.770781 138.877166 
L 2367.120781 137.159521 
L 2368.470781 134.961567 
L 2369.820781 132.446693 
L 2371.845781 128.071479 
L 2373.870781 122.960239 
L 2376.570781 115.192435 
L 2382.645781 96.995446 
L 2388.720781 78.071024 
L 2394.120781 61.102189 
L 2395.470781 57.705864 
L 2396.820781 54.988016 
L 2398.170781 53.004642 
L 2399.520781 51.603758 
L 2400.870781 50.565189 
L 2402.220781 49.876677 
L 2403.570781 49.542653 
L 2404.920781 49.5677 
L 2406.270781 49.956539 
L 2407.620781 50.713999 
L 2408.970781 51.844995 
L 2410.320781 53.354518 
L 2411.670781 55.247611 
L 2413.020781 57.529364 
L 2414.370781 60.204901 
L 2415.720781 63.27938 
L 2417.070781 66.757977 
L 2420.445781 75.924619 
L 2421.795781 78.288874 
L 2422.470781 79.17946 
L 2423.145781 79.885283 
L 2423.820781 80.410994 
L 2424.495781 80.75961 
L 2425.170781 80.932647 
L 2425.845781 80.932647 
L 2425.845781 80.932647 
" clip-path="url(#p69d5aca54e)" style="fill: none; stroke: #377eb8; stroke-width: 5; stroke-linecap: square"/>
   </g>
   <g id="line2d_78">
    <path d="M 2227.395781 199.784899 
L 2243.595781 199.875529 
L 2248.995781 200.139975 
L 2254.395781 200.632535 
L 2259.120781 201.257673 
L 2263.845781 202.096387 
L 2266.545781 202.500913 
L 2269.920781 202.779808 
L 2273.970781 202.900354 
L 2277.345781 202.76638 
L 2280.045781 202.460328 
L 2282.745781 201.938978 
L 2285.445781 201.163864 
L 2288.145781 200.093798 
L 2290.170781 199.071375 
L 2292.870781 197.416913 
L 2296.245781 195.114767 
L 2299.620781 192.576699 
L 2302.995781 189.791199 
L 2306.370781 186.74676 
L 2309.745781 183.431872 
L 2313.120781 179.835028 
L 2316.495781 175.944719 
L 2319.870781 171.749438 
L 2323.245781 167.237673 
L 2327.295781 161.691835 
L 2328.645781 160.429455 
L 2329.995781 159.500697 
L 2332.020781 158.453511 
L 2333.370781 157.950522 
L 2334.720781 157.612683 
L 2336.070781 157.448475 
L 2341.470781 157.434191 
L 2363.070781 157.335374 
L 2363.745781 157.214826 
L 2364.420781 156.962103 
L 2365.095781 156.533181 
L 2365.770781 155.881559 
L 2367.120781 154.058263 
L 2368.470781 151.702819 
L 2369.820781 148.981923 
L 2371.170781 145.884752 
L 2373.195781 140.509037 
L 2375.220781 134.222396 
L 2379.270781 120.567044 
L 2383.320781 106.160562 
L 2387.370781 90.986915 
L 2391.420781 75.029789 
L 2394.120781 64.525386 
L 2395.470781 60.188225 
L 2396.820781 56.689689 
L 2398.170781 54.116341 
L 2399.520781 52.284287 
L 2400.870781 50.915415 
L 2402.220781 50.000933 
L 2403.570781 49.553967 
L 2404.245781 49.51 
L 2404.920781 49.587991 
L 2405.595781 49.789673 
L 2406.270781 50.116801 
L 2407.620781 51.15449 
L 2408.970781 52.715421 
L 2410.320781 54.814208 
L 2411.670781 57.465697 
L 2413.020781 60.684955 
L 2414.370781 64.487252 
L 2415.720781 68.888067 
L 2417.070781 73.90306 
L 2420.445781 87.279856 
L 2421.795781 90.772698 
L 2422.470781 92.095469 
L 2423.145781 93.147443 
L 2423.820781 93.933676 
L 2424.495781 94.456843 
L 2425.170781 94.717409 
L 2425.845781 94.717409 
L 2425.845781 94.717409 
" clip-path="url(#p69d5aca54e)" style="fill: none; stroke: #4daf4a; stroke-width: 5; stroke-linecap: square"/>
   </g>
   <g id="line2d_79">
    <path d="M 2227.395781 199.784899 
L 2632.395781 199.784899 
" clip-path="url(#p69d5aca54e)" style="fill: none; stroke: #000000; stroke-opacity: 0.5; stroke-linecap: square"/>
   </g>
   <g id="line2d_80">
    <path d="M 2227.395781 199.784899 
L 2632.395781 199.784899 
" clip-path="url(#p69d5aca54e)" style="fill: none; stroke: #000000; stroke-width: 5; stroke-linecap: square"/>
   </g>
   <g id="patch_18">
    <path d="M 2227.395781 287.65 
L 2227.395781 38.17 
" style="fill: none; stroke: #000000; stroke-width: 0.8; stroke-linejoin: miter; stroke-linecap: square"/>
   </g>
   <g id="patch_19">
    <path d="M 2227.395781 287.65 
L 2632.395781 287.65 
" style="fill: none; stroke: #000000; stroke-width: 0.8; stroke-linejoin: miter; stroke-linecap: square"/>
   </g>
   <g id="text_66">
    <!-- Moments -->
    <g transform="translate(2356.123281 31.515) scale(0.32 -0.32)">
     <defs>
      <path id="DejaVuSans-4d" d="M 628 4666 
L 1569 4666 
L 2759 1491 
L 3956 4666 
L 4897 4666 
L 4897 0 
L 4281 0 
L 4281 4097 
L 3078 897 
L 2444 897 
L 1241 4097 
L 1241 0 
L 628 0 
L 628 4666 
z
" transform="scale(0.015625)"/>
     </defs>
     <use xlink:href="#DejaVuSans-4d"/>
     <use xlink:href="#DejaVuSans-6f" x="86.279297"/>
     <use xlink:href="#DejaVuSans-6d" x="147.460938"/>
     <use xlink:href="#DejaVuSans-65" x="244.873047"/>
     <use xlink:href="#DejaVuSans-6e" x="306.396484"/>
     <use xlink:href="#DejaVuSans-74" x="369.775391"/>
     <use xlink:href="#DejaVuSans-73" x="408.984375"/>
    </g>
   </g>
   <g id="legend_4">
    <g id="patch_20">
     <path d="M 2513.616406 276.65 
L 2616.995781 276.65 
Q 2621.395781 276.65 2621.395781 272.25 
L 2621.395781 177.574375 
Q 2621.395781 173.174375 2616.995781 173.174375 
L 2513.616406 173.174375 
Q 2509.216406 173.174375 2509.216406 177.574375 
L 2509.216406 272.25 
Q 2509.216406 276.65 2513.616406 276.65 
z
" style="fill: #ffffff; opacity: 0.2; stroke: #cccccc; stroke-linejoin: miter"/>
    </g>
    <g id="line2d_81">
     <path d="M 2518.016406 190.990938 
L 2540.016406 190.990938 
L 2562.016406 190.990938 
" style="fill: none; stroke: #e41a1c; stroke-width: 5; stroke-linecap: square"/>
    </g>
    <g id="text_67">
     <!-- M0 -->
     <g transform="translate(2579.616406 198.690938) scale(0.22 -0.22)">
      <use xlink:href="#DejaVuSans-4d"/>
      <use xlink:href="#DejaVuSans-30" x="86.279297"/>
     </g>
    </g>
    <g id="line2d_82">
     <path d="M 2518.016406 223.282813 
L 2540.016406 223.282813 
L 2562.016406 223.282813 
" style="fill: none; stroke: #377eb8; stroke-width: 5; stroke-linecap: square"/>
    </g>
    <g id="text_68">
     <!-- M1 -->
     <g transform="translate(2579.616406 230.982813) scale(0.22 -0.22)">
      <use xlink:href="#DejaVuSans-4d"/>
      <use xlink:href="#DejaVuSans-31" x="86.279297"/>
     </g>
    </g>
    <g id="line2d_83">
     <path d="M 2518.016406 255.574688 
L 2540.016406 255.574688 
L 2562.016406 255.574688 
" style="fill: none; stroke: #4daf4a; stroke-width: 5; stroke-linecap: square"/>
    </g>
    <g id="text_69">
     <!-- M2 -->
     <g transform="translate(2579.616406 263.274688) scale(0.22 -0.22)">
      <use xlink:href="#DejaVuSans-4d"/>
      <use xlink:href="#DejaVuSans-32" x="86.279297"/>
     </g>
    </g>
   </g>
  </g>
 </g>
 <defs>
  <clipPath id="pbe2738800c">
   <rect x="121.395781" y="38.17" width="405" height="249.48"/>
  </clipPath>
  <clipPath id="p152a612cd3">
   <rect x="647.895781" y="38.17" width="405" height="249.48"/>
  </clipPath>
  <clipPath id="pa22deb301d">
   <rect x="1174.395781" y="38.17" width="405" height="249.48"/>
  </clipPath>
  <clipPath id="p8a5d6c2ffd">
   <rect x="1700.895781" y="38.17" width="405" height="249.48"/>
  </clipPath>
  <clipPath id="p69d5aca54e">
   <rect x="2227.395781" y="38.17" width="405" height="249.48"/>
  </clipPath>
 </defs>
</svg>
