<?xml version="1.0" encoding="utf-8" standalone="no"?>
<!DOCTYPE svg PUBLIC "-//W3C//DTD SVG 1.1//EN"
  "http://www.w3.org/Graphics/SVG/1.1/DTD/svg11.dtd">
<svg xmlns:xlink="http://www.w3.org/1999/xlink" width="2137.395781pt" height="361.015312pt" viewBox="0 0 2137.395781 361.015312" xmlns="http://www.w3.org/2000/svg" version="1.1">
 <metadata>
  <rdf:RDF xmlns:dc="http://purl.org/dc/elements/1.1/" xmlns:cc="http://creativecommons.org/ns#" xmlns:rdf="http://www.w3.org/1999/02/22-rdf-syntax-ns#">
   <cc:Work>
    <dc:type rdf:resource="http://purl.org/dc/dcmitype/StillImage"/>
    <dc:date>2026-01-06T16:25:55.647798</dc:date>
    <dc:format>image/svg+xml</dc:format>
    <dc:creator>
     <cc:Agent>
      <dc:title>Matplotlib v3.9.0, https://matplotlib.org/</dc:title>
     </cc:Agent>
    </dc:creator>
   </cc:Work>
  </rdf:RDF>
 </metadata>
 <defs>
  <style type="text/css">*{stroke-linejoin: round; stroke-linecap: butt}</style>
 </defs>
 <g id="figure_1">
  <g id="patch_1">
   <path d="M 0 361.015312 
L 2137.395781 361.015312 
L 2137.395781 0 
L 0 0 
z
" style="fill: #ffffff"/>
  </g>
  <g id="axes_1">
   <g id="patch_2">
    <path d="M 121.395781 287.65 
L 531.354965 287.65 
L 531.354965 38.17 
L 121.395781 38.17 
z
" style="fill: #ffffff"/>
   </g>
   <g id="PolyCollection_1">
    <defs>
     <path id="m6e93e6ca63" d="M 121.395781 -198.105312 
L 121.395781 -198.105312 
L 122.141162 -198.105312 
L 122.886542 -198.105312 
L 123.631922 -198.105312 
L 124.377303 -198.105312 
L 125.122683 -198.105312 
L 125.868063 -198.105312 
L 126.613444 -198.105312 
L 127.358824 -198.105312 
L 128.104204 -198.105312 
L 128.849585 -198.105312 
L 129.594965 -198.105312 
L 130.340345 -198.105312 
L 131.085726 -198.105312 
L 131.831106 -198.105312 
L 132.576486 -198.105312 
L 133.321867 -198.105312 
L 134.067247 -198.105312 
L 134.812627 -198.105312 
L 135.558008 -198.105312 
L 136.303388 -198.105312 
L 137.048768 -198.105312 
L 137.794149 -198.105312 
L 138.539529 -198.105312 
L 139.284909 -198.105312 
L 140.03029 -198.105312 
L 140.77567 -198.105312 
L 141.52105 -198.105312 
L 142.266431 -198.105312 
L 143.011811 -198.105312 
L 143.757191 -198.105312 
L 144.502572 -198.105312 
L 145.247952 -198.105312 
L 145.993332 -198.105312 
L 146.738713 -198.105312 
L 147.484093 -198.105312 
L 148.229473 -198.105312 
L 148.974854 -198.105312 
L 149.720234 -198.105312 
L 150.465614 -198.105312 
L 151.210995 -198.105312 
L 151.956375 -198.105312 
L 152.701755 -198.105312 
L 153.447136 -198.105312 
L 154.192516 -198.105312 
L 154.937896 -198.105312 
L 155.683277 -198.105312 
L 156.428657 -198.105312 
L 157.174037 -198.105312 
L 157.919418 -198.105312 
L 158.664798 -198.105312 
L 159.410178 -198.105312 
L 160.155559 -198.105312 
L 160.900939 -198.105312 
L 161.646319 -198.105312 
L 162.3917 -198.105312 
L 163.13708 -198.105312 
L 163.88246 -198.105312 
L 164.627841 -198.105312 
L 165.373221 -198.105312 
L 166.118601 -198.105312 
L 166.863982 -198.105312 
L 167.609362 -198.105312 
L 168.354742 -198.105312 
L 169.100123 -198.105312 
L 169.845503 -198.105312 
L 170.590883 -198.105312 
L 171.336264 -198.105312 
L 172.081644 -198.105312 
L 172.827024 -198.105312 
L 173.572405 -198.105312 
L 174.317785 -198.105312 
L 175.063165 -198.105312 
L 175.808546 -198.105312 
L 176.553926 -198.105312 
L 177.299306 -198.105312 
L 178.044687 -198.105312 
L 178.790067 -198.105312 
L 179.535447 -198.105312 
L 180.280828 -198.105312 
L 181.026208 -198.105312 
L 181.771588 -198.105312 
L 182.516969 -198.105312 
L 183.262349 -198.105312 
L 184.007729 -198.105312 
L 184.75311 -198.105312 
L 185.49849 -198.105312 
L 186.24387 -198.105312 
L 186.989251 -198.105312 
L 187.734631 -198.105312 
L 188.480011 -198.105312 
L 189.225392 -198.105312 
L 189.970772 -198.105312 
L 190.716152 -198.105312 
L 191.461533 -198.105312 
L 192.206913 -198.105312 
L 192.952293 -198.105312 
L 193.697674 -198.105312 
L 194.443054 -198.105312 
L 195.188434 -198.105312 
L 195.933815 -198.105312 
L 196.679195 -198.105312 
L 197.424575 -198.105312 
L 198.169956 -198.105312 
L 198.915336 -198.105312 
L 199.660716 -198.105312 
L 200.406097 -198.105312 
L 201.151477 -198.105312 
L 201.896857 -198.105312 
L 202.642238 -198.105312 
L 203.387618 -198.105312 
L 204.132998 -198.105312 
L 204.878379 -198.105312 
L 205.623759 -198.105312 
L 206.369139 -198.105312 
L 207.11452 -198.105312 
L 207.8599 -198.105312 
L 208.60528 -198.105312 
L 209.350661 -198.105312 
L 210.096041 -198.105312 
L 210.841421 -198.105312 
L 211.586802 -198.105312 
L 212.332182 -198.105312 
L 213.077562 -198.105312 
L 213.822943 -198.105312 
L 214.568323 -198.105312 
L 215.313703 -198.105312 
L 216.059084 -198.105312 
L 216.804464 -198.105312 
L 217.549844 -198.105312 
L 218.295225 -198.105312 
L 219.040605 -198.105312 
L 219.785985 -198.105312 
L 220.531366 -198.105312 
L 221.276746 -198.105312 
L 222.022126 -198.105312 
L 222.767507 -198.105312 
L 223.512887 -198.105312 
L 224.258267 -198.105312 
L 225.003648 -198.105312 
L 225.749028 -198.105312 
L 226.494408 -198.105312 
L 227.239789 -198.105312 
L 227.985169 -198.105312 
L 228.730549 -198.105312 
L 229.47593 -198.105312 
L 230.22131 -198.105312 
L 230.96669 -198.105312 
L 231.712071 -198.105312 
L 232.457451 -198.105312 
L 233.202831 -198.105312 
L 233.948212 -198.105312 
L 234.693592 -198.105312 
L 235.438972 -198.105312 
L 236.184353 -198.105312 
L 236.929733 -198.105312 
L 237.675113 -198.105312 
L 238.420494 -198.105312 
L 239.165874 -198.105312 
L 239.911254 -198.105312 
L 240.656635 -198.105312 
L 241.402015 -198.105312 
L 242.147395 -198.105312 
L 242.892776 -198.105312 
L 243.638156 -198.105312 
L 244.383536 -198.105312 
L 245.128917 -198.105312 
L 245.874297 -198.105312 
L 246.619677 -198.105312 
L 247.365058 -198.105312 
L 248.110438 -198.105312 
L 248.855818 -198.105312 
L 249.601199 -198.105312 
L 250.346579 -198.105312 
L 251.091959 -198.105312 
L 251.83734 -198.105312 
L 252.58272 -198.105312 
L 253.3281 -198.105312 
L 254.073481 -198.105312 
L 254.818861 -198.105312 
L 255.564241 -198.105312 
L 256.309622 -198.105312 
L 257.055002 -198.105312 
L 257.800382 -198.105312 
L 258.545763 -198.105312 
L 259.291143 -198.105312 
L 260.036523 -198.105312 
L 260.781904 -198.105312 
L 261.527284 -198.105312 
L 262.272664 -198.105312 
L 263.018045 -198.105312 
L 263.763425 -198.105312 
L 264.508805 -198.105312 
L 265.254186 -198.105312 
L 265.999566 -198.105312 
L 266.744946 -198.105312 
L 267.490327 -198.105312 
L 268.235707 -198.105312 
L 268.981087 -198.105312 
L 269.726468 -198.105312 
L 270.471848 -198.105312 
L 271.217228 -198.105312 
L 271.962609 -198.105312 
L 272.707989 -198.105312 
L 273.453369 -198.105312 
L 274.19875 -198.105312 
L 274.94413 -198.105312 
L 275.68951 -198.105312 
L 276.434891 -198.105312 
L 277.180271 -198.105312 
L 277.925651 -198.105312 
L 278.671032 -198.105312 
L 279.416412 -198.105312 
L 280.161792 -198.105312 
L 280.907173 -198.105312 
L 281.652553 -198.105312 
L 282.397933 -198.105312 
L 283.143314 -198.105312 
L 283.888694 -198.105312 
L 284.634074 -198.105312 
L 285.379455 -198.105312 
L 286.124835 -198.105312 
L 286.870215 -198.105312 
L 287.615596 -198.105312 
L 288.360976 -198.105312 
L 289.106356 -198.105312 
L 289.851737 -198.105312 
L 290.597117 -198.105312 
L 291.342497 -198.105312 
L 292.087878 -198.105312 
L 292.833258 -198.105312 
L 293.578638 -198.105312 
L 294.324019 -198.105312 
L 295.069399 -198.105312 
L 295.814779 -198.105312 
L 296.56016 -198.105312 
L 297.30554 -198.105312 
L 298.05092 -198.105312 
L 298.796301 -198.105312 
L 299.541681 -198.105312 
L 300.287061 -198.105312 
L 301.032442 -198.105312 
L 301.777822 -198.105312 
L 302.523202 -198.105312 
L 303.268583 -198.105312 
L 304.013963 -198.105312 
L 304.759343 -198.105312 
L 305.504724 -198.105312 
L 306.250104 -198.105312 
L 306.995484 -198.105312 
L 307.740865 -198.105312 
L 308.486245 -198.105312 
L 309.231625 -198.105312 
L 309.977006 -198.105312 
L 310.722386 -198.105312 
L 311.467766 -198.105312 
L 312.213147 -198.105312 
L 312.958527 -198.105312 
L 313.703907 -198.105312 
L 314.449288 -198.105312 
L 315.194668 -198.105312 
L 315.940048 -198.105312 
L 316.685429 -198.105312 
L 317.430809 -198.105312 
L 318.176189 -198.105312 
L 318.92157 -198.105312 
L 319.66695 -198.105312 
L 320.41233 -198.105312 
L 321.157711 -198.105312 
L 321.903091 -198.105312 
L 322.648471 -198.105312 
L 323.393852 -198.105312 
L 324.139232 -198.105312 
L 324.884612 -198.105312 
L 325.629993 -198.105312 
L 326.375373 -198.105312 
L 327.120753 -198.105312 
L 327.866134 -198.105312 
L 328.611514 -198.105312 
L 329.356894 -198.105312 
L 330.102275 -198.105312 
L 330.847655 -198.105312 
L 331.593035 -198.105312 
L 332.338416 -198.105312 
L 332.338416 -198.105312 
L 332.338416 -198.105312 
L 331.593035 -188.42859 
L 330.847655 -178.545105 
L 330.102275 -168.400745 
L 329.356894 -157.921578 
L 328.611514 -147.006919 
L 327.866134 -135.519211 
L 327.120753 -118.674893 
L 326.375373 -98.029957 
L 325.629993 -96.330058 
L 324.884612 -96.330022 
L 324.139232 -96.459796 
L 323.393852 -101.862314 
L 322.648471 -107.266323 
L 321.903091 -112.671911 
L 321.157711 -118.079221 
L 320.41233 -123.488533 
L 319.66695 -128.89992 
L 318.92157 -134.313667 
L 318.176189 -139.730012 
L 317.430809 -145.149181 
L 316.685429 -150.571428 
L 315.940048 -155.99709 
L 315.194668 -161.426583 
L 314.449288 -166.86018 
L 313.703907 -172.298352 
L 312.958527 -177.741462 
L 312.213147 -183.190198 
L 311.467766 -188.644898 
L 310.722386 -194.106338 
L 309.977006 -199.575011 
L 309.231625 -205.051779 
L 308.486245 -210.537378 
L 307.740865 -216.032788 
L 306.995484 -221.538828 
L 306.250104 -229.468541 
L 305.504724 -240.885194 
L 304.759343 -253.408808 
L 304.013963 -266.753984 
L 303.268583 -280.533317 
L 302.523202 -294.054901 
L 301.777822 -306.313539 
L 301.032442 -314.364582 
L 300.287061 -314.839491 
L 299.541681 -314.839558 
L 298.796301 -314.839597 
L 298.05092 -314.83959 
L 297.30554 -314.83958 
L 296.56016 -314.839633 
L 295.814779 -314.839574 
L 295.069399 -314.839602 
L 294.324019 -314.839617 
L 293.578638 -314.839575 
L 292.833258 -314.83962 
L 292.087878 -314.839586 
L 291.342497 -314.839587 
L 290.597117 -314.839615 
L 289.851737 -314.839598 
L 289.106356 -314.839581 
L 288.360976 -314.8396 
L 287.615596 -314.839594 
L 286.870215 -314.839595 
L 286.124835 -314.839581 
L 285.379455 -314.839606 
L 284.634074 -314.839591 
L 283.888694 -314.839614 
L 283.143314 -314.839617 
L 282.397933 -314.839603 
L 281.652553 -314.839613 
L 280.907173 -314.839605 
L 280.161792 -314.839604 
L 279.416412 -314.839625 
L 278.671032 -314.839601 
L 277.925651 -314.839621 
L 277.180271 -314.839583 
L 276.434891 -313.82317 
L 275.68951 -308.312843 
L 274.94413 -302.790002 
L 274.19875 -297.253313 
L 273.453369 -291.701378 
L 272.707989 -286.132567 
L 271.962609 -280.361253 
L 271.217228 -273.083644 
L 270.471848 -262.686963 
L 269.726468 -250.017981 
L 268.981087 -235.310302 
L 268.235707 -218.76989 
L 267.490327 -213.431723 
L 266.744946 -213.431712 
L 265.999566 -198.105312 
L 265.254186 -198.105312 
L 264.508805 -198.105312 
L 263.763425 -198.105312 
L 263.018045 -198.105312 
L 262.272664 -198.105312 
L 261.527284 -198.105312 
L 260.781904 -198.105312 
L 260.036523 -198.105312 
L 259.291143 -198.105312 
L 258.545763 -198.105312 
L 257.800382 -198.105312 
L 257.055002 -198.105312 
L 256.309622 -198.105312 
L 255.564241 -198.105312 
L 254.818861 -198.105312 
L 254.073481 -198.105312 
L 253.3281 -198.105312 
L 252.58272 -198.105312 
L 251.83734 -198.105312 
L 251.091959 -198.105312 
L 250.346579 -198.105312 
L 249.601199 -198.105312 
L 248.855818 -198.105312 
L 248.110438 -198.105312 
L 247.365058 -198.105312 
L 246.619677 -198.105312 
L 245.874297 -198.105312 
L 245.128917 -198.105312 
L 244.383536 -198.105312 
L 243.638156 -198.105312 
L 242.892776 -198.105312 
L 242.147395 -198.105312 
L 241.402015 -198.105312 
L 240.656635 -198.105312 
L 239.911254 -198.105312 
L 239.165874 -198.105312 
L 238.420494 -198.105705 
L 237.675113 -199.370067 
L 236.929733 -204.828355 
L 236.184353 -210.293215 
L 235.438972 -215.765943 
L 234.693592 -221.247414 
L 233.948212 -226.738225 
L 233.202831 -233.863758 
L 232.457451 -246.274545 
L 231.712071 -259.18108 
L 230.96669 -272.723021 
L 230.22131 -294.497233 
L 229.47593 -313.281436 
L 228.730549 -314.838191 
L 227.985169 -314.838869 
L 227.239789 -314.839469 
L 226.494408 -314.839487 
L 225.749028 -314.839674 
L 225.003648 -314.839489 
L 224.258267 -314.839763 
L 223.512887 -314.83955 
L 222.767507 -314.839568 
L 222.022126 -314.839675 
L 221.276746 -314.839711 
L 220.531366 -314.839522 
L 219.785985 -314.839674 
L 219.040605 -314.839546 
L 218.295225 -314.83967 
L 217.549844 -314.839614 
L 216.804464 -314.839593 
L 216.059084 -314.839601 
L 215.313703 -314.839601 
L 214.568323 -314.839651 
L 213.822943 -314.839574 
L 213.077562 -314.839649 
L 212.332182 -314.839615 
L 211.586802 -314.83962 
L 210.841421 -314.839551 
L 210.096041 -314.839587 
L 209.350661 -314.839586 
L 208.60528 -314.839652 
L 207.8599 -314.839561 
L 207.11452 -314.839631 
L 206.369139 -314.839558 
L 205.623759 -314.839643 
L 204.878379 -314.839645 
L 204.132998 -314.839595 
L 203.387618 -314.839593 
L 202.642238 -314.839596 
L 201.896857 -314.839629 
L 201.151477 -314.839595 
L 200.406097 -314.839615 
L 199.660716 -314.839627 
L 198.915336 -314.839617 
L 198.169956 -314.839626 
L 197.424575 -314.839621 
L 196.679195 -314.839604 
L 195.933815 -314.839806 
L 195.188434 -314.839403 
L 194.443054 -314.839676 
L 193.697674 -314.839521 
L 192.952293 -314.839678 
L 192.206913 -314.839645 
L 191.461533 -314.839616 
L 190.716152 -314.839611 
L 189.970772 -314.839599 
L 189.225392 -314.839728 
L 188.480011 -314.839464 
L 187.734631 -314.839706 
L 186.989251 -314.839462 
L 186.24387 -311.736824 
L 185.49849 -306.335047 
L 184.75311 -300.931787 
L 184.007729 -295.527035 
L 183.262349 -290.12063 
L 182.516969 -284.71232 
L 181.771588 -279.302051 
L 181.026208 -273.889469 
L 180.280828 -268.474401 
L 179.535447 -263.056694 
L 178.790067 -257.636148 
L 178.044687 -252.212122 
L 177.299306 -246.784454 
L 176.553926 -241.353112 
L 175.808546 -235.917112 
L 175.063165 -230.476535 
L 174.317785 -225.030672 
L 173.572405 -219.578964 
L 172.827024 -214.120872 
L 172.081644 -208.655814 
L 171.336264 -203.183084 
L 170.590883 -197.701921 
L 169.845503 -192.211454 
L 169.100123 -186.710614 
L 168.354742 -181.198633 
L 167.609362 -175.67417 
L 166.863982 -170.059905 
L 166.118601 -157.751741 
L 165.373221 -144.996185 
L 164.627841 -131.673434 
L 163.88246 -113.479222 
L 163.13708 -95.122862 
L 162.3917 -82.741086 
L 161.646319 -81.371157 
L 160.900939 -81.371015 
L 160.155559 -81.371037 
L 159.410178 -81.370999 
L 158.664798 -81.370996 
L 157.919418 -81.370964 
L 157.174037 -81.371033 
L 156.428657 -81.371006 
L 155.683277 -81.371025 
L 154.937896 -81.371008 
L 154.192516 -81.37103 
L 153.447136 -81.371058 
L 152.701755 -81.371044 
L 151.956375 -81.371043 
L 151.210995 -81.371052 
L 150.465614 -81.371063 
L 149.720234 -81.371061 
L 148.974854 -81.371077 
L 148.229473 -81.371069 
L 147.484093 -81.371074 
L 146.738713 -81.371071 
L 145.993332 -81.371108 
L 145.247952 -81.371075 
L 144.502572 -81.3711 
L 143.757191 -81.371078 
L 143.011811 -81.371041 
L 142.266431 -81.370953 
L 141.52105 -84.479373 
L 140.77567 -90.027557 
L 140.03029 -95.592597 
L 139.284909 -101.176161 
L 138.539529 -106.780145 
L 137.794149 -112.406788 
L 137.048768 -118.058495 
L 136.303388 -123.737893 
L 135.558008 -129.447789 
L 134.812627 -137.496919 
L 134.067247 -151.990404 
L 133.321867 -173.529655 
L 132.576486 -198.105312 
L 131.831106 -198.105312 
L 131.085726 -198.105312 
L 130.340345 -198.105312 
L 129.594965 -198.105312 
L 128.849585 -198.105312 
L 128.104204 -198.105312 
L 127.358824 -198.105312 
L 126.613444 -198.105312 
L 125.868063 -198.105312 
L 125.122683 -198.105312 
L 124.377303 -198.105312 
L 123.631922 -198.105312 
L 122.886542 -198.105312 
L 122.141162 -198.105312 
L 121.395781 -198.105312 
z
" style="stroke: #0173b2; stroke-opacity: 0.75"/>
    </defs>
    <g clip-path="url(#p81a5eca45b)">
     <use xlink:href="#m6e93e6ca63" x="0" y="361.015312" style="fill: #0173b2; fill-opacity: 0.75; stroke: #0173b2; stroke-opacity: 0.75"/>
    </g>
   </g>
   <g id="matplotlib.axis_1">
    <g id="xtick_1">
     <g id="line2d_1">
      <defs>
       <path id="m95089b6038" d="M 0 0 
L 0 3.5 
" style="stroke: #000000; stroke-width: 0.8"/>
      </defs>
      <g>
       <use xlink:href="#m95089b6038" x="121.395781" y="287.65" style="stroke: #000000; stroke-width: 0.8"/>
      </g>
     </g>
     <g id="text_1">
      <!-- 0 -->
      <g transform="translate(112.806406 315.165781) scale(0.27 -0.27)">
       <defs>
        <path id="DejaVuSans-30" d="M 2034 4250 
Q 1547 4250 1301 3770 
Q 1056 3291 1056 2328 
Q 1056 1369 1301 889 
Q 1547 409 2034 409 
Q 2525 409 2770 889 
Q 3016 1369 3016 2328 
Q 3016 3291 2770 3770 
Q 2525 4250 2034 4250 
z
M 2034 4750 
Q 2819 4750 3233 4129 
Q 3647 3509 3647 2328 
Q 3647 1150 3233 529 
Q 2819 -91 2034 -91 
Q 1250 -91 836 529 
Q 422 1150 422 2328 
Q 422 3509 836 4129 
Q 1250 4750 2034 4750 
z
" transform="scale(0.015625)"/>
       </defs>
       <use xlink:href="#DejaVuSans-30"/>
      </g>
     </g>
    </g>
    <g id="xtick_2">
     <g id="line2d_2">
      <g>
       <use xlink:href="#m95089b6038" x="214.568323" y="287.65" style="stroke: #000000; stroke-width: 0.8"/>
      </g>
     </g>
     <g id="text_2">
      <!-- 25 -->
      <g transform="translate(197.389573 315.165781) scale(0.27 -0.27)">
       <defs>
        <path id="DejaVuSans-32" d="M 1228 531 
L 3431 531 
L 3431 0 
L 469 0 
L 469 531 
Q 828 903 1448 1529 
Q 2069 2156 2228 2338 
Q 2531 2678 2651 2914 
Q 2772 3150 2772 3378 
Q 2772 3750 2511 3984 
Q 2250 4219 1831 4219 
Q 1534 4219 1204 4116 
Q 875 4013 500 3803 
L 500 4441 
Q 881 4594 1212 4672 
Q 1544 4750 1819 4750 
Q 2544 4750 2975 4387 
Q 3406 4025 3406 3419 
Q 3406 3131 3298 2873 
Q 3191 2616 2906 2266 
Q 2828 2175 2409 1742 
Q 1991 1309 1228 531 
z
" transform="scale(0.015625)"/>
        <path id="DejaVuSans-35" d="M 691 4666 
L 3169 4666 
L 3169 4134 
L 1269 4134 
L 1269 2991 
Q 1406 3038 1543 3061 
Q 1681 3084 1819 3084 
Q 2600 3084 3056 2656 
Q 3513 2228 3513 1497 
Q 3513 744 3044 326 
Q 2575 -91 1722 -91 
Q 1428 -91 1123 -41 
Q 819 9 494 109 
L 494 744 
Q 775 591 1075 516 
Q 1375 441 1709 441 
Q 2250 441 2565 725 
Q 2881 1009 2881 1497 
Q 2881 1984 2565 2268 
Q 2250 2553 1709 2553 
Q 1456 2553 1204 2497 
Q 953 2441 691 2322 
L 691 4666 
z
" transform="scale(0.015625)"/>
       </defs>
       <use xlink:href="#DejaVuSans-32"/>
       <use xlink:href="#DejaVuSans-35" x="63.623047"/>
      </g>
     </g>
    </g>
    <g id="xtick_3">
     <g id="line2d_3">
      <g>
       <use xlink:href="#m95089b6038" x="307.740865" y="287.65" style="stroke: #000000; stroke-width: 0.8"/>
      </g>
     </g>
     <g id="text_3">
      <!-- 50 -->
      <g transform="translate(290.562115 315.165781) scale(0.27 -0.27)">
       <use xlink:href="#DejaVuSans-35"/>
       <use xlink:href="#DejaVuSans-30" x="63.623047"/>
      </g>
     </g>
    </g>
    <g id="xtick_4">
     <g id="line2d_4">
      <g>
       <use xlink:href="#m95089b6038" x="400.913406" y="287.65" style="stroke: #000000; stroke-width: 0.8"/>
      </g>
     </g>
     <g id="text_4">
      <!-- 75 -->
      <g transform="translate(383.734656 315.165781) scale(0.27 -0.27)">
       <defs>
        <path id="DejaVuSans-37" d="M 525 4666 
L 3525 4666 
L 3525 4397 
L 1831 0 
L 1172 0 
L 2766 4134 
L 525 4134 
L 525 4666 
z
" transform="scale(0.015625)"/>
       </defs>
       <use xlink:href="#DejaVuSans-37"/>
       <use xlink:href="#DejaVuSans-35" x="63.623047"/>
      </g>
     </g>
    </g>
    <g id="xtick_5">
     <g id="line2d_5">
      <g>
       <use xlink:href="#m95089b6038" x="494.085948" y="287.65" style="stroke: #000000; stroke-width: 0.8"/>
      </g>
     </g>
     <g id="text_5">
      <!-- 100 -->
      <g transform="translate(468.317823 315.165781) scale(0.27 -0.27)">
       <defs>
        <path id="DejaVuSans-31" d="M 794 531 
L 1825 531 
L 1825 4091 
L 703 3866 
L 703 4441 
L 1819 4666 
L 2450 4666 
L 2450 531 
L 3481 531 
L 3481 0 
L 794 0 
L 794 531 
z
" transform="scale(0.015625)"/>
       </defs>
       <use xlink:href="#DejaVuSans-31"/>
       <use xlink:href="#DejaVuSans-30" x="63.623047"/>
       <use xlink:href="#DejaVuSans-30" x="127.246094"/>
      </g>
     </g>
    </g>
    <g id="text_6">
     <!-- Time [ms] -->
     <g transform="translate(250.777717 347.57625) scale(0.3 -0.3)">
      <defs>
       <path id="DejaVuSans-54" d="M -19 4666 
L 3928 4666 
L 3928 4134 
L 2272 4134 
L 2272 0 
L 1638 0 
L 1638 4134 
L -19 4134 
L -19 4666 
z
" transform="scale(0.015625)"/>
       <path id="DejaVuSans-69" d="M 603 3500 
L 1178 3500 
L 1178 0 
L 603 0 
L 603 3500 
z
M 603 4863 
L 1178 4863 
L 1178 4134 
L 603 4134 
L 603 4863 
z
" transform="scale(0.015625)"/>
       <path id="DejaVuSans-6d" d="M 3328 2828 
Q 3544 3216 3844 3400 
Q 4144 3584 4550 3584 
Q 5097 3584 5394 3201 
Q 5691 2819 5691 2113 
L 5691 0 
L 5113 0 
L 5113 2094 
Q 5113 2597 4934 2840 
Q 4756 3084 4391 3084 
Q 3944 3084 3684 2787 
Q 3425 2491 3425 1978 
L 3425 0 
L 2847 0 
L 2847 2094 
Q 2847 2600 2669 2842 
Q 2491 3084 2119 3084 
Q 1678 3084 1418 2786 
Q 1159 2488 1159 1978 
L 1159 0 
L 581 0 
L 581 3500 
L 1159 3500 
L 1159 2956 
Q 1356 3278 1631 3431 
Q 1906 3584 2284 3584 
Q 2666 3584 2933 3390 
Q 3200 3197 3328 2828 
z
" transform="scale(0.015625)"/>
       <path id="DejaVuSans-65" d="M 3597 1894 
L 3597 1613 
L 953 1613 
Q 991 1019 1311 708 
Q 1631 397 2203 397 
Q 2534 397 2845 478 
Q 3156 559 3463 722 
L 3463 178 
Q 3153 47 2828 -22 
Q 2503 -91 2169 -91 
Q 1331 -91 842 396 
Q 353 884 353 1716 
Q 353 2575 817 3079 
Q 1281 3584 2069 3584 
Q 2775 3584 3186 3129 
Q 3597 2675 3597 1894 
z
M 3022 2063 
Q 3016 2534 2758 2815 
Q 2500 3097 2075 3097 
Q 1594 3097 1305 2825 
Q 1016 2553 972 2059 
L 3022 2063 
z
" transform="scale(0.015625)"/>
       <path id="DejaVuSans-20" transform="scale(0.015625)"/>
       <path id="DejaVuSans-5b" d="M 550 4863 
L 1875 4863 
L 1875 4416 
L 1125 4416 
L 1125 -397 
L 1875 -397 
L 1875 -844 
L 550 -844 
L 550 4863 
z
" transform="scale(0.015625)"/>
       <path id="DejaVuSans-73" d="M 2834 3397 
L 2834 2853 
Q 2591 2978 2328 3040 
Q 2066 3103 1784 3103 
Q 1356 3103 1142 2972 
Q 928 2841 928 2578 
Q 928 2378 1081 2264 
Q 1234 2150 1697 2047 
L 1894 2003 
Q 2506 1872 2764 1633 
Q 3022 1394 3022 966 
Q 3022 478 2636 193 
Q 2250 -91 1575 -91 
Q 1294 -91 989 -36 
Q 684 19 347 128 
L 347 722 
Q 666 556 975 473 
Q 1284 391 1588 391 
Q 1994 391 2212 530 
Q 2431 669 2431 922 
Q 2431 1156 2273 1281 
Q 2116 1406 1581 1522 
L 1381 1569 
Q 847 1681 609 1914 
Q 372 2147 372 2553 
Q 372 3047 722 3315 
Q 1072 3584 1716 3584 
Q 2034 3584 2315 3537 
Q 2597 3491 2834 3397 
z
" transform="scale(0.015625)"/>
       <path id="DejaVuSans-5d" d="M 1947 4863 
L 1947 -844 
L 622 -844 
L 622 -397 
L 1369 -397 
L 1369 4416 
L 622 4416 
L 622 4863 
L 1947 4863 
z
" transform="scale(0.015625)"/>
      </defs>
      <use xlink:href="#DejaVuSans-54"/>
      <use xlink:href="#DejaVuSans-69" x="57.958984"/>
      <use xlink:href="#DejaVuSans-6d" x="85.742188"/>
      <use xlink:href="#DejaVuSans-65" x="183.154297"/>
      <use xlink:href="#DejaVuSans-20" x="244.677734"/>
      <use xlink:href="#DejaVuSans-5b" x="276.464844"/>
      <use xlink:href="#DejaVuSans-6d" x="315.478516"/>
      <use xlink:href="#DejaVuSans-73" x="412.890625"/>
      <use xlink:href="#DejaVuSans-5d" x="464.990234"/>
     </g>
    </g>
   </g>
   <g id="matplotlib.axis_2">
    <g id="ytick_1">
     <g id="line2d_6">
      <defs>
       <path id="m7460c2d132" d="M 0 0 
L -3.5 0 
" style="stroke: #000000; stroke-width: 0.8"/>
      </defs>
      <g>
       <use xlink:href="#m7460c2d132" x="121.395781" y="287.029403" style="stroke: #000000; stroke-width: 0.8"/>
      </g>
     </g>
     <g id="text_7">
      <!-- −200 -->
      <g transform="translate(40.234375 297.287294) scale(0.27 -0.27)">
       <defs>
        <path id="DejaVuSans-2212" d="M 678 2272 
L 4684 2272 
L 4684 1741 
L 678 1741 
L 678 2272 
z
" transform="scale(0.015625)"/>
       </defs>
       <use xlink:href="#DejaVuSans-2212"/>
       <use xlink:href="#DejaVuSans-32" x="83.789062"/>
       <use xlink:href="#DejaVuSans-30" x="147.412109"/>
       <use xlink:href="#DejaVuSans-30" x="211.035156"/>
      </g>
     </g>
    </g>
    <g id="ytick_2">
     <g id="line2d_7">
      <g>
       <use xlink:href="#m7460c2d132" x="121.395781" y="224.969701" style="stroke: #000000; stroke-width: 0.8"/>
      </g>
     </g>
     <g id="text_8">
      <!-- −100 -->
      <g transform="translate(40.234375 235.227592) scale(0.27 -0.27)">
       <use xlink:href="#DejaVuSans-2212"/>
       <use xlink:href="#DejaVuSans-31" x="83.789062"/>
       <use xlink:href="#DejaVuSans-30" x="147.412109"/>
       <use xlink:href="#DejaVuSans-30" x="211.035156"/>
      </g>
     </g>
    </g>
    <g id="ytick_3">
     <g id="line2d_8">
      <g>
       <use xlink:href="#m7460c2d132" x="121.395781" y="162.91" style="stroke: #000000; stroke-width: 0.8"/>
      </g>
     </g>
     <g id="text_9">
      <!-- 0 -->
      <g transform="translate(97.217031 173.167891) scale(0.27 -0.27)">
       <use xlink:href="#DejaVuSans-30"/>
      </g>
     </g>
    </g>
    <g id="ytick_4">
     <g id="line2d_9">
      <g>
       <use xlink:href="#m7460c2d132" x="121.395781" y="100.850299" style="stroke: #000000; stroke-width: 0.8"/>
      </g>
     </g>
     <g id="text_10">
      <!-- 100 -->
      <g transform="translate(62.859531 111.108189) scale(0.27 -0.27)">
       <use xlink:href="#DejaVuSans-31"/>
       <use xlink:href="#DejaVuSans-30" x="63.623047"/>
       <use xlink:href="#DejaVuSans-30" x="127.246094"/>
      </g>
     </g>
    </g>
    <g id="ytick_5">
     <g id="line2d_10">
      <g>
       <use xlink:href="#m7460c2d132" x="121.395781" y="38.790597" style="stroke: #000000; stroke-width: 0.8"/>
      </g>
     </g>
     <g id="text_11">
      <!-- 200 -->
      <g transform="translate(62.859531 49.048488) scale(0.27 -0.27)">
       <use xlink:href="#DejaVuSans-32"/>
       <use xlink:href="#DejaVuSans-30" x="63.623047"/>
       <use xlink:href="#DejaVuSans-30" x="127.246094"/>
      </g>
     </g>
    </g>
    <g id="text_12">
     <!-- mT/m -->
     <g transform="translate(29.995313 206.346719) rotate(-90) scale(0.3 -0.3)">
      <defs>
       <path id="DejaVuSans-2f" d="M 1625 4666 
L 2156 4666 
L 531 -594 
L 0 -594 
L 1625 4666 
z
" transform="scale(0.015625)"/>
      </defs>
      <use xlink:href="#DejaVuSans-6d"/>
      <use xlink:href="#DejaVuSans-54" x="97.412109"/>
      <use xlink:href="#DejaVuSans-2f" x="158.496094"/>
      <use xlink:href="#DejaVuSans-6d" x="192.1875"/>
     </g>
    </g>
   </g>
   <g id="line2d_11">
    <path d="M 121.395781 162.91 
L 531.354965 162.91 
" clip-path="url(#p81a5eca45b)" style="fill: none; stroke: #d3d3d3; stroke-opacity: 0.8; stroke-width: 1.5; stroke-linecap: square"/>
   </g>
   <g id="line2d_12">
    <path d="M 121.395781 162.91 
L 132.576486 162.91 
L 134.067247 209.024908 
L 134.812627 223.518393 
L 135.558008 231.567524 
L 141.52105 276.53594 
L 142.266431 279.644359 
L 161.646319 279.644155 
L 162.3917 278.274227 
L 163.13708 265.892451 
L 164.627841 229.341878 
L 166.863982 190.955408 
L 172.081644 152.359498 
L 186.24387 49.278488 
L 186.989251 46.17585 
L 228.730549 46.177122 
L 229.47593 47.733876 
L 230.22131 66.518079 
L 230.96669 88.292291 
L 233.202831 127.151555 
L 233.948212 134.277087 
L 237.675113 161.645245 
L 238.420494 162.909608 
L 265.999566 162.91 
L 266.744946 147.5836 
L 267.490327 147.58359 
L 268.235707 142.245422 
L 269.726468 110.997332 
L 270.471848 98.328349 
L 271.217228 87.931669 
L 271.962609 80.654059 
L 274.94413 58.22531 
L 276.434891 47.192142 
L 277.180271 46.17573 
L 300.287061 46.175822 
L 301.032442 46.65073 
L 301.777822 54.701773 
L 303.268583 80.481996 
L 305.504724 120.130119 
L 306.250104 131.546772 
L 306.995484 139.476484 
L 318.176189 221.285301 
L 324.139232 264.555517 
L 324.884612 264.685291 
L 325.629993 264.685255 
L 326.375373 262.985356 
L 327.120753 242.34042 
L 327.866134 225.496102 
L 330.102275 192.614567 
L 332.338416 162.91 
L 332.338416 162.91 
" clip-path="url(#p81a5eca45b)" style="fill: none; stroke: #000000; stroke-width: 5; stroke-linecap: square"/>
   </g>
   <g id="line2d_13">
    <path d="M 332.338416 162.91 
L 334.239136 162.91 
L 335.096323 184.261831 
L 335.133592 183.33349 
L 336.885236 141.558169 
L 337.667885 141.558169 
L 339.456798 184.261831 
L 340.239447 184.261831 
L 342.02836 141.558169 
L 342.811009 141.558169 
L 344.599922 184.261831 
L 345.382572 184.261831 
L 347.171484 141.558169 
L 347.954134 141.558169 
L 349.743047 184.261831 
L 350.525696 184.261831 
L 352.314609 141.558169 
L 353.097258 141.558169 
L 354.886171 184.261831 
L 355.66882 184.261831 
L 357.457733 141.558169 
L 358.240382 141.558169 
L 360.029295 184.261831 
L 360.811945 184.261831 
L 362.600857 141.558169 
L 363.383507 141.558169 
L 365.172419 184.261831 
L 365.955069 184.261831 
L 367.743982 141.558169 
L 368.526631 141.558169 
L 370.315544 184.261831 
L 371.098193 184.261831 
L 372.887106 141.558169 
L 373.669755 141.558169 
L 375.458668 184.261831 
L 376.241317 184.261831 
L 378.03023 141.558169 
L 378.81288 141.558169 
L 380.601792 184.261831 
L 381.384442 184.261831 
L 383.173355 141.558169 
L 383.956004 141.558169 
L 385.744917 184.261831 
L 386.527566 184.261831 
L 388.316479 141.558169 
L 389.099128 141.558169 
L 390.888041 184.261831 
L 391.67069 184.261831 
L 393.459603 141.558169 
L 394.242252 141.558169 
L 396.031165 184.261831 
L 396.813815 184.261831 
L 398.602727 141.558169 
L 399.385377 141.558169 
L 401.17429 184.261831 
L 401.956939 184.261831 
L 403.745852 141.558169 
L 404.528501 141.558169 
L 406.317414 184.261831 
L 407.100063 184.261831 
L 408.888976 141.558169 
L 409.671625 141.558169 
L 411.460538 184.261831 
L 412.243188 184.261831 
L 414.0321 141.558169 
L 414.81475 141.558169 
L 416.603663 184.261831 
L 417.386312 184.261831 
L 419.175225 141.558169 
L 419.957874 141.558169 
L 421.746787 184.261831 
L 422.529436 184.261831 
L 424.318349 141.558169 
L 425.100998 141.558169 
L 426.889911 184.261831 
L 427.67256 184.261831 
L 429.461473 141.558169 
L 430.244123 141.558169 
L 432.033035 184.261831 
L 432.815685 184.261831 
L 434.604598 141.558169 
L 435.387247 141.558169 
L 437.17616 184.261831 
L 437.958809 184.261831 
L 439.747722 141.558169 
L 440.530371 141.558169 
L 442.319284 184.261831 
L 443.101933 184.261831 
L 444.890846 141.558169 
L 445.673496 141.558169 
L 447.462408 184.261831 
L 448.245058 184.261831 
L 450.03397 141.558169 
L 450.81662 141.558169 
L 452.605533 184.261831 
L 453.388182 184.261831 
L 455.177095 141.558169 
L 455.959744 141.558169 
L 457.748657 184.261831 
L 458.531306 184.261831 
L 460.320219 141.558169 
L 461.102868 141.558169 
L 462.891781 184.261831 
L 463.674431 184.261831 
L 465.463343 141.558169 
L 466.245993 141.558169 
L 468.034906 184.261831 
L 468.817555 184.261831 
L 470.606468 141.558169 
L 471.389117 141.558169 
L 473.17803 184.261831 
L 473.960679 184.261831 
L 475.749592 141.558169 
L 476.532241 141.558169 
L 477.426698 162.91 
L 477.426698 162.91 
" clip-path="url(#p81a5eca45b)" style="fill: none; stroke: #000000; stroke-opacity: 0.7; stroke-width: 5; stroke-linecap: square"/>
   </g>
   <g id="line2d_14">
    <path d="M 383.523683 287.65 
L 383.523683 38.17 
" clip-path="url(#p81a5eca45b)" style="fill: none; stroke-dasharray: 18.5,8; stroke-dashoffset: 0; stroke: #000000; stroke-width: 5"/>
   </g>
   <g id="line2d_15">
    <path d="M 121.395781 38.790597 
L 531.354965 38.790597 
" clip-path="url(#p81a5eca45b)" style="fill: none; stroke-dasharray: 18.5,8; stroke-dashoffset: 0; stroke: #000000; stroke-opacity: 0.2; stroke-width: 5"/>
   </g>
   <g id="line2d_16">
    <path d="M 121.395781 287.029403 
L 531.354965 287.029403 
" clip-path="url(#p81a5eca45b)" style="fill: none; stroke-dasharray: 18.5,8; stroke-dashoffset: 0; stroke: #000000; stroke-opacity: 0.2; stroke-width: 5"/>
   </g>
   <g id="line2d_17">
    <path d="M 121.395781 162.91 
L 531.354965 162.91 
" clip-path="url(#p81a5eca45b)" style="fill: none; stroke: #000000; stroke-width: 5; stroke-linecap: square"/>
   </g>
   <g id="patch_3">
    <path d="M 121.395781 287.65 
L 121.395781 38.17 
" style="fill: none; stroke: #000000; stroke-width: 0.8; stroke-linejoin: miter; stroke-linecap: square"/>
   </g>
   <g id="patch_4">
    <path d="M 121.395781 287.65 
L 531.354965 287.65 
" style="fill: none; stroke: #000000; stroke-width: 0.8; stroke-linejoin: miter; stroke-linecap: square"/>
   </g>
   <g id="text_13">
    <!-- $G(t)$ -->
    <g transform="translate(295.175373 31.515) scale(0.32 -0.32)">
     <defs>
      <path id="DejaVuSans-Oblique-47" d="M 3494 697 
L 3738 1919 
L 2700 1919 
L 2797 2438 
L 4453 2438 
L 4050 384 
Q 3634 156 3143 32 
Q 2653 -91 2156 -91 
Q 1278 -91 783 396 
Q 288 884 288 1753 
Q 288 2475 589 3126 
Q 891 3778 1422 4213 
Q 1756 4484 2153 4617 
Q 2550 4750 3034 4750 
Q 3472 4750 3873 4639 
Q 4275 4528 4641 4306 
L 4513 3634 
Q 4231 3928 3853 4083 
Q 3475 4238 3047 4238 
Q 2550 4238 2172 4048 
Q 1794 3859 1497 3463 
Q 1244 3125 1098 2667 
Q 953 2209 953 1734 
Q 953 1081 1287 751 
Q 1622 422 2284 422 
Q 2616 422 2925 492 
Q 3234 563 3494 697 
z
" transform="scale(0.015625)"/>
      <path id="DejaVuSans-28" d="M 1984 4856 
Q 1566 4138 1362 3434 
Q 1159 2731 1159 2009 
Q 1159 1288 1364 580 
Q 1569 -128 1984 -844 
L 1484 -844 
Q 1016 -109 783 600 
Q 550 1309 550 2009 
Q 550 2706 781 3412 
Q 1013 4119 1484 4856 
L 1984 4856 
z
" transform="scale(0.015625)"/>
      <path id="DejaVuSans-Oblique-74" d="M 2706 3500 
L 2619 3053 
L 1472 3053 
L 1100 1153 
Q 1081 1047 1072 975 
Q 1063 903 1063 863 
Q 1063 663 1183 572 
Q 1303 481 1569 481 
L 2150 481 
L 2053 0 
L 1503 0 
Q 991 0 739 200 
Q 488 400 488 806 
Q 488 878 497 964 
Q 506 1050 525 1153 
L 897 3053 
L 409 3053 
L 500 3500 
L 978 3500 
L 1172 4494 
L 1747 4494 
L 1556 3500 
L 2706 3500 
z
" transform="scale(0.015625)"/>
      <path id="DejaVuSans-29" d="M 513 4856 
L 1013 4856 
Q 1481 4119 1714 3412 
Q 1947 2706 1947 2009 
Q 1947 1309 1714 600 
Q 1481 -109 1013 -844 
L 513 -844 
Q 928 -128 1133 580 
Q 1338 1288 1338 2009 
Q 1338 2731 1133 3434 
Q 928 4138 513 4856 
z
" transform="scale(0.015625)"/>
     </defs>
     <use xlink:href="#DejaVuSans-Oblique-47" transform="translate(0 0.125)"/>
     <use xlink:href="#DejaVuSans-28" transform="translate(77.490234 0.125)"/>
     <use xlink:href="#DejaVuSans-Oblique-74" transform="translate(116.503906 0.125)"/>
     <use xlink:href="#DejaVuSans-29" transform="translate(155.712891 0.125)"/>
    </g>
   </g>
   <g id="legend_1">
    <g id="patch_5">
     <path d="M 507.154965 66.77 
L 515.954965 66.77 
Q 520.354965 66.77 520.354965 62.37 
L 520.354965 53.57 
Q 520.354965 49.17 515.954965 49.17 
L 507.154965 49.17 
Q 502.754965 49.17 502.754965 53.57 
L 502.754965 62.37 
Q 502.754965 66.77 507.154965 66.77 
z
" style="fill: #ffffff; opacity: 0.8; stroke: #cccccc; stroke-linejoin: miter"/>
    </g>
   </g>
  </g>
  <g id="axes_2">
   <g id="patch_6">
    <path d="M 654.34272 287.65 
L 1064.301904 287.65 
L 1064.301904 38.17 
L 654.34272 38.17 
z
" style="fill: #ffffff"/>
   </g>
   <g id="matplotlib.axis_3">
    <g id="xtick_6">
     <g id="line2d_18">
      <g>
       <use xlink:href="#m95089b6038" x="654.34272" y="287.65" style="stroke: #000000; stroke-width: 0.8"/>
      </g>
     </g>
     <g id="text_14">
      <!-- 0 -->
      <g transform="translate(645.753345 315.165781) scale(0.27 -0.27)">
       <use xlink:href="#DejaVuSans-30"/>
      </g>
     </g>
    </g>
    <g id="xtick_7">
     <g id="line2d_19">
      <g>
       <use xlink:href="#m95089b6038" x="747.515262" y="287.65" style="stroke: #000000; stroke-width: 0.8"/>
      </g>
     </g>
     <g id="text_15">
      <!-- 25 -->
      <g transform="translate(730.336512 315.165781) scale(0.27 -0.27)">
       <use xlink:href="#DejaVuSans-32"/>
       <use xlink:href="#DejaVuSans-35" x="63.623047"/>
      </g>
     </g>
    </g>
    <g id="xtick_8">
     <g id="line2d_20">
      <g>
       <use xlink:href="#m95089b6038" x="840.687804" y="287.65" style="stroke: #000000; stroke-width: 0.8"/>
      </g>
     </g>
     <g id="text_16">
      <!-- 50 -->
      <g transform="translate(823.509054 315.165781) scale(0.27 -0.27)">
       <use xlink:href="#DejaVuSans-35"/>
       <use xlink:href="#DejaVuSans-30" x="63.623047"/>
      </g>
     </g>
    </g>
    <g id="xtick_9">
     <g id="line2d_21">
      <g>
       <use xlink:href="#m95089b6038" x="933.860345" y="287.65" style="stroke: #000000; stroke-width: 0.8"/>
      </g>
     </g>
     <g id="text_17">
      <!-- 75 -->
      <g transform="translate(916.681595 315.165781) scale(0.27 -0.27)">
       <use xlink:href="#DejaVuSans-37"/>
       <use xlink:href="#DejaVuSans-35" x="63.623047"/>
      </g>
     </g>
    </g>
    <g id="xtick_10">
     <g id="line2d_22">
      <g>
       <use xlink:href="#m95089b6038" x="1027.032887" y="287.65" style="stroke: #000000; stroke-width: 0.8"/>
      </g>
     </g>
     <g id="text_18">
      <!-- 100 -->
      <g transform="translate(1001.264762 315.165781) scale(0.27 -0.27)">
       <use xlink:href="#DejaVuSans-31"/>
       <use xlink:href="#DejaVuSans-30" x="63.623047"/>
       <use xlink:href="#DejaVuSans-30" x="127.246094"/>
      </g>
     </g>
    </g>
    <g id="text_19">
     <!-- Time [ms] -->
     <g transform="translate(783.724656 347.57625) scale(0.3 -0.3)">
      <use xlink:href="#DejaVuSans-54"/>
      <use xlink:href="#DejaVuSans-69" x="57.958984"/>
      <use xlink:href="#DejaVuSans-6d" x="85.742188"/>
      <use xlink:href="#DejaVuSans-65" x="183.154297"/>
      <use xlink:href="#DejaVuSans-20" x="244.677734"/>
      <use xlink:href="#DejaVuSans-5b" x="276.464844"/>
      <use xlink:href="#DejaVuSans-6d" x="315.478516"/>
      <use xlink:href="#DejaVuSans-73" x="412.890625"/>
      <use xlink:href="#DejaVuSans-5d" x="464.990234"/>
     </g>
    </g>
   </g>
   <g id="matplotlib.axis_4">
    <g id="ytick_6">
     <g id="line2d_23">
      <g>
       <use xlink:href="#m7460c2d132" x="654.34272" y="287.029403" style="stroke: #000000; stroke-width: 0.8"/>
      </g>
     </g>
     <g id="text_20">
      <!-- −200 -->
      <g transform="translate(573.181314 297.287294) scale(0.27 -0.27)">
       <use xlink:href="#DejaVuSans-2212"/>
       <use xlink:href="#DejaVuSans-32" x="83.789062"/>
       <use xlink:href="#DejaVuSans-30" x="147.412109"/>
       <use xlink:href="#DejaVuSans-30" x="211.035156"/>
      </g>
     </g>
    </g>
    <g id="ytick_7">
     <g id="line2d_24">
      <g>
       <use xlink:href="#m7460c2d132" x="654.34272" y="224.969701" style="stroke: #000000; stroke-width: 0.8"/>
      </g>
     </g>
     <g id="text_21">
      <!-- −100 -->
      <g transform="translate(573.181314 235.227592) scale(0.27 -0.27)">
       <use xlink:href="#DejaVuSans-2212"/>
       <use xlink:href="#DejaVuSans-31" x="83.789062"/>
       <use xlink:href="#DejaVuSans-30" x="147.412109"/>
       <use xlink:href="#DejaVuSans-30" x="211.035156"/>
      </g>
     </g>
    </g>
    <g id="ytick_8">
     <g id="line2d_25">
      <g>
       <use xlink:href="#m7460c2d132" x="654.34272" y="162.91" style="stroke: #000000; stroke-width: 0.8"/>
      </g>
     </g>
     <g id="text_22">
      <!-- 0 -->
      <g transform="translate(630.16397 173.167891) scale(0.27 -0.27)">
       <use xlink:href="#DejaVuSans-30"/>
      </g>
     </g>
    </g>
    <g id="ytick_9">
     <g id="line2d_26">
      <g>
       <use xlink:href="#m7460c2d132" x="654.34272" y="100.850299" style="stroke: #000000; stroke-width: 0.8"/>
      </g>
     </g>
     <g id="text_23">
      <!-- 100 -->
      <g transform="translate(595.80647 111.108189) scale(0.27 -0.27)">
       <use xlink:href="#DejaVuSans-31"/>
       <use xlink:href="#DejaVuSans-30" x="63.623047"/>
       <use xlink:href="#DejaVuSans-30" x="127.246094"/>
      </g>
     </g>
    </g>
    <g id="ytick_10">
     <g id="line2d_27">
      <g>
       <use xlink:href="#m7460c2d132" x="654.34272" y="38.790597" style="stroke: #000000; stroke-width: 0.8"/>
      </g>
     </g>
     <g id="text_24">
      <!-- 200 -->
      <g transform="translate(595.80647 49.048488) scale(0.27 -0.27)">
       <use xlink:href="#DejaVuSans-32"/>
       <use xlink:href="#DejaVuSans-30" x="63.623047"/>
       <use xlink:href="#DejaVuSans-30" x="127.246094"/>
      </g>
     </g>
    </g>
    <g id="text_25">
     <!-- T/m/s -->
     <g transform="translate(562.942251 204.602969) rotate(-90) scale(0.3 -0.3)">
      <use xlink:href="#DejaVuSans-54"/>
      <use xlink:href="#DejaVuSans-2f" x="61.083984"/>
      <use xlink:href="#DejaVuSans-6d" x="94.775391"/>
      <use xlink:href="#DejaVuSans-2f" x="192.1875"/>
      <use xlink:href="#DejaVuSans-73" x="225.878906"/>
     </g>
    </g>
   </g>
   <g id="line2d_28">
    <path d="M 654.34272 162.91 
L 1064.301904 162.91 
" clip-path="url(#p16149ede74)" style="fill: none; stroke: #d3d3d3; stroke-opacity: 0.8; stroke-width: 1.5; stroke-linecap: square"/>
   </g>
   <g id="line2d_29">
    <path d="M 654.34272 162.91 
L 664.778045 162.91 
L 665.523425 285.788289 
L 666.268805 270.606252 
L 667.759566 203.155652 
L 668.504946 191.459481 
L 671.486468 190.929919 
L 673.722609 190.65092 
L 674.467989 178.452098 
L 675.213369 162.909562 
L 693.847878 162.909288 
L 694.593258 156.060359 
L 695.338638 101.001119 
L 696.084019 71.1282 
L 696.829399 71.938938 
L 697.574779 96.296246 
L 698.32016 99.132221 
L 699.06554 101.36918 
L 699.81092 134.838672 
L 700.556301 135.287688 
L 705.773963 135.61954 
L 713.227766 135.83466 
L 718.445429 135.901111 
L 719.190809 147.396812 
L 719.936189 162.908778 
L 754.223685 162.910178 
L 760.932108 162.913394 
L 761.677488 170.693772 
L 762.422868 256.831015 
L 763.168249 271.78106 
L 763.913629 230.619708 
L 764.659009 227.442674 
L 765.40439 224.963935 
L 766.14977 198.537662 
L 766.89515 190.364055 
L 769.876672 190.20144 
L 770.622052 169.231814 
L 771.367432 162.91196 
L 798.201124 162.91 
L 798.946505 86.278 
L 799.691885 162.909949 
L 800.437265 136.219163 
L 801.182646 80.207942 
L 802.673406 99.565089 
L 803.418787 110.926597 
L 804.164167 126.521952 
L 804.909547 134.053431 
L 805.654928 135.065948 
L 808.636449 135.358361 
L 809.381829 157.827939 
L 810.12721 162.909806 
L 832.48862 162.910335 
L 833.234 165.284543 
L 833.979381 203.165215 
L 834.724761 224.203193 
L 835.470141 230.517919 
L 836.215522 231.806664 
L 836.960902 229.63588 
L 837.706282 225.528071 
L 838.451663 219.993265 
L 839.197043 202.558563 
L 839.942423 190.440199 
L 845.905466 190.12555 
L 854.85003 189.937942 
L 856.340791 189.922591 
L 857.086171 163.55887 
L 857.831551 162.90982 
L 858.576932 154.410505 
L 859.322312 59.68532 
L 860.067692 78.68841 
L 860.813073 105.471461 
L 861.558453 108.336705 
L 862.303833 110.514163 
L 863.049214 112.1882 
L 863.794594 113.492576 
L 864.539974 114.526388 
L 864.539974 114.526388 
" clip-path="url(#p16149ede74)" style="fill: none; stroke: #000000; stroke-width: 5; stroke-linecap: square"/>
   </g>
   <g id="line2d_30">
    <path d="M 654.34272 38.790597 
L 1064.301904 38.790597 
" clip-path="url(#p16149ede74)" style="fill: none; stroke-dasharray: 18.5,8; stroke-dashoffset: 0; stroke: #000000; stroke-opacity: 0.2; stroke-width: 5"/>
   </g>
   <g id="line2d_31">
    <path d="M 654.34272 287.029403 
L 1064.301904 287.029403 
" clip-path="url(#p16149ede74)" style="fill: none; stroke-dasharray: 18.5,8; stroke-dashoffset: 0; stroke: #000000; stroke-opacity: 0.2; stroke-width: 5"/>
   </g>
   <g id="line2d_32">
    <path d="M 654.34272 162.91 
L 1064.301904 162.91 
" clip-path="url(#p16149ede74)" style="fill: none; stroke: #000000; stroke-width: 5; stroke-linecap: square"/>
   </g>
   <g id="patch_7">
    <path d="M 654.34272 287.65 
L 654.34272 38.17 
" style="fill: none; stroke: #000000; stroke-width: 0.8; stroke-linejoin: miter; stroke-linecap: square"/>
   </g>
   <g id="patch_8">
    <path d="M 654.34272 287.65 
L 1064.301904 287.65 
" style="fill: none; stroke: #000000; stroke-width: 0.8; stroke-linejoin: miter; stroke-linecap: square"/>
   </g>
   <g id="text_26">
    <!-- $S(t)$ -->
    <g transform="translate(830.362312 31.515) scale(0.32 -0.32)">
     <defs>
      <path id="DejaVuSans-Oblique-53" d="M 3859 4513 
L 3738 3897 
Q 3422 4066 3111 4152 
Q 2800 4238 2509 4238 
Q 1944 4238 1609 3991 
Q 1275 3744 1275 3334 
Q 1275 3109 1398 2989 
Q 1522 2869 2034 2731 
L 2413 2638 
Q 3053 2472 3303 2217 
Q 3553 1963 3553 1503 
Q 3553 797 2998 353 
Q 2444 -91 1538 -91 
Q 1166 -91 791 -17 
Q 416 56 38 206 
L 166 856 
Q 513 641 861 531 
Q 1209 422 1556 422 
Q 2147 422 2503 684 
Q 2859 947 2859 1369 
Q 2859 1650 2717 1795 
Q 2575 1941 2106 2059 
L 1728 2156 
Q 1081 2325 845 2545 
Q 609 2766 609 3163 
Q 609 3859 1145 4304 
Q 1681 4750 2541 4750 
Q 2875 4750 3203 4690 
Q 3531 4631 3859 4513 
z
" transform="scale(0.015625)"/>
     </defs>
     <use xlink:href="#DejaVuSans-Oblique-53" transform="translate(0 0.125)"/>
     <use xlink:href="#DejaVuSans-28" transform="translate(63.476562 0.125)"/>
     <use xlink:href="#DejaVuSans-Oblique-74" transform="translate(102.490234 0.125)"/>
     <use xlink:href="#DejaVuSans-29" transform="translate(141.699219 0.125)"/>
    </g>
   </g>
  </g>
  <g id="axes_3">
   <g id="patch_9">
    <path d="M 1187.289659 287.65 
L 1597.248842 287.65 
L 1597.248842 38.17 
L 1187.289659 38.17 
z
" style="fill: #ffffff"/>
   </g>
   <g id="matplotlib.axis_5">
    <g id="xtick_11">
     <g id="line2d_33">
      <g>
       <use xlink:href="#m95089b6038" x="1187.289659" y="287.65" style="stroke: #000000; stroke-width: 0.8"/>
      </g>
     </g>
     <g id="text_27">
      <!-- 0 -->
      <g transform="translate(1178.700284 315.165781) scale(0.27 -0.27)">
       <use xlink:href="#DejaVuSans-30"/>
      </g>
     </g>
    </g>
    <g id="xtick_12">
     <g id="line2d_34">
      <g>
       <use xlink:href="#m95089b6038" x="1280.462201" y="287.65" style="stroke: #000000; stroke-width: 0.8"/>
      </g>
     </g>
     <g id="text_28">
      <!-- 25 -->
      <g transform="translate(1263.283451 315.165781) scale(0.27 -0.27)">
       <use xlink:href="#DejaVuSans-32"/>
       <use xlink:href="#DejaVuSans-35" x="63.623047"/>
      </g>
     </g>
    </g>
    <g id="xtick_13">
     <g id="line2d_35">
      <g>
       <use xlink:href="#m95089b6038" x="1373.634742" y="287.65" style="stroke: #000000; stroke-width: 0.8"/>
      </g>
     </g>
     <g id="text_29">
      <!-- 50 -->
      <g transform="translate(1356.455992 315.165781) scale(0.27 -0.27)">
       <use xlink:href="#DejaVuSans-35"/>
       <use xlink:href="#DejaVuSans-30" x="63.623047"/>
      </g>
     </g>
    </g>
    <g id="xtick_14">
     <g id="line2d_36">
      <g>
       <use xlink:href="#m95089b6038" x="1466.807284" y="287.65" style="stroke: #000000; stroke-width: 0.8"/>
      </g>
     </g>
     <g id="text_30">
      <!-- 75 -->
      <g transform="translate(1449.628534 315.165781) scale(0.27 -0.27)">
       <use xlink:href="#DejaVuSans-37"/>
       <use xlink:href="#DejaVuSans-35" x="63.623047"/>
      </g>
     </g>
    </g>
    <g id="xtick_15">
     <g id="line2d_37">
      <g>
       <use xlink:href="#m95089b6038" x="1559.979826" y="287.65" style="stroke: #000000; stroke-width: 0.8"/>
      </g>
     </g>
     <g id="text_31">
      <!-- 100 -->
      <g transform="translate(1534.211701 315.165781) scale(0.27 -0.27)">
       <use xlink:href="#DejaVuSans-31"/>
       <use xlink:href="#DejaVuSans-30" x="63.623047"/>
       <use xlink:href="#DejaVuSans-30" x="127.246094"/>
      </g>
     </g>
    </g>
    <g id="text_32">
     <!-- Time [ms] -->
     <g transform="translate(1316.671594 347.57625) scale(0.3 -0.3)">
      <use xlink:href="#DejaVuSans-54"/>
      <use xlink:href="#DejaVuSans-69" x="57.958984"/>
      <use xlink:href="#DejaVuSans-6d" x="85.742188"/>
      <use xlink:href="#DejaVuSans-65" x="183.154297"/>
      <use xlink:href="#DejaVuSans-20" x="244.677734"/>
      <use xlink:href="#DejaVuSans-5b" x="276.464844"/>
      <use xlink:href="#DejaVuSans-6d" x="315.478516"/>
      <use xlink:href="#DejaVuSans-73" x="412.890625"/>
      <use xlink:href="#DejaVuSans-5d" x="464.990234"/>
     </g>
    </g>
   </g>
   <g id="matplotlib.axis_6">
    <g id="ytick_11">
     <g id="line2d_38">
      <g>
       <use xlink:href="#m7460c2d132" x="1187.289659" y="287.65" style="stroke: #000000; stroke-width: 0.8"/>
      </g>
     </g>
     <g id="text_33">
      <!-- 0.00 -->
      <g transform="translate(1120.172471 297.907891) scale(0.27 -0.27)">
       <defs>
        <path id="DejaVuSans-2e" d="M 684 794 
L 1344 794 
L 1344 0 
L 684 0 
L 684 794 
z
" transform="scale(0.015625)"/>
       </defs>
       <use xlink:href="#DejaVuSans-30"/>
       <use xlink:href="#DejaVuSans-2e" x="63.623047"/>
       <use xlink:href="#DejaVuSans-30" x="95.410156"/>
       <use xlink:href="#DejaVuSans-30" x="159.033203"/>
      </g>
     </g>
    </g>
    <g id="ytick_12">
     <g id="line2d_39">
      <g>
       <use xlink:href="#m7460c2d132" x="1187.289659" y="225.28" style="stroke: #000000; stroke-width: 0.8"/>
      </g>
     </g>
     <g id="text_34">
      <!-- 0.25 -->
      <g transform="translate(1120.172471 235.537891) scale(0.27 -0.27)">
       <use xlink:href="#DejaVuSans-30"/>
       <use xlink:href="#DejaVuSans-2e" x="63.623047"/>
       <use xlink:href="#DejaVuSans-32" x="95.410156"/>
       <use xlink:href="#DejaVuSans-35" x="159.033203"/>
      </g>
     </g>
    </g>
    <g id="ytick_13">
     <g id="line2d_40">
      <g>
       <use xlink:href="#m7460c2d132" x="1187.289659" y="162.91" style="stroke: #000000; stroke-width: 0.8"/>
      </g>
     </g>
     <g id="text_35">
      <!-- 0.50 -->
      <g transform="translate(1120.172471 173.167891) scale(0.27 -0.27)">
       <use xlink:href="#DejaVuSans-30"/>
       <use xlink:href="#DejaVuSans-2e" x="63.623047"/>
       <use xlink:href="#DejaVuSans-35" x="95.410156"/>
       <use xlink:href="#DejaVuSans-30" x="159.033203"/>
      </g>
     </g>
    </g>
    <g id="ytick_14">
     <g id="line2d_41">
      <g>
       <use xlink:href="#m7460c2d132" x="1187.289659" y="100.54" style="stroke: #000000; stroke-width: 0.8"/>
      </g>
     </g>
     <g id="text_36">
      <!-- 0.75 -->
      <g transform="translate(1120.172471 110.797891) scale(0.27 -0.27)">
       <use xlink:href="#DejaVuSans-30"/>
       <use xlink:href="#DejaVuSans-2e" x="63.623047"/>
       <use xlink:href="#DejaVuSans-37" x="95.410156"/>
       <use xlink:href="#DejaVuSans-35" x="159.033203"/>
      </g>
     </g>
    </g>
    <g id="ytick_15">
     <g id="line2d_42">
      <g>
       <use xlink:href="#m7460c2d132" x="1187.289659" y="38.17" style="stroke: #000000; stroke-width: 0.8"/>
      </g>
     </g>
     <g id="text_37">
      <!-- 1.00 -->
      <g transform="translate(1120.172471 48.427891) scale(0.27 -0.27)">
       <use xlink:href="#DejaVuSans-31"/>
       <use xlink:href="#DejaVuSans-2e" x="63.623047"/>
       <use xlink:href="#DejaVuSans-30" x="95.410156"/>
       <use xlink:href="#DejaVuSans-30" x="159.033203"/>
      </g>
     </g>
    </g>
    <g id="text_38">
     <!-- Threshold [a.u.] -->
     <g transform="translate(1109.933409 281.529531) rotate(-90) scale(0.3 -0.3)">
      <defs>
       <path id="DejaVuSans-68" d="M 3513 2113 
L 3513 0 
L 2938 0 
L 2938 2094 
Q 2938 2591 2744 2837 
Q 2550 3084 2163 3084 
Q 1697 3084 1428 2787 
Q 1159 2491 1159 1978 
L 1159 0 
L 581 0 
L 581 4863 
L 1159 4863 
L 1159 2956 
Q 1366 3272 1645 3428 
Q 1925 3584 2291 3584 
Q 2894 3584 3203 3211 
Q 3513 2838 3513 2113 
z
" transform="scale(0.015625)"/>
       <path id="DejaVuSans-72" d="M 2631 2963 
Q 2534 3019 2420 3045 
Q 2306 3072 2169 3072 
Q 1681 3072 1420 2755 
Q 1159 2438 1159 1844 
L 1159 0 
L 581 0 
L 581 3500 
L 1159 3500 
L 1159 2956 
Q 1341 3275 1631 3429 
Q 1922 3584 2338 3584 
Q 2397 3584 2469 3576 
Q 2541 3569 2628 3553 
L 2631 2963 
z
" transform="scale(0.015625)"/>
       <path id="DejaVuSans-6f" d="M 1959 3097 
Q 1497 3097 1228 2736 
Q 959 2375 959 1747 
Q 959 1119 1226 758 
Q 1494 397 1959 397 
Q 2419 397 2687 759 
Q 2956 1122 2956 1747 
Q 2956 2369 2687 2733 
Q 2419 3097 1959 3097 
z
M 1959 3584 
Q 2709 3584 3137 3096 
Q 3566 2609 3566 1747 
Q 3566 888 3137 398 
Q 2709 -91 1959 -91 
Q 1206 -91 779 398 
Q 353 888 353 1747 
Q 353 2609 779 3096 
Q 1206 3584 1959 3584 
z
" transform="scale(0.015625)"/>
       <path id="DejaVuSans-6c" d="M 603 4863 
L 1178 4863 
L 1178 0 
L 603 0 
L 603 4863 
z
" transform="scale(0.015625)"/>
       <path id="DejaVuSans-64" d="M 2906 2969 
L 2906 4863 
L 3481 4863 
L 3481 0 
L 2906 0 
L 2906 525 
Q 2725 213 2448 61 
Q 2172 -91 1784 -91 
Q 1150 -91 751 415 
Q 353 922 353 1747 
Q 353 2572 751 3078 
Q 1150 3584 1784 3584 
Q 2172 3584 2448 3432 
Q 2725 3281 2906 2969 
z
M 947 1747 
Q 947 1113 1208 752 
Q 1469 391 1925 391 
Q 2381 391 2643 752 
Q 2906 1113 2906 1747 
Q 2906 2381 2643 2742 
Q 2381 3103 1925 3103 
Q 1469 3103 1208 2742 
Q 947 2381 947 1747 
z
" transform="scale(0.015625)"/>
       <path id="DejaVuSans-61" d="M 2194 1759 
Q 1497 1759 1228 1600 
Q 959 1441 959 1056 
Q 959 750 1161 570 
Q 1363 391 1709 391 
Q 2188 391 2477 730 
Q 2766 1069 2766 1631 
L 2766 1759 
L 2194 1759 
z
M 3341 1997 
L 3341 0 
L 2766 0 
L 2766 531 
Q 2569 213 2275 61 
Q 1981 -91 1556 -91 
Q 1019 -91 701 211 
Q 384 513 384 1019 
Q 384 1609 779 1909 
Q 1175 2209 1959 2209 
L 2766 2209 
L 2766 2266 
Q 2766 2663 2505 2880 
Q 2244 3097 1772 3097 
Q 1472 3097 1187 3025 
Q 903 2953 641 2809 
L 641 3341 
Q 956 3463 1253 3523 
Q 1550 3584 1831 3584 
Q 2591 3584 2966 3190 
Q 3341 2797 3341 1997 
z
" transform="scale(0.015625)"/>
       <path id="DejaVuSans-75" d="M 544 1381 
L 544 3500 
L 1119 3500 
L 1119 1403 
Q 1119 906 1312 657 
Q 1506 409 1894 409 
Q 2359 409 2629 706 
Q 2900 1003 2900 1516 
L 2900 3500 
L 3475 3500 
L 3475 0 
L 2900 0 
L 2900 538 
Q 2691 219 2414 64 
Q 2138 -91 1772 -91 
Q 1169 -91 856 284 
Q 544 659 544 1381 
z
M 1991 3584 
L 1991 3584 
z
" transform="scale(0.015625)"/>
      </defs>
      <use xlink:href="#DejaVuSans-54"/>
      <use xlink:href="#DejaVuSans-68" x="61.083984"/>
      <use xlink:href="#DejaVuSans-72" x="124.462891"/>
      <use xlink:href="#DejaVuSans-65" x="163.326172"/>
      <use xlink:href="#DejaVuSans-73" x="224.849609"/>
      <use xlink:href="#DejaVuSans-68" x="276.949219"/>
      <use xlink:href="#DejaVuSans-6f" x="340.328125"/>
      <use xlink:href="#DejaVuSans-6c" x="401.509766"/>
      <use xlink:href="#DejaVuSans-64" x="429.292969"/>
      <use xlink:href="#DejaVuSans-20" x="492.769531"/>
      <use xlink:href="#DejaVuSans-5b" x="524.556641"/>
      <use xlink:href="#DejaVuSans-61" x="563.570312"/>
      <use xlink:href="#DejaVuSans-2e" x="624.849609"/>
      <use xlink:href="#DejaVuSans-75" x="656.636719"/>
      <use xlink:href="#DejaVuSans-2e" x="720.015625"/>
      <use xlink:href="#DejaVuSans-5d" x="751.802734"/>
     </g>
    </g>
   </g>
   <g id="line2d_43">
    <path d="M 1187.289659 287.65 
L 1597.248842 287.65 
" clip-path="url(#p5b6cd4eff4)" style="fill: none; stroke: #d3d3d3; stroke-opacity: 0.8; stroke-width: 1.5; stroke-linecap: square"/>
   </g>
   <g id="line2d_44">
    <path d="M 1187.289659 287.65 
L 1198.470364 287.65 
L 1199.215744 146.721261 
L 1199.961124 82.454967 
L 1200.706505 82.373095 
L 1202.197265 144.618648 
L 1202.942646 160.0319 
L 1203.688026 168.329865 
L 1204.433406 172.91579 
L 1205.178787 175.506244 
L 1205.924167 176.979072 
L 1206.669547 177.793817 
L 1207.414928 178.198441 
L 1208.160308 192.235055 
L 1208.905688 217.983748 
L 1209.651069 232.993793 
L 1210.396449 242.286189 
L 1211.141829 248.418331 
L 1211.88721 252.718539 
L 1212.63259 255.894358 
L 1213.37797 258.339187 
L 1214.123351 260.280945 
L 1214.868731 261.860243 
L 1216.359492 264.268931 
L 1217.850252 266.016256 
L 1219.341013 267.347301 
L 1220.831774 268.407759 
L 1223.067915 269.682546 
L 1226.049436 271.042589 
L 1227.540197 271.635969 
L 1228.285577 264.22972 
L 1229.776338 123.329339 
L 1230.521718 80.097851 
L 1232.757859 79.981248 
L 1233.50324 116.27444 
L 1234.24862 136.128716 
L 1234.994 147.12623 
L 1235.739381 153.464286 
L 1236.484761 157.271731 
L 1237.230141 159.642363 
L 1237.975522 161.153568 
L 1238.720902 162.120478 
L 1239.466282 162.722724 
L 1240.211663 163.068803 
L 1240.957043 163.22788 
L 1242.447804 163.155786 
L 1243.938564 162.746408 
L 1246.174705 161.77819 
L 1249.156227 160.179595 
L 1252.137748 158.476665 
L 1252.883128 171.227631 
L 1253.628509 196.224628 
L 1254.373889 210.836224 
L 1255.119269 219.942848 
L 1255.86465 226.033573 
L 1256.61003 230.387294 
L 1257.35541 233.685885 
L 1258.100791 236.30314 
L 1259.591551 240.272238 
L 1261.082312 243.212672 
L 1262.573073 245.534794 
L 1264.063833 247.46184 
L 1266.299974 249.883882 
L 1268.536115 251.95517 
L 1271.517637 254.38854 
L 1275.244538 257.095961 
L 1278.97144 259.54208 
L 1283.443722 262.204079 
L 1287.916004 264.608416 
L 1292.388286 266.783993 
L 1294.624427 267.788119 
L 1295.369807 259.18888 
L 1296.115188 155.545839 
L 1296.860568 78.255108 
L 1299.096709 78.227665 
L 1299.842089 106.267733 
L 1300.58747 130.063334 
L 1301.33285 143.04307 
L 1302.07823 150.393881 
L 1302.823611 154.729066 
L 1303.568991 157.38151 
L 1305.059752 205.262229 
L 1305.805132 218.700281 
L 1306.550512 227.38266 
L 1307.295893 233.369475 
L 1308.041273 237.744911 
L 1308.786653 241.098676 
L 1309.532034 243.765843 
L 1310.277414 245.947185 
L 1311.768175 249.320596 
L 1313.258935 251.829729 
L 1314.749696 253.795814 
L 1316.240457 255.407839 
L 1318.476598 257.406234 
L 1320.712739 259.093818 
L 1323.69426 261.058392 
L 1327.421162 263.23121 
L 1331.893444 265.559317 
L 1332.638824 178.04885 
L 1333.384204 215.354269 
L 1334.129585 204.487667 
L 1334.874965 133.367651 
L 1335.620345 101.955559 
L 1336.365726 93.254501 
L 1337.111106 98.806036 
L 1338.601867 135.832117 
L 1339.347247 146.588701 
L 1340.092627 152.580376 
L 1340.838008 156.042357 
L 1341.583388 158.111989 
L 1342.328768 159.378015 
L 1343.074149 185.859218 
L 1343.819529 206.985786 
L 1344.564909 219.74433 
L 1345.31029 227.97239 
L 1346.05567 233.641463 
L 1346.80105 237.786211 
L 1347.546431 240.968319 
L 1348.291811 243.505892 
L 1349.037191 245.588399 
L 1350.527952 248.829392 
L 1352.018713 251.263316 
L 1353.509473 253.189608 
L 1355.000234 254.784314 
L 1357.236375 256.78093 
L 1359.472516 258.482329 
L 1362.454037 260.475842 
L 1366.180939 262.690193 
L 1366.926319 260.433992 
L 1369.16246 128.828701 
L 1369.907841 104.01377 
L 1370.653221 89.845009 
L 1371.398601 83.99404 
L 1372.143982 84.765787 
L 1372.889362 103.32316 
L 1373.634742 126.45937 
L 1374.380123 139.094284 
L 1375.125503 146.266815 
L 1375.870883 150.515274 
L 1376.616264 153.13726 
L 1377.361644 154.808186 
L 1378.107024 155.89238 
L 1378.852405 156.591489 
L 1379.597785 157.026245 
L 1380.343165 157.269419 
L 1381.833926 157.364012 
L 1383.324687 157.120439 
L 1385.560828 156.398838 
L 1388.542349 155.123558 
L 1390.03311 154.43207 
L 1390.77849 184.310645 
L 1392.269251 218.688967 
L 1393.014631 129.528432 
L 1393.760011 81.523208 
L 1398.232293 81.16013 
L 1398.232293 81.16013 
" clip-path="url(#p5b6cd4eff4)" style="fill: none; stroke: #000000; stroke-width: 5; stroke-linecap: square"/>
   </g>
   <g id="line2d_45">
    <path d="M 1187.289659 287.65 
L 1597.248842 287.65 
" clip-path="url(#p5b6cd4eff4)" style="fill: none; stroke: #000000; stroke-width: 5; stroke-linecap: square"/>
   </g>
   <g id="line2d_46">
    <path d="M 1187.289659 83.319669 
L 1188.780419 82.563965 
L 1190.27118 82.031061 
L 1192.507321 81.47133 
L 1196.234223 80.846954 
L 1202.197265 80.139099 
L 1211.88721 79.246235 
L 1223.067915 78.437928 
L 1236.484761 77.700572 
L 1252.137748 77.078102 
L 1270.772256 76.571869 
L 1293.879047 76.176623 
L 1305.059752 76.047352 
L 1305.805132 134.971914 
L 1306.550512 175.186888 
L 1307.295893 123.214237 
L 1308.041273 140.595502 
L 1308.786653 108.808453 
L 1309.532034 96.353301 
L 1310.277414 91.13306 
L 1311.022794 88.685828 
L 1311.768175 87.351501 
L 1312.513555 86.501299 
L 1314.004316 85.40999 
L 1315.495076 84.686553 
L 1317.731217 83.926888 
L 1320.712739 83.212471 
L 1325.185021 82.408808 
L 1328.911922 81.847506 
L 1329.657303 162.658798 
L 1331.148063 130.857706 
L 1331.893444 139.776524 
L 1332.638824 111.712893 
L 1333.384204 100.591393 
L 1334.129585 95.825454 
L 1334.874965 93.507163 
L 1335.620345 92.180115 
L 1336.365726 91.290826 
L 1337.856486 90.077397 
L 1339.347247 89.216585 
L 1341.583388 88.247617 
L 1344.564909 87.261032 
L 1349.037191 86.075083 
L 1355.000234 84.74845 
L 1362.454037 83.340674 
L 1370.653221 82.04297 
L 1379.597785 80.874033 
L 1389.287729 79.845468 
L 1398.232293 79.074735 
L 1398.232293 79.074735 
" clip-path="url(#p5b6cd4eff4)" style="fill: none; stroke-dasharray: 22.2,9.6; stroke-dashoffset: 0; stroke: #ff0000; stroke-width: 6"/>
   </g>
   <g id="line2d_47">
    <path d="M 1187.289659 75.592 
L 1597.248842 75.592 
" clip-path="url(#p5b6cd4eff4)" style="fill: none; stroke-dasharray: 5,8.25; stroke-dashoffset: 0; stroke: #ff0000; stroke-width: 5"/>
   </g>
   <g id="patch_10">
    <path d="M 1187.289659 287.65 
L 1187.289659 38.17 
" style="fill: none; stroke: #000000; stroke-width: 0.8; stroke-linejoin: miter; stroke-linecap: square"/>
   </g>
   <g id="patch_11">
    <path d="M 1187.289659 287.65 
L 1597.248842 287.65 
" style="fill: none; stroke: #000000; stroke-width: 0.8; stroke-linejoin: miter; stroke-linecap: square"/>
   </g>
   <g id="text_39">
    <!-- SAFE-PNS -->
    <g transform="translate(1314.006751 31.515) scale(0.32 -0.32)">
     <defs>
      <path id="DejaVuSans-53" d="M 3425 4513 
L 3425 3897 
Q 3066 4069 2747 4153 
Q 2428 4238 2131 4238 
Q 1616 4238 1336 4038 
Q 1056 3838 1056 3469 
Q 1056 3159 1242 3001 
Q 1428 2844 1947 2747 
L 2328 2669 
Q 3034 2534 3370 2195 
Q 3706 1856 3706 1288 
Q 3706 609 3251 259 
Q 2797 -91 1919 -91 
Q 1588 -91 1214 -16 
Q 841 59 441 206 
L 441 856 
Q 825 641 1194 531 
Q 1563 422 1919 422 
Q 2459 422 2753 634 
Q 3047 847 3047 1241 
Q 3047 1584 2836 1778 
Q 2625 1972 2144 2069 
L 1759 2144 
Q 1053 2284 737 2584 
Q 422 2884 422 3419 
Q 422 4038 858 4394 
Q 1294 4750 2059 4750 
Q 2388 4750 2728 4690 
Q 3069 4631 3425 4513 
z
" transform="scale(0.015625)"/>
      <path id="DejaVuSans-41" d="M 2188 4044 
L 1331 1722 
L 3047 1722 
L 2188 4044 
z
M 1831 4666 
L 2547 4666 
L 4325 0 
L 3669 0 
L 3244 1197 
L 1141 1197 
L 716 0 
L 50 0 
L 1831 4666 
z
" transform="scale(0.015625)"/>
      <path id="DejaVuSans-46" d="M 628 4666 
L 3309 4666 
L 3309 4134 
L 1259 4134 
L 1259 2759 
L 3109 2759 
L 3109 2228 
L 1259 2228 
L 1259 0 
L 628 0 
L 628 4666 
z
" transform="scale(0.015625)"/>
      <path id="DejaVuSans-45" d="M 628 4666 
L 3578 4666 
L 3578 4134 
L 1259 4134 
L 1259 2753 
L 3481 2753 
L 3481 2222 
L 1259 2222 
L 1259 531 
L 3634 531 
L 3634 0 
L 628 0 
L 628 4666 
z
" transform="scale(0.015625)"/>
      <path id="DejaVuSans-2d" d="M 313 2009 
L 1997 2009 
L 1997 1497 
L 313 1497 
L 313 2009 
z
" transform="scale(0.015625)"/>
      <path id="DejaVuSans-50" d="M 1259 4147 
L 1259 2394 
L 2053 2394 
Q 2494 2394 2734 2622 
Q 2975 2850 2975 3272 
Q 2975 3691 2734 3919 
Q 2494 4147 2053 4147 
L 1259 4147 
z
M 628 4666 
L 2053 4666 
Q 2838 4666 3239 4311 
Q 3641 3956 3641 3272 
Q 3641 2581 3239 2228 
Q 2838 1875 2053 1875 
L 1259 1875 
L 1259 0 
L 628 0 
L 628 4666 
z
" transform="scale(0.015625)"/>
      <path id="DejaVuSans-4e" d="M 628 4666 
L 1478 4666 
L 3547 763 
L 3547 4666 
L 4159 4666 
L 4159 0 
L 3309 0 
L 1241 3903 
L 1241 0 
L 628 0 
L 628 4666 
z
" transform="scale(0.015625)"/>
     </defs>
     <use xlink:href="#DejaVuSans-53"/>
     <use xlink:href="#DejaVuSans-41" x="65.351562"/>
     <use xlink:href="#DejaVuSans-46" x="133.759766"/>
     <use xlink:href="#DejaVuSans-45" x="191.279297"/>
     <use xlink:href="#DejaVuSans-2d" x="254.462891"/>
     <use xlink:href="#DejaVuSans-50" x="290.546875"/>
     <use xlink:href="#DejaVuSans-4e" x="350.849609"/>
     <use xlink:href="#DejaVuSans-53" x="425.654297"/>
    </g>
   </g>
   <g id="legend_2">
    <g id="patch_12">
     <path d="M 1448.611342 276.65 
L 1581.848842 276.65 
Q 1586.248842 276.65 1586.248842 272.25 
L 1586.248842 242.158125 
Q 1586.248842 237.758125 1581.848842 237.758125 
L 1448.611342 237.758125 
Q 1444.211342 237.758125 1444.211342 242.158125 
L 1444.211342 272.25 
Q 1444.211342 276.65 1448.611342 276.65 
z
" style="fill: #ffffff; opacity: 0.2; stroke: #cccccc; stroke-linejoin: miter"/>
    </g>
    <g id="line2d_48">
     <path d="M 1453.011342 255.574688 
L 1475.011342 255.574688 
L 1497.011342 255.574688 
" style="fill: none; stroke: #000000; stroke-width: 5; stroke-linecap: square"/>
    </g>
    <g id="text_40">
     <!-- Y-axis -->
     <g transform="translate(1514.611342 263.274688) scale(0.22 -0.22)">
      <defs>
       <path id="DejaVuSans-59" d="M -13 4666 
L 666 4666 
L 1959 2747 
L 3244 4666 
L 3922 4666 
L 2272 2222 
L 2272 0 
L 1638 0 
L 1638 2222 
L -13 4666 
z
" transform="scale(0.015625)"/>
       <path id="DejaVuSans-78" d="M 3513 3500 
L 2247 1797 
L 3578 0 
L 2900 0 
L 1881 1375 
L 863 0 
L 184 0 
L 1544 1831 
L 300 3500 
L 978 3500 
L 1906 2253 
L 2834 3500 
L 3513 3500 
z
" transform="scale(0.015625)"/>
      </defs>
      <use xlink:href="#DejaVuSans-59"/>
      <use xlink:href="#DejaVuSans-2d" x="49.208984"/>
      <use xlink:href="#DejaVuSans-61" x="85.292969"/>
      <use xlink:href="#DejaVuSans-78" x="146.572266"/>
      <use xlink:href="#DejaVuSans-69" x="205.751953"/>
      <use xlink:href="#DejaVuSans-73" x="233.535156"/>
     </g>
    </g>
   </g>
  </g>
  <g id="axes_4">
   <g id="patch_13">
    <path d="M 1720.236598 287.65 
L 2130.195781 287.65 
L 2130.195781 38.17 
L 1720.236598 38.17 
z
" style="fill: #ffffff"/>
   </g>
   <g id="matplotlib.axis_7">
    <g id="xtick_16">
     <g id="line2d_49">
      <g>
       <use xlink:href="#m95089b6038" x="1720.236598" y="287.65" style="stroke: #000000; stroke-width: 0.8"/>
      </g>
     </g>
     <g id="text_41">
      <!-- 0 -->
      <g transform="translate(1711.647223 315.165781) scale(0.27 -0.27)">
       <use xlink:href="#DejaVuSans-30"/>
      </g>
     </g>
    </g>
    <g id="xtick_17">
     <g id="line2d_50">
      <g>
       <use xlink:href="#m95089b6038" x="1813.409139" y="287.65" style="stroke: #000000; stroke-width: 0.8"/>
      </g>
     </g>
     <g id="text_42">
      <!-- 25 -->
      <g transform="translate(1796.230389 315.165781) scale(0.27 -0.27)">
       <use xlink:href="#DejaVuSans-32"/>
       <use xlink:href="#DejaVuSans-35" x="63.623047"/>
      </g>
     </g>
    </g>
    <g id="xtick_18">
     <g id="line2d_51">
      <g>
       <use xlink:href="#m95089b6038" x="1906.581681" y="287.65" style="stroke: #000000; stroke-width: 0.8"/>
      </g>
     </g>
     <g id="text_43">
      <!-- 50 -->
      <g transform="translate(1889.402931 315.165781) scale(0.27 -0.27)">
       <use xlink:href="#DejaVuSans-35"/>
       <use xlink:href="#DejaVuSans-30" x="63.623047"/>
      </g>
     </g>
    </g>
    <g id="xtick_19">
     <g id="line2d_52">
      <g>
       <use xlink:href="#m95089b6038" x="1999.754223" y="287.65" style="stroke: #000000; stroke-width: 0.8"/>
      </g>
     </g>
     <g id="text_44">
      <!-- 75 -->
      <g transform="translate(1982.575473 315.165781) scale(0.27 -0.27)">
       <use xlink:href="#DejaVuSans-37"/>
       <use xlink:href="#DejaVuSans-35" x="63.623047"/>
      </g>
     </g>
    </g>
    <g id="xtick_20">
     <g id="line2d_53">
      <g>
       <use xlink:href="#m95089b6038" x="2092.926765" y="287.65" style="stroke: #000000; stroke-width: 0.8"/>
      </g>
     </g>
     <g id="text_45">
      <!-- 100 -->
      <g transform="translate(2067.15864 315.165781) scale(0.27 -0.27)">
       <use xlink:href="#DejaVuSans-31"/>
       <use xlink:href="#DejaVuSans-30" x="63.623047"/>
       <use xlink:href="#DejaVuSans-30" x="127.246094"/>
      </g>
     </g>
    </g>
    <g id="text_46">
     <!-- Time [ms] -->
     <g transform="translate(1849.618533 347.57625) scale(0.3 -0.3)">
      <use xlink:href="#DejaVuSans-54"/>
      <use xlink:href="#DejaVuSans-69" x="57.958984"/>
      <use xlink:href="#DejaVuSans-6d" x="85.742188"/>
      <use xlink:href="#DejaVuSans-65" x="183.154297"/>
      <use xlink:href="#DejaVuSans-20" x="244.677734"/>
      <use xlink:href="#DejaVuSans-5b" x="276.464844"/>
      <use xlink:href="#DejaVuSans-6d" x="315.478516"/>
      <use xlink:href="#DejaVuSans-73" x="412.890625"/>
      <use xlink:href="#DejaVuSans-5d" x="464.990234"/>
     </g>
    </g>
   </g>
   <g id="matplotlib.axis_8">
    <g id="ytick_16">
     <g id="line2d_54">
      <g>
       <use xlink:href="#m7460c2d132" x="1720.236598" y="287.65" style="stroke: #000000; stroke-width: 0.8"/>
      </g>
     </g>
     <g id="text_47">
      <!-- 0.00 -->
      <g transform="translate(1653.11941 297.907891) scale(0.27 -0.27)">
       <use xlink:href="#DejaVuSans-30"/>
       <use xlink:href="#DejaVuSans-2e" x="63.623047"/>
       <use xlink:href="#DejaVuSans-30" x="95.410156"/>
       <use xlink:href="#DejaVuSans-30" x="159.033203"/>
      </g>
     </g>
    </g>
    <g id="ytick_17">
     <g id="line2d_55">
      <g>
       <use xlink:href="#m7460c2d132" x="1720.236598" y="225.28" style="stroke: #000000; stroke-width: 0.8"/>
      </g>
     </g>
     <g id="text_48">
      <!-- 0.25 -->
      <g transform="translate(1653.11941 235.537891) scale(0.27 -0.27)">
       <use xlink:href="#DejaVuSans-30"/>
       <use xlink:href="#DejaVuSans-2e" x="63.623047"/>
       <use xlink:href="#DejaVuSans-32" x="95.410156"/>
       <use xlink:href="#DejaVuSans-35" x="159.033203"/>
      </g>
     </g>
    </g>
    <g id="ytick_18">
     <g id="line2d_56">
      <g>
       <use xlink:href="#m7460c2d132" x="1720.236598" y="162.91" style="stroke: #000000; stroke-width: 0.8"/>
      </g>
     </g>
     <g id="text_49">
      <!-- 0.50 -->
      <g transform="translate(1653.11941 173.167891) scale(0.27 -0.27)">
       <use xlink:href="#DejaVuSans-30"/>
       <use xlink:href="#DejaVuSans-2e" x="63.623047"/>
       <use xlink:href="#DejaVuSans-35" x="95.410156"/>
       <use xlink:href="#DejaVuSans-30" x="159.033203"/>
      </g>
     </g>
    </g>
    <g id="ytick_19">
     <g id="line2d_57">
      <g>
       <use xlink:href="#m7460c2d132" x="1720.236598" y="100.54" style="stroke: #000000; stroke-width: 0.8"/>
      </g>
     </g>
     <g id="text_50">
      <!-- 0.75 -->
      <g transform="translate(1653.11941 110.797891) scale(0.27 -0.27)">
       <use xlink:href="#DejaVuSans-30"/>
       <use xlink:href="#DejaVuSans-2e" x="63.623047"/>
       <use xlink:href="#DejaVuSans-37" x="95.410156"/>
       <use xlink:href="#DejaVuSans-35" x="159.033203"/>
      </g>
     </g>
    </g>
    <g id="ytick_20">
     <g id="line2d_58">
      <g>
       <use xlink:href="#m7460c2d132" x="1720.236598" y="38.17" style="stroke: #000000; stroke-width: 0.8"/>
      </g>
     </g>
     <g id="text_51">
      <!-- 1.00 -->
      <g transform="translate(1653.11941 48.427891) scale(0.27 -0.27)">
       <use xlink:href="#DejaVuSans-31"/>
       <use xlink:href="#DejaVuSans-2e" x="63.623047"/>
       <use xlink:href="#DejaVuSans-30" x="95.410156"/>
       <use xlink:href="#DejaVuSans-30" x="159.033203"/>
      </g>
     </g>
    </g>
    <g id="text_52">
     <!-- Threshold [a.u.] -->
     <g transform="translate(1642.880348 281.529531) rotate(-90) scale(0.3 -0.3)">
      <use xlink:href="#DejaVuSans-54"/>
      <use xlink:href="#DejaVuSans-68" x="61.083984"/>
      <use xlink:href="#DejaVuSans-72" x="124.462891"/>
      <use xlink:href="#DejaVuSans-65" x="163.326172"/>
      <use xlink:href="#DejaVuSans-73" x="224.849609"/>
      <use xlink:href="#DejaVuSans-68" x="276.949219"/>
      <use xlink:href="#DejaVuSans-6f" x="340.328125"/>
      <use xlink:href="#DejaVuSans-6c" x="401.509766"/>
      <use xlink:href="#DejaVuSans-64" x="429.292969"/>
      <use xlink:href="#DejaVuSans-20" x="492.769531"/>
      <use xlink:href="#DejaVuSans-5b" x="524.556641"/>
      <use xlink:href="#DejaVuSans-61" x="563.570312"/>
      <use xlink:href="#DejaVuSans-2e" x="624.849609"/>
      <use xlink:href="#DejaVuSans-75" x="656.636719"/>
      <use xlink:href="#DejaVuSans-2e" x="720.015625"/>
      <use xlink:href="#DejaVuSans-5d" x="751.802734"/>
     </g>
    </g>
   </g>
   <g id="line2d_59">
    <path d="M 1720.236598 287.65 
L 2130.195781 287.65 
" clip-path="url(#pec094a3fdd)" style="fill: none; stroke: #d3d3d3; stroke-opacity: 0.8; stroke-width: 1.5; stroke-linecap: square"/>
   </g>
   <g id="line2d_60">
    <path d="M 1720.236598 287.65 
L 1731.417303 287.65 
L 1732.162683 212.223984 
L 1732.908063 152.207786 
L 1733.653444 118.648786 
L 1734.398824 107.555204 
L 1735.889585 101.777471 
L 1737.380345 97.126527 
L 1738.871106 93.381519 
L 1740.361867 90.365054 
L 1741.107247 96.525833 
L 1742.598008 125.665119 
L 1744.088768 150.256086 
L 1745.579529 171.026912 
L 1747.07029 188.586124 
L 1748.56105 203.442614 
L 1750.051811 216.02266 
L 1751.542572 226.683537 
L 1753.033332 235.724941 
L 1754.524093 243.398696 
L 1756.014854 249.916412 
L 1757.505614 255.455985 
L 1758.996375 260.167733 
L 1760.487136 264.177866 
L 1761.232516 267.414749 
L 1761.977896 260.208892 
L 1763.468657 157.219089 
L 1764.959418 100.962782 
L 1765.704798 78.342962 
L 1766.450178 78.053374 
L 1773.903982 77.845294 
L 1785.084687 77.752108 
L 1785.830067 84.802192 
L 1787.320828 115.507281 
L 1788.811588 141.457618 
L 1790.302349 163.408634 
L 1791.79311 181.991313 
L 1793.28387 197.735085 
L 1794.774631 211.083524 
L 1796.265392 222.411293 
L 1797.756152 232.03022 
L 1799.246913 240.204005 
L 1800.737674 247.154484 
L 1802.228434 253.068842 
L 1803.719195 258.104458 
L 1805.209956 262.39496 
L 1806.700716 266.052335 
L 1808.191477 269.171925 
L 1809.682238 271.834535 
L 1811.172998 274.10788 
L 1812.663759 276.05021 
L 1814.15452 277.710233 
L 1815.64528 279.129927 
L 1817.881421 280.884299 
L 1820.117562 282.273104 
L 1822.353703 283.374935 
L 1824.589844 284.248049 
L 1827.571366 285.141672 
L 1828.316746 284.932611 
L 1829.807507 165.571393 
L 1831.298267 106.66564 
L 1832.043648 83.148713 
L 1832.789028 77.723195 
L 1836.51593 77.722973 
L 1837.26131 90.5747 
L 1838.752071 120.647195 
L 1840.242831 146.022335 
L 1841.733592 167.451686 
L 1843.224353 185.564346 
L 1844.715113 200.886495 
L 1846.205874 213.858668 
L 1847.696635 224.850047 
L 1849.187395 234.170321 
L 1850.678156 242.07952 
L 1852.168917 248.796187 
L 1853.659677 254.50417 
L 1855.150438 259.358271 
L 1856.641199 263.488958 
L 1858.131959 267.006283 
L 1859.62272 270.003166 
L 1861.113481 272.558122 
L 1862.604241 274.737558 
L 1864.095002 276.597679 
L 1864.840382 277.423173 
L 1865.585763 248.031483 
L 1866.331143 251.329023 
L 1867.076523 237.960731 
L 1867.821904 191.276747 
L 1868.567284 153.972299 
L 1869.312664 125.915111 
L 1870.058045 107.070742 
L 1870.803425 99.291499 
L 1871.548805 96.73333 
L 1873.039566 93.382762 
L 1874.530327 90.637198 
L 1875.275707 89.455491 
L 1876.021087 102.142485 
L 1877.511848 130.465194 
L 1879.002609 154.360394 
L 1880.493369 174.537905 
L 1881.98413 191.590776 
L 1883.474891 206.015071 
L 1884.965651 218.225898 
L 1886.456412 228.57121 
L 1887.947173 237.342896 
L 1889.437933 244.785812 
L 1890.928694 251.106099 
L 1892.419455 256.476715 
L 1893.910215 261.043503 
L 1895.400976 264.929351 
L 1896.891737 268.238127 
L 1898.382497 271.057121 
L 1899.127878 272.306579 
L 1899.873258 273.966774 
L 1900.618638 271.449283 
L 1902.854779 163.166096 
L 1903.60016 132.337058 
L 1904.34554 106.489639 
L 1905.09092 86.094627 
L 1905.836301 78.014499 
L 1914.780865 77.829575 
L 1922.980048 77.766274 
L 1925.216189 125.04908 
L 1925.96157 159.885323 
L 1926.70695 188.650209 
L 1927.45233 209.962254 
L 1928.197711 190.663838 
L 1929.688471 147.383401 
L 1931.179232 113.433882 
L 1931.179232 113.433882 
" clip-path="url(#pec094a3fdd)" style="fill: none; stroke: #000000; stroke-width: 5; stroke-linecap: square"/>
   </g>
   <g id="line2d_61">
    <path d="M 1720.236598 287.65 
L 2130.195781 287.65 
" clip-path="url(#pec094a3fdd)" style="fill: none; stroke: #000000; stroke-width: 5; stroke-linecap: square"/>
   </g>
   <g id="line2d_62">
    <path d="M 1720.236598 89.22419 
L 1721.727358 86.990958 
L 1723.218119 85.133808 
L 1724.70888 83.587639 
L 1726.19964 82.298918 
L 1727.690401 81.223571 
L 1729.926542 79.932943 
L 1732.162683 78.945181 
L 1734.398824 78.187414 
L 1737.380345 77.441958 
L 1740.361867 76.914803 
L 1744.088768 76.46535 
L 1749.306431 76.083718 
L 1756.014854 75.829283 
L 1767.195559 75.663797 
L 1791.047729 75.597879 
L 1838.00669 75.592046 
L 1838.752071 100.713452 
L 1839.497451 131.733558 
L 1840.242831 120.280814 
L 1840.988212 116.906881 
L 1842.478972 108.971103 
L 1843.969733 102.573378 
L 1845.460494 97.413588 
L 1846.951254 93.250472 
L 1848.442015 89.890039 
L 1849.932776 87.176273 
L 1851.423536 84.983666 
L 1852.914297 83.211226 
L 1854.405058 81.777665 
L 1855.895818 80.617536 
L 1857.386579 79.678127 
L 1859.62272 78.59227 
L 1861.858861 77.799157 
L 1862.604241 110.469449 
L 1863.349622 134.110425 
L 1864.095002 117.686509 
L 1864.840382 117.329552 
L 1866.331143 109.330286 
L 1867.821904 102.878772 
L 1869.312664 97.673379 
L 1870.803425 93.471574 
L 1872.294186 90.078299 
L 1873.784946 87.336638 
L 1875.275707 85.120326 
L 1876.766468 83.327729 
L 1878.257228 81.87702 
L 1879.747989 80.702296 
L 1881.23875 79.75046 
L 1883.474891 78.649326 
L 1885.711032 77.84419 
L 1887.947173 77.254512 
L 1890.928694 76.704865 
L 1894.655596 76.269669 
L 1899.873258 75.934226 
L 1907.327061 75.724087 
L 1920.743907 75.617583 
L 1931.179232 75.599572 
L 1931.179232 75.599572 
" clip-path="url(#pec094a3fdd)" style="fill: none; stroke-dasharray: 22.2,9.6; stroke-dashoffset: 0; stroke: #800080; stroke-width: 6"/>
   </g>
   <g id="line2d_63">
    <path clip-path="url(#pec094a3fdd)" style="fill: none; stroke-dasharray: 11.1,4.8; stroke-dashoffset: 0; stroke: #800080; stroke-width: 3"/>
   </g>
   <g id="line2d_64">
    <path d="M 1720.236598 75.592 
L 2130.195781 75.592 
" clip-path="url(#pec094a3fdd)" style="fill: none; stroke-dasharray: 5,8.25; stroke-dashoffset: 0; stroke: #800080; stroke-width: 5"/>
   </g>
   <g id="patch_14">
    <path d="M 1720.236598 287.65 
L 1720.236598 38.17 
" style="fill: none; stroke: #000000; stroke-width: 0.8; stroke-linejoin: miter; stroke-linecap: square"/>
   </g>
   <g id="patch_15">
    <path d="M 1720.236598 287.65 
L 2130.195781 287.65 
" style="fill: none; stroke: #000000; stroke-width: 0.8; stroke-linejoin: miter; stroke-linecap: square"/>
   </g>
   <g id="text_53">
    <!-- SAFE-CNS -->
    <g transform="translate(1845.428689 31.515) scale(0.32 -0.32)">
     <defs>
      <path id="DejaVuSans-43" d="M 4122 4306 
L 4122 3641 
Q 3803 3938 3442 4084 
Q 3081 4231 2675 4231 
Q 1875 4231 1450 3742 
Q 1025 3253 1025 2328 
Q 1025 1406 1450 917 
Q 1875 428 2675 428 
Q 3081 428 3442 575 
Q 3803 722 4122 1019 
L 4122 359 
Q 3791 134 3420 21 
Q 3050 -91 2638 -91 
Q 1578 -91 968 557 
Q 359 1206 359 2328 
Q 359 3453 968 4101 
Q 1578 4750 2638 4750 
Q 3056 4750 3426 4639 
Q 3797 4528 4122 4306 
z
" transform="scale(0.015625)"/>
     </defs>
     <use xlink:href="#DejaVuSans-53"/>
     <use xlink:href="#DejaVuSans-41" x="65.351562"/>
     <use xlink:href="#DejaVuSans-46" x="133.759766"/>
     <use xlink:href="#DejaVuSans-45" x="191.279297"/>
     <use xlink:href="#DejaVuSans-2d" x="254.462891"/>
     <use xlink:href="#DejaVuSans-43" x="290.546875"/>
     <use xlink:href="#DejaVuSans-4e" x="360.371094"/>
     <use xlink:href="#DejaVuSans-53" x="435.175781"/>
    </g>
   </g>
   <g id="legend_3">
    <g id="patch_16">
     <path d="M 1981.558281 276.65 
L 2114.795781 276.65 
Q 2119.195781 276.65 2119.195781 272.25 
L 2119.195781 242.158125 
Q 2119.195781 237.758125 2114.795781 237.758125 
L 1981.558281 237.758125 
Q 1977.158281 237.758125 1977.158281 242.158125 
L 1977.158281 272.25 
Q 1977.158281 276.65 1981.558281 276.65 
z
" style="fill: #ffffff; opacity: 0.2; stroke: #cccccc; stroke-linejoin: miter"/>
    </g>
    <g id="line2d_65">
     <path d="M 1985.958281 255.574688 
L 2007.958281 255.574688 
L 2029.958281 255.574688 
" style="fill: none; stroke: #000000; stroke-width: 5; stroke-linecap: square"/>
    </g>
    <g id="text_54">
     <!-- Y-axis -->
     <g transform="translate(2047.558281 263.274688) scale(0.22 -0.22)">
      <use xlink:href="#DejaVuSans-59"/>
      <use xlink:href="#DejaVuSans-2d" x="49.208984"/>
      <use xlink:href="#DejaVuSans-61" x="85.292969"/>
      <use xlink:href="#DejaVuSans-78" x="146.572266"/>
      <use xlink:href="#DejaVuSans-69" x="205.751953"/>
      <use xlink:href="#DejaVuSans-73" x="233.535156"/>
     </g>
    </g>
   </g>
  </g>
 </g>
 <defs>
  <clipPath id="p81a5eca45b">
   <rect x="121.395781" y="38.17" width="409.959184" height="249.48"/>
  </clipPath>
  <clipPath id="p16149ede74">
   <rect x="654.34272" y="38.17" width="409.959184" height="249.48"/>
  </clipPath>
  <clipPath id="p5b6cd4eff4">
   <rect x="1187.289659" y="38.17" width="409.959184" height="249.48"/>
  </clipPath>
  <clipPath id="pec094a3fdd">
   <rect x="1720.236598" y="38.17" width="409.959184" height="249.48"/>
  </clipPath>
 </defs>
</svg>
