<?xml version="1.0" encoding="utf-8" standalone="no"?>
<!DOCTYPE svg PUBLIC "-//W3C//DTD SVG 1.1//EN"
  "http://www.w3.org/Graphics/SVG/1.1/DTD/svg11.dtd">
<svg xmlns:xlink="http://www.w3.org/1999/xlink" width="2639.595781pt" height="361.015312pt" viewBox="0 0 2639.595781 361.015312" xmlns="http://www.w3.org/2000/svg" version="1.1">
 <metadata>
  <rdf:RDF xmlns:dc="http://purl.org/dc/elements/1.1/" xmlns:cc="http://creativecommons.org/ns#" xmlns:rdf="http://www.w3.org/1999/02/22-rdf-syntax-ns#">
   <cc:Work>
    <dc:type rdf:resource="http://purl.org/dc/dcmitype/StillImage"/>
    <dc:date>2026-02-10T16:03:23.210843</dc:date>
    <dc:format>image/svg+xml</dc:format>
    <dc:creator>
     <cc:Agent>
      <dc:title>Matplotlib v3.9.0, https://matplotlib.org/</dc:title>
     </cc:Agent>
    </dc:creator>
   </cc:Work>
  </rdf:RDF>
 </metadata>
 <defs>
  <style type="text/css">*{stroke-linejoin: round; stroke-linecap: butt}</style>
 </defs>
 <g id="figure_1">
  <g id="patch_1">
   <path d="M 0 361.015312 
L 2639.595781 361.015312 
L 2639.595781 0 
L 0 0 
z
" style="fill: #ffffff"/>
  </g>
  <g id="axes_1">
   <g id="patch_2">
    <path d="M 121.395781 287.65 
L 526.395781 287.65 
L 526.395781 38.17 
L 121.395781 38.17 
z
" style="fill: #ffffff"/>
   </g>
   <g id="PolyCollection_1">
    <defs>
     <path id="m3fadfb5a37" d="M 121.395781 -198.105312 
L 121.395781 -198.105312 
L 122.070781 -198.105312 
L 122.745781 -198.105312 
L 123.420781 -198.105312 
L 124.095781 -198.105312 
L 124.770781 -198.105312 
L 125.445781 -198.105312 
L 126.120781 -198.105312 
L 126.795781 -198.105312 
L 127.470781 -198.105312 
L 128.145781 -198.105312 
L 128.820781 -198.105312 
L 129.495781 -198.105312 
L 130.170781 -198.105312 
L 130.845781 -198.105312 
L 131.520781 -198.105312 
L 132.195781 -198.105312 
L 132.870781 -198.105312 
L 133.545781 -198.105312 
L 134.220781 -198.105312 
L 134.895781 -198.105312 
L 135.570781 -198.105312 
L 136.245781 -198.105312 
L 136.920781 -198.105312 
L 137.595781 -198.105312 
L 138.270781 -198.105312 
L 138.945781 -198.105312 
L 139.620781 -198.105312 
L 140.295781 -198.105312 
L 140.970781 -198.105312 
L 141.645781 -198.105312 
L 142.320781 -198.105312 
L 142.995781 -198.105312 
L 143.670781 -198.105312 
L 144.345781 -198.105312 
L 145.020781 -198.105312 
L 145.695781 -198.105312 
L 146.370781 -198.105312 
L 147.045781 -198.105312 
L 147.720781 -198.105312 
L 148.395781 -198.105312 
L 149.070781 -198.105312 
L 149.745781 -198.105312 
L 150.420781 -198.105312 
L 151.095781 -198.105312 
L 151.770781 -198.105312 
L 152.445781 -198.105312 
L 153.120781 -198.105312 
L 153.795781 -198.105312 
L 154.470781 -198.105312 
L 155.145781 -198.105312 
L 155.820781 -198.105312 
L 156.495781 -198.105312 
L 157.170781 -198.105312 
L 157.845781 -198.105312 
L 158.520781 -198.105312 
L 159.195781 -198.105312 
L 159.870781 -198.105312 
L 160.545781 -198.105312 
L 161.220781 -198.105312 
L 161.895781 -198.105312 
L 162.570781 -198.105312 
L 163.245781 -198.105312 
L 163.920781 -198.105312 
L 164.595781 -198.105312 
L 165.270781 -198.105312 
L 165.945781 -198.105312 
L 166.620781 -198.105312 
L 167.295781 -198.105312 
L 167.970781 -198.105312 
L 168.645781 -198.105312 
L 169.320781 -198.105312 
L 169.995781 -198.105312 
L 170.670781 -198.105312 
L 171.345781 -198.105312 
L 172.020781 -198.105312 
L 172.695781 -198.105312 
L 173.370781 -198.105312 
L 174.045781 -198.105312 
L 174.720781 -198.105312 
L 175.395781 -198.105312 
L 176.070781 -198.105312 
L 176.745781 -198.105312 
L 177.420781 -198.105312 
L 178.095781 -198.105312 
L 178.770781 -198.105312 
L 179.445781 -198.105312 
L 180.120781 -198.105312 
L 180.795781 -198.105312 
L 181.470781 -198.105312 
L 182.145781 -198.105312 
L 182.820781 -198.105312 
L 183.495781 -198.105312 
L 184.170781 -198.105312 
L 184.845781 -198.105312 
L 185.520781 -198.105312 
L 186.195781 -198.105312 
L 186.870781 -198.105312 
L 187.545781 -198.105312 
L 188.220781 -198.105312 
L 188.895781 -198.105312 
L 189.570781 -198.105312 
L 190.245781 -198.105312 
L 190.920781 -198.105312 
L 191.595781 -198.105312 
L 192.270781 -198.105312 
L 192.945781 -198.105312 
L 193.620781 -198.105312 
L 194.295781 -198.105312 
L 194.970781 -198.105312 
L 195.645781 -198.105312 
L 196.320781 -198.105312 
L 196.995781 -198.105312 
L 197.670781 -198.105312 
L 198.345781 -198.105312 
L 199.020781 -198.105312 
L 199.695781 -198.105312 
L 200.370781 -198.105312 
L 201.045781 -198.105312 
L 201.720781 -198.105312 
L 202.395781 -198.105312 
L 203.070781 -198.105312 
L 203.745781 -198.105312 
L 204.420781 -198.105312 
L 205.095781 -198.105312 
L 205.770781 -198.105312 
L 206.445781 -198.105312 
L 207.120781 -198.105312 
L 207.795781 -198.105312 
L 208.470781 -198.105312 
L 209.145781 -198.105312 
L 209.820781 -198.105312 
L 210.495781 -198.105312 
L 211.170781 -198.105312 
L 211.845781 -198.105312 
L 212.520781 -198.105312 
L 213.195781 -198.105312 
L 213.870781 -198.105312 
L 214.545781 -198.105312 
L 215.220781 -198.105312 
L 215.895781 -198.105312 
L 216.570781 -198.105312 
L 217.245781 -198.105312 
L 217.920781 -198.105312 
L 218.595781 -198.105312 
L 219.270781 -198.105312 
L 219.945781 -198.105312 
L 220.620781 -198.105312 
L 221.295781 -198.105312 
L 221.970781 -198.105312 
L 222.645781 -198.105312 
L 223.320781 -198.105312 
L 223.995781 -198.105312 
L 224.670781 -198.105312 
L 225.345781 -198.105312 
L 226.020781 -198.105312 
L 226.695781 -198.105312 
L 227.370781 -198.105312 
L 228.045781 -198.105312 
L 228.720781 -198.105312 
L 229.395781 -198.105312 
L 230.070781 -198.105312 
L 230.745781 -198.105312 
L 231.420781 -198.105312 
L 232.095781 -198.105312 
L 232.770781 -198.105312 
L 233.445781 -198.105312 
L 234.120781 -198.105312 
L 234.795781 -198.105312 
L 235.470781 -198.105312 
L 236.145781 -198.105312 
L 236.820781 -198.105312 
L 237.495781 -198.105312 
L 238.170781 -198.105312 
L 238.845781 -198.105312 
L 239.520781 -198.105312 
L 240.195781 -198.105312 
L 240.870781 -198.105312 
L 241.545781 -198.105312 
L 242.220781 -198.105312 
L 242.895781 -198.105312 
L 243.570781 -198.105312 
L 244.245781 -198.105312 
L 244.920781 -198.105312 
L 245.595781 -198.105312 
L 246.270781 -198.105312 
L 246.945781 -198.105312 
L 247.620781 -198.105312 
L 248.295781 -198.105312 
L 248.970781 -198.105312 
L 249.645781 -198.105312 
L 250.320781 -198.105312 
L 250.995781 -198.105312 
L 251.670781 -198.105312 
L 252.345781 -198.105312 
L 252.345781 -198.105312 
L 252.345781 -198.105312 
L 251.670781 -203.31768 
L 250.995781 -208.323407 
L 250.320781 -212.956693 
L 249.645781 -217.538983 
L 248.970781 -222.099305 
L 248.295781 -226.899671 
L 247.620781 -234.576893 
L 246.945781 -242.342191 
L 246.270781 -250.232134 
L 245.595781 -258.285536 
L 244.920781 -266.547874 
L 244.245781 -275.075548 
L 243.570781 -283.935394 
L 242.895781 -296.081213 
L 242.220781 -311.031079 
L 241.545781 -314.678567 
L 240.870781 -314.688509 
L 240.195781 -314.715738 
L 239.520781 -314.722731 
L 238.845781 -314.734392 
L 238.170781 -314.735001 
L 237.495781 -314.736455 
L 236.820781 -314.737613 
L 236.145781 -314.739125 
L 235.470781 -314.736928 
L 234.795781 -314.735935 
L 234.120781 -313.478385 
L 233.445781 -308.986589 
L 232.770781 -304.486403 
L 232.095781 -299.987897 
L 231.420781 -295.475994 
L 230.745781 -290.959826 
L 230.070781 -286.430317 
L 229.395781 -281.896393 
L 228.720781 -277.350457 
L 228.045781 -272.792898 
L 227.370781 -268.224483 
L 226.695781 -263.640659 
L 226.020781 -259.042444 
L 225.345781 -253.818686 
L 224.670781 -245.073572 
L 223.995781 -235.989137 
L 223.320781 -226.38786 
L 222.645781 -215.895749 
L 221.970781 -198.105312 
L 221.295781 -198.105312 
L 220.620781 -198.105312 
L 219.945781 -198.105312 
L 219.270781 -198.105312 
L 218.595781 -198.105312 
L 217.920781 -198.105312 
L 217.245781 -198.105312 
L 216.570781 -198.105312 
L 215.895781 -198.105312 
L 215.220781 -198.105312 
L 214.545781 -198.105312 
L 213.870781 -198.105312 
L 213.195781 -198.105312 
L 212.520781 -198.105312 
L 211.845781 -198.105312 
L 211.170781 -198.105312 
L 210.495781 -198.105312 
L 209.820781 -198.105312 
L 209.145781 -198.105312 
L 208.470781 -198.105312 
L 207.795781 -198.105312 
L 207.120781 -198.105312 
L 206.445781 -198.105312 
L 205.770781 -198.105312 
L 205.095781 -198.105312 
L 204.420781 -198.105312 
L 203.745781 -198.105312 
L 203.070781 -198.105312 
L 202.395781 -198.105312 
L 201.720781 -198.105312 
L 201.045781 -198.105312 
L 200.370781 -198.105312 
L 199.695781 -198.105312 
L 199.020781 -198.105312 
L 198.345781 -198.105312 
L 197.670781 -189.547947 
L 196.995781 -181.151279 
L 196.320781 -172.840381 
L 195.645781 -164.478829 
L 194.970781 -155.875933 
L 194.295781 -146.573823 
L 193.620781 -136.639357 
L 192.945781 -124.04593 
L 192.270781 -111.952586 
L 191.595781 -108.584489 
L 190.920781 -108.710615 
L 190.245781 -108.71085 
L 189.570781 -108.816733 
L 188.895781 -108.819149 
L 188.220781 -108.926893 
L 187.545781 -108.937854 
L 186.870781 -110.432791 
L 186.195781 -114.844197 
L 185.520781 -119.166409 
L 184.845781 -123.557392 
L 184.170781 -127.90968 
L 183.495781 -132.2671 
L 182.820781 -136.63608 
L 182.145781 -141.002489 
L 181.470781 -145.368085 
L 180.795781 -149.733063 
L 180.120781 -154.106223 
L 179.445781 -158.478052 
L 178.770781 -162.857762 
L 178.095781 -167.226557 
L 177.420781 -171.606378 
L 176.745781 -176.005328 
L 176.070781 -180.377918 
L 175.395781 -184.780422 
L 174.720781 -189.160608 
L 174.045781 -193.569404 
L 173.370781 -197.965081 
L 172.695781 -202.378987 
L 172.020781 -206.780727 
L 171.345781 -211.204465 
L 170.670781 -215.622407 
L 169.995781 -220.053348 
L 169.320781 -224.475916 
L 168.645781 -228.915024 
L 167.970781 -233.565451 
L 167.295781 -239.804969 
L 166.620781 -248.244489 
L 165.945781 -257.414813 
L 165.270781 -266.71366 
L 164.595781 -275.985178 
L 163.920781 -284.818028 
L 163.245781 -293.31058 
L 162.570781 -300.933541 
L 161.895781 -307.296687 
L 161.220781 -311.550299 
L 160.545781 -313.110021 
L 159.870781 -313.110558 
L 159.195781 -313.16849 
L 158.520781 -313.222327 
L 157.845781 -313.283885 
L 157.170781 -313.343644 
L 156.495781 -313.403729 
L 155.820781 -313.451184 
L 155.145781 -313.526284 
L 154.470781 -313.536706 
L 153.795781 -313.629673 
L 153.120781 -313.629846 
L 152.445781 -313.759891 
L 151.770781 -313.742186 
L 151.095781 -313.870107 
L 150.420781 -313.820062 
L 149.745781 -313.982992 
L 149.070781 -313.893754 
L 148.395781 -314.076926 
L 147.720781 -313.964493 
L 147.045781 -314.164454 
L 146.370781 -314.023208 
L 145.695781 -314.235693 
L 145.020781 -314.073198 
L 144.345781 -314.317823 
L 143.670781 -314.126201 
L 142.995781 -314.450186 
L 142.320781 -310.01186 
L 141.645781 -305.534044 
L 140.970781 -301.155163 
L 140.295781 -296.709234 
L 139.620781 -292.009514 
L 138.945781 -287.596159 
L 138.270781 -282.868364 
L 137.595781 -278.427892 
L 136.920781 -273.814326 
L 136.245781 -269.180231 
L 135.570781 -264.526465 
L 134.895781 -259.849661 
L 134.220781 -255.14664 
L 133.545781 -249.742732 
L 132.870781 -237.906237 
L 132.195781 -222.68093 
L 131.520781 -198.105312 
L 130.845781 -198.105312 
L 130.170781 -198.105312 
L 129.495781 -198.105312 
L 128.820781 -198.105312 
L 128.145781 -198.105312 
L 127.470781 -198.105312 
L 126.795781 -198.105312 
L 126.120781 -198.105312 
L 125.445781 -198.105312 
L 124.770781 -198.105312 
L 124.095781 -198.105312 
L 123.420781 -198.105312 
L 122.745781 -198.105312 
L 122.070781 -198.105312 
L 121.395781 -198.105312 
z
" style="stroke: #0173b2; stroke-opacity: 0.75"/>
    </defs>
    <g clip-path="url(#p251b7b8b4c)">
     <use xlink:href="#m3fadfb5a37" x="0" y="361.015312" style="fill: #0173b2; fill-opacity: 0.75; stroke: #0173b2; stroke-opacity: 0.75"/>
    </g>
   </g>
   <g id="matplotlib.axis_1">
    <g id="xtick_1">
     <g id="line2d_1">
      <defs>
       <path id="m4b782182be" d="M 0 0 
L 0 3.5 
" style="stroke: #000000; stroke-width: 0.8"/>
      </defs>
      <g>
       <use xlink:href="#m4b782182be" x="121.395781" y="287.65" style="stroke: #000000; stroke-width: 0.8"/>
      </g>
     </g>
     <g id="text_1">
      <!-- 0 -->
      <g transform="translate(112.806406 315.165781) scale(0.27 -0.27)">
       <defs>
        <path id="DejaVuSans-30" d="M 2034 4250 
Q 1547 4250 1301 3770 
Q 1056 3291 1056 2328 
Q 1056 1369 1301 889 
Q 1547 409 2034 409 
Q 2525 409 2770 889 
Q 3016 1369 3016 2328 
Q 3016 3291 2770 3770 
Q 2525 4250 2034 4250 
z
M 2034 4750 
Q 2819 4750 3233 4129 
Q 3647 3509 3647 2328 
Q 3647 1150 3233 529 
Q 2819 -91 2034 -91 
Q 1250 -91 836 529 
Q 422 1150 422 2328 
Q 422 3509 836 4129 
Q 1250 4750 2034 4750 
z
" transform="scale(0.015625)"/>
       </defs>
       <use xlink:href="#DejaVuSans-30"/>
      </g>
     </g>
    </g>
    <g id="xtick_2">
     <g id="line2d_2">
      <g>
       <use xlink:href="#m4b782182be" x="205.770781" y="287.65" style="stroke: #000000; stroke-width: 0.8"/>
      </g>
     </g>
     <g id="text_2">
      <!-- 25 -->
      <g transform="translate(188.592031 315.165781) scale(0.27 -0.27)">
       <defs>
        <path id="DejaVuSans-32" d="M 1228 531 
L 3431 531 
L 3431 0 
L 469 0 
L 469 531 
Q 828 903 1448 1529 
Q 2069 2156 2228 2338 
Q 2531 2678 2651 2914 
Q 2772 3150 2772 3378 
Q 2772 3750 2511 3984 
Q 2250 4219 1831 4219 
Q 1534 4219 1204 4116 
Q 875 4013 500 3803 
L 500 4441 
Q 881 4594 1212 4672 
Q 1544 4750 1819 4750 
Q 2544 4750 2975 4387 
Q 3406 4025 3406 3419 
Q 3406 3131 3298 2873 
Q 3191 2616 2906 2266 
Q 2828 2175 2409 1742 
Q 1991 1309 1228 531 
z
" transform="scale(0.015625)"/>
        <path id="DejaVuSans-35" d="M 691 4666 
L 3169 4666 
L 3169 4134 
L 1269 4134 
L 1269 2991 
Q 1406 3038 1543 3061 
Q 1681 3084 1819 3084 
Q 2600 3084 3056 2656 
Q 3513 2228 3513 1497 
Q 3513 744 3044 326 
Q 2575 -91 1722 -91 
Q 1428 -91 1123 -41 
Q 819 9 494 109 
L 494 744 
Q 775 591 1075 516 
Q 1375 441 1709 441 
Q 2250 441 2565 725 
Q 2881 1009 2881 1497 
Q 2881 1984 2565 2268 
Q 2250 2553 1709 2553 
Q 1456 2553 1204 2497 
Q 953 2441 691 2322 
L 691 4666 
z
" transform="scale(0.015625)"/>
       </defs>
       <use xlink:href="#DejaVuSans-32"/>
       <use xlink:href="#DejaVuSans-35" x="63.623047"/>
      </g>
     </g>
    </g>
    <g id="xtick_3">
     <g id="line2d_3">
      <g>
       <use xlink:href="#m4b782182be" x="290.145781" y="287.65" style="stroke: #000000; stroke-width: 0.8"/>
      </g>
     </g>
     <g id="text_3">
      <!-- 50 -->
      <g transform="translate(272.967031 315.165781) scale(0.27 -0.27)">
       <use xlink:href="#DejaVuSans-35"/>
       <use xlink:href="#DejaVuSans-30" x="63.623047"/>
      </g>
     </g>
    </g>
    <g id="xtick_4">
     <g id="line2d_4">
      <g>
       <use xlink:href="#m4b782182be" x="374.520781" y="287.65" style="stroke: #000000; stroke-width: 0.8"/>
      </g>
     </g>
     <g id="text_4">
      <!-- 75 -->
      <g transform="translate(357.342031 315.165781) scale(0.27 -0.27)">
       <defs>
        <path id="DejaVuSans-37" d="M 525 4666 
L 3525 4666 
L 3525 4397 
L 1831 0 
L 1172 0 
L 2766 4134 
L 525 4134 
L 525 4666 
z
" transform="scale(0.015625)"/>
       </defs>
       <use xlink:href="#DejaVuSans-37"/>
       <use xlink:href="#DejaVuSans-35" x="63.623047"/>
      </g>
     </g>
    </g>
    <g id="xtick_5">
     <g id="line2d_5">
      <g>
       <use xlink:href="#m4b782182be" x="458.895781" y="287.65" style="stroke: #000000; stroke-width: 0.8"/>
      </g>
     </g>
     <g id="text_5">
      <!-- 100 -->
      <g transform="translate(433.127656 315.165781) scale(0.27 -0.27)">
       <defs>
        <path id="DejaVuSans-31" d="M 794 531 
L 1825 531 
L 1825 4091 
L 703 3866 
L 703 4441 
L 1819 4666 
L 2450 4666 
L 2450 531 
L 3481 531 
L 3481 0 
L 794 0 
L 794 531 
z
" transform="scale(0.015625)"/>
       </defs>
       <use xlink:href="#DejaVuSans-31"/>
       <use xlink:href="#DejaVuSans-30" x="63.623047"/>
       <use xlink:href="#DejaVuSans-30" x="127.246094"/>
      </g>
     </g>
    </g>
    <g id="text_6">
     <!-- Time [ms] -->
     <g transform="translate(248.298125 347.57625) scale(0.3 -0.3)">
      <defs>
       <path id="DejaVuSans-54" d="M -19 4666 
L 3928 4666 
L 3928 4134 
L 2272 4134 
L 2272 0 
L 1638 0 
L 1638 4134 
L -19 4134 
L -19 4666 
z
" transform="scale(0.015625)"/>
       <path id="DejaVuSans-69" d="M 603 3500 
L 1178 3500 
L 1178 0 
L 603 0 
L 603 3500 
z
M 603 4863 
L 1178 4863 
L 1178 4134 
L 603 4134 
L 603 4863 
z
" transform="scale(0.015625)"/>
       <path id="DejaVuSans-6d" d="M 3328 2828 
Q 3544 3216 3844 3400 
Q 4144 3584 4550 3584 
Q 5097 3584 5394 3201 
Q 5691 2819 5691 2113 
L 5691 0 
L 5113 0 
L 5113 2094 
Q 5113 2597 4934 2840 
Q 4756 3084 4391 3084 
Q 3944 3084 3684 2787 
Q 3425 2491 3425 1978 
L 3425 0 
L 2847 0 
L 2847 2094 
Q 2847 2600 2669 2842 
Q 2491 3084 2119 3084 
Q 1678 3084 1418 2786 
Q 1159 2488 1159 1978 
L 1159 0 
L 581 0 
L 581 3500 
L 1159 3500 
L 1159 2956 
Q 1356 3278 1631 3431 
Q 1906 3584 2284 3584 
Q 2666 3584 2933 3390 
Q 3200 3197 3328 2828 
z
" transform="scale(0.015625)"/>
       <path id="DejaVuSans-65" d="M 3597 1894 
L 3597 1613 
L 953 1613 
Q 991 1019 1311 708 
Q 1631 397 2203 397 
Q 2534 397 2845 478 
Q 3156 559 3463 722 
L 3463 178 
Q 3153 47 2828 -22 
Q 2503 -91 2169 -91 
Q 1331 -91 842 396 
Q 353 884 353 1716 
Q 353 2575 817 3079 
Q 1281 3584 2069 3584 
Q 2775 3584 3186 3129 
Q 3597 2675 3597 1894 
z
M 3022 2063 
Q 3016 2534 2758 2815 
Q 2500 3097 2075 3097 
Q 1594 3097 1305 2825 
Q 1016 2553 972 2059 
L 3022 2063 
z
" transform="scale(0.015625)"/>
       <path id="DejaVuSans-20" transform="scale(0.015625)"/>
       <path id="DejaVuSans-5b" d="M 550 4863 
L 1875 4863 
L 1875 4416 
L 1125 4416 
L 1125 -397 
L 1875 -397 
L 1875 -844 
L 550 -844 
L 550 4863 
z
" transform="scale(0.015625)"/>
       <path id="DejaVuSans-73" d="M 2834 3397 
L 2834 2853 
Q 2591 2978 2328 3040 
Q 2066 3103 1784 3103 
Q 1356 3103 1142 2972 
Q 928 2841 928 2578 
Q 928 2378 1081 2264 
Q 1234 2150 1697 2047 
L 1894 2003 
Q 2506 1872 2764 1633 
Q 3022 1394 3022 966 
Q 3022 478 2636 193 
Q 2250 -91 1575 -91 
Q 1294 -91 989 -36 
Q 684 19 347 128 
L 347 722 
Q 666 556 975 473 
Q 1284 391 1588 391 
Q 1994 391 2212 530 
Q 2431 669 2431 922 
Q 2431 1156 2273 1281 
Q 2116 1406 1581 1522 
L 1381 1569 
Q 847 1681 609 1914 
Q 372 2147 372 2553 
Q 372 3047 722 3315 
Q 1072 3584 1716 3584 
Q 2034 3584 2315 3537 
Q 2597 3491 2834 3397 
z
" transform="scale(0.015625)"/>
       <path id="DejaVuSans-5d" d="M 1947 4863 
L 1947 -844 
L 622 -844 
L 622 -397 
L 1369 -397 
L 1369 4416 
L 622 4416 
L 622 4863 
L 1947 4863 
z
" transform="scale(0.015625)"/>
      </defs>
      <use xlink:href="#DejaVuSans-54"/>
      <use xlink:href="#DejaVuSans-69" x="57.958984"/>
      <use xlink:href="#DejaVuSans-6d" x="85.742188"/>
      <use xlink:href="#DejaVuSans-65" x="183.154297"/>
      <use xlink:href="#DejaVuSans-20" x="244.677734"/>
      <use xlink:href="#DejaVuSans-5b" x="276.464844"/>
      <use xlink:href="#DejaVuSans-6d" x="315.478516"/>
      <use xlink:href="#DejaVuSans-73" x="412.890625"/>
      <use xlink:href="#DejaVuSans-5d" x="464.990234"/>
     </g>
    </g>
   </g>
   <g id="matplotlib.axis_2">
    <g id="ytick_1">
     <g id="line2d_6">
      <defs>
       <path id="m34fd80a7f2" d="M 0 0 
L -3.5 0 
" style="stroke: #000000; stroke-width: 0.8"/>
      </defs>
      <g>
       <use xlink:href="#m34fd80a7f2" x="121.395781" y="287.029403" style="stroke: #000000; stroke-width: 0.8"/>
      </g>
     </g>
     <g id="text_7">
      <!-- −200 -->
      <g transform="translate(40.234375 297.287294) scale(0.27 -0.27)">
       <defs>
        <path id="DejaVuSans-2212" d="M 678 2272 
L 4684 2272 
L 4684 1741 
L 678 1741 
L 678 2272 
z
" transform="scale(0.015625)"/>
       </defs>
       <use xlink:href="#DejaVuSans-2212"/>
       <use xlink:href="#DejaVuSans-32" x="83.789062"/>
       <use xlink:href="#DejaVuSans-30" x="147.412109"/>
       <use xlink:href="#DejaVuSans-30" x="211.035156"/>
      </g>
     </g>
    </g>
    <g id="ytick_2">
     <g id="line2d_7">
      <g>
       <use xlink:href="#m34fd80a7f2" x="121.395781" y="224.969701" style="stroke: #000000; stroke-width: 0.8"/>
      </g>
     </g>
     <g id="text_8">
      <!-- −100 -->
      <g transform="translate(40.234375 235.227592) scale(0.27 -0.27)">
       <use xlink:href="#DejaVuSans-2212"/>
       <use xlink:href="#DejaVuSans-31" x="83.789062"/>
       <use xlink:href="#DejaVuSans-30" x="147.412109"/>
       <use xlink:href="#DejaVuSans-30" x="211.035156"/>
      </g>
     </g>
    </g>
    <g id="ytick_3">
     <g id="line2d_8">
      <g>
       <use xlink:href="#m34fd80a7f2" x="121.395781" y="162.91" style="stroke: #000000; stroke-width: 0.8"/>
      </g>
     </g>
     <g id="text_9">
      <!-- 0 -->
      <g transform="translate(97.217031 173.167891) scale(0.27 -0.27)">
       <use xlink:href="#DejaVuSans-30"/>
      </g>
     </g>
    </g>
    <g id="ytick_4">
     <g id="line2d_9">
      <g>
       <use xlink:href="#m34fd80a7f2" x="121.395781" y="100.850299" style="stroke: #000000; stroke-width: 0.8"/>
      </g>
     </g>
     <g id="text_10">
      <!-- 100 -->
      <g transform="translate(62.859531 111.108189) scale(0.27 -0.27)">
       <use xlink:href="#DejaVuSans-31"/>
       <use xlink:href="#DejaVuSans-30" x="63.623047"/>
       <use xlink:href="#DejaVuSans-30" x="127.246094"/>
      </g>
     </g>
    </g>
    <g id="ytick_5">
     <g id="line2d_10">
      <g>
       <use xlink:href="#m34fd80a7f2" x="121.395781" y="38.790597" style="stroke: #000000; stroke-width: 0.8"/>
      </g>
     </g>
     <g id="text_11">
      <!-- 200 -->
      <g transform="translate(62.859531 49.048488) scale(0.27 -0.27)">
       <use xlink:href="#DejaVuSans-32"/>
       <use xlink:href="#DejaVuSans-30" x="63.623047"/>
       <use xlink:href="#DejaVuSans-30" x="127.246094"/>
      </g>
     </g>
    </g>
    <g id="text_12">
     <!-- mT/m -->
     <g transform="translate(29.995313 206.346719) rotate(-90) scale(0.3 -0.3)">
      <defs>
       <path id="DejaVuSans-2f" d="M 1625 4666 
L 2156 4666 
L 531 -594 
L 0 -594 
L 1625 4666 
z
" transform="scale(0.015625)"/>
      </defs>
      <use xlink:href="#DejaVuSans-6d"/>
      <use xlink:href="#DejaVuSans-54" x="97.412109"/>
      <use xlink:href="#DejaVuSans-2f" x="158.496094"/>
      <use xlink:href="#DejaVuSans-6d" x="192.1875"/>
     </g>
    </g>
   </g>
   <g id="line2d_11">
    <path d="M 121.395781 162.91 
L 526.395781 162.91 
" clip-path="url(#p251b7b8b4c)" style="fill: none; stroke: #d3d3d3; stroke-opacity: 0.8; stroke-width: 1.5; stroke-linecap: square"/>
   </g>
   <g id="line2d_12">
    <path d="M 121.395781 162.91 
L 131.520781 162.91 
L 132.195781 138.334382 
L 132.870781 123.109075 
L 133.545781 111.27258 
L 134.895781 101.165651 
L 140.295781 64.306079 
L 142.995781 46.565127 
L 143.670781 46.889112 
L 144.345781 46.697489 
L 145.020781 46.942114 
L 145.695781 46.779619 
L 146.370781 46.992104 
L 147.045781 46.850859 
L 147.720781 47.05082 
L 148.395781 46.938386 
L 149.070781 47.121558 
L 149.745781 47.032321 
L 150.420781 47.19525 
L 151.095781 47.145205 
L 151.770781 47.273126 
L 152.445781 47.255422 
L 153.120781 47.385467 
L 155.145781 47.489028 
L 159.870781 47.904755 
L 160.545781 47.905291 
L 161.220781 49.465013 
L 161.895781 53.718625 
L 162.570781 60.081771 
L 163.920781 76.197284 
L 167.295781 121.210344 
L 167.970781 127.449861 
L 170.670781 145.392905 
L 184.845781 237.45792 
L 186.870781 250.582521 
L 187.545781 252.077459 
L 189.570781 252.19858 
L 191.595781 252.430823 
L 192.270781 249.062727 
L 194.295781 214.441489 
L 195.645781 196.536484 
L 198.345781 162.91 
L 221.970781 162.91 
L 222.645781 145.119564 
L 223.995781 125.026176 
L 225.345781 107.196626 
L 226.695781 97.374653 
L 234.120781 47.536927 
L 234.795781 46.279377 
L 241.545781 46.336746 
L 242.220781 49.984234 
L 242.895781 64.934099 
L 243.570781 77.079919 
L 245.595781 102.729777 
L 248.295781 134.115642 
L 252.345781 162.91 
L 252.345781 162.91 
" clip-path="url(#p251b7b8b4c)" style="fill: none; stroke: #000000; stroke-width: 5; stroke-linecap: square"/>
   </g>
   <g id="line2d_13">
    <path d="M 252.345781 162.91 
L 254.269531 162.91 
L 255.045781 184.261831 
L 255.079531 183.33349 
L 256.699531 141.558169 
L 257.374531 141.558169 
L 259.028281 184.261831 
L 259.703281 184.261831 
L 261.357031 141.558169 
L 262.032031 141.558169 
L 263.685781 184.261831 
L 264.360781 184.261831 
L 266.014531 141.558169 
L 266.689531 141.558169 
L 268.343281 184.261831 
L 269.018281 184.261831 
L 270.672031 141.558169 
L 271.347031 141.558169 
L 273.000781 184.261831 
L 273.675781 184.261831 
L 275.329531 141.558169 
L 276.004531 141.558169 
L 277.658281 184.261831 
L 278.333281 184.261831 
L 279.987031 141.558169 
L 280.662031 141.558169 
L 282.315781 184.261831 
L 282.990781 184.261831 
L 284.644531 141.558169 
L 285.319531 141.558169 
L 286.973281 184.261831 
L 287.648281 184.261831 
L 289.302031 141.558169 
L 289.977031 141.558169 
L 291.630781 184.261831 
L 292.305781 184.261831 
L 293.959531 141.558169 
L 294.634531 141.558169 
L 296.288281 184.261831 
L 296.963281 184.261831 
L 298.617031 141.558169 
L 299.292031 141.558169 
L 300.945781 184.261831 
L 301.620781 184.261831 
L 303.274531 141.558169 
L 303.949531 141.558169 
L 305.603281 184.261831 
L 306.278281 184.261831 
L 307.932031 141.558169 
L 308.607031 141.558169 
L 310.260781 184.261831 
L 310.935781 184.261831 
L 312.589531 141.558169 
L 313.264531 141.558169 
L 314.918281 184.261831 
L 315.593281 184.261831 
L 317.247031 141.558169 
L 317.922031 141.558169 
L 319.575781 184.261831 
L 320.250781 184.261831 
L 321.904531 141.558169 
L 322.579531 141.558169 
L 324.233281 184.261831 
L 324.908281 184.261831 
L 326.562031 141.558169 
L 327.237031 141.558169 
L 328.890781 184.261831 
L 329.565781 184.261831 
L 331.219531 141.558169 
L 331.894531 141.558169 
L 333.548281 184.261831 
L 334.223281 184.261831 
L 335.877031 141.558169 
L 336.552031 141.558169 
L 338.205781 184.261831 
L 338.880781 184.261831 
L 340.534531 141.558169 
L 341.209531 141.558169 
L 342.863281 184.261831 
L 343.538281 184.261831 
L 345.192031 141.558169 
L 345.867031 141.558169 
L 347.520781 184.261831 
L 348.195781 184.261831 
L 349.849531 141.558169 
L 350.524531 141.558169 
L 352.178281 184.261831 
L 352.853281 184.261831 
L 354.507031 141.558169 
L 355.182031 141.558169 
L 356.835781 184.261831 
L 357.510781 184.261831 
L 359.164531 141.558169 
L 359.839531 141.558169 
L 361.493281 184.261831 
L 362.168281 184.261831 
L 363.822031 141.558169 
L 364.497031 141.558169 
L 366.150781 184.261831 
L 366.825781 184.261831 
L 368.479531 141.558169 
L 369.154531 141.558169 
L 370.808281 184.261831 
L 371.483281 184.261831 
L 373.137031 141.558169 
L 373.812031 141.558169 
L 375.465781 184.261831 
L 376.140781 184.261831 
L 377.794531 141.558169 
L 378.469531 141.558169 
L 380.123281 184.261831 
L 380.798281 184.261831 
L 382.452031 141.558169 
L 383.127031 141.558169 
L 383.937031 162.91 
L 383.937031 162.91 
" clip-path="url(#p251b7b8b4c)" style="fill: none; stroke: #000000; stroke-opacity: 0.7; stroke-width: 5; stroke-linecap: square"/>
   </g>
   <g id="line2d_14">
    <path d="M 298.900531 287.65 
L 298.900531 38.17 
" clip-path="url(#p251b7b8b4c)" style="fill: none; stroke-dasharray: 18.5,8; stroke-dashoffset: 0; stroke: #000000; stroke-width: 5"/>
   </g>
   <g id="line2d_15">
    <path d="M 121.395781 38.790597 
L 526.395781 38.790597 
" clip-path="url(#p251b7b8b4c)" style="fill: none; stroke-dasharray: 18.5,8; stroke-dashoffset: 0; stroke: #000000; stroke-opacity: 0.2; stroke-width: 5"/>
   </g>
   <g id="line2d_16">
    <path d="M 121.395781 287.029403 
L 526.395781 287.029403 
" clip-path="url(#p251b7b8b4c)" style="fill: none; stroke-dasharray: 18.5,8; stroke-dashoffset: 0; stroke: #000000; stroke-opacity: 0.2; stroke-width: 5"/>
   </g>
   <g id="line2d_17">
    <path d="M 121.395781 162.91 
L 526.395781 162.91 
" clip-path="url(#p251b7b8b4c)" style="fill: none; stroke: #000000; stroke-width: 5; stroke-linecap: square"/>
   </g>
   <g id="patch_3">
    <path d="M 121.395781 287.65 
L 121.395781 38.17 
" style="fill: none; stroke: #000000; stroke-width: 0.8; stroke-linejoin: miter; stroke-linecap: square"/>
   </g>
   <g id="patch_4">
    <path d="M 121.395781 287.65 
L 526.395781 287.65 
" style="fill: none; stroke: #000000; stroke-width: 0.8; stroke-linejoin: miter; stroke-linecap: square"/>
   </g>
   <g id="text_13">
    <!-- $G(t)$ -->
    <g transform="translate(292.695781 31.515) scale(0.32 -0.32)">
     <defs>
      <path id="DejaVuSans-Oblique-47" d="M 3494 697 
L 3738 1919 
L 2700 1919 
L 2797 2438 
L 4453 2438 
L 4050 384 
Q 3634 156 3143 32 
Q 2653 -91 2156 -91 
Q 1278 -91 783 396 
Q 288 884 288 1753 
Q 288 2475 589 3126 
Q 891 3778 1422 4213 
Q 1756 4484 2153 4617 
Q 2550 4750 3034 4750 
Q 3472 4750 3873 4639 
Q 4275 4528 4641 4306 
L 4513 3634 
Q 4231 3928 3853 4083 
Q 3475 4238 3047 4238 
Q 2550 4238 2172 4048 
Q 1794 3859 1497 3463 
Q 1244 3125 1098 2667 
Q 953 2209 953 1734 
Q 953 1081 1287 751 
Q 1622 422 2284 422 
Q 2616 422 2925 492 
Q 3234 563 3494 697 
z
" transform="scale(0.015625)"/>
      <path id="DejaVuSans-28" d="M 1984 4856 
Q 1566 4138 1362 3434 
Q 1159 2731 1159 2009 
Q 1159 1288 1364 580 
Q 1569 -128 1984 -844 
L 1484 -844 
Q 1016 -109 783 600 
Q 550 1309 550 2009 
Q 550 2706 781 3412 
Q 1013 4119 1484 4856 
L 1984 4856 
z
" transform="scale(0.015625)"/>
      <path id="DejaVuSans-Oblique-74" d="M 2706 3500 
L 2619 3053 
L 1472 3053 
L 1100 1153 
Q 1081 1047 1072 975 
Q 1063 903 1063 863 
Q 1063 663 1183 572 
Q 1303 481 1569 481 
L 2150 481 
L 2053 0 
L 1503 0 
Q 991 0 739 200 
Q 488 400 488 806 
Q 488 878 497 964 
Q 506 1050 525 1153 
L 897 3053 
L 409 3053 
L 500 3500 
L 978 3500 
L 1172 4494 
L 1747 4494 
L 1556 3500 
L 2706 3500 
z
" transform="scale(0.015625)"/>
      <path id="DejaVuSans-29" d="M 513 4856 
L 1013 4856 
Q 1481 4119 1714 3412 
Q 1947 2706 1947 2009 
Q 1947 1309 1714 600 
Q 1481 -109 1013 -844 
L 513 -844 
Q 928 -128 1133 580 
Q 1338 1288 1338 2009 
Q 1338 2731 1133 3434 
Q 928 4138 513 4856 
z
" transform="scale(0.015625)"/>
     </defs>
     <use xlink:href="#DejaVuSans-Oblique-47" transform="translate(0 0.125)"/>
     <use xlink:href="#DejaVuSans-28" transform="translate(77.490234 0.125)"/>
     <use xlink:href="#DejaVuSans-Oblique-74" transform="translate(116.503906 0.125)"/>
     <use xlink:href="#DejaVuSans-29" transform="translate(155.712891 0.125)"/>
    </g>
   </g>
   <g id="legend_1">
    <g id="patch_5">
     <path d="M 502.195781 66.77 
L 510.995781 66.77 
Q 515.395781 66.77 515.395781 62.37 
L 515.395781 53.57 
Q 515.395781 49.17 510.995781 49.17 
L 502.195781 49.17 
Q 497.795781 49.17 497.795781 53.57 
L 497.795781 62.37 
Q 497.795781 66.77 502.195781 66.77 
z
" style="fill: #ffffff; opacity: 0.8; stroke: #cccccc; stroke-linejoin: miter"/>
    </g>
   </g>
  </g>
  <g id="axes_2">
   <g id="patch_6">
    <path d="M 647.895781 287.65 
L 1052.895781 287.65 
L 1052.895781 38.17 
L 647.895781 38.17 
z
" style="fill: #ffffff"/>
   </g>
   <g id="matplotlib.axis_3">
    <g id="xtick_6">
     <g id="line2d_18">
      <g>
       <use xlink:href="#m4b782182be" x="647.895781" y="287.65" style="stroke: #000000; stroke-width: 0.8"/>
      </g>
     </g>
     <g id="text_14">
      <!-- 0 -->
      <g transform="translate(639.306406 315.165781) scale(0.27 -0.27)">
       <use xlink:href="#DejaVuSans-30"/>
      </g>
     </g>
    </g>
    <g id="xtick_7">
     <g id="line2d_19">
      <g>
       <use xlink:href="#m4b782182be" x="732.270781" y="287.65" style="stroke: #000000; stroke-width: 0.8"/>
      </g>
     </g>
     <g id="text_15">
      <!-- 25 -->
      <g transform="translate(715.092031 315.165781) scale(0.27 -0.27)">
       <use xlink:href="#DejaVuSans-32"/>
       <use xlink:href="#DejaVuSans-35" x="63.623047"/>
      </g>
     </g>
    </g>
    <g id="xtick_8">
     <g id="line2d_20">
      <g>
       <use xlink:href="#m4b782182be" x="816.645781" y="287.65" style="stroke: #000000; stroke-width: 0.8"/>
      </g>
     </g>
     <g id="text_16">
      <!-- 50 -->
      <g transform="translate(799.467031 315.165781) scale(0.27 -0.27)">
       <use xlink:href="#DejaVuSans-35"/>
       <use xlink:href="#DejaVuSans-30" x="63.623047"/>
      </g>
     </g>
    </g>
    <g id="xtick_9">
     <g id="line2d_21">
      <g>
       <use xlink:href="#m4b782182be" x="901.020781" y="287.65" style="stroke: #000000; stroke-width: 0.8"/>
      </g>
     </g>
     <g id="text_17">
      <!-- 75 -->
      <g transform="translate(883.842031 315.165781) scale(0.27 -0.27)">
       <use xlink:href="#DejaVuSans-37"/>
       <use xlink:href="#DejaVuSans-35" x="63.623047"/>
      </g>
     </g>
    </g>
    <g id="xtick_10">
     <g id="line2d_22">
      <g>
       <use xlink:href="#m4b782182be" x="985.395781" y="287.65" style="stroke: #000000; stroke-width: 0.8"/>
      </g>
     </g>
     <g id="text_18">
      <!-- 100 -->
      <g transform="translate(959.627656 315.165781) scale(0.27 -0.27)">
       <use xlink:href="#DejaVuSans-31"/>
       <use xlink:href="#DejaVuSans-30" x="63.623047"/>
       <use xlink:href="#DejaVuSans-30" x="127.246094"/>
      </g>
     </g>
    </g>
    <g id="text_19">
     <!-- Time [ms] -->
     <g transform="translate(774.798125 347.57625) scale(0.3 -0.3)">
      <use xlink:href="#DejaVuSans-54"/>
      <use xlink:href="#DejaVuSans-69" x="57.958984"/>
      <use xlink:href="#DejaVuSans-6d" x="85.742188"/>
      <use xlink:href="#DejaVuSans-65" x="183.154297"/>
      <use xlink:href="#DejaVuSans-20" x="244.677734"/>
      <use xlink:href="#DejaVuSans-5b" x="276.464844"/>
      <use xlink:href="#DejaVuSans-6d" x="315.478516"/>
      <use xlink:href="#DejaVuSans-73" x="412.890625"/>
      <use xlink:href="#DejaVuSans-5d" x="464.990234"/>
     </g>
    </g>
   </g>
   <g id="matplotlib.axis_4">
    <g id="ytick_6">
     <g id="line2d_23">
      <g>
       <use xlink:href="#m34fd80a7f2" x="647.895781" y="287.029403" style="stroke: #000000; stroke-width: 0.8"/>
      </g>
     </g>
     <g id="text_20">
      <!-- −200 -->
      <g transform="translate(566.734375 297.287294) scale(0.27 -0.27)">
       <use xlink:href="#DejaVuSans-2212"/>
       <use xlink:href="#DejaVuSans-32" x="83.789062"/>
       <use xlink:href="#DejaVuSans-30" x="147.412109"/>
       <use xlink:href="#DejaVuSans-30" x="211.035156"/>
      </g>
     </g>
    </g>
    <g id="ytick_7">
     <g id="line2d_24">
      <g>
       <use xlink:href="#m34fd80a7f2" x="647.895781" y="224.969701" style="stroke: #000000; stroke-width: 0.8"/>
      </g>
     </g>
     <g id="text_21">
      <!-- −100 -->
      <g transform="translate(566.734375 235.227592) scale(0.27 -0.27)">
       <use xlink:href="#DejaVuSans-2212"/>
       <use xlink:href="#DejaVuSans-31" x="83.789062"/>
       <use xlink:href="#DejaVuSans-30" x="147.412109"/>
       <use xlink:href="#DejaVuSans-30" x="211.035156"/>
      </g>
     </g>
    </g>
    <g id="ytick_8">
     <g id="line2d_25">
      <g>
       <use xlink:href="#m34fd80a7f2" x="647.895781" y="162.91" style="stroke: #000000; stroke-width: 0.8"/>
      </g>
     </g>
     <g id="text_22">
      <!-- 0 -->
      <g transform="translate(623.717031 173.167891) scale(0.27 -0.27)">
       <use xlink:href="#DejaVuSans-30"/>
      </g>
     </g>
    </g>
    <g id="ytick_9">
     <g id="line2d_26">
      <g>
       <use xlink:href="#m34fd80a7f2" x="647.895781" y="100.850299" style="stroke: #000000; stroke-width: 0.8"/>
      </g>
     </g>
     <g id="text_23">
      <!-- 100 -->
      <g transform="translate(589.359531 111.108189) scale(0.27 -0.27)">
       <use xlink:href="#DejaVuSans-31"/>
       <use xlink:href="#DejaVuSans-30" x="63.623047"/>
       <use xlink:href="#DejaVuSans-30" x="127.246094"/>
      </g>
     </g>
    </g>
    <g id="ytick_10">
     <g id="line2d_27">
      <g>
       <use xlink:href="#m34fd80a7f2" x="647.895781" y="38.790597" style="stroke: #000000; stroke-width: 0.8"/>
      </g>
     </g>
     <g id="text_24">
      <!-- 200 -->
      <g transform="translate(589.359531 49.048488) scale(0.27 -0.27)">
       <use xlink:href="#DejaVuSans-32"/>
       <use xlink:href="#DejaVuSans-30" x="63.623047"/>
       <use xlink:href="#DejaVuSans-30" x="127.246094"/>
      </g>
     </g>
    </g>
    <g id="text_25">
     <!-- T/m/s -->
     <g transform="translate(556.495312 204.602969) rotate(-90) scale(0.3 -0.3)">
      <use xlink:href="#DejaVuSans-54"/>
      <use xlink:href="#DejaVuSans-2f" x="61.083984"/>
      <use xlink:href="#DejaVuSans-6d" x="94.775391"/>
      <use xlink:href="#DejaVuSans-2f" x="192.1875"/>
      <use xlink:href="#DejaVuSans-73" x="225.878906"/>
     </g>
    </g>
   </g>
   <g id="line2d_28">
    <path d="M 647.895781 162.91 
L 1052.895781 162.91 
" clip-path="url(#p9a6e60c0e5)" style="fill: none; stroke: #d3d3d3; stroke-opacity: 0.8; stroke-width: 1.5; stroke-linecap: square"/>
   </g>
   <g id="line2d_29">
    <path d="M 647.895781 162.91 
L 657.345781 162.91 
L 658.020781 40.031912 
L 658.695781 86.783465 
L 659.370781 103.727524 
L 660.045781 135.890461 
L 660.720781 139.394895 
L 663.420781 139.842173 
L 664.095781 140.70764 
L 664.770781 139.271021 
L 665.445781 140.843228 
L 666.120781 139.4114 
L 666.795781 140.680354 
L 667.470781 141.015594 
L 668.145781 140.520921 
L 668.820781 140.71837 
L 669.495781 164.529926 
L 670.170781 161.951887 
L 670.845781 164.133125 
L 671.520781 162.097525 
L 672.195781 163.972425 
L 672.870781 162.203774 
L 673.545781 163.909804 
L 674.220781 162.347832 
L 674.895781 163.825861 
L 675.570781 162.463813 
L 676.245781 163.724648 
L 676.920781 162.659775 
L 677.595781 163.549604 
L 678.270781 162.821477 
L 678.945781 163.560226 
L 679.620781 162.910864 
L 680.295781 163.374832 
L 680.970781 162.962112 
L 681.645781 163.285499 
L 682.320781 163.147276 
L 683.670781 163.208797 
L 685.695781 163.19966 
L 686.370781 162.912682 
L 687.045781 170.70861 
L 687.720781 184.178059 
L 688.395781 194.725732 
L 689.070781 201.024807 
L 689.745781 205.372756 
L 690.420781 207.074253 
L 691.095781 209.26759 
L 691.770781 209.404234 
L 692.445781 208.761618 
L 693.120781 205.107604 
L 693.795781 194.107586 
L 694.470781 186.162136 
L 695.145781 185.105542 
L 695.820781 185.022839 
L 697.170781 184.999714 
L 697.845781 185.028688 
L 698.520781 184.9187 
L 699.195781 184.979529 
L 699.870781 184.888383 
L 700.545781 184.953983 
L 701.220781 184.810927 
L 701.895781 184.922522 
L 702.570781 184.772952 
L 703.245781 184.90475 
L 704.595781 184.753975 
L 705.945781 184.769142 
L 709.320781 184.754899 
L 710.670781 184.671438 
L 711.345781 184.864917 
L 712.020781 184.521057 
L 712.695781 184.967031 
L 713.370781 170.384687 
L 714.045781 162.964805 
L 714.720781 163.44872 
L 715.395781 162.92208 
L 716.070781 163.439411 
L 716.745781 162.911176 
L 717.420781 163.54063 
L 718.095781 146.069517 
L 718.770781 102.443281 
L 719.445781 99.942862 
L 720.120781 113.23767 
L 721.470781 119.89552 
L 722.145781 121.10224 
L 722.820781 121.355508 
L 723.495781 120.926661 
L 724.170781 120.123172 
L 724.845781 162.91 
L 747.795781 162.91 
L 748.470781 73.957818 
L 749.145781 110.449445 
L 749.820781 114.903616 
L 750.495781 117.487824 
L 751.170781 119.184429 
L 751.845781 136.791211 
L 752.520781 139.918922 
L 757.245781 140.329161 
L 759.945781 140.451018 
L 760.620781 156.622252 
L 761.295781 162.905037 
L 766.020781 162.944968 
L 766.695781 163.046144 
L 767.370781 162.95971 
L 768.045781 181.147439 
L 768.720781 237.659329 
L 769.395781 223.639097 
L 770.070781 207.209229 
L 770.745781 205.548369 
L 771.420781 204.221692 
L 772.095781 203.177007 
L 772.770781 202.359715 
L 773.445781 201.73649 
L 774.120781 201.296113 
L 774.795781 186.911829 
L 775.470781 185.711609 
L 776.145781 185.821452 
L 776.820781 186.076431 
L 777.495781 187.938634 
L 778.170781 188.971836 
L 778.170781 188.971836 
" clip-path="url(#p9a6e60c0e5)" style="fill: none; stroke: #000000; stroke-width: 5; stroke-linecap: square"/>
   </g>
   <g id="line2d_30">
    <path d="M 647.895781 38.790597 
L 1052.895781 38.790597 
" clip-path="url(#p9a6e60c0e5)" style="fill: none; stroke-dasharray: 18.5,8; stroke-dashoffset: 0; stroke: #000000; stroke-opacity: 0.2; stroke-width: 5"/>
   </g>
   <g id="line2d_31">
    <path d="M 647.895781 287.029403 
L 1052.895781 287.029403 
" clip-path="url(#p9a6e60c0e5)" style="fill: none; stroke-dasharray: 18.5,8; stroke-dashoffset: 0; stroke: #000000; stroke-opacity: 0.2; stroke-width: 5"/>
   </g>
   <g id="line2d_32">
    <path d="M 647.895781 162.91 
L 1052.895781 162.91 
" clip-path="url(#p9a6e60c0e5)" style="fill: none; stroke: #000000; stroke-width: 5; stroke-linecap: square"/>
   </g>
   <g id="patch_7">
    <path d="M 647.895781 287.65 
L 647.895781 38.17 
" style="fill: none; stroke: #000000; stroke-width: 0.8; stroke-linejoin: miter; stroke-linecap: square"/>
   </g>
   <g id="patch_8">
    <path d="M 647.895781 287.65 
L 1052.895781 287.65 
" style="fill: none; stroke: #000000; stroke-width: 0.8; stroke-linejoin: miter; stroke-linecap: square"/>
   </g>
   <g id="text_26">
    <!-- $S(t)$ -->
    <g transform="translate(821.435781 31.515) scale(0.32 -0.32)">
     <defs>
      <path id="DejaVuSans-Oblique-53" d="M 3859 4513 
L 3738 3897 
Q 3422 4066 3111 4152 
Q 2800 4238 2509 4238 
Q 1944 4238 1609 3991 
Q 1275 3744 1275 3334 
Q 1275 3109 1398 2989 
Q 1522 2869 2034 2731 
L 2413 2638 
Q 3053 2472 3303 2217 
Q 3553 1963 3553 1503 
Q 3553 797 2998 353 
Q 2444 -91 1538 -91 
Q 1166 -91 791 -17 
Q 416 56 38 206 
L 166 856 
Q 513 641 861 531 
Q 1209 422 1556 422 
Q 2147 422 2503 684 
Q 2859 947 2859 1369 
Q 2859 1650 2717 1795 
Q 2575 1941 2106 2059 
L 1728 2156 
Q 1081 2325 845 2545 
Q 609 2766 609 3163 
Q 609 3859 1145 4304 
Q 1681 4750 2541 4750 
Q 2875 4750 3203 4690 
Q 3531 4631 3859 4513 
z
" transform="scale(0.015625)"/>
     </defs>
     <use xlink:href="#DejaVuSans-Oblique-53" transform="translate(0 0.125)"/>
     <use xlink:href="#DejaVuSans-28" transform="translate(63.476562 0.125)"/>
     <use xlink:href="#DejaVuSans-Oblique-74" transform="translate(102.490234 0.125)"/>
     <use xlink:href="#DejaVuSans-29" transform="translate(141.699219 0.125)"/>
    </g>
   </g>
  </g>
  <g id="axes_3">
   <g id="patch_9">
    <path d="M 1174.395781 287.65 
L 1579.395781 287.65 
L 1579.395781 38.17 
L 1174.395781 38.17 
z
" style="fill: #ffffff"/>
   </g>
   <g id="matplotlib.axis_5">
    <g id="xtick_11">
     <g id="line2d_33">
      <g>
       <use xlink:href="#m4b782182be" x="1174.395781" y="287.65" style="stroke: #000000; stroke-width: 0.8"/>
      </g>
     </g>
     <g id="text_27">
      <!-- 0 -->
      <g transform="translate(1165.806406 315.165781) scale(0.27 -0.27)">
       <use xlink:href="#DejaVuSans-30"/>
      </g>
     </g>
    </g>
    <g id="xtick_12">
     <g id="line2d_34">
      <g>
       <use xlink:href="#m4b782182be" x="1258.770781" y="287.65" style="stroke: #000000; stroke-width: 0.8"/>
      </g>
     </g>
     <g id="text_28">
      <!-- 25 -->
      <g transform="translate(1241.592031 315.165781) scale(0.27 -0.27)">
       <use xlink:href="#DejaVuSans-32"/>
       <use xlink:href="#DejaVuSans-35" x="63.623047"/>
      </g>
     </g>
    </g>
    <g id="xtick_13">
     <g id="line2d_35">
      <g>
       <use xlink:href="#m4b782182be" x="1343.145781" y="287.65" style="stroke: #000000; stroke-width: 0.8"/>
      </g>
     </g>
     <g id="text_29">
      <!-- 50 -->
      <g transform="translate(1325.967031 315.165781) scale(0.27 -0.27)">
       <use xlink:href="#DejaVuSans-35"/>
       <use xlink:href="#DejaVuSans-30" x="63.623047"/>
      </g>
     </g>
    </g>
    <g id="xtick_14">
     <g id="line2d_36">
      <g>
       <use xlink:href="#m4b782182be" x="1427.520781" y="287.65" style="stroke: #000000; stroke-width: 0.8"/>
      </g>
     </g>
     <g id="text_30">
      <!-- 75 -->
      <g transform="translate(1410.342031 315.165781) scale(0.27 -0.27)">
       <use xlink:href="#DejaVuSans-37"/>
       <use xlink:href="#DejaVuSans-35" x="63.623047"/>
      </g>
     </g>
    </g>
    <g id="xtick_15">
     <g id="line2d_37">
      <g>
       <use xlink:href="#m4b782182be" x="1511.895781" y="287.65" style="stroke: #000000; stroke-width: 0.8"/>
      </g>
     </g>
     <g id="text_31">
      <!-- 100 -->
      <g transform="translate(1486.127656 315.165781) scale(0.27 -0.27)">
       <use xlink:href="#DejaVuSans-31"/>
       <use xlink:href="#DejaVuSans-30" x="63.623047"/>
       <use xlink:href="#DejaVuSans-30" x="127.246094"/>
      </g>
     </g>
    </g>
    <g id="text_32">
     <!-- Time [ms] -->
     <g transform="translate(1301.298125 347.57625) scale(0.3 -0.3)">
      <use xlink:href="#DejaVuSans-54"/>
      <use xlink:href="#DejaVuSans-69" x="57.958984"/>
      <use xlink:href="#DejaVuSans-6d" x="85.742188"/>
      <use xlink:href="#DejaVuSans-65" x="183.154297"/>
      <use xlink:href="#DejaVuSans-20" x="244.677734"/>
      <use xlink:href="#DejaVuSans-5b" x="276.464844"/>
      <use xlink:href="#DejaVuSans-6d" x="315.478516"/>
      <use xlink:href="#DejaVuSans-73" x="412.890625"/>
      <use xlink:href="#DejaVuSans-5d" x="464.990234"/>
     </g>
    </g>
   </g>
   <g id="matplotlib.axis_6">
    <g id="ytick_11">
     <g id="line2d_38">
      <g>
       <use xlink:href="#m34fd80a7f2" x="1174.395781" y="287.65" style="stroke: #000000; stroke-width: 0.8"/>
      </g>
     </g>
     <g id="text_33">
      <!-- 0.00 -->
      <g transform="translate(1107.278594 297.907891) scale(0.27 -0.27)">
       <defs>
        <path id="DejaVuSans-2e" d="M 684 794 
L 1344 794 
L 1344 0 
L 684 0 
L 684 794 
z
" transform="scale(0.015625)"/>
       </defs>
       <use xlink:href="#DejaVuSans-30"/>
       <use xlink:href="#DejaVuSans-2e" x="63.623047"/>
       <use xlink:href="#DejaVuSans-30" x="95.410156"/>
       <use xlink:href="#DejaVuSans-30" x="159.033203"/>
      </g>
     </g>
    </g>
    <g id="ytick_12">
     <g id="line2d_39">
      <g>
       <use xlink:href="#m34fd80a7f2" x="1174.395781" y="225.28" style="stroke: #000000; stroke-width: 0.8"/>
      </g>
     </g>
     <g id="text_34">
      <!-- 0.25 -->
      <g transform="translate(1107.278594 235.537891) scale(0.27 -0.27)">
       <use xlink:href="#DejaVuSans-30"/>
       <use xlink:href="#DejaVuSans-2e" x="63.623047"/>
       <use xlink:href="#DejaVuSans-32" x="95.410156"/>
       <use xlink:href="#DejaVuSans-35" x="159.033203"/>
      </g>
     </g>
    </g>
    <g id="ytick_13">
     <g id="line2d_40">
      <g>
       <use xlink:href="#m34fd80a7f2" x="1174.395781" y="162.91" style="stroke: #000000; stroke-width: 0.8"/>
      </g>
     </g>
     <g id="text_35">
      <!-- 0.50 -->
      <g transform="translate(1107.278594 173.167891) scale(0.27 -0.27)">
       <use xlink:href="#DejaVuSans-30"/>
       <use xlink:href="#DejaVuSans-2e" x="63.623047"/>
       <use xlink:href="#DejaVuSans-35" x="95.410156"/>
       <use xlink:href="#DejaVuSans-30" x="159.033203"/>
      </g>
     </g>
    </g>
    <g id="ytick_14">
     <g id="line2d_41">
      <g>
       <use xlink:href="#m34fd80a7f2" x="1174.395781" y="100.54" style="stroke: #000000; stroke-width: 0.8"/>
      </g>
     </g>
     <g id="text_36">
      <!-- 0.75 -->
      <g transform="translate(1107.278594 110.797891) scale(0.27 -0.27)">
       <use xlink:href="#DejaVuSans-30"/>
       <use xlink:href="#DejaVuSans-2e" x="63.623047"/>
       <use xlink:href="#DejaVuSans-37" x="95.410156"/>
       <use xlink:href="#DejaVuSans-35" x="159.033203"/>
      </g>
     </g>
    </g>
    <g id="ytick_15">
     <g id="line2d_42">
      <g>
       <use xlink:href="#m34fd80a7f2" x="1174.395781" y="38.17" style="stroke: #000000; stroke-width: 0.8"/>
      </g>
     </g>
     <g id="text_37">
      <!-- 1.00 -->
      <g transform="translate(1107.278594 48.427891) scale(0.27 -0.27)">
       <use xlink:href="#DejaVuSans-31"/>
       <use xlink:href="#DejaVuSans-2e" x="63.623047"/>
       <use xlink:href="#DejaVuSans-30" x="95.410156"/>
       <use xlink:href="#DejaVuSans-30" x="159.033203"/>
      </g>
     </g>
    </g>
    <g id="text_38">
     <!-- unitless -->
     <g transform="translate(1097.039531 220.995156) rotate(-90) scale(0.3 -0.3)">
      <defs>
       <path id="DejaVuSans-75" d="M 544 1381 
L 544 3500 
L 1119 3500 
L 1119 1403 
Q 1119 906 1312 657 
Q 1506 409 1894 409 
Q 2359 409 2629 706 
Q 2900 1003 2900 1516 
L 2900 3500 
L 3475 3500 
L 3475 0 
L 2900 0 
L 2900 538 
Q 2691 219 2414 64 
Q 2138 -91 1772 -91 
Q 1169 -91 856 284 
Q 544 659 544 1381 
z
M 1991 3584 
L 1991 3584 
z
" transform="scale(0.015625)"/>
       <path id="DejaVuSans-6e" d="M 3513 2113 
L 3513 0 
L 2938 0 
L 2938 2094 
Q 2938 2591 2744 2837 
Q 2550 3084 2163 3084 
Q 1697 3084 1428 2787 
Q 1159 2491 1159 1978 
L 1159 0 
L 581 0 
L 581 3500 
L 1159 3500 
L 1159 2956 
Q 1366 3272 1645 3428 
Q 1925 3584 2291 3584 
Q 2894 3584 3203 3211 
Q 3513 2838 3513 2113 
z
" transform="scale(0.015625)"/>
       <path id="DejaVuSans-74" d="M 1172 4494 
L 1172 3500 
L 2356 3500 
L 2356 3053 
L 1172 3053 
L 1172 1153 
Q 1172 725 1289 603 
Q 1406 481 1766 481 
L 2356 481 
L 2356 0 
L 1766 0 
Q 1100 0 847 248 
Q 594 497 594 1153 
L 594 3053 
L 172 3053 
L 172 3500 
L 594 3500 
L 594 4494 
L 1172 4494 
z
" transform="scale(0.015625)"/>
       <path id="DejaVuSans-6c" d="M 603 4863 
L 1178 4863 
L 1178 0 
L 603 0 
L 603 4863 
z
" transform="scale(0.015625)"/>
      </defs>
      <use xlink:href="#DejaVuSans-75"/>
      <use xlink:href="#DejaVuSans-6e" x="63.378906"/>
      <use xlink:href="#DejaVuSans-69" x="126.757812"/>
      <use xlink:href="#DejaVuSans-74" x="154.541016"/>
      <use xlink:href="#DejaVuSans-6c" x="193.75"/>
      <use xlink:href="#DejaVuSans-65" x="221.533203"/>
      <use xlink:href="#DejaVuSans-73" x="283.056641"/>
      <use xlink:href="#DejaVuSans-73" x="335.15625"/>
     </g>
    </g>
   </g>
   <g id="line2d_43">
    <path d="M 1174.395781 287.65 
L 1579.395781 287.65 
" clip-path="url(#pa80510bb78)" style="fill: none; stroke: #d3d3d3; stroke-opacity: 0.8; stroke-width: 1.5; stroke-linecap: square"/>
   </g>
   <g id="line2d_44">
    <path d="M 1174.395781 287.65 
L 1184.520781 287.65 
L 1185.195781 146.72149 
L 1185.870781 118.662313 
L 1186.545781 118.594378 
L 1187.220781 152.274942 
L 1187.895781 173.313833 
L 1188.570781 184.423815 
L 1189.245781 190.437782 
L 1189.920781 193.772405 
L 1191.270781 197.645969 
L 1191.945781 197.018543 
L 1192.620781 198.337914 
L 1193.295781 197.287794 
L 1194.645781 198.54022 
L 1195.320781 198.10183 
L 1195.995781 197.878648 
L 1196.670781 224.691936 
L 1197.345781 237.15058 
L 1198.020781 247.16208 
L 1198.695781 251.25874 
L 1199.370781 256.314773 
L 1200.045781 257.837057 
L 1200.720781 260.143374 
L 1201.395781 261.723727 
L 1202.070781 262.776243 
L 1202.745781 264.303062 
L 1203.420781 264.779972 
L 1204.095781 266.018789 
L 1204.770781 266.34439 
L 1205.445781 267.272419 
L 1206.120781 267.484187 
L 1206.795781 268.262889 
L 1207.470781 268.538073 
L 1208.145781 269.148598 
L 1208.820781 269.408209 
L 1209.495781 269.804951 
L 1212.870781 270.854926 
L 1213.545781 271.40667 
L 1214.220781 262.880986 
L 1214.895781 242.594213 
L 1216.245781 196.999796 
L 1216.920781 178.521084 
L 1218.270781 152.673292 
L 1218.945781 144.172497 
L 1219.620781 138.577949 
L 1220.295781 138.197606 
L 1220.970781 149.379917 
L 1221.645781 163.961282 
L 1222.320781 173.027046 
L 1222.995781 178.176219 
L 1223.670781 181.095055 
L 1224.345781 182.899764 
L 1225.020781 183.948625 
L 1225.695781 184.696752 
L 1227.045781 185.31032 
L 1228.395781 185.407735 
L 1229.070781 185.22627 
L 1229.745781 185.179633 
L 1231.095781 184.680721 
L 1231.770781 184.492682 
L 1238.520781 181.25626 
L 1239.195781 181.2132 
L 1239.870781 180.537107 
L 1241.220781 214.500937 
L 1241.895781 224.484947 
L 1242.570781 231.45429 
L 1243.920781 239.221788 
L 1244.595781 241.233281 
L 1245.270781 233.75839 
L 1245.945781 173.879615 
L 1246.620781 134.740946 
L 1247.295781 125.62911 
L 1247.970781 121.816968 
L 1248.645781 121.754435 
L 1249.320781 121.567419 
L 1249.995781 120.537879 
L 1250.670781 118.472777 
L 1251.345781 115.532059 
L 1252.020781 162.167402 
L 1252.695781 188.509179 
L 1253.370781 204.261013 
L 1254.045781 214.319081 
L 1254.720781 221.18882 
L 1255.395781 226.179589 
L 1256.070781 229.996696 
L 1256.745781 233.035922 
L 1258.095781 237.627957 
L 1259.445781 240.985921 
L 1260.795781 243.594204 
L 1262.145781 245.720793 
L 1264.170781 248.344021 
L 1266.195781 250.549823 
L 1268.895781 253.109933 
L 1272.270781 255.93581 
L 1274.970781 257.989876 
L 1275.645781 156.460693 
L 1276.320781 139.666416 
L 1276.995781 132.890673 
L 1277.670781 129.894663 
L 1278.345781 128.37001 
L 1279.020781 146.244706 
L 1279.695781 159.007972 
L 1280.370781 165.934193 
L 1281.045781 169.848489 
L 1281.720781 172.140166 
L 1282.395781 173.545172 
L 1283.070781 174.443365 
L 1283.745781 174.991527 
L 1284.420781 175.370017 
L 1285.770781 175.726856 
L 1287.120781 175.718447 
L 1288.470781 211.978049 
L 1289.145781 222.622195 
L 1289.820781 229.455337 
L 1290.495781 234.141943 
L 1291.170781 237.574289 
L 1291.845781 240.221568 
L 1292.520781 242.414306 
L 1293.195781 244.198339 
L 1294.545781 246.926823 
L 1295.220781 231.36508 
L 1295.895781 154.649151 
L 1296.570781 125.939679 
L 1297.245781 126.170575 
L 1298.595781 125.83969 
L 1300.620781 125.09701 
L 1301.295781 124.731727 
L 1301.970781 140.411384 
L 1302.645781 150.345766 
L 1303.320781 155.874118 
L 1303.995781 158.881468 
L 1304.670781 158.641493 
L 1305.345781 157.461743 
L 1305.345781 157.461743 
" clip-path="url(#pa80510bb78)" style="fill: none; stroke: #000000; stroke-width: 5; stroke-linecap: square"/>
   </g>
   <g id="line2d_45">
    <path d="M 1174.395781 287.65 
L 1579.395781 287.65 
" clip-path="url(#pa80510bb78)" style="fill: none; stroke: #000000; stroke-width: 5; stroke-linecap: square"/>
   </g>
   <g id="line2d_46">
    <path d="M 1174.395781 119.35933 
L 1175.745781 118.742786 
L 1177.770781 118.134639 
L 1180.470781 117.619579 
L 1185.195781 117.026136 
L 1193.295781 116.282795 
L 1204.095781 115.517135 
L 1216.920781 114.837944 
L 1231.770781 114.27826 
L 1249.995781 113.820279 
L 1252.020781 113.780972 
L 1252.695781 161.751082 
L 1253.370781 189.633816 
L 1254.045781 151.184291 
L 1254.720781 163.895466 
L 1255.395781 139.167188 
L 1256.070781 129.465536 
L 1256.745781 125.389859 
L 1257.420781 123.472279 
L 1258.095781 122.422141 
L 1258.770781 121.750297 
L 1260.120781 120.88454 
L 1261.470781 120.308844 
L 1263.495781 119.702879 
L 1266.870781 119.011757 
L 1272.270781 118.210549 
L 1272.945781 123.833743 
L 1273.620781 199.897985 
L 1274.295781 136.915111 
L 1274.970781 166.980764 
L 1275.645781 155.133332 
L 1276.320781 138.170358 
L 1276.995781 131.325847 
L 1277.670781 128.299463 
L 1278.345781 126.760618 
L 1279.020781 125.836961 
L 1280.370781 124.69771 
L 1281.720781 123.940895 
L 1283.745781 123.117856 
L 1286.445781 122.304401 
L 1290.495781 121.348579 
L 1296.570781 120.170082 
L 1303.995781 118.969867 
L 1305.345781 118.774631 
L 1305.345781 118.774631 
" clip-path="url(#pa80510bb78)" style="fill: none; stroke-dasharray: 22.2,9.6; stroke-dashoffset: 0; stroke: #ff0000; stroke-width: 6"/>
   </g>
   <g id="line2d_47">
    <path d="M 1174.395781 113.014 
L 1579.395781 113.014 
" clip-path="url(#pa80510bb78)" style="fill: none; stroke-dasharray: 5,8.25; stroke-dashoffset: 0; stroke: #ff0000; stroke-opacity: 0.5; stroke-width: 5"/>
   </g>
   <g id="patch_10">
    <path d="M 1174.395781 287.65 
L 1174.395781 38.17 
" style="fill: none; stroke: #000000; stroke-width: 0.8; stroke-linejoin: miter; stroke-linecap: square"/>
   </g>
   <g id="patch_11">
    <path d="M 1174.395781 287.65 
L 1579.395781 287.65 
" style="fill: none; stroke: #000000; stroke-width: 0.8; stroke-linejoin: miter; stroke-linecap: square"/>
   </g>
   <g id="text_39">
    <!-- SAFE-PNS -->
    <g transform="translate(1298.633281 31.515) scale(0.32 -0.32)">
     <defs>
      <path id="DejaVuSans-53" d="M 3425 4513 
L 3425 3897 
Q 3066 4069 2747 4153 
Q 2428 4238 2131 4238 
Q 1616 4238 1336 4038 
Q 1056 3838 1056 3469 
Q 1056 3159 1242 3001 
Q 1428 2844 1947 2747 
L 2328 2669 
Q 3034 2534 3370 2195 
Q 3706 1856 3706 1288 
Q 3706 609 3251 259 
Q 2797 -91 1919 -91 
Q 1588 -91 1214 -16 
Q 841 59 441 206 
L 441 856 
Q 825 641 1194 531 
Q 1563 422 1919 422 
Q 2459 422 2753 634 
Q 3047 847 3047 1241 
Q 3047 1584 2836 1778 
Q 2625 1972 2144 2069 
L 1759 2144 
Q 1053 2284 737 2584 
Q 422 2884 422 3419 
Q 422 4038 858 4394 
Q 1294 4750 2059 4750 
Q 2388 4750 2728 4690 
Q 3069 4631 3425 4513 
z
" transform="scale(0.015625)"/>
      <path id="DejaVuSans-41" d="M 2188 4044 
L 1331 1722 
L 3047 1722 
L 2188 4044 
z
M 1831 4666 
L 2547 4666 
L 4325 0 
L 3669 0 
L 3244 1197 
L 1141 1197 
L 716 0 
L 50 0 
L 1831 4666 
z
" transform="scale(0.015625)"/>
      <path id="DejaVuSans-46" d="M 628 4666 
L 3309 4666 
L 3309 4134 
L 1259 4134 
L 1259 2759 
L 3109 2759 
L 3109 2228 
L 1259 2228 
L 1259 0 
L 628 0 
L 628 4666 
z
" transform="scale(0.015625)"/>
      <path id="DejaVuSans-45" d="M 628 4666 
L 3578 4666 
L 3578 4134 
L 1259 4134 
L 1259 2753 
L 3481 2753 
L 3481 2222 
L 1259 2222 
L 1259 531 
L 3634 531 
L 3634 0 
L 628 0 
L 628 4666 
z
" transform="scale(0.015625)"/>
      <path id="DejaVuSans-2d" d="M 313 2009 
L 1997 2009 
L 1997 1497 
L 313 1497 
L 313 2009 
z
" transform="scale(0.015625)"/>
      <path id="DejaVuSans-50" d="M 1259 4147 
L 1259 2394 
L 2053 2394 
Q 2494 2394 2734 2622 
Q 2975 2850 2975 3272 
Q 2975 3691 2734 3919 
Q 2494 4147 2053 4147 
L 1259 4147 
z
M 628 4666 
L 2053 4666 
Q 2838 4666 3239 4311 
Q 3641 3956 3641 3272 
Q 3641 2581 3239 2228 
Q 2838 1875 2053 1875 
L 1259 1875 
L 1259 0 
L 628 0 
L 628 4666 
z
" transform="scale(0.015625)"/>
      <path id="DejaVuSans-4e" d="M 628 4666 
L 1478 4666 
L 3547 763 
L 3547 4666 
L 4159 4666 
L 4159 0 
L 3309 0 
L 1241 3903 
L 1241 0 
L 628 0 
L 628 4666 
z
" transform="scale(0.015625)"/>
     </defs>
     <use xlink:href="#DejaVuSans-53"/>
     <use xlink:href="#DejaVuSans-41" x="65.351562"/>
     <use xlink:href="#DejaVuSans-46" x="133.759766"/>
     <use xlink:href="#DejaVuSans-45" x="191.279297"/>
     <use xlink:href="#DejaVuSans-2d" x="254.462891"/>
     <use xlink:href="#DejaVuSans-50" x="290.546875"/>
     <use xlink:href="#DejaVuSans-4e" x="350.849609"/>
     <use xlink:href="#DejaVuSans-53" x="425.654297"/>
    </g>
   </g>
   <g id="legend_2">
    <g id="patch_12">
     <path d="M 1430.758281 276.65 
L 1563.995781 276.65 
Q 1568.395781 276.65 1568.395781 272.25 
L 1568.395781 242.158125 
Q 1568.395781 237.758125 1563.995781 237.758125 
L 1430.758281 237.758125 
Q 1426.358281 237.758125 1426.358281 242.158125 
L 1426.358281 272.25 
Q 1426.358281 276.65 1430.758281 276.65 
z
" style="fill: #ffffff; opacity: 0.2; stroke: #cccccc; stroke-linejoin: miter"/>
    </g>
    <g id="line2d_48">
     <path d="M 1435.158281 255.574688 
L 1457.158281 255.574688 
L 1479.158281 255.574688 
" style="fill: none; stroke: #000000; stroke-width: 5; stroke-linecap: square"/>
    </g>
    <g id="text_40">
     <!-- Y-axis -->
     <g transform="translate(1496.758281 263.274688) scale(0.22 -0.22)">
      <defs>
       <path id="DejaVuSans-59" d="M -13 4666 
L 666 4666 
L 1959 2747 
L 3244 4666 
L 3922 4666 
L 2272 2222 
L 2272 0 
L 1638 0 
L 1638 2222 
L -13 4666 
z
" transform="scale(0.015625)"/>
       <path id="DejaVuSans-61" d="M 2194 1759 
Q 1497 1759 1228 1600 
Q 959 1441 959 1056 
Q 959 750 1161 570 
Q 1363 391 1709 391 
Q 2188 391 2477 730 
Q 2766 1069 2766 1631 
L 2766 1759 
L 2194 1759 
z
M 3341 1997 
L 3341 0 
L 2766 0 
L 2766 531 
Q 2569 213 2275 61 
Q 1981 -91 1556 -91 
Q 1019 -91 701 211 
Q 384 513 384 1019 
Q 384 1609 779 1909 
Q 1175 2209 1959 2209 
L 2766 2209 
L 2766 2266 
Q 2766 2663 2505 2880 
Q 2244 3097 1772 3097 
Q 1472 3097 1187 3025 
Q 903 2953 641 2809 
L 641 3341 
Q 956 3463 1253 3523 
Q 1550 3584 1831 3584 
Q 2591 3584 2966 3190 
Q 3341 2797 3341 1997 
z
" transform="scale(0.015625)"/>
       <path id="DejaVuSans-78" d="M 3513 3500 
L 2247 1797 
L 3578 0 
L 2900 0 
L 1881 1375 
L 863 0 
L 184 0 
L 1544 1831 
L 300 3500 
L 978 3500 
L 1906 2253 
L 2834 3500 
L 3513 3500 
z
" transform="scale(0.015625)"/>
      </defs>
      <use xlink:href="#DejaVuSans-59"/>
      <use xlink:href="#DejaVuSans-2d" x="49.208984"/>
      <use xlink:href="#DejaVuSans-61" x="85.292969"/>
      <use xlink:href="#DejaVuSans-78" x="146.572266"/>
      <use xlink:href="#DejaVuSans-69" x="205.751953"/>
      <use xlink:href="#DejaVuSans-73" x="233.535156"/>
     </g>
    </g>
   </g>
  </g>
  <g id="axes_4">
   <g id="patch_13">
    <path d="M 1700.895781 287.65 
L 2105.895781 287.65 
L 2105.895781 38.17 
L 1700.895781 38.17 
z
" style="fill: #ffffff"/>
   </g>
   <g id="matplotlib.axis_7">
    <g id="xtick_16">
     <g id="line2d_49">
      <g>
       <use xlink:href="#m4b782182be" x="1700.895781" y="287.65" style="stroke: #000000; stroke-width: 0.8"/>
      </g>
     </g>
     <g id="text_41">
      <!-- 0 -->
      <g transform="translate(1692.306406 315.165781) scale(0.27 -0.27)">
       <use xlink:href="#DejaVuSans-30"/>
      </g>
     </g>
    </g>
    <g id="xtick_17">
     <g id="line2d_50">
      <g>
       <use xlink:href="#m4b782182be" x="1785.270781" y="287.65" style="stroke: #000000; stroke-width: 0.8"/>
      </g>
     </g>
     <g id="text_42">
      <!-- 25 -->
      <g transform="translate(1768.092031 315.165781) scale(0.27 -0.27)">
       <use xlink:href="#DejaVuSans-32"/>
       <use xlink:href="#DejaVuSans-35" x="63.623047"/>
      </g>
     </g>
    </g>
    <g id="xtick_18">
     <g id="line2d_51">
      <g>
       <use xlink:href="#m4b782182be" x="1869.645781" y="287.65" style="stroke: #000000; stroke-width: 0.8"/>
      </g>
     </g>
     <g id="text_43">
      <!-- 50 -->
      <g transform="translate(1852.467031 315.165781) scale(0.27 -0.27)">
       <use xlink:href="#DejaVuSans-35"/>
       <use xlink:href="#DejaVuSans-30" x="63.623047"/>
      </g>
     </g>
    </g>
    <g id="xtick_19">
     <g id="line2d_52">
      <g>
       <use xlink:href="#m4b782182be" x="1954.020781" y="287.65" style="stroke: #000000; stroke-width: 0.8"/>
      </g>
     </g>
     <g id="text_44">
      <!-- 75 -->
      <g transform="translate(1936.842031 315.165781) scale(0.27 -0.27)">
       <use xlink:href="#DejaVuSans-37"/>
       <use xlink:href="#DejaVuSans-35" x="63.623047"/>
      </g>
     </g>
    </g>
    <g id="xtick_20">
     <g id="line2d_53">
      <g>
       <use xlink:href="#m4b782182be" x="2038.395781" y="287.65" style="stroke: #000000; stroke-width: 0.8"/>
      </g>
     </g>
     <g id="text_45">
      <!-- 100 -->
      <g transform="translate(2012.627656 315.165781) scale(0.27 -0.27)">
       <use xlink:href="#DejaVuSans-31"/>
       <use xlink:href="#DejaVuSans-30" x="63.623047"/>
       <use xlink:href="#DejaVuSans-30" x="127.246094"/>
      </g>
     </g>
    </g>
    <g id="text_46">
     <!-- Time [ms] -->
     <g transform="translate(1827.798125 347.57625) scale(0.3 -0.3)">
      <use xlink:href="#DejaVuSans-54"/>
      <use xlink:href="#DejaVuSans-69" x="57.958984"/>
      <use xlink:href="#DejaVuSans-6d" x="85.742188"/>
      <use xlink:href="#DejaVuSans-65" x="183.154297"/>
      <use xlink:href="#DejaVuSans-20" x="244.677734"/>
      <use xlink:href="#DejaVuSans-5b" x="276.464844"/>
      <use xlink:href="#DejaVuSans-6d" x="315.478516"/>
      <use xlink:href="#DejaVuSans-73" x="412.890625"/>
      <use xlink:href="#DejaVuSans-5d" x="464.990234"/>
     </g>
    </g>
   </g>
   <g id="matplotlib.axis_8">
    <g id="ytick_16">
     <g id="line2d_54">
      <g>
       <use xlink:href="#m34fd80a7f2" x="1700.895781" y="287.65" style="stroke: #000000; stroke-width: 0.8"/>
      </g>
     </g>
     <g id="text_47">
      <!-- 0.00 -->
      <g transform="translate(1633.778594 297.907891) scale(0.27 -0.27)">
       <use xlink:href="#DejaVuSans-30"/>
       <use xlink:href="#DejaVuSans-2e" x="63.623047"/>
       <use xlink:href="#DejaVuSans-30" x="95.410156"/>
       <use xlink:href="#DejaVuSans-30" x="159.033203"/>
      </g>
     </g>
    </g>
    <g id="ytick_17">
     <g id="line2d_55">
      <g>
       <use xlink:href="#m34fd80a7f2" x="1700.895781" y="225.28" style="stroke: #000000; stroke-width: 0.8"/>
      </g>
     </g>
     <g id="text_48">
      <!-- 0.25 -->
      <g transform="translate(1633.778594 235.537891) scale(0.27 -0.27)">
       <use xlink:href="#DejaVuSans-30"/>
       <use xlink:href="#DejaVuSans-2e" x="63.623047"/>
       <use xlink:href="#DejaVuSans-32" x="95.410156"/>
       <use xlink:href="#DejaVuSans-35" x="159.033203"/>
      </g>
     </g>
    </g>
    <g id="ytick_18">
     <g id="line2d_56">
      <g>
       <use xlink:href="#m34fd80a7f2" x="1700.895781" y="162.91" style="stroke: #000000; stroke-width: 0.8"/>
      </g>
     </g>
     <g id="text_49">
      <!-- 0.50 -->
      <g transform="translate(1633.778594 173.167891) scale(0.27 -0.27)">
       <use xlink:href="#DejaVuSans-30"/>
       <use xlink:href="#DejaVuSans-2e" x="63.623047"/>
       <use xlink:href="#DejaVuSans-35" x="95.410156"/>
       <use xlink:href="#DejaVuSans-30" x="159.033203"/>
      </g>
     </g>
    </g>
    <g id="ytick_19">
     <g id="line2d_57">
      <g>
       <use xlink:href="#m34fd80a7f2" x="1700.895781" y="100.54" style="stroke: #000000; stroke-width: 0.8"/>
      </g>
     </g>
     <g id="text_50">
      <!-- 0.75 -->
      <g transform="translate(1633.778594 110.797891) scale(0.27 -0.27)">
       <use xlink:href="#DejaVuSans-30"/>
       <use xlink:href="#DejaVuSans-2e" x="63.623047"/>
       <use xlink:href="#DejaVuSans-37" x="95.410156"/>
       <use xlink:href="#DejaVuSans-35" x="159.033203"/>
      </g>
     </g>
    </g>
    <g id="ytick_20">
     <g id="line2d_58">
      <g>
       <use xlink:href="#m34fd80a7f2" x="1700.895781" y="38.17" style="stroke: #000000; stroke-width: 0.8"/>
      </g>
     </g>
     <g id="text_51">
      <!-- 1.00 -->
      <g transform="translate(1633.778594 48.427891) scale(0.27 -0.27)">
       <use xlink:href="#DejaVuSans-31"/>
       <use xlink:href="#DejaVuSans-2e" x="63.623047"/>
       <use xlink:href="#DejaVuSans-30" x="95.410156"/>
       <use xlink:href="#DejaVuSans-30" x="159.033203"/>
      </g>
     </g>
    </g>
    <g id="text_52">
     <!-- unitless -->
     <g transform="translate(1623.539531 220.995156) rotate(-90) scale(0.3 -0.3)">
      <use xlink:href="#DejaVuSans-75"/>
      <use xlink:href="#DejaVuSans-6e" x="63.378906"/>
      <use xlink:href="#DejaVuSans-69" x="126.757812"/>
      <use xlink:href="#DejaVuSans-74" x="154.541016"/>
      <use xlink:href="#DejaVuSans-6c" x="193.75"/>
      <use xlink:href="#DejaVuSans-65" x="221.533203"/>
      <use xlink:href="#DejaVuSans-73" x="283.056641"/>
      <use xlink:href="#DejaVuSans-73" x="335.15625"/>
     </g>
    </g>
   </g>
   <g id="line2d_59">
    <path d="M 1700.895781 287.65 
L 2105.895781 287.65 
" clip-path="url(#pc2e0133e60)" style="fill: none; stroke: #d3d3d3; stroke-opacity: 0.8; stroke-width: 1.5; stroke-linecap: square"/>
   </g>
   <g id="line2d_60">
    <path d="M 1700.895781 287.65 
L 1711.020781 287.65 
L 1711.695781 212.224107 
L 1712.370781 171.586245 
L 1713.045781 144.617089 
L 1713.720781 139.548582 
L 1715.070781 134.750354 
L 1716.420781 130.888985 
L 1717.095781 129.254599 
L 1717.770781 128.267388 
L 1718.445781 126.463174 
L 1719.120781 125.756 
L 1719.795781 124.214241 
L 1720.470781 123.564138 
L 1721.145781 123.16134 
L 1721.820781 122.477331 
L 1722.495781 121.960506 
L 1723.845781 146.910126 
L 1725.195781 168.003844 
L 1726.545781 185.872728 
L 1727.895781 201.068379 
L 1729.245781 213.989972 
L 1730.595781 225.038966 
L 1731.945781 234.470769 
L 1733.295781 242.528074 
L 1734.645781 249.340935 
L 1735.995781 255.148165 
L 1737.345781 260.082723 
L 1738.695781 264.275521 
L 1740.045781 267.783642 
L 1740.720781 270.968806 
L 1741.395781 276.833732 
L 1742.070781 262.478722 
L 1745.445781 157.083487 
L 1746.120781 139.53212 
L 1746.795781 125.612973 
L 1747.470781 119.541307 
L 1748.145781 118.808556 
L 1755.570781 118.297255 
L 1756.920781 118.239187 
L 1763.670781 118.154175 
L 1764.345781 118.178788 
L 1765.020781 118.079844 
L 1765.695781 118.197414 
L 1766.370781 118.029406 
L 1767.045781 126.823899 
L 1768.395781 150.780077 
L 1769.745781 171.061141 
L 1771.770781 199.499078 
L 1773.120781 238.619089 
L 1773.795781 224.985206 
L 1774.470781 202.288755 
L 1775.820781 166.866265 
L 1777.845781 123.64537 
L 1779.195781 149.672628 
L 1780.545781 171.46189 
L 1781.895781 189.720957 
L 1783.245781 205.036567 
L 1784.595781 217.895551 
L 1785.945781 228.702217 
L 1787.295781 237.79266 
L 1788.645781 245.446531 
L 1789.995781 251.896747 
L 1791.345781 257.337482 
L 1792.695781 261.930776 
L 1794.045781 265.811978 
L 1795.395781 269.094257 
L 1796.745781 271.87233 
L 1798.095781 274.225543 
L 1799.445781 276.220435 
L 1800.795781 277.912855 
L 1801.470781 278.660609 
L 1802.145781 224.748473 
L 1802.820781 197.591028 
L 1804.170781 156.48382 
L 1804.845781 140.165055 
L 1805.520781 135.954412 
L 1806.870781 132.201466 
L 1808.220781 129.132103 
L 1809.570781 126.620285 
L 1810.920781 124.552035 
L 1812.270781 122.868205 
L 1813.620781 121.464689 
L 1814.295781 130.7738 
L 1815.645781 154.577209 
L 1816.995781 174.69559 
L 1818.345781 191.703061 
L 1819.695781 206.110369 
L 1821.045781 218.330469 
L 1821.720781 227.59324 
L 1822.395781 248.310131 
L 1823.070781 231.669242 
L 1824.420781 190.267691 
L 1825.770781 158.183462 
L 1827.120781 132.783803 
L 1827.795781 121.974706 
L 1828.470781 120.817646 
L 1829.820781 119.987844 
L 1830.495781 119.373183 
L 1831.170781 117.628948 
L 1831.845781 115.358381 
L 1831.845781 115.358381 
" clip-path="url(#pc2e0133e60)" style="fill: none; stroke: #000000; stroke-width: 5; stroke-linecap: square"/>
   </g>
   <g id="line2d_61">
    <path d="M 1700.895781 287.65 
L 2105.895781 287.65 
" clip-path="url(#pc2e0133e60)" style="fill: none; stroke: #000000; stroke-width: 5; stroke-linecap: square"/>
   </g>
   <g id="line2d_62">
    <path d="M 1700.895781 124.19026 
L 1702.245781 122.359612 
L 1703.595781 120.837207 
L 1704.945781 119.569694 
L 1706.970781 118.052535 
L 1708.995781 116.895143 
L 1711.020781 116.01003 
L 1713.720781 115.142329 
L 1716.420781 114.531092 
L 1719.795781 114.012049 
L 1723.845781 113.621393 
L 1729.245781 113.329977 
L 1737.345781 113.134358 
L 1752.195781 113.035187 
L 1778.520781 113.015026 
L 1779.870781 157.037993 
L 1780.545781 146.872119 
L 1781.220781 144.634389 
L 1782.570781 138.569268 
L 1783.920781 133.678386 
L 1785.270781 129.732799 
L 1786.620781 126.548435 
L 1787.970781 123.977265 
L 1789.320781 121.900218 
L 1790.670781 120.221489 
L 1792.020781 118.863974 
L 1793.370781 117.7656 
L 1794.720781 116.876379 
L 1796.745781 115.848806 
L 1798.770781 115.09852 
L 1799.445781 115.820727 
L 1800.120781 152.117138 
L 1800.795781 153.911921 
L 1801.470781 141.802689 
L 1802.145781 144.201985 
L 1803.495781 138.236241 
L 1804.845781 133.423073 
L 1806.195781 129.538112 
L 1807.545781 126.400918 
L 1808.895781 123.866336 
L 1810.245781 121.81757 
L 1811.595781 120.160614 
L 1812.945781 118.819783 
L 1814.295781 117.734124 
L 1816.320781 116.479325 
L 1818.345781 115.562916 
L 1820.370781 114.892588 
L 1823.070781 114.268729 
L 1826.445781 113.775827 
L 1830.495781 113.436251 
L 1831.845781 113.361607 
L 1831.845781 113.361607 
" clip-path="url(#pc2e0133e60)" style="fill: none; stroke-dasharray: 22.2,9.6; stroke-dashoffset: 0; stroke: #800080; stroke-width: 6"/>
   </g>
   <g id="line2d_63">
    <path clip-path="url(#pc2e0133e60)" style="fill: none; stroke-dasharray: 11.1,4.8; stroke-dashoffset: 0; stroke: #800080; stroke-width: 3"/>
   </g>
   <g id="line2d_64">
    <path d="M 1700.895781 113.014 
L 2105.895781 113.014 
" clip-path="url(#pc2e0133e60)" style="fill: none; stroke-dasharray: 5,8.25; stroke-dashoffset: 0; stroke: #800080; stroke-opacity: 0.5; stroke-width: 5"/>
   </g>
   <g id="patch_14">
    <path d="M 1700.895781 287.65 
L 1700.895781 38.17 
" style="fill: none; stroke: #000000; stroke-width: 0.8; stroke-linejoin: miter; stroke-linecap: square"/>
   </g>
   <g id="patch_15">
    <path d="M 1700.895781 287.65 
L 2105.895781 287.65 
" style="fill: none; stroke: #000000; stroke-width: 0.8; stroke-linejoin: miter; stroke-linecap: square"/>
   </g>
   <g id="text_53">
    <!-- SAFE-CNS -->
    <g transform="translate(1823.608281 31.515) scale(0.32 -0.32)">
     <defs>
      <path id="DejaVuSans-43" d="M 4122 4306 
L 4122 3641 
Q 3803 3938 3442 4084 
Q 3081 4231 2675 4231 
Q 1875 4231 1450 3742 
Q 1025 3253 1025 2328 
Q 1025 1406 1450 917 
Q 1875 428 2675 428 
Q 3081 428 3442 575 
Q 3803 722 4122 1019 
L 4122 359 
Q 3791 134 3420 21 
Q 3050 -91 2638 -91 
Q 1578 -91 968 557 
Q 359 1206 359 2328 
Q 359 3453 968 4101 
Q 1578 4750 2638 4750 
Q 3056 4750 3426 4639 
Q 3797 4528 4122 4306 
z
" transform="scale(0.015625)"/>
     </defs>
     <use xlink:href="#DejaVuSans-53"/>
     <use xlink:href="#DejaVuSans-41" x="65.351562"/>
     <use xlink:href="#DejaVuSans-46" x="133.759766"/>
     <use xlink:href="#DejaVuSans-45" x="191.279297"/>
     <use xlink:href="#DejaVuSans-2d" x="254.462891"/>
     <use xlink:href="#DejaVuSans-43" x="290.546875"/>
     <use xlink:href="#DejaVuSans-4e" x="360.371094"/>
     <use xlink:href="#DejaVuSans-53" x="435.175781"/>
    </g>
   </g>
   <g id="legend_3">
    <g id="patch_16">
     <path d="M 1957.258281 276.65 
L 2090.495781 276.65 
Q 2094.895781 276.65 2094.895781 272.25 
L 2094.895781 242.158125 
Q 2094.895781 237.758125 2090.495781 237.758125 
L 1957.258281 237.758125 
Q 1952.858281 237.758125 1952.858281 242.158125 
L 1952.858281 272.25 
Q 1952.858281 276.65 1957.258281 276.65 
z
" style="fill: #ffffff; opacity: 0.2; stroke: #cccccc; stroke-linejoin: miter"/>
    </g>
    <g id="line2d_65">
     <path d="M 1961.658281 255.574688 
L 1983.658281 255.574688 
L 2005.658281 255.574688 
" style="fill: none; stroke: #000000; stroke-width: 5; stroke-linecap: square"/>
    </g>
    <g id="text_54">
     <!-- Y-axis -->
     <g transform="translate(2023.258281 263.274688) scale(0.22 -0.22)">
      <use xlink:href="#DejaVuSans-59"/>
      <use xlink:href="#DejaVuSans-2d" x="49.208984"/>
      <use xlink:href="#DejaVuSans-61" x="85.292969"/>
      <use xlink:href="#DejaVuSans-78" x="146.572266"/>
      <use xlink:href="#DejaVuSans-69" x="205.751953"/>
      <use xlink:href="#DejaVuSans-73" x="233.535156"/>
     </g>
    </g>
   </g>
  </g>
  <g id="axes_5">
   <g id="patch_17">
    <path d="M 2227.395781 287.65 
L 2632.395781 287.65 
L 2632.395781 38.17 
L 2227.395781 38.17 
z
" style="fill: #ffffff"/>
   </g>
   <g id="matplotlib.axis_9">
    <g id="xtick_21">
     <g id="line2d_66">
      <g>
       <use xlink:href="#m4b782182be" x="2227.395781" y="287.65" style="stroke: #000000; stroke-width: 0.8"/>
      </g>
     </g>
     <g id="text_55">
      <!-- 0 -->
      <g transform="translate(2218.806406 315.165781) scale(0.27 -0.27)">
       <use xlink:href="#DejaVuSans-30"/>
      </g>
     </g>
    </g>
    <g id="xtick_22">
     <g id="line2d_67">
      <g>
       <use xlink:href="#m4b782182be" x="2311.770781" y="287.65" style="stroke: #000000; stroke-width: 0.8"/>
      </g>
     </g>
     <g id="text_56">
      <!-- 25 -->
      <g transform="translate(2294.592031 315.165781) scale(0.27 -0.27)">
       <use xlink:href="#DejaVuSans-32"/>
       <use xlink:href="#DejaVuSans-35" x="63.623047"/>
      </g>
     </g>
    </g>
    <g id="xtick_23">
     <g id="line2d_68">
      <g>
       <use xlink:href="#m4b782182be" x="2396.145781" y="287.65" style="stroke: #000000; stroke-width: 0.8"/>
      </g>
     </g>
     <g id="text_57">
      <!-- 50 -->
      <g transform="translate(2378.967031 315.165781) scale(0.27 -0.27)">
       <use xlink:href="#DejaVuSans-35"/>
       <use xlink:href="#DejaVuSans-30" x="63.623047"/>
      </g>
     </g>
    </g>
    <g id="xtick_24">
     <g id="line2d_69">
      <g>
       <use xlink:href="#m4b782182be" x="2480.520781" y="287.65" style="stroke: #000000; stroke-width: 0.8"/>
      </g>
     </g>
     <g id="text_58">
      <!-- 75 -->
      <g transform="translate(2463.342031 315.165781) scale(0.27 -0.27)">
       <use xlink:href="#DejaVuSans-37"/>
       <use xlink:href="#DejaVuSans-35" x="63.623047"/>
      </g>
     </g>
    </g>
    <g id="xtick_25">
     <g id="line2d_70">
      <g>
       <use xlink:href="#m4b782182be" x="2564.895781" y="287.65" style="stroke: #000000; stroke-width: 0.8"/>
      </g>
     </g>
     <g id="text_59">
      <!-- 100 -->
      <g transform="translate(2539.127656 315.165781) scale(0.27 -0.27)">
       <use xlink:href="#DejaVuSans-31"/>
       <use xlink:href="#DejaVuSans-30" x="63.623047"/>
       <use xlink:href="#DejaVuSans-30" x="127.246094"/>
      </g>
     </g>
    </g>
    <g id="text_60">
     <!-- Time [ms] -->
     <g transform="translate(2354.298125 347.57625) scale(0.3 -0.3)">
      <use xlink:href="#DejaVuSans-54"/>
      <use xlink:href="#DejaVuSans-69" x="57.958984"/>
      <use xlink:href="#DejaVuSans-6d" x="85.742188"/>
      <use xlink:href="#DejaVuSans-65" x="183.154297"/>
      <use xlink:href="#DejaVuSans-20" x="244.677734"/>
      <use xlink:href="#DejaVuSans-5b" x="276.464844"/>
      <use xlink:href="#DejaVuSans-6d" x="315.478516"/>
      <use xlink:href="#DejaVuSans-73" x="412.890625"/>
      <use xlink:href="#DejaVuSans-5d" x="464.990234"/>
     </g>
    </g>
   </g>
   <g id="matplotlib.axis_10">
    <g id="ytick_21">
     <g id="line2d_71">
      <g>
       <use xlink:href="#m34fd80a7f2" x="2227.395781" y="259.192111" style="stroke: #000000; stroke-width: 0.8"/>
      </g>
     </g>
     <g id="text_61">
      <!-- 0.0 -->
      <g transform="translate(2177.457344 269.450002) scale(0.27 -0.27)">
       <use xlink:href="#DejaVuSans-30"/>
       <use xlink:href="#DejaVuSans-2e" x="63.623047"/>
       <use xlink:href="#DejaVuSans-30" x="95.410156"/>
      </g>
     </g>
    </g>
    <g id="ytick_22">
     <g id="line2d_72">
      <g>
       <use xlink:href="#m34fd80a7f2" x="2227.395781" y="154.351056" style="stroke: #000000; stroke-width: 0.8"/>
      </g>
     </g>
     <g id="text_62">
      <!-- 0.5 -->
      <g transform="translate(2177.457344 164.608946) scale(0.27 -0.27)">
       <use xlink:href="#DejaVuSans-30"/>
       <use xlink:href="#DejaVuSans-2e" x="63.623047"/>
       <use xlink:href="#DejaVuSans-35" x="95.410156"/>
      </g>
     </g>
    </g>
    <g id="ytick_23">
     <g id="line2d_73">
      <g>
       <use xlink:href="#m34fd80a7f2" x="2227.395781" y="49.51" style="stroke: #000000; stroke-width: 0.8"/>
      </g>
     </g>
     <g id="text_63">
      <!-- 1.0 -->
      <g transform="translate(2177.457344 59.767891) scale(0.27 -0.27)">
       <use xlink:href="#DejaVuSans-31"/>
       <use xlink:href="#DejaVuSans-2e" x="63.623047"/>
       <use xlink:href="#DejaVuSans-30" x="95.410156"/>
      </g>
     </g>
    </g>
    <g id="text_64">
     <!-- Normalized -->
     <g transform="translate(2167.218281 247.976406) rotate(-90) scale(0.3 -0.3)">
      <defs>
       <path id="DejaVuSans-6f" d="M 1959 3097 
Q 1497 3097 1228 2736 
Q 959 2375 959 1747 
Q 959 1119 1226 758 
Q 1494 397 1959 397 
Q 2419 397 2687 759 
Q 2956 1122 2956 1747 
Q 2956 2369 2687 2733 
Q 2419 3097 1959 3097 
z
M 1959 3584 
Q 2709 3584 3137 3096 
Q 3566 2609 3566 1747 
Q 3566 888 3137 398 
Q 2709 -91 1959 -91 
Q 1206 -91 779 398 
Q 353 888 353 1747 
Q 353 2609 779 3096 
Q 1206 3584 1959 3584 
z
" transform="scale(0.015625)"/>
       <path id="DejaVuSans-72" d="M 2631 2963 
Q 2534 3019 2420 3045 
Q 2306 3072 2169 3072 
Q 1681 3072 1420 2755 
Q 1159 2438 1159 1844 
L 1159 0 
L 581 0 
L 581 3500 
L 1159 3500 
L 1159 2956 
Q 1341 3275 1631 3429 
Q 1922 3584 2338 3584 
Q 2397 3584 2469 3576 
Q 2541 3569 2628 3553 
L 2631 2963 
z
" transform="scale(0.015625)"/>
       <path id="DejaVuSans-7a" d="M 353 3500 
L 3084 3500 
L 3084 2975 
L 922 459 
L 3084 459 
L 3084 0 
L 275 0 
L 275 525 
L 2438 3041 
L 353 3041 
L 353 3500 
z
" transform="scale(0.015625)"/>
       <path id="DejaVuSans-64" d="M 2906 2969 
L 2906 4863 
L 3481 4863 
L 3481 0 
L 2906 0 
L 2906 525 
Q 2725 213 2448 61 
Q 2172 -91 1784 -91 
Q 1150 -91 751 415 
Q 353 922 353 1747 
Q 353 2572 751 3078 
Q 1150 3584 1784 3584 
Q 2172 3584 2448 3432 
Q 2725 3281 2906 2969 
z
M 947 1747 
Q 947 1113 1208 752 
Q 1469 391 1925 391 
Q 2381 391 2643 752 
Q 2906 1113 2906 1747 
Q 2906 2381 2643 2742 
Q 2381 3103 1925 3103 
Q 1469 3103 1208 2742 
Q 947 2381 947 1747 
z
" transform="scale(0.015625)"/>
      </defs>
      <use xlink:href="#DejaVuSans-4e"/>
      <use xlink:href="#DejaVuSans-6f" x="74.804688"/>
      <use xlink:href="#DejaVuSans-72" x="135.986328"/>
      <use xlink:href="#DejaVuSans-6d" x="175.349609"/>
      <use xlink:href="#DejaVuSans-61" x="272.761719"/>
      <use xlink:href="#DejaVuSans-6c" x="334.041016"/>
      <use xlink:href="#DejaVuSans-69" x="361.824219"/>
      <use xlink:href="#DejaVuSans-7a" x="389.607422"/>
      <use xlink:href="#DejaVuSans-65" x="442.097656"/>
      <use xlink:href="#DejaVuSans-64" x="503.621094"/>
     </g>
    </g>
   </g>
   <g id="line2d_74">
    <path d="M 2227.395781 259.192111 
L 2632.395781 259.192111 
" clip-path="url(#p11f2c2a497)" style="fill: none; stroke: #d3d3d3; stroke-opacity: 0.8; stroke-width: 1.5; stroke-linecap: square"/>
   </g>
   <g id="line2d_75">
    <path d="M 2227.395781 259.192111 
L 2237.520781 259.192111 
L 2238.195781 258.424026 
L 2238.870781 257.180089 
L 2240.220781 253.783448 
L 2241.570781 249.777768 
L 2242.920781 245.190189 
L 2244.945781 237.233666 
L 2246.970781 227.996308 
L 2248.995781 217.504974 
L 2267.220781 120.018425 
L 2268.570781 113.391973 
L 2269.920781 107.706315 
L 2271.270781 103.127978 
L 2272.620781 99.707274 
L 2273.970781 97.295724 
L 2275.320781 95.508613 
L 2276.670781 94.275171 
L 2277.345781 93.865771 
L 2278.020781 93.59463 
L 2278.695781 93.461061 
L 2279.370781 93.465444 
L 2280.045781 93.607209 
L 2280.720781 93.886766 
L 2281.395781 94.303222 
L 2282.745781 95.547985 
L 2284.095781 97.341265 
L 2285.445781 99.6814 
L 2286.795781 102.56837 
L 2288.145781 106.001306 
L 2289.495781 109.980168 
L 2290.845781 114.503978 
L 2292.870781 122.313484 
L 2298.270781 144.547031 
L 2299.620781 148.782735 
L 2300.295781 150.393298 
L 2300.970781 151.713133 
L 2301.645781 152.764094 
L 2302.320781 153.553723 
L 2302.995781 154.083604 
L 2303.670781 154.351056 
L 2327.970781 154.351056 
L 2328.645781 153.795034 
L 2329.320781 152.911092 
L 2329.995781 151.727073 
L 2330.670781 150.259129 
L 2332.020781 146.613338 
L 2333.370781 142.373597 
L 2334.720781 137.56259 
L 2336.745781 129.281209 
L 2338.770781 119.728925 
L 2341.470781 105.367211 
L 2348.220781 69.035542 
L 2349.570781 63.290877 
L 2350.920781 58.746151 
L 2352.270781 55.236111 
L 2353.620781 52.713652 
L 2354.970781 51.063807 
L 2356.320781 49.992263 
L 2356.995781 49.672907 
L 2357.670781 49.51 
L 2358.345781 49.51 
L 2358.345781 49.51 
" clip-path="url(#p11f2c2a497)" style="fill: none; stroke: #e41a1c; stroke-width: 5; stroke-linecap: square"/>
   </g>
   <g id="line2d_76">
    <path d="M 2227.395781 259.192111 
L 2237.520781 259.192111 
L 2238.870781 258.8266 
L 2240.220781 258.138759 
L 2241.570781 257.240298 
L 2242.920781 256.111143 
L 2244.270781 254.728527 
L 2245.620781 253.067339 
L 2246.970781 251.103043 
L 2248.320781 248.816698 
L 2251.020781 243.49992 
L 2253.720781 237.555663 
L 2256.420781 230.986049 
L 2259.120781 223.795207 
L 2261.820781 215.98668 
L 2264.520781 207.563436 
L 2269.920781 190.292086 
L 2271.270781 187.065544 
L 2272.620781 184.580429 
L 2273.970781 182.775695 
L 2275.320781 181.399169 
L 2276.670781 180.422375 
L 2278.020781 179.868896 
L 2278.695781 179.757927 
L 2279.370781 179.761616 
L 2280.045781 179.882494 
L 2280.720781 180.123918 
L 2281.395781 180.488119 
L 2282.745781 181.597856 
L 2284.095781 183.235486 
L 2285.445781 185.423441 
L 2286.795781 188.185613 
L 2288.145781 191.545063 
L 2289.495781 195.525624 
L 2290.845781 200.150166 
L 2292.195781 205.443177 
L 2294.895781 217.401082 
L 2298.945781 235.696898 
L 2300.295781 239.845363 
L 2300.970781 241.418002 
L 2301.645781 242.681755 
L 2302.320781 243.639895 
L 2302.995781 244.288648 
L 2303.670781 244.619022 
L 2327.970781 244.619022 
L 2328.645781 243.707293 
L 2329.320781 242.248198 
L 2329.995781 240.280831 
L 2330.670781 237.825648 
L 2332.020781 231.667275 
L 2333.370781 224.413176 
L 2334.720781 216.07658 
L 2336.070781 206.637707 
L 2338.095781 190.367202 
L 2340.120781 171.498792 
L 2344.845781 123.801165 
L 2348.895781 82.74579 
L 2350.245781 72.651989 
L 2351.595781 64.589559 
L 2352.945781 58.483662 
L 2353.620781 56.15351 
L 2354.970781 52.754655 
L 2355.645781 51.493129 
L 2356.320781 50.523985 
L 2356.995781 49.853701 
L 2357.670781 49.51 
L 2358.345781 49.51 
L 2358.345781 49.51 
" clip-path="url(#p11f2c2a497)" style="fill: none; stroke: #377eb8; stroke-width: 5; stroke-linecap: square"/>
   </g>
   <g id="line2d_77">
    <path d="M 2227.395781 259.192111 
L 2239.545781 259.111829 
L 2242.920781 258.765273 
L 2245.620781 258.234634 
L 2247.645781 257.628509 
L 2249.670781 256.807589 
L 2252.370781 255.445848 
L 2255.070781 253.762259 
L 2257.095781 252.268235 
L 2259.120781 250.561212 
L 2261.145781 248.626794 
L 2263.170781 246.451433 
L 2265.195781 244.021579 
L 2270.595781 237.137823 
L 2271.945781 235.862997 
L 2273.295781 234.891235 
L 2275.320781 233.838471 
L 2276.670781 233.356821 
L 2278.020781 233.076543 
L 2279.370781 233.021075 
L 2280.720781 233.215059 
L 2282.070781 233.683829 
L 2283.420781 234.453883 
L 2284.770781 235.552727 
L 2286.120781 237.008677 
L 2287.470781 238.851137 
L 2288.820781 241.110383 
L 2290.170781 243.818002 
L 2291.520781 247.006399 
L 2292.870781 250.708975 
L 2295.570781 258.927094 
L 2298.945781 269.690515 
L 2300.295781 272.724641 
L 2301.645781 274.8375 
L 2302.320781 275.561366 
L 2302.995781 276.055908 
L 2303.670781 276.31 
L 2327.970781 276.31 
L 2328.645781 275.379185 
L 2329.320781 273.879616 
L 2329.995781 271.844285 
L 2330.670781 269.287576 
L 2332.020781 262.810663 
L 2333.370781 255.082875 
L 2334.720781 246.088542 
L 2336.070781 235.776585 
L 2337.420781 224.09407 
L 2338.770781 210.987157 
L 2340.795781 188.745201 
L 2344.170781 149.089779 
L 2348.895781 91.296605 
L 2350.245781 78.829213 
L 2351.595781 68.761397 
L 2352.945781 61.054017 
L 2353.620781 58.088285 
L 2354.970781 53.728668 
L 2355.645781 52.097285 
L 2356.320781 50.837409 
L 2356.995781 49.961485 
L 2357.670781 49.51 
L 2358.345781 49.51 
L 2358.345781 49.51 
" clip-path="url(#p11f2c2a497)" style="fill: none; stroke: #4daf4a; stroke-width: 5; stroke-linecap: square"/>
   </g>
   <g id="line2d_78">
    <path d="M 2227.395781 259.192111 
L 2632.395781 259.192111 
" clip-path="url(#p11f2c2a497)" style="fill: none; stroke: #000000; stroke-opacity: 0.5; stroke-linecap: square"/>
   </g>
   <g id="line2d_79">
    <path d="M 2227.395781 259.192111 
L 2632.395781 259.192111 
" clip-path="url(#p11f2c2a497)" style="fill: none; stroke: #000000; stroke-width: 5; stroke-linecap: square"/>
   </g>
   <g id="patch_18">
    <path d="M 2227.395781 287.65 
L 2227.395781 38.17 
" style="fill: none; stroke: #000000; stroke-width: 0.8; stroke-linejoin: miter; stroke-linecap: square"/>
   </g>
   <g id="patch_19">
    <path d="M 2227.395781 287.65 
L 2632.395781 287.65 
" style="fill: none; stroke: #000000; stroke-width: 0.8; stroke-linejoin: miter; stroke-linecap: square"/>
   </g>
   <g id="text_65">
    <!-- Moments -->
    <g transform="translate(2356.123281 31.515) scale(0.32 -0.32)">
     <defs>
      <path id="DejaVuSans-4d" d="M 628 4666 
L 1569 4666 
L 2759 1491 
L 3956 4666 
L 4897 4666 
L 4897 0 
L 4281 0 
L 4281 4097 
L 3078 897 
L 2444 897 
L 1241 4097 
L 1241 0 
L 628 0 
L 628 4666 
z
" transform="scale(0.015625)"/>
     </defs>
     <use xlink:href="#DejaVuSans-4d"/>
     <use xlink:href="#DejaVuSans-6f" x="86.279297"/>
     <use xlink:href="#DejaVuSans-6d" x="147.460938"/>
     <use xlink:href="#DejaVuSans-65" x="244.873047"/>
     <use xlink:href="#DejaVuSans-6e" x="306.396484"/>
     <use xlink:href="#DejaVuSans-74" x="369.775391"/>
     <use xlink:href="#DejaVuSans-73" x="408.984375"/>
    </g>
   </g>
   <g id="legend_4">
    <g id="patch_20">
     <path d="M 2513.616406 276.65 
L 2616.995781 276.65 
Q 2621.395781 276.65 2621.395781 272.25 
L 2621.395781 177.574375 
Q 2621.395781 173.174375 2616.995781 173.174375 
L 2513.616406 173.174375 
Q 2509.216406 173.174375 2509.216406 177.574375 
L 2509.216406 272.25 
Q 2509.216406 276.65 2513.616406 276.65 
z
" style="fill: #ffffff; opacity: 0.2; stroke: #cccccc; stroke-linejoin: miter"/>
    </g>
    <g id="line2d_80">
     <path d="M 2518.016406 190.990938 
L 2540.016406 190.990938 
L 2562.016406 190.990938 
" style="fill: none; stroke: #e41a1c; stroke-width: 5; stroke-linecap: square"/>
    </g>
    <g id="text_66">
     <!-- M0 -->
     <g transform="translate(2579.616406 198.690938) scale(0.22 -0.22)">
      <use xlink:href="#DejaVuSans-4d"/>
      <use xlink:href="#DejaVuSans-30" x="86.279297"/>
     </g>
    </g>
    <g id="line2d_81">
     <path d="M 2518.016406 223.282813 
L 2540.016406 223.282813 
L 2562.016406 223.282813 
" style="fill: none; stroke: #377eb8; stroke-width: 5; stroke-linecap: square"/>
    </g>
    <g id="text_67">
     <!-- M1 -->
     <g transform="translate(2579.616406 230.982813) scale(0.22 -0.22)">
      <use xlink:href="#DejaVuSans-4d"/>
      <use xlink:href="#DejaVuSans-31" x="86.279297"/>
     </g>
    </g>
    <g id="line2d_82">
     <path d="M 2518.016406 255.574688 
L 2540.016406 255.574688 
L 2562.016406 255.574688 
" style="fill: none; stroke: #4daf4a; stroke-width: 5; stroke-linecap: square"/>
    </g>
    <g id="text_68">
     <!-- M2 -->
     <g transform="translate(2579.616406 263.274688) scale(0.22 -0.22)">
      <use xlink:href="#DejaVuSans-4d"/>
      <use xlink:href="#DejaVuSans-32" x="86.279297"/>
     </g>
    </g>
   </g>
  </g>
 </g>
 <defs>
  <clipPath id="p251b7b8b4c">
   <rect x="121.395781" y="38.17" width="405" height="249.48"/>
  </clipPath>
  <clipPath id="p9a6e60c0e5">
   <rect x="647.895781" y="38.17" width="405" height="249.48"/>
  </clipPath>
  <clipPath id="pa80510bb78">
   <rect x="1174.395781" y="38.17" width="405" height="249.48"/>
  </clipPath>
  <clipPath id="pc2e0133e60">
   <rect x="1700.895781" y="38.17" width="405" height="249.48"/>
  </clipPath>
  <clipPath id="p11f2c2a497">
   <rect x="2227.395781" y="38.17" width="405" height="249.48"/>
  </clipPath>
 </defs>
</svg>
