<?xml version="1.0" encoding="UTF-8"?>
<svg id="Layer_1" xmlns="http://www.w3.org/2000/svg" xmlns:xlink="http://www.w3.org/1999/xlink" version="1.1" viewBox="0 0 1141.6 302">
  <!-- Generator: Adobe Illustrator 30.1.0, SVG Export Plug-In . SVG Version: 2.1.1 Build 136)  -->
  <defs>
    <style>
      .st0, .st1 {
        fill: none;
      }

      .st2 {
        isolation: isolate;
      }

      .st3 {
        clip-path: url(#clippath-1);
      }

      .st4 {
        clip-path: url(#clippath-3);
      }

      .st5 {
        clip-path: url(#clippath-2);
      }

      .st6 {
        fill: #fff;
      }

      .st7 {
        stroke-linejoin: round;
      }

      .st7, .st1 {
        stroke: #000;
        stroke-width: .8px;
      }

      .st1 {
        stroke-linecap: square;
      }

      .st8 {
        clip-path: url(#clippath);
      }
    </style>
    <clipPath id="clippath">
      <rect class="st0" x="7.2" y="28.4" width="266.4" height="266.4"/>
    </clipPath>
    <clipPath id="clippath-1">
      <rect class="st0" x="294.1" y="28.4" width="266.4" height="266.4"/>
    </clipPath>
    <clipPath id="clippath-2">
      <rect class="st0" x="581.1" y="28.4" width="266.4" height="266.4"/>
    </clipPath>
    <clipPath id="clippath-3">
      <rect class="st0" x="868" y="28.4" width="266.4" height="266.4"/>
    </clipPath>
  </defs>
  <g id="figure_1">
    <g id="patch_1">
      <path class="st6" d="M0,302h1141.6V0H0v302Z"/>
    </g>
    <g id="axes_1">
      <g class="st8">
        <image id="image462ee5cb70" class="st2" width="371" height="371" transform="translate(7 295) scale(.7 -.7)" xlink:href="Cov_Whole_AllScans_Row_Phantom_DWI-1.png"/>
      </g>
      <g id="text_1">
        <g>
          <path id="DejaVuSans-74" d="M46.4,8.4v3.1h3.7v1.4h-3.7v5.9c0,.9.1,1.5.4,1.7s.7.4,1.5.4h1.8v1.5h-1.8c-1.4,0-2.3-.3-2.9-.8-.5-.5-.8-1.5-.8-2.8v-5.9h-1.3v-1.4h1.3v-3.1h1.8Z"/>
          <path id="DejaVuSans-72" d="M58.8,13.1c-.2-.1-.4-.2-.7-.3-.2,0-.5,0-.8,0-1,0-1.8.3-2.3,1s-.8,1.6-.8,2.8v5.8h-1.8v-10.9h1.8v1.7c.4-.7.9-1.2,1.5-1.5.6-.3,1.3-.5,2.2-.5s.3,0,.4,0c.2,0,.3,0,.5,0v1.8Z"/>
          <path id="DejaVuSans-61" d="M65.7,16.9c-1.5,0-2.5.2-3,.5s-.8.9-.8,1.7.2,1.1.6,1.5c.4.4,1,.6,1.7.6s1.8-.4,2.4-1.1.9-1.6.9-2.8v-.4h-1.8ZM69.3,16.2v6.2h-1.8v-1.7c-.4.7-.9,1.2-1.5,1.5-.6.3-1.4.5-2.2.5s-2-.3-2.7-.9c-.7-.6-1-1.5-1-2.5s.4-2.2,1.2-2.8c.8-.6,2.1-.9,3.7-.9h2.5v-.2c0-.8-.3-1.5-.8-1.9s-1.3-.7-2.3-.7-1.2,0-1.8.2c-.6.2-1.2.4-1.7.7v-1.7c.7-.3,1.3-.4,1.9-.6.6-.1,1.2-.2,1.8-.2,1.6,0,2.8.4,3.5,1.2.8.8,1.2,2.1,1.2,3.7Z"/>
          <path id="DejaVuSans-70" d="M74.7,20.8v5.8h-1.8v-15.1h1.8v1.7c.4-.7.9-1.1,1.4-1.4.6-.3,1.3-.5,2.1-.5,1.3,0,2.4.5,3.2,1.6.8,1.1,1.2,2.4,1.2,4.2s-.4,3.1-1.2,4.2c-.8,1.1-1.9,1.6-3.2,1.6s-1.5-.2-2.1-.5c-.6-.3-1.1-.8-1.4-1.5ZM80.8,16.9c0-1.3-.3-2.4-.8-3.1s-1.3-1.1-2.2-1.1-1.7.4-2.2,1.1-.8,1.8-.8,3.1.3,2.4.8,3.1c.5.8,1.3,1.1,2.2,1.1s1.7-.4,2.2-1.1c.5-.8.8-1.8.8-3.1Z"/>
          <path id="DejaVuSans-5f" d="M94,25.7v1.4h-10.4v-1.4h10.4Z"/>
          <path id="DejaVuSans-6d" d="M104.2,13.6c.5-.8,1-1.4,1.6-1.8s1.4-.6,2.2-.6,2,.4,2.6,1.2c.6.8.9,1.9.9,3.4v6.6h-1.8v-6.5c0-1-.2-1.8-.6-2.3-.4-.5-.9-.8-1.7-.8s-1.7.3-2.2.9c-.5.6-.8,1.5-.8,2.5v6.2h-1.8v-6.5c0-1.1-.2-1.8-.6-2.3s-.9-.8-1.7-.8-1.6.3-2.2.9c-.5.6-.8,1.5-.8,2.5v6.2h-1.8v-10.9h1.8v1.7c.4-.7.9-1.2,1.5-1.5s1.3-.5,2-.5,1.5.2,2,.6c.6.4,1,1,1.2,1.8Z"/>
          <path id="DejaVuSans-6d1" data-name="DejaVuSans-6d" d="M123.7,13.6c.5-.8,1-1.4,1.6-1.8s1.4-.6,2.2-.6,2,.4,2.6,1.2c.6.8.9,1.9.9,3.4v6.6h-1.8v-6.5c0-1-.2-1.8-.6-2.3-.4-.5-.9-.8-1.7-.8s-1.7.3-2.2.9c-.5.6-.8,1.5-.8,2.5v6.2h-1.8v-6.5c0-1.1-.2-1.8-.6-2.3s-.9-.8-1.7-.8-1.6.3-2.2.9c-.5.6-.8,1.5-.8,2.5v6.2h-1.8v-10.9h1.8v1.7c.4-.7.9-1.2,1.5-1.5s1.3-.5,2-.5,1.5.2,2,.6c.6.4,1,1,1.2,1.8Z"/>
          <path id="DejaVuSans-741" data-name="DejaVuSans-74" d="M136.4,8.4v3.1h3.7v1.4h-3.7v5.9c0,.9.1,1.5.4,1.7s.7.4,1.5.4h1.8v1.5h-1.8c-1.4,0-2.3-.3-2.9-.8-.5-.5-.8-1.5-.8-2.8v-5.9h-1.3v-1.4h1.3v-3.1h1.8Z"/>
          <path id="DejaVuSans-30" d="M146.9,9.1c-1,0-1.8.5-2.3,1.5-.5,1-.8,2.5-.8,4.5s.3,3.5.8,4.5c.5,1,1.3,1.5,2.3,1.5s1.8-.5,2.3-1.5c.5-1,.8-2.5.8-4.5s-.3-3.5-.8-4.5c-.5-1-1.3-1.5-2.3-1.5ZM146.9,7.6c1.6,0,2.9.6,3.7,1.9.9,1.3,1.3,3.2,1.3,5.6s-.4,4.3-1.3,5.6c-.9,1.3-2.1,1.9-3.7,1.9s-2.9-.6-3.7-1.9c-.9-1.3-1.3-3.2-1.3-5.6s.4-4.3,1.3-5.6c.9-1.3,2.1-1.9,3.7-1.9Z"/>
          <path id="DejaVuSans-5f1" data-name="DejaVuSans-5f" d="M163.5,25.7v1.4h-10.4v-1.4h10.4Z"/>
          <path id="DejaVuSans-4e" d="M165.3,7.8h2.7l6.5,12.2V7.8h1.9v14.6h-2.7l-6.5-12.2v12.2h-1.9V7.8Z"/>
          <path id="DejaVuSans-63" d="M188,11.9v1.7c-.5-.3-1-.5-1.5-.6s-1-.2-1.5-.2c-1.2,0-2.1.4-2.7,1.1-.6.7-1,1.8-1,3.1s.3,2.4,1,3.1c.6.7,1.6,1.1,2.7,1.1s1,0,1.5-.2,1-.4,1.5-.6v1.7c-.5.2-1,.4-1.6.5-.5.1-1.1.2-1.7.2-1.6,0-3-.5-3.9-1.6-1-1-1.5-2.4-1.5-4.2s.5-3.2,1.5-4.2c1-1,2.3-1.5,4-1.5s1.1,0,1.6.2c.5.1,1,.3,1.5.5Z"/>
          <path id="DejaVuSans-611" data-name="DejaVuSans-61" d="M196.1,16.9c-1.5,0-2.5.2-3,.5s-.8.9-.8,1.7.2,1.1.6,1.5c.4.4,1,.6,1.7.6s1.8-.4,2.4-1.1.9-1.6.9-2.8v-.4h-1.8ZM199.7,16.2v6.2h-1.8v-1.7c-.4.7-.9,1.2-1.5,1.5-.6.3-1.4.5-2.2.5s-2-.3-2.7-.9c-.7-.6-1-1.5-1-2.5s.4-2.2,1.2-2.8c.8-.6,2.1-.9,3.7-.9h2.5v-.2c0-.8-.3-1.5-.8-1.9s-1.3-.7-2.3-.7-1.2,0-1.8.2c-.6.2-1.2.4-1.7.7v-1.7c.7-.3,1.3-.4,1.9-.6.6-.1,1.2-.2,1.8-.2,1.6,0,2.8.4,3.5,1.2.8.8,1.2,2.1,1.2,3.7Z"/>
          <path id="DejaVuSans-6c" d="M203.4,7.2h1.8v15.2h-1.8V7.2Z"/>
          <path id="DejaVuSans-69" d="M209,11.5h1.8v10.9h-1.8v-10.9ZM209,7.2h1.8v2.3h-1.8v-2.3Z"/>
          <path id="DejaVuSans-62" d="M222.4,16.9c0-1.3-.3-2.4-.8-3.1s-1.3-1.1-2.2-1.1-1.7.4-2.2,1.1-.8,1.8-.8,3.1.3,2.4.8,3.1c.5.8,1.3,1.1,2.2,1.1s1.7-.4,2.2-1.1c.5-.8.8-1.8.8-3.1ZM216.2,13.1c.4-.7.9-1.1,1.4-1.4.6-.3,1.3-.5,2.1-.5,1.3,0,2.4.5,3.2,1.6.8,1.1,1.2,2.4,1.2,4.2s-.4,3.1-1.2,4.2c-.8,1.1-1.9,1.6-3.2,1.6s-1.5-.2-2.1-.5c-.6-.3-1.1-.8-1.4-1.5v1.6h-1.8V7.2h1.8v5.9Z"/>
          <path id="DejaVuSans-32" d="M229.2,20.7h6.9v1.7h-9.3v-1.7c.7-.8,1.8-1.8,3.1-3.1,1.3-1.3,2.1-2.1,2.4-2.5.6-.7,1.1-1.3,1.3-1.8.3-.5.4-1,.4-1.5,0-.8-.3-1.4-.8-1.9-.5-.5-1.3-.7-2.1-.7s-1.3.1-2,.3c-.7.2-1.4.5-2.2,1v-2c.8-.3,1.5-.6,2.2-.7.7-.2,1.3-.2,1.9-.2,1.5,0,2.7.4,3.6,1.1.9.8,1.3,1.8,1.3,3s-.1,1.2-.3,1.7c-.2.5-.6,1.2-1.2,1.9-.2.2-.7.7-1.6,1.6-.9.9-2.1,2.2-3.7,3.8Z"/>
        </g>
      </g>
    </g>
    <g id="axes_2">
      <g class="st3">
        <image id="image1d6fdaa2d5" class="st2" width="369" height="371" transform="translate(294 295) scale(.7 -.7)" xlink:href="Cov_Whole_AllScans_Row_Phantom_DWI-2.png"/>
      </g>
      <g id="text_2">
        <g>
          <path id="DejaVuSans-67" d="M332.7,16.8c0-1.3-.3-2.3-.8-3-.5-.7-1.3-1.1-2.3-1.1s-1.7.4-2.3,1.1c-.5.7-.8,1.7-.8,3s.3,2.3.8,3c.5.7,1.3,1.1,2.3,1.1s1.7-.4,2.3-1.1c.5-.7.8-1.7.8-3ZM334.5,21c0,1.9-.4,3.2-1.2,4.2-.8.9-2.1,1.4-3.8,1.4s-1.2,0-1.8-.1-1.1-.2-1.6-.4v-1.7c.5.3,1,.5,1.6.6.5.1,1,.2,1.6.2,1.2,0,2.1-.3,2.6-.9.6-.6.9-1.5.9-2.8v-.9c-.4.6-.8,1.1-1.4,1.4s-1.3.5-2.1.5c-1.3,0-2.4-.5-3.2-1.5-.8-1-1.2-2.4-1.2-4.1s.4-3,1.2-4.1c.8-1,1.9-1.5,3.2-1.5s1.5.2,2.1.5,1.1.8,1.4,1.4v-1.7h1.8v9.6Z"/>
          <path id="DejaVuSans-721" data-name="DejaVuSans-72" d="M344.5,13.1c-.2-.1-.4-.2-.7-.3-.2,0-.5,0-.8,0-1,0-1.8.3-2.3,1s-.8,1.6-.8,2.8v5.8h-1.8v-10.9h1.8v1.7c.4-.7.9-1.2,1.5-1.5.6-.3,1.3-.5,2.2-.5s.3,0,.4,0c.2,0,.3,0,.5,0v1.8Z"/>
          <path id="DejaVuSans-6f" d="M350.2,12.7c-1,0-1.7.4-2.3,1.1s-.8,1.8-.8,3.1.3,2.3.8,3.1c.6.8,1.3,1.1,2.3,1.1s1.7-.4,2.3-1.1c.6-.8.8-1.8.8-3.1s-.3-2.3-.8-3.1c-.6-.8-1.3-1.1-2.3-1.1ZM350.2,11.2c1.6,0,2.8.5,3.7,1.5.9,1,1.3,2.4,1.3,4.2s-.4,3.2-1.3,4.2c-.9,1-2.1,1.5-3.7,1.5s-2.8-.5-3.7-1.5c-.9-1-1.3-2.4-1.3-4.2s.4-3.2,1.3-4.2c.9-1,2.1-1.5,3.7-1.5Z"/>
          <path id="DejaVuSans-701" data-name="DejaVuSans-70" d="M359.9,20.8v5.8h-1.8v-15.1h1.8v1.7c.4-.7.9-1.1,1.4-1.4.6-.3,1.3-.5,2.1-.5,1.3,0,2.4.5,3.2,1.6.8,1.1,1.2,2.4,1.2,4.2s-.4,3.1-1.2,4.2c-.8,1.1-1.9,1.6-3.2,1.6s-1.5-.2-2.1-.5c-.6-.3-1.1-.8-1.4-1.5ZM366,16.9c0-1.3-.3-2.4-.8-3.1s-1.3-1.1-2.2-1.1-1.7.4-2.2,1.1-.8,1.8-.8,3.1.3,2.4.8,3.1c.5.8,1.3,1.1,2.2,1.1s1.7-.4,2.2-1.1c.5-.8.8-1.8.8-3.1Z"/>
          <path id="DejaVuSans-742" data-name="DejaVuSans-74" d="M372.7,8.4v3.1h3.7v1.4h-3.7v5.9c0,.9.1,1.5.4,1.7s.7.4,1.5.4h1.8v1.5h-1.8c-1.4,0-2.3-.3-2.9-.8-.5-.5-.8-1.5-.8-2.8v-5.9h-1.3v-1.4h1.3v-3.1h1.8Z"/>
          <path id="DejaVuSans-5f2" data-name="DejaVuSans-5f" d="M387,25.7v1.4h-10.4v-1.4h10.4Z"/>
          <path id="DejaVuSans-6d2" data-name="DejaVuSans-6d" d="M397.2,13.6c.5-.8,1-1.4,1.6-1.8s1.4-.6,2.2-.6,2,.4,2.6,1.2c.6.8.9,1.9.9,3.4v6.6h-1.8v-6.5c0-1-.2-1.8-.6-2.3-.4-.5-.9-.8-1.7-.8s-1.7.3-2.2.9c-.5.6-.8,1.5-.8,2.5v6.2h-1.8v-6.5c0-1.1-.2-1.8-.6-2.3s-.9-.8-1.7-.8-1.6.3-2.2.9c-.5.6-.8,1.5-.8,2.5v6.2h-1.8v-10.9h1.8v1.7c.4-.7.9-1.2,1.5-1.5s1.3-.5,2-.5,1.5.2,2,.6c.6.4,1,1,1.2,1.8Z"/>
          <path id="DejaVuSans-6d3" data-name="DejaVuSans-6d" d="M416.7,13.6c.5-.8,1-1.4,1.6-1.8s1.4-.6,2.2-.6,2,.4,2.6,1.2c.6.8.9,1.9.9,3.4v6.6h-1.8v-6.5c0-1-.2-1.8-.6-2.3-.4-.5-.9-.8-1.7-.8s-1.7.3-2.2.9c-.5.6-.8,1.5-.8,2.5v6.2h-1.8v-6.5c0-1.1-.2-1.8-.6-2.3s-.9-.8-1.7-.8-1.6.3-2.2.9c-.5.6-.8,1.5-.8,2.5v6.2h-1.8v-10.9h1.8v1.7c.4-.7.9-1.2,1.5-1.5s1.3-.5,2-.5,1.5.2,2,.6c.6.4,1,1,1.2,1.8Z"/>
          <path id="DejaVuSans-743" data-name="DejaVuSans-74" d="M429.5,8.4v3.1h3.7v1.4h-3.7v5.9c0,.9.1,1.5.4,1.7s.7.4,1.5.4h1.8v1.5h-1.8c-1.4,0-2.3-.3-2.9-.8-.5-.5-.8-1.5-.8-2.8v-5.9h-1.3v-1.4h1.3v-3.1h1.8Z"/>
          <path id="DejaVuSans-301" data-name="DejaVuSans-30" d="M440,9.1c-1,0-1.8.5-2.3,1.5-.5,1-.8,2.5-.8,4.5s.3,3.5.8,4.5c.5,1,1.3,1.5,2.3,1.5s1.8-.5,2.3-1.5c.5-1,.8-2.5.8-4.5s-.3-3.5-.8-4.5c-.5-1-1.3-1.5-2.3-1.5ZM440,7.6c1.6,0,2.9.6,3.7,1.9.9,1.3,1.3,3.2,1.3,5.6s-.4,4.3-1.3,5.6c-.9,1.3-2.1,1.9-3.7,1.9s-2.9-.6-3.7-1.9c-.9-1.3-1.3-3.2-1.3-5.6s.4-4.3,1.3-5.6c.9-1.3,2.1-1.9,3.7-1.9Z"/>
          <path id="DejaVuSans-5f3" data-name="DejaVuSans-5f" d="M456.6,25.7v1.4h-10.4v-1.4h10.4Z"/>
          <path id="DejaVuSans-4e1" data-name="DejaVuSans-4e" d="M458.3,7.8h2.7l6.5,12.2V7.8h1.9v14.6h-2.7l-6.5-12.2v12.2h-1.9V7.8Z"/>
          <path id="DejaVuSans-631" data-name="DejaVuSans-63" d="M481.1,11.9v1.7c-.5-.3-1-.5-1.5-.6s-1-.2-1.5-.2c-1.2,0-2.1.4-2.7,1.1-.6.7-1,1.8-1,3.1s.3,2.4,1,3.1c.6.7,1.6,1.1,2.7,1.1s1,0,1.5-.2,1-.4,1.5-.6v1.7c-.5.2-1,.4-1.6.5-.5.1-1.1.2-1.7.2-1.6,0-3-.5-3.9-1.6-1-1-1.5-2.4-1.5-4.2s.5-3.2,1.5-4.2c1-1,2.3-1.5,4-1.5s1.1,0,1.6.2c.5.1,1,.3,1.5.5Z"/>
          <path id="DejaVuSans-612" data-name="DejaVuSans-61" d="M489.2,16.9c-1.5,0-2.5.2-3,.5s-.8.9-.8,1.7.2,1.1.6,1.5c.4.4,1,.6,1.7.6s1.8-.4,2.4-1.1.9-1.6.9-2.8v-.4h-1.8ZM492.8,16.2v6.2h-1.8v-1.7c-.4.7-.9,1.2-1.5,1.5-.6.3-1.4.5-2.2.5s-2-.3-2.7-.9c-.7-.6-1-1.5-1-2.5s.4-2.2,1.2-2.8c.8-.6,2.1-.9,3.7-.9h2.5v-.2c0-.8-.3-1.5-.8-1.9s-1.3-.7-2.3-.7-1.2,0-1.8.2c-.6.2-1.2.4-1.7.7v-1.7c.7-.3,1.3-.4,1.9-.6.6-.1,1.2-.2,1.8-.2,1.6,0,2.8.4,3.5,1.2.8.8,1.2,2.1,1.2,3.7Z"/>
          <path id="DejaVuSans-6c1" data-name="DejaVuSans-6c" d="M496.5,7.2h1.8v15.2h-1.8V7.2Z"/>
          <path id="DejaVuSans-691" data-name="DejaVuSans-69" d="M502,11.5h1.8v10.9h-1.8v-10.9ZM502,7.2h1.8v2.3h-1.8v-2.3Z"/>
          <path id="DejaVuSans-621" data-name="DejaVuSans-62" d="M515.4,16.9c0-1.3-.3-2.4-.8-3.1s-1.3-1.1-2.2-1.1-1.7.4-2.2,1.1-.8,1.8-.8,3.1.3,2.4.8,3.1c.5.8,1.3,1.1,2.2,1.1s1.7-.4,2.2-1.1c.5-.8.8-1.8.8-3.1ZM509.3,13.1c.4-.7.9-1.1,1.4-1.4.6-.3,1.3-.5,2.1-.5,1.3,0,2.4.5,3.2,1.6.8,1.1,1.2,2.4,1.2,4.2s-.4,3.1-1.2,4.2c-.8,1.1-1.9,1.6-3.2,1.6s-1.5-.2-2.1-.5c-.6-.3-1.1-.8-1.4-1.5v1.6h-1.8V7.2h1.8v5.9Z"/>
          <path id="DejaVuSans-321" data-name="DejaVuSans-32" d="M522.2,20.7h6.9v1.7h-9.3v-1.7c.7-.8,1.8-1.8,3.1-3.1,1.3-1.3,2.1-2.1,2.4-2.5.6-.7,1.1-1.3,1.3-1.8.3-.5.4-1,.4-1.5,0-.8-.3-1.4-.8-1.9-.5-.5-1.3-.7-2.1-.7s-1.3.1-2,.3c-.7.2-1.4.5-2.2,1v-2c.8-.3,1.5-.6,2.2-.7.7-.2,1.3-.2,1.9-.2,1.5,0,2.7.4,3.6,1.1.9.8,1.3,1.8,1.3,3s-.1,1.2-.3,1.7c-.2.5-.6,1.2-1.2,1.9-.2.2-.7.7-1.6,1.6-.9.9-2.1,2.2-3.7,3.8Z"/>
        </g>
      </g>
    </g>
    <g id="axes_3">
      <g class="st5">
        <image id="imaged7f74b45f4" class="st2" width="369" height="371" transform="translate(581 295) scale(.7 -.7)" xlink:href="Cov_Whole_AllScans_Row_Phantom_DWI-3.png"/>
      </g>
      <g id="text_3">
        <g>
          <path id="DejaVuSans-744" data-name="DejaVuSans-74" d="M620.3,8.4v3.1h3.7v1.4h-3.7v5.9c0,.9.1,1.5.4,1.7s.7.4,1.5.4h1.8v1.5h-1.8c-1.4,0-2.3-.3-2.9-.8-.5-.5-.8-1.5-.8-2.8v-5.9h-1.3v-1.4h1.3v-3.1h1.8Z"/>
          <path id="DejaVuSans-722" data-name="DejaVuSans-72" d="M632.7,13.1c-.2-.1-.4-.2-.7-.3-.2,0-.5,0-.8,0-1,0-1.8.3-2.3,1s-.8,1.6-.8,2.8v5.8h-1.8v-10.9h1.8v1.7c.4-.7.9-1.2,1.5-1.5.6-.3,1.3-.5,2.2-.5s.3,0,.4,0c.2,0,.3,0,.5,0v1.8Z"/>
          <path id="DejaVuSans-613" data-name="DejaVuSans-61" d="M639.6,16.9c-1.5,0-2.5.2-3,.5s-.8.9-.8,1.7.2,1.1.6,1.5c.4.4,1,.6,1.7.6s1.8-.4,2.4-1.1.9-1.6.9-2.8v-.4h-1.8ZM643.2,16.2v6.2h-1.8v-1.7c-.4.7-.9,1.2-1.5,1.5-.6.3-1.4.5-2.2.5s-2-.3-2.7-.9c-.7-.6-1-1.5-1-2.5s.4-2.2,1.2-2.8c.8-.6,2.1-.9,3.7-.9h2.5v-.2c0-.8-.3-1.5-.8-1.9s-1.3-.7-2.3-.7-1.2,0-1.8.2c-.6.2-1.2.4-1.7.7v-1.7c.7-.3,1.3-.4,1.9-.6.6-.1,1.2-.2,1.8-.2,1.6,0,2.8.4,3.5,1.2.8.8,1.2,2.1,1.2,3.7Z"/>
          <path id="DejaVuSans-702" data-name="DejaVuSans-70" d="M648.6,20.8v5.8h-1.8v-15.1h1.8v1.7c.4-.7.9-1.1,1.4-1.4.6-.3,1.3-.5,2.1-.5,1.3,0,2.4.5,3.2,1.6.8,1.1,1.2,2.4,1.2,4.2s-.4,3.1-1.2,4.2c-.8,1.1-1.9,1.6-3.2,1.6s-1.5-.2-2.1-.5c-.6-.3-1.1-.8-1.4-1.5ZM654.7,16.9c0-1.3-.3-2.4-.8-3.1s-1.3-1.1-2.2-1.1-1.7.4-2.2,1.1-.8,1.8-.8,3.1.3,2.4.8,3.1c.5.8,1.3,1.1,2.2,1.1s1.7-.4,2.2-1.1c.5-.8.8-1.8.8-3.1Z"/>
          <path id="DejaVuSans-5f4" data-name="DejaVuSans-5f" d="M667.9,25.7v1.4h-10.4v-1.4h10.4Z"/>
          <path id="DejaVuSans-6d4" data-name="DejaVuSans-6d" d="M678.1,13.6c.5-.8,1-1.4,1.6-1.8s1.4-.6,2.2-.6,2,.4,2.6,1.2c.6.8.9,1.9.9,3.4v6.6h-1.8v-6.5c0-1-.2-1.8-.6-2.3-.4-.5-.9-.8-1.7-.8s-1.7.3-2.2.9c-.5.6-.8,1.5-.8,2.5v6.2h-1.8v-6.5c0-1.1-.2-1.8-.6-2.3s-.9-.8-1.7-.8-1.6.3-2.2.9c-.5.6-.8,1.5-.8,2.5v6.2h-1.8v-10.9h1.8v1.7c.4-.7.9-1.2,1.5-1.5s1.3-.5,2-.5,1.5.2,2,.6c.6.4,1,1,1.2,1.8Z"/>
          <path id="DejaVuSans-6d5" data-name="DejaVuSans-6d" d="M697.6,13.6c.5-.8,1-1.4,1.6-1.8s1.4-.6,2.2-.6,2,.4,2.6,1.2c.6.8.9,1.9.9,3.4v6.6h-1.8v-6.5c0-1-.2-1.8-.6-2.3-.4-.5-.9-.8-1.7-.8s-1.7.3-2.2.9c-.5.6-.8,1.5-.8,2.5v6.2h-1.8v-6.5c0-1.1-.2-1.8-.6-2.3s-.9-.8-1.7-.8-1.6.3-2.2.9c-.5.6-.8,1.5-.8,2.5v6.2h-1.8v-10.9h1.8v1.7c.4-.7.9-1.2,1.5-1.5s1.3-.5,2-.5,1.5.2,2,.6c.6.4,1,1,1.2,1.8Z"/>
          <path id="DejaVuSans-745" data-name="DejaVuSans-74" d="M710.3,8.4v3.1h3.7v1.4h-3.7v5.9c0,.9.1,1.5.4,1.7s.7.4,1.5.4h1.8v1.5h-1.8c-1.4,0-2.3-.3-2.9-.8-.5-.5-.8-1.5-.8-2.8v-5.9h-1.3v-1.4h1.3v-3.1h1.8Z"/>
          <path id="DejaVuSans-31" d="M717,20.7h3.2v-11.1l-3.5.7v-1.8l3.5-.7h2v12.9h3.2v1.7h-8.4v-1.7Z"/>
          <path id="DejaVuSans-5f5" data-name="DejaVuSans-5f" d="M737.4,25.7v1.4h-10.4v-1.4h10.4Z"/>
          <path id="DejaVuSans-4e2" data-name="DejaVuSans-4e" d="M739.2,7.8h2.7l6.5,12.2V7.8h1.9v14.6h-2.7l-6.5-12.2v12.2h-1.9V7.8Z"/>
          <path id="DejaVuSans-632" data-name="DejaVuSans-63" d="M761.9,11.9v1.7c-.5-.3-1-.5-1.5-.6s-1-.2-1.5-.2c-1.2,0-2.1.4-2.7,1.1-.6.7-1,1.8-1,3.1s.3,2.4,1,3.1c.6.7,1.6,1.1,2.7,1.1s1,0,1.5-.2,1-.4,1.5-.6v1.7c-.5.2-1,.4-1.6.5-.5.1-1.1.2-1.7.2-1.6,0-3-.5-3.9-1.6-1-1-1.5-2.4-1.5-4.2s.5-3.2,1.5-4.2c1-1,2.3-1.5,4-1.5s1.1,0,1.6.2c.5.1,1,.3,1.5.5Z"/>
          <path id="DejaVuSans-614" data-name="DejaVuSans-61" d="M770,16.9c-1.5,0-2.5.2-3,.5s-.8.9-.8,1.7.2,1.1.6,1.5c.4.4,1,.6,1.7.6s1.8-.4,2.4-1.1.9-1.6.9-2.8v-.4h-1.8ZM773.6,16.2v6.2h-1.8v-1.7c-.4.7-.9,1.2-1.5,1.5-.6.3-1.4.5-2.2.5s-2-.3-2.7-.9c-.7-.6-1-1.5-1-2.5s.4-2.2,1.2-2.8c.8-.6,2.1-.9,3.7-.9h2.5v-.2c0-.8-.3-1.5-.8-1.9s-1.3-.7-2.3-.7-1.2,0-1.8.2c-.6.2-1.2.4-1.7.7v-1.7c.7-.3,1.3-.4,1.9-.6.6-.1,1.2-.2,1.8-.2,1.6,0,2.8.4,3.5,1.2.8.8,1.2,2.1,1.2,3.7Z"/>
          <path id="DejaVuSans-6c2" data-name="DejaVuSans-6c" d="M777.3,7.2h1.8v15.2h-1.8V7.2Z"/>
          <path id="DejaVuSans-692" data-name="DejaVuSans-69" d="M782.9,11.5h1.8v10.9h-1.8v-10.9ZM782.9,7.2h1.8v2.3h-1.8v-2.3Z"/>
          <path id="DejaVuSans-622" data-name="DejaVuSans-62" d="M796.3,16.9c0-1.3-.3-2.4-.8-3.1s-1.3-1.1-2.2-1.1-1.7.4-2.2,1.1-.8,1.8-.8,3.1.3,2.4.8,3.1c.5.8,1.3,1.1,2.2,1.1s1.7-.4,2.2-1.1c.5-.8.8-1.8.8-3.1ZM790.1,13.1c.4-.7.9-1.1,1.4-1.4.6-.3,1.3-.5,2.1-.5,1.3,0,2.4.5,3.2,1.6.8,1.1,1.2,2.4,1.2,4.2s-.4,3.1-1.2,4.2c-.8,1.1-1.9,1.6-3.2,1.6s-1.5-.2-2.1-.5c-.6-.3-1.1-.8-1.4-1.5v1.6h-1.8V7.2h1.8v5.9Z"/>
          <path id="DejaVuSans-322" data-name="DejaVuSans-32" d="M803.1,20.7h6.9v1.7h-9.3v-1.7c.7-.8,1.8-1.8,3.1-3.1,1.3-1.3,2.1-2.1,2.4-2.5.6-.7,1.1-1.3,1.3-1.8.3-.5.4-1,.4-1.5,0-.8-.3-1.4-.8-1.9-.5-.5-1.3-.7-2.1-.7s-1.3.1-2,.3c-.7.2-1.4.5-2.2,1v-2c.8-.3,1.5-.6,2.2-.7.7-.2,1.3-.2,1.9-.2,1.5,0,2.7.4,3.6,1.1.9.8,1.3,1.8,1.3,3s-.1,1.2-.3,1.7c-.2.5-.6,1.2-1.2,1.9-.2.2-.7.7-1.6,1.6-.9.9-2.1,2.2-3.7,3.8Z"/>
        </g>
      </g>
    </g>
    <g id="axes_4">
      <g class="st4">
        <image id="image534130a662" class="st2" width="371" height="371" transform="translate(868 295) scale(.7 -.7)" xlink:href="Cov_Whole_AllScans_Row_Phantom_DWI-4.png"/>
      </g>
      <g id="text_4">
        <g>
          <path id="DejaVuSans-671" data-name="DejaVuSans-67" d="M906.6,16.8c0-1.3-.3-2.3-.8-3-.5-.7-1.3-1.1-2.3-1.1s-1.7.4-2.3,1.1c-.5.7-.8,1.7-.8,3s.3,2.3.8,3c.5.7,1.3,1.1,2.3,1.1s1.7-.4,2.3-1.1c.5-.7.8-1.7.8-3ZM908.4,21c0,1.9-.4,3.2-1.2,4.2-.8.9-2.1,1.4-3.8,1.4s-1.2,0-1.8-.1-1.1-.2-1.6-.4v-1.7c.5.3,1,.5,1.6.6.5.1,1,.2,1.6.2,1.2,0,2.1-.3,2.6-.9.6-.6.9-1.5.9-2.8v-.9c-.4.6-.8,1.1-1.4,1.4s-1.3.5-2.1.5c-1.3,0-2.4-.5-3.2-1.5-.8-1-1.2-2.4-1.2-4.1s.4-3,1.2-4.1c.8-1,1.9-1.5,3.2-1.5s1.5.2,2.1.5,1.1.8,1.4,1.4v-1.7h1.8v9.6Z"/>
          <path id="DejaVuSans-723" data-name="DejaVuSans-72" d="M918.4,13.1c-.2-.1-.4-.2-.7-.3-.2,0-.5,0-.8,0-1,0-1.8.3-2.3,1s-.8,1.6-.8,2.8v5.8h-1.8v-10.9h1.8v1.7c.4-.7.9-1.2,1.5-1.5.6-.3,1.3-.5,2.2-.5s.3,0,.4,0c.2,0,.3,0,.5,0v1.8Z"/>
          <path id="DejaVuSans-6f1" data-name="DejaVuSans-6f" d="M924.1,12.7c-1,0-1.7.4-2.3,1.1s-.8,1.8-.8,3.1.3,2.3.8,3.1c.6.8,1.3,1.1,2.3,1.1s1.7-.4,2.3-1.1c.6-.8.8-1.8.8-3.1s-.3-2.3-.8-3.1c-.6-.8-1.3-1.1-2.3-1.1ZM924.1,11.2c1.6,0,2.8.5,3.7,1.5.9,1,1.3,2.4,1.3,4.2s-.4,3.2-1.3,4.2c-.9,1-2.1,1.5-3.7,1.5s-2.8-.5-3.7-1.5c-.9-1-1.3-2.4-1.3-4.2s.4-3.2,1.3-4.2c.9-1,2.1-1.5,3.7-1.5Z"/>
          <path id="DejaVuSans-703" data-name="DejaVuSans-70" d="M933.8,20.8v5.8h-1.8v-15.1h1.8v1.7c.4-.7.9-1.1,1.4-1.4.6-.3,1.3-.5,2.1-.5,1.3,0,2.4.5,3.2,1.6.8,1.1,1.2,2.4,1.2,4.2s-.4,3.1-1.2,4.2c-.8,1.1-1.9,1.6-3.2,1.6s-1.5-.2-2.1-.5c-.6-.3-1.1-.8-1.4-1.5ZM939.9,16.9c0-1.3-.3-2.4-.8-3.1s-1.3-1.1-2.2-1.1-1.7.4-2.2,1.1-.8,1.8-.8,3.1.3,2.4.8,3.1c.5.8,1.3,1.1,2.2,1.1s1.7-.4,2.2-1.1c.5-.8.8-1.8.8-3.1Z"/>
          <path id="DejaVuSans-746" data-name="DejaVuSans-74" d="M946.6,8.4v3.1h3.7v1.4h-3.7v5.9c0,.9.1,1.5.4,1.7s.7.4,1.5.4h1.8v1.5h-1.8c-1.4,0-2.3-.3-2.9-.8-.5-.5-.8-1.5-.8-2.8v-5.9h-1.3v-1.4h1.3v-3.1h1.8Z"/>
          <path id="DejaVuSans-5f6" data-name="DejaVuSans-5f" d="M960.9,25.7v1.4h-10.4v-1.4h10.4Z"/>
          <path id="DejaVuSans-6d6" data-name="DejaVuSans-6d" d="M971.1,13.6c.5-.8,1-1.4,1.6-1.8s1.4-.6,2.2-.6,2,.4,2.6,1.2c.6.8.9,1.9.9,3.4v6.6h-1.8v-6.5c0-1-.2-1.8-.6-2.3-.4-.5-.9-.8-1.7-.8s-1.7.3-2.2.9c-.5.6-.8,1.5-.8,2.5v6.2h-1.8v-6.5c0-1.1-.2-1.8-.6-2.3s-.9-.8-1.7-.8-1.6.3-2.2.9c-.5.6-.8,1.5-.8,2.5v6.2h-1.8v-10.9h1.8v1.7c.4-.7.9-1.2,1.5-1.5s1.3-.5,2-.5,1.5.2,2,.6c.6.4,1,1,1.2,1.8Z"/>
          <path id="DejaVuSans-6d7" data-name="DejaVuSans-6d" d="M990.6,13.6c.5-.8,1-1.4,1.6-1.8s1.4-.6,2.2-.6,2,.4,2.6,1.2c.6.8.9,1.9.9,3.4v6.6h-1.8v-6.5c0-1-.2-1.8-.6-2.3-.4-.5-.9-.8-1.7-.8s-1.7.3-2.2.9c-.5.6-.8,1.5-.8,2.5v6.2h-1.8v-6.5c0-1.1-.2-1.8-.6-2.3s-.9-.8-1.7-.8-1.6.3-2.2.9c-.5.6-.8,1.5-.8,2.5v6.2h-1.8v-10.9h1.8v1.7c.4-.7.9-1.2,1.5-1.5s1.3-.5,2-.5,1.5.2,2,.6c.6.4,1,1,1.2,1.8Z"/>
          <path id="DejaVuSans-747" data-name="DejaVuSans-74" d="M1003.4,8.4v3.1h3.7v1.4h-3.7v5.9c0,.9.1,1.5.4,1.7s.7.4,1.5.4h1.8v1.5h-1.8c-1.4,0-2.3-.3-2.9-.8-.5-.5-.8-1.5-.8-2.8v-5.9h-1.3v-1.4h1.3v-3.1h1.8Z"/>
          <path id="DejaVuSans-311" data-name="DejaVuSans-31" d="M1010,20.7h3.2v-11.1l-3.5.7v-1.8l3.5-.7h2v12.9h3.2v1.7h-8.4v-1.7Z"/>
          <path id="DejaVuSans-5f7" data-name="DejaVuSans-5f" d="M1030.5,25.7v1.4h-10.4v-1.4h10.4Z"/>
          <path id="DejaVuSans-4e3" data-name="DejaVuSans-4e" d="M1032.2,7.8h2.7l6.5,12.2V7.8h1.9v14.6h-2.7l-6.5-12.2v12.2h-1.9V7.8Z"/>
          <path id="DejaVuSans-633" data-name="DejaVuSans-63" d="M1055,11.9v1.7c-.5-.3-1-.5-1.5-.6s-1-.2-1.5-.2c-1.2,0-2.1.4-2.7,1.1-.6.7-1,1.8-1,3.1s.3,2.4,1,3.1c.6.7,1.6,1.1,2.7,1.1s1,0,1.5-.2,1-.4,1.5-.6v1.7c-.5.2-1,.4-1.6.5-.5.1-1.1.2-1.7.2-1.6,0-3-.5-3.9-1.6-1-1-1.5-2.4-1.5-4.2s.5-3.2,1.5-4.2c1-1,2.3-1.5,4-1.5s1.1,0,1.6.2c.5.1,1,.3,1.5.5Z"/>
          <path id="DejaVuSans-615" data-name="DejaVuSans-61" d="M1063.1,16.9c-1.5,0-2.5.2-3,.5s-.8.9-.8,1.7.2,1.1.6,1.5c.4.4,1,.6,1.7.6s1.8-.4,2.4-1.1.9-1.6.9-2.8v-.4h-1.8ZM1066.7,16.2v6.2h-1.8v-1.7c-.4.7-.9,1.2-1.5,1.5-.6.3-1.4.5-2.2.5s-2-.3-2.7-.9c-.7-.6-1-1.5-1-2.5s.4-2.2,1.2-2.8c.8-.6,2.1-.9,3.7-.9h2.5v-.2c0-.8-.3-1.5-.8-1.9s-1.3-.7-2.3-.7-1.2,0-1.8.2c-.6.2-1.2.4-1.7.7v-1.7c.7-.3,1.3-.4,1.9-.6.6-.1,1.2-.2,1.8-.2,1.6,0,2.8.4,3.5,1.2.8.8,1.2,2.1,1.2,3.7Z"/>
          <path id="DejaVuSans-6c3" data-name="DejaVuSans-6c" d="M1070.4,7.2h1.8v15.2h-1.8V7.2Z"/>
          <path id="DejaVuSans-693" data-name="DejaVuSans-69" d="M1075.9,11.5h1.8v10.9h-1.8v-10.9ZM1075.9,7.2h1.8v2.3h-1.8v-2.3Z"/>
          <path id="DejaVuSans-623" data-name="DejaVuSans-62" d="M1089.3,16.9c0-1.3-.3-2.4-.8-3.1s-1.3-1.1-2.2-1.1-1.7.4-2.2,1.1-.8,1.8-.8,3.1.3,2.4.8,3.1c.5.8,1.3,1.1,2.2,1.1s1.7-.4,2.2-1.1c.5-.8.8-1.8.8-3.1ZM1083.2,13.1c.4-.7.9-1.1,1.4-1.4.6-.3,1.3-.5,2.1-.5,1.3,0,2.4.5,3.2,1.6.8,1.1,1.2,2.4,1.2,4.2s-.4,3.1-1.2,4.2c-.8,1.1-1.9,1.6-3.2,1.6s-1.5-.2-2.1-.5c-.6-.3-1.1-.8-1.4-1.5v1.6h-1.8V7.2h1.8v5.9Z"/>
          <path id="DejaVuSans-323" data-name="DejaVuSans-32" d="M1096.1,20.7h6.9v1.7h-9.3v-1.7c.7-.8,1.8-1.8,3.1-3.1,1.3-1.3,2.1-2.1,2.4-2.5.6-.7,1.1-1.3,1.3-1.8.3-.5.4-1,.4-1.5,0-.8-.3-1.4-.8-1.9-.5-.5-1.3-.7-2.1-.7s-1.3.1-2,.3c-.7.2-1.4.5-2.2,1v-2c.8-.3,1.5-.6,2.2-.7.7-.2,1.3-.2,1.9-.2,1.5,0,2.7.4,3.6,1.1.9.8,1.3,1.8,1.3,3s-.1,1.2-.3,1.7c-.2.5-.6,1.2-1.2,1.9-.2.2-.7.7-1.6,1.6-.9.9-2.1,2.2-3.7,3.8Z"/>
        </g>
      </g>
    </g>
    <g id="axes_5">
      <g id="patch_2">
        <path class="st6" d="M1152.1,231.6h6.7V98.5h-6.7v133.1Z"/>
      </g>
      <image id="image9a1f20895d" class="st2" width="9" height="184" transform="translate(1152.4 231) scale(.7 -.7)" xlink:href="Cov_Whole_AllScans_Row_Phantom_DWI-5.png"/>
      <g id="matplotlib.axis_2">
        <g id="ytick_1">
          <g id="line2d_1">
            <path id="m8882bc8285" class="st7" d="M1158.8,231.6h3.5"/>
          </g>
          <g id="text_5">
            <path id="DejaVuSans-302" data-name="DejaVuSans-30" d="M1169,228.7c-.5,0-.9.3-1.1.8-.3.5-.4,1.3-.4,2.3s.1,1.7.4,2.2c.3.5.6.8,1.1.8s.9-.3,1.2-.8c.3-.5.4-1.2.4-2.2s-.1-1.8-.4-2.3c-.3-.5-.6-.8-1.2-.8ZM1169,227.9c.8,0,1.4.3,1.9,1,.4.6.6,1.6.6,2.8s-.2,2.2-.6,2.8c-.4.6-1.1,1-1.9,1s-1.4-.3-1.9-1c-.4-.6-.6-1.6-.6-2.8s.2-2.2.6-2.8c.4-.6,1.1-1,1.9-1Z"/>
          </g>
        </g>
        <g id="ytick_2">
          <g id="line2d_2">
            <path id="m8882bc82851" data-name="m8882bc8285" class="st7" d="M1158.8,198.3h3.5"/>
          </g>
          <g id="text_6">
            <path id="DejaVuSans-35" d="M1166.9,194.8h3.9v.8h-3v1.8c.1,0,.3,0,.4-.1.1,0,.3,0,.4,0,.8,0,1.5.2,1.9.7.5.4.7,1,.7,1.8s-.2,1.4-.7,1.8c-.5.4-1.2.7-2.1.7s-.6,0-.9,0c-.3,0-.6-.1-1-.2v-1c.3.2.6.3.9.4s.6.1,1,.1c.6,0,1-.1,1.3-.4.3-.3.5-.7.5-1.2s-.2-.9-.5-1.2c-.3-.3-.8-.4-1.3-.4s-.5,0-.8,0c-.3,0-.5.1-.8.3v-3.7Z"/>
          </g>
        </g>
        <g id="ytick_3">
          <g id="line2d_3">
            <path id="m8882bc82852" data-name="m8882bc8285" class="st7" d="M1158.8,165h3.5"/>
          </g>
          <g id="text_7">
            <g>
              <path id="DejaVuSans-312" data-name="DejaVuSans-31" d="M1167,168h1.6v-5.6l-1.8.4v-.9l1.7-.4h1v6.5h1.6v.8h-4.2v-.8Z"/>
              <path id="DejaVuSans-303" data-name="DejaVuSans-30" d="M1175.3,162.2c-.5,0-.9.3-1.1.8-.3.5-.4,1.3-.4,2.3s.1,1.7.4,2.2c.3.5.6.8,1.1.8s.9-.3,1.2-.8c.3-.5.4-1.2.4-2.2s-.1-1.8-.4-2.3c-.3-.5-.6-.8-1.2-.8ZM1175.3,161.4c.8,0,1.4.3,1.9,1,.4.6.6,1.6.6,2.8s-.2,2.2-.6,2.8c-.4.6-1.1,1-1.9,1s-1.4-.3-1.9-1c-.4-.6-.6-1.6-.6-2.8s.2-2.2.6-2.8c.4-.6,1.1-1,1.9-1Z"/>
            </g>
          </g>
        </g>
        <g id="ytick_4">
          <g id="line2d_4">
            <path id="m8882bc82853" data-name="m8882bc8285" class="st7" d="M1158.8,131.8h3.5"/>
          </g>
          <g id="text_8">
            <g>
              <path id="DejaVuSans-313" data-name="DejaVuSans-31" d="M1167,134.7h1.6v-5.6l-1.8.4v-.9l1.7-.4h1v6.5h1.6v.8h-4.2v-.8Z"/>
              <path id="DejaVuSans-351" data-name="DejaVuSans-35" d="M1173.2,128.3h3.9v.8h-3v1.8c.1,0,.3,0,.4-.1.1,0,.3,0,.4,0,.8,0,1.5.2,1.9.7.5.4.7,1,.7,1.8s-.2,1.4-.7,1.8c-.5.4-1.2.7-2.1.7s-.6,0-.9,0c-.3,0-.6-.1-1-.2v-1c.3.2.6.3.9.4s.6.1,1,.1c.6,0,1-.1,1.3-.4.3-.3.5-.7.5-1.2s-.2-.9-.5-1.2c-.3-.3-.8-.4-1.3-.4s-.5,0-.8,0c-.3,0-.5.1-.8.3v-3.7Z"/>
            </g>
          </g>
        </g>
        <g id="ytick_5">
          <g id="line2d_5">
            <path id="m8882bc82854" data-name="m8882bc8285" class="st7" d="M1158.8,98.5h3.5"/>
          </g>
          <g id="text_9">
            <g>
              <path id="DejaVuSans-324" data-name="DejaVuSans-32" d="M1167.7,101.5h3.4v.8h-4.6v-.8c.4-.4.9-.9,1.5-1.6.6-.7,1.1-1.1,1.2-1.3.3-.4.5-.7.7-.9.1-.2.2-.5.2-.7,0-.4-.1-.7-.4-.9-.3-.2-.6-.4-1.1-.4s-.6,0-1,.2c-.3.1-.7.3-1.1.5v-1c.4-.2.8-.3,1.1-.4.3,0,.7-.1.9-.1.8,0,1.4.2,1.8.6.4.4.7.9.7,1.5s0,.6-.2.9c-.1.3-.3.6-.6.9,0,0-.3.4-.8.8-.4.5-1.1,1.1-1.8,1.9Z"/>
              <path id="DejaVuSans-304" data-name="DejaVuSans-30" d="M1175.3,95.7c-.5,0-.9.3-1.1.8-.3.5-.4,1.3-.4,2.3s.1,1.7.4,2.2c.3.5.6.8,1.1.8s.9-.3,1.2-.8c.3-.5.4-1.2.4-2.2s-.1-1.8-.4-2.3c-.3-.5-.6-.8-1.2-.8ZM1175.3,94.9c.8,0,1.4.3,1.9,1,.4.6.6,1.6.6,2.8s-.2,2.2-.6,2.8c-.4.6-1.1,1-1.9,1s-1.4-.3-1.9-1c-.4-.6-.6-1.6-.6-2.8s.2-2.2.6-2.8c.4-.6,1.1-1,1.9-1Z"/>
            </g>
          </g>
        </g>
      </g>
      <g id="patch_3">
        <path class="st1" d="M1152.1,231.6h6.7V98.5h-6.7v133.1Z"/>
      </g>
    </g>
  </g>
</svg>