<?xml version="1.0" encoding="utf-8" standalone="no"?>
<!DOCTYPE svg PUBLIC "-//W3C//DTD SVG 1.1//EN"
  "http://www.w3.org/Graphics/SVG/1.1/DTD/svg11.dtd">
<svg xmlns:xlink="http://www.w3.org/1999/xlink" width="966.808pt" height="534.28354pt" viewBox="0 0 966.808 534.28354" xmlns="http://www.w3.org/2000/svg" version="1.1">
 <metadata>
  <rdf:RDF xmlns:dc="http://purl.org/dc/elements/1.1/" xmlns:cc="http://creativecommons.org/ns#" xmlns:rdf="http://www.w3.org/1999/02/22-rdf-syntax-ns#">
   <cc:Work>
    <dc:type rdf:resource="http://purl.org/dc/dcmitype/StillImage"/>
    <dc:date>2026-01-20T11:55:26.821110</dc:date>
    <dc:format>image/svg+xml</dc:format>
    <dc:creator>
     <cc:Agent>
      <dc:title>Matplotlib v3.7.1, https://matplotlib.org/</dc:title>
     </cc:Agent>
    </dc:creator>
   </cc:Work>
  </rdf:RDF>
 </metadata>
 <defs>
  <style type="text/css">*{stroke-linejoin: round; stroke-linecap: butt}</style>
 </defs>
 <g id="figure_1">
  <g id="patch_1">
   <path d="M 0 534.28354 
L 966.808 534.28354 
L 966.808 0 
L 0 0 
z
" style="fill: #ffffff"/>
  </g>
  <g id="axes_1">
   <g id="patch_2">
    <path d="M 83.35 411.783358 
L 959.608 411.783358 
L 959.608 7.2 
L 83.35 7.2 
z
" style="fill: #ffffff"/>
   </g>
   <g id="matplotlib.axis_1">
    <g id="xtick_1">
     <g id="line2d_1">
      <path d="M 123.179909 411.783358 
L 123.179909 7.2 
" clip-path="url(#p4ee640787c)" style="fill: none; stroke: #cccccc; stroke-linecap: round"/>
     </g>
     <g id="text_1">
      <!-- Mono -->
      <g style="fill: #262626" transform="translate(66.541883 468.046102) rotate(-30) scale(0.25 -0.25)">
       <defs>
        <path id="ArialMT-4d" d="M 475 0 
L 475 4581 
L 1388 4581 
L 2472 1338 
Q 2622 884 2691 659 
Q 2769 909 2934 1394 
L 4031 4581 
L 4847 4581 
L 4847 0 
L 4263 0 
L 4263 3834 
L 2931 0 
L 2384 0 
L 1059 3900 
L 1059 0 
L 475 0 
z
" transform="scale(0.015625)"/>
        <path id="ArialMT-6f" d="M 213 1659 
Q 213 2581 725 3025 
Q 1153 3394 1769 3394 
Q 2453 3394 2887 2945 
Q 3322 2497 3322 1706 
Q 3322 1066 3130 698 
Q 2938 331 2570 128 
Q 2203 -75 1769 -75 
Q 1072 -75 642 372 
Q 213 819 213 1659 
z
M 791 1659 
Q 791 1022 1069 705 
Q 1347 388 1769 388 
Q 2188 388 2466 706 
Q 2744 1025 2744 1678 
Q 2744 2294 2464 2611 
Q 2184 2928 1769 2928 
Q 1347 2928 1069 2612 
Q 791 2297 791 1659 
z
" transform="scale(0.015625)"/>
        <path id="ArialMT-6e" d="M 422 0 
L 422 3319 
L 928 3319 
L 928 2847 
Q 1294 3394 1984 3394 
Q 2284 3394 2536 3286 
Q 2788 3178 2913 3003 
Q 3038 2828 3088 2588 
Q 3119 2431 3119 2041 
L 3119 0 
L 2556 0 
L 2556 2019 
Q 2556 2363 2490 2533 
Q 2425 2703 2258 2804 
Q 2091 2906 1866 2906 
Q 1506 2906 1245 2678 
Q 984 2450 984 1813 
L 984 0 
L 422 0 
z
" transform="scale(0.015625)"/>
       </defs>
       <use xlink:href="#ArialMT-4d"/>
       <use xlink:href="#ArialMT-6f" x="83.300781"/>
       <use xlink:href="#ArialMT-6e" x="138.916016"/>
       <use xlink:href="#ArialMT-6f" x="194.53125"/>
      </g>
     </g>
    </g>
    <g id="xtick_2">
     <g id="line2d_2">
      <path d="M 388.712636 411.783358 
L 388.712636 7.2 
" clip-path="url(#p4ee640787c)" style="fill: none; stroke: #cccccc; stroke-linecap: round"/>
     </g>
     <g id="text_2">
      <!-- Stim-CODE-M$_0$ -->
      <g style="fill: #262626" transform="translate(237.271892 522.780477) rotate(-30) scale(0.25 -0.25)">
       <defs>
        <path id="ArialMT-53" d="M 288 1472 
L 859 1522 
Q 900 1178 1048 958 
Q 1197 738 1509 602 
Q 1822 466 2213 466 
Q 2559 466 2825 569 
Q 3091 672 3220 851 
Q 3350 1031 3350 1244 
Q 3350 1459 3225 1620 
Q 3100 1781 2813 1891 
Q 2628 1963 1997 2114 
Q 1366 2266 1113 2400 
Q 784 2572 623 2826 
Q 463 3081 463 3397 
Q 463 3744 659 4045 
Q 856 4347 1234 4503 
Q 1613 4659 2075 4659 
Q 2584 4659 2973 4495 
Q 3363 4331 3572 4012 
Q 3781 3694 3797 3291 
L 3216 3247 
Q 3169 3681 2898 3903 
Q 2628 4125 2100 4125 
Q 1550 4125 1298 3923 
Q 1047 3722 1047 3438 
Q 1047 3191 1225 3031 
Q 1400 2872 2139 2705 
Q 2878 2538 3153 2413 
Q 3553 2228 3743 1945 
Q 3934 1663 3934 1294 
Q 3934 928 3725 604 
Q 3516 281 3123 101 
Q 2731 -78 2241 -78 
Q 1619 -78 1198 103 
Q 778 284 539 648 
Q 300 1013 288 1472 
z
" transform="scale(0.015625)"/>
        <path id="ArialMT-74" d="M 1650 503 
L 1731 6 
Q 1494 -44 1306 -44 
Q 1000 -44 831 53 
Q 663 150 594 308 
Q 525 466 525 972 
L 525 2881 
L 113 2881 
L 113 3319 
L 525 3319 
L 525 4141 
L 1084 4478 
L 1084 3319 
L 1650 3319 
L 1650 2881 
L 1084 2881 
L 1084 941 
Q 1084 700 1114 631 
Q 1144 563 1211 522 
Q 1278 481 1403 481 
Q 1497 481 1650 503 
z
" transform="scale(0.015625)"/>
        <path id="ArialMT-69" d="M 425 3934 
L 425 4581 
L 988 4581 
L 988 3934 
L 425 3934 
z
M 425 0 
L 425 3319 
L 988 3319 
L 988 0 
L 425 0 
z
" transform="scale(0.015625)"/>
        <path id="ArialMT-6d" d="M 422 0 
L 422 3319 
L 925 3319 
L 925 2853 
Q 1081 3097 1340 3245 
Q 1600 3394 1931 3394 
Q 2300 3394 2536 3241 
Q 2772 3088 2869 2813 
Q 3263 3394 3894 3394 
Q 4388 3394 4653 3120 
Q 4919 2847 4919 2278 
L 4919 0 
L 4359 0 
L 4359 2091 
Q 4359 2428 4304 2576 
Q 4250 2725 4106 2815 
Q 3963 2906 3769 2906 
Q 3419 2906 3187 2673 
Q 2956 2441 2956 1928 
L 2956 0 
L 2394 0 
L 2394 2156 
Q 2394 2531 2256 2718 
Q 2119 2906 1806 2906 
Q 1569 2906 1367 2781 
Q 1166 2656 1075 2415 
Q 984 2175 984 1722 
L 984 0 
L 422 0 
z
" transform="scale(0.015625)"/>
        <path id="ArialMT-2d" d="M 203 1375 
L 203 1941 
L 1931 1941 
L 1931 1375 
L 203 1375 
z
" transform="scale(0.015625)"/>
        <path id="ArialMT-43" d="M 3763 1606 
L 4369 1453 
Q 4178 706 3683 314 
Q 3188 -78 2472 -78 
Q 1731 -78 1267 223 
Q 803 525 561 1097 
Q 319 1669 319 2325 
Q 319 3041 592 3573 
Q 866 4106 1370 4382 
Q 1875 4659 2481 4659 
Q 3169 4659 3637 4309 
Q 4106 3959 4291 3325 
L 3694 3184 
Q 3534 3684 3231 3912 
Q 2928 4141 2469 4141 
Q 1941 4141 1586 3887 
Q 1231 3634 1087 3207 
Q 944 2781 944 2328 
Q 944 1744 1114 1308 
Q 1284 872 1643 656 
Q 2003 441 2422 441 
Q 2931 441 3284 734 
Q 3638 1028 3763 1606 
z
" transform="scale(0.015625)"/>
        <path id="ArialMT-4f" d="M 309 2231 
Q 309 3372 921 4017 
Q 1534 4663 2503 4663 
Q 3138 4663 3647 4359 
Q 4156 4056 4423 3514 
Q 4691 2972 4691 2284 
Q 4691 1588 4409 1038 
Q 4128 488 3612 205 
Q 3097 -78 2500 -78 
Q 1853 -78 1343 234 
Q 834 547 571 1087 
Q 309 1628 309 2231 
z
M 934 2222 
Q 934 1394 1379 917 
Q 1825 441 2497 441 
Q 3181 441 3623 922 
Q 4066 1403 4066 2288 
Q 4066 2847 3877 3264 
Q 3688 3681 3323 3911 
Q 2959 4141 2506 4141 
Q 1863 4141 1398 3698 
Q 934 3256 934 2222 
z
" transform="scale(0.015625)"/>
        <path id="ArialMT-44" d="M 494 0 
L 494 4581 
L 2072 4581 
Q 2606 4581 2888 4516 
Q 3281 4425 3559 4188 
Q 3922 3881 4101 3404 
Q 4281 2928 4281 2316 
Q 4281 1794 4159 1391 
Q 4038 988 3847 723 
Q 3656 459 3429 307 
Q 3203 156 2883 78 
Q 2563 0 2147 0 
L 494 0 
z
M 1100 541 
L 2078 541 
Q 2531 541 2789 625 
Q 3047 709 3200 863 
Q 3416 1078 3536 1442 
Q 3656 1806 3656 2325 
Q 3656 3044 3420 3430 
Q 3184 3816 2847 3947 
Q 2603 4041 2063 4041 
L 1100 4041 
L 1100 541 
z
" transform="scale(0.015625)"/>
        <path id="ArialMT-45" d="M 506 0 
L 506 4581 
L 3819 4581 
L 3819 4041 
L 1113 4041 
L 1113 2638 
L 3647 2638 
L 3647 2100 
L 1113 2100 
L 1113 541 
L 3925 541 
L 3925 0 
L 506 0 
z
" transform="scale(0.015625)"/>
        <path id="DejaVuSans-30" d="M 2034 4250 
Q 1547 4250 1301 3770 
Q 1056 3291 1056 2328 
Q 1056 1369 1301 889 
Q 1547 409 2034 409 
Q 2525 409 2770 889 
Q 3016 1369 3016 2328 
Q 3016 3291 2770 3770 
Q 2525 4250 2034 4250 
z
M 2034 4750 
Q 2819 4750 3233 4129 
Q 3647 3509 3647 2328 
Q 3647 1150 3233 529 
Q 2819 -91 2034 -91 
Q 1250 -91 836 529 
Q 422 1150 422 2328 
Q 422 3509 836 4129 
Q 1250 4750 2034 4750 
z
" transform="scale(0.015625)"/>
       </defs>
       <use xlink:href="#ArialMT-53" transform="translate(0 0.140625)"/>
       <use xlink:href="#ArialMT-74" transform="translate(66.699219 0.140625)"/>
       <use xlink:href="#ArialMT-69" transform="translate(94.482422 0.140625)"/>
       <use xlink:href="#ArialMT-6d" transform="translate(116.699219 0.140625)"/>
       <use xlink:href="#ArialMT-2d" transform="translate(200 0.140625)"/>
       <use xlink:href="#ArialMT-43" transform="translate(233.300781 0.140625)"/>
       <use xlink:href="#ArialMT-4f" transform="translate(305.517578 0.140625)"/>
       <use xlink:href="#ArialMT-44" transform="translate(383.300781 0.140625)"/>
       <use xlink:href="#ArialMT-45" transform="translate(455.517578 0.140625)"/>
       <use xlink:href="#ArialMT-2d" transform="translate(522.216797 0.140625)"/>
       <use xlink:href="#ArialMT-4d" transform="translate(555.517578 0.140625)"/>
       <use xlink:href="#DejaVuSans-30" transform="translate(639.775391 -16.265625) scale(0.7)"/>
      </g>
     </g>
    </g>
    <g id="xtick_3">
     <g id="line2d_3">
      <path d="M 654.245364 411.783358 
L 654.245364 7.2 
" clip-path="url(#p4ee640787c)" style="fill: none; stroke: #cccccc; stroke-linecap: round"/>
     </g>
     <g id="text_3">
      <!-- Bipolar -->
      <g style="fill: #262626" transform="translate(584.370004 475.68868) rotate(-30) scale(0.25 -0.25)">
       <defs>
        <path id="ArialMT-42" d="M 469 0 
L 469 4581 
L 2188 4581 
Q 2713 4581 3030 4442 
Q 3347 4303 3526 4014 
Q 3706 3725 3706 3409 
Q 3706 3116 3547 2856 
Q 3388 2597 3066 2438 
Q 3481 2316 3704 2022 
Q 3928 1728 3928 1328 
Q 3928 1006 3792 729 
Q 3656 453 3456 303 
Q 3256 153 2954 76 
Q 2653 0 2216 0 
L 469 0 
z
M 1075 2656 
L 2066 2656 
Q 2469 2656 2644 2709 
Q 2875 2778 2992 2937 
Q 3109 3097 3109 3338 
Q 3109 3566 3000 3739 
Q 2891 3913 2687 3977 
Q 2484 4041 1991 4041 
L 1075 4041 
L 1075 2656 
z
M 1075 541 
L 2216 541 
Q 2509 541 2628 563 
Q 2838 600 2978 687 
Q 3119 775 3209 942 
Q 3300 1109 3300 1328 
Q 3300 1584 3169 1773 
Q 3038 1963 2805 2039 
Q 2572 2116 2134 2116 
L 1075 2116 
L 1075 541 
z
" transform="scale(0.015625)"/>
        <path id="ArialMT-70" d="M 422 -1272 
L 422 3319 
L 934 3319 
L 934 2888 
Q 1116 3141 1344 3267 
Q 1572 3394 1897 3394 
Q 2322 3394 2647 3175 
Q 2972 2956 3137 2557 
Q 3303 2159 3303 1684 
Q 3303 1175 3120 767 
Q 2938 359 2589 142 
Q 2241 -75 1856 -75 
Q 1575 -75 1351 44 
Q 1128 163 984 344 
L 984 -1272 
L 422 -1272 
z
M 931 1641 
Q 931 1000 1190 694 
Q 1450 388 1819 388 
Q 2194 388 2461 705 
Q 2728 1022 2728 1688 
Q 2728 2322 2467 2637 
Q 2206 2953 1844 2953 
Q 1484 2953 1207 2617 
Q 931 2281 931 1641 
z
" transform="scale(0.015625)"/>
        <path id="ArialMT-6c" d="M 409 0 
L 409 4581 
L 972 4581 
L 972 0 
L 409 0 
z
" transform="scale(0.015625)"/>
        <path id="ArialMT-61" d="M 2588 409 
Q 2275 144 1986 34 
Q 1697 -75 1366 -75 
Q 819 -75 525 192 
Q 231 459 231 875 
Q 231 1119 342 1320 
Q 453 1522 633 1644 
Q 813 1766 1038 1828 
Q 1203 1872 1538 1913 
Q 2219 1994 2541 2106 
Q 2544 2222 2544 2253 
Q 2544 2597 2384 2738 
Q 2169 2928 1744 2928 
Q 1347 2928 1158 2789 
Q 969 2650 878 2297 
L 328 2372 
Q 403 2725 575 2942 
Q 747 3159 1072 3276 
Q 1397 3394 1825 3394 
Q 2250 3394 2515 3294 
Q 2781 3194 2906 3042 
Q 3031 2891 3081 2659 
Q 3109 2516 3109 2141 
L 3109 1391 
Q 3109 606 3145 398 
Q 3181 191 3288 0 
L 2700 0 
Q 2613 175 2588 409 
z
M 2541 1666 
Q 2234 1541 1622 1453 
Q 1275 1403 1131 1340 
Q 988 1278 909 1158 
Q 831 1038 831 891 
Q 831 666 1001 516 
Q 1172 366 1500 366 
Q 1825 366 2078 508 
Q 2331 650 2450 897 
Q 2541 1088 2541 1459 
L 2541 1666 
z
" transform="scale(0.015625)"/>
        <path id="ArialMT-72" d="M 416 0 
L 416 3319 
L 922 3319 
L 922 2816 
Q 1116 3169 1280 3281 
Q 1444 3394 1641 3394 
Q 1925 3394 2219 3213 
L 2025 2691 
Q 1819 2813 1613 2813 
Q 1428 2813 1281 2702 
Q 1134 2591 1072 2394 
Q 978 2094 978 1738 
L 978 0 
L 416 0 
z
" transform="scale(0.015625)"/>
       </defs>
       <use xlink:href="#ArialMT-42"/>
       <use xlink:href="#ArialMT-69" x="66.699219"/>
       <use xlink:href="#ArialMT-70" x="88.916016"/>
       <use xlink:href="#ArialMT-6f" x="144.53125"/>
       <use xlink:href="#ArialMT-6c" x="200.146484"/>
       <use xlink:href="#ArialMT-61" x="222.363281"/>
       <use xlink:href="#ArialMT-72" x="277.978516"/>
      </g>
     </g>
    </g>
    <g id="xtick_4">
     <g id="line2d_4">
      <path d="M 919.778091 411.783358 
L 919.778091 7.2 
" clip-path="url(#p4ee640787c)" style="fill: none; stroke: #cccccc; stroke-linecap: round"/>
     </g>
     <g id="text_4">
      <!-- Stim-CODE-M$_1$ -->
      <g style="fill: #262626" transform="translate(768.337346 522.780477) rotate(-30) scale(0.25 -0.25)">
       <defs>
        <path id="DejaVuSans-31" d="M 794 531 
L 1825 531 
L 1825 4091 
L 703 3866 
L 703 4441 
L 1819 4666 
L 2450 4666 
L 2450 531 
L 3481 531 
L 3481 0 
L 794 0 
L 794 531 
z
" transform="scale(0.015625)"/>
       </defs>
       <use xlink:href="#ArialMT-53" transform="translate(0 0.140625)"/>
       <use xlink:href="#ArialMT-74" transform="translate(66.699219 0.140625)"/>
       <use xlink:href="#ArialMT-69" transform="translate(94.482422 0.140625)"/>
       <use xlink:href="#ArialMT-6d" transform="translate(116.699219 0.140625)"/>
       <use xlink:href="#ArialMT-2d" transform="translate(200 0.140625)"/>
       <use xlink:href="#ArialMT-43" transform="translate(233.300781 0.140625)"/>
       <use xlink:href="#ArialMT-4f" transform="translate(305.517578 0.140625)"/>
       <use xlink:href="#ArialMT-44" transform="translate(383.300781 0.140625)"/>
       <use xlink:href="#ArialMT-45" transform="translate(455.517578 0.140625)"/>
       <use xlink:href="#ArialMT-2d" transform="translate(522.216797 0.140625)"/>
       <use xlink:href="#ArialMT-4d" transform="translate(555.517578 0.140625)"/>
       <use xlink:href="#DejaVuSans-31" transform="translate(639.775391 -16.265625) scale(0.7)"/>
      </g>
     </g>
    </g>
   </g>
   <g id="matplotlib.axis_2">
    <g id="ytick_1">
     <g id="line2d_5">
      <path d="M 83.35 411.783358 
L 959.608 411.783358 
" clip-path="url(#p4ee640787c)" style="fill: none; stroke: #cccccc; stroke-linecap: round"/>
     </g>
     <g id="text_5">
      <!-- 0.0 -->
      <g style="fill: #262626" transform="translate(39.1 420.730624) scale(0.25 -0.25)">
       <defs>
        <path id="ArialMT-30" d="M 266 2259 
Q 266 3072 433 3567 
Q 600 4063 929 4331 
Q 1259 4600 1759 4600 
Q 2128 4600 2406 4451 
Q 2684 4303 2865 4023 
Q 3047 3744 3150 3342 
Q 3253 2941 3253 2259 
Q 3253 1453 3087 958 
Q 2922 463 2592 192 
Q 2263 -78 1759 -78 
Q 1097 -78 719 397 
Q 266 969 266 2259 
z
M 844 2259 
Q 844 1131 1108 757 
Q 1372 384 1759 384 
Q 2147 384 2411 759 
Q 2675 1134 2675 2259 
Q 2675 3391 2411 3762 
Q 2147 4134 1753 4134 
Q 1366 4134 1134 3806 
Q 844 3388 844 2259 
z
" transform="scale(0.015625)"/>
        <path id="ArialMT-2e" d="M 581 0 
L 581 641 
L 1222 641 
L 1222 0 
L 581 0 
z
" transform="scale(0.015625)"/>
       </defs>
       <use xlink:href="#ArialMT-30"/>
       <use xlink:href="#ArialMT-2e" x="55.615234"/>
       <use xlink:href="#ArialMT-30" x="83.398438"/>
      </g>
     </g>
    </g>
    <g id="ytick_2">
     <g id="line2d_6">
      <path d="M 83.35 341.666104 
L 959.608 341.666104 
" clip-path="url(#p4ee640787c)" style="fill: none; stroke: #cccccc; stroke-linecap: round"/>
     </g>
     <g id="text_6">
      <!-- 0.2 -->
      <g style="fill: #262626" transform="translate(39.1 350.61337) scale(0.25 -0.25)">
       <defs>
        <path id="ArialMT-32" d="M 3222 541 
L 3222 0 
L 194 0 
Q 188 203 259 391 
Q 375 700 629 1000 
Q 884 1300 1366 1694 
Q 2113 2306 2375 2664 
Q 2638 3022 2638 3341 
Q 2638 3675 2398 3904 
Q 2159 4134 1775 4134 
Q 1369 4134 1125 3890 
Q 881 3647 878 3216 
L 300 3275 
Q 359 3922 746 4261 
Q 1134 4600 1788 4600 
Q 2447 4600 2831 4234 
Q 3216 3869 3216 3328 
Q 3216 3053 3103 2787 
Q 2991 2522 2730 2228 
Q 2469 1934 1863 1422 
Q 1356 997 1212 845 
Q 1069 694 975 541 
L 3222 541 
z
" transform="scale(0.015625)"/>
       </defs>
       <use xlink:href="#ArialMT-30"/>
       <use xlink:href="#ArialMT-2e" x="55.615234"/>
       <use xlink:href="#ArialMT-32" x="83.398438"/>
      </g>
     </g>
    </g>
    <g id="ytick_3">
     <g id="line2d_7">
      <path d="M 83.35 271.548851 
L 959.608 271.548851 
" clip-path="url(#p4ee640787c)" style="fill: none; stroke: #cccccc; stroke-linecap: round"/>
     </g>
     <g id="text_7">
      <!-- 0.4 -->
      <g style="fill: #262626" transform="translate(39.1 280.496117) scale(0.25 -0.25)">
       <defs>
        <path id="ArialMT-34" d="M 2069 0 
L 2069 1097 
L 81 1097 
L 81 1613 
L 2172 4581 
L 2631 4581 
L 2631 1613 
L 3250 1613 
L 3250 1097 
L 2631 1097 
L 2631 0 
L 2069 0 
z
M 2069 1613 
L 2069 3678 
L 634 1613 
L 2069 1613 
z
" transform="scale(0.015625)"/>
       </defs>
       <use xlink:href="#ArialMT-30"/>
       <use xlink:href="#ArialMT-2e" x="55.615234"/>
       <use xlink:href="#ArialMT-34" x="83.398438"/>
      </g>
     </g>
    </g>
    <g id="ytick_4">
     <g id="line2d_8">
      <path d="M 83.35 201.431597 
L 959.608 201.431597 
" clip-path="url(#p4ee640787c)" style="fill: none; stroke: #cccccc; stroke-linecap: round"/>
     </g>
     <g id="text_8">
      <!-- 0.6 -->
      <g style="fill: #262626" transform="translate(39.1 210.378863) scale(0.25 -0.25)">
       <defs>
        <path id="ArialMT-36" d="M 3184 3459 
L 2625 3416 
Q 2550 3747 2413 3897 
Q 2184 4138 1850 4138 
Q 1581 4138 1378 3988 
Q 1113 3794 959 3422 
Q 806 3050 800 2363 
Q 1003 2672 1297 2822 
Q 1591 2972 1913 2972 
Q 2475 2972 2870 2558 
Q 3266 2144 3266 1488 
Q 3266 1056 3080 686 
Q 2894 316 2569 119 
Q 2244 -78 1831 -78 
Q 1128 -78 684 439 
Q 241 956 241 2144 
Q 241 3472 731 4075 
Q 1159 4600 1884 4600 
Q 2425 4600 2770 4297 
Q 3116 3994 3184 3459 
z
M 888 1484 
Q 888 1194 1011 928 
Q 1134 663 1356 523 
Q 1578 384 1822 384 
Q 2178 384 2434 671 
Q 2691 959 2691 1453 
Q 2691 1928 2437 2201 
Q 2184 2475 1800 2475 
Q 1419 2475 1153 2201 
Q 888 1928 888 1484 
z
" transform="scale(0.015625)"/>
       </defs>
       <use xlink:href="#ArialMT-30"/>
       <use xlink:href="#ArialMT-2e" x="55.615234"/>
       <use xlink:href="#ArialMT-36" x="83.398438"/>
      </g>
     </g>
    </g>
    <g id="ytick_5">
     <g id="line2d_9">
      <path d="M 83.35 131.314344 
L 959.608 131.314344 
" clip-path="url(#p4ee640787c)" style="fill: none; stroke: #cccccc; stroke-linecap: round"/>
     </g>
     <g id="text_9">
      <!-- 0.8 -->
      <g style="fill: #262626" transform="translate(39.1 140.26161) scale(0.25 -0.25)">
       <defs>
        <path id="ArialMT-38" d="M 1131 2484 
Q 781 2613 612 2850 
Q 444 3088 444 3419 
Q 444 3919 803 4259 
Q 1163 4600 1759 4600 
Q 2359 4600 2725 4251 
Q 3091 3903 3091 3403 
Q 3091 3084 2923 2848 
Q 2756 2613 2416 2484 
Q 2838 2347 3058 2040 
Q 3278 1734 3278 1309 
Q 3278 722 2862 322 
Q 2447 -78 1769 -78 
Q 1091 -78 675 323 
Q 259 725 259 1325 
Q 259 1772 486 2073 
Q 713 2375 1131 2484 
z
M 1019 3438 
Q 1019 3113 1228 2906 
Q 1438 2700 1772 2700 
Q 2097 2700 2305 2904 
Q 2513 3109 2513 3406 
Q 2513 3716 2298 3927 
Q 2084 4138 1766 4138 
Q 1444 4138 1231 3931 
Q 1019 3725 1019 3438 
z
M 838 1322 
Q 838 1081 952 856 
Q 1066 631 1291 507 
Q 1516 384 1775 384 
Q 2178 384 2440 643 
Q 2703 903 2703 1303 
Q 2703 1709 2433 1975 
Q 2163 2241 1756 2241 
Q 1359 2241 1098 1978 
Q 838 1716 838 1322 
z
" transform="scale(0.015625)"/>
       </defs>
       <use xlink:href="#ArialMT-30"/>
       <use xlink:href="#ArialMT-2e" x="55.615234"/>
       <use xlink:href="#ArialMT-38" x="83.398438"/>
      </g>
     </g>
    </g>
    <g id="ytick_6">
     <g id="line2d_10">
      <path d="M 83.35 61.19709 
L 959.608 61.19709 
" clip-path="url(#p4ee640787c)" style="fill: none; stroke: #cccccc; stroke-linecap: round"/>
     </g>
     <g id="text_10">
      <!-- 1.0 -->
      <g style="fill: #262626" transform="translate(39.1 70.144356) scale(0.25 -0.25)">
       <defs>
        <path id="ArialMT-31" d="M 2384 0 
L 1822 0 
L 1822 3584 
Q 1619 3391 1289 3197 
Q 959 3003 697 2906 
L 697 3450 
Q 1169 3672 1522 3987 
Q 1875 4303 2022 4600 
L 2384 4600 
L 2384 0 
z
" transform="scale(0.015625)"/>
       </defs>
       <use xlink:href="#ArialMT-31"/>
       <use xlink:href="#ArialMT-2e" x="55.615234"/>
       <use xlink:href="#ArialMT-30" x="83.398438"/>
      </g>
     </g>
    </g>
    <g id="text_11">
     <!-- ×10$^{-3}$ mm$^2$/s -->
     <g style="fill: #262626" transform="translate(29.1375 299.041679) rotate(-90) scale(0.3 -0.3)">
      <defs>
       <path id="ArialMT-d7" d="M 503 1278 
L 1488 2263 
L 506 3244 
L 888 3625 
L 1869 2644 
L 2847 3622 
L 3222 3244 
L 2247 2266 
L 3228 1284 
L 2847 903 
L 1866 1884 
L 881 900 
L 503 1278 
z
" transform="scale(0.015625)"/>
       <path id="DejaVuSans-2212" d="M 678 2272 
L 4684 2272 
L 4684 1741 
L 678 1741 
L 678 2272 
z
" transform="scale(0.015625)"/>
       <path id="DejaVuSans-33" d="M 2597 2516 
Q 3050 2419 3304 2112 
Q 3559 1806 3559 1356 
Q 3559 666 3084 287 
Q 2609 -91 1734 -91 
Q 1441 -91 1130 -33 
Q 819 25 488 141 
L 488 750 
Q 750 597 1062 519 
Q 1375 441 1716 441 
Q 2309 441 2620 675 
Q 2931 909 2931 1356 
Q 2931 1769 2642 2001 
Q 2353 2234 1838 2234 
L 1294 2234 
L 1294 2753 
L 1863 2753 
Q 2328 2753 2575 2939 
Q 2822 3125 2822 3475 
Q 2822 3834 2567 4026 
Q 2313 4219 1838 4219 
Q 1578 4219 1281 4162 
Q 984 4106 628 3988 
L 628 4550 
Q 988 4650 1302 4700 
Q 1616 4750 1894 4750 
Q 2613 4750 3031 4423 
Q 3450 4097 3450 3541 
Q 3450 3153 3228 2886 
Q 3006 2619 2597 2516 
z
" transform="scale(0.015625)"/>
       <path id="ArialMT-20" transform="scale(0.015625)"/>
       <path id="DejaVuSans-32" d="M 1228 531 
L 3431 531 
L 3431 0 
L 469 0 
L 469 531 
Q 828 903 1448 1529 
Q 2069 2156 2228 2338 
Q 2531 2678 2651 2914 
Q 2772 3150 2772 3378 
Q 2772 3750 2511 3984 
Q 2250 4219 1831 4219 
Q 1534 4219 1204 4116 
Q 875 4013 500 3803 
L 500 4441 
Q 881 4594 1212 4672 
Q 1544 4750 1819 4750 
Q 2544 4750 2975 4387 
Q 3406 4025 3406 3419 
Q 3406 3131 3298 2873 
Q 3191 2616 2906 2266 
Q 2828 2175 2409 1742 
Q 1991 1309 1228 531 
z
" transform="scale(0.015625)"/>
       <path id="ArialMT-2f" d="M 0 -78 
L 1328 4659 
L 1778 4659 
L 453 -78 
L 0 -78 
z
" transform="scale(0.015625)"/>
       <path id="ArialMT-73" d="M 197 991 
L 753 1078 
Q 800 744 1014 566 
Q 1228 388 1613 388 
Q 2000 388 2187 545 
Q 2375 703 2375 916 
Q 2375 1106 2209 1216 
Q 2094 1291 1634 1406 
Q 1016 1563 777 1677 
Q 538 1791 414 1992 
Q 291 2194 291 2438 
Q 291 2659 392 2848 
Q 494 3038 669 3163 
Q 800 3259 1026 3326 
Q 1253 3394 1513 3394 
Q 1903 3394 2198 3281 
Q 2494 3169 2634 2976 
Q 2775 2784 2828 2463 
L 2278 2388 
Q 2241 2644 2061 2787 
Q 1881 2931 1553 2931 
Q 1166 2931 1000 2803 
Q 834 2675 834 2503 
Q 834 2394 903 2306 
Q 972 2216 1119 2156 
Q 1203 2125 1616 2013 
Q 2213 1853 2448 1751 
Q 2684 1650 2818 1456 
Q 2953 1263 2953 975 
Q 2953 694 2789 445 
Q 2625 197 2315 61 
Q 2006 -75 1616 -75 
Q 969 -75 630 194 
Q 291 463 197 991 
z
" transform="scale(0.015625)"/>
      </defs>
      <use xlink:href="#ArialMT-d7" transform="translate(0 0.765625)"/>
      <use xlink:href="#ArialMT-31" transform="translate(58.398438 0.765625)"/>
      <use xlink:href="#ArialMT-30" transform="translate(114.013672 0.765625)"/>
      <use xlink:href="#DejaVuSans-2212" transform="translate(170.585938 39.046875) scale(0.7)"/>
      <use xlink:href="#DejaVuSans-33" transform="translate(229.238281 39.046875) scale(0.7)"/>
      <use xlink:href="#ArialMT-20" transform="translate(276.508789 0.765625)"/>
      <use xlink:href="#ArialMT-6d" transform="translate(304.291992 0.765625)"/>
      <use xlink:href="#ArialMT-6d" transform="translate(387.592773 0.765625)"/>
      <use xlink:href="#DejaVuSans-32" transform="translate(471.850586 39.046875) scale(0.7)"/>
      <use xlink:href="#ArialMT-2f" transform="translate(519.121094 0.765625)"/>
      <use xlink:href="#ArialMT-73" transform="translate(546.904297 0.765625)"/>
     </g>
    </g>
   </g>
   <g id="PathCollection_1">
    <defs>
     <path id="m216f868bdd" d="M 0 5.656854 
C 1.500215 5.656854 2.939188 5.060812 4 4 
C 5.060812 2.939188 5.656854 1.500215 5.656854 0 
C 5.656854 -1.500215 5.060812 -2.939188 4 -4 
C 2.939188 -5.060812 1.500215 -5.656854 0 -5.656854 
C -1.500215 -5.656854 -2.939188 -5.060812 -4 -4 
C -5.060812 -2.939188 -5.656854 -1.500215 -5.656854 0 
C -5.656854 1.500215 -5.060812 2.939188 -4 4 
C -2.939188 5.060812 -1.500215 5.656854 0 5.656854 
z
" style="stroke: #ff7f00; stroke-opacity: 0.7"/>
    </defs>
    <g clip-path="url(#p4ee640787c)">
     <use xlink:href="#m216f868bdd" x="123.179909" y="170.487601" style="fill: #ff7f00; fill-opacity: 0.7; stroke: #ff7f00; stroke-opacity: 0.7"/>
     <use xlink:href="#m216f868bdd" x="123.179909" y="156.384903" style="fill: #ff7f00; fill-opacity: 0.7; stroke: #ff7f00; stroke-opacity: 0.7"/>
     <use xlink:href="#m216f868bdd" x="123.179909" y="168.361365" style="fill: #ff7f00; fill-opacity: 0.7; stroke: #ff7f00; stroke-opacity: 0.7"/>
     <use xlink:href="#m216f868bdd" x="123.179909" y="146.297438" style="fill: #ff7f00; fill-opacity: 0.7; stroke: #ff7f00; stroke-opacity: 0.7"/>
     <use xlink:href="#m216f868bdd" x="123.179909" y="154.563129" style="fill: #ff7f00; fill-opacity: 0.7; stroke: #ff7f00; stroke-opacity: 0.7"/>
     <use xlink:href="#m216f868bdd" x="123.179909" y="154.009841" style="fill: #ff7f00; fill-opacity: 0.7; stroke: #ff7f00; stroke-opacity: 0.7"/>
     <use xlink:href="#m216f868bdd" x="123.179909" y="150.405578" style="fill: #ff7f00; fill-opacity: 0.7; stroke: #ff7f00; stroke-opacity: 0.7"/>
     <use xlink:href="#m216f868bdd" x="123.179909" y="205.111001" style="fill: #ff7f00; fill-opacity: 0.7; stroke: #ff7f00; stroke-opacity: 0.7"/>
     <use xlink:href="#m216f868bdd" x="123.179909" y="157.566142" style="fill: #ff7f00; fill-opacity: 0.7; stroke: #ff7f00; stroke-opacity: 0.7"/>
     <use xlink:href="#m216f868bdd" x="123.179909" y="171.603477" style="fill: #ff7f00; fill-opacity: 0.7; stroke: #ff7f00; stroke-opacity: 0.7"/>
    </g>
   </g>
   <g id="PathCollection_2">
    <g clip-path="url(#p4ee640787c)">
     <use xlink:href="#m216f868bdd" x="388.712636" y="131.21586" style="fill: #ff7f00; fill-opacity: 0.7; stroke: #ff7f00; stroke-opacity: 0.7"/>
     <use xlink:href="#m216f868bdd" x="388.712636" y="148.697255" style="fill: #ff7f00; fill-opacity: 0.7; stroke: #ff7f00; stroke-opacity: 0.7"/>
     <use xlink:href="#m216f868bdd" x="388.712636" y="168.878397" style="fill: #ff7f00; fill-opacity: 0.7; stroke: #ff7f00; stroke-opacity: 0.7"/>
     <use xlink:href="#m216f868bdd" x="388.712636" y="155.109636" style="fill: #ff7f00; fill-opacity: 0.7; stroke: #ff7f00; stroke-opacity: 0.7"/>
     <use xlink:href="#m216f868bdd" x="388.712636" y="155.014928" style="fill: #ff7f00; fill-opacity: 0.7; stroke: #ff7f00; stroke-opacity: 0.7"/>
     <use xlink:href="#m216f868bdd" x="388.712636" y="133.553722" style="fill: #ff7f00; fill-opacity: 0.7; stroke: #ff7f00; stroke-opacity: 0.7"/>
     <use xlink:href="#m216f868bdd" x="388.712636" y="144.94927" style="fill: #ff7f00; fill-opacity: 0.7; stroke: #ff7f00; stroke-opacity: 0.7"/>
     <use xlink:href="#m216f868bdd" x="388.712636" y="172.948085" style="fill: #ff7f00; fill-opacity: 0.7; stroke: #ff7f00; stroke-opacity: 0.7"/>
     <use xlink:href="#m216f868bdd" x="388.712636" y="127.196888" style="fill: #ff7f00; fill-opacity: 0.7; stroke: #ff7f00; stroke-opacity: 0.7"/>
     <use xlink:href="#m216f868bdd" x="388.712636" y="165.260704" style="fill: #ff7f00; fill-opacity: 0.7; stroke: #ff7f00; stroke-opacity: 0.7"/>
    </g>
   </g>
   <g id="PathCollection_3">
    <g clip-path="url(#p4ee640787c)">
     <use xlink:href="#m216f868bdd" x="654.245364" y="135.554543" style="fill: #ff7f00; fill-opacity: 0.7; stroke: #ff7f00; stroke-opacity: 0.7"/>
     <use xlink:href="#m216f868bdd" x="654.245364" y="146.150655" style="fill: #ff7f00; fill-opacity: 0.7; stroke: #ff7f00; stroke-opacity: 0.7"/>
     <use xlink:href="#m216f868bdd" x="654.245364" y="151.985249" style="fill: #ff7f00; fill-opacity: 0.7; stroke: #ff7f00; stroke-opacity: 0.7"/>
     <use xlink:href="#m216f868bdd" x="654.245364" y="146.414731" style="fill: #ff7f00; fill-opacity: 0.7; stroke: #ff7f00; stroke-opacity: 0.7"/>
     <use xlink:href="#m216f868bdd" x="654.245364" y="159.007538" style="fill: #ff7f00; fill-opacity: 0.7; stroke: #ff7f00; stroke-opacity: 0.7"/>
     <use xlink:href="#m216f868bdd" x="654.245364" y="143.199217" style="fill: #ff7f00; fill-opacity: 0.7; stroke: #ff7f00; stroke-opacity: 0.7"/>
     <use xlink:href="#m216f868bdd" x="654.245364" y="132.868651" style="fill: #ff7f00; fill-opacity: 0.7; stroke: #ff7f00; stroke-opacity: 0.7"/>
     <use xlink:href="#m216f868bdd" x="654.245364" y="215.808979" style="fill: #ff7f00; fill-opacity: 0.7; stroke: #ff7f00; stroke-opacity: 0.7"/>
     <use xlink:href="#m216f868bdd" x="654.245364" y="143.335226" style="fill: #ff7f00; fill-opacity: 0.7; stroke: #ff7f00; stroke-opacity: 0.7"/>
     <use xlink:href="#m216f868bdd" x="654.245364" y="149.382758" style="fill: #ff7f00; fill-opacity: 0.7; stroke: #ff7f00; stroke-opacity: 0.7"/>
    </g>
   </g>
   <g id="PathCollection_4">
    <g clip-path="url(#p4ee640787c)">
     <use xlink:href="#m216f868bdd" x="919.778091" y="122.869828" style="fill: #ff7f00; fill-opacity: 0.7; stroke: #ff7f00; stroke-opacity: 0.7"/>
     <use xlink:href="#m216f868bdd" x="919.778091" y="114.148016" style="fill: #ff7f00; fill-opacity: 0.7; stroke: #ff7f00; stroke-opacity: 0.7"/>
     <use xlink:href="#m216f868bdd" x="919.778091" y="138.105329" style="fill: #ff7f00; fill-opacity: 0.7; stroke: #ff7f00; stroke-opacity: 0.7"/>
     <use xlink:href="#m216f868bdd" x="919.778091" y="133.685054" style="fill: #ff7f00; fill-opacity: 0.7; stroke: #ff7f00; stroke-opacity: 0.7"/>
     <use xlink:href="#m216f868bdd" x="919.778091" y="125.908787" style="fill: #ff7f00; fill-opacity: 0.7; stroke: #ff7f00; stroke-opacity: 0.7"/>
     <use xlink:href="#m216f868bdd" x="919.778091" y="111.491531" style="fill: #ff7f00; fill-opacity: 0.7; stroke: #ff7f00; stroke-opacity: 0.7"/>
     <use xlink:href="#m216f868bdd" x="919.778091" y="115.209285" style="fill: #ff7f00; fill-opacity: 0.7; stroke: #ff7f00; stroke-opacity: 0.7"/>
     <use xlink:href="#m216f868bdd" x="919.778091" y="150.999239" style="fill: #ff7f00; fill-opacity: 0.7; stroke: #ff7f00; stroke-opacity: 0.7"/>
     <use xlink:href="#m216f868bdd" x="919.778091" y="112.528964" style="fill: #ff7f00; fill-opacity: 0.7; stroke: #ff7f00; stroke-opacity: 0.7"/>
     <use xlink:href="#m216f868bdd" x="919.778091" y="150.842399" style="fill: #ff7f00; fill-opacity: 0.7; stroke: #ff7f00; stroke-opacity: 0.7"/>
    </g>
   </g>
   <g id="PathCollection_5">
    <defs>
     <path id="mcfbf9c311e" d="M 0 5.656854 
C 1.500215 5.656854 2.939188 5.060812 4 4 
C 5.060812 2.939188 5.656854 1.500215 5.656854 0 
C 5.656854 -1.500215 5.060812 -2.939188 4 -4 
C 2.939188 -5.060812 1.500215 -5.656854 0 -5.656854 
C -1.500215 -5.656854 -2.939188 -5.060812 -4 -4 
C -5.060812 -2.939188 -5.656854 -1.500215 -5.656854 0 
C -5.656854 1.500215 -5.060812 2.939188 -4 4 
C -2.939188 5.060812 -1.500215 5.656854 0 5.656854 
z
" style="stroke: #fdbf6f; stroke-opacity: 0.7"/>
    </defs>
    <g clip-path="url(#p4ee640787c)">
     <use xlink:href="#mcfbf9c311e" x="123.179909" y="374.9718" style="fill: #fdbf6f; fill-opacity: 0.7; stroke: #fdbf6f; stroke-opacity: 0.7"/>
     <use xlink:href="#mcfbf9c311e" x="123.179909" y="378.477663" style="fill: #fdbf6f; fill-opacity: 0.7; stroke: #fdbf6f; stroke-opacity: 0.7"/>
     <use xlink:href="#mcfbf9c311e" x="123.179909" y="381.983525" style="fill: #fdbf6f; fill-opacity: 0.7; stroke: #fdbf6f; stroke-opacity: 0.7"/>
     <use xlink:href="#mcfbf9c311e" x="123.179909" y="385.489388" style="fill: #fdbf6f; fill-opacity: 0.7; stroke: #fdbf6f; stroke-opacity: 0.7"/>
     <use xlink:href="#mcfbf9c311e" x="123.179909" y="381.983525" style="fill: #fdbf6f; fill-opacity: 0.7; stroke: #fdbf6f; stroke-opacity: 0.7"/>
     <use xlink:href="#mcfbf9c311e" x="123.179909" y="385.489388" style="fill: #fdbf6f; fill-opacity: 0.7; stroke: #fdbf6f; stroke-opacity: 0.7"/>
     <use xlink:href="#mcfbf9c311e" x="123.179909" y="385.489388" style="fill: #fdbf6f; fill-opacity: 0.7; stroke: #fdbf6f; stroke-opacity: 0.7"/>
     <use xlink:href="#mcfbf9c311e" x="123.179909" y="378.477663" style="fill: #fdbf6f; fill-opacity: 0.7; stroke: #fdbf6f; stroke-opacity: 0.7"/>
     <use xlink:href="#mcfbf9c311e" x="123.179909" y="385.489388" style="fill: #fdbf6f; fill-opacity: 0.7; stroke: #fdbf6f; stroke-opacity: 0.7"/>
     <use xlink:href="#mcfbf9c311e" x="123.179909" y="385.489388" style="fill: #fdbf6f; fill-opacity: 0.7; stroke: #fdbf6f; stroke-opacity: 0.7"/>
    </g>
   </g>
   <g id="PathCollection_6">
    <g clip-path="url(#p4ee640787c)">
     <use xlink:href="#mcfbf9c311e" x="388.712636" y="378.477663" style="fill: #fdbf6f; fill-opacity: 0.7; stroke: #fdbf6f; stroke-opacity: 0.7"/>
     <use xlink:href="#mcfbf9c311e" x="388.712636" y="381.983525" style="fill: #fdbf6f; fill-opacity: 0.7; stroke: #fdbf6f; stroke-opacity: 0.7"/>
     <use xlink:href="#mcfbf9c311e" x="388.712636" y="385.489388" style="fill: #fdbf6f; fill-opacity: 0.7; stroke: #fdbf6f; stroke-opacity: 0.7"/>
     <use xlink:href="#mcfbf9c311e" x="388.712636" y="385.489388" style="fill: #fdbf6f; fill-opacity: 0.7; stroke: #fdbf6f; stroke-opacity: 0.7"/>
     <use xlink:href="#mcfbf9c311e" x="388.712636" y="381.983525" style="fill: #fdbf6f; fill-opacity: 0.7; stroke: #fdbf6f; stroke-opacity: 0.7"/>
     <use xlink:href="#mcfbf9c311e" x="388.712636" y="385.489388" style="fill: #fdbf6f; fill-opacity: 0.7; stroke: #fdbf6f; stroke-opacity: 0.7"/>
     <use xlink:href="#mcfbf9c311e" x="388.712636" y="385.489388" style="fill: #fdbf6f; fill-opacity: 0.7; stroke: #fdbf6f; stroke-opacity: 0.7"/>
     <use xlink:href="#mcfbf9c311e" x="388.712636" y="381.983525" style="fill: #fdbf6f; fill-opacity: 0.7; stroke: #fdbf6f; stroke-opacity: 0.7"/>
     <use xlink:href="#mcfbf9c311e" x="388.712636" y="381.983525" style="fill: #fdbf6f; fill-opacity: 0.7; stroke: #fdbf6f; stroke-opacity: 0.7"/>
     <use xlink:href="#mcfbf9c311e" x="388.712636" y="385.489388" style="fill: #fdbf6f; fill-opacity: 0.7; stroke: #fdbf6f; stroke-opacity: 0.7"/>
    </g>
   </g>
   <g id="PathCollection_7">
    <g clip-path="url(#p4ee640787c)">
     <use xlink:href="#mcfbf9c311e" x="654.245364" y="371.465937" style="fill: #fdbf6f; fill-opacity: 0.7; stroke: #fdbf6f; stroke-opacity: 0.7"/>
     <use xlink:href="#mcfbf9c311e" x="654.245364" y="371.465937" style="fill: #fdbf6f; fill-opacity: 0.7; stroke: #fdbf6f; stroke-opacity: 0.7"/>
     <use xlink:href="#mcfbf9c311e" x="654.245364" y="378.477663" style="fill: #fdbf6f; fill-opacity: 0.7; stroke: #fdbf6f; stroke-opacity: 0.7"/>
     <use xlink:href="#mcfbf9c311e" x="654.245364" y="374.9718" style="fill: #fdbf6f; fill-opacity: 0.7; stroke: #fdbf6f; stroke-opacity: 0.7"/>
     <use xlink:href="#mcfbf9c311e" x="654.245364" y="378.477663" style="fill: #fdbf6f; fill-opacity: 0.7; stroke: #fdbf6f; stroke-opacity: 0.7"/>
     <use xlink:href="#mcfbf9c311e" x="654.245364" y="374.9718" style="fill: #fdbf6f; fill-opacity: 0.7; stroke: #fdbf6f; stroke-opacity: 0.7"/>
     <use xlink:href="#mcfbf9c311e" x="654.245364" y="378.477663" style="fill: #fdbf6f; fill-opacity: 0.7; stroke: #fdbf6f; stroke-opacity: 0.7"/>
     <use xlink:href="#mcfbf9c311e" x="654.245364" y="371.465937" style="fill: #fdbf6f; fill-opacity: 0.7; stroke: #fdbf6f; stroke-opacity: 0.7"/>
     <use xlink:href="#mcfbf9c311e" x="654.245364" y="374.9718" style="fill: #fdbf6f; fill-opacity: 0.7; stroke: #fdbf6f; stroke-opacity: 0.7"/>
     <use xlink:href="#mcfbf9c311e" x="654.245364" y="374.9718" style="fill: #fdbf6f; fill-opacity: 0.7; stroke: #fdbf6f; stroke-opacity: 0.7"/>
    </g>
   </g>
   <g id="PathCollection_8">
    <g clip-path="url(#p4ee640787c)">
     <use xlink:href="#mcfbf9c311e" x="919.778091" y="374.9718" style="fill: #fdbf6f; fill-opacity: 0.7; stroke: #fdbf6f; stroke-opacity: 0.7"/>
     <use xlink:href="#mcfbf9c311e" x="919.778091" y="378.477663" style="fill: #fdbf6f; fill-opacity: 0.7; stroke: #fdbf6f; stroke-opacity: 0.7"/>
     <use xlink:href="#mcfbf9c311e" x="919.778091" y="374.9718" style="fill: #fdbf6f; fill-opacity: 0.7; stroke: #fdbf6f; stroke-opacity: 0.7"/>
     <use xlink:href="#mcfbf9c311e" x="919.778091" y="381.983525" style="fill: #fdbf6f; fill-opacity: 0.7; stroke: #fdbf6f; stroke-opacity: 0.7"/>
     <use xlink:href="#mcfbf9c311e" x="919.778091" y="378.477663" style="fill: #fdbf6f; fill-opacity: 0.7; stroke: #fdbf6f; stroke-opacity: 0.7"/>
     <use xlink:href="#mcfbf9c311e" x="919.778091" y="378.477663" style="fill: #fdbf6f; fill-opacity: 0.7; stroke: #fdbf6f; stroke-opacity: 0.7"/>
     <use xlink:href="#mcfbf9c311e" x="919.778091" y="381.983525" style="fill: #fdbf6f; fill-opacity: 0.7; stroke: #fdbf6f; stroke-opacity: 0.7"/>
     <use xlink:href="#mcfbf9c311e" x="919.778091" y="371.465937" style="fill: #fdbf6f; fill-opacity: 0.7; stroke: #fdbf6f; stroke-opacity: 0.7"/>
     <use xlink:href="#mcfbf9c311e" x="919.778091" y="381.983525" style="fill: #fdbf6f; fill-opacity: 0.7; stroke: #fdbf6f; stroke-opacity: 0.7"/>
     <use xlink:href="#mcfbf9c311e" x="919.778091" y="378.477663" style="fill: #fdbf6f; fill-opacity: 0.7; stroke: #fdbf6f; stroke-opacity: 0.7"/>
    </g>
   </g>
   <g id="line2d_11">
    <path d="M 123.179909 170.487601 
L 388.712636 131.21586 
L 654.245364 135.554543 
L 919.778091 122.869828 
" clip-path="url(#p4ee640787c)" style="fill: none; stroke: #ff7f00; stroke-opacity: 0.25; stroke-width: 1.5; stroke-linecap: round"/>
   </g>
   <g id="line2d_12">
    <path d="M 123.179909 156.384903 
L 388.712636 148.697255 
L 654.245364 146.150655 
L 919.778091 114.148016 
" clip-path="url(#p4ee640787c)" style="fill: none; stroke: #ff7f00; stroke-opacity: 0.25; stroke-width: 1.5; stroke-linecap: round"/>
   </g>
   <g id="line2d_13">
    <path d="M 123.179909 168.361365 
L 388.712636 168.878397 
L 654.245364 151.985249 
L 919.778091 138.105329 
" clip-path="url(#p4ee640787c)" style="fill: none; stroke: #ff7f00; stroke-opacity: 0.25; stroke-width: 1.5; stroke-linecap: round"/>
   </g>
   <g id="line2d_14">
    <path d="M 123.179909 146.297438 
L 388.712636 155.109636 
L 654.245364 146.414731 
L 919.778091 133.685054 
" clip-path="url(#p4ee640787c)" style="fill: none; stroke: #ff7f00; stroke-opacity: 0.25; stroke-width: 1.5; stroke-linecap: round"/>
   </g>
   <g id="line2d_15">
    <path d="M 123.179909 154.563129 
L 388.712636 155.014928 
L 654.245364 159.007538 
L 919.778091 125.908787 
" clip-path="url(#p4ee640787c)" style="fill: none; stroke: #ff7f00; stroke-opacity: 0.25; stroke-width: 1.5; stroke-linecap: round"/>
   </g>
   <g id="line2d_16">
    <path d="M 123.179909 154.009841 
L 388.712636 133.553722 
L 654.245364 143.199217 
L 919.778091 111.491531 
" clip-path="url(#p4ee640787c)" style="fill: none; stroke: #ff7f00; stroke-opacity: 0.25; stroke-width: 1.5; stroke-linecap: round"/>
   </g>
   <g id="line2d_17">
    <path d="M 123.179909 150.405578 
L 388.712636 144.94927 
L 654.245364 132.868651 
L 919.778091 115.209285 
" clip-path="url(#p4ee640787c)" style="fill: none; stroke: #ff7f00; stroke-opacity: 0.25; stroke-width: 1.5; stroke-linecap: round"/>
   </g>
   <g id="line2d_18">
    <path d="M 123.179909 205.111001 
L 388.712636 172.948085 
L 654.245364 215.808979 
L 919.778091 150.999239 
" clip-path="url(#p4ee640787c)" style="fill: none; stroke: #ff7f00; stroke-opacity: 0.25; stroke-width: 1.5; stroke-linecap: round"/>
   </g>
   <g id="line2d_19">
    <path d="M 123.179909 157.566142 
L 388.712636 127.196888 
L 654.245364 143.335226 
L 919.778091 112.528964 
" clip-path="url(#p4ee640787c)" style="fill: none; stroke: #ff7f00; stroke-opacity: 0.25; stroke-width: 1.5; stroke-linecap: round"/>
   </g>
   <g id="line2d_20">
    <path d="M 123.179909 171.603477 
L 388.712636 165.260704 
L 654.245364 149.382758 
L 919.778091 150.842399 
" clip-path="url(#p4ee640787c)" style="fill: none; stroke: #ff7f00; stroke-opacity: 0.25; stroke-width: 1.5; stroke-linecap: round"/>
   </g>
   <g id="line2d_21">
    <path d="M 123.179909 374.9718 
L 388.712636 378.477663 
L 654.245364 371.465937 
L 919.778091 374.9718 
" clip-path="url(#p4ee640787c)" style="fill: none; stroke: #fdbf6f; stroke-opacity: 0.25; stroke-width: 1.5; stroke-linecap: round"/>
   </g>
   <g id="line2d_22">
    <path d="M 123.179909 378.477663 
L 388.712636 381.983525 
L 654.245364 371.465937 
L 919.778091 378.477663 
" clip-path="url(#p4ee640787c)" style="fill: none; stroke: #fdbf6f; stroke-opacity: 0.25; stroke-width: 1.5; stroke-linecap: round"/>
   </g>
   <g id="line2d_23">
    <path d="M 123.179909 381.983525 
L 388.712636 385.489388 
L 654.245364 378.477663 
L 919.778091 374.9718 
" clip-path="url(#p4ee640787c)" style="fill: none; stroke: #fdbf6f; stroke-opacity: 0.25; stroke-width: 1.5; stroke-linecap: round"/>
   </g>
   <g id="line2d_24">
    <path d="M 123.179909 385.489388 
L 388.712636 385.489388 
L 654.245364 374.9718 
L 919.778091 381.983525 
" clip-path="url(#p4ee640787c)" style="fill: none; stroke: #fdbf6f; stroke-opacity: 0.25; stroke-width: 1.5; stroke-linecap: round"/>
   </g>
   <g id="line2d_25">
    <path d="M 123.179909 381.983525 
L 388.712636 381.983525 
L 654.245364 378.477663 
L 919.778091 378.477663 
" clip-path="url(#p4ee640787c)" style="fill: none; stroke: #fdbf6f; stroke-opacity: 0.25; stroke-width: 1.5; stroke-linecap: round"/>
   </g>
   <g id="line2d_26">
    <path d="M 123.179909 385.489388 
L 388.712636 385.489388 
L 654.245364 374.9718 
L 919.778091 378.477663 
" clip-path="url(#p4ee640787c)" style="fill: none; stroke: #fdbf6f; stroke-opacity: 0.25; stroke-width: 1.5; stroke-linecap: round"/>
   </g>
   <g id="line2d_27">
    <path d="M 123.179909 385.489388 
L 388.712636 385.489388 
L 654.245364 378.477663 
L 919.778091 381.983525 
" clip-path="url(#p4ee640787c)" style="fill: none; stroke: #fdbf6f; stroke-opacity: 0.25; stroke-width: 1.5; stroke-linecap: round"/>
   </g>
   <g id="line2d_28">
    <path d="M 123.179909 378.477663 
L 388.712636 381.983525 
L 654.245364 371.465937 
L 919.778091 371.465937 
" clip-path="url(#p4ee640787c)" style="fill: none; stroke: #fdbf6f; stroke-opacity: 0.25; stroke-width: 1.5; stroke-linecap: round"/>
   </g>
   <g id="line2d_29">
    <path d="M 123.179909 385.489388 
L 388.712636 381.983525 
L 654.245364 374.9718 
L 919.778091 381.983525 
" clip-path="url(#p4ee640787c)" style="fill: none; stroke: #fdbf6f; stroke-opacity: 0.25; stroke-width: 1.5; stroke-linecap: round"/>
   </g>
   <g id="line2d_30">
    <path d="M 123.179909 385.489388 
L 388.712636 385.489388 
L 654.245364 374.9718 
L 919.778091 378.477663 
" clip-path="url(#p4ee640787c)" style="fill: none; stroke: #fdbf6f; stroke-opacity: 0.25; stroke-width: 1.5; stroke-linecap: round"/>
   </g>
   <g id="line2d_31">
    <path d="M 123.179909 94.846567 
L 123.179909 87.834842 
L 919.778091 87.834842 
L 919.778091 94.846567 
" style="fill: none; stroke: #000000; stroke-width: 2; stroke-linecap: round"/>
   </g>
   <g id="line2d_32">
    <path d="M 388.712636 75.564322 
L 388.712636 68.552597 
L 919.778091 68.552597 
L 919.778091 75.564322 
" style="fill: none; stroke: #000000; stroke-width: 2; stroke-linecap: round"/>
   </g>
   <g id="line2d_33">
    <path d="M 654.245364 56.282077 
L 654.245364 49.270352 
L 919.778091 49.270352 
L 919.778091 56.282077 
" style="fill: none; stroke: #000000; stroke-width: 2; stroke-linecap: round"/>
   </g>
   <g id="line2d_34">
    <path d="M 123.179909 354.130586 
L 123.179909 347.11886 
L 654.245364 347.11886 
L 654.245364 354.130586 
" style="fill: none; stroke: #000000; stroke-width: 2; stroke-linecap: round"/>
   </g>
   <g id="line2d_35">
    <path d="M 123.179909 334.848341 
L 123.179909 327.836616 
L 919.778091 327.836616 
L 919.778091 334.848341 
" style="fill: none; stroke: #000000; stroke-width: 2; stroke-linecap: round"/>
   </g>
   <g id="line2d_36">
    <path d="M 388.712636 315.566096 
L 388.712636 308.554371 
L 654.245364 308.554371 
L 654.245364 315.566096 
" style="fill: none; stroke: #000000; stroke-width: 2; stroke-linecap: round"/>
   </g>
   <g id="line2d_37">
    <path d="M 388.712636 296.283852 
L 388.712636 289.272126 
L 919.778091 289.272126 
L 919.778091 296.283852 
" style="fill: none; stroke: #000000; stroke-width: 2; stroke-linecap: round"/>
   </g>
   <g id="patch_3">
    <path d="M 83.35 411.783358 
L 83.35 7.2 
" style="fill: none; stroke: #cccccc; stroke-width: 1.25; stroke-linejoin: miter; stroke-linecap: square"/>
   </g>
   <g id="patch_4">
    <path d="M 83.35 411.783358 
L 959.608 411.783358 
" style="fill: none; stroke: #cccccc; stroke-width: 1.25; stroke-linejoin: miter; stroke-linecap: square"/>
   </g>
   <g id="text_12">
    <!-- *** -->
    <g style="fill: #262626" transform="translate(506.883297 96.410646) scale(0.25 -0.25)">
     <defs>
      <path id="ArialMT-2a" d="M 200 3741 
L 344 4184 
Q 841 4009 1066 3881 
Q 1006 4447 1003 4659 
L 1456 4659 
Q 1447 4350 1384 3884 
Q 1706 4047 2122 4184 
L 2266 3741 
Q 1869 3609 1488 3566 
Q 1678 3400 2025 2975 
L 1650 2709 
Q 1469 2956 1222 3381 
Q 991 2941 816 2709 
L 447 2975 
Q 809 3422 966 3566 
Q 563 3644 200 3741 
z
" transform="scale(0.015625)"/>
     </defs>
     <use xlink:href="#ArialMT-2a"/>
     <use xlink:href="#ArialMT-2a" x="38.916016"/>
     <use xlink:href="#ArialMT-2a" x="77.832031"/>
    </g>
   </g>
   <g id="text_13">
    <!-- *** -->
    <g style="fill: #262626" transform="translate(639.649661 77.128401) scale(0.25 -0.25)">
     <use xlink:href="#ArialMT-2a"/>
     <use xlink:href="#ArialMT-2a" x="38.916016"/>
     <use xlink:href="#ArialMT-2a" x="77.832031"/>
    </g>
   </g>
   <g id="text_14">
    <!-- ** -->
    <g style="fill: #262626" transform="translate(777.281259 57.846157) scale(0.25 -0.25)">
     <use xlink:href="#ArialMT-2a"/>
     <use xlink:href="#ArialMT-2a" x="38.916016"/>
    </g>
   </g>
   <g id="text_15">
    <!-- * -->
    <g style="fill: #262626" transform="translate(383.847402 355.694665) scale(0.25 -0.25)">
     <use xlink:href="#ArialMT-2a"/>
    </g>
   </g>
   <g id="text_16">
    <!-- * -->
    <g style="fill: #262626" transform="translate(516.613766 336.41242) scale(0.25 -0.25)">
     <use xlink:href="#ArialMT-2a"/>
    </g>
   </g>
   <g id="text_17">
    <!-- * -->
    <g style="fill: #262626" transform="translate(516.613766 317.130175) scale(0.25 -0.25)">
     <use xlink:href="#ArialMT-2a"/>
    </g>
   </g>
   <g id="text_18">
    <!-- * -->
    <g style="fill: #262626" transform="translate(649.380129 297.847931) scale(0.25 -0.25)">
     <use xlink:href="#ArialMT-2a"/>
    </g>
   </g>
   <g id="LineCollection_1">
    <path d="M 123.179909 189.358793 
L 123.179909 148.746235 
" clip-path="url(#p4ee640787c)" style="fill: none; stroke: #000000; stroke-width: 4"/>
   </g>
   <g id="line2d_38">
    <defs>
     <path id="mab18f8fd62" d="M 10 0 
L -10 -0 
" style="stroke: #000000; stroke-width: 3"/>
    </defs>
    <g clip-path="url(#p4ee640787c)">
     <use xlink:href="#mab18f8fd62" x="123.179909" y="189.358793" style="stroke: #000000; stroke-width: 3"/>
    </g>
   </g>
   <g id="line2d_39">
    <g clip-path="url(#p4ee640787c)">
     <use xlink:href="#mab18f8fd62" x="123.179909" y="148.746235" style="stroke: #000000; stroke-width: 3"/>
    </g>
   </g>
   <g id="LineCollection_2">
    <path d="M 388.712636 169.76632 
L 388.712636 129.938261 
" clip-path="url(#p4ee640787c)" style="fill: none; stroke: #000000; stroke-width: 4"/>
   </g>
   <g id="line2d_40">
    <g clip-path="url(#p4ee640787c)">
     <use xlink:href="#mab18f8fd62" x="388.712636" y="169.76632" style="stroke: #000000; stroke-width: 3"/>
    </g>
   </g>
   <g id="line2d_41">
    <g clip-path="url(#p4ee640787c)">
     <use xlink:href="#mab18f8fd62" x="388.712636" y="129.938261" style="stroke: #000000; stroke-width: 3"/>
    </g>
   </g>
   <g id="LineCollection_3">
    <path d="M 654.245364 188.5817 
L 654.245364 135.481632 
" clip-path="url(#p4ee640787c)" style="fill: none; stroke: #000000; stroke-width: 4"/>
   </g>
   <g id="line2d_42">
    <g clip-path="url(#p4ee640787c)">
     <use xlink:href="#mab18f8fd62" x="654.245364" y="188.5817" style="stroke: #000000; stroke-width: 3"/>
    </g>
   </g>
   <g id="line2d_43">
    <g clip-path="url(#p4ee640787c)">
     <use xlink:href="#mab18f8fd62" x="654.245364" y="135.481632" style="stroke: #000000; stroke-width: 3"/>
    </g>
   </g>
   <g id="LineCollection_4">
    <path d="M 919.778091 148.411713 
L 919.778091 112.37588 
" clip-path="url(#p4ee640787c)" style="fill: none; stroke: #000000; stroke-width: 4"/>
   </g>
   <g id="line2d_44">
    <g clip-path="url(#p4ee640787c)">
     <use xlink:href="#mab18f8fd62" x="919.778091" y="148.411713" style="stroke: #000000; stroke-width: 3"/>
    </g>
   </g>
   <g id="line2d_45">
    <g clip-path="url(#p4ee640787c)">
     <use xlink:href="#mab18f8fd62" x="919.778091" y="112.37588" style="stroke: #000000; stroke-width: 3"/>
    </g>
   </g>
   <g id="LineCollection_5">
    <path d="M 123.179909 385.4815 
L 123.179909 376.735599 
" clip-path="url(#p4ee640787c)" style="fill: none; stroke: #000000; stroke-width: 4"/>
   </g>
   <g id="line2d_46">
    <g clip-path="url(#p4ee640787c)">
     <use xlink:href="#mab18f8fd62" x="123.179909" y="385.4815" style="stroke: #000000; stroke-width: 3"/>
    </g>
   </g>
   <g id="line2d_47">
    <g clip-path="url(#p4ee640787c)">
     <use xlink:href="#mab18f8fd62" x="123.179909" y="376.735599" style="stroke: #000000; stroke-width: 3"/>
    </g>
   </g>
   <g id="LineCollection_6">
    <path d="M 388.712636 385.479572 
L 388.712636 380.046711 
" clip-path="url(#p4ee640787c)" style="fill: none; stroke: #000000; stroke-width: 4"/>
   </g>
   <g id="line2d_48">
    <g clip-path="url(#p4ee640787c)">
     <use xlink:href="#mab18f8fd62" x="388.712636" y="385.479572" style="stroke: #000000; stroke-width: 3"/>
    </g>
   </g>
   <g id="line2d_49">
    <g clip-path="url(#p4ee640787c)">
     <use xlink:href="#mab18f8fd62" x="388.712636" y="380.046711" style="stroke: #000000; stroke-width: 3"/>
    </g>
   </g>
   <g id="LineCollection_7">
    <path d="M 654.245364 378.285892 
L 654.245364 371.659899 
" clip-path="url(#p4ee640787c)" style="fill: none; stroke: #000000; stroke-width: 4"/>
   </g>
   <g id="line2d_50">
    <g clip-path="url(#p4ee640787c)">
     <use xlink:href="#mab18f8fd62" x="654.245364" y="378.285892" style="stroke: #000000; stroke-width: 3"/>
    </g>
   </g>
   <g id="line2d_51">
    <g clip-path="url(#p4ee640787c)">
     <use xlink:href="#mab18f8fd62" x="654.245364" y="371.659899" style="stroke: #000000; stroke-width: 3"/>
    </g>
   </g>
   <g id="LineCollection_8">
    <path d="M 919.778091 381.808758 
L 919.778091 373.315367 
" clip-path="url(#p4ee640787c)" style="fill: none; stroke: #000000; stroke-width: 4"/>
   </g>
   <g id="line2d_52">
    <g clip-path="url(#p4ee640787c)">
     <use xlink:href="#mab18f8fd62" x="919.778091" y="381.808758" style="stroke: #000000; stroke-width: 3"/>
    </g>
   </g>
   <g id="line2d_53">
    <g clip-path="url(#p4ee640787c)">
     <use xlink:href="#mab18f8fd62" x="919.778091" y="373.315367" style="stroke: #000000; stroke-width: 3"/>
    </g>
   </g>
   <g id="line2d_54">
    <defs>
     <path id="m8375dea088" d="M 0 6.123724 
C 1.624031 6.123724 3.181764 5.47849 4.330127 4.330127 
C 5.47849 3.181764 6.123724 1.624031 6.123724 0 
C 6.123724 -1.624031 5.47849 -3.181764 4.330127 -4.330127 
C 3.181764 -5.47849 1.624031 -6.123724 0 -6.123724 
C -1.624031 -6.123724 -3.181764 -5.47849 -4.330127 -4.330127 
C -5.47849 -3.181764 -6.123724 -1.624031 -6.123724 0 
C -6.123724 1.624031 -5.47849 3.181764 -4.330127 4.330127 
C -3.181764 5.47849 -1.624031 6.123724 0 6.123724 
z
" style="stroke: #000000"/>
    </defs>
    <g clip-path="url(#p4ee640787c)">
     <use xlink:href="#m8375dea088" x="123.179909" y="156.975522" style="stroke: #000000"/>
    </g>
   </g>
   <g id="line2d_55">
    <g clip-path="url(#p4ee640787c)">
     <use xlink:href="#m8375dea088" x="388.712636" y="151.856092" style="stroke: #000000"/>
    </g>
   </g>
   <g id="line2d_56">
    <g clip-path="url(#p4ee640787c)">
     <use xlink:href="#m8375dea088" x="654.245364" y="146.282693" style="stroke: #000000"/>
    </g>
   </g>
   <g id="line2d_57">
    <g clip-path="url(#p4ee640787c)">
     <use xlink:href="#m8375dea088" x="919.778091" y="124.389308" style="stroke: #000000"/>
    </g>
   </g>
   <g id="line2d_58">
    <g clip-path="url(#p4ee640787c)">
     <use xlink:href="#m8375dea088" x="123.179909" y="383.736457" style="stroke: #000000"/>
    </g>
   </g>
   <g id="line2d_59">
    <g clip-path="url(#p4ee640787c)">
     <use xlink:href="#m8375dea088" x="388.712636" y="383.736457" style="stroke: #000000"/>
    </g>
   </g>
   <g id="line2d_60">
    <g clip-path="url(#p4ee640787c)">
     <use xlink:href="#m8375dea088" x="654.245364" y="374.9718" style="stroke: #000000"/>
    </g>
   </g>
   <g id="line2d_61">
    <g clip-path="url(#p4ee640787c)">
     <use xlink:href="#m8375dea088" x="919.778091" y="378.477663" style="stroke: #000000"/>
    </g>
   </g>
  </g>
 </g>
 <defs>
  <clipPath id="p4ee640787c">
   <rect x="83.35" y="7.2" width="876.258" height="404.583358"/>
  </clipPath>
 </defs>
</svg>
