<?xml version="1.0" encoding="utf-8" standalone="no"?>
<!DOCTYPE svg PUBLIC "-//W3C//DTD SVG 1.1//EN"
  "http://www.w3.org/Graphics/SVG/1.1/DTD/svg11.dtd">
<svg xmlns:xlink="http://www.w3.org/1999/xlink" width="963.735938pt" height="530.806487pt" viewBox="0 0 963.735938 530.806487" xmlns="http://www.w3.org/2000/svg" version="1.1">
 <metadata>
  <rdf:RDF xmlns:dc="http://purl.org/dc/elements/1.1/" xmlns:cc="http://creativecommons.org/ns#" xmlns:rdf="http://www.w3.org/1999/02/22-rdf-syntax-ns#">
   <cc:Work>
    <dc:type rdf:resource="http://purl.org/dc/dcmitype/StillImage"/>
    <dc:date>2026-01-28T13:07:22.834564</dc:date>
    <dc:format>image/svg+xml</dc:format>
    <dc:creator>
     <cc:Agent>
      <dc:title>Matplotlib v3.7.1, https://matplotlib.org/</dc:title>
     </cc:Agent>
    </dc:creator>
   </cc:Work>
  </rdf:RDF>
 </metadata>
 <defs>
  <style type="text/css">*{stroke-linejoin: round; stroke-linecap: butt}</style>
 </defs>
 <g id="figure_1">
  <g id="patch_1">
   <path d="M 0 530.806487 
L 963.735938 530.806487 
L 963.735938 0 
L 0 0 
z
" style="fill: #ffffff"/>
  </g>
  <g id="axes_1">
   <g id="patch_2">
    <path d="M 76.335938 399.84229 
L 956.535938 399.84229 
L 956.535938 16.863047 
L 76.335938 16.863047 
z
" style="fill: #ffffff"/>
   </g>
   <g id="matplotlib.axis_1">
    <g id="xtick_1">
     <g id="line2d_1">
      <path d="M 116.345028 399.84229 
L 116.345028 16.863047 
" clip-path="url(#p5b20b0e6fe)" style="fill: none; stroke: #cccccc; stroke-linecap: round"/>
     </g>
     <g id="text_1">
      <!-- Mono -->
      <g style="fill: #262626" transform="translate(55.17596 459.846053) rotate(-30) scale(0.27 -0.27)">
       <defs>
        <path id="ArialMT-4d" d="M 475 0 
L 475 4581 
L 1388 4581 
L 2472 1338 
Q 2622 884 2691 659 
Q 2769 909 2934 1394 
L 4031 4581 
L 4847 4581 
L 4847 0 
L 4263 0 
L 4263 3834 
L 2931 0 
L 2384 0 
L 1059 3900 
L 1059 0 
L 475 0 
z
" transform="scale(0.015625)"/>
        <path id="ArialMT-6f" d="M 213 1659 
Q 213 2581 725 3025 
Q 1153 3394 1769 3394 
Q 2453 3394 2887 2945 
Q 3322 2497 3322 1706 
Q 3322 1066 3130 698 
Q 2938 331 2570 128 
Q 2203 -75 1769 -75 
Q 1072 -75 642 372 
Q 213 819 213 1659 
z
M 791 1659 
Q 791 1022 1069 705 
Q 1347 388 1769 388 
Q 2188 388 2466 706 
Q 2744 1025 2744 1678 
Q 2744 2294 2464 2611 
Q 2184 2928 1769 2928 
Q 1347 2928 1069 2612 
Q 791 2297 791 1659 
z
" transform="scale(0.015625)"/>
        <path id="ArialMT-6e" d="M 422 0 
L 422 3319 
L 928 3319 
L 928 2847 
Q 1294 3394 1984 3394 
Q 2284 3394 2536 3286 
Q 2788 3178 2913 3003 
Q 3038 2828 3088 2588 
Q 3119 2431 3119 2041 
L 3119 0 
L 2556 0 
L 2556 2019 
Q 2556 2363 2490 2533 
Q 2425 2703 2258 2804 
Q 2091 2906 1866 2906 
Q 1506 2906 1245 2678 
Q 984 2450 984 1813 
L 984 0 
L 422 0 
z
" transform="scale(0.015625)"/>
       </defs>
       <use xlink:href="#ArialMT-4d"/>
       <use xlink:href="#ArialMT-6f" x="83.300781"/>
       <use xlink:href="#ArialMT-6e" x="138.916016"/>
       <use xlink:href="#ArialMT-6f" x="194.53125"/>
      </g>
     </g>
    </g>
    <g id="xtick_2">
     <g id="line2d_2">
      <path d="M 383.072301 399.84229 
L 383.072301 16.863047 
" clip-path="url(#p5b20b0e6fe)" style="fill: none; stroke: #cccccc; stroke-linecap: round"/>
     </g>
     <g id="text_2">
      <!-- Stim-CODE-M$_0$ -->
      <g style="fill: #262626" transform="translate(219.516297 518.959178) rotate(-30) scale(0.27 -0.27)">
       <defs>
        <path id="ArialMT-53" d="M 288 1472 
L 859 1522 
Q 900 1178 1048 958 
Q 1197 738 1509 602 
Q 1822 466 2213 466 
Q 2559 466 2825 569 
Q 3091 672 3220 851 
Q 3350 1031 3350 1244 
Q 3350 1459 3225 1620 
Q 3100 1781 2813 1891 
Q 2628 1963 1997 2114 
Q 1366 2266 1113 2400 
Q 784 2572 623 2826 
Q 463 3081 463 3397 
Q 463 3744 659 4045 
Q 856 4347 1234 4503 
Q 1613 4659 2075 4659 
Q 2584 4659 2973 4495 
Q 3363 4331 3572 4012 
Q 3781 3694 3797 3291 
L 3216 3247 
Q 3169 3681 2898 3903 
Q 2628 4125 2100 4125 
Q 1550 4125 1298 3923 
Q 1047 3722 1047 3438 
Q 1047 3191 1225 3031 
Q 1400 2872 2139 2705 
Q 2878 2538 3153 2413 
Q 3553 2228 3743 1945 
Q 3934 1663 3934 1294 
Q 3934 928 3725 604 
Q 3516 281 3123 101 
Q 2731 -78 2241 -78 
Q 1619 -78 1198 103 
Q 778 284 539 648 
Q 300 1013 288 1472 
z
" transform="scale(0.015625)"/>
        <path id="ArialMT-74" d="M 1650 503 
L 1731 6 
Q 1494 -44 1306 -44 
Q 1000 -44 831 53 
Q 663 150 594 308 
Q 525 466 525 972 
L 525 2881 
L 113 2881 
L 113 3319 
L 525 3319 
L 525 4141 
L 1084 4478 
L 1084 3319 
L 1650 3319 
L 1650 2881 
L 1084 2881 
L 1084 941 
Q 1084 700 1114 631 
Q 1144 563 1211 522 
Q 1278 481 1403 481 
Q 1497 481 1650 503 
z
" transform="scale(0.015625)"/>
        <path id="ArialMT-69" d="M 425 3934 
L 425 4581 
L 988 4581 
L 988 3934 
L 425 3934 
z
M 425 0 
L 425 3319 
L 988 3319 
L 988 0 
L 425 0 
z
" transform="scale(0.015625)"/>
        <path id="ArialMT-6d" d="M 422 0 
L 422 3319 
L 925 3319 
L 925 2853 
Q 1081 3097 1340 3245 
Q 1600 3394 1931 3394 
Q 2300 3394 2536 3241 
Q 2772 3088 2869 2813 
Q 3263 3394 3894 3394 
Q 4388 3394 4653 3120 
Q 4919 2847 4919 2278 
L 4919 0 
L 4359 0 
L 4359 2091 
Q 4359 2428 4304 2576 
Q 4250 2725 4106 2815 
Q 3963 2906 3769 2906 
Q 3419 2906 3187 2673 
Q 2956 2441 2956 1928 
L 2956 0 
L 2394 0 
L 2394 2156 
Q 2394 2531 2256 2718 
Q 2119 2906 1806 2906 
Q 1569 2906 1367 2781 
Q 1166 2656 1075 2415 
Q 984 2175 984 1722 
L 984 0 
L 422 0 
z
" transform="scale(0.015625)"/>
        <path id="ArialMT-2d" d="M 203 1375 
L 203 1941 
L 1931 1941 
L 1931 1375 
L 203 1375 
z
" transform="scale(0.015625)"/>
        <path id="ArialMT-43" d="M 3763 1606 
L 4369 1453 
Q 4178 706 3683 314 
Q 3188 -78 2472 -78 
Q 1731 -78 1267 223 
Q 803 525 561 1097 
Q 319 1669 319 2325 
Q 319 3041 592 3573 
Q 866 4106 1370 4382 
Q 1875 4659 2481 4659 
Q 3169 4659 3637 4309 
Q 4106 3959 4291 3325 
L 3694 3184 
Q 3534 3684 3231 3912 
Q 2928 4141 2469 4141 
Q 1941 4141 1586 3887 
Q 1231 3634 1087 3207 
Q 944 2781 944 2328 
Q 944 1744 1114 1308 
Q 1284 872 1643 656 
Q 2003 441 2422 441 
Q 2931 441 3284 734 
Q 3638 1028 3763 1606 
z
" transform="scale(0.015625)"/>
        <path id="ArialMT-4f" d="M 309 2231 
Q 309 3372 921 4017 
Q 1534 4663 2503 4663 
Q 3138 4663 3647 4359 
Q 4156 4056 4423 3514 
Q 4691 2972 4691 2284 
Q 4691 1588 4409 1038 
Q 4128 488 3612 205 
Q 3097 -78 2500 -78 
Q 1853 -78 1343 234 
Q 834 547 571 1087 
Q 309 1628 309 2231 
z
M 934 2222 
Q 934 1394 1379 917 
Q 1825 441 2497 441 
Q 3181 441 3623 922 
Q 4066 1403 4066 2288 
Q 4066 2847 3877 3264 
Q 3688 3681 3323 3911 
Q 2959 4141 2506 4141 
Q 1863 4141 1398 3698 
Q 934 3256 934 2222 
z
" transform="scale(0.015625)"/>
        <path id="ArialMT-44" d="M 494 0 
L 494 4581 
L 2072 4581 
Q 2606 4581 2888 4516 
Q 3281 4425 3559 4188 
Q 3922 3881 4101 3404 
Q 4281 2928 4281 2316 
Q 4281 1794 4159 1391 
Q 4038 988 3847 723 
Q 3656 459 3429 307 
Q 3203 156 2883 78 
Q 2563 0 2147 0 
L 494 0 
z
M 1100 541 
L 2078 541 
Q 2531 541 2789 625 
Q 3047 709 3200 863 
Q 3416 1078 3536 1442 
Q 3656 1806 3656 2325 
Q 3656 3044 3420 3430 
Q 3184 3816 2847 3947 
Q 2603 4041 2063 4041 
L 1100 4041 
L 1100 541 
z
" transform="scale(0.015625)"/>
        <path id="ArialMT-45" d="M 506 0 
L 506 4581 
L 3819 4581 
L 3819 4041 
L 1113 4041 
L 1113 2638 
L 3647 2638 
L 3647 2100 
L 1113 2100 
L 1113 541 
L 3925 541 
L 3925 0 
L 506 0 
z
" transform="scale(0.015625)"/>
        <path id="DejaVuSans-30" d="M 2034 4250 
Q 1547 4250 1301 3770 
Q 1056 3291 1056 2328 
Q 1056 1369 1301 889 
Q 1547 409 2034 409 
Q 2525 409 2770 889 
Q 3016 1369 3016 2328 
Q 3016 3291 2770 3770 
Q 2525 4250 2034 4250 
z
M 2034 4750 
Q 2819 4750 3233 4129 
Q 3647 3509 3647 2328 
Q 3647 1150 3233 529 
Q 2819 -91 2034 -91 
Q 1250 -91 836 529 
Q 422 1150 422 2328 
Q 422 3509 836 4129 
Q 1250 4750 2034 4750 
z
" transform="scale(0.015625)"/>
       </defs>
       <use xlink:href="#ArialMT-53" transform="translate(0 0.140625)"/>
       <use xlink:href="#ArialMT-74" transform="translate(66.699219 0.140625)"/>
       <use xlink:href="#ArialMT-69" transform="translate(94.482422 0.140625)"/>
       <use xlink:href="#ArialMT-6d" transform="translate(116.699219 0.140625)"/>
       <use xlink:href="#ArialMT-2d" transform="translate(200 0.140625)"/>
       <use xlink:href="#ArialMT-43" transform="translate(233.300781 0.140625)"/>
       <use xlink:href="#ArialMT-4f" transform="translate(305.517578 0.140625)"/>
       <use xlink:href="#ArialMT-44" transform="translate(383.300781 0.140625)"/>
       <use xlink:href="#ArialMT-45" transform="translate(455.517578 0.140625)"/>
       <use xlink:href="#ArialMT-2d" transform="translate(522.216797 0.140625)"/>
       <use xlink:href="#ArialMT-4d" transform="translate(555.517578 0.140625)"/>
       <use xlink:href="#DejaVuSans-30" transform="translate(639.775391 -16.265625) scale(0.7)"/>
      </g>
     </g>
    </g>
    <g id="xtick_3">
     <g id="line2d_3">
      <path d="M 649.799574 399.84229 
L 649.799574 16.863047 
" clip-path="url(#p5b20b0e6fe)" style="fill: none; stroke: #cccccc; stroke-linecap: round"/>
     </g>
     <g id="text_3">
      <!-- Bipolar -->
      <g style="fill: #262626" transform="translate(574.334185 468.100038) rotate(-30) scale(0.27 -0.27)">
       <defs>
        <path id="ArialMT-42" d="M 469 0 
L 469 4581 
L 2188 4581 
Q 2713 4581 3030 4442 
Q 3347 4303 3526 4014 
Q 3706 3725 3706 3409 
Q 3706 3116 3547 2856 
Q 3388 2597 3066 2438 
Q 3481 2316 3704 2022 
Q 3928 1728 3928 1328 
Q 3928 1006 3792 729 
Q 3656 453 3456 303 
Q 3256 153 2954 76 
Q 2653 0 2216 0 
L 469 0 
z
M 1075 2656 
L 2066 2656 
Q 2469 2656 2644 2709 
Q 2875 2778 2992 2937 
Q 3109 3097 3109 3338 
Q 3109 3566 3000 3739 
Q 2891 3913 2687 3977 
Q 2484 4041 1991 4041 
L 1075 4041 
L 1075 2656 
z
M 1075 541 
L 2216 541 
Q 2509 541 2628 563 
Q 2838 600 2978 687 
Q 3119 775 3209 942 
Q 3300 1109 3300 1328 
Q 3300 1584 3169 1773 
Q 3038 1963 2805 2039 
Q 2572 2116 2134 2116 
L 1075 2116 
L 1075 541 
z
" transform="scale(0.015625)"/>
        <path id="ArialMT-70" d="M 422 -1272 
L 422 3319 
L 934 3319 
L 934 2888 
Q 1116 3141 1344 3267 
Q 1572 3394 1897 3394 
Q 2322 3394 2647 3175 
Q 2972 2956 3137 2557 
Q 3303 2159 3303 1684 
Q 3303 1175 3120 767 
Q 2938 359 2589 142 
Q 2241 -75 1856 -75 
Q 1575 -75 1351 44 
Q 1128 163 984 344 
L 984 -1272 
L 422 -1272 
z
M 931 1641 
Q 931 1000 1190 694 
Q 1450 388 1819 388 
Q 2194 388 2461 705 
Q 2728 1022 2728 1688 
Q 2728 2322 2467 2637 
Q 2206 2953 1844 2953 
Q 1484 2953 1207 2617 
Q 931 2281 931 1641 
z
" transform="scale(0.015625)"/>
        <path id="ArialMT-6c" d="M 409 0 
L 409 4581 
L 972 4581 
L 972 0 
L 409 0 
z
" transform="scale(0.015625)"/>
        <path id="ArialMT-61" d="M 2588 409 
Q 2275 144 1986 34 
Q 1697 -75 1366 -75 
Q 819 -75 525 192 
Q 231 459 231 875 
Q 231 1119 342 1320 
Q 453 1522 633 1644 
Q 813 1766 1038 1828 
Q 1203 1872 1538 1913 
Q 2219 1994 2541 2106 
Q 2544 2222 2544 2253 
Q 2544 2597 2384 2738 
Q 2169 2928 1744 2928 
Q 1347 2928 1158 2789 
Q 969 2650 878 2297 
L 328 2372 
Q 403 2725 575 2942 
Q 747 3159 1072 3276 
Q 1397 3394 1825 3394 
Q 2250 3394 2515 3294 
Q 2781 3194 2906 3042 
Q 3031 2891 3081 2659 
Q 3109 2516 3109 2141 
L 3109 1391 
Q 3109 606 3145 398 
Q 3181 191 3288 0 
L 2700 0 
Q 2613 175 2588 409 
z
M 2541 1666 
Q 2234 1541 1622 1453 
Q 1275 1403 1131 1340 
Q 988 1278 909 1158 
Q 831 1038 831 891 
Q 831 666 1001 516 
Q 1172 366 1500 366 
Q 1825 366 2078 508 
Q 2331 650 2450 897 
Q 2541 1088 2541 1459 
L 2541 1666 
z
" transform="scale(0.015625)"/>
        <path id="ArialMT-72" d="M 416 0 
L 416 3319 
L 922 3319 
L 922 2816 
Q 1116 3169 1280 3281 
Q 1444 3394 1641 3394 
Q 1925 3394 2219 3213 
L 2025 2691 
Q 1819 2813 1613 2813 
Q 1428 2813 1281 2702 
Q 1134 2591 1072 2394 
Q 978 2094 978 1738 
L 978 0 
L 416 0 
z
" transform="scale(0.015625)"/>
       </defs>
       <use xlink:href="#ArialMT-42"/>
       <use xlink:href="#ArialMT-69" x="66.699219"/>
       <use xlink:href="#ArialMT-70" x="88.916016"/>
       <use xlink:href="#ArialMT-6f" x="144.53125"/>
       <use xlink:href="#ArialMT-6c" x="200.146484"/>
       <use xlink:href="#ArialMT-61" x="222.363281"/>
       <use xlink:href="#ArialMT-72" x="277.978516"/>
      </g>
     </g>
    </g>
    <g id="xtick_4">
     <g id="line2d_4">
      <path d="M 916.526847 399.84229 
L 916.526847 16.863047 
" clip-path="url(#p5b20b0e6fe)" style="fill: none; stroke: #cccccc; stroke-linecap: round"/>
     </g>
     <g id="text_4">
      <!-- Stim-CODE-M$_1$ -->
      <g style="fill: #262626" transform="translate(752.970843 518.959178) rotate(-30) scale(0.27 -0.27)">
       <defs>
        <path id="DejaVuSans-31" d="M 794 531 
L 1825 531 
L 1825 4091 
L 703 3866 
L 703 4441 
L 1819 4666 
L 2450 4666 
L 2450 531 
L 3481 531 
L 3481 0 
L 794 0 
L 794 531 
z
" transform="scale(0.015625)"/>
       </defs>
       <use xlink:href="#ArialMT-53" transform="translate(0 0.140625)"/>
       <use xlink:href="#ArialMT-74" transform="translate(66.699219 0.140625)"/>
       <use xlink:href="#ArialMT-69" transform="translate(94.482422 0.140625)"/>
       <use xlink:href="#ArialMT-6d" transform="translate(116.699219 0.140625)"/>
       <use xlink:href="#ArialMT-2d" transform="translate(200 0.140625)"/>
       <use xlink:href="#ArialMT-43" transform="translate(233.300781 0.140625)"/>
       <use xlink:href="#ArialMT-4f" transform="translate(305.517578 0.140625)"/>
       <use xlink:href="#ArialMT-44" transform="translate(383.300781 0.140625)"/>
       <use xlink:href="#ArialMT-45" transform="translate(455.517578 0.140625)"/>
       <use xlink:href="#ArialMT-2d" transform="translate(522.216797 0.140625)"/>
       <use xlink:href="#ArialMT-4d" transform="translate(555.517578 0.140625)"/>
       <use xlink:href="#DejaVuSans-31" transform="translate(639.775391 -16.265625) scale(0.7)"/>
      </g>
     </g>
    </g>
   </g>
   <g id="matplotlib.axis_2">
    <g id="ytick_1">
     <g id="line2d_5">
      <path d="M 76.335938 399.84229 
L 956.535938 399.84229 
" clip-path="url(#p5b20b0e6fe)" style="fill: none; stroke: #cccccc; stroke-linecap: round"/>
     </g>
     <g id="text_5">
      <!-- 0 -->
      <g style="fill: #262626" transform="translate(51.821406 409.505337) scale(0.27 -0.27)">
       <defs>
        <path id="ArialMT-30" d="M 266 2259 
Q 266 3072 433 3567 
Q 600 4063 929 4331 
Q 1259 4600 1759 4600 
Q 2128 4600 2406 4451 
Q 2684 4303 2865 4023 
Q 3047 3744 3150 3342 
Q 3253 2941 3253 2259 
Q 3253 1453 3087 958 
Q 2922 463 2592 192 
Q 2263 -78 1759 -78 
Q 1097 -78 719 397 
Q 266 969 266 2259 
z
M 844 2259 
Q 844 1131 1108 757 
Q 1372 384 1759 384 
Q 2147 384 2411 759 
Q 2675 1134 2675 2259 
Q 2675 3391 2411 3762 
Q 2147 4134 1753 4134 
Q 1366 4134 1134 3806 
Q 844 3388 844 2259 
z
" transform="scale(0.015625)"/>
       </defs>
       <use xlink:href="#ArialMT-30"/>
      </g>
     </g>
    </g>
    <g id="ytick_2">
     <g id="line2d_6">
      <path d="M 76.335938 336.012416 
L 956.535938 336.012416 
" clip-path="url(#p5b20b0e6fe)" style="fill: none; stroke: #cccccc; stroke-linecap: round"/>
     </g>
     <g id="text_6">
      <!-- 5 -->
      <g style="fill: #262626" transform="translate(51.821406 345.675463) scale(0.27 -0.27)">
       <defs>
        <path id="ArialMT-35" d="M 266 1200 
L 856 1250 
Q 922 819 1161 601 
Q 1400 384 1738 384 
Q 2144 384 2425 690 
Q 2706 997 2706 1503 
Q 2706 1984 2436 2262 
Q 2166 2541 1728 2541 
Q 1456 2541 1237 2417 
Q 1019 2294 894 2097 
L 366 2166 
L 809 4519 
L 3088 4519 
L 3088 3981 
L 1259 3981 
L 1013 2750 
Q 1425 3038 1878 3038 
Q 2478 3038 2890 2622 
Q 3303 2206 3303 1553 
Q 3303 931 2941 478 
Q 2500 -78 1738 -78 
Q 1113 -78 717 272 
Q 322 622 266 1200 
z
" transform="scale(0.015625)"/>
       </defs>
       <use xlink:href="#ArialMT-35"/>
      </g>
     </g>
    </g>
    <g id="ytick_3">
     <g id="line2d_7">
      <path d="M 76.335938 272.182542 
L 956.535938 272.182542 
" clip-path="url(#p5b20b0e6fe)" style="fill: none; stroke: #cccccc; stroke-linecap: round"/>
     </g>
     <g id="text_7">
      <!-- 10 -->
      <g style="fill: #262626" transform="translate(36.806875 281.845589) scale(0.27 -0.27)">
       <defs>
        <path id="ArialMT-31" d="M 2384 0 
L 1822 0 
L 1822 3584 
Q 1619 3391 1289 3197 
Q 959 3003 697 2906 
L 697 3450 
Q 1169 3672 1522 3987 
Q 1875 4303 2022 4600 
L 2384 4600 
L 2384 0 
z
" transform="scale(0.015625)"/>
       </defs>
       <use xlink:href="#ArialMT-31"/>
       <use xlink:href="#ArialMT-30" x="55.615234"/>
      </g>
     </g>
    </g>
    <g id="ytick_4">
     <g id="line2d_8">
      <path d="M 76.335938 208.352668 
L 956.535938 208.352668 
" clip-path="url(#p5b20b0e6fe)" style="fill: none; stroke: #cccccc; stroke-linecap: round"/>
     </g>
     <g id="text_8">
      <!-- 15 -->
      <g style="fill: #262626" transform="translate(36.806875 218.015715) scale(0.27 -0.27)">
       <use xlink:href="#ArialMT-31"/>
       <use xlink:href="#ArialMT-35" x="55.615234"/>
      </g>
     </g>
    </g>
    <g id="ytick_5">
     <g id="line2d_9">
      <path d="M 76.335938 144.522795 
L 956.535938 144.522795 
" clip-path="url(#p5b20b0e6fe)" style="fill: none; stroke: #cccccc; stroke-linecap: round"/>
     </g>
     <g id="text_9">
      <!-- 20 -->
      <g style="fill: #262626" transform="translate(36.806875 154.185841) scale(0.27 -0.27)">
       <defs>
        <path id="ArialMT-32" d="M 3222 541 
L 3222 0 
L 194 0 
Q 188 203 259 391 
Q 375 700 629 1000 
Q 884 1300 1366 1694 
Q 2113 2306 2375 2664 
Q 2638 3022 2638 3341 
Q 2638 3675 2398 3904 
Q 2159 4134 1775 4134 
Q 1369 4134 1125 3890 
Q 881 3647 878 3216 
L 300 3275 
Q 359 3922 746 4261 
Q 1134 4600 1788 4600 
Q 2447 4600 2831 4234 
Q 3216 3869 3216 3328 
Q 3216 3053 3103 2787 
Q 2991 2522 2730 2228 
Q 2469 1934 1863 1422 
Q 1356 997 1212 845 
Q 1069 694 975 541 
L 3222 541 
z
" transform="scale(0.015625)"/>
       </defs>
       <use xlink:href="#ArialMT-32"/>
       <use xlink:href="#ArialMT-30" x="55.615234"/>
      </g>
     </g>
    </g>
    <g id="ytick_6">
     <g id="line2d_10">
      <path d="M 76.335938 80.692921 
L 956.535938 80.692921 
" clip-path="url(#p5b20b0e6fe)" style="fill: none; stroke: #cccccc; stroke-linecap: round"/>
     </g>
     <g id="text_10">
      <!-- 25 -->
      <g style="fill: #262626" transform="translate(36.806875 90.355968) scale(0.27 -0.27)">
       <use xlink:href="#ArialMT-32"/>
       <use xlink:href="#ArialMT-35" x="55.615234"/>
      </g>
     </g>
    </g>
    <g id="ytick_7">
     <g id="line2d_11">
      <path d="M 76.335938 16.863047 
L 956.535938 16.863047 
" clip-path="url(#p5b20b0e6fe)" style="fill: none; stroke: #cccccc; stroke-linecap: round"/>
     </g>
     <g id="text_11">
      <!-- 30 -->
      <g style="fill: #262626" transform="translate(36.806875 26.526094) scale(0.27 -0.27)">
       <defs>
        <path id="ArialMT-33" d="M 269 1209 
L 831 1284 
Q 928 806 1161 595 
Q 1394 384 1728 384 
Q 2125 384 2398 659 
Q 2672 934 2672 1341 
Q 2672 1728 2419 1979 
Q 2166 2231 1775 2231 
Q 1616 2231 1378 2169 
L 1441 2663 
Q 1497 2656 1531 2656 
Q 1891 2656 2178 2843 
Q 2466 3031 2466 3422 
Q 2466 3731 2256 3934 
Q 2047 4138 1716 4138 
Q 1388 4138 1169 3931 
Q 950 3725 888 3313 
L 325 3413 
Q 428 3978 793 4289 
Q 1159 4600 1703 4600 
Q 2078 4600 2393 4439 
Q 2709 4278 2876 4000 
Q 3044 3722 3044 3409 
Q 3044 3113 2884 2869 
Q 2725 2625 2413 2481 
Q 2819 2388 3044 2092 
Q 3269 1797 3269 1353 
Q 3269 753 2831 336 
Q 2394 -81 1725 -81 
Q 1122 -81 723 278 
Q 325 638 269 1209 
z
" transform="scale(0.015625)"/>
       </defs>
       <use xlink:href="#ArialMT-33"/>
       <use xlink:href="#ArialMT-30" x="55.615234"/>
      </g>
     </g>
    </g>
    <g id="text_12">
     <!-- % CoV -->
     <g style="fill: #262626" transform="translate(27.241875 251.925481) rotate(-90) scale(0.28 -0.28)">
      <defs>
       <path id="ArialMT-25" d="M 372 3481 
Q 372 3972 619 4315 
Q 866 4659 1334 4659 
Q 1766 4659 2048 4351 
Q 2331 4044 2331 3447 
Q 2331 2866 2045 2552 
Q 1759 2238 1341 2238 
Q 925 2238 648 2547 
Q 372 2856 372 3481 
z
M 1350 4272 
Q 1141 4272 1002 4090 
Q 863 3909 863 3425 
Q 863 2984 1003 2804 
Q 1144 2625 1350 2625 
Q 1563 2625 1702 2806 
Q 1841 2988 1841 3469 
Q 1841 3913 1700 4092 
Q 1559 4272 1350 4272 
z
M 1353 -169 
L 3859 4659 
L 4316 4659 
L 1819 -169 
L 1353 -169 
z
M 3334 1075 
Q 3334 1569 3581 1911 
Q 3828 2253 4300 2253 
Q 4731 2253 5014 1945 
Q 5297 1638 5297 1041 
Q 5297 459 5011 145 
Q 4725 -169 4303 -169 
Q 3888 -169 3611 142 
Q 3334 453 3334 1075 
z
M 4316 1866 
Q 4103 1866 3964 1684 
Q 3825 1503 3825 1019 
Q 3825 581 3965 400 
Q 4106 219 4313 219 
Q 4528 219 4667 400 
Q 4806 581 4806 1063 
Q 4806 1506 4665 1686 
Q 4525 1866 4316 1866 
z
" transform="scale(0.015625)"/>
       <path id="ArialMT-20" transform="scale(0.015625)"/>
       <path id="ArialMT-56" d="M 1803 0 
L 28 4581 
L 684 4581 
L 1875 1253 
Q 2019 853 2116 503 
Q 2222 878 2363 1253 
L 3600 4581 
L 4219 4581 
L 2425 0 
L 1803 0 
z
" transform="scale(0.015625)"/>
      </defs>
      <use xlink:href="#ArialMT-25"/>
      <use xlink:href="#ArialMT-20" x="88.916016"/>
      <use xlink:href="#ArialMT-43" x="116.699219"/>
      <use xlink:href="#ArialMT-6f" x="188.916016"/>
      <use xlink:href="#ArialMT-56" x="244.53125"/>
     </g>
    </g>
   </g>
   <g id="line2d_12">
    <path d="M 116.345028 293.767492 
L 383.072301 280.781719 
L 649.799574 302.139249 
L 916.526847 262.386616 
" clip-path="url(#p5b20b0e6fe)" style="fill: none; stroke: #e41a1c; stroke-opacity: 0.25; stroke-width: 1.5; stroke-linecap: round"/>
   </g>
   <g id="line2d_13">
    <path d="M 116.345028 288.376098 
L 383.072301 285.001657 
L 649.799574 297.669253 
L 916.526847 259.237272 
" clip-path="url(#p5b20b0e6fe)" style="fill: none; stroke: #e41a1c; stroke-opacity: 0.25; stroke-width: 1.5; stroke-linecap: round"/>
   </g>
   <g id="line2d_14">
    <path d="M 116.345028 298.401741 
L 383.072301 294.842558 
L 649.799574 305.28029 
L 916.526847 274.585472 
" clip-path="url(#p5b20b0e6fe)" style="fill: none; stroke: #e41a1c; stroke-opacity: 0.25; stroke-width: 1.5; stroke-linecap: round"/>
   </g>
   <g id="line2d_15">
    <path d="M 116.345028 293.229441 
L 383.072301 281.05459 
L 649.799574 298.081946 
L 916.526847 250.570294 
" clip-path="url(#p5b20b0e6fe)" style="fill: none; stroke: #e41a1c; stroke-opacity: 0.25; stroke-width: 1.5; stroke-linecap: round"/>
   </g>
   <g id="line2d_16">
    <path d="M 116.345028 285.421031 
L 383.072301 285.234488 
L 649.799574 294.850581 
L 916.526847 260.235289 
" clip-path="url(#p5b20b0e6fe)" style="fill: none; stroke: #e41a1c; stroke-opacity: 0.25; stroke-width: 1.5; stroke-linecap: round"/>
   </g>
   <g id="line2d_17">
    <path d="M 116.345028 289.274991 
L 383.072301 281.702068 
L 649.799574 296.849686 
L 916.526847 265.56654 
" clip-path="url(#p5b20b0e6fe)" style="fill: none; stroke: #e41a1c; stroke-opacity: 0.25; stroke-width: 1.5; stroke-linecap: round"/>
   </g>
   <g id="line2d_18">
    <path d="M 116.345028 292.284307 
L 383.072301 284.31302 
L 649.799574 297.14302 
L 916.526847 266.143646 
" clip-path="url(#p5b20b0e6fe)" style="fill: none; stroke: #e41a1c; stroke-opacity: 0.25; stroke-width: 1.5; stroke-linecap: round"/>
   </g>
   <g id="line2d_19">
    <path d="M 116.345028 286.672965 
L 383.072301 276.970009 
L 649.799574 296.642186 
L 916.526847 248.835966 
" clip-path="url(#p5b20b0e6fe)" style="fill: none; stroke: #e41a1c; stroke-opacity: 0.25; stroke-width: 1.5; stroke-linecap: round"/>
   </g>
   <g id="line2d_20">
    <path d="M 116.345028 299.29939 
L 383.072301 294.549518 
L 649.799574 306.358335 
L 916.526847 273.109867 
" clip-path="url(#p5b20b0e6fe)" style="fill: none; stroke: #e41a1c; stroke-opacity: 0.25; stroke-width: 1.5; stroke-linecap: round"/>
   </g>
   <g id="line2d_21">
    <path d="M 116.345028 295.56325 
L 383.072301 291.430576 
L 649.799574 299.029383 
L 916.526847 278.973383 
" clip-path="url(#p5b20b0e6fe)" style="fill: none; stroke: #e41a1c; stroke-opacity: 0.25; stroke-width: 1.5; stroke-linecap: round"/>
   </g>
   <g id="line2d_22">
    <path d="M 116.345028 233.717932 
L 383.072301 237.406645 
L 649.799574 259.408294 
L 916.526847 198.088348 
" clip-path="url(#p5b20b0e6fe)" style="fill: none; stroke: #4daf4a; stroke-opacity: 0.25; stroke-width: 1.5; stroke-linecap: round"/>
   </g>
   <g id="line2d_23">
    <path d="M 116.345028 213.691072 
L 383.072301 203.476355 
L 649.799574 264.639109 
L 916.526847 222.338023 
" clip-path="url(#p5b20b0e6fe)" style="fill: none; stroke: #4daf4a; stroke-opacity: 0.25; stroke-width: 1.5; stroke-linecap: round"/>
   </g>
   <g id="line2d_24">
    <path d="M 116.345028 209.625757 
L 383.072301 215.249669 
L 649.799574 266.547709 
L 916.526847 230.329949 
" clip-path="url(#p5b20b0e6fe)" style="fill: none; stroke: #4daf4a; stroke-opacity: 0.25; stroke-width: 1.5; stroke-linecap: round"/>
   </g>
   <g id="line2d_25">
    <path d="M 116.345028 210.41483 
L 383.072301 158.452296 
L 649.799574 228.769632 
L 916.526847 121.58711 
" clip-path="url(#p5b20b0e6fe)" style="fill: none; stroke: #4daf4a; stroke-opacity: 0.25; stroke-width: 1.5; stroke-linecap: round"/>
   </g>
   <g id="line2d_26">
    <path d="M 116.345028 172.521263 
L 383.072301 179.921432 
L 649.799574 215.781801 
L 916.526847 80.509604 
" clip-path="url(#p5b20b0e6fe)" style="fill: none; stroke: #4daf4a; stroke-opacity: 0.25; stroke-width: 1.5; stroke-linecap: round"/>
   </g>
   <g id="line2d_27">
    <path d="M 116.345028 237.145145 
L 383.072301 226.746676 
L 649.799574 280.036737 
L 916.526847 219.097234 
" clip-path="url(#p5b20b0e6fe)" style="fill: none; stroke: #4daf4a; stroke-opacity: 0.25; stroke-width: 1.5; stroke-linecap: round"/>
   </g>
   <g id="line2d_28">
    <path d="M 116.345028 219.57491 
L 383.072301 181.059854 
L 649.799574 232.306332 
L 916.526847 160.377099 
" clip-path="url(#p5b20b0e6fe)" style="fill: none; stroke: #4daf4a; stroke-opacity: 0.25; stroke-width: 1.5; stroke-linecap: round"/>
   </g>
   <g id="line2d_29">
    <path d="M 116.345028 234.857663 
L 383.072301 196.485973 
L 649.799574 290.395074 
L 916.526847 154.655821 
" clip-path="url(#p5b20b0e6fe)" style="fill: none; stroke: #4daf4a; stroke-opacity: 0.25; stroke-width: 1.5; stroke-linecap: round"/>
   </g>
   <g id="line2d_30">
    <path d="M 116.345028 170.464332 
L 383.072301 227.96 
L 649.799574 286.943486 
L 916.526847 189.559936 
" clip-path="url(#p5b20b0e6fe)" style="fill: none; stroke: #4daf4a; stroke-opacity: 0.25; stroke-width: 1.5; stroke-linecap: round"/>
   </g>
   <g id="line2d_31">
    <path d="M 116.345028 196.030022 
L 383.072301 177.861403 
L 649.799574 230.731345 
L 916.526847 182.211291 
" clip-path="url(#p5b20b0e6fe)" style="fill: none; stroke: #4daf4a; stroke-opacity: 0.25; stroke-width: 1.5; stroke-linecap: round"/>
   </g>
   <g id="patch_3">
    <path d="M 76.335938 399.84229 
L 76.335938 16.863047 
" style="fill: none; stroke: #cccccc; stroke-width: 1.25; stroke-linejoin: miter; stroke-linecap: square"/>
   </g>
   <g id="patch_4">
    <path d="M 76.335938 399.84229 
L 956.535938 399.84229 
" style="fill: none; stroke: #cccccc; stroke-width: 1.25; stroke-linejoin: miter; stroke-linecap: square"/>
   </g>
   <g id="PathCollection_1">
    <defs>
     <path id="m60b59dcc82" d="M 0 5.656854 
C 1.500215 5.656854 2.939188 5.060812 4 4 
C 5.060812 2.939188 5.656854 1.500215 5.656854 0 
C 5.656854 -1.500215 5.060812 -2.939188 4 -4 
C 2.939188 -5.060812 1.500215 -5.656854 0 -5.656854 
C -1.500215 -5.656854 -2.939188 -5.060812 -4 -4 
C -5.060812 -2.939188 -5.656854 -1.500215 -5.656854 0 
C -5.656854 1.500215 -5.060812 2.939188 -4 4 
C -2.939188 5.060812 -1.500215 5.656854 0 5.656854 
z
" style="stroke: #e41a1c; stroke-opacity: 0.75"/>
    </defs>
    <g clip-path="url(#p5b20b0e6fe)">
     <use xlink:href="#m60b59dcc82" x="116.345028" y="293.767492" style="fill: #e41a1c; fill-opacity: 0.75; stroke: #e41a1c; stroke-opacity: 0.75"/>
     <use xlink:href="#m60b59dcc82" x="116.345028" y="288.376098" style="fill: #e41a1c; fill-opacity: 0.75; stroke: #e41a1c; stroke-opacity: 0.75"/>
     <use xlink:href="#m60b59dcc82" x="116.345028" y="298.401741" style="fill: #e41a1c; fill-opacity: 0.75; stroke: #e41a1c; stroke-opacity: 0.75"/>
     <use xlink:href="#m60b59dcc82" x="116.345028" y="293.229441" style="fill: #e41a1c; fill-opacity: 0.75; stroke: #e41a1c; stroke-opacity: 0.75"/>
     <use xlink:href="#m60b59dcc82" x="116.345028" y="285.421031" style="fill: #e41a1c; fill-opacity: 0.75; stroke: #e41a1c; stroke-opacity: 0.75"/>
     <use xlink:href="#m60b59dcc82" x="116.345028" y="289.274991" style="fill: #e41a1c; fill-opacity: 0.75; stroke: #e41a1c; stroke-opacity: 0.75"/>
     <use xlink:href="#m60b59dcc82" x="116.345028" y="292.284307" style="fill: #e41a1c; fill-opacity: 0.75; stroke: #e41a1c; stroke-opacity: 0.75"/>
     <use xlink:href="#m60b59dcc82" x="116.345028" y="286.672965" style="fill: #e41a1c; fill-opacity: 0.75; stroke: #e41a1c; stroke-opacity: 0.75"/>
     <use xlink:href="#m60b59dcc82" x="116.345028" y="299.29939" style="fill: #e41a1c; fill-opacity: 0.75; stroke: #e41a1c; stroke-opacity: 0.75"/>
     <use xlink:href="#m60b59dcc82" x="116.345028" y="295.56325" style="fill: #e41a1c; fill-opacity: 0.75; stroke: #e41a1c; stroke-opacity: 0.75"/>
    </g>
   </g>
   <g id="PathCollection_2">
    <g clip-path="url(#p5b20b0e6fe)">
     <use xlink:href="#m60b59dcc82" x="383.072301" y="280.781719" style="fill: #e41a1c; fill-opacity: 0.75; stroke: #e41a1c; stroke-opacity: 0.75"/>
     <use xlink:href="#m60b59dcc82" x="383.072301" y="285.001657" style="fill: #e41a1c; fill-opacity: 0.75; stroke: #e41a1c; stroke-opacity: 0.75"/>
     <use xlink:href="#m60b59dcc82" x="383.072301" y="294.842558" style="fill: #e41a1c; fill-opacity: 0.75; stroke: #e41a1c; stroke-opacity: 0.75"/>
     <use xlink:href="#m60b59dcc82" x="383.072301" y="281.05459" style="fill: #e41a1c; fill-opacity: 0.75; stroke: #e41a1c; stroke-opacity: 0.75"/>
     <use xlink:href="#m60b59dcc82" x="383.072301" y="285.234488" style="fill: #e41a1c; fill-opacity: 0.75; stroke: #e41a1c; stroke-opacity: 0.75"/>
     <use xlink:href="#m60b59dcc82" x="383.072301" y="281.702068" style="fill: #e41a1c; fill-opacity: 0.75; stroke: #e41a1c; stroke-opacity: 0.75"/>
     <use xlink:href="#m60b59dcc82" x="383.072301" y="284.31302" style="fill: #e41a1c; fill-opacity: 0.75; stroke: #e41a1c; stroke-opacity: 0.75"/>
     <use xlink:href="#m60b59dcc82" x="383.072301" y="276.970009" style="fill: #e41a1c; fill-opacity: 0.75; stroke: #e41a1c; stroke-opacity: 0.75"/>
     <use xlink:href="#m60b59dcc82" x="383.072301" y="294.549518" style="fill: #e41a1c; fill-opacity: 0.75; stroke: #e41a1c; stroke-opacity: 0.75"/>
     <use xlink:href="#m60b59dcc82" x="383.072301" y="291.430576" style="fill: #e41a1c; fill-opacity: 0.75; stroke: #e41a1c; stroke-opacity: 0.75"/>
    </g>
   </g>
   <g id="PathCollection_3">
    <g clip-path="url(#p5b20b0e6fe)">
     <use xlink:href="#m60b59dcc82" x="649.799574" y="302.139249" style="fill: #e41a1c; fill-opacity: 0.75; stroke: #e41a1c; stroke-opacity: 0.75"/>
     <use xlink:href="#m60b59dcc82" x="649.799574" y="297.669253" style="fill: #e41a1c; fill-opacity: 0.75; stroke: #e41a1c; stroke-opacity: 0.75"/>
     <use xlink:href="#m60b59dcc82" x="649.799574" y="305.28029" style="fill: #e41a1c; fill-opacity: 0.75; stroke: #e41a1c; stroke-opacity: 0.75"/>
     <use xlink:href="#m60b59dcc82" x="649.799574" y="298.081946" style="fill: #e41a1c; fill-opacity: 0.75; stroke: #e41a1c; stroke-opacity: 0.75"/>
     <use xlink:href="#m60b59dcc82" x="649.799574" y="294.850581" style="fill: #e41a1c; fill-opacity: 0.75; stroke: #e41a1c; stroke-opacity: 0.75"/>
     <use xlink:href="#m60b59dcc82" x="649.799574" y="296.849686" style="fill: #e41a1c; fill-opacity: 0.75; stroke: #e41a1c; stroke-opacity: 0.75"/>
     <use xlink:href="#m60b59dcc82" x="649.799574" y="297.14302" style="fill: #e41a1c; fill-opacity: 0.75; stroke: #e41a1c; stroke-opacity: 0.75"/>
     <use xlink:href="#m60b59dcc82" x="649.799574" y="296.642186" style="fill: #e41a1c; fill-opacity: 0.75; stroke: #e41a1c; stroke-opacity: 0.75"/>
     <use xlink:href="#m60b59dcc82" x="649.799574" y="306.358335" style="fill: #e41a1c; fill-opacity: 0.75; stroke: #e41a1c; stroke-opacity: 0.75"/>
     <use xlink:href="#m60b59dcc82" x="649.799574" y="299.029383" style="fill: #e41a1c; fill-opacity: 0.75; stroke: #e41a1c; stroke-opacity: 0.75"/>
    </g>
   </g>
   <g id="PathCollection_4">
    <g clip-path="url(#p5b20b0e6fe)">
     <use xlink:href="#m60b59dcc82" x="916.526847" y="262.386616" style="fill: #e41a1c; fill-opacity: 0.75; stroke: #e41a1c; stroke-opacity: 0.75"/>
     <use xlink:href="#m60b59dcc82" x="916.526847" y="259.237272" style="fill: #e41a1c; fill-opacity: 0.75; stroke: #e41a1c; stroke-opacity: 0.75"/>
     <use xlink:href="#m60b59dcc82" x="916.526847" y="274.585472" style="fill: #e41a1c; fill-opacity: 0.75; stroke: #e41a1c; stroke-opacity: 0.75"/>
     <use xlink:href="#m60b59dcc82" x="916.526847" y="250.570294" style="fill: #e41a1c; fill-opacity: 0.75; stroke: #e41a1c; stroke-opacity: 0.75"/>
     <use xlink:href="#m60b59dcc82" x="916.526847" y="260.235289" style="fill: #e41a1c; fill-opacity: 0.75; stroke: #e41a1c; stroke-opacity: 0.75"/>
     <use xlink:href="#m60b59dcc82" x="916.526847" y="265.56654" style="fill: #e41a1c; fill-opacity: 0.75; stroke: #e41a1c; stroke-opacity: 0.75"/>
     <use xlink:href="#m60b59dcc82" x="916.526847" y="266.143646" style="fill: #e41a1c; fill-opacity: 0.75; stroke: #e41a1c; stroke-opacity: 0.75"/>
     <use xlink:href="#m60b59dcc82" x="916.526847" y="248.835966" style="fill: #e41a1c; fill-opacity: 0.75; stroke: #e41a1c; stroke-opacity: 0.75"/>
     <use xlink:href="#m60b59dcc82" x="916.526847" y="273.109867" style="fill: #e41a1c; fill-opacity: 0.75; stroke: #e41a1c; stroke-opacity: 0.75"/>
     <use xlink:href="#m60b59dcc82" x="916.526847" y="278.973383" style="fill: #e41a1c; fill-opacity: 0.75; stroke: #e41a1c; stroke-opacity: 0.75"/>
    </g>
   </g>
   <g id="PathCollection_5">
    <defs>
     <path id="m54f9f8c07b" d="M 0 5.656854 
C 1.500215 5.656854 2.939188 5.060812 4 4 
C 5.060812 2.939188 5.656854 1.500215 5.656854 0 
C 5.656854 -1.500215 5.060812 -2.939188 4 -4 
C 2.939188 -5.060812 1.500215 -5.656854 0 -5.656854 
C -1.500215 -5.656854 -2.939188 -5.060812 -4 -4 
C -5.060812 -2.939188 -5.656854 -1.500215 -5.656854 0 
C -5.656854 1.500215 -5.060812 2.939188 -4 4 
C -2.939188 5.060812 -1.500215 5.656854 0 5.656854 
z
" style="stroke: #4daf4a; stroke-opacity: 0.75"/>
    </defs>
    <g clip-path="url(#p5b20b0e6fe)">
     <use xlink:href="#m54f9f8c07b" x="116.345028" y="233.717932" style="fill: #4daf4a; fill-opacity: 0.75; stroke: #4daf4a; stroke-opacity: 0.75"/>
     <use xlink:href="#m54f9f8c07b" x="116.345028" y="213.691072" style="fill: #4daf4a; fill-opacity: 0.75; stroke: #4daf4a; stroke-opacity: 0.75"/>
     <use xlink:href="#m54f9f8c07b" x="116.345028" y="209.625757" style="fill: #4daf4a; fill-opacity: 0.75; stroke: #4daf4a; stroke-opacity: 0.75"/>
     <use xlink:href="#m54f9f8c07b" x="116.345028" y="210.41483" style="fill: #4daf4a; fill-opacity: 0.75; stroke: #4daf4a; stroke-opacity: 0.75"/>
     <use xlink:href="#m54f9f8c07b" x="116.345028" y="172.521263" style="fill: #4daf4a; fill-opacity: 0.75; stroke: #4daf4a; stroke-opacity: 0.75"/>
     <use xlink:href="#m54f9f8c07b" x="116.345028" y="237.145145" style="fill: #4daf4a; fill-opacity: 0.75; stroke: #4daf4a; stroke-opacity: 0.75"/>
     <use xlink:href="#m54f9f8c07b" x="116.345028" y="219.57491" style="fill: #4daf4a; fill-opacity: 0.75; stroke: #4daf4a; stroke-opacity: 0.75"/>
     <use xlink:href="#m54f9f8c07b" x="116.345028" y="234.857663" style="fill: #4daf4a; fill-opacity: 0.75; stroke: #4daf4a; stroke-opacity: 0.75"/>
     <use xlink:href="#m54f9f8c07b" x="116.345028" y="170.464332" style="fill: #4daf4a; fill-opacity: 0.75; stroke: #4daf4a; stroke-opacity: 0.75"/>
     <use xlink:href="#m54f9f8c07b" x="116.345028" y="196.030022" style="fill: #4daf4a; fill-opacity: 0.75; stroke: #4daf4a; stroke-opacity: 0.75"/>
    </g>
   </g>
   <g id="PathCollection_6">
    <g clip-path="url(#p5b20b0e6fe)">
     <use xlink:href="#m54f9f8c07b" x="383.072301" y="237.406645" style="fill: #4daf4a; fill-opacity: 0.75; stroke: #4daf4a; stroke-opacity: 0.75"/>
     <use xlink:href="#m54f9f8c07b" x="383.072301" y="203.476355" style="fill: #4daf4a; fill-opacity: 0.75; stroke: #4daf4a; stroke-opacity: 0.75"/>
     <use xlink:href="#m54f9f8c07b" x="383.072301" y="215.249669" style="fill: #4daf4a; fill-opacity: 0.75; stroke: #4daf4a; stroke-opacity: 0.75"/>
     <use xlink:href="#m54f9f8c07b" x="383.072301" y="158.452296" style="fill: #4daf4a; fill-opacity: 0.75; stroke: #4daf4a; stroke-opacity: 0.75"/>
     <use xlink:href="#m54f9f8c07b" x="383.072301" y="179.921432" style="fill: #4daf4a; fill-opacity: 0.75; stroke: #4daf4a; stroke-opacity: 0.75"/>
     <use xlink:href="#m54f9f8c07b" x="383.072301" y="226.746676" style="fill: #4daf4a; fill-opacity: 0.75; stroke: #4daf4a; stroke-opacity: 0.75"/>
     <use xlink:href="#m54f9f8c07b" x="383.072301" y="181.059854" style="fill: #4daf4a; fill-opacity: 0.75; stroke: #4daf4a; stroke-opacity: 0.75"/>
     <use xlink:href="#m54f9f8c07b" x="383.072301" y="196.485973" style="fill: #4daf4a; fill-opacity: 0.75; stroke: #4daf4a; stroke-opacity: 0.75"/>
     <use xlink:href="#m54f9f8c07b" x="383.072301" y="227.96" style="fill: #4daf4a; fill-opacity: 0.75; stroke: #4daf4a; stroke-opacity: 0.75"/>
     <use xlink:href="#m54f9f8c07b" x="383.072301" y="177.861403" style="fill: #4daf4a; fill-opacity: 0.75; stroke: #4daf4a; stroke-opacity: 0.75"/>
    </g>
   </g>
   <g id="PathCollection_7">
    <g clip-path="url(#p5b20b0e6fe)">
     <use xlink:href="#m54f9f8c07b" x="649.799574" y="259.408294" style="fill: #4daf4a; fill-opacity: 0.75; stroke: #4daf4a; stroke-opacity: 0.75"/>
     <use xlink:href="#m54f9f8c07b" x="649.799574" y="264.639109" style="fill: #4daf4a; fill-opacity: 0.75; stroke: #4daf4a; stroke-opacity: 0.75"/>
     <use xlink:href="#m54f9f8c07b" x="649.799574" y="266.547709" style="fill: #4daf4a; fill-opacity: 0.75; stroke: #4daf4a; stroke-opacity: 0.75"/>
     <use xlink:href="#m54f9f8c07b" x="649.799574" y="228.769632" style="fill: #4daf4a; fill-opacity: 0.75; stroke: #4daf4a; stroke-opacity: 0.75"/>
     <use xlink:href="#m54f9f8c07b" x="649.799574" y="215.781801" style="fill: #4daf4a; fill-opacity: 0.75; stroke: #4daf4a; stroke-opacity: 0.75"/>
     <use xlink:href="#m54f9f8c07b" x="649.799574" y="280.036737" style="fill: #4daf4a; fill-opacity: 0.75; stroke: #4daf4a; stroke-opacity: 0.75"/>
     <use xlink:href="#m54f9f8c07b" x="649.799574" y="232.306332" style="fill: #4daf4a; fill-opacity: 0.75; stroke: #4daf4a; stroke-opacity: 0.75"/>
     <use xlink:href="#m54f9f8c07b" x="649.799574" y="290.395074" style="fill: #4daf4a; fill-opacity: 0.75; stroke: #4daf4a; stroke-opacity: 0.75"/>
     <use xlink:href="#m54f9f8c07b" x="649.799574" y="286.943486" style="fill: #4daf4a; fill-opacity: 0.75; stroke: #4daf4a; stroke-opacity: 0.75"/>
     <use xlink:href="#m54f9f8c07b" x="649.799574" y="230.731345" style="fill: #4daf4a; fill-opacity: 0.75; stroke: #4daf4a; stroke-opacity: 0.75"/>
    </g>
   </g>
   <g id="PathCollection_8">
    <g clip-path="url(#p5b20b0e6fe)">
     <use xlink:href="#m54f9f8c07b" x="916.526847" y="198.088348" style="fill: #4daf4a; fill-opacity: 0.75; stroke: #4daf4a; stroke-opacity: 0.75"/>
     <use xlink:href="#m54f9f8c07b" x="916.526847" y="222.338023" style="fill: #4daf4a; fill-opacity: 0.75; stroke: #4daf4a; stroke-opacity: 0.75"/>
     <use xlink:href="#m54f9f8c07b" x="916.526847" y="230.329949" style="fill: #4daf4a; fill-opacity: 0.75; stroke: #4daf4a; stroke-opacity: 0.75"/>
     <use xlink:href="#m54f9f8c07b" x="916.526847" y="121.58711" style="fill: #4daf4a; fill-opacity: 0.75; stroke: #4daf4a; stroke-opacity: 0.75"/>
     <use xlink:href="#m54f9f8c07b" x="916.526847" y="80.509604" style="fill: #4daf4a; fill-opacity: 0.75; stroke: #4daf4a; stroke-opacity: 0.75"/>
     <use xlink:href="#m54f9f8c07b" x="916.526847" y="219.097234" style="fill: #4daf4a; fill-opacity: 0.75; stroke: #4daf4a; stroke-opacity: 0.75"/>
     <use xlink:href="#m54f9f8c07b" x="916.526847" y="160.377099" style="fill: #4daf4a; fill-opacity: 0.75; stroke: #4daf4a; stroke-opacity: 0.75"/>
     <use xlink:href="#m54f9f8c07b" x="916.526847" y="154.655821" style="fill: #4daf4a; fill-opacity: 0.75; stroke: #4daf4a; stroke-opacity: 0.75"/>
     <use xlink:href="#m54f9f8c07b" x="916.526847" y="189.559936" style="fill: #4daf4a; fill-opacity: 0.75; stroke: #4daf4a; stroke-opacity: 0.75"/>
     <use xlink:href="#m54f9f8c07b" x="916.526847" y="182.211291" style="fill: #4daf4a; fill-opacity: 0.75; stroke: #4daf4a; stroke-opacity: 0.75"/>
    </g>
   </g>
   <g id="legend_1">
    <g id="PathCollection_9">
     <g>
      <use xlink:href="#m60b59dcc82" x="127.635938" y="53.401641" style="fill: #e41a1c; fill-opacity: 0.75; stroke: #e41a1c; stroke-opacity: 0.75"/>
     </g>
    </g>
    <g id="text_13">
     <!-- Whole Brain -->
     <g style="fill: #262626" transform="translate(176.235938 60.489141) scale(0.27 -0.27)">
      <defs>
       <path id="ArialMT-57" d="M 1294 0 
L 78 4581 
L 700 4581 
L 1397 1578 
Q 1509 1106 1591 641 
Q 1766 1375 1797 1488 
L 2669 4581 
L 3400 4581 
L 4056 2263 
Q 4303 1400 4413 641 
Q 4500 1075 4641 1638 
L 5359 4581 
L 5969 4581 
L 4713 0 
L 4128 0 
L 3163 3491 
Q 3041 3928 3019 4028 
Q 2947 3713 2884 3491 
L 1913 0 
L 1294 0 
z
" transform="scale(0.015625)"/>
       <path id="ArialMT-68" d="M 422 0 
L 422 4581 
L 984 4581 
L 984 2938 
Q 1378 3394 1978 3394 
Q 2347 3394 2619 3248 
Q 2891 3103 3008 2847 
Q 3125 2591 3125 2103 
L 3125 0 
L 2563 0 
L 2563 2103 
Q 2563 2525 2380 2717 
Q 2197 2909 1863 2909 
Q 1613 2909 1392 2779 
Q 1172 2650 1078 2428 
Q 984 2206 984 1816 
L 984 0 
L 422 0 
z
" transform="scale(0.015625)"/>
       <path id="ArialMT-65" d="M 2694 1069 
L 3275 997 
Q 3138 488 2766 206 
Q 2394 -75 1816 -75 
Q 1088 -75 661 373 
Q 234 822 234 1631 
Q 234 2469 665 2931 
Q 1097 3394 1784 3394 
Q 2450 3394 2872 2941 
Q 3294 2488 3294 1666 
Q 3294 1616 3291 1516 
L 816 1516 
Q 847 969 1125 678 
Q 1403 388 1819 388 
Q 2128 388 2347 550 
Q 2566 713 2694 1069 
z
M 847 1978 
L 2700 1978 
Q 2663 2397 2488 2606 
Q 2219 2931 1791 2931 
Q 1403 2931 1139 2672 
Q 875 2413 847 1978 
z
" transform="scale(0.015625)"/>
      </defs>
      <use xlink:href="#ArialMT-57"/>
      <use xlink:href="#ArialMT-68" x="94.384766"/>
      <use xlink:href="#ArialMT-6f" x="150"/>
      <use xlink:href="#ArialMT-6c" x="205.615234"/>
      <use xlink:href="#ArialMT-65" x="227.832031"/>
      <use xlink:href="#ArialMT-20" x="283.447266"/>
      <use xlink:href="#ArialMT-42" x="311.230469"/>
      <use xlink:href="#ArialMT-72" x="377.929688"/>
      <use xlink:href="#ArialMT-61" x="411.230469"/>
      <use xlink:href="#ArialMT-69" x="466.845703"/>
      <use xlink:href="#ArialMT-6e" x="489.0625"/>
     </g>
    </g>
    <g id="PathCollection_10">
     <g>
      <use xlink:href="#m54f9f8c07b" x="127.635938" y="91.593984" style="fill: #4daf4a; fill-opacity: 0.75; stroke: #4daf4a; stroke-opacity: 0.75"/>
     </g>
    </g>
    <g id="text_14">
     <!-- Edge -->
     <g style="fill: #262626" transform="translate(176.235938 98.681484) scale(0.27 -0.27)">
      <defs>
       <path id="ArialMT-64" d="M 2575 0 
L 2575 419 
Q 2259 -75 1647 -75 
Q 1250 -75 917 144 
Q 584 363 401 755 
Q 219 1147 219 1656 
Q 219 2153 384 2558 
Q 550 2963 881 3178 
Q 1213 3394 1622 3394 
Q 1922 3394 2156 3267 
Q 2391 3141 2538 2938 
L 2538 4581 
L 3097 4581 
L 3097 0 
L 2575 0 
z
M 797 1656 
Q 797 1019 1065 703 
Q 1334 388 1700 388 
Q 2069 388 2326 689 
Q 2584 991 2584 1609 
Q 2584 2291 2321 2609 
Q 2059 2928 1675 2928 
Q 1300 2928 1048 2622 
Q 797 2316 797 1656 
z
" transform="scale(0.015625)"/>
       <path id="ArialMT-67" d="M 319 -275 
L 866 -356 
Q 900 -609 1056 -725 
Q 1266 -881 1628 -881 
Q 2019 -881 2231 -725 
Q 2444 -569 2519 -288 
Q 2563 -116 2559 434 
Q 2191 0 1641 0 
Q 956 0 581 494 
Q 206 988 206 1678 
Q 206 2153 378 2554 
Q 550 2956 876 3175 
Q 1203 3394 1644 3394 
Q 2231 3394 2613 2919 
L 2613 3319 
L 3131 3319 
L 3131 450 
Q 3131 -325 2973 -648 
Q 2816 -972 2473 -1159 
Q 2131 -1347 1631 -1347 
Q 1038 -1347 672 -1080 
Q 306 -813 319 -275 
z
M 784 1719 
Q 784 1066 1043 766 
Q 1303 466 1694 466 
Q 2081 466 2343 764 
Q 2606 1063 2606 1700 
Q 2606 2309 2336 2618 
Q 2066 2928 1684 2928 
Q 1309 2928 1046 2623 
Q 784 2319 784 1719 
z
" transform="scale(0.015625)"/>
      </defs>
      <use xlink:href="#ArialMT-45"/>
      <use xlink:href="#ArialMT-64" x="66.699219"/>
      <use xlink:href="#ArialMT-67" x="122.314453"/>
      <use xlink:href="#ArialMT-65" x="177.929688"/>
     </g>
    </g>
   </g>
   <g id="LineCollection_1">
    <path d="M 116.345028 298.321656 
L 116.345028 286.393837 
" clip-path="url(#p5b20b0e6fe)" style="fill: none; stroke: #000000; stroke-width: 4"/>
   </g>
   <g id="line2d_32">
    <defs>
     <path id="mf84a918192" d="M 10 0 
L -10 -0 
" style="stroke: #000000; stroke-width: 3"/>
    </defs>
    <g clip-path="url(#p5b20b0e6fe)">
     <use xlink:href="#mf84a918192" x="116.345028" y="298.321656" style="stroke: #000000; stroke-width: 3"/>
    </g>
   </g>
   <g id="line2d_33">
    <g clip-path="url(#p5b20b0e6fe)">
     <use xlink:href="#mf84a918192" x="116.345028" y="286.393837" style="stroke: #000000; stroke-width: 3"/>
    </g>
   </g>
   <g id="LineCollection_2">
    <path d="M 383.072301 293.813553 
L 383.072301 278.847986 
" clip-path="url(#p5b20b0e6fe)" style="fill: none; stroke: #000000; stroke-width: 4"/>
   </g>
   <g id="line2d_34">
    <g clip-path="url(#p5b20b0e6fe)">
     <use xlink:href="#mf84a918192" x="383.072301" y="293.813553" style="stroke: #000000; stroke-width: 3"/>
    </g>
   </g>
   <g id="line2d_35">
    <g clip-path="url(#p5b20b0e6fe)">
     <use xlink:href="#mf84a918192" x="383.072301" y="278.847986" style="stroke: #000000; stroke-width: 3"/>
    </g>
   </g>
   <g id="LineCollection_3">
    <path d="M 649.799574 305.16345 
L 649.799574 295.713492 
" clip-path="url(#p5b20b0e6fe)" style="fill: none; stroke: #000000; stroke-width: 4"/>
   </g>
   <g id="line2d_36">
    <g clip-path="url(#p5b20b0e6fe)">
     <use xlink:href="#mf84a918192" x="649.799574" y="305.16345" style="stroke: #000000; stroke-width: 3"/>
    </g>
   </g>
   <g id="line2d_37">
    <g clip-path="url(#p5b20b0e6fe)">
     <use xlink:href="#mf84a918192" x="649.799574" y="295.713492" style="stroke: #000000; stroke-width: 3"/>
    </g>
   </g>
   <g id="LineCollection_4">
    <path d="M 916.526847 276.499283 
L 916.526847 251.221319 
" clip-path="url(#p5b20b0e6fe)" style="fill: none; stroke: #000000; stroke-width: 4"/>
   </g>
   <g id="line2d_38">
    <g clip-path="url(#p5b20b0e6fe)">
     <use xlink:href="#mf84a918192" x="916.526847" y="276.499283" style="stroke: #000000; stroke-width: 3"/>
    </g>
   </g>
   <g id="line2d_39">
    <g clip-path="url(#p5b20b0e6fe)">
     <use xlink:href="#mf84a918192" x="916.526847" y="251.221319" style="stroke: #000000; stroke-width: 3"/>
    </g>
   </g>
   <g id="LineCollection_5">
    <path d="M 116.345028 235.026234 
L 116.345028 176.158535 
" clip-path="url(#p5b20b0e6fe)" style="fill: none; stroke: #000000; stroke-width: 4"/>
   </g>
   <g id="line2d_40">
    <g clip-path="url(#p5b20b0e6fe)">
     <use xlink:href="#mf84a918192" x="116.345028" y="235.026234" style="stroke: #000000; stroke-width: 3"/>
    </g>
   </g>
   <g id="line2d_41">
    <g clip-path="url(#p5b20b0e6fe)">
     <use xlink:href="#mf84a918192" x="116.345028" y="176.158535" style="stroke: #000000; stroke-width: 3"/>
    </g>
   </g>
   <g id="LineCollection_6">
    <path d="M 383.072301 232.220412 
L 383.072301 167.570884 
" clip-path="url(#p5b20b0e6fe)" style="fill: none; stroke: #000000; stroke-width: 4"/>
   </g>
   <g id="line2d_42">
    <g clip-path="url(#p5b20b0e6fe)">
     <use xlink:href="#mf84a918192" x="383.072301" y="232.220412" style="stroke: #000000; stroke-width: 3"/>
    </g>
   </g>
   <g id="line2d_43">
    <g clip-path="url(#p5b20b0e6fe)">
     <use xlink:href="#mf84a918192" x="383.072301" y="167.570884" style="stroke: #000000; stroke-width: 3"/>
    </g>
   </g>
   <g id="LineCollection_7">
    <path d="M 649.799574 286.878225 
L 649.799574 222.491269 
" clip-path="url(#p5b20b0e6fe)" style="fill: none; stroke: #000000; stroke-width: 4"/>
   </g>
   <g id="line2d_44">
    <g clip-path="url(#p5b20b0e6fe)">
     <use xlink:href="#mf84a918192" x="649.799574" y="286.878225" style="stroke: #000000; stroke-width: 3"/>
    </g>
   </g>
   <g id="line2d_45">
    <g clip-path="url(#p5b20b0e6fe)">
     <use xlink:href="#mf84a918192" x="649.799574" y="222.491269" style="stroke: #000000; stroke-width: 3"/>
    </g>
   </g>
   <g id="LineCollection_8">
    <path d="M 916.526847 224.815356 
L 916.526847 104.979285 
" clip-path="url(#p5b20b0e6fe)" style="fill: none; stroke: #000000; stroke-width: 4"/>
   </g>
   <g id="line2d_46">
    <g clip-path="url(#p5b20b0e6fe)">
     <use xlink:href="#mf84a918192" x="916.526847" y="224.815356" style="stroke: #000000; stroke-width: 3"/>
    </g>
   </g>
   <g id="line2d_47">
    <g clip-path="url(#p5b20b0e6fe)">
     <use xlink:href="#mf84a918192" x="916.526847" y="104.979285" style="stroke: #000000; stroke-width: 3"/>
    </g>
   </g>
   <g id="line2d_48">
    <defs>
     <path id="m47f6c7502b" d="M 0 6.123724 
C 1.624031 6.123724 3.181764 5.47849 4.330127 4.330127 
C 5.47849 3.181764 6.123724 1.624031 6.123724 0 
C 6.123724 -1.624031 5.47849 -3.181764 4.330127 -4.330127 
C 3.181764 -5.47849 1.624031 -6.123724 0 -6.123724 
C -1.624031 -6.123724 -3.181764 -5.47849 -4.330127 -4.330127 
C -5.47849 -3.181764 -6.123724 -1.624031 -6.123724 0 
C -6.123724 1.624031 -5.47849 3.181764 -4.330127 4.330127 
C -3.181764 5.47849 -1.624031 6.123724 0 6.123724 
z
" style="stroke: #000000"/>
    </defs>
    <g clip-path="url(#p5b20b0e6fe)">
     <use xlink:href="#m47f6c7502b" x="116.345028" y="292.756874" style="stroke: #000000"/>
    </g>
   </g>
   <g id="line2d_49">
    <g clip-path="url(#p5b20b0e6fe)">
     <use xlink:href="#m47f6c7502b" x="383.072301" y="284.657339" style="stroke: #000000"/>
    </g>
   </g>
   <g id="line2d_50">
    <g clip-path="url(#p5b20b0e6fe)">
     <use xlink:href="#m47f6c7502b" x="649.799574" y="297.8756" style="stroke: #000000"/>
    </g>
   </g>
   <g id="line2d_51">
    <g clip-path="url(#p5b20b0e6fe)">
     <use xlink:href="#m47f6c7502b" x="916.526847" y="263.976578" style="stroke: #000000"/>
    </g>
   </g>
   <g id="line2d_52">
    <g clip-path="url(#p5b20b0e6fe)">
     <use xlink:href="#m47f6c7502b" x="116.345028" y="212.052951" style="stroke: #000000"/>
    </g>
   </g>
   <g id="line2d_53">
    <g clip-path="url(#p5b20b0e6fe)">
     <use xlink:href="#m47f6c7502b" x="383.072301" y="199.981164" style="stroke: #000000"/>
    </g>
   </g>
   <g id="line2d_54">
    <g clip-path="url(#p5b20b0e6fe)">
     <use xlink:href="#m47f6c7502b" x="649.799574" y="262.023702" style="stroke: #000000"/>
    </g>
   </g>
   <g id="line2d_55">
    <g clip-path="url(#p5b20b0e6fe)">
     <use xlink:href="#m47f6c7502b" x="916.526847" y="185.885614" style="stroke: #000000"/>
    </g>
   </g>
  </g>
 </g>
 <defs>
  <clipPath id="p5b20b0e6fe">
   <rect x="76.335938" y="16.863047" width="880.2" height="382.979243"/>
  </clipPath>
 </defs>
</svg>
